M48
;GenerationSoftware,Autodesk,EAGLE,9.5.1*%
;CreationDate,2020-10-09T06:02:12Z*%
FMAT,2
ICI,OFF
METRIC,TZ,000.000
T5C0.200
T4C0.350
T3C0.400
T2C1.016
T1C1.100
%
G90
M71
T1
X122707Y16764
X190246Y12954
X190246Y20828
T2
X132867Y13640
X132867Y20142
X130327Y20142
X127787Y20142
X125247Y20142
X122707Y20142
X122707Y13640
X125247Y13640
X127787Y13640
X130327Y13640
T3
X135001Y13360
T4
X131102Y15151
X133998Y14770
X131000Y18529
X125514Y18098
X128702Y15469
X127927Y18250
X123393Y15189
X123584Y18275
X126047Y15456
X155473Y13995
X152083Y19545
X134823Y20142
T5
X151489Y16296
X151489Y15458
X153441Y15875
X146406Y16688
X146406Y15875
X146406Y15469
X153187Y14326
X145960Y14808
X150546Y14173
X146406Y16281
X149352Y15088
X140767Y15062
X151489Y15883
X150038Y17094
M30