M48
;GenerationSoftware,Autodesk,EAGLE,9.5.1*%
;CreationDate,2020-05-20T04:20:46Z*%
FMAT,2
ICI,OFF
METRIC,TZ,000.000
T5C0.200
T4C0.350
T3C0.400
T2C1.016
T1C1.100
%
G90
M71
T1
X127711Y16764
X190246Y12954
X190246Y20828
T2
X137871Y20142
X135331Y20142
X132791Y20142
X130251Y20142
X127711Y20142
X127711Y13640
X130251Y13640
X132791Y13640
X135331Y13640
X137871Y13640
T3
X140005Y13360
T4
X155473Y13995
X152083Y19545
T5
X145960Y14808
X149352Y15088
X140767Y15062
X151489Y15883
X151489Y16296
X151489Y15458
X153441Y15875
X146406Y16688
X146406Y15875
X146406Y15469
X153187Y14326
X150038Y17094
X150546Y14173
X146406Y16281
M30