G04 EAGLE Gerber RS-274X export*
G75*
%MOMM*%
%FSLAX34Y34*%
%LPD*%
%INTop Copper*%
%IPPOS*%
%AMOC8*
5,1,8,0,0,1.08239X$1,22.5*%
G01*
%ADD10C,0.304800*%
%ADD11R,1.500000X1.500000*%
%ADD12R,1.400000X1.200000*%
%ADD13R,1.400000X2.000000*%
%ADD14R,0.600000X0.200000*%
%ADD15R,0.200000X0.600000*%
%ADD16R,0.900000X0.700000*%
%ADD17R,0.700000X0.900000*%
%ADD18C,0.088500*%
%ADD19C,1.524000*%
%ADD20C,0.152400*%
%ADD21C,0.203200*%
%ADD22C,0.254000*%
%ADD23C,0.352400*%
%ADD24C,0.355600*%
%ADD25C,0.406400*%
%ADD26C,0.508000*%
%ADD27C,0.600000*%
%ADD28C,0.609600*%
%ADD29C,0.525000*%
%ADD30C,0.762000*%

G36*
X1451671Y130322D02*
X1451671Y130322D01*
X1451790Y130340D01*
X1451794Y130342D01*
X1451798Y130342D01*
X1451902Y130398D01*
X1452009Y130453D01*
X1452011Y130456D01*
X1452015Y130458D01*
X1452097Y130544D01*
X1452180Y130629D01*
X1452182Y130633D01*
X1452184Y130636D01*
X1452235Y130744D01*
X1452286Y130851D01*
X1452286Y130855D01*
X1452288Y130859D01*
X1452301Y130977D01*
X1452316Y131095D01*
X1452315Y131100D01*
X1452315Y131103D01*
X1452312Y131117D01*
X1452290Y131261D01*
X1452277Y131310D01*
X1452277Y134660D01*
X1452266Y134731D01*
X1452264Y134803D01*
X1452246Y134852D01*
X1452238Y134903D01*
X1452204Y134966D01*
X1452179Y135034D01*
X1452147Y135074D01*
X1452122Y135120D01*
X1452070Y135170D01*
X1452026Y135226D01*
X1451982Y135254D01*
X1451944Y135290D01*
X1451879Y135320D01*
X1451819Y135359D01*
X1451768Y135372D01*
X1451721Y135393D01*
X1451650Y135401D01*
X1451580Y135419D01*
X1451528Y135415D01*
X1451477Y135421D01*
X1451406Y135405D01*
X1451335Y135400D01*
X1451287Y135379D01*
X1451236Y135368D01*
X1451175Y135331D01*
X1451109Y135303D01*
X1451053Y135259D01*
X1451025Y135242D01*
X1451010Y135224D01*
X1450978Y135199D01*
X1450558Y134779D01*
X1449979Y134444D01*
X1449332Y134271D01*
X1446021Y134271D01*
X1446021Y139550D01*
X1446018Y139570D01*
X1446020Y139589D01*
X1445998Y139691D01*
X1445981Y139793D01*
X1445972Y139810D01*
X1445968Y139830D01*
X1445915Y139919D01*
X1445866Y140010D01*
X1445852Y140024D01*
X1445842Y140041D01*
X1445763Y140108D01*
X1445688Y140179D01*
X1445670Y140188D01*
X1445655Y140201D01*
X1445559Y140240D01*
X1445465Y140283D01*
X1445445Y140285D01*
X1445427Y140293D01*
X1445260Y140311D01*
X1444497Y140311D01*
X1444497Y141074D01*
X1444494Y141094D01*
X1444496Y141113D01*
X1444474Y141215D01*
X1444457Y141317D01*
X1444448Y141334D01*
X1444444Y141354D01*
X1444391Y141443D01*
X1444342Y141534D01*
X1444328Y141548D01*
X1444318Y141565D01*
X1444239Y141632D01*
X1444164Y141703D01*
X1444146Y141712D01*
X1444131Y141725D01*
X1444035Y141764D01*
X1443941Y141807D01*
X1443921Y141809D01*
X1443903Y141817D01*
X1443736Y141835D01*
X1434591Y141835D01*
X1434591Y145743D01*
X1434576Y145833D01*
X1434569Y145924D01*
X1434557Y145954D01*
X1434551Y145986D01*
X1434509Y146067D01*
X1434473Y146150D01*
X1434447Y146183D01*
X1434436Y146203D01*
X1434413Y146225D01*
X1434368Y146281D01*
X1432585Y148064D01*
X1432511Y148117D01*
X1432442Y148177D01*
X1432412Y148189D01*
X1432386Y148208D01*
X1432299Y148235D01*
X1432214Y148269D01*
X1432173Y148273D01*
X1432151Y148280D01*
X1432118Y148279D01*
X1432047Y148287D01*
X1427936Y148287D01*
X1427891Y148332D01*
X1427875Y148344D01*
X1427863Y148360D01*
X1427775Y148416D01*
X1427692Y148476D01*
X1427672Y148482D01*
X1427656Y148493D01*
X1427555Y148518D01*
X1427456Y148548D01*
X1427436Y148548D01*
X1427417Y148553D01*
X1427314Y148545D01*
X1427211Y148542D01*
X1427192Y148535D01*
X1427172Y148534D01*
X1427077Y148493D01*
X1426980Y148458D01*
X1426964Y148445D01*
X1426946Y148437D01*
X1426815Y148332D01*
X1426770Y148287D01*
X1420881Y148287D01*
X1420791Y148273D01*
X1420700Y148265D01*
X1420670Y148253D01*
X1420638Y148248D01*
X1420558Y148205D01*
X1420474Y148169D01*
X1420441Y148143D01*
X1420421Y148132D01*
X1420399Y148109D01*
X1420343Y148064D01*
X1419931Y147652D01*
X1419889Y147594D01*
X1419839Y147542D01*
X1419817Y147495D01*
X1419787Y147453D01*
X1419766Y147384D01*
X1419736Y147319D01*
X1419730Y147267D01*
X1419715Y147217D01*
X1419717Y147146D01*
X1419709Y147075D01*
X1419720Y147024D01*
X1419721Y146972D01*
X1419746Y146904D01*
X1419761Y146834D01*
X1419788Y146789D01*
X1419806Y146741D01*
X1419850Y146685D01*
X1419887Y146623D01*
X1419927Y146589D01*
X1419959Y146549D01*
X1420019Y146510D01*
X1420074Y146463D01*
X1420115Y146447D01*
X1420115Y141835D01*
X1414597Y141835D01*
X1414597Y144146D01*
X1414770Y144793D01*
X1415105Y145372D01*
X1415578Y145845D01*
X1416157Y146180D01*
X1416721Y146331D01*
X1416743Y146341D01*
X1416767Y146345D01*
X1416855Y146391D01*
X1416946Y146432D01*
X1416963Y146448D01*
X1416984Y146460D01*
X1417053Y146532D01*
X1417126Y146599D01*
X1417137Y146620D01*
X1417154Y146638D01*
X1417196Y146728D01*
X1417243Y146815D01*
X1417247Y146839D01*
X1417257Y146861D01*
X1417268Y146960D01*
X1417286Y147058D01*
X1417282Y147082D01*
X1417285Y147105D01*
X1417263Y147202D01*
X1417248Y147301D01*
X1417237Y147322D01*
X1417232Y147346D01*
X1417181Y147431D01*
X1417136Y147520D01*
X1417118Y147536D01*
X1417106Y147557D01*
X1417031Y147621D01*
X1416959Y147691D01*
X1416938Y147701D01*
X1416919Y147717D01*
X1416827Y147754D01*
X1416737Y147797D01*
X1416713Y147800D01*
X1416691Y147809D01*
X1416524Y147827D01*
X1406510Y147827D01*
X1404873Y149464D01*
X1404873Y151780D01*
X1406510Y153417D01*
X1414852Y153417D01*
X1414872Y153420D01*
X1414891Y153418D01*
X1414993Y153440D01*
X1415095Y153456D01*
X1415112Y153466D01*
X1415132Y153470D01*
X1415221Y153523D01*
X1415312Y153572D01*
X1415326Y153586D01*
X1415343Y153596D01*
X1415410Y153675D01*
X1415482Y153750D01*
X1415490Y153768D01*
X1415503Y153783D01*
X1415542Y153879D01*
X1415585Y153973D01*
X1415587Y153993D01*
X1415595Y154011D01*
X1415613Y154178D01*
X1415613Y157444D01*
X1416506Y158337D01*
X1426770Y158337D01*
X1426815Y158292D01*
X1426831Y158280D01*
X1426843Y158264D01*
X1426930Y158208D01*
X1427014Y158148D01*
X1427033Y158142D01*
X1427050Y158131D01*
X1427151Y158106D01*
X1427249Y158076D01*
X1427269Y158076D01*
X1427289Y158071D01*
X1427392Y158079D01*
X1427495Y158082D01*
X1427514Y158089D01*
X1427534Y158090D01*
X1427629Y158131D01*
X1427726Y158166D01*
X1427742Y158179D01*
X1427760Y158187D01*
X1427891Y158292D01*
X1427936Y158337D01*
X1431031Y158337D01*
X1431121Y158351D01*
X1431212Y158359D01*
X1431242Y158371D01*
X1431274Y158376D01*
X1431354Y158419D01*
X1431438Y158455D01*
X1431471Y158481D01*
X1431491Y158492D01*
X1431513Y158515D01*
X1431569Y158560D01*
X1435130Y162121D01*
X1435183Y162195D01*
X1435243Y162264D01*
X1435255Y162294D01*
X1435274Y162320D01*
X1435301Y162408D01*
X1435335Y162492D01*
X1435339Y162533D01*
X1435346Y162555D01*
X1435345Y162588D01*
X1435353Y162659D01*
X1435353Y163474D01*
X1435350Y163494D01*
X1435352Y163513D01*
X1435330Y163615D01*
X1435314Y163717D01*
X1435304Y163734D01*
X1435300Y163754D01*
X1435247Y163843D01*
X1435198Y163934D01*
X1435184Y163948D01*
X1435174Y163965D01*
X1435095Y164032D01*
X1435020Y164104D01*
X1435002Y164112D01*
X1434987Y164125D01*
X1434891Y164164D01*
X1434797Y164207D01*
X1434777Y164209D01*
X1434759Y164217D01*
X1434592Y164235D01*
X1433680Y164235D01*
X1433660Y164232D01*
X1433641Y164234D01*
X1433539Y164212D01*
X1433437Y164196D01*
X1433420Y164186D01*
X1433400Y164182D01*
X1433311Y164129D01*
X1433220Y164080D01*
X1433206Y164066D01*
X1433189Y164056D01*
X1433122Y163977D01*
X1433050Y163902D01*
X1433042Y163884D01*
X1433029Y163869D01*
X1432995Y163784D01*
X1431766Y162555D01*
X1418922Y162555D01*
X1417769Y163708D01*
X1417769Y170352D01*
X1417940Y170523D01*
X1417952Y170539D01*
X1417967Y170552D01*
X1418023Y170639D01*
X1418084Y170723D01*
X1418090Y170742D01*
X1418100Y170759D01*
X1418126Y170859D01*
X1418156Y170958D01*
X1418156Y170978D01*
X1418160Y170997D01*
X1418152Y171100D01*
X1418150Y171204D01*
X1418143Y171223D01*
X1418141Y171243D01*
X1418101Y171338D01*
X1418065Y171435D01*
X1418053Y171451D01*
X1418045Y171469D01*
X1417940Y171600D01*
X1417349Y172191D01*
X1416957Y172871D01*
X1416753Y173630D01*
X1416753Y175056D01*
X1424631Y175056D01*
X1424650Y175059D01*
X1424670Y175057D01*
X1424772Y175079D01*
X1424874Y175095D01*
X1424891Y175105D01*
X1424911Y175109D01*
X1425000Y175162D01*
X1425091Y175211D01*
X1425105Y175225D01*
X1425122Y175235D01*
X1425189Y175314D01*
X1425260Y175389D01*
X1425269Y175407D01*
X1425282Y175422D01*
X1425320Y175518D01*
X1425364Y175612D01*
X1425366Y175632D01*
X1425374Y175650D01*
X1425392Y175817D01*
X1425392Y177243D01*
X1425389Y177263D01*
X1425391Y177282D01*
X1425369Y177384D01*
X1425352Y177486D01*
X1425343Y177503D01*
X1425339Y177523D01*
X1425286Y177612D01*
X1425237Y177703D01*
X1425223Y177717D01*
X1425213Y177734D01*
X1425134Y177801D01*
X1425059Y177873D01*
X1425041Y177881D01*
X1425026Y177894D01*
X1424929Y177933D01*
X1424836Y177976D01*
X1424816Y177978D01*
X1424798Y177986D01*
X1424631Y178004D01*
X1416753Y178004D01*
X1416753Y179430D01*
X1416957Y180189D01*
X1417349Y180869D01*
X1417940Y181460D01*
X1417952Y181476D01*
X1417967Y181489D01*
X1418023Y181576D01*
X1418084Y181660D01*
X1418090Y181679D01*
X1418100Y181696D01*
X1418126Y181796D01*
X1418156Y181895D01*
X1418156Y181915D01*
X1418160Y181934D01*
X1418152Y182037D01*
X1418150Y182141D01*
X1418143Y182160D01*
X1418141Y182179D01*
X1418101Y182274D01*
X1418065Y182372D01*
X1418053Y182387D01*
X1418045Y182406D01*
X1417940Y182537D01*
X1417769Y182708D01*
X1417769Y189352D01*
X1418922Y190505D01*
X1431766Y190505D01*
X1432983Y189289D01*
X1433025Y189217D01*
X1433074Y189126D01*
X1433088Y189112D01*
X1433098Y189095D01*
X1433177Y189028D01*
X1433252Y188956D01*
X1433270Y188948D01*
X1433285Y188935D01*
X1433381Y188896D01*
X1433475Y188853D01*
X1433495Y188851D01*
X1433513Y188843D01*
X1433680Y188825D01*
X1435648Y188825D01*
X1440943Y183530D01*
X1440943Y178054D01*
X1440946Y178034D01*
X1440944Y178015D01*
X1440966Y177913D01*
X1440982Y177811D01*
X1440992Y177794D01*
X1440996Y177774D01*
X1441049Y177685D01*
X1441098Y177594D01*
X1441112Y177580D01*
X1441122Y177563D01*
X1441201Y177496D01*
X1441276Y177424D01*
X1441294Y177416D01*
X1441309Y177403D01*
X1441405Y177364D01*
X1441499Y177321D01*
X1441519Y177319D01*
X1441537Y177311D01*
X1441704Y177293D01*
X1469550Y177293D01*
X1469570Y177296D01*
X1469589Y177294D01*
X1469691Y177316D01*
X1469793Y177332D01*
X1469810Y177342D01*
X1469830Y177346D01*
X1469919Y177399D01*
X1470010Y177448D01*
X1470024Y177462D01*
X1470041Y177472D01*
X1470108Y177551D01*
X1470180Y177626D01*
X1470188Y177644D01*
X1470201Y177659D01*
X1470240Y177755D01*
X1470283Y177849D01*
X1470285Y177869D01*
X1470293Y177887D01*
X1470311Y178054D01*
X1470311Y182982D01*
X1470308Y183002D01*
X1470310Y183021D01*
X1470288Y183123D01*
X1470272Y183225D01*
X1470262Y183242D01*
X1470258Y183262D01*
X1470205Y183351D01*
X1470156Y183442D01*
X1470142Y183456D01*
X1470132Y183473D01*
X1470053Y183540D01*
X1469978Y183612D01*
X1469960Y183620D01*
X1469945Y183633D01*
X1469849Y183672D01*
X1469755Y183715D01*
X1469735Y183717D01*
X1469717Y183725D01*
X1469550Y183743D01*
X1458780Y183743D01*
X1458760Y183740D01*
X1458741Y183742D01*
X1458639Y183720D01*
X1458537Y183704D01*
X1458520Y183694D01*
X1458500Y183690D01*
X1458411Y183637D01*
X1458320Y183588D01*
X1458306Y183574D01*
X1458289Y183564D01*
X1458222Y183485D01*
X1458150Y183410D01*
X1458142Y183392D01*
X1458129Y183377D01*
X1458090Y183281D01*
X1458047Y183187D01*
X1458045Y183167D01*
X1458037Y183149D01*
X1458019Y182982D01*
X1458019Y182708D01*
X1456866Y181555D01*
X1444022Y181555D01*
X1442869Y182708D01*
X1442869Y189352D01*
X1444022Y190505D01*
X1456866Y190505D01*
X1458019Y189352D01*
X1458019Y189078D01*
X1458022Y189058D01*
X1458020Y189039D01*
X1458042Y188937D01*
X1458058Y188835D01*
X1458068Y188818D01*
X1458072Y188798D01*
X1458125Y188709D01*
X1458174Y188618D01*
X1458188Y188604D01*
X1458198Y188587D01*
X1458277Y188520D01*
X1458352Y188448D01*
X1458370Y188440D01*
X1458385Y188427D01*
X1458481Y188388D01*
X1458575Y188345D01*
X1458595Y188343D01*
X1458613Y188335D01*
X1458780Y188317D01*
X1470809Y188317D01*
X1470899Y188331D01*
X1470990Y188339D01*
X1471020Y188351D01*
X1471052Y188356D01*
X1471128Y188397D01*
X1479468Y188397D01*
X1480361Y187504D01*
X1480361Y180737D01*
X1480375Y180647D01*
X1480383Y180556D01*
X1480395Y180526D01*
X1480400Y180494D01*
X1480443Y180413D01*
X1480479Y180329D01*
X1480505Y180297D01*
X1480516Y180276D01*
X1480539Y180254D01*
X1480584Y180198D01*
X1480996Y179786D01*
X1481054Y179744D01*
X1481106Y179695D01*
X1481153Y179673D01*
X1481195Y179643D01*
X1481264Y179622D01*
X1481329Y179591D01*
X1481381Y179586D01*
X1481431Y179570D01*
X1481502Y179572D01*
X1481573Y179564D01*
X1481624Y179575D01*
X1481676Y179577D01*
X1481744Y179601D01*
X1481814Y179616D01*
X1481859Y179643D01*
X1481907Y179661D01*
X1481963Y179706D01*
X1482025Y179743D01*
X1482059Y179782D01*
X1482099Y179815D01*
X1482138Y179875D01*
X1482185Y179930D01*
X1482204Y179978D01*
X1482232Y180022D01*
X1482250Y180091D01*
X1482277Y180158D01*
X1482285Y180229D01*
X1482293Y180260D01*
X1482291Y180284D01*
X1482295Y180324D01*
X1482295Y180849D01*
X1486813Y180849D01*
X1486813Y175160D01*
X1486779Y175125D01*
X1486723Y175080D01*
X1486695Y175036D01*
X1486659Y174998D01*
X1486629Y174933D01*
X1486590Y174873D01*
X1486577Y174822D01*
X1486555Y174775D01*
X1486547Y174704D01*
X1486530Y174634D01*
X1486534Y174582D01*
X1486528Y174531D01*
X1486543Y174460D01*
X1486549Y174389D01*
X1486569Y174341D01*
X1486580Y174290D01*
X1486617Y174229D01*
X1486645Y174163D01*
X1486690Y174107D01*
X1486707Y174079D01*
X1486724Y174064D01*
X1486750Y174032D01*
X1486829Y173953D01*
X1486844Y173857D01*
X1486854Y173840D01*
X1486858Y173820D01*
X1486911Y173731D01*
X1486960Y173640D01*
X1486974Y173626D01*
X1486984Y173609D01*
X1487063Y173542D01*
X1487138Y173470D01*
X1487156Y173462D01*
X1487171Y173449D01*
X1487267Y173410D01*
X1487361Y173367D01*
X1487381Y173365D01*
X1487399Y173357D01*
X1487566Y173339D01*
X1488150Y173339D01*
X1488165Y173324D01*
X1488239Y173271D01*
X1488308Y173211D01*
X1488338Y173199D01*
X1488364Y173180D01*
X1488451Y173153D01*
X1488536Y173119D01*
X1488577Y173115D01*
X1488599Y173108D01*
X1488632Y173109D01*
X1488703Y173101D01*
X1498987Y173101D01*
X1499078Y173115D01*
X1499168Y173123D01*
X1499198Y173135D01*
X1499230Y173140D01*
X1499311Y173183D01*
X1499395Y173219D01*
X1499407Y173229D01*
X1501325Y173229D01*
X1502757Y171797D01*
X1502773Y171785D01*
X1502786Y171770D01*
X1502873Y171714D01*
X1502957Y171653D01*
X1502976Y171648D01*
X1502992Y171637D01*
X1503093Y171611D01*
X1503192Y171581D01*
X1503212Y171582D01*
X1503231Y171577D01*
X1503334Y171585D01*
X1503438Y171587D01*
X1503456Y171594D01*
X1503476Y171596D01*
X1503571Y171636D01*
X1503669Y171672D01*
X1503684Y171684D01*
X1503703Y171692D01*
X1503834Y171797D01*
X1505488Y173452D01*
X1505541Y173526D01*
X1505601Y173595D01*
X1505613Y173625D01*
X1505632Y173651D01*
X1505659Y173738D01*
X1505693Y173823D01*
X1505697Y173864D01*
X1505704Y173887D01*
X1505703Y173919D01*
X1505711Y173990D01*
X1505711Y174824D01*
X1505708Y174844D01*
X1505710Y174863D01*
X1505688Y174965D01*
X1505672Y175067D01*
X1505662Y175084D01*
X1505658Y175104D01*
X1505605Y175193D01*
X1505556Y175284D01*
X1505542Y175298D01*
X1505532Y175315D01*
X1505453Y175382D01*
X1505378Y175454D01*
X1505360Y175462D01*
X1505345Y175475D01*
X1505249Y175514D01*
X1505155Y175557D01*
X1505135Y175559D01*
X1505117Y175567D01*
X1504950Y175585D01*
X1502767Y175585D01*
X1502767Y181864D01*
X1502764Y181884D01*
X1502766Y181903D01*
X1502744Y182005D01*
X1502727Y182107D01*
X1502718Y182124D01*
X1502714Y182144D01*
X1502661Y182233D01*
X1502612Y182324D01*
X1502598Y182338D01*
X1502588Y182355D01*
X1502509Y182422D01*
X1502434Y182493D01*
X1502416Y182502D01*
X1502401Y182515D01*
X1502305Y182554D01*
X1502211Y182597D01*
X1502191Y182599D01*
X1502173Y182607D01*
X1502006Y182625D01*
X1501243Y182625D01*
X1501243Y182627D01*
X1502006Y182627D01*
X1502026Y182630D01*
X1502045Y182628D01*
X1502147Y182650D01*
X1502249Y182667D01*
X1502266Y182676D01*
X1502286Y182680D01*
X1502375Y182733D01*
X1502466Y182782D01*
X1502480Y182796D01*
X1502497Y182806D01*
X1502564Y182885D01*
X1502635Y182960D01*
X1502644Y182978D01*
X1502657Y182993D01*
X1502696Y183089D01*
X1502739Y183183D01*
X1502741Y183203D01*
X1502749Y183221D01*
X1502767Y183388D01*
X1502767Y189667D01*
X1504950Y189667D01*
X1504970Y189670D01*
X1504989Y189668D01*
X1505091Y189690D01*
X1505193Y189706D01*
X1505210Y189716D01*
X1505230Y189720D01*
X1505319Y189773D01*
X1505410Y189822D01*
X1505424Y189836D01*
X1505441Y189846D01*
X1505508Y189925D01*
X1505580Y190000D01*
X1505588Y190018D01*
X1505601Y190033D01*
X1505640Y190129D01*
X1505683Y190223D01*
X1505685Y190243D01*
X1505693Y190261D01*
X1505711Y190428D01*
X1505711Y193040D01*
X1505697Y193130D01*
X1505689Y193221D01*
X1505677Y193251D01*
X1505672Y193283D01*
X1505629Y193363D01*
X1505593Y193447D01*
X1505567Y193479D01*
X1505556Y193500D01*
X1505533Y193522D01*
X1505488Y193578D01*
X1503456Y195610D01*
X1503382Y195663D01*
X1503313Y195723D01*
X1503283Y195735D01*
X1503257Y195754D01*
X1503170Y195781D01*
X1503085Y195815D01*
X1503044Y195819D01*
X1503021Y195826D01*
X1502989Y195825D01*
X1502918Y195833D01*
X1403604Y195833D01*
X1403514Y195819D01*
X1403423Y195811D01*
X1403393Y195799D01*
X1403361Y195794D01*
X1403281Y195751D01*
X1403197Y195715D01*
X1403165Y195689D01*
X1403144Y195678D01*
X1403122Y195655D01*
X1403066Y195610D01*
X1390335Y182879D01*
X1370391Y182879D01*
X1363685Y189585D01*
X1363672Y189594D01*
X1363663Y189607D01*
X1363573Y189666D01*
X1363486Y189729D01*
X1363470Y189733D01*
X1363457Y189742D01*
X1363353Y189770D01*
X1363251Y189801D01*
X1363235Y189801D01*
X1363219Y189805D01*
X1363112Y189797D01*
X1363005Y189795D01*
X1362990Y189789D01*
X1362974Y189788D01*
X1362875Y189747D01*
X1362774Y189710D01*
X1362761Y189700D01*
X1362746Y189694D01*
X1362665Y189624D01*
X1362582Y189557D01*
X1362573Y189543D01*
X1362561Y189533D01*
X1362469Y189392D01*
X1362002Y188477D01*
X1361062Y187183D01*
X1359931Y186052D01*
X1358637Y185112D01*
X1357212Y184386D01*
X1355691Y183891D01*
X1354835Y183756D01*
X1354835Y200660D01*
X1354832Y200680D01*
X1354834Y200699D01*
X1354812Y200801D01*
X1354795Y200903D01*
X1354786Y200920D01*
X1354782Y200940D01*
X1354729Y201029D01*
X1354680Y201120D01*
X1354666Y201134D01*
X1354656Y201151D01*
X1354577Y201218D01*
X1354502Y201289D01*
X1354484Y201298D01*
X1354469Y201311D01*
X1354373Y201349D01*
X1354279Y201393D01*
X1354259Y201395D01*
X1354241Y201403D01*
X1354074Y201421D01*
X1352550Y201421D01*
X1352530Y201418D01*
X1352511Y201420D01*
X1352409Y201398D01*
X1352307Y201381D01*
X1352290Y201372D01*
X1352270Y201368D01*
X1352181Y201315D01*
X1352090Y201266D01*
X1352076Y201252D01*
X1352059Y201242D01*
X1351992Y201163D01*
X1351921Y201088D01*
X1351912Y201070D01*
X1351899Y201055D01*
X1351860Y200959D01*
X1351817Y200865D01*
X1351815Y200845D01*
X1351807Y200827D01*
X1351789Y200660D01*
X1351789Y183756D01*
X1350933Y183891D01*
X1349412Y184386D01*
X1347987Y185112D01*
X1346693Y186052D01*
X1345722Y187022D01*
X1345664Y187064D01*
X1345612Y187113D01*
X1345565Y187135D01*
X1345523Y187166D01*
X1345454Y187187D01*
X1345389Y187217D01*
X1345337Y187223D01*
X1345287Y187238D01*
X1345216Y187236D01*
X1345145Y187244D01*
X1345094Y187233D01*
X1345042Y187232D01*
X1344974Y187207D01*
X1344904Y187192D01*
X1344860Y187165D01*
X1344811Y187147D01*
X1344755Y187102D01*
X1344693Y187066D01*
X1344659Y187026D01*
X1344619Y186994D01*
X1344580Y186933D01*
X1344533Y186879D01*
X1344514Y186831D01*
X1344486Y186787D01*
X1344468Y186717D01*
X1344441Y186651D01*
X1344433Y186579D01*
X1344425Y186548D01*
X1344427Y186525D01*
X1344423Y186484D01*
X1344423Y163576D01*
X1344438Y163486D01*
X1344445Y163395D01*
X1344457Y163365D01*
X1344463Y163333D01*
X1344505Y163253D01*
X1344541Y163169D01*
X1344567Y163137D01*
X1344578Y163116D01*
X1344601Y163094D01*
X1344646Y163038D01*
X1353282Y154402D01*
X1353356Y154349D01*
X1353425Y154289D01*
X1353455Y154277D01*
X1353481Y154258D01*
X1353568Y154231D01*
X1353653Y154197D01*
X1353694Y154193D01*
X1353717Y154186D01*
X1353749Y154187D01*
X1353820Y154179D01*
X1390335Y154179D01*
X1391159Y153355D01*
X1391159Y135890D01*
X1391174Y135800D01*
X1391181Y135709D01*
X1391193Y135679D01*
X1391199Y135647D01*
X1391241Y135567D01*
X1391277Y135483D01*
X1391303Y135451D01*
X1391314Y135430D01*
X1391337Y135408D01*
X1391382Y135352D01*
X1396208Y130526D01*
X1396282Y130473D01*
X1396351Y130413D01*
X1396381Y130401D01*
X1396407Y130382D01*
X1396494Y130355D01*
X1396579Y130321D01*
X1396620Y130317D01*
X1396643Y130310D01*
X1396675Y130311D01*
X1396746Y130303D01*
X1451555Y130303D01*
X1451671Y130322D01*
G37*
G36*
X1536352Y173626D02*
X1536352Y173626D01*
X1536456Y173628D01*
X1536475Y173635D01*
X1536495Y173637D01*
X1536590Y173677D01*
X1536687Y173713D01*
X1536703Y173725D01*
X1536721Y173733D01*
X1536852Y173838D01*
X1542339Y179325D01*
X1611396Y179325D01*
X1611416Y179328D01*
X1611435Y179326D01*
X1611537Y179348D01*
X1611639Y179364D01*
X1611656Y179374D01*
X1611676Y179378D01*
X1611765Y179431D01*
X1611856Y179480D01*
X1611870Y179494D01*
X1611887Y179504D01*
X1611954Y179583D01*
X1612026Y179658D01*
X1612034Y179676D01*
X1612047Y179691D01*
X1612086Y179787D01*
X1612129Y179881D01*
X1612131Y179901D01*
X1612139Y179919D01*
X1612157Y180086D01*
X1612157Y182786D01*
X1612154Y182806D01*
X1612156Y182825D01*
X1612134Y182927D01*
X1612118Y183029D01*
X1612108Y183046D01*
X1612104Y183066D01*
X1612051Y183155D01*
X1612002Y183246D01*
X1611988Y183260D01*
X1611978Y183277D01*
X1611899Y183344D01*
X1611824Y183416D01*
X1611806Y183424D01*
X1611791Y183437D01*
X1611695Y183476D01*
X1611601Y183519D01*
X1611581Y183521D01*
X1611563Y183529D01*
X1611396Y183547D01*
X1608082Y183547D01*
X1607189Y184440D01*
X1607189Y205704D01*
X1607703Y206218D01*
X1607745Y206276D01*
X1607795Y206328D01*
X1607817Y206375D01*
X1607847Y206417D01*
X1607868Y206486D01*
X1607898Y206551D01*
X1607904Y206603D01*
X1607919Y206653D01*
X1607917Y206724D01*
X1607925Y206795D01*
X1607914Y206846D01*
X1607913Y206898D01*
X1607888Y206966D01*
X1607873Y207036D01*
X1607846Y207081D01*
X1607829Y207129D01*
X1607784Y207185D01*
X1607747Y207247D01*
X1607707Y207281D01*
X1607675Y207321D01*
X1607615Y207360D01*
X1607560Y207407D01*
X1607512Y207426D01*
X1607468Y207454D01*
X1607398Y207472D01*
X1607332Y207499D01*
X1607261Y207507D01*
X1607229Y207515D01*
X1607206Y207513D01*
X1607165Y207517D01*
X1389634Y207517D01*
X1389614Y207514D01*
X1389595Y207516D01*
X1389493Y207494D01*
X1389391Y207478D01*
X1389374Y207468D01*
X1389354Y207464D01*
X1389265Y207411D01*
X1389174Y207362D01*
X1389160Y207348D01*
X1389143Y207338D01*
X1389076Y207259D01*
X1389004Y207184D01*
X1388996Y207166D01*
X1388983Y207151D01*
X1388944Y207055D01*
X1388901Y206961D01*
X1388899Y206941D01*
X1388891Y206923D01*
X1388873Y206756D01*
X1388873Y202945D01*
X1379474Y202945D01*
X1379454Y202942D01*
X1379435Y202944D01*
X1379333Y202922D01*
X1379231Y202905D01*
X1379214Y202896D01*
X1379194Y202892D01*
X1379105Y202839D01*
X1379014Y202790D01*
X1379000Y202776D01*
X1378983Y202766D01*
X1378916Y202687D01*
X1378845Y202612D01*
X1378836Y202594D01*
X1378823Y202579D01*
X1378785Y202483D01*
X1378741Y202389D01*
X1378739Y202369D01*
X1378731Y202351D01*
X1378713Y202184D01*
X1378713Y200660D01*
X1378716Y200640D01*
X1378714Y200621D01*
X1378736Y200519D01*
X1378753Y200417D01*
X1378762Y200400D01*
X1378766Y200380D01*
X1378819Y200291D01*
X1378868Y200200D01*
X1378882Y200186D01*
X1378892Y200169D01*
X1378971Y200102D01*
X1379046Y200031D01*
X1379064Y200022D01*
X1379079Y200009D01*
X1379175Y199970D01*
X1379269Y199927D01*
X1379289Y199925D01*
X1379307Y199917D01*
X1379474Y199899D01*
X1388873Y199899D01*
X1388873Y193002D01*
X1388623Y191423D01*
X1388128Y189902D01*
X1387402Y188477D01*
X1386462Y187183D01*
X1385331Y186052D01*
X1385310Y186036D01*
X1385304Y186030D01*
X1385297Y186026D01*
X1385218Y185943D01*
X1385136Y185861D01*
X1385133Y185854D01*
X1385127Y185848D01*
X1385079Y185744D01*
X1385028Y185640D01*
X1385027Y185632D01*
X1385024Y185625D01*
X1385011Y185511D01*
X1384996Y185397D01*
X1384997Y185389D01*
X1384997Y185381D01*
X1385021Y185268D01*
X1385043Y185155D01*
X1385047Y185148D01*
X1385049Y185140D01*
X1385108Y185041D01*
X1385165Y184941D01*
X1385171Y184936D01*
X1385175Y184929D01*
X1385263Y184854D01*
X1385348Y184778D01*
X1385356Y184774D01*
X1385362Y184769D01*
X1385469Y184726D01*
X1385574Y184681D01*
X1385582Y184680D01*
X1385590Y184677D01*
X1385757Y184659D01*
X1388923Y184659D01*
X1389013Y184674D01*
X1389104Y184681D01*
X1389134Y184693D01*
X1389166Y184699D01*
X1389247Y184741D01*
X1389330Y184777D01*
X1389363Y184803D01*
X1389383Y184814D01*
X1389405Y184837D01*
X1389461Y184882D01*
X1400527Y195948D01*
X1400669Y195948D01*
X1400759Y195962D01*
X1400850Y195970D01*
X1400880Y195982D01*
X1400912Y195987D01*
X1400992Y196030D01*
X1401076Y196066D01*
X1401108Y196092D01*
X1401129Y196103D01*
X1401151Y196126D01*
X1401207Y196171D01*
X1402395Y197359D01*
X1512255Y197359D01*
X1535775Y173838D01*
X1535792Y173826D01*
X1535804Y173811D01*
X1535891Y173755D01*
X1535975Y173694D01*
X1535994Y173689D01*
X1536011Y173678D01*
X1536112Y173652D01*
X1536210Y173622D01*
X1536230Y173623D01*
X1536250Y173618D01*
X1536352Y173626D01*
G37*
G36*
X1626890Y134878D02*
X1626890Y134878D01*
X1626909Y134876D01*
X1627011Y134898D01*
X1627113Y134914D01*
X1627130Y134924D01*
X1627150Y134928D01*
X1627239Y134981D01*
X1627330Y135030D01*
X1627344Y135044D01*
X1627361Y135054D01*
X1627428Y135133D01*
X1627500Y135208D01*
X1627508Y135226D01*
X1627521Y135241D01*
X1627560Y135337D01*
X1627603Y135431D01*
X1627605Y135451D01*
X1627613Y135469D01*
X1627631Y135636D01*
X1627631Y206756D01*
X1627628Y206776D01*
X1627630Y206795D01*
X1627608Y206897D01*
X1627592Y206999D01*
X1627582Y207016D01*
X1627578Y207036D01*
X1627525Y207125D01*
X1627476Y207216D01*
X1627462Y207230D01*
X1627452Y207247D01*
X1627373Y207314D01*
X1627298Y207386D01*
X1627280Y207394D01*
X1627265Y207407D01*
X1627169Y207446D01*
X1627075Y207489D01*
X1627055Y207491D01*
X1627037Y207499D01*
X1626870Y207517D01*
X1624263Y207517D01*
X1624192Y207506D01*
X1624120Y207504D01*
X1624071Y207486D01*
X1624020Y207478D01*
X1623957Y207444D01*
X1623889Y207419D01*
X1623849Y207387D01*
X1623803Y207362D01*
X1623753Y207310D01*
X1623697Y207266D01*
X1623669Y207222D01*
X1623633Y207184D01*
X1623603Y207119D01*
X1623564Y207059D01*
X1623552Y207008D01*
X1623530Y206961D01*
X1623522Y206890D01*
X1623504Y206820D01*
X1623508Y206768D01*
X1623503Y206717D01*
X1623518Y206646D01*
X1623523Y206575D01*
X1623544Y206527D01*
X1623555Y206476D01*
X1623592Y206415D01*
X1623620Y206349D01*
X1623665Y206293D01*
X1623681Y206265D01*
X1623699Y206250D01*
X1623725Y206218D01*
X1624239Y205704D01*
X1624239Y184440D01*
X1623346Y183547D01*
X1620032Y183547D01*
X1620012Y183544D01*
X1619993Y183546D01*
X1619891Y183524D01*
X1619789Y183508D01*
X1619772Y183498D01*
X1619752Y183494D01*
X1619663Y183441D01*
X1619572Y183392D01*
X1619558Y183378D01*
X1619541Y183368D01*
X1619474Y183289D01*
X1619402Y183214D01*
X1619394Y183196D01*
X1619381Y183181D01*
X1619342Y183085D01*
X1619299Y182991D01*
X1619297Y182971D01*
X1619289Y182953D01*
X1619271Y182786D01*
X1619271Y174295D01*
X1617187Y172211D01*
X1545601Y172211D01*
X1545510Y172197D01*
X1545420Y172189D01*
X1545390Y172177D01*
X1545358Y172172D01*
X1545277Y172129D01*
X1545193Y172093D01*
X1545161Y172067D01*
X1545140Y172056D01*
X1545118Y172033D01*
X1545062Y171988D01*
X1542284Y169210D01*
X1542242Y169152D01*
X1542193Y169100D01*
X1542171Y169053D01*
X1542141Y169011D01*
X1542120Y168942D01*
X1542089Y168877D01*
X1542084Y168825D01*
X1542068Y168775D01*
X1542070Y168704D01*
X1542062Y168633D01*
X1542073Y168582D01*
X1542075Y168530D01*
X1542099Y168462D01*
X1542115Y168392D01*
X1542141Y168347D01*
X1542159Y168299D01*
X1542204Y168243D01*
X1542241Y168181D01*
X1542280Y168147D01*
X1542313Y168107D01*
X1542373Y168068D01*
X1542428Y168021D01*
X1542476Y168002D01*
X1542520Y167974D01*
X1542589Y167956D01*
X1542656Y167929D01*
X1542727Y167921D01*
X1542758Y167913D01*
X1542782Y167915D01*
X1542823Y167911D01*
X1617171Y167911D01*
X1619779Y165303D01*
X1619779Y162908D01*
X1619782Y162888D01*
X1619780Y162869D01*
X1619802Y162767D01*
X1619818Y162665D01*
X1619828Y162648D01*
X1619832Y162628D01*
X1619885Y162539D01*
X1619934Y162448D01*
X1619948Y162434D01*
X1619958Y162417D01*
X1620037Y162350D01*
X1620112Y162278D01*
X1620130Y162270D01*
X1620145Y162257D01*
X1620241Y162218D01*
X1620335Y162175D01*
X1620355Y162173D01*
X1620373Y162165D01*
X1620540Y162147D01*
X1623346Y162147D01*
X1624239Y161254D01*
X1624239Y139990D01*
X1623346Y139097D01*
X1608082Y139097D01*
X1607189Y139990D01*
X1607189Y160036D01*
X1607186Y160056D01*
X1607188Y160075D01*
X1607166Y160177D01*
X1607150Y160279D01*
X1607140Y160296D01*
X1607136Y160316D01*
X1607083Y160405D01*
X1607034Y160496D01*
X1607020Y160510D01*
X1607010Y160527D01*
X1606931Y160594D01*
X1606856Y160666D01*
X1606838Y160674D01*
X1606823Y160687D01*
X1606727Y160726D01*
X1606633Y160769D01*
X1606613Y160771D01*
X1606595Y160779D01*
X1606428Y160797D01*
X1544320Y160797D01*
X1544300Y160794D01*
X1544281Y160796D01*
X1544179Y160774D01*
X1544077Y160758D01*
X1544060Y160748D01*
X1544040Y160744D01*
X1543951Y160691D01*
X1543860Y160642D01*
X1543846Y160628D01*
X1543829Y160618D01*
X1543762Y160539D01*
X1543691Y160464D01*
X1543682Y160446D01*
X1543669Y160431D01*
X1543630Y160335D01*
X1543587Y160241D01*
X1543585Y160221D01*
X1543577Y160203D01*
X1543559Y160036D01*
X1543559Y135636D01*
X1543562Y135616D01*
X1543560Y135597D01*
X1543582Y135495D01*
X1543599Y135393D01*
X1543608Y135376D01*
X1543612Y135356D01*
X1543665Y135267D01*
X1543714Y135176D01*
X1543728Y135162D01*
X1543738Y135145D01*
X1543817Y135078D01*
X1543892Y135006D01*
X1543910Y134998D01*
X1543925Y134985D01*
X1544021Y134946D01*
X1544115Y134903D01*
X1544135Y134901D01*
X1544153Y134893D01*
X1544320Y134875D01*
X1626870Y134875D01*
X1626890Y134878D01*
G37*
G36*
X1465552Y130306D02*
X1465552Y130306D01*
X1465571Y130304D01*
X1465673Y130326D01*
X1465775Y130342D01*
X1465792Y130352D01*
X1465812Y130356D01*
X1465901Y130409D01*
X1465992Y130458D01*
X1466006Y130472D01*
X1466023Y130482D01*
X1466090Y130561D01*
X1466162Y130636D01*
X1466170Y130654D01*
X1466183Y130669D01*
X1466222Y130765D01*
X1466265Y130859D01*
X1466267Y130879D01*
X1466275Y130897D01*
X1466293Y131064D01*
X1466293Y141276D01*
X1467186Y142169D01*
X1472628Y142169D01*
X1472718Y142183D01*
X1472809Y142191D01*
X1472839Y142203D01*
X1472871Y142208D01*
X1472952Y142251D01*
X1473036Y142287D01*
X1473068Y142313D01*
X1473089Y142324D01*
X1473111Y142347D01*
X1473167Y142392D01*
X1474580Y143805D01*
X1474794Y144019D01*
X1475748Y144019D01*
X1478606Y144019D01*
X1478626Y144022D01*
X1478645Y144020D01*
X1478747Y144042D01*
X1478849Y144058D01*
X1478866Y144068D01*
X1478886Y144072D01*
X1478975Y144125D01*
X1479066Y144174D01*
X1479080Y144188D01*
X1479097Y144198D01*
X1479164Y144277D01*
X1479236Y144352D01*
X1479244Y144370D01*
X1479257Y144385D01*
X1479296Y144481D01*
X1479339Y144575D01*
X1479341Y144595D01*
X1479349Y144613D01*
X1479367Y144780D01*
X1479367Y148064D01*
X1479387Y148084D01*
X1479409Y148131D01*
X1479439Y148173D01*
X1479460Y148242D01*
X1479490Y148307D01*
X1479496Y148359D01*
X1479511Y148408D01*
X1479509Y148480D01*
X1479517Y148551D01*
X1479506Y148602D01*
X1479505Y148654D01*
X1479480Y148722D01*
X1479465Y148792D01*
X1479438Y148837D01*
X1479421Y148885D01*
X1479376Y148941D01*
X1479339Y149003D01*
X1479299Y149037D01*
X1479267Y149077D01*
X1479207Y149116D01*
X1479152Y149163D01*
X1479104Y149182D01*
X1479060Y149210D01*
X1478990Y149228D01*
X1478924Y149255D01*
X1478853Y149263D01*
X1478821Y149271D01*
X1478798Y149269D01*
X1478757Y149273D01*
X1478279Y149273D01*
X1478279Y154814D01*
X1478279Y160355D01*
X1478852Y160355D01*
X1479035Y160306D01*
X1479154Y160294D01*
X1479271Y160281D01*
X1479276Y160282D01*
X1479280Y160281D01*
X1479395Y160308D01*
X1479512Y160333D01*
X1479515Y160335D01*
X1479519Y160336D01*
X1479621Y160398D01*
X1479723Y160459D01*
X1479726Y160463D01*
X1479729Y160465D01*
X1479805Y160555D01*
X1479883Y160646D01*
X1479884Y160650D01*
X1479887Y160653D01*
X1479930Y160762D01*
X1479975Y160874D01*
X1479975Y160879D01*
X1479977Y160882D01*
X1479977Y160896D01*
X1479993Y161041D01*
X1479993Y164550D01*
X1480009Y164612D01*
X1480039Y164710D01*
X1480039Y164730D01*
X1480044Y164750D01*
X1480036Y164853D01*
X1480033Y164956D01*
X1480026Y164975D01*
X1480025Y164995D01*
X1479993Y165068D01*
X1479993Y165528D01*
X1479990Y165548D01*
X1479992Y165567D01*
X1479970Y165669D01*
X1479954Y165771D01*
X1479944Y165788D01*
X1479940Y165808D01*
X1479887Y165897D01*
X1479838Y165988D01*
X1479824Y166002D01*
X1479814Y166019D01*
X1479735Y166086D01*
X1479660Y166158D01*
X1479642Y166166D01*
X1479627Y166179D01*
X1479531Y166218D01*
X1479437Y166261D01*
X1479417Y166263D01*
X1479399Y166271D01*
X1479232Y166289D01*
X1475804Y166289D01*
X1475784Y166286D01*
X1475765Y166288D01*
X1475663Y166266D01*
X1475561Y166250D01*
X1475544Y166240D01*
X1475524Y166236D01*
X1475435Y166183D01*
X1475344Y166134D01*
X1475330Y166120D01*
X1475313Y166110D01*
X1475246Y166031D01*
X1475174Y165956D01*
X1475166Y165938D01*
X1475153Y165923D01*
X1475114Y165827D01*
X1475071Y165733D01*
X1475069Y165713D01*
X1475061Y165695D01*
X1475043Y165528D01*
X1475043Y165078D01*
X1475027Y165016D01*
X1474997Y164918D01*
X1474997Y164898D01*
X1474992Y164878D01*
X1475000Y164775D01*
X1475003Y164672D01*
X1475010Y164653D01*
X1475011Y164633D01*
X1475043Y164560D01*
X1475043Y161041D01*
X1475062Y160925D01*
X1475080Y160806D01*
X1475082Y160803D01*
X1475082Y160798D01*
X1475138Y160694D01*
X1475193Y160588D01*
X1475196Y160585D01*
X1475198Y160581D01*
X1475283Y160500D01*
X1475369Y160416D01*
X1475373Y160415D01*
X1475376Y160412D01*
X1475483Y160362D01*
X1475591Y160310D01*
X1475595Y160310D01*
X1475599Y160308D01*
X1475717Y160295D01*
X1475835Y160281D01*
X1475840Y160281D01*
X1475843Y160281D01*
X1475857Y160284D01*
X1476001Y160306D01*
X1476184Y160355D01*
X1476757Y160355D01*
X1476757Y154814D01*
X1476757Y149273D01*
X1476184Y149273D01*
X1475537Y149446D01*
X1474958Y149781D01*
X1474485Y150254D01*
X1474150Y150833D01*
X1473977Y151480D01*
X1473977Y151528D01*
X1473974Y151548D01*
X1473976Y151567D01*
X1473954Y151669D01*
X1473938Y151771D01*
X1473928Y151788D01*
X1473924Y151808D01*
X1473871Y151897D01*
X1473822Y151988D01*
X1473808Y152002D01*
X1473798Y152019D01*
X1473719Y152086D01*
X1473644Y152158D01*
X1473626Y152166D01*
X1473611Y152179D01*
X1473515Y152218D01*
X1473421Y152261D01*
X1473401Y152263D01*
X1473383Y152271D01*
X1473216Y152289D01*
X1466855Y152289D01*
X1466826Y152301D01*
X1466800Y152320D01*
X1466713Y152347D01*
X1466628Y152381D01*
X1466587Y152385D01*
X1466565Y152392D01*
X1466533Y152391D01*
X1466461Y152399D01*
X1463091Y152399D01*
X1463072Y152417D01*
X1463025Y152439D01*
X1462983Y152469D01*
X1462914Y152490D01*
X1462849Y152521D01*
X1462797Y152526D01*
X1462748Y152542D01*
X1462676Y152540D01*
X1462605Y152548D01*
X1462554Y152537D01*
X1462502Y152535D01*
X1462434Y152511D01*
X1462364Y152496D01*
X1462319Y152469D01*
X1462271Y152451D01*
X1462215Y152406D01*
X1462153Y152369D01*
X1462119Y152330D01*
X1462079Y152297D01*
X1462040Y152237D01*
X1461993Y152182D01*
X1461974Y152134D01*
X1461946Y152090D01*
X1461928Y152021D01*
X1461901Y151954D01*
X1461893Y151883D01*
X1461885Y151852D01*
X1461887Y151829D01*
X1461883Y151788D01*
X1461883Y150063D01*
X1461884Y150056D01*
X1461884Y150053D01*
X1461897Y149973D01*
X1461905Y149882D01*
X1461917Y149852D01*
X1461922Y149820D01*
X1461965Y149740D01*
X1462001Y149656D01*
X1462027Y149624D01*
X1462038Y149603D01*
X1462061Y149581D01*
X1462106Y149525D01*
X1462391Y149240D01*
X1462391Y146924D01*
X1461344Y145877D01*
X1459951Y144484D01*
X1459909Y144426D01*
X1459859Y144374D01*
X1459837Y144327D01*
X1459807Y144285D01*
X1459786Y144216D01*
X1459756Y144151D01*
X1459750Y144099D01*
X1459735Y144049D01*
X1459737Y143978D01*
X1459729Y143906D01*
X1459740Y143856D01*
X1459741Y143804D01*
X1459766Y143736D01*
X1459781Y143666D01*
X1459808Y143621D01*
X1459825Y143573D01*
X1459870Y143517D01*
X1459907Y143455D01*
X1459947Y143421D01*
X1459979Y143380D01*
X1460040Y143342D01*
X1460094Y143295D01*
X1460142Y143276D01*
X1460186Y143247D01*
X1460256Y143230D01*
X1460322Y143203D01*
X1460393Y143195D01*
X1460425Y143187D01*
X1460448Y143189D01*
X1460489Y143185D01*
X1462153Y143185D01*
X1462799Y143012D01*
X1463378Y142677D01*
X1463851Y142204D01*
X1464186Y141625D01*
X1464359Y140978D01*
X1464359Y137667D01*
X1459080Y137667D01*
X1459060Y137664D01*
X1459041Y137666D01*
X1458939Y137644D01*
X1458837Y137627D01*
X1458820Y137618D01*
X1458800Y137614D01*
X1458711Y137561D01*
X1458620Y137512D01*
X1458606Y137498D01*
X1458589Y137488D01*
X1458522Y137409D01*
X1458451Y137334D01*
X1458442Y137316D01*
X1458429Y137301D01*
X1458390Y137205D01*
X1458347Y137111D01*
X1458345Y137091D01*
X1458337Y137073D01*
X1458319Y136906D01*
X1458319Y135382D01*
X1458322Y135362D01*
X1458320Y135343D01*
X1458342Y135241D01*
X1458359Y135139D01*
X1458368Y135122D01*
X1458372Y135102D01*
X1458425Y135013D01*
X1458474Y134922D01*
X1458488Y134908D01*
X1458498Y134891D01*
X1458577Y134824D01*
X1458652Y134753D01*
X1458670Y134744D01*
X1458685Y134731D01*
X1458781Y134692D01*
X1458875Y134649D01*
X1458895Y134647D01*
X1458913Y134639D01*
X1459080Y134621D01*
X1464359Y134621D01*
X1464359Y131310D01*
X1464346Y131261D01*
X1464334Y131142D01*
X1464321Y131025D01*
X1464322Y131020D01*
X1464321Y131016D01*
X1464348Y130900D01*
X1464373Y130784D01*
X1464375Y130781D01*
X1464376Y130777D01*
X1464438Y130675D01*
X1464499Y130573D01*
X1464502Y130570D01*
X1464505Y130567D01*
X1464596Y130490D01*
X1464686Y130413D01*
X1464690Y130412D01*
X1464693Y130409D01*
X1464803Y130366D01*
X1464914Y130321D01*
X1464919Y130321D01*
X1464922Y130319D01*
X1464936Y130319D01*
X1465081Y130303D01*
X1465532Y130303D01*
X1465552Y130306D01*
G37*
G36*
X1484650Y130306D02*
X1484650Y130306D01*
X1484669Y130304D01*
X1484771Y130326D01*
X1484873Y130342D01*
X1484890Y130352D01*
X1484910Y130356D01*
X1484999Y130409D01*
X1485090Y130458D01*
X1485104Y130472D01*
X1485121Y130482D01*
X1485188Y130561D01*
X1485259Y130636D01*
X1485268Y130654D01*
X1485281Y130669D01*
X1485320Y130765D01*
X1485363Y130859D01*
X1485365Y130879D01*
X1485373Y130897D01*
X1485375Y130915D01*
X1486154Y130915D01*
X1486174Y130918D01*
X1486193Y130916D01*
X1486295Y130938D01*
X1486397Y130955D01*
X1486414Y130964D01*
X1486434Y130968D01*
X1486523Y131021D01*
X1486614Y131070D01*
X1486628Y131084D01*
X1486645Y131094D01*
X1486712Y131173D01*
X1486783Y131248D01*
X1486792Y131266D01*
X1486805Y131281D01*
X1486844Y131377D01*
X1486887Y131471D01*
X1486889Y131491D01*
X1486897Y131509D01*
X1486915Y131676D01*
X1486915Y136955D01*
X1490226Y136955D01*
X1490910Y136772D01*
X1491024Y136760D01*
X1491138Y136746D01*
X1491148Y136748D01*
X1491155Y136747D01*
X1491177Y136752D01*
X1491304Y136772D01*
X1491988Y136955D01*
X1495299Y136955D01*
X1495299Y131676D01*
X1495302Y131656D01*
X1495300Y131637D01*
X1495322Y131535D01*
X1495339Y131433D01*
X1495348Y131416D01*
X1495352Y131396D01*
X1495405Y131307D01*
X1495454Y131216D01*
X1495468Y131202D01*
X1495478Y131185D01*
X1495557Y131118D01*
X1495632Y131047D01*
X1495650Y131038D01*
X1495665Y131025D01*
X1495761Y130986D01*
X1495855Y130943D01*
X1495875Y130941D01*
X1495893Y130933D01*
X1496060Y130915D01*
X1497584Y130915D01*
X1497604Y130918D01*
X1497623Y130916D01*
X1497725Y130938D01*
X1497827Y130955D01*
X1497844Y130964D01*
X1497864Y130968D01*
X1497953Y131021D01*
X1498044Y131070D01*
X1498058Y131084D01*
X1498075Y131094D01*
X1498142Y131173D01*
X1498213Y131248D01*
X1498222Y131266D01*
X1498235Y131281D01*
X1498274Y131377D01*
X1498317Y131471D01*
X1498319Y131491D01*
X1498327Y131509D01*
X1498345Y131676D01*
X1498345Y136955D01*
X1501656Y136955D01*
X1502213Y136806D01*
X1502332Y136794D01*
X1502449Y136781D01*
X1502454Y136782D01*
X1502458Y136781D01*
X1502573Y136808D01*
X1502690Y136833D01*
X1502693Y136835D01*
X1502697Y136836D01*
X1502798Y136897D01*
X1502901Y136959D01*
X1502904Y136962D01*
X1502907Y136965D01*
X1502982Y137054D01*
X1503061Y137146D01*
X1503062Y137150D01*
X1503065Y137153D01*
X1503108Y137262D01*
X1503153Y137374D01*
X1503153Y137379D01*
X1503155Y137382D01*
X1503155Y137396D01*
X1503171Y137541D01*
X1503171Y138269D01*
X1503160Y138340D01*
X1503158Y138412D01*
X1503140Y138461D01*
X1503132Y138512D01*
X1503098Y138575D01*
X1503073Y138643D01*
X1503041Y138683D01*
X1503016Y138729D01*
X1502965Y138779D01*
X1502920Y138835D01*
X1502876Y138863D01*
X1502838Y138899D01*
X1502773Y138929D01*
X1502713Y138968D01*
X1502662Y138980D01*
X1502615Y139002D01*
X1502544Y139010D01*
X1502474Y139028D01*
X1502422Y139024D01*
X1502371Y139029D01*
X1502300Y139014D01*
X1502229Y139009D01*
X1502181Y138988D01*
X1502130Y138977D01*
X1502069Y138940D01*
X1502003Y138912D01*
X1501974Y138889D01*
X1491690Y138889D01*
X1491645Y138934D01*
X1491629Y138946D01*
X1491617Y138962D01*
X1491530Y139018D01*
X1491446Y139078D01*
X1491427Y139084D01*
X1491410Y139095D01*
X1491309Y139120D01*
X1491211Y139150D01*
X1491191Y139150D01*
X1491171Y139155D01*
X1491068Y139147D01*
X1490965Y139144D01*
X1490946Y139137D01*
X1490926Y139136D01*
X1490831Y139095D01*
X1490734Y139060D01*
X1490718Y139047D01*
X1490700Y139039D01*
X1490569Y138934D01*
X1490524Y138889D01*
X1480260Y138889D01*
X1479927Y139222D01*
X1479853Y139276D01*
X1479784Y139335D01*
X1479754Y139347D01*
X1479728Y139366D01*
X1479641Y139393D01*
X1479556Y139427D01*
X1479515Y139431D01*
X1479493Y139438D01*
X1479460Y139437D01*
X1479389Y139445D01*
X1477104Y139445D01*
X1477084Y139442D01*
X1477065Y139444D01*
X1476963Y139422D01*
X1476861Y139406D01*
X1476844Y139396D01*
X1476824Y139392D01*
X1476735Y139339D01*
X1476644Y139290D01*
X1476630Y139276D01*
X1476613Y139266D01*
X1476546Y139187D01*
X1476474Y139112D01*
X1476466Y139094D01*
X1476453Y139079D01*
X1476414Y138983D01*
X1476371Y138889D01*
X1476369Y138869D01*
X1476361Y138851D01*
X1476343Y138684D01*
X1476343Y131064D01*
X1476346Y131044D01*
X1476344Y131025D01*
X1476366Y130923D01*
X1476382Y130821D01*
X1476392Y130804D01*
X1476396Y130784D01*
X1476449Y130695D01*
X1476498Y130604D01*
X1476512Y130590D01*
X1476522Y130573D01*
X1476601Y130506D01*
X1476676Y130434D01*
X1476694Y130426D01*
X1476709Y130413D01*
X1476805Y130374D01*
X1476899Y130331D01*
X1476919Y130329D01*
X1476937Y130321D01*
X1477104Y130303D01*
X1484630Y130303D01*
X1484650Y130306D01*
G37*
%LPC*%
G36*
X1556237Y196595D02*
X1556237Y196595D01*
X1556237Y203613D01*
X1562048Y203613D01*
X1562695Y203440D01*
X1563274Y203105D01*
X1563747Y202632D01*
X1564082Y202053D01*
X1564255Y201406D01*
X1564255Y196595D01*
X1556237Y196595D01*
G37*
%LPD*%
%LPC*%
G36*
X1556237Y152145D02*
X1556237Y152145D01*
X1556237Y159163D01*
X1562048Y159163D01*
X1562695Y158990D01*
X1563274Y158655D01*
X1563747Y158182D01*
X1564082Y157603D01*
X1564255Y156956D01*
X1564255Y152145D01*
X1556237Y152145D01*
G37*
%LPD*%
%LPC*%
G36*
X1545173Y196595D02*
X1545173Y196595D01*
X1545173Y201406D01*
X1545346Y202053D01*
X1545681Y202632D01*
X1546154Y203105D01*
X1546733Y203440D01*
X1547380Y203613D01*
X1553191Y203613D01*
X1553191Y196595D01*
X1545173Y196595D01*
G37*
%LPD*%
%LPC*%
G36*
X1545173Y152145D02*
X1545173Y152145D01*
X1545173Y156956D01*
X1545346Y157603D01*
X1545681Y158182D01*
X1546154Y158655D01*
X1546733Y158990D01*
X1547380Y159163D01*
X1553191Y159163D01*
X1553191Y152145D01*
X1545173Y152145D01*
G37*
%LPD*%
%LPC*%
G36*
X1556237Y186531D02*
X1556237Y186531D01*
X1556237Y193549D01*
X1564255Y193549D01*
X1564255Y188738D01*
X1564082Y188091D01*
X1563747Y187512D01*
X1563274Y187039D01*
X1562695Y186704D01*
X1562048Y186531D01*
X1556237Y186531D01*
G37*
%LPD*%
%LPC*%
G36*
X1556237Y142081D02*
X1556237Y142081D01*
X1556237Y149099D01*
X1564255Y149099D01*
X1564255Y144288D01*
X1564082Y143641D01*
X1563747Y143062D01*
X1563274Y142589D01*
X1562695Y142254D01*
X1562048Y142081D01*
X1556237Y142081D01*
G37*
%LPD*%
%LPC*%
G36*
X1547380Y186531D02*
X1547380Y186531D01*
X1546733Y186704D01*
X1546154Y187039D01*
X1545681Y187512D01*
X1545346Y188091D01*
X1545173Y188738D01*
X1545173Y193549D01*
X1553191Y193549D01*
X1553191Y186531D01*
X1547380Y186531D01*
G37*
%LPD*%
%LPC*%
G36*
X1547380Y142081D02*
X1547380Y142081D01*
X1546733Y142254D01*
X1546154Y142589D01*
X1545681Y143062D01*
X1545346Y143641D01*
X1545173Y144288D01*
X1545173Y149099D01*
X1553191Y149099D01*
X1553191Y142081D01*
X1547380Y142081D01*
G37*
%LPD*%
%LPC*%
G36*
X1489859Y183895D02*
X1489859Y183895D01*
X1489859Y189413D01*
X1492171Y189413D01*
X1492817Y189240D01*
X1493396Y188905D01*
X1493869Y188432D01*
X1494057Y188106D01*
X1494118Y188032D01*
X1494173Y187954D01*
X1494195Y187937D01*
X1494213Y187916D01*
X1494294Y187865D01*
X1494371Y187808D01*
X1494398Y187800D01*
X1494422Y187785D01*
X1494514Y187763D01*
X1494605Y187733D01*
X1494633Y187734D01*
X1494661Y187727D01*
X1494756Y187736D01*
X1494851Y187737D01*
X1494878Y187747D01*
X1494906Y187749D01*
X1494993Y187787D01*
X1495083Y187819D01*
X1495105Y187836D01*
X1495131Y187848D01*
X1495201Y187912D01*
X1495277Y187971D01*
X1495298Y187999D01*
X1495313Y188013D01*
X1495329Y188042D01*
X1495376Y188106D01*
X1495711Y188686D01*
X1496184Y189159D01*
X1496763Y189494D01*
X1497410Y189667D01*
X1499721Y189667D01*
X1499721Y184149D01*
X1495138Y184149D01*
X1495118Y184146D01*
X1495099Y184148D01*
X1494997Y184126D01*
X1494895Y184109D01*
X1494878Y184100D01*
X1494858Y184096D01*
X1494769Y184043D01*
X1494678Y183994D01*
X1494664Y183980D01*
X1494647Y183970D01*
X1494583Y183895D01*
X1489859Y183895D01*
G37*
%LPD*%
%LPC*%
G36*
X1489859Y175331D02*
X1489859Y175331D01*
X1489859Y180849D01*
X1494442Y180849D01*
X1494462Y180852D01*
X1494481Y180850D01*
X1494583Y180872D01*
X1494685Y180889D01*
X1494702Y180898D01*
X1494722Y180902D01*
X1494811Y180955D01*
X1494902Y181004D01*
X1494916Y181018D01*
X1494933Y181028D01*
X1494997Y181103D01*
X1499721Y181103D01*
X1499721Y175585D01*
X1497410Y175585D01*
X1496763Y175758D01*
X1496184Y176093D01*
X1495711Y176566D01*
X1495523Y176892D01*
X1495462Y176966D01*
X1495407Y177044D01*
X1495385Y177061D01*
X1495367Y177082D01*
X1495286Y177133D01*
X1495209Y177190D01*
X1495182Y177198D01*
X1495158Y177213D01*
X1495066Y177235D01*
X1494975Y177265D01*
X1494947Y177264D01*
X1494919Y177271D01*
X1494824Y177262D01*
X1494729Y177261D01*
X1494702Y177251D01*
X1494674Y177249D01*
X1494587Y177211D01*
X1494497Y177179D01*
X1494475Y177162D01*
X1494449Y177150D01*
X1494379Y177086D01*
X1494303Y177027D01*
X1494282Y176999D01*
X1494267Y176985D01*
X1494251Y176956D01*
X1494204Y176892D01*
X1493869Y176312D01*
X1493396Y175839D01*
X1492817Y175504D01*
X1492170Y175331D01*
X1489859Y175331D01*
G37*
%LPD*%
%LPC*%
G36*
X1423161Y141835D02*
X1423161Y141835D01*
X1423161Y146353D01*
X1426472Y146353D01*
X1427156Y146170D01*
X1427270Y146158D01*
X1427384Y146144D01*
X1427394Y146146D01*
X1427401Y146145D01*
X1427422Y146150D01*
X1427550Y146170D01*
X1428234Y146353D01*
X1431545Y146353D01*
X1431545Y141835D01*
X1423161Y141835D01*
G37*
%LPD*%
%LPC*%
G36*
X1439664Y134271D02*
X1439664Y134271D01*
X1438980Y134454D01*
X1438866Y134466D01*
X1438752Y134480D01*
X1438742Y134478D01*
X1438735Y134479D01*
X1438713Y134474D01*
X1438586Y134454D01*
X1437902Y134271D01*
X1434591Y134271D01*
X1434591Y138789D01*
X1442975Y138789D01*
X1442975Y134271D01*
X1439664Y134271D01*
G37*
%LPD*%
%LPC*%
G36*
X1428234Y134271D02*
X1428234Y134271D01*
X1427550Y134454D01*
X1427436Y134466D01*
X1427322Y134480D01*
X1427312Y134478D01*
X1427305Y134479D01*
X1427283Y134474D01*
X1427156Y134454D01*
X1426472Y134271D01*
X1423161Y134271D01*
X1423161Y138789D01*
X1431545Y138789D01*
X1431545Y134271D01*
X1428234Y134271D01*
G37*
%LPD*%
%LPC*%
G36*
X1478351Y132437D02*
X1478351Y132437D01*
X1478351Y134748D01*
X1478524Y135395D01*
X1478859Y135974D01*
X1479332Y136447D01*
X1479911Y136782D01*
X1480558Y136955D01*
X1483869Y136955D01*
X1483869Y132437D01*
X1478351Y132437D01*
G37*
%LPD*%
%LPC*%
G36*
X1482295Y183895D02*
X1482295Y183895D01*
X1482295Y187206D01*
X1482468Y187853D01*
X1482803Y188432D01*
X1483276Y188905D01*
X1483855Y189240D01*
X1484502Y189413D01*
X1486813Y189413D01*
X1486813Y183895D01*
X1482295Y183895D01*
G37*
%LPD*%
%LPC*%
G36*
X1416804Y134271D02*
X1416804Y134271D01*
X1416157Y134444D01*
X1415578Y134779D01*
X1415105Y135252D01*
X1414770Y135831D01*
X1414597Y136478D01*
X1414597Y138789D01*
X1420115Y138789D01*
X1420115Y134271D01*
X1416804Y134271D01*
G37*
%LPD*%
%LPC*%
G36*
X1554713Y195071D02*
X1554713Y195071D01*
X1554713Y195073D01*
X1554715Y195073D01*
X1554715Y195071D01*
X1554713Y195071D01*
G37*
%LPD*%
%LPC*%
G36*
X1488335Y182371D02*
X1488335Y182371D01*
X1488335Y182373D01*
X1488337Y182373D01*
X1488337Y182371D01*
X1488335Y182371D01*
G37*
%LPD*%
%LPC*%
G36*
X1554713Y150621D02*
X1554713Y150621D01*
X1554713Y150623D01*
X1554715Y150623D01*
X1554715Y150621D01*
X1554713Y150621D01*
G37*
%LPD*%
%LPC*%
G36*
X1433067Y140311D02*
X1433067Y140311D01*
X1433067Y140313D01*
X1433069Y140313D01*
X1433069Y140311D01*
X1433067Y140311D01*
G37*
%LPD*%
%LPC*%
G36*
X1421637Y140311D02*
X1421637Y140311D01*
X1421637Y140313D01*
X1421639Y140313D01*
X1421639Y140311D01*
X1421637Y140311D01*
G37*
%LPD*%
D10*
X1510888Y150830D03*
X1510888Y154830D03*
X1510888Y158830D03*
X1510888Y162830D03*
X1510888Y166830D03*
X1514888Y150830D03*
X1514888Y154830D03*
X1514888Y158830D03*
X1514888Y162830D03*
X1514888Y166830D03*
X1518888Y150830D03*
X1518888Y154830D03*
X1518888Y158830D03*
X1518888Y162830D03*
X1518888Y166830D03*
X1522888Y150830D03*
X1522888Y154830D03*
X1522888Y158830D03*
X1522888Y162830D03*
X1522888Y166830D03*
D11*
X1868272Y182174D03*
X1903272Y182174D03*
X1868272Y163774D03*
X1903272Y163774D03*
D12*
X1554714Y150622D03*
D13*
X1615714Y150622D03*
D12*
X1554714Y195072D03*
D13*
X1615714Y195072D03*
D14*
X1470518Y170814D03*
X1470518Y166814D03*
X1470518Y162814D03*
X1470518Y158814D03*
X1470518Y154814D03*
D15*
X1477518Y154814D03*
D14*
X1484518Y154814D03*
X1484518Y158814D03*
X1484518Y162814D03*
X1484518Y166814D03*
X1484518Y170814D03*
D15*
X1477518Y170814D03*
D16*
X1421638Y140312D03*
X1421638Y153312D03*
D17*
X1458318Y136144D03*
X1471318Y136144D03*
D16*
X1433068Y140312D03*
X1433068Y153312D03*
X1496822Y130914D03*
X1496822Y143914D03*
X1485392Y130914D03*
X1485392Y143914D03*
D17*
X1510642Y127508D03*
X1523642Y127508D03*
X1501244Y182626D03*
X1514244Y182626D03*
X1488336Y182372D03*
X1475336Y182372D03*
D16*
X1444498Y140312D03*
X1444498Y153312D03*
D18*
X1419736Y183522D02*
X1419736Y188538D01*
X1430952Y188538D01*
X1430952Y183522D01*
X1419736Y183522D01*
X1419736Y184363D02*
X1430952Y184363D01*
X1430952Y185204D02*
X1419736Y185204D01*
X1419736Y186045D02*
X1430952Y186045D01*
X1430952Y186886D02*
X1419736Y186886D01*
X1419736Y187727D02*
X1430952Y187727D01*
X1444836Y169538D02*
X1444836Y164522D01*
X1444836Y169538D02*
X1456052Y169538D01*
X1456052Y164522D01*
X1444836Y164522D01*
X1444836Y165363D02*
X1456052Y165363D01*
X1456052Y166204D02*
X1444836Y166204D01*
X1444836Y167045D02*
X1456052Y167045D01*
X1456052Y167886D02*
X1444836Y167886D01*
X1444836Y168727D02*
X1456052Y168727D01*
X1419736Y174022D02*
X1419736Y179038D01*
X1430952Y179038D01*
X1430952Y174022D01*
X1419736Y174022D01*
X1419736Y174863D02*
X1430952Y174863D01*
X1430952Y175704D02*
X1419736Y175704D01*
X1419736Y176545D02*
X1430952Y176545D01*
X1430952Y177386D02*
X1419736Y177386D01*
X1419736Y178227D02*
X1430952Y178227D01*
X1419736Y169538D02*
X1419736Y164522D01*
X1419736Y169538D02*
X1430952Y169538D01*
X1430952Y164522D01*
X1419736Y164522D01*
X1419736Y165363D02*
X1430952Y165363D01*
X1430952Y166204D02*
X1419736Y166204D01*
X1419736Y167045D02*
X1430952Y167045D01*
X1430952Y167886D02*
X1419736Y167886D01*
X1419736Y168727D02*
X1430952Y168727D01*
X1444836Y183522D02*
X1444836Y188538D01*
X1456052Y188538D01*
X1456052Y183522D01*
X1444836Y183522D01*
X1444836Y184363D02*
X1456052Y184363D01*
X1456052Y185204D02*
X1444836Y185204D01*
X1444836Y186045D02*
X1456052Y186045D01*
X1456052Y186886D02*
X1444836Y186886D01*
X1444836Y187727D02*
X1456052Y187727D01*
D19*
X1378712Y193802D02*
X1378712Y209042D01*
X1353312Y209042D02*
X1353312Y193802D01*
X1327912Y193802D02*
X1327912Y209042D01*
X1302512Y209042D02*
X1302512Y193802D01*
X1277112Y193802D02*
X1277112Y209042D01*
X1277112Y144018D02*
X1277112Y128778D01*
X1302512Y128778D02*
X1302512Y144018D01*
X1327912Y144018D02*
X1327912Y128778D01*
X1353312Y128778D02*
X1353312Y144018D01*
X1378712Y144018D02*
X1378712Y128778D01*
D20*
X1865605Y163774D02*
X1868272Y163774D01*
D21*
X1686504Y163774D01*
X1651508Y128778D01*
X1537462Y128778D01*
X1531620Y134620D01*
X1527556Y134620D01*
X1518888Y143288D01*
X1518888Y150830D01*
D20*
X1864970Y182174D02*
X1868272Y182174D01*
D21*
X1533271Y138303D02*
X1530350Y138303D01*
X1533271Y138303D02*
X1539240Y132334D01*
X1636060Y132334D01*
X1685900Y182174D02*
X1868272Y182174D01*
X1685900Y182174D02*
X1636060Y132334D01*
X1530350Y138303D02*
X1522888Y145765D01*
X1522888Y150830D01*
X1514888Y166830D02*
X1514888Y182372D01*
D20*
X1459596Y168910D02*
X1459596Y148082D01*
D22*
X1458326Y146812D01*
X1437790Y146812D01*
D20*
X1459596Y168910D02*
X1461500Y170814D01*
D23*
X1459596Y148082D03*
X1493520Y150876D03*
D22*
X1437790Y146812D02*
X1433576Y151026D01*
D20*
X1461500Y170814D02*
X1470518Y170814D01*
X1425344Y167030D02*
X1425296Y166982D01*
D22*
X1523642Y129551D02*
X1523642Y127508D01*
X1523642Y129551D02*
X1510888Y142305D01*
D24*
X1526690Y124460D02*
X1829866Y124460D01*
X1526690Y124460D02*
X1523642Y127508D01*
D20*
X1903272Y163774D02*
X1903272Y167132D01*
X1433068Y156106D02*
X1433068Y153312D01*
D22*
X1433068Y156106D02*
X1438148Y161186D01*
X1438148Y167030D01*
X1438148Y182372D01*
X1510888Y150830D02*
X1510888Y142305D01*
X1434490Y186030D02*
X1425344Y186030D01*
X1434490Y186030D02*
X1438148Y182372D01*
X1433068Y153312D02*
X1421638Y153312D01*
D20*
X1418948Y150622D01*
D22*
X1407668Y150622D01*
D25*
X1903272Y167132D02*
X1903272Y182174D01*
X1903272Y163774D02*
X1879650Y140152D01*
X1845558Y140152D01*
X1829866Y124460D01*
D22*
X1510888Y150830D02*
X1493566Y150830D01*
D20*
X1493520Y150876D01*
X1433576Y152804D02*
X1433068Y153312D01*
X1433576Y152804D02*
X1433576Y151026D01*
D22*
X1438148Y167030D02*
X1425344Y167030D01*
D23*
X1407668Y150622D03*
X1514888Y158830D03*
X1514888Y162957D03*
X1514888Y154576D03*
D20*
X1510888Y166830D02*
X1510840Y166878D01*
X1501140Y166878D01*
X1501140Y166830D01*
X1484534Y166830D02*
X1484518Y166814D01*
X1484534Y166830D02*
X1501140Y166830D01*
X1502283Y162830D02*
X1510888Y162830D01*
X1502283Y162830D02*
X1502283Y162814D01*
X1502283Y162830D02*
X1498473Y162830D01*
X1498473Y162814D01*
X1484518Y162814D01*
X1510634Y158576D02*
X1510888Y158830D01*
X1510634Y158576D02*
X1501394Y158576D01*
X1501394Y158623D01*
X1501394Y158576D02*
X1484756Y158576D01*
X1484518Y158814D01*
X1490472Y154830D02*
X1510888Y154830D01*
X1490472Y154830D02*
X1484503Y154830D01*
X1484376Y154703D01*
X1484407Y154703D02*
X1484518Y154814D01*
X1484407Y154703D02*
X1484376Y154703D01*
X1501244Y182626D02*
X1500990Y182880D01*
D22*
X1488433Y182880D01*
D20*
X1488336Y182977D01*
D22*
X1488336Y183993D02*
X1479176Y193153D01*
D26*
X1485392Y130914D02*
X1485392Y130302D01*
D27*
X1400048Y133604D03*
D22*
X1518888Y158750D02*
X1534414Y158750D01*
D23*
X1534414Y158750D03*
D22*
X1477518Y154814D02*
X1477518Y148972D01*
X1473326Y144780D02*
X1466954Y144780D01*
X1458318Y136144D01*
X1473326Y144780D02*
X1477518Y148972D01*
D20*
X1458318Y136144D02*
X1455270Y139192D01*
D22*
X1443736Y139192D01*
X1432560Y139192D01*
D20*
X1429616Y139192D01*
D22*
X1429362Y139446D02*
X1422758Y139446D01*
X1429616Y139192D02*
X1440030Y128778D01*
D20*
X1429616Y139192D02*
X1429362Y139446D01*
X1422758Y139446D02*
X1421892Y140312D01*
X1421638Y140312D01*
D22*
X1406756Y140312D01*
X1400048Y133604D01*
D20*
X1485392Y130914D02*
X1485392Y128778D01*
D22*
X1440030Y128778D01*
D20*
X1488336Y182372D02*
X1488336Y182977D01*
X1488336Y183993D01*
X1485542Y131064D02*
X1485392Y130914D01*
D22*
X1506578Y123444D02*
X1510642Y127508D01*
X1506578Y123444D02*
X1409700Y123444D01*
D20*
X1421130Y176530D02*
X1425344Y176530D01*
D22*
X1401685Y193153D02*
X1479176Y193153D01*
D20*
X1496672Y131064D02*
X1496822Y130914D01*
D26*
X1496672Y131064D02*
X1485542Y131064D01*
D20*
X1444498Y139954D02*
X1444498Y140312D01*
X1444498Y139954D02*
X1443736Y139192D01*
X1433068Y139804D02*
X1433068Y140312D01*
X1433068Y139804D02*
X1432560Y139296D01*
X1432560Y139192D01*
D28*
X1424836Y176022D02*
X1425344Y176530D01*
X1424836Y176022D02*
X1397508Y176022D01*
X1384554Y176022D01*
X1368298Y176022D01*
X1353312Y191008D02*
X1353312Y201422D01*
X1353312Y191008D02*
X1368298Y176022D01*
D22*
X1384554Y176022D02*
X1401685Y193153D01*
D28*
X1397508Y136144D02*
X1400048Y133604D01*
X1397508Y136144D02*
X1397508Y176022D01*
D22*
X1400048Y133096D02*
X1409700Y123444D01*
D20*
X1400048Y133096D02*
X1400048Y133604D01*
D22*
X1518888Y158750D02*
X1518888Y162830D01*
D21*
X1528476Y166830D02*
X1532080Y170434D01*
X1528476Y166830D02*
X1522888Y166830D01*
X1532080Y170434D02*
X1538478Y170434D01*
D25*
X1543812Y175768D02*
X1615714Y175768D01*
X1543812Y175768D02*
X1538478Y170434D01*
X1615714Y175768D02*
X1615714Y195072D01*
D21*
X1530096Y162830D02*
X1522888Y162830D01*
X1531620Y164354D02*
X1532874Y164354D01*
X1531620Y164354D02*
X1530096Y162830D01*
D25*
X1616222Y163830D02*
X1616222Y151130D01*
X1615714Y150622D01*
X1616222Y163830D02*
X1615698Y164354D01*
X1532874Y164354D01*
D20*
X1470518Y166814D02*
X1464056Y166814D01*
X1464056Y166878D01*
D23*
X1464056Y166878D03*
D20*
X1470518Y158814D02*
X1470454Y158750D01*
X1464056Y158750D01*
D23*
X1464056Y158750D03*
D20*
X1470390Y154686D02*
X1470518Y154814D01*
X1470390Y154686D02*
X1464056Y154686D01*
D23*
X1464056Y154686D03*
D20*
X1518888Y154830D02*
X1522888Y154830D01*
X1531874Y154830D01*
X1531874Y143256D01*
D23*
X1531874Y143256D03*
D20*
X1484518Y170814D02*
X1484518Y173030D01*
D23*
X1500378Y170942D03*
D20*
X1500250Y170814D01*
X1484518Y170814D01*
D23*
X1505458Y141732D03*
D20*
X1471318Y137309D02*
X1471318Y136144D01*
X1495044Y141732D02*
X1505458Y141732D01*
X1495044Y141732D02*
X1485646Y141732D01*
X1475741Y141732D01*
X1471318Y137309D01*
X1475176Y182372D02*
X1471518Y186030D01*
X1475176Y182372D02*
X1484518Y173030D01*
X1475336Y182372D02*
X1475176Y182372D01*
X1471518Y186030D02*
X1450444Y186030D01*
X1495044Y142136D02*
X1496822Y143914D01*
X1495044Y142136D02*
X1495044Y141732D01*
X1485392Y141986D02*
X1485392Y143914D01*
X1485392Y141986D02*
X1485646Y141732D01*
X1444498Y153312D02*
X1441854Y155956D01*
X1441854Y175006D01*
X1477518Y175006D02*
X1477518Y170814D01*
X1477518Y175006D02*
X1441854Y175006D01*
X1464056Y162814D02*
X1470518Y162814D01*
D23*
X1464056Y162814D03*
D28*
X1554714Y150622D02*
X1554734Y150602D01*
X1554734Y139954D01*
D29*
X1554734Y139954D03*
D30*
X1554714Y195072D02*
X1521206Y195072D01*
D28*
X1520825Y195453D01*
D29*
X1520825Y195453D03*
D22*
X1518888Y172434D02*
X1518888Y166830D01*
X1525016Y191262D02*
X1521206Y195072D01*
X1525016Y178562D02*
X1518888Y172434D01*
X1525016Y178562D02*
X1525016Y191262D01*
M02*
