G04 EAGLE Gerber RS-274X export*
G75*
%MOMM*%
%FSLAX34Y34*%
%LPD*%
%INSilkscreen Top*%
%IPPOS*%
%AMOC8*
5,1,8,0,0,1.08239X$1,22.5*%
G01*
%ADD10C,0.050800*%
%ADD11C,0.025400*%
%ADD12R,0.279400X0.406400*%
%ADD13C,0.152400*%
%ADD14R,0.425000X0.325000*%
%ADD15R,0.350000X0.350000*%
%ADD16C,0.127000*%
%ADD17C,0.200000*%
%ADD18C,0.076200*%
%ADD19C,0.140000*%

G36*
X1492600Y164784D02*
X1492600Y164784D01*
X1492602Y164783D01*
X1492645Y164803D01*
X1492689Y164821D01*
X1492689Y164823D01*
X1492691Y164824D01*
X1492724Y164909D01*
X1492724Y168719D01*
X1492723Y168721D01*
X1492724Y168723D01*
X1492704Y168766D01*
X1492686Y168810D01*
X1492684Y168810D01*
X1492683Y168812D01*
X1492598Y168845D01*
X1490058Y168845D01*
X1490056Y168844D01*
X1490054Y168845D01*
X1490011Y168825D01*
X1489967Y168807D01*
X1489967Y168805D01*
X1489965Y168804D01*
X1489932Y168719D01*
X1489932Y164909D01*
X1489933Y164907D01*
X1489932Y164905D01*
X1489952Y164862D01*
X1489970Y164818D01*
X1489972Y164818D01*
X1489973Y164816D01*
X1490058Y164783D01*
X1492598Y164783D01*
X1492600Y164784D01*
G37*
D10*
X1645158Y204978D02*
X1645158Y212090D01*
X1647529Y208139D01*
X1649899Y212090D01*
X1649899Y204978D01*
X1652702Y204978D02*
X1655072Y212090D01*
X1657443Y204978D01*
X1656850Y206756D02*
X1653294Y206756D01*
X1659560Y204978D02*
X1664301Y212090D01*
X1659560Y212090D02*
X1664301Y204978D01*
X1666812Y206954D02*
X1666814Y207041D01*
X1666820Y207129D01*
X1666829Y207216D01*
X1666843Y207302D01*
X1666860Y207388D01*
X1666881Y207472D01*
X1666906Y207556D01*
X1666935Y207639D01*
X1666967Y207720D01*
X1667002Y207800D01*
X1667041Y207878D01*
X1667084Y207955D01*
X1667130Y208029D01*
X1667179Y208101D01*
X1667231Y208171D01*
X1667287Y208239D01*
X1667345Y208304D01*
X1667406Y208367D01*
X1667470Y208426D01*
X1667537Y208483D01*
X1667605Y208537D01*
X1667677Y208588D01*
X1667750Y208635D01*
X1667825Y208680D01*
X1667903Y208721D01*
X1667982Y208758D01*
X1668062Y208792D01*
X1668144Y208822D01*
X1668227Y208849D01*
X1668312Y208872D01*
X1668397Y208891D01*
X1668483Y208906D01*
X1668570Y208918D01*
X1668657Y208926D01*
X1668744Y208930D01*
X1668832Y208930D01*
X1668919Y208926D01*
X1669006Y208918D01*
X1669093Y208906D01*
X1669179Y208891D01*
X1669264Y208872D01*
X1669349Y208849D01*
X1669432Y208822D01*
X1669514Y208792D01*
X1669594Y208758D01*
X1669673Y208721D01*
X1669751Y208680D01*
X1669826Y208635D01*
X1669899Y208588D01*
X1669971Y208537D01*
X1670039Y208483D01*
X1670106Y208426D01*
X1670170Y208367D01*
X1670231Y208304D01*
X1670289Y208239D01*
X1670345Y208171D01*
X1670397Y208101D01*
X1670446Y208029D01*
X1670492Y207955D01*
X1670535Y207878D01*
X1670574Y207800D01*
X1670609Y207720D01*
X1670641Y207639D01*
X1670670Y207556D01*
X1670695Y207472D01*
X1670716Y207388D01*
X1670733Y207302D01*
X1670747Y207216D01*
X1670756Y207129D01*
X1670762Y207041D01*
X1670764Y206954D01*
X1670762Y206867D01*
X1670756Y206779D01*
X1670747Y206692D01*
X1670733Y206606D01*
X1670716Y206520D01*
X1670695Y206436D01*
X1670670Y206352D01*
X1670641Y206269D01*
X1670609Y206188D01*
X1670574Y206108D01*
X1670535Y206030D01*
X1670492Y205953D01*
X1670446Y205879D01*
X1670397Y205807D01*
X1670345Y205737D01*
X1670289Y205669D01*
X1670231Y205604D01*
X1670170Y205541D01*
X1670106Y205482D01*
X1670039Y205425D01*
X1669971Y205371D01*
X1669899Y205320D01*
X1669826Y205273D01*
X1669751Y205228D01*
X1669673Y205187D01*
X1669594Y205150D01*
X1669514Y205116D01*
X1669432Y205086D01*
X1669349Y205059D01*
X1669264Y205036D01*
X1669179Y205017D01*
X1669093Y205002D01*
X1669006Y204990D01*
X1668919Y204982D01*
X1668832Y204978D01*
X1668744Y204978D01*
X1668657Y204982D01*
X1668570Y204990D01*
X1668483Y205002D01*
X1668397Y205017D01*
X1668312Y205036D01*
X1668227Y205059D01*
X1668144Y205086D01*
X1668062Y205116D01*
X1667982Y205150D01*
X1667903Y205187D01*
X1667825Y205228D01*
X1667750Y205273D01*
X1667677Y205320D01*
X1667605Y205371D01*
X1667537Y205425D01*
X1667470Y205482D01*
X1667406Y205541D01*
X1667345Y205604D01*
X1667287Y205669D01*
X1667231Y205737D01*
X1667179Y205807D01*
X1667130Y205879D01*
X1667084Y205953D01*
X1667041Y206030D01*
X1667002Y206108D01*
X1666967Y206188D01*
X1666935Y206269D01*
X1666906Y206352D01*
X1666881Y206436D01*
X1666860Y206520D01*
X1666843Y206606D01*
X1666829Y206692D01*
X1666820Y206779D01*
X1666814Y206867D01*
X1666812Y206954D01*
X1667208Y210510D02*
X1667210Y210589D01*
X1667216Y210667D01*
X1667226Y210745D01*
X1667239Y210823D01*
X1667257Y210900D01*
X1667278Y210976D01*
X1667303Y211050D01*
X1667332Y211124D01*
X1667364Y211196D01*
X1667400Y211266D01*
X1667440Y211334D01*
X1667483Y211400D01*
X1667529Y211464D01*
X1667578Y211526D01*
X1667630Y211585D01*
X1667685Y211641D01*
X1667743Y211695D01*
X1667803Y211745D01*
X1667866Y211793D01*
X1667931Y211837D01*
X1667998Y211878D01*
X1668067Y211916D01*
X1668138Y211950D01*
X1668211Y211981D01*
X1668285Y212008D01*
X1668360Y212031D01*
X1668436Y212050D01*
X1668514Y212066D01*
X1668592Y212078D01*
X1668670Y212086D01*
X1668749Y212090D01*
X1668827Y212090D01*
X1668906Y212086D01*
X1668984Y212078D01*
X1669062Y212066D01*
X1669140Y212050D01*
X1669216Y212031D01*
X1669291Y212008D01*
X1669365Y211981D01*
X1669438Y211950D01*
X1669509Y211916D01*
X1669578Y211878D01*
X1669645Y211837D01*
X1669710Y211793D01*
X1669773Y211745D01*
X1669833Y211695D01*
X1669891Y211641D01*
X1669946Y211585D01*
X1669998Y211526D01*
X1670047Y211464D01*
X1670093Y211400D01*
X1670136Y211334D01*
X1670176Y211266D01*
X1670212Y211196D01*
X1670244Y211124D01*
X1670273Y211050D01*
X1670298Y210976D01*
X1670319Y210900D01*
X1670337Y210823D01*
X1670350Y210745D01*
X1670360Y210667D01*
X1670366Y210589D01*
X1670368Y210510D01*
X1670366Y210431D01*
X1670360Y210353D01*
X1670350Y210275D01*
X1670337Y210197D01*
X1670319Y210120D01*
X1670298Y210044D01*
X1670273Y209970D01*
X1670244Y209896D01*
X1670212Y209824D01*
X1670176Y209754D01*
X1670136Y209686D01*
X1670093Y209620D01*
X1670047Y209556D01*
X1669998Y209494D01*
X1669946Y209435D01*
X1669891Y209379D01*
X1669833Y209325D01*
X1669773Y209275D01*
X1669710Y209227D01*
X1669645Y209183D01*
X1669578Y209142D01*
X1669509Y209104D01*
X1669438Y209070D01*
X1669365Y209039D01*
X1669291Y209012D01*
X1669216Y208989D01*
X1669140Y208970D01*
X1669062Y208954D01*
X1668984Y208942D01*
X1668906Y208934D01*
X1668827Y208930D01*
X1668749Y208930D01*
X1668670Y208934D01*
X1668592Y208942D01*
X1668514Y208954D01*
X1668436Y208970D01*
X1668360Y208989D01*
X1668285Y209012D01*
X1668211Y209039D01*
X1668138Y209070D01*
X1668067Y209104D01*
X1667998Y209142D01*
X1667931Y209183D01*
X1667866Y209227D01*
X1667803Y209275D01*
X1667743Y209325D01*
X1667685Y209379D01*
X1667630Y209435D01*
X1667578Y209494D01*
X1667529Y209556D01*
X1667483Y209620D01*
X1667440Y209686D01*
X1667400Y209754D01*
X1667364Y209824D01*
X1667332Y209896D01*
X1667303Y209970D01*
X1667278Y210044D01*
X1667257Y210120D01*
X1667239Y210197D01*
X1667226Y210275D01*
X1667216Y210353D01*
X1667210Y210431D01*
X1667208Y210510D01*
X1673671Y208929D02*
X1676041Y208929D01*
X1676119Y208927D01*
X1676196Y208921D01*
X1676273Y208912D01*
X1676349Y208899D01*
X1676425Y208882D01*
X1676500Y208861D01*
X1676573Y208837D01*
X1676646Y208809D01*
X1676717Y208777D01*
X1676786Y208742D01*
X1676853Y208704D01*
X1676919Y208663D01*
X1676982Y208618D01*
X1677043Y208570D01*
X1677102Y208520D01*
X1677158Y208466D01*
X1677212Y208410D01*
X1677262Y208351D01*
X1677310Y208290D01*
X1677355Y208227D01*
X1677396Y208161D01*
X1677434Y208094D01*
X1677469Y208025D01*
X1677501Y207954D01*
X1677529Y207881D01*
X1677553Y207808D01*
X1677574Y207733D01*
X1677591Y207657D01*
X1677604Y207581D01*
X1677613Y207504D01*
X1677619Y207427D01*
X1677621Y207349D01*
X1677622Y207349D02*
X1677622Y206954D01*
X1677620Y206867D01*
X1677614Y206779D01*
X1677605Y206692D01*
X1677591Y206606D01*
X1677574Y206520D01*
X1677553Y206436D01*
X1677528Y206352D01*
X1677499Y206269D01*
X1677467Y206188D01*
X1677432Y206108D01*
X1677393Y206030D01*
X1677350Y205953D01*
X1677304Y205879D01*
X1677255Y205807D01*
X1677203Y205737D01*
X1677147Y205669D01*
X1677089Y205604D01*
X1677028Y205541D01*
X1676964Y205482D01*
X1676897Y205425D01*
X1676829Y205371D01*
X1676757Y205320D01*
X1676684Y205273D01*
X1676609Y205228D01*
X1676531Y205187D01*
X1676452Y205150D01*
X1676372Y205116D01*
X1676290Y205086D01*
X1676207Y205059D01*
X1676122Y205036D01*
X1676037Y205017D01*
X1675951Y205002D01*
X1675864Y204990D01*
X1675777Y204982D01*
X1675690Y204978D01*
X1675602Y204978D01*
X1675515Y204982D01*
X1675428Y204990D01*
X1675341Y205002D01*
X1675255Y205017D01*
X1675170Y205036D01*
X1675085Y205059D01*
X1675002Y205086D01*
X1674920Y205116D01*
X1674840Y205150D01*
X1674761Y205187D01*
X1674683Y205228D01*
X1674608Y205273D01*
X1674535Y205320D01*
X1674463Y205371D01*
X1674395Y205425D01*
X1674328Y205482D01*
X1674264Y205541D01*
X1674203Y205604D01*
X1674145Y205669D01*
X1674089Y205737D01*
X1674037Y205807D01*
X1673988Y205879D01*
X1673942Y205953D01*
X1673899Y206030D01*
X1673860Y206108D01*
X1673825Y206188D01*
X1673793Y206269D01*
X1673764Y206352D01*
X1673739Y206436D01*
X1673718Y206520D01*
X1673701Y206606D01*
X1673687Y206692D01*
X1673678Y206779D01*
X1673672Y206867D01*
X1673670Y206954D01*
X1673671Y206954D02*
X1673671Y208929D01*
X1673673Y209039D01*
X1673679Y209149D01*
X1673688Y209259D01*
X1673702Y209369D01*
X1673719Y209478D01*
X1673740Y209586D01*
X1673765Y209694D01*
X1673793Y209800D01*
X1673826Y209906D01*
X1673862Y210010D01*
X1673901Y210113D01*
X1673944Y210215D01*
X1673991Y210315D01*
X1674041Y210413D01*
X1674094Y210509D01*
X1674151Y210604D01*
X1674211Y210697D01*
X1674275Y210787D01*
X1674341Y210875D01*
X1674411Y210961D01*
X1674483Y211044D01*
X1674558Y211125D01*
X1674636Y211203D01*
X1674717Y211278D01*
X1674800Y211350D01*
X1674886Y211420D01*
X1674974Y211486D01*
X1675064Y211550D01*
X1675157Y211610D01*
X1675251Y211666D01*
X1675348Y211720D01*
X1675446Y211770D01*
X1675546Y211817D01*
X1675648Y211860D01*
X1675751Y211899D01*
X1675855Y211935D01*
X1675961Y211968D01*
X1676067Y211996D01*
X1676175Y212021D01*
X1676283Y212042D01*
X1676392Y212059D01*
X1676502Y212073D01*
X1676611Y212082D01*
X1676722Y212088D01*
X1676832Y212090D01*
X1680529Y210510D02*
X1682504Y212090D01*
X1682504Y204978D01*
X1680529Y204978D02*
X1684480Y204978D01*
X1687387Y206558D02*
X1688967Y212090D01*
X1687387Y206558D02*
X1691338Y206558D01*
X1690152Y204978D02*
X1690152Y208139D01*
X1694245Y210510D02*
X1696220Y212090D01*
X1696220Y204978D01*
X1694245Y204978D02*
X1698196Y204978D01*
X1704989Y204978D02*
X1704989Y212090D01*
X1704989Y208929D02*
X1708940Y208929D01*
X1708940Y212090D02*
X1708940Y204978D01*
X1712316Y204978D02*
X1715477Y204978D01*
X1712316Y204978D02*
X1712316Y212090D01*
X1715477Y212090D01*
X1714687Y208929D02*
X1712316Y208929D01*
X1721013Y208929D02*
X1722199Y208929D01*
X1722199Y204978D01*
X1719828Y204978D01*
X1719750Y204980D01*
X1719673Y204986D01*
X1719596Y204995D01*
X1719520Y205008D01*
X1719444Y205025D01*
X1719369Y205046D01*
X1719296Y205070D01*
X1719223Y205098D01*
X1719152Y205130D01*
X1719083Y205165D01*
X1719016Y205203D01*
X1718950Y205244D01*
X1718887Y205289D01*
X1718826Y205337D01*
X1718767Y205387D01*
X1718711Y205441D01*
X1718657Y205497D01*
X1718607Y205556D01*
X1718559Y205617D01*
X1718514Y205680D01*
X1718473Y205746D01*
X1718435Y205813D01*
X1718400Y205882D01*
X1718368Y205953D01*
X1718340Y206026D01*
X1718316Y206099D01*
X1718295Y206174D01*
X1718278Y206250D01*
X1718265Y206326D01*
X1718256Y206403D01*
X1718250Y206480D01*
X1718248Y206558D01*
X1718247Y206558D02*
X1718247Y210510D01*
X1718248Y210510D02*
X1718250Y210588D01*
X1718256Y210665D01*
X1718265Y210742D01*
X1718278Y210818D01*
X1718295Y210894D01*
X1718316Y210969D01*
X1718340Y211042D01*
X1718368Y211115D01*
X1718400Y211186D01*
X1718435Y211255D01*
X1718473Y211322D01*
X1718514Y211388D01*
X1718559Y211451D01*
X1718607Y211512D01*
X1718657Y211571D01*
X1718711Y211627D01*
X1718767Y211681D01*
X1718826Y211731D01*
X1718887Y211779D01*
X1718950Y211824D01*
X1719016Y211865D01*
X1719083Y211903D01*
X1719152Y211938D01*
X1719223Y211970D01*
X1719296Y211998D01*
X1719369Y212022D01*
X1719444Y212043D01*
X1719520Y212060D01*
X1719596Y212073D01*
X1719673Y212082D01*
X1719750Y212088D01*
X1719828Y212090D01*
X1722199Y212090D01*
X1729282Y212090D02*
X1729282Y204978D01*
X1731653Y208139D02*
X1729282Y212090D01*
X1731653Y208139D02*
X1734024Y212090D01*
X1734024Y204978D01*
X1737825Y204978D02*
X1737825Y212090D01*
X1737035Y204978D02*
X1738615Y204978D01*
X1738615Y212090D02*
X1737035Y212090D01*
X1741565Y212090D02*
X1741565Y204978D01*
X1745516Y204978D02*
X1741565Y212090D01*
X1745516Y212090D02*
X1745516Y204978D01*
X1749255Y204978D02*
X1749255Y212090D01*
X1748465Y204978D02*
X1750045Y204978D01*
X1750045Y212090D02*
X1748465Y212090D01*
X1756745Y212090D02*
X1756745Y204978D01*
X1756745Y212090D02*
X1758721Y212090D01*
X1758808Y212088D01*
X1758896Y212082D01*
X1758983Y212073D01*
X1759069Y212059D01*
X1759155Y212042D01*
X1759239Y212021D01*
X1759323Y211996D01*
X1759406Y211967D01*
X1759487Y211935D01*
X1759567Y211900D01*
X1759645Y211861D01*
X1759722Y211818D01*
X1759796Y211772D01*
X1759868Y211723D01*
X1759938Y211671D01*
X1760006Y211615D01*
X1760071Y211557D01*
X1760134Y211496D01*
X1760193Y211432D01*
X1760250Y211365D01*
X1760304Y211297D01*
X1760355Y211225D01*
X1760402Y211152D01*
X1760447Y211077D01*
X1760488Y210999D01*
X1760525Y210920D01*
X1760559Y210840D01*
X1760589Y210758D01*
X1760616Y210675D01*
X1760639Y210590D01*
X1760658Y210505D01*
X1760673Y210419D01*
X1760685Y210332D01*
X1760693Y210245D01*
X1760697Y210158D01*
X1760697Y210070D01*
X1760693Y209983D01*
X1760685Y209896D01*
X1760673Y209809D01*
X1760658Y209723D01*
X1760639Y209638D01*
X1760616Y209553D01*
X1760589Y209470D01*
X1760559Y209388D01*
X1760525Y209308D01*
X1760488Y209229D01*
X1760447Y209151D01*
X1760402Y209076D01*
X1760355Y209003D01*
X1760304Y208931D01*
X1760250Y208863D01*
X1760193Y208796D01*
X1760134Y208732D01*
X1760071Y208671D01*
X1760006Y208613D01*
X1759938Y208557D01*
X1759868Y208505D01*
X1759796Y208456D01*
X1759722Y208410D01*
X1759645Y208367D01*
X1759567Y208328D01*
X1759487Y208293D01*
X1759406Y208261D01*
X1759323Y208232D01*
X1759239Y208207D01*
X1759155Y208186D01*
X1759069Y208169D01*
X1758983Y208155D01*
X1758896Y208146D01*
X1758808Y208140D01*
X1758721Y208138D01*
X1758721Y208139D02*
X1756745Y208139D01*
X1763484Y209719D02*
X1763484Y204978D01*
X1763484Y209719D02*
X1765855Y209719D01*
X1765855Y208929D01*
X1768020Y208139D02*
X1768020Y206558D01*
X1768020Y208139D02*
X1768022Y208218D01*
X1768028Y208296D01*
X1768038Y208374D01*
X1768051Y208452D01*
X1768069Y208529D01*
X1768090Y208605D01*
X1768115Y208679D01*
X1768144Y208753D01*
X1768176Y208825D01*
X1768212Y208895D01*
X1768252Y208963D01*
X1768295Y209029D01*
X1768341Y209093D01*
X1768390Y209155D01*
X1768442Y209214D01*
X1768497Y209270D01*
X1768555Y209324D01*
X1768615Y209374D01*
X1768678Y209422D01*
X1768743Y209466D01*
X1768810Y209507D01*
X1768879Y209545D01*
X1768950Y209579D01*
X1769023Y209610D01*
X1769097Y209637D01*
X1769172Y209660D01*
X1769248Y209679D01*
X1769326Y209695D01*
X1769404Y209707D01*
X1769482Y209715D01*
X1769561Y209719D01*
X1769639Y209719D01*
X1769718Y209715D01*
X1769796Y209707D01*
X1769874Y209695D01*
X1769952Y209679D01*
X1770028Y209660D01*
X1770103Y209637D01*
X1770177Y209610D01*
X1770250Y209579D01*
X1770321Y209545D01*
X1770390Y209507D01*
X1770457Y209466D01*
X1770522Y209422D01*
X1770585Y209374D01*
X1770645Y209324D01*
X1770703Y209270D01*
X1770758Y209214D01*
X1770810Y209155D01*
X1770859Y209093D01*
X1770905Y209029D01*
X1770948Y208963D01*
X1770988Y208895D01*
X1771024Y208825D01*
X1771056Y208753D01*
X1771085Y208679D01*
X1771110Y208605D01*
X1771131Y208529D01*
X1771149Y208452D01*
X1771162Y208374D01*
X1771172Y208296D01*
X1771178Y208218D01*
X1771180Y208139D01*
X1771181Y208139D02*
X1771181Y206558D01*
X1771180Y206558D02*
X1771178Y206479D01*
X1771172Y206401D01*
X1771162Y206323D01*
X1771149Y206245D01*
X1771131Y206168D01*
X1771110Y206092D01*
X1771085Y206018D01*
X1771056Y205944D01*
X1771024Y205872D01*
X1770988Y205802D01*
X1770948Y205734D01*
X1770905Y205668D01*
X1770859Y205604D01*
X1770810Y205542D01*
X1770758Y205483D01*
X1770703Y205427D01*
X1770645Y205373D01*
X1770585Y205323D01*
X1770522Y205275D01*
X1770457Y205231D01*
X1770390Y205190D01*
X1770321Y205152D01*
X1770250Y205118D01*
X1770177Y205087D01*
X1770103Y205060D01*
X1770028Y205037D01*
X1769952Y205018D01*
X1769874Y205002D01*
X1769796Y204990D01*
X1769718Y204982D01*
X1769639Y204978D01*
X1769561Y204978D01*
X1769482Y204982D01*
X1769404Y204990D01*
X1769326Y205002D01*
X1769248Y205018D01*
X1769172Y205037D01*
X1769097Y205060D01*
X1769023Y205087D01*
X1768950Y205118D01*
X1768879Y205152D01*
X1768810Y205190D01*
X1768743Y205231D01*
X1768678Y205275D01*
X1768615Y205323D01*
X1768555Y205373D01*
X1768497Y205427D01*
X1768442Y205483D01*
X1768390Y205542D01*
X1768341Y205604D01*
X1768295Y205668D01*
X1768252Y205734D01*
X1768212Y205802D01*
X1768176Y205872D01*
X1768144Y205944D01*
X1768115Y206018D01*
X1768090Y206092D01*
X1768069Y206168D01*
X1768051Y206245D01*
X1768038Y206323D01*
X1768028Y206401D01*
X1768022Y206479D01*
X1768020Y206558D01*
X1773393Y209719D02*
X1775764Y209719D01*
X1774184Y212090D02*
X1774184Y206163D01*
X1774186Y206097D01*
X1774191Y206030D01*
X1774201Y205965D01*
X1774214Y205899D01*
X1774230Y205835D01*
X1774250Y205772D01*
X1774274Y205710D01*
X1774301Y205649D01*
X1774332Y205590D01*
X1774366Y205533D01*
X1774403Y205477D01*
X1774443Y205424D01*
X1774485Y205373D01*
X1774531Y205325D01*
X1774579Y205279D01*
X1774630Y205237D01*
X1774683Y205197D01*
X1774739Y205160D01*
X1774796Y205126D01*
X1774855Y205095D01*
X1774916Y205068D01*
X1774978Y205044D01*
X1775041Y205024D01*
X1775105Y205008D01*
X1775171Y204995D01*
X1775236Y204985D01*
X1775303Y204980D01*
X1775369Y204978D01*
X1775764Y204978D01*
X1778307Y206558D02*
X1778307Y208139D01*
X1778309Y208218D01*
X1778315Y208296D01*
X1778325Y208374D01*
X1778338Y208452D01*
X1778356Y208529D01*
X1778377Y208605D01*
X1778402Y208679D01*
X1778431Y208753D01*
X1778463Y208825D01*
X1778499Y208895D01*
X1778539Y208963D01*
X1778582Y209029D01*
X1778628Y209093D01*
X1778677Y209155D01*
X1778729Y209214D01*
X1778784Y209270D01*
X1778842Y209324D01*
X1778902Y209374D01*
X1778965Y209422D01*
X1779030Y209466D01*
X1779097Y209507D01*
X1779166Y209545D01*
X1779237Y209579D01*
X1779310Y209610D01*
X1779384Y209637D01*
X1779459Y209660D01*
X1779535Y209679D01*
X1779613Y209695D01*
X1779691Y209707D01*
X1779769Y209715D01*
X1779848Y209719D01*
X1779926Y209719D01*
X1780005Y209715D01*
X1780083Y209707D01*
X1780161Y209695D01*
X1780239Y209679D01*
X1780315Y209660D01*
X1780390Y209637D01*
X1780464Y209610D01*
X1780537Y209579D01*
X1780608Y209545D01*
X1780677Y209507D01*
X1780744Y209466D01*
X1780809Y209422D01*
X1780872Y209374D01*
X1780932Y209324D01*
X1780990Y209270D01*
X1781045Y209214D01*
X1781097Y209155D01*
X1781146Y209093D01*
X1781192Y209029D01*
X1781235Y208963D01*
X1781275Y208895D01*
X1781311Y208825D01*
X1781343Y208753D01*
X1781372Y208679D01*
X1781397Y208605D01*
X1781418Y208529D01*
X1781436Y208452D01*
X1781449Y208374D01*
X1781459Y208296D01*
X1781465Y208218D01*
X1781467Y208139D01*
X1781468Y208139D02*
X1781468Y206558D01*
X1781467Y206558D02*
X1781465Y206479D01*
X1781459Y206401D01*
X1781449Y206323D01*
X1781436Y206245D01*
X1781418Y206168D01*
X1781397Y206092D01*
X1781372Y206018D01*
X1781343Y205944D01*
X1781311Y205872D01*
X1781275Y205802D01*
X1781235Y205734D01*
X1781192Y205668D01*
X1781146Y205604D01*
X1781097Y205542D01*
X1781045Y205483D01*
X1780990Y205427D01*
X1780932Y205373D01*
X1780872Y205323D01*
X1780809Y205275D01*
X1780744Y205231D01*
X1780677Y205190D01*
X1780608Y205152D01*
X1780537Y205118D01*
X1780464Y205087D01*
X1780390Y205060D01*
X1780315Y205037D01*
X1780239Y205018D01*
X1780161Y205002D01*
X1780083Y204990D01*
X1780005Y204982D01*
X1779926Y204978D01*
X1779848Y204978D01*
X1779769Y204982D01*
X1779691Y204990D01*
X1779613Y205002D01*
X1779535Y205018D01*
X1779459Y205037D01*
X1779384Y205060D01*
X1779310Y205087D01*
X1779237Y205118D01*
X1779166Y205152D01*
X1779097Y205190D01*
X1779030Y205231D01*
X1778965Y205275D01*
X1778902Y205323D01*
X1778842Y205373D01*
X1778784Y205427D01*
X1778729Y205483D01*
X1778677Y205542D01*
X1778628Y205604D01*
X1778582Y205668D01*
X1778539Y205734D01*
X1778499Y205802D01*
X1778463Y205872D01*
X1778431Y205944D01*
X1778402Y206018D01*
X1778377Y206092D01*
X1778356Y206168D01*
X1778338Y206245D01*
X1778325Y206323D01*
X1778315Y206401D01*
X1778309Y206479D01*
X1778307Y206558D01*
X1783680Y209719D02*
X1786051Y209719D01*
X1784470Y212090D02*
X1784470Y206163D01*
X1784471Y206163D02*
X1784473Y206097D01*
X1784478Y206030D01*
X1784488Y205965D01*
X1784501Y205899D01*
X1784517Y205835D01*
X1784537Y205772D01*
X1784561Y205710D01*
X1784588Y205649D01*
X1784619Y205590D01*
X1784653Y205533D01*
X1784690Y205477D01*
X1784730Y205424D01*
X1784772Y205373D01*
X1784818Y205325D01*
X1784866Y205279D01*
X1784917Y205237D01*
X1784970Y205197D01*
X1785026Y205160D01*
X1785083Y205126D01*
X1785142Y205095D01*
X1785203Y205068D01*
X1785265Y205044D01*
X1785328Y205024D01*
X1785392Y205008D01*
X1785458Y204995D01*
X1785523Y204985D01*
X1785590Y204980D01*
X1785656Y204978D01*
X1786051Y204978D01*
X1788365Y202607D02*
X1789155Y202607D01*
X1791526Y209719D01*
X1788365Y209719D02*
X1789945Y204978D01*
X1794341Y202607D02*
X1794341Y209719D01*
X1796317Y209719D01*
X1796383Y209717D01*
X1796450Y209712D01*
X1796515Y209702D01*
X1796581Y209689D01*
X1796645Y209673D01*
X1796708Y209653D01*
X1796770Y209629D01*
X1796831Y209602D01*
X1796890Y209571D01*
X1796947Y209537D01*
X1797003Y209500D01*
X1797056Y209460D01*
X1797107Y209418D01*
X1797155Y209372D01*
X1797201Y209324D01*
X1797243Y209273D01*
X1797283Y209220D01*
X1797320Y209164D01*
X1797354Y209107D01*
X1797385Y209048D01*
X1797412Y208988D01*
X1797435Y208925D01*
X1797456Y208862D01*
X1797472Y208798D01*
X1797485Y208733D01*
X1797495Y208667D01*
X1797500Y208600D01*
X1797502Y208534D01*
X1797502Y206163D01*
X1797500Y206097D01*
X1797495Y206030D01*
X1797485Y205965D01*
X1797472Y205899D01*
X1797456Y205835D01*
X1797436Y205772D01*
X1797412Y205710D01*
X1797385Y205649D01*
X1797354Y205590D01*
X1797320Y205533D01*
X1797283Y205477D01*
X1797243Y205424D01*
X1797201Y205373D01*
X1797155Y205325D01*
X1797107Y205279D01*
X1797056Y205237D01*
X1797003Y205197D01*
X1796947Y205160D01*
X1796890Y205126D01*
X1796831Y205095D01*
X1796770Y205068D01*
X1796708Y205044D01*
X1796645Y205024D01*
X1796581Y205008D01*
X1796515Y204995D01*
X1796450Y204985D01*
X1796383Y204980D01*
X1796317Y204978D01*
X1794341Y204978D01*
X1801437Y204978D02*
X1803413Y204978D01*
X1801437Y204978D02*
X1801371Y204980D01*
X1801304Y204985D01*
X1801239Y204995D01*
X1801173Y205008D01*
X1801109Y205024D01*
X1801046Y205044D01*
X1800984Y205068D01*
X1800923Y205095D01*
X1800864Y205126D01*
X1800807Y205160D01*
X1800751Y205197D01*
X1800698Y205237D01*
X1800647Y205279D01*
X1800599Y205325D01*
X1800553Y205373D01*
X1800511Y205424D01*
X1800471Y205477D01*
X1800434Y205533D01*
X1800400Y205590D01*
X1800369Y205649D01*
X1800342Y205710D01*
X1800318Y205772D01*
X1800298Y205835D01*
X1800282Y205899D01*
X1800269Y205965D01*
X1800259Y206030D01*
X1800254Y206097D01*
X1800252Y206163D01*
X1800252Y208139D01*
X1800253Y208139D02*
X1800255Y208218D01*
X1800261Y208296D01*
X1800271Y208374D01*
X1800284Y208452D01*
X1800302Y208529D01*
X1800323Y208605D01*
X1800348Y208679D01*
X1800377Y208753D01*
X1800409Y208825D01*
X1800445Y208895D01*
X1800485Y208963D01*
X1800528Y209029D01*
X1800574Y209093D01*
X1800623Y209155D01*
X1800675Y209214D01*
X1800730Y209270D01*
X1800788Y209324D01*
X1800848Y209374D01*
X1800911Y209422D01*
X1800976Y209466D01*
X1801043Y209507D01*
X1801112Y209545D01*
X1801183Y209579D01*
X1801256Y209610D01*
X1801330Y209637D01*
X1801405Y209660D01*
X1801481Y209679D01*
X1801559Y209695D01*
X1801637Y209707D01*
X1801715Y209715D01*
X1801794Y209719D01*
X1801872Y209719D01*
X1801951Y209715D01*
X1802029Y209707D01*
X1802107Y209695D01*
X1802185Y209679D01*
X1802261Y209660D01*
X1802336Y209637D01*
X1802410Y209610D01*
X1802483Y209579D01*
X1802554Y209545D01*
X1802623Y209507D01*
X1802690Y209466D01*
X1802755Y209422D01*
X1802818Y209374D01*
X1802878Y209324D01*
X1802936Y209270D01*
X1802991Y209214D01*
X1803043Y209155D01*
X1803092Y209093D01*
X1803138Y209029D01*
X1803181Y208963D01*
X1803221Y208895D01*
X1803257Y208825D01*
X1803289Y208753D01*
X1803318Y208679D01*
X1803343Y208605D01*
X1803364Y208529D01*
X1803382Y208452D01*
X1803395Y208374D01*
X1803405Y208296D01*
X1803411Y208218D01*
X1803413Y208139D01*
X1803413Y207349D01*
X1800252Y207349D01*
X1809974Y208534D02*
X1809976Y208697D01*
X1809982Y208859D01*
X1809992Y209022D01*
X1810005Y209184D01*
X1810023Y209346D01*
X1810044Y209507D01*
X1810070Y209668D01*
X1810099Y209828D01*
X1810132Y209987D01*
X1810169Y210146D01*
X1810209Y210303D01*
X1810254Y210460D01*
X1810302Y210615D01*
X1810354Y210770D01*
X1810410Y210923D01*
X1810469Y211074D01*
X1810532Y211224D01*
X1810598Y211373D01*
X1810668Y211520D01*
X1810742Y211665D01*
X1810819Y211808D01*
X1810899Y211950D01*
X1810983Y212089D01*
X1811070Y212227D01*
X1811161Y212362D01*
X1811255Y212495D01*
X1811351Y212626D01*
X1811451Y212754D01*
X1811554Y212880D01*
X1809974Y208534D02*
X1809976Y208371D01*
X1809982Y208209D01*
X1809992Y208046D01*
X1810005Y207884D01*
X1810023Y207722D01*
X1810044Y207561D01*
X1810070Y207400D01*
X1810099Y207240D01*
X1810132Y207081D01*
X1810169Y206922D01*
X1810209Y206765D01*
X1810254Y206608D01*
X1810302Y206453D01*
X1810354Y206298D01*
X1810410Y206145D01*
X1810469Y205994D01*
X1810532Y205844D01*
X1810598Y205695D01*
X1810668Y205548D01*
X1810742Y205403D01*
X1810819Y205260D01*
X1810899Y205118D01*
X1810983Y204979D01*
X1811070Y204842D01*
X1811161Y204706D01*
X1811255Y204573D01*
X1811351Y204442D01*
X1811451Y204314D01*
X1811554Y204188D01*
X1814549Y204978D02*
X1814549Y212090D01*
X1816920Y208139D01*
X1819291Y212090D01*
X1819291Y204978D01*
X1823092Y204978D02*
X1823092Y212090D01*
X1822302Y204978D02*
X1823882Y204978D01*
X1823882Y212090D02*
X1822302Y212090D01*
X1828121Y212090D02*
X1828121Y204978D01*
X1826146Y212090D02*
X1830097Y212090D01*
X1836445Y212090D02*
X1836445Y204978D01*
X1839606Y204978D01*
X1842066Y204978D02*
X1842066Y209719D01*
X1841868Y211695D02*
X1841868Y212090D01*
X1842263Y212090D01*
X1842263Y211695D01*
X1841868Y211695D01*
X1846021Y204978D02*
X1847602Y204978D01*
X1846021Y204978D02*
X1845955Y204980D01*
X1845888Y204985D01*
X1845823Y204995D01*
X1845757Y205008D01*
X1845693Y205024D01*
X1845630Y205044D01*
X1845568Y205068D01*
X1845507Y205095D01*
X1845448Y205126D01*
X1845391Y205160D01*
X1845335Y205197D01*
X1845282Y205237D01*
X1845231Y205279D01*
X1845183Y205325D01*
X1845137Y205373D01*
X1845095Y205424D01*
X1845055Y205477D01*
X1845018Y205533D01*
X1844984Y205590D01*
X1844953Y205649D01*
X1844926Y205710D01*
X1844902Y205772D01*
X1844882Y205835D01*
X1844866Y205899D01*
X1844853Y205965D01*
X1844843Y206030D01*
X1844838Y206097D01*
X1844836Y206163D01*
X1844836Y208534D01*
X1844838Y208600D01*
X1844843Y208667D01*
X1844853Y208732D01*
X1844866Y208798D01*
X1844882Y208862D01*
X1844902Y208925D01*
X1844926Y208987D01*
X1844953Y209048D01*
X1844984Y209107D01*
X1845018Y209164D01*
X1845055Y209220D01*
X1845095Y209273D01*
X1845137Y209324D01*
X1845183Y209372D01*
X1845231Y209418D01*
X1845282Y209460D01*
X1845335Y209500D01*
X1845391Y209537D01*
X1845448Y209571D01*
X1845507Y209602D01*
X1845568Y209629D01*
X1845630Y209653D01*
X1845693Y209673D01*
X1845757Y209689D01*
X1845823Y209702D01*
X1845888Y209712D01*
X1845955Y209717D01*
X1846021Y209719D01*
X1847602Y209719D01*
X1851272Y204978D02*
X1853247Y204978D01*
X1851272Y204978D02*
X1851206Y204980D01*
X1851139Y204985D01*
X1851074Y204995D01*
X1851008Y205008D01*
X1850944Y205024D01*
X1850881Y205044D01*
X1850819Y205068D01*
X1850758Y205095D01*
X1850699Y205126D01*
X1850642Y205160D01*
X1850586Y205197D01*
X1850533Y205237D01*
X1850482Y205279D01*
X1850434Y205325D01*
X1850388Y205373D01*
X1850346Y205424D01*
X1850306Y205477D01*
X1850269Y205533D01*
X1850235Y205590D01*
X1850204Y205649D01*
X1850177Y205710D01*
X1850153Y205772D01*
X1850133Y205835D01*
X1850117Y205899D01*
X1850104Y205965D01*
X1850094Y206030D01*
X1850089Y206097D01*
X1850087Y206163D01*
X1850087Y208139D01*
X1850089Y208218D01*
X1850095Y208296D01*
X1850105Y208374D01*
X1850118Y208452D01*
X1850136Y208529D01*
X1850157Y208605D01*
X1850182Y208679D01*
X1850211Y208753D01*
X1850243Y208825D01*
X1850279Y208895D01*
X1850319Y208963D01*
X1850362Y209029D01*
X1850408Y209093D01*
X1850457Y209155D01*
X1850509Y209214D01*
X1850564Y209270D01*
X1850622Y209324D01*
X1850682Y209374D01*
X1850745Y209422D01*
X1850810Y209466D01*
X1850877Y209507D01*
X1850946Y209545D01*
X1851017Y209579D01*
X1851090Y209610D01*
X1851164Y209637D01*
X1851239Y209660D01*
X1851315Y209679D01*
X1851393Y209695D01*
X1851471Y209707D01*
X1851549Y209715D01*
X1851628Y209719D01*
X1851706Y209719D01*
X1851785Y209715D01*
X1851863Y209707D01*
X1851941Y209695D01*
X1852019Y209679D01*
X1852095Y209660D01*
X1852170Y209637D01*
X1852244Y209610D01*
X1852317Y209579D01*
X1852388Y209545D01*
X1852457Y209507D01*
X1852524Y209466D01*
X1852589Y209422D01*
X1852652Y209374D01*
X1852712Y209324D01*
X1852770Y209270D01*
X1852825Y209214D01*
X1852877Y209155D01*
X1852926Y209093D01*
X1852972Y209029D01*
X1853015Y208963D01*
X1853055Y208895D01*
X1853091Y208825D01*
X1853123Y208753D01*
X1853152Y208679D01*
X1853177Y208605D01*
X1853198Y208529D01*
X1853216Y208452D01*
X1853229Y208374D01*
X1853239Y208296D01*
X1853245Y208218D01*
X1853247Y208139D01*
X1853247Y207349D01*
X1850087Y207349D01*
X1856259Y204978D02*
X1856259Y209719D01*
X1858234Y209719D01*
X1858300Y209717D01*
X1858367Y209712D01*
X1858432Y209702D01*
X1858498Y209689D01*
X1858562Y209673D01*
X1858625Y209653D01*
X1858687Y209629D01*
X1858748Y209602D01*
X1858807Y209571D01*
X1858864Y209537D01*
X1858920Y209500D01*
X1858973Y209460D01*
X1859024Y209418D01*
X1859072Y209372D01*
X1859118Y209324D01*
X1859160Y209273D01*
X1859200Y209220D01*
X1859237Y209164D01*
X1859271Y209107D01*
X1859302Y209048D01*
X1859329Y208988D01*
X1859352Y208925D01*
X1859373Y208862D01*
X1859389Y208798D01*
X1859402Y208733D01*
X1859412Y208667D01*
X1859417Y208600D01*
X1859419Y208534D01*
X1859420Y208534D02*
X1859420Y204978D01*
X1863024Y207744D02*
X1864999Y206954D01*
X1863024Y207744D02*
X1862966Y207769D01*
X1862910Y207798D01*
X1862855Y207830D01*
X1862803Y207866D01*
X1862753Y207905D01*
X1862706Y207946D01*
X1862661Y207991D01*
X1862619Y208038D01*
X1862580Y208087D01*
X1862544Y208139D01*
X1862511Y208193D01*
X1862482Y208249D01*
X1862456Y208307D01*
X1862434Y208366D01*
X1862416Y208427D01*
X1862401Y208488D01*
X1862390Y208550D01*
X1862383Y208613D01*
X1862380Y208676D01*
X1862381Y208739D01*
X1862386Y208802D01*
X1862394Y208865D01*
X1862407Y208927D01*
X1862423Y208988D01*
X1862443Y209048D01*
X1862466Y209106D01*
X1862493Y209163D01*
X1862524Y209218D01*
X1862558Y209272D01*
X1862595Y209323D01*
X1862635Y209371D01*
X1862678Y209418D01*
X1862724Y209461D01*
X1862773Y209501D01*
X1862824Y209539D01*
X1862877Y209573D01*
X1862932Y209604D01*
X1862989Y209631D01*
X1863047Y209655D01*
X1863107Y209675D01*
X1863168Y209691D01*
X1863230Y209704D01*
X1863293Y209713D01*
X1863355Y209718D01*
X1863419Y209719D01*
X1863419Y209720D02*
X1863550Y209716D01*
X1863681Y209708D01*
X1863811Y209697D01*
X1863941Y209682D01*
X1864071Y209662D01*
X1864200Y209640D01*
X1864328Y209613D01*
X1864456Y209583D01*
X1864582Y209549D01*
X1864708Y209511D01*
X1864832Y209470D01*
X1864955Y209425D01*
X1865077Y209376D01*
X1865197Y209324D01*
X1864999Y206953D02*
X1865057Y206928D01*
X1865113Y206899D01*
X1865168Y206867D01*
X1865220Y206831D01*
X1865270Y206792D01*
X1865317Y206751D01*
X1865362Y206706D01*
X1865404Y206659D01*
X1865443Y206610D01*
X1865479Y206558D01*
X1865512Y206504D01*
X1865541Y206448D01*
X1865567Y206390D01*
X1865589Y206331D01*
X1865607Y206270D01*
X1865622Y206209D01*
X1865633Y206147D01*
X1865640Y206084D01*
X1865643Y206021D01*
X1865642Y205958D01*
X1865637Y205895D01*
X1865629Y205832D01*
X1865616Y205770D01*
X1865600Y205709D01*
X1865580Y205649D01*
X1865557Y205591D01*
X1865530Y205534D01*
X1865499Y205479D01*
X1865465Y205425D01*
X1865428Y205374D01*
X1865388Y205326D01*
X1865345Y205279D01*
X1865299Y205236D01*
X1865250Y205196D01*
X1865199Y205158D01*
X1865146Y205124D01*
X1865091Y205093D01*
X1865034Y205066D01*
X1864976Y205042D01*
X1864916Y205022D01*
X1864855Y205006D01*
X1864793Y204993D01*
X1864730Y204984D01*
X1864668Y204979D01*
X1864604Y204978D01*
X1864446Y204982D01*
X1864288Y204990D01*
X1864130Y205001D01*
X1863972Y205017D01*
X1863814Y205036D01*
X1863658Y205059D01*
X1863501Y205085D01*
X1863346Y205115D01*
X1863191Y205149D01*
X1863037Y205187D01*
X1862884Y205228D01*
X1862732Y205273D01*
X1862581Y205321D01*
X1862431Y205373D01*
X1869560Y204978D02*
X1871535Y204978D01*
X1869560Y204978D02*
X1869494Y204980D01*
X1869427Y204985D01*
X1869362Y204995D01*
X1869296Y205008D01*
X1869232Y205024D01*
X1869169Y205044D01*
X1869107Y205068D01*
X1869046Y205095D01*
X1868987Y205126D01*
X1868930Y205160D01*
X1868874Y205197D01*
X1868821Y205237D01*
X1868770Y205279D01*
X1868722Y205325D01*
X1868676Y205373D01*
X1868634Y205424D01*
X1868594Y205477D01*
X1868557Y205533D01*
X1868523Y205590D01*
X1868492Y205649D01*
X1868465Y205710D01*
X1868441Y205772D01*
X1868421Y205835D01*
X1868405Y205899D01*
X1868392Y205965D01*
X1868382Y206030D01*
X1868377Y206097D01*
X1868375Y206163D01*
X1868374Y206163D02*
X1868374Y208139D01*
X1868375Y208139D02*
X1868377Y208218D01*
X1868383Y208296D01*
X1868393Y208374D01*
X1868406Y208452D01*
X1868424Y208529D01*
X1868445Y208605D01*
X1868470Y208679D01*
X1868499Y208753D01*
X1868531Y208825D01*
X1868567Y208895D01*
X1868607Y208963D01*
X1868650Y209029D01*
X1868696Y209093D01*
X1868745Y209155D01*
X1868797Y209214D01*
X1868852Y209270D01*
X1868910Y209324D01*
X1868970Y209374D01*
X1869033Y209422D01*
X1869098Y209466D01*
X1869165Y209507D01*
X1869234Y209545D01*
X1869305Y209579D01*
X1869378Y209610D01*
X1869452Y209637D01*
X1869527Y209660D01*
X1869603Y209679D01*
X1869681Y209695D01*
X1869759Y209707D01*
X1869837Y209715D01*
X1869916Y209719D01*
X1869994Y209719D01*
X1870073Y209715D01*
X1870151Y209707D01*
X1870229Y209695D01*
X1870307Y209679D01*
X1870383Y209660D01*
X1870458Y209637D01*
X1870532Y209610D01*
X1870605Y209579D01*
X1870676Y209545D01*
X1870745Y209507D01*
X1870812Y209466D01*
X1870877Y209422D01*
X1870940Y209374D01*
X1871000Y209324D01*
X1871058Y209270D01*
X1871113Y209214D01*
X1871165Y209155D01*
X1871214Y209093D01*
X1871260Y209029D01*
X1871303Y208963D01*
X1871343Y208895D01*
X1871379Y208825D01*
X1871411Y208753D01*
X1871440Y208679D01*
X1871465Y208605D01*
X1871486Y208529D01*
X1871504Y208452D01*
X1871517Y208374D01*
X1871527Y208296D01*
X1871533Y208218D01*
X1871535Y208139D01*
X1871535Y207349D01*
X1868374Y207349D01*
X1874178Y204188D02*
X1874281Y204314D01*
X1874381Y204442D01*
X1874477Y204573D01*
X1874571Y204706D01*
X1874662Y204842D01*
X1874749Y204979D01*
X1874833Y205118D01*
X1874913Y205260D01*
X1874990Y205403D01*
X1875064Y205548D01*
X1875134Y205695D01*
X1875200Y205844D01*
X1875263Y205994D01*
X1875322Y206145D01*
X1875378Y206298D01*
X1875430Y206453D01*
X1875478Y206608D01*
X1875523Y206765D01*
X1875563Y206922D01*
X1875600Y207081D01*
X1875633Y207240D01*
X1875662Y207400D01*
X1875688Y207561D01*
X1875709Y207722D01*
X1875727Y207884D01*
X1875740Y208046D01*
X1875750Y208209D01*
X1875756Y208371D01*
X1875758Y208534D01*
X1875756Y208697D01*
X1875750Y208859D01*
X1875740Y209022D01*
X1875727Y209184D01*
X1875709Y209346D01*
X1875688Y209507D01*
X1875662Y209668D01*
X1875633Y209828D01*
X1875600Y209987D01*
X1875563Y210146D01*
X1875523Y210303D01*
X1875478Y210460D01*
X1875430Y210615D01*
X1875378Y210770D01*
X1875322Y210923D01*
X1875263Y211074D01*
X1875200Y211224D01*
X1875134Y211373D01*
X1875064Y211520D01*
X1874990Y211665D01*
X1874913Y211808D01*
X1874833Y211950D01*
X1874749Y212089D01*
X1874662Y212227D01*
X1874571Y212362D01*
X1874477Y212495D01*
X1874381Y212626D01*
X1874281Y212754D01*
X1874178Y212880D01*
X1645158Y200660D02*
X1645158Y193548D01*
X1645158Y200660D02*
X1647134Y200660D01*
X1647220Y200658D01*
X1647306Y200652D01*
X1647392Y200643D01*
X1647477Y200630D01*
X1647562Y200613D01*
X1647645Y200593D01*
X1647728Y200569D01*
X1647810Y200541D01*
X1647890Y200510D01*
X1647969Y200475D01*
X1648046Y200437D01*
X1648122Y200395D01*
X1648196Y200351D01*
X1648267Y200303D01*
X1648337Y200252D01*
X1648404Y200198D01*
X1648469Y200141D01*
X1648531Y200081D01*
X1648591Y200019D01*
X1648648Y199954D01*
X1648702Y199887D01*
X1648753Y199817D01*
X1648801Y199746D01*
X1648845Y199672D01*
X1648887Y199596D01*
X1648925Y199519D01*
X1648960Y199440D01*
X1648991Y199360D01*
X1649019Y199278D01*
X1649043Y199195D01*
X1649063Y199112D01*
X1649080Y199027D01*
X1649093Y198942D01*
X1649102Y198856D01*
X1649108Y198770D01*
X1649110Y198684D01*
X1649109Y198684D02*
X1649109Y195524D01*
X1649110Y195524D02*
X1649108Y195438D01*
X1649102Y195352D01*
X1649093Y195266D01*
X1649080Y195181D01*
X1649063Y195096D01*
X1649043Y195013D01*
X1649019Y194930D01*
X1648991Y194848D01*
X1648960Y194768D01*
X1648925Y194689D01*
X1648887Y194612D01*
X1648845Y194536D01*
X1648801Y194462D01*
X1648753Y194391D01*
X1648702Y194321D01*
X1648648Y194254D01*
X1648591Y194189D01*
X1648531Y194127D01*
X1648469Y194067D01*
X1648404Y194010D01*
X1648337Y193956D01*
X1648267Y193905D01*
X1648196Y193857D01*
X1648122Y193813D01*
X1648046Y193771D01*
X1647969Y193733D01*
X1647890Y193698D01*
X1647810Y193667D01*
X1647728Y193639D01*
X1647645Y193615D01*
X1647562Y193595D01*
X1647477Y193578D01*
X1647392Y193565D01*
X1647306Y193556D01*
X1647220Y193550D01*
X1647134Y193548D01*
X1645158Y193548D01*
X1653368Y193548D02*
X1655343Y193548D01*
X1653368Y193548D02*
X1653302Y193550D01*
X1653235Y193555D01*
X1653170Y193565D01*
X1653104Y193578D01*
X1653040Y193594D01*
X1652977Y193614D01*
X1652915Y193638D01*
X1652854Y193665D01*
X1652795Y193696D01*
X1652738Y193730D01*
X1652682Y193767D01*
X1652629Y193807D01*
X1652578Y193849D01*
X1652530Y193895D01*
X1652484Y193943D01*
X1652442Y193994D01*
X1652402Y194047D01*
X1652365Y194103D01*
X1652331Y194160D01*
X1652300Y194219D01*
X1652273Y194280D01*
X1652249Y194342D01*
X1652229Y194405D01*
X1652213Y194469D01*
X1652200Y194535D01*
X1652190Y194600D01*
X1652185Y194667D01*
X1652183Y194733D01*
X1652182Y194733D02*
X1652182Y196709D01*
X1652183Y196709D02*
X1652185Y196788D01*
X1652191Y196866D01*
X1652201Y196944D01*
X1652214Y197022D01*
X1652232Y197099D01*
X1652253Y197175D01*
X1652278Y197249D01*
X1652307Y197323D01*
X1652339Y197395D01*
X1652375Y197465D01*
X1652415Y197533D01*
X1652458Y197599D01*
X1652504Y197663D01*
X1652553Y197725D01*
X1652605Y197784D01*
X1652660Y197840D01*
X1652718Y197894D01*
X1652778Y197944D01*
X1652841Y197992D01*
X1652906Y198036D01*
X1652973Y198077D01*
X1653042Y198115D01*
X1653113Y198149D01*
X1653186Y198180D01*
X1653260Y198207D01*
X1653335Y198230D01*
X1653411Y198249D01*
X1653489Y198265D01*
X1653567Y198277D01*
X1653645Y198285D01*
X1653724Y198289D01*
X1653802Y198289D01*
X1653881Y198285D01*
X1653959Y198277D01*
X1654037Y198265D01*
X1654115Y198249D01*
X1654191Y198230D01*
X1654266Y198207D01*
X1654340Y198180D01*
X1654413Y198149D01*
X1654484Y198115D01*
X1654553Y198077D01*
X1654620Y198036D01*
X1654685Y197992D01*
X1654748Y197944D01*
X1654808Y197894D01*
X1654866Y197840D01*
X1654921Y197784D01*
X1654973Y197725D01*
X1655022Y197663D01*
X1655068Y197599D01*
X1655111Y197533D01*
X1655151Y197465D01*
X1655187Y197395D01*
X1655219Y197323D01*
X1655248Y197249D01*
X1655273Y197175D01*
X1655294Y197099D01*
X1655312Y197022D01*
X1655325Y196944D01*
X1655335Y196866D01*
X1655341Y196788D01*
X1655343Y196709D01*
X1655343Y195919D01*
X1652182Y195919D01*
X1658719Y196314D02*
X1660694Y195524D01*
X1658719Y196314D02*
X1658661Y196339D01*
X1658605Y196368D01*
X1658550Y196400D01*
X1658498Y196436D01*
X1658448Y196475D01*
X1658401Y196516D01*
X1658356Y196561D01*
X1658314Y196608D01*
X1658275Y196657D01*
X1658239Y196709D01*
X1658206Y196763D01*
X1658177Y196819D01*
X1658151Y196877D01*
X1658129Y196936D01*
X1658111Y196997D01*
X1658096Y197058D01*
X1658085Y197120D01*
X1658078Y197183D01*
X1658075Y197246D01*
X1658076Y197309D01*
X1658081Y197372D01*
X1658089Y197435D01*
X1658102Y197497D01*
X1658118Y197558D01*
X1658138Y197618D01*
X1658161Y197676D01*
X1658188Y197733D01*
X1658219Y197788D01*
X1658253Y197842D01*
X1658290Y197893D01*
X1658330Y197941D01*
X1658373Y197988D01*
X1658419Y198031D01*
X1658468Y198071D01*
X1658519Y198109D01*
X1658572Y198143D01*
X1658627Y198174D01*
X1658684Y198201D01*
X1658742Y198225D01*
X1658802Y198245D01*
X1658863Y198261D01*
X1658925Y198274D01*
X1658988Y198283D01*
X1659050Y198288D01*
X1659114Y198289D01*
X1659114Y198290D02*
X1659245Y198286D01*
X1659376Y198278D01*
X1659506Y198267D01*
X1659636Y198252D01*
X1659766Y198232D01*
X1659895Y198210D01*
X1660023Y198183D01*
X1660151Y198153D01*
X1660277Y198119D01*
X1660403Y198081D01*
X1660527Y198040D01*
X1660650Y197995D01*
X1660772Y197946D01*
X1660892Y197894D01*
X1660694Y195523D02*
X1660752Y195498D01*
X1660808Y195469D01*
X1660863Y195437D01*
X1660915Y195401D01*
X1660965Y195362D01*
X1661012Y195321D01*
X1661057Y195276D01*
X1661099Y195229D01*
X1661138Y195180D01*
X1661174Y195128D01*
X1661207Y195074D01*
X1661236Y195018D01*
X1661262Y194960D01*
X1661284Y194901D01*
X1661302Y194840D01*
X1661317Y194779D01*
X1661328Y194717D01*
X1661335Y194654D01*
X1661338Y194591D01*
X1661337Y194528D01*
X1661332Y194465D01*
X1661324Y194402D01*
X1661311Y194340D01*
X1661295Y194279D01*
X1661275Y194219D01*
X1661252Y194161D01*
X1661225Y194104D01*
X1661194Y194049D01*
X1661160Y193995D01*
X1661123Y193944D01*
X1661083Y193896D01*
X1661040Y193849D01*
X1660994Y193806D01*
X1660945Y193766D01*
X1660894Y193728D01*
X1660841Y193694D01*
X1660786Y193663D01*
X1660729Y193636D01*
X1660671Y193612D01*
X1660611Y193592D01*
X1660550Y193576D01*
X1660488Y193563D01*
X1660425Y193554D01*
X1660363Y193549D01*
X1660299Y193548D01*
X1660141Y193552D01*
X1659983Y193560D01*
X1659825Y193571D01*
X1659667Y193587D01*
X1659509Y193606D01*
X1659353Y193629D01*
X1659196Y193655D01*
X1659041Y193685D01*
X1658886Y193719D01*
X1658732Y193757D01*
X1658579Y193798D01*
X1658427Y193843D01*
X1658276Y193891D01*
X1658126Y193943D01*
X1664050Y193548D02*
X1664050Y198289D01*
X1663852Y200265D02*
X1663852Y200660D01*
X1664247Y200660D01*
X1664247Y200265D01*
X1663852Y200265D01*
X1667966Y193548D02*
X1669941Y193548D01*
X1667966Y193548D02*
X1667900Y193550D01*
X1667833Y193555D01*
X1667768Y193565D01*
X1667702Y193578D01*
X1667638Y193594D01*
X1667575Y193614D01*
X1667513Y193638D01*
X1667452Y193665D01*
X1667393Y193696D01*
X1667336Y193730D01*
X1667280Y193767D01*
X1667227Y193807D01*
X1667176Y193849D01*
X1667128Y193895D01*
X1667082Y193943D01*
X1667040Y193994D01*
X1667000Y194047D01*
X1666963Y194103D01*
X1666929Y194160D01*
X1666898Y194219D01*
X1666871Y194280D01*
X1666847Y194342D01*
X1666827Y194405D01*
X1666811Y194469D01*
X1666798Y194535D01*
X1666788Y194600D01*
X1666783Y194667D01*
X1666781Y194733D01*
X1666780Y194733D02*
X1666780Y197104D01*
X1666781Y197104D02*
X1666783Y197170D01*
X1666788Y197237D01*
X1666798Y197302D01*
X1666811Y197368D01*
X1666827Y197432D01*
X1666847Y197495D01*
X1666871Y197557D01*
X1666898Y197618D01*
X1666929Y197677D01*
X1666963Y197734D01*
X1667000Y197790D01*
X1667040Y197843D01*
X1667082Y197894D01*
X1667128Y197942D01*
X1667176Y197988D01*
X1667227Y198030D01*
X1667280Y198070D01*
X1667336Y198107D01*
X1667393Y198141D01*
X1667452Y198172D01*
X1667513Y198199D01*
X1667575Y198223D01*
X1667638Y198243D01*
X1667702Y198259D01*
X1667768Y198272D01*
X1667833Y198282D01*
X1667900Y198287D01*
X1667966Y198289D01*
X1669941Y198289D01*
X1669941Y192363D01*
X1669939Y192297D01*
X1669934Y192230D01*
X1669924Y192165D01*
X1669911Y192099D01*
X1669895Y192035D01*
X1669875Y191972D01*
X1669851Y191910D01*
X1669824Y191849D01*
X1669793Y191790D01*
X1669759Y191733D01*
X1669722Y191677D01*
X1669682Y191624D01*
X1669640Y191573D01*
X1669594Y191525D01*
X1669546Y191479D01*
X1669495Y191437D01*
X1669442Y191397D01*
X1669386Y191360D01*
X1669329Y191326D01*
X1669270Y191295D01*
X1669210Y191268D01*
X1669147Y191245D01*
X1669084Y191224D01*
X1669020Y191208D01*
X1668955Y191195D01*
X1668889Y191185D01*
X1668822Y191180D01*
X1668756Y191178D01*
X1668756Y191177D02*
X1667175Y191177D01*
X1673214Y193548D02*
X1673214Y198289D01*
X1675189Y198289D01*
X1675255Y198287D01*
X1675322Y198282D01*
X1675387Y198272D01*
X1675453Y198259D01*
X1675517Y198243D01*
X1675580Y198223D01*
X1675642Y198199D01*
X1675703Y198172D01*
X1675762Y198141D01*
X1675819Y198107D01*
X1675875Y198070D01*
X1675928Y198030D01*
X1675979Y197988D01*
X1676027Y197942D01*
X1676073Y197894D01*
X1676115Y197843D01*
X1676155Y197790D01*
X1676192Y197734D01*
X1676226Y197677D01*
X1676257Y197618D01*
X1676284Y197558D01*
X1676307Y197495D01*
X1676328Y197432D01*
X1676344Y197368D01*
X1676357Y197303D01*
X1676367Y197237D01*
X1676372Y197170D01*
X1676374Y197104D01*
X1676374Y193548D01*
X1680571Y193548D02*
X1682547Y193548D01*
X1680571Y193548D02*
X1680505Y193550D01*
X1680438Y193555D01*
X1680373Y193565D01*
X1680307Y193578D01*
X1680243Y193594D01*
X1680180Y193614D01*
X1680118Y193638D01*
X1680057Y193665D01*
X1679998Y193696D01*
X1679941Y193730D01*
X1679885Y193767D01*
X1679832Y193807D01*
X1679781Y193849D01*
X1679733Y193895D01*
X1679687Y193943D01*
X1679645Y193994D01*
X1679605Y194047D01*
X1679568Y194103D01*
X1679534Y194160D01*
X1679503Y194219D01*
X1679476Y194280D01*
X1679452Y194342D01*
X1679432Y194405D01*
X1679416Y194469D01*
X1679403Y194535D01*
X1679393Y194600D01*
X1679388Y194667D01*
X1679386Y194733D01*
X1679386Y196709D01*
X1679388Y196788D01*
X1679394Y196866D01*
X1679404Y196944D01*
X1679417Y197022D01*
X1679435Y197099D01*
X1679456Y197175D01*
X1679481Y197249D01*
X1679510Y197323D01*
X1679542Y197395D01*
X1679578Y197465D01*
X1679618Y197533D01*
X1679661Y197599D01*
X1679707Y197663D01*
X1679756Y197725D01*
X1679808Y197784D01*
X1679863Y197840D01*
X1679921Y197894D01*
X1679981Y197944D01*
X1680044Y197992D01*
X1680109Y198036D01*
X1680176Y198077D01*
X1680245Y198115D01*
X1680316Y198149D01*
X1680389Y198180D01*
X1680463Y198207D01*
X1680538Y198230D01*
X1680614Y198249D01*
X1680692Y198265D01*
X1680770Y198277D01*
X1680848Y198285D01*
X1680927Y198289D01*
X1681005Y198289D01*
X1681084Y198285D01*
X1681162Y198277D01*
X1681240Y198265D01*
X1681318Y198249D01*
X1681394Y198230D01*
X1681469Y198207D01*
X1681543Y198180D01*
X1681616Y198149D01*
X1681687Y198115D01*
X1681756Y198077D01*
X1681823Y198036D01*
X1681888Y197992D01*
X1681951Y197944D01*
X1682011Y197894D01*
X1682069Y197840D01*
X1682124Y197784D01*
X1682176Y197725D01*
X1682225Y197663D01*
X1682271Y197599D01*
X1682314Y197533D01*
X1682354Y197465D01*
X1682390Y197395D01*
X1682422Y197323D01*
X1682451Y197249D01*
X1682476Y197175D01*
X1682497Y197099D01*
X1682515Y197022D01*
X1682528Y196944D01*
X1682538Y196866D01*
X1682544Y196788D01*
X1682546Y196709D01*
X1682547Y196709D02*
X1682547Y195919D01*
X1679386Y195919D01*
X1688458Y193548D02*
X1688458Y200660D01*
X1688458Y193548D02*
X1686482Y193548D01*
X1686416Y193550D01*
X1686349Y193555D01*
X1686284Y193565D01*
X1686218Y193578D01*
X1686154Y193594D01*
X1686091Y193614D01*
X1686029Y193638D01*
X1685968Y193665D01*
X1685909Y193696D01*
X1685852Y193730D01*
X1685796Y193767D01*
X1685743Y193807D01*
X1685692Y193849D01*
X1685644Y193895D01*
X1685598Y193943D01*
X1685556Y193994D01*
X1685516Y194047D01*
X1685479Y194103D01*
X1685445Y194160D01*
X1685414Y194219D01*
X1685387Y194280D01*
X1685363Y194342D01*
X1685343Y194405D01*
X1685327Y194469D01*
X1685314Y194535D01*
X1685304Y194600D01*
X1685299Y194667D01*
X1685297Y194733D01*
X1685297Y197104D01*
X1685299Y197170D01*
X1685304Y197237D01*
X1685314Y197302D01*
X1685327Y197368D01*
X1685343Y197432D01*
X1685363Y197495D01*
X1685387Y197557D01*
X1685414Y197618D01*
X1685445Y197677D01*
X1685479Y197734D01*
X1685516Y197790D01*
X1685556Y197843D01*
X1685598Y197894D01*
X1685644Y197942D01*
X1685692Y197988D01*
X1685743Y198030D01*
X1685796Y198070D01*
X1685852Y198107D01*
X1685909Y198141D01*
X1685968Y198172D01*
X1686029Y198199D01*
X1686091Y198223D01*
X1686154Y198243D01*
X1686218Y198259D01*
X1686284Y198272D01*
X1686349Y198282D01*
X1686416Y198287D01*
X1686482Y198289D01*
X1688458Y198289D01*
X1695543Y197499D02*
X1697518Y197499D01*
X1697518Y197500D02*
X1697605Y197498D01*
X1697693Y197492D01*
X1697780Y197483D01*
X1697866Y197469D01*
X1697952Y197452D01*
X1698036Y197431D01*
X1698120Y197406D01*
X1698203Y197377D01*
X1698284Y197345D01*
X1698364Y197310D01*
X1698442Y197271D01*
X1698519Y197228D01*
X1698593Y197182D01*
X1698665Y197133D01*
X1698735Y197081D01*
X1698803Y197025D01*
X1698868Y196967D01*
X1698931Y196906D01*
X1698990Y196842D01*
X1699047Y196775D01*
X1699101Y196707D01*
X1699152Y196635D01*
X1699199Y196562D01*
X1699244Y196487D01*
X1699285Y196409D01*
X1699322Y196330D01*
X1699356Y196250D01*
X1699386Y196168D01*
X1699413Y196085D01*
X1699436Y196000D01*
X1699455Y195915D01*
X1699470Y195829D01*
X1699482Y195742D01*
X1699490Y195655D01*
X1699494Y195568D01*
X1699494Y195480D01*
X1699490Y195393D01*
X1699482Y195306D01*
X1699470Y195219D01*
X1699455Y195133D01*
X1699436Y195048D01*
X1699413Y194963D01*
X1699386Y194880D01*
X1699356Y194798D01*
X1699322Y194718D01*
X1699285Y194639D01*
X1699244Y194561D01*
X1699199Y194486D01*
X1699152Y194413D01*
X1699101Y194341D01*
X1699047Y194273D01*
X1698990Y194206D01*
X1698931Y194142D01*
X1698868Y194081D01*
X1698803Y194023D01*
X1698735Y193967D01*
X1698665Y193915D01*
X1698593Y193866D01*
X1698519Y193820D01*
X1698442Y193777D01*
X1698364Y193738D01*
X1698284Y193703D01*
X1698203Y193671D01*
X1698120Y193642D01*
X1698036Y193617D01*
X1697952Y193596D01*
X1697866Y193579D01*
X1697780Y193565D01*
X1697693Y193556D01*
X1697605Y193550D01*
X1697518Y193548D01*
X1695543Y193548D01*
X1695543Y200660D01*
X1697518Y200660D01*
X1697597Y200658D01*
X1697675Y200652D01*
X1697753Y200642D01*
X1697831Y200629D01*
X1697908Y200611D01*
X1697984Y200590D01*
X1698058Y200565D01*
X1698132Y200536D01*
X1698204Y200504D01*
X1698274Y200468D01*
X1698342Y200428D01*
X1698408Y200385D01*
X1698472Y200339D01*
X1698534Y200290D01*
X1698593Y200238D01*
X1698649Y200183D01*
X1698703Y200125D01*
X1698753Y200065D01*
X1698801Y200002D01*
X1698845Y199937D01*
X1698886Y199870D01*
X1698924Y199801D01*
X1698958Y199730D01*
X1698989Y199657D01*
X1699016Y199583D01*
X1699039Y199508D01*
X1699058Y199432D01*
X1699074Y199354D01*
X1699086Y199276D01*
X1699094Y199198D01*
X1699098Y199119D01*
X1699098Y199041D01*
X1699094Y198962D01*
X1699086Y198884D01*
X1699074Y198806D01*
X1699058Y198728D01*
X1699039Y198652D01*
X1699016Y198577D01*
X1698989Y198503D01*
X1698958Y198430D01*
X1698924Y198359D01*
X1698886Y198290D01*
X1698845Y198223D01*
X1698801Y198158D01*
X1698753Y198095D01*
X1698703Y198035D01*
X1698649Y197977D01*
X1698593Y197922D01*
X1698534Y197870D01*
X1698472Y197821D01*
X1698408Y197775D01*
X1698342Y197732D01*
X1698274Y197692D01*
X1698204Y197656D01*
X1698132Y197624D01*
X1698058Y197595D01*
X1697984Y197570D01*
X1697908Y197549D01*
X1697831Y197531D01*
X1697753Y197518D01*
X1697675Y197508D01*
X1697597Y197502D01*
X1697518Y197500D01*
X1701788Y191177D02*
X1702579Y191177D01*
X1704949Y198289D01*
X1701788Y198289D02*
X1703369Y193548D01*
X1707515Y194141D02*
X1707515Y194536D01*
X1707910Y194536D01*
X1707910Y194141D01*
X1707515Y194141D01*
X1707515Y197302D02*
X1707515Y197697D01*
X1707910Y197697D01*
X1707910Y197302D01*
X1707515Y197302D01*
X1716114Y195128D02*
X1716114Y200660D01*
X1716114Y195128D02*
X1716112Y195050D01*
X1716106Y194973D01*
X1716097Y194896D01*
X1716084Y194820D01*
X1716067Y194744D01*
X1716046Y194669D01*
X1716022Y194596D01*
X1715994Y194523D01*
X1715962Y194452D01*
X1715927Y194383D01*
X1715889Y194316D01*
X1715848Y194250D01*
X1715803Y194187D01*
X1715755Y194126D01*
X1715705Y194067D01*
X1715651Y194011D01*
X1715595Y193957D01*
X1715536Y193907D01*
X1715475Y193859D01*
X1715412Y193814D01*
X1715346Y193773D01*
X1715279Y193735D01*
X1715210Y193700D01*
X1715139Y193668D01*
X1715066Y193640D01*
X1714993Y193616D01*
X1714918Y193595D01*
X1714842Y193578D01*
X1714766Y193565D01*
X1714689Y193556D01*
X1714612Y193550D01*
X1714534Y193548D01*
X1713743Y193548D01*
X1719162Y195128D02*
X1719162Y196709D01*
X1719164Y196788D01*
X1719170Y196866D01*
X1719180Y196944D01*
X1719193Y197022D01*
X1719211Y197099D01*
X1719232Y197175D01*
X1719257Y197249D01*
X1719286Y197323D01*
X1719318Y197395D01*
X1719354Y197465D01*
X1719394Y197533D01*
X1719437Y197599D01*
X1719483Y197663D01*
X1719532Y197725D01*
X1719584Y197784D01*
X1719639Y197840D01*
X1719697Y197894D01*
X1719757Y197944D01*
X1719820Y197992D01*
X1719885Y198036D01*
X1719952Y198077D01*
X1720021Y198115D01*
X1720092Y198149D01*
X1720165Y198180D01*
X1720239Y198207D01*
X1720314Y198230D01*
X1720390Y198249D01*
X1720468Y198265D01*
X1720546Y198277D01*
X1720624Y198285D01*
X1720703Y198289D01*
X1720781Y198289D01*
X1720860Y198285D01*
X1720938Y198277D01*
X1721016Y198265D01*
X1721094Y198249D01*
X1721170Y198230D01*
X1721245Y198207D01*
X1721319Y198180D01*
X1721392Y198149D01*
X1721463Y198115D01*
X1721532Y198077D01*
X1721599Y198036D01*
X1721664Y197992D01*
X1721727Y197944D01*
X1721787Y197894D01*
X1721845Y197840D01*
X1721900Y197784D01*
X1721952Y197725D01*
X1722001Y197663D01*
X1722047Y197599D01*
X1722090Y197533D01*
X1722130Y197465D01*
X1722166Y197395D01*
X1722198Y197323D01*
X1722227Y197249D01*
X1722252Y197175D01*
X1722273Y197099D01*
X1722291Y197022D01*
X1722304Y196944D01*
X1722314Y196866D01*
X1722320Y196788D01*
X1722322Y196709D01*
X1722323Y196709D02*
X1722323Y195128D01*
X1722322Y195128D02*
X1722320Y195049D01*
X1722314Y194971D01*
X1722304Y194893D01*
X1722291Y194815D01*
X1722273Y194738D01*
X1722252Y194662D01*
X1722227Y194588D01*
X1722198Y194514D01*
X1722166Y194442D01*
X1722130Y194372D01*
X1722090Y194304D01*
X1722047Y194238D01*
X1722001Y194174D01*
X1721952Y194112D01*
X1721900Y194053D01*
X1721845Y193997D01*
X1721787Y193943D01*
X1721727Y193893D01*
X1721664Y193845D01*
X1721599Y193801D01*
X1721532Y193760D01*
X1721463Y193722D01*
X1721392Y193688D01*
X1721319Y193657D01*
X1721245Y193630D01*
X1721170Y193607D01*
X1721094Y193588D01*
X1721016Y193572D01*
X1720938Y193560D01*
X1720860Y193552D01*
X1720781Y193548D01*
X1720703Y193548D01*
X1720624Y193552D01*
X1720546Y193560D01*
X1720468Y193572D01*
X1720390Y193588D01*
X1720314Y193607D01*
X1720239Y193630D01*
X1720165Y193657D01*
X1720092Y193688D01*
X1720021Y193722D01*
X1719952Y193760D01*
X1719885Y193801D01*
X1719820Y193845D01*
X1719757Y193893D01*
X1719697Y193943D01*
X1719639Y193997D01*
X1719584Y194053D01*
X1719532Y194112D01*
X1719483Y194174D01*
X1719437Y194238D01*
X1719394Y194304D01*
X1719354Y194372D01*
X1719318Y194442D01*
X1719286Y194514D01*
X1719257Y194588D01*
X1719232Y194662D01*
X1719211Y194738D01*
X1719193Y194815D01*
X1719180Y194893D01*
X1719170Y194971D01*
X1719164Y195049D01*
X1719162Y195128D01*
X1725698Y196314D02*
X1727674Y195524D01*
X1725698Y196314D02*
X1725640Y196339D01*
X1725584Y196368D01*
X1725529Y196400D01*
X1725477Y196436D01*
X1725427Y196475D01*
X1725380Y196516D01*
X1725335Y196561D01*
X1725293Y196608D01*
X1725254Y196657D01*
X1725218Y196709D01*
X1725185Y196763D01*
X1725156Y196819D01*
X1725130Y196877D01*
X1725108Y196936D01*
X1725090Y196997D01*
X1725075Y197058D01*
X1725064Y197120D01*
X1725057Y197183D01*
X1725054Y197246D01*
X1725055Y197309D01*
X1725060Y197372D01*
X1725068Y197435D01*
X1725081Y197497D01*
X1725097Y197558D01*
X1725117Y197618D01*
X1725140Y197676D01*
X1725167Y197733D01*
X1725198Y197788D01*
X1725232Y197842D01*
X1725269Y197893D01*
X1725309Y197941D01*
X1725352Y197988D01*
X1725398Y198031D01*
X1725447Y198071D01*
X1725498Y198109D01*
X1725551Y198143D01*
X1725606Y198174D01*
X1725663Y198201D01*
X1725721Y198225D01*
X1725781Y198245D01*
X1725842Y198261D01*
X1725904Y198274D01*
X1725967Y198283D01*
X1726029Y198288D01*
X1726093Y198289D01*
X1726093Y198290D02*
X1726224Y198286D01*
X1726355Y198278D01*
X1726485Y198267D01*
X1726615Y198252D01*
X1726745Y198232D01*
X1726874Y198210D01*
X1727002Y198183D01*
X1727130Y198153D01*
X1727256Y198119D01*
X1727382Y198081D01*
X1727506Y198040D01*
X1727629Y197995D01*
X1727751Y197946D01*
X1727871Y197894D01*
X1727673Y195523D02*
X1727731Y195498D01*
X1727787Y195469D01*
X1727842Y195437D01*
X1727894Y195401D01*
X1727944Y195362D01*
X1727991Y195321D01*
X1728036Y195276D01*
X1728078Y195229D01*
X1728117Y195180D01*
X1728153Y195128D01*
X1728186Y195074D01*
X1728215Y195018D01*
X1728241Y194960D01*
X1728263Y194901D01*
X1728281Y194840D01*
X1728296Y194779D01*
X1728307Y194717D01*
X1728314Y194654D01*
X1728317Y194591D01*
X1728316Y194528D01*
X1728311Y194465D01*
X1728303Y194402D01*
X1728290Y194340D01*
X1728274Y194279D01*
X1728254Y194219D01*
X1728231Y194161D01*
X1728204Y194104D01*
X1728173Y194049D01*
X1728139Y193995D01*
X1728102Y193944D01*
X1728062Y193896D01*
X1728019Y193849D01*
X1727973Y193806D01*
X1727924Y193766D01*
X1727873Y193728D01*
X1727820Y193694D01*
X1727765Y193663D01*
X1727708Y193636D01*
X1727650Y193612D01*
X1727590Y193592D01*
X1727529Y193576D01*
X1727467Y193563D01*
X1727404Y193554D01*
X1727342Y193549D01*
X1727278Y193548D01*
X1727120Y193552D01*
X1726962Y193560D01*
X1726804Y193571D01*
X1726646Y193587D01*
X1726488Y193606D01*
X1726332Y193629D01*
X1726175Y193655D01*
X1726020Y193685D01*
X1725865Y193719D01*
X1725711Y193757D01*
X1725558Y193798D01*
X1725406Y193843D01*
X1725255Y193891D01*
X1725105Y193943D01*
X1731277Y193548D02*
X1731277Y200660D01*
X1731277Y198289D02*
X1733253Y198289D01*
X1733319Y198287D01*
X1733386Y198282D01*
X1733451Y198272D01*
X1733517Y198259D01*
X1733581Y198243D01*
X1733644Y198223D01*
X1733706Y198199D01*
X1733767Y198172D01*
X1733826Y198141D01*
X1733883Y198107D01*
X1733939Y198070D01*
X1733992Y198030D01*
X1734043Y197988D01*
X1734091Y197942D01*
X1734137Y197894D01*
X1734179Y197843D01*
X1734219Y197790D01*
X1734256Y197734D01*
X1734290Y197677D01*
X1734321Y197618D01*
X1734348Y197558D01*
X1734371Y197495D01*
X1734392Y197432D01*
X1734408Y197368D01*
X1734421Y197303D01*
X1734431Y197237D01*
X1734436Y197170D01*
X1734438Y197104D01*
X1734438Y193548D01*
X1737678Y194733D02*
X1737678Y198289D01*
X1737679Y194733D02*
X1737681Y194667D01*
X1737686Y194600D01*
X1737696Y194535D01*
X1737709Y194469D01*
X1737725Y194405D01*
X1737745Y194342D01*
X1737769Y194280D01*
X1737796Y194219D01*
X1737827Y194160D01*
X1737861Y194103D01*
X1737898Y194047D01*
X1737938Y193994D01*
X1737980Y193943D01*
X1738026Y193895D01*
X1738074Y193849D01*
X1738125Y193807D01*
X1738178Y193767D01*
X1738234Y193730D01*
X1738291Y193696D01*
X1738350Y193665D01*
X1738411Y193638D01*
X1738473Y193614D01*
X1738536Y193594D01*
X1738600Y193578D01*
X1738666Y193565D01*
X1738731Y193555D01*
X1738798Y193550D01*
X1738864Y193548D01*
X1740839Y193548D01*
X1740839Y198289D01*
X1745201Y196314D02*
X1746979Y196314D01*
X1745201Y196314D02*
X1745127Y196312D01*
X1745054Y196306D01*
X1744981Y196296D01*
X1744909Y196283D01*
X1744837Y196265D01*
X1744767Y196244D01*
X1744697Y196219D01*
X1744630Y196190D01*
X1744563Y196158D01*
X1744499Y196123D01*
X1744436Y196083D01*
X1744376Y196041D01*
X1744318Y195996D01*
X1744263Y195947D01*
X1744210Y195896D01*
X1744160Y195842D01*
X1744113Y195785D01*
X1744069Y195726D01*
X1744029Y195665D01*
X1743991Y195601D01*
X1743957Y195536D01*
X1743927Y195469D01*
X1743900Y195400D01*
X1743877Y195330D01*
X1743858Y195259D01*
X1743842Y195187D01*
X1743830Y195115D01*
X1743822Y195041D01*
X1743818Y194968D01*
X1743818Y194894D01*
X1743822Y194821D01*
X1743830Y194747D01*
X1743842Y194675D01*
X1743858Y194603D01*
X1743877Y194532D01*
X1743900Y194462D01*
X1743927Y194393D01*
X1743957Y194326D01*
X1743991Y194261D01*
X1744029Y194197D01*
X1744069Y194136D01*
X1744113Y194077D01*
X1744160Y194020D01*
X1744210Y193966D01*
X1744263Y193915D01*
X1744318Y193866D01*
X1744376Y193821D01*
X1744436Y193779D01*
X1744499Y193739D01*
X1744563Y193704D01*
X1744630Y193672D01*
X1744697Y193643D01*
X1744767Y193618D01*
X1744837Y193597D01*
X1744909Y193579D01*
X1744981Y193566D01*
X1745054Y193556D01*
X1745127Y193550D01*
X1745201Y193548D01*
X1746979Y193548D01*
X1746979Y197104D01*
X1746977Y197170D01*
X1746972Y197237D01*
X1746962Y197302D01*
X1746949Y197368D01*
X1746933Y197432D01*
X1746913Y197495D01*
X1746889Y197557D01*
X1746862Y197618D01*
X1746831Y197677D01*
X1746797Y197734D01*
X1746760Y197790D01*
X1746720Y197843D01*
X1746678Y197894D01*
X1746632Y197942D01*
X1746584Y197988D01*
X1746533Y198030D01*
X1746480Y198070D01*
X1746424Y198107D01*
X1746367Y198141D01*
X1746308Y198172D01*
X1746247Y198199D01*
X1746185Y198223D01*
X1746122Y198243D01*
X1746058Y198259D01*
X1745992Y198272D01*
X1745927Y198282D01*
X1745860Y198287D01*
X1745794Y198289D01*
X1744213Y198289D01*
X1754064Y197499D02*
X1756039Y197499D01*
X1756039Y197500D02*
X1756126Y197498D01*
X1756214Y197492D01*
X1756301Y197483D01*
X1756387Y197469D01*
X1756473Y197452D01*
X1756557Y197431D01*
X1756641Y197406D01*
X1756724Y197377D01*
X1756805Y197345D01*
X1756885Y197310D01*
X1756963Y197271D01*
X1757040Y197228D01*
X1757114Y197182D01*
X1757186Y197133D01*
X1757256Y197081D01*
X1757324Y197025D01*
X1757389Y196967D01*
X1757452Y196906D01*
X1757511Y196842D01*
X1757568Y196775D01*
X1757622Y196707D01*
X1757673Y196635D01*
X1757720Y196562D01*
X1757765Y196487D01*
X1757806Y196409D01*
X1757843Y196330D01*
X1757877Y196250D01*
X1757907Y196168D01*
X1757934Y196085D01*
X1757957Y196000D01*
X1757976Y195915D01*
X1757991Y195829D01*
X1758003Y195742D01*
X1758011Y195655D01*
X1758015Y195568D01*
X1758015Y195480D01*
X1758011Y195393D01*
X1758003Y195306D01*
X1757991Y195219D01*
X1757976Y195133D01*
X1757957Y195048D01*
X1757934Y194963D01*
X1757907Y194880D01*
X1757877Y194798D01*
X1757843Y194718D01*
X1757806Y194639D01*
X1757765Y194561D01*
X1757720Y194486D01*
X1757673Y194413D01*
X1757622Y194341D01*
X1757568Y194273D01*
X1757511Y194206D01*
X1757452Y194142D01*
X1757389Y194081D01*
X1757324Y194023D01*
X1757256Y193967D01*
X1757186Y193915D01*
X1757114Y193866D01*
X1757040Y193820D01*
X1756963Y193777D01*
X1756885Y193738D01*
X1756805Y193703D01*
X1756724Y193671D01*
X1756641Y193642D01*
X1756557Y193617D01*
X1756473Y193596D01*
X1756387Y193579D01*
X1756301Y193565D01*
X1756214Y193556D01*
X1756126Y193550D01*
X1756039Y193548D01*
X1754064Y193548D01*
X1754064Y200660D01*
X1756039Y200660D01*
X1756118Y200658D01*
X1756196Y200652D01*
X1756274Y200642D01*
X1756352Y200629D01*
X1756429Y200611D01*
X1756505Y200590D01*
X1756579Y200565D01*
X1756653Y200536D01*
X1756725Y200504D01*
X1756795Y200468D01*
X1756863Y200428D01*
X1756929Y200385D01*
X1756993Y200339D01*
X1757055Y200290D01*
X1757114Y200238D01*
X1757170Y200183D01*
X1757224Y200125D01*
X1757274Y200065D01*
X1757322Y200002D01*
X1757366Y199937D01*
X1757407Y199870D01*
X1757445Y199801D01*
X1757479Y199730D01*
X1757510Y199657D01*
X1757537Y199583D01*
X1757560Y199508D01*
X1757579Y199432D01*
X1757595Y199354D01*
X1757607Y199276D01*
X1757615Y199198D01*
X1757619Y199119D01*
X1757619Y199041D01*
X1757615Y198962D01*
X1757607Y198884D01*
X1757595Y198806D01*
X1757579Y198728D01*
X1757560Y198652D01*
X1757537Y198577D01*
X1757510Y198503D01*
X1757479Y198430D01*
X1757445Y198359D01*
X1757407Y198290D01*
X1757366Y198223D01*
X1757322Y198158D01*
X1757274Y198095D01*
X1757224Y198035D01*
X1757170Y197977D01*
X1757114Y197922D01*
X1757055Y197870D01*
X1756993Y197821D01*
X1756929Y197775D01*
X1756863Y197732D01*
X1756795Y197692D01*
X1756725Y197656D01*
X1756653Y197624D01*
X1756579Y197595D01*
X1756505Y197570D01*
X1756429Y197549D01*
X1756352Y197531D01*
X1756274Y197518D01*
X1756196Y197508D01*
X1756118Y197502D01*
X1756039Y197500D01*
X1760803Y198289D02*
X1760803Y193548D01*
X1760803Y198289D02*
X1763174Y198289D01*
X1763174Y197499D01*
X1766524Y193548D02*
X1768500Y193548D01*
X1766524Y193548D02*
X1766458Y193550D01*
X1766391Y193555D01*
X1766326Y193565D01*
X1766260Y193578D01*
X1766196Y193594D01*
X1766133Y193614D01*
X1766071Y193638D01*
X1766010Y193665D01*
X1765951Y193696D01*
X1765894Y193730D01*
X1765838Y193767D01*
X1765785Y193807D01*
X1765734Y193849D01*
X1765686Y193895D01*
X1765640Y193943D01*
X1765598Y193994D01*
X1765558Y194047D01*
X1765521Y194103D01*
X1765487Y194160D01*
X1765456Y194219D01*
X1765429Y194280D01*
X1765405Y194342D01*
X1765385Y194405D01*
X1765369Y194469D01*
X1765356Y194535D01*
X1765346Y194600D01*
X1765341Y194667D01*
X1765339Y194733D01*
X1765339Y196709D01*
X1765341Y196788D01*
X1765347Y196866D01*
X1765357Y196944D01*
X1765370Y197022D01*
X1765388Y197099D01*
X1765409Y197175D01*
X1765434Y197249D01*
X1765463Y197323D01*
X1765495Y197395D01*
X1765531Y197465D01*
X1765571Y197533D01*
X1765614Y197599D01*
X1765660Y197663D01*
X1765709Y197725D01*
X1765761Y197784D01*
X1765816Y197840D01*
X1765874Y197894D01*
X1765934Y197944D01*
X1765997Y197992D01*
X1766062Y198036D01*
X1766129Y198077D01*
X1766198Y198115D01*
X1766269Y198149D01*
X1766342Y198180D01*
X1766416Y198207D01*
X1766491Y198230D01*
X1766567Y198249D01*
X1766645Y198265D01*
X1766723Y198277D01*
X1766801Y198285D01*
X1766880Y198289D01*
X1766958Y198289D01*
X1767037Y198285D01*
X1767115Y198277D01*
X1767193Y198265D01*
X1767271Y198249D01*
X1767347Y198230D01*
X1767422Y198207D01*
X1767496Y198180D01*
X1767569Y198149D01*
X1767640Y198115D01*
X1767709Y198077D01*
X1767776Y198036D01*
X1767841Y197992D01*
X1767904Y197944D01*
X1767964Y197894D01*
X1768022Y197840D01*
X1768077Y197784D01*
X1768129Y197725D01*
X1768178Y197663D01*
X1768224Y197599D01*
X1768267Y197533D01*
X1768307Y197465D01*
X1768343Y197395D01*
X1768375Y197323D01*
X1768404Y197249D01*
X1768429Y197175D01*
X1768450Y197099D01*
X1768468Y197022D01*
X1768481Y196944D01*
X1768491Y196866D01*
X1768497Y196788D01*
X1768499Y196709D01*
X1768500Y196709D02*
X1768500Y195919D01*
X1765339Y195919D01*
X1771178Y198289D02*
X1772363Y193548D01*
X1773548Y196709D01*
X1774734Y193548D01*
X1775919Y198289D01*
X1779190Y196314D02*
X1781166Y195524D01*
X1779190Y196314D02*
X1779132Y196339D01*
X1779076Y196368D01*
X1779021Y196400D01*
X1778969Y196436D01*
X1778919Y196475D01*
X1778872Y196516D01*
X1778827Y196561D01*
X1778785Y196608D01*
X1778746Y196657D01*
X1778710Y196709D01*
X1778677Y196763D01*
X1778648Y196819D01*
X1778622Y196877D01*
X1778600Y196936D01*
X1778582Y196997D01*
X1778567Y197058D01*
X1778556Y197120D01*
X1778549Y197183D01*
X1778546Y197246D01*
X1778547Y197309D01*
X1778552Y197372D01*
X1778560Y197435D01*
X1778573Y197497D01*
X1778589Y197558D01*
X1778609Y197618D01*
X1778632Y197676D01*
X1778659Y197733D01*
X1778690Y197788D01*
X1778724Y197842D01*
X1778761Y197893D01*
X1778801Y197941D01*
X1778844Y197988D01*
X1778890Y198031D01*
X1778939Y198071D01*
X1778990Y198109D01*
X1779043Y198143D01*
X1779098Y198174D01*
X1779155Y198201D01*
X1779213Y198225D01*
X1779273Y198245D01*
X1779334Y198261D01*
X1779396Y198274D01*
X1779459Y198283D01*
X1779521Y198288D01*
X1779585Y198289D01*
X1779585Y198290D02*
X1779716Y198286D01*
X1779847Y198278D01*
X1779977Y198267D01*
X1780107Y198252D01*
X1780237Y198232D01*
X1780366Y198210D01*
X1780494Y198183D01*
X1780622Y198153D01*
X1780748Y198119D01*
X1780874Y198081D01*
X1780998Y198040D01*
X1781121Y197995D01*
X1781243Y197946D01*
X1781363Y197894D01*
X1781165Y195523D02*
X1781223Y195498D01*
X1781279Y195469D01*
X1781334Y195437D01*
X1781386Y195401D01*
X1781436Y195362D01*
X1781483Y195321D01*
X1781528Y195276D01*
X1781570Y195229D01*
X1781609Y195180D01*
X1781645Y195128D01*
X1781678Y195074D01*
X1781707Y195018D01*
X1781733Y194960D01*
X1781755Y194901D01*
X1781773Y194840D01*
X1781788Y194779D01*
X1781799Y194717D01*
X1781806Y194654D01*
X1781809Y194591D01*
X1781808Y194528D01*
X1781803Y194465D01*
X1781795Y194402D01*
X1781782Y194340D01*
X1781766Y194279D01*
X1781746Y194219D01*
X1781723Y194161D01*
X1781696Y194104D01*
X1781665Y194049D01*
X1781631Y193995D01*
X1781594Y193944D01*
X1781554Y193896D01*
X1781511Y193849D01*
X1781465Y193806D01*
X1781416Y193766D01*
X1781365Y193728D01*
X1781312Y193694D01*
X1781257Y193663D01*
X1781200Y193636D01*
X1781142Y193612D01*
X1781082Y193592D01*
X1781021Y193576D01*
X1780959Y193563D01*
X1780896Y193554D01*
X1780834Y193549D01*
X1780770Y193548D01*
X1780612Y193552D01*
X1780454Y193560D01*
X1780296Y193571D01*
X1780138Y193587D01*
X1779980Y193606D01*
X1779824Y193629D01*
X1779667Y193655D01*
X1779512Y193685D01*
X1779357Y193719D01*
X1779203Y193757D01*
X1779050Y193798D01*
X1778898Y193843D01*
X1778747Y193891D01*
X1778597Y193943D01*
X1783971Y198289D02*
X1786341Y198289D01*
X1784761Y200660D02*
X1784761Y194733D01*
X1784763Y194667D01*
X1784768Y194600D01*
X1784778Y194535D01*
X1784791Y194469D01*
X1784807Y194405D01*
X1784827Y194342D01*
X1784851Y194280D01*
X1784878Y194219D01*
X1784909Y194160D01*
X1784943Y194103D01*
X1784980Y194047D01*
X1785020Y193994D01*
X1785062Y193943D01*
X1785108Y193895D01*
X1785156Y193849D01*
X1785207Y193807D01*
X1785260Y193767D01*
X1785316Y193730D01*
X1785373Y193696D01*
X1785432Y193665D01*
X1785493Y193638D01*
X1785555Y193614D01*
X1785618Y193594D01*
X1785682Y193578D01*
X1785748Y193565D01*
X1785813Y193555D01*
X1785880Y193550D01*
X1785946Y193548D01*
X1786341Y193548D01*
X1790070Y193548D02*
X1792045Y193548D01*
X1790070Y193548D02*
X1790004Y193550D01*
X1789937Y193555D01*
X1789872Y193565D01*
X1789806Y193578D01*
X1789742Y193594D01*
X1789679Y193614D01*
X1789617Y193638D01*
X1789556Y193665D01*
X1789497Y193696D01*
X1789440Y193730D01*
X1789384Y193767D01*
X1789331Y193807D01*
X1789280Y193849D01*
X1789232Y193895D01*
X1789186Y193943D01*
X1789144Y193994D01*
X1789104Y194047D01*
X1789067Y194103D01*
X1789033Y194160D01*
X1789002Y194219D01*
X1788975Y194280D01*
X1788951Y194342D01*
X1788931Y194405D01*
X1788915Y194469D01*
X1788902Y194535D01*
X1788892Y194600D01*
X1788887Y194667D01*
X1788885Y194733D01*
X1788884Y194733D02*
X1788884Y196709D01*
X1788885Y196709D02*
X1788887Y196788D01*
X1788893Y196866D01*
X1788903Y196944D01*
X1788916Y197022D01*
X1788934Y197099D01*
X1788955Y197175D01*
X1788980Y197249D01*
X1789009Y197323D01*
X1789041Y197395D01*
X1789077Y197465D01*
X1789117Y197533D01*
X1789160Y197599D01*
X1789206Y197663D01*
X1789255Y197725D01*
X1789307Y197784D01*
X1789362Y197840D01*
X1789420Y197894D01*
X1789480Y197944D01*
X1789543Y197992D01*
X1789608Y198036D01*
X1789675Y198077D01*
X1789744Y198115D01*
X1789815Y198149D01*
X1789888Y198180D01*
X1789962Y198207D01*
X1790037Y198230D01*
X1790113Y198249D01*
X1790191Y198265D01*
X1790269Y198277D01*
X1790347Y198285D01*
X1790426Y198289D01*
X1790504Y198289D01*
X1790583Y198285D01*
X1790661Y198277D01*
X1790739Y198265D01*
X1790817Y198249D01*
X1790893Y198230D01*
X1790968Y198207D01*
X1791042Y198180D01*
X1791115Y198149D01*
X1791186Y198115D01*
X1791255Y198077D01*
X1791322Y198036D01*
X1791387Y197992D01*
X1791450Y197944D01*
X1791510Y197894D01*
X1791568Y197840D01*
X1791623Y197784D01*
X1791675Y197725D01*
X1791724Y197663D01*
X1791770Y197599D01*
X1791813Y197533D01*
X1791853Y197465D01*
X1791889Y197395D01*
X1791921Y197323D01*
X1791950Y197249D01*
X1791975Y197175D01*
X1791996Y197099D01*
X1792014Y197022D01*
X1792027Y196944D01*
X1792037Y196866D01*
X1792043Y196788D01*
X1792045Y196709D01*
X1792045Y195919D01*
X1788884Y195919D01*
X1795093Y198289D02*
X1795093Y193548D01*
X1795093Y198289D02*
X1797464Y198289D01*
X1797464Y197499D01*
D11*
X1440307Y135255D02*
X1440307Y132461D01*
X1440307Y135255D02*
X1441083Y135255D01*
X1441138Y135253D01*
X1441193Y135247D01*
X1441248Y135237D01*
X1441302Y135224D01*
X1441354Y135206D01*
X1441405Y135185D01*
X1441455Y135160D01*
X1441503Y135132D01*
X1441548Y135100D01*
X1441591Y135065D01*
X1441632Y135028D01*
X1441669Y134987D01*
X1441704Y134944D01*
X1441736Y134899D01*
X1441764Y134851D01*
X1441789Y134801D01*
X1441810Y134750D01*
X1441828Y134698D01*
X1441841Y134644D01*
X1441851Y134589D01*
X1441857Y134534D01*
X1441859Y134479D01*
X1441857Y134424D01*
X1441851Y134369D01*
X1441841Y134314D01*
X1441828Y134260D01*
X1441810Y134208D01*
X1441789Y134157D01*
X1441764Y134107D01*
X1441736Y134059D01*
X1441704Y134014D01*
X1441669Y133971D01*
X1441632Y133930D01*
X1441591Y133893D01*
X1441548Y133858D01*
X1441503Y133826D01*
X1441455Y133798D01*
X1441405Y133773D01*
X1441354Y133752D01*
X1441302Y133734D01*
X1441248Y133721D01*
X1441193Y133711D01*
X1441138Y133705D01*
X1441083Y133703D01*
X1440307Y133703D01*
X1441238Y133703D02*
X1441859Y132461D01*
X1443032Y134634D02*
X1443808Y135255D01*
X1443808Y132461D01*
X1443032Y132461D02*
X1444584Y132461D01*
X1417165Y132207D02*
X1416544Y132207D01*
X1416495Y132209D01*
X1416447Y132215D01*
X1416399Y132224D01*
X1416352Y132237D01*
X1416306Y132254D01*
X1416262Y132275D01*
X1416220Y132299D01*
X1416179Y132326D01*
X1416141Y132356D01*
X1416105Y132389D01*
X1416072Y132425D01*
X1416042Y132463D01*
X1416015Y132504D01*
X1415991Y132546D01*
X1415970Y132590D01*
X1415953Y132636D01*
X1415940Y132683D01*
X1415931Y132731D01*
X1415925Y132779D01*
X1415923Y132828D01*
X1415923Y134380D01*
X1415925Y134429D01*
X1415931Y134477D01*
X1415940Y134525D01*
X1415953Y134572D01*
X1415970Y134618D01*
X1415991Y134662D01*
X1416015Y134704D01*
X1416042Y134745D01*
X1416072Y134783D01*
X1416105Y134819D01*
X1416141Y134852D01*
X1416179Y134882D01*
X1416220Y134909D01*
X1416262Y134933D01*
X1416306Y134954D01*
X1416352Y134971D01*
X1416399Y134984D01*
X1416447Y134993D01*
X1416495Y134999D01*
X1416544Y135001D01*
X1417165Y135001D01*
X1418217Y134380D02*
X1418993Y135001D01*
X1418993Y132207D01*
X1418217Y132207D02*
X1419769Y132207D01*
X1427974Y132207D02*
X1428595Y132207D01*
X1427974Y132207D02*
X1427925Y132209D01*
X1427877Y132215D01*
X1427829Y132224D01*
X1427782Y132237D01*
X1427736Y132254D01*
X1427692Y132275D01*
X1427650Y132299D01*
X1427609Y132326D01*
X1427571Y132356D01*
X1427535Y132389D01*
X1427502Y132425D01*
X1427472Y132463D01*
X1427445Y132504D01*
X1427421Y132546D01*
X1427400Y132590D01*
X1427383Y132636D01*
X1427370Y132683D01*
X1427361Y132731D01*
X1427355Y132779D01*
X1427353Y132828D01*
X1427353Y134380D01*
X1427355Y134429D01*
X1427361Y134477D01*
X1427370Y134525D01*
X1427383Y134572D01*
X1427400Y134618D01*
X1427421Y134662D01*
X1427445Y134704D01*
X1427472Y134745D01*
X1427502Y134783D01*
X1427535Y134819D01*
X1427571Y134852D01*
X1427609Y134882D01*
X1427650Y134909D01*
X1427692Y134933D01*
X1427736Y134954D01*
X1427782Y134971D01*
X1427829Y134984D01*
X1427877Y134993D01*
X1427925Y134999D01*
X1427974Y135001D01*
X1428595Y135001D01*
X1430501Y135002D02*
X1430551Y135000D01*
X1430600Y134995D01*
X1430650Y134986D01*
X1430698Y134974D01*
X1430745Y134958D01*
X1430791Y134939D01*
X1430836Y134916D01*
X1430879Y134891D01*
X1430920Y134863D01*
X1430959Y134831D01*
X1430995Y134797D01*
X1431029Y134761D01*
X1431061Y134722D01*
X1431089Y134681D01*
X1431114Y134638D01*
X1431137Y134593D01*
X1431156Y134547D01*
X1431172Y134500D01*
X1431184Y134452D01*
X1431193Y134402D01*
X1431198Y134353D01*
X1431200Y134303D01*
X1430501Y135001D02*
X1430445Y134999D01*
X1430388Y134994D01*
X1430333Y134985D01*
X1430278Y134973D01*
X1430224Y134957D01*
X1430171Y134938D01*
X1430119Y134916D01*
X1430069Y134890D01*
X1430020Y134861D01*
X1429973Y134829D01*
X1429929Y134795D01*
X1429887Y134758D01*
X1429847Y134718D01*
X1429809Y134675D01*
X1429775Y134631D01*
X1429743Y134584D01*
X1429715Y134536D01*
X1429689Y134485D01*
X1429667Y134433D01*
X1429648Y134380D01*
X1430966Y133760D02*
X1431002Y133796D01*
X1431035Y133834D01*
X1431065Y133875D01*
X1431092Y133918D01*
X1431117Y133962D01*
X1431138Y134008D01*
X1431157Y134055D01*
X1431172Y134103D01*
X1431184Y134152D01*
X1431192Y134202D01*
X1431197Y134252D01*
X1431199Y134303D01*
X1430967Y133759D02*
X1429647Y132207D01*
X1431199Y132207D01*
X1462010Y127127D02*
X1462631Y127127D01*
X1462010Y127127D02*
X1461961Y127129D01*
X1461913Y127135D01*
X1461865Y127144D01*
X1461818Y127157D01*
X1461772Y127174D01*
X1461728Y127195D01*
X1461686Y127219D01*
X1461645Y127246D01*
X1461607Y127276D01*
X1461571Y127309D01*
X1461538Y127345D01*
X1461508Y127383D01*
X1461481Y127424D01*
X1461457Y127466D01*
X1461436Y127510D01*
X1461419Y127556D01*
X1461406Y127603D01*
X1461397Y127651D01*
X1461391Y127699D01*
X1461389Y127748D01*
X1461389Y129300D01*
X1461391Y129349D01*
X1461397Y129397D01*
X1461406Y129445D01*
X1461419Y129492D01*
X1461436Y129538D01*
X1461457Y129582D01*
X1461481Y129624D01*
X1461508Y129665D01*
X1461538Y129703D01*
X1461571Y129739D01*
X1461607Y129772D01*
X1461645Y129802D01*
X1461686Y129829D01*
X1461728Y129853D01*
X1461772Y129874D01*
X1461818Y129891D01*
X1461865Y129904D01*
X1461913Y129913D01*
X1461961Y129919D01*
X1462010Y129921D01*
X1462631Y129921D01*
X1463683Y127127D02*
X1464459Y127127D01*
X1464514Y127129D01*
X1464569Y127135D01*
X1464624Y127145D01*
X1464678Y127158D01*
X1464730Y127176D01*
X1464781Y127197D01*
X1464831Y127222D01*
X1464879Y127250D01*
X1464924Y127282D01*
X1464967Y127317D01*
X1465008Y127354D01*
X1465045Y127395D01*
X1465080Y127438D01*
X1465112Y127483D01*
X1465140Y127531D01*
X1465165Y127581D01*
X1465186Y127632D01*
X1465204Y127684D01*
X1465217Y127738D01*
X1465227Y127793D01*
X1465233Y127848D01*
X1465235Y127903D01*
X1465233Y127958D01*
X1465227Y128013D01*
X1465217Y128068D01*
X1465204Y128122D01*
X1465186Y128174D01*
X1465165Y128225D01*
X1465140Y128275D01*
X1465112Y128323D01*
X1465080Y128368D01*
X1465045Y128411D01*
X1465008Y128452D01*
X1464967Y128489D01*
X1464924Y128524D01*
X1464879Y128556D01*
X1464831Y128584D01*
X1464781Y128609D01*
X1464730Y128630D01*
X1464678Y128648D01*
X1464624Y128661D01*
X1464569Y128671D01*
X1464514Y128677D01*
X1464459Y128679D01*
X1464614Y129921D02*
X1463683Y129921D01*
X1464614Y129921D02*
X1464663Y129919D01*
X1464711Y129913D01*
X1464759Y129904D01*
X1464806Y129891D01*
X1464852Y129874D01*
X1464896Y129853D01*
X1464938Y129829D01*
X1464979Y129802D01*
X1465017Y129772D01*
X1465053Y129739D01*
X1465086Y129703D01*
X1465116Y129665D01*
X1465143Y129624D01*
X1465167Y129582D01*
X1465188Y129538D01*
X1465205Y129492D01*
X1465218Y129445D01*
X1465227Y129397D01*
X1465233Y129349D01*
X1465235Y129300D01*
X1465233Y129251D01*
X1465227Y129203D01*
X1465218Y129155D01*
X1465205Y129108D01*
X1465188Y129062D01*
X1465167Y129018D01*
X1465143Y128976D01*
X1465116Y128935D01*
X1465086Y128897D01*
X1465053Y128861D01*
X1465017Y128828D01*
X1464979Y128798D01*
X1464938Y128771D01*
X1464896Y128747D01*
X1464852Y128726D01*
X1464806Y128709D01*
X1464759Y128696D01*
X1464711Y128687D01*
X1464663Y128681D01*
X1464614Y128679D01*
X1463994Y128679D01*
X1481822Y122555D02*
X1482443Y122555D01*
X1481822Y122555D02*
X1481773Y122557D01*
X1481725Y122563D01*
X1481677Y122572D01*
X1481630Y122585D01*
X1481584Y122602D01*
X1481540Y122623D01*
X1481498Y122647D01*
X1481457Y122674D01*
X1481419Y122704D01*
X1481383Y122737D01*
X1481350Y122773D01*
X1481320Y122811D01*
X1481293Y122852D01*
X1481269Y122894D01*
X1481248Y122938D01*
X1481231Y122984D01*
X1481218Y123031D01*
X1481209Y123079D01*
X1481203Y123127D01*
X1481201Y123176D01*
X1481201Y124728D01*
X1481203Y124777D01*
X1481209Y124825D01*
X1481218Y124873D01*
X1481231Y124920D01*
X1481248Y124966D01*
X1481269Y125010D01*
X1481293Y125052D01*
X1481320Y125093D01*
X1481350Y125131D01*
X1481383Y125167D01*
X1481419Y125200D01*
X1481457Y125230D01*
X1481498Y125257D01*
X1481540Y125281D01*
X1481584Y125302D01*
X1481630Y125319D01*
X1481677Y125332D01*
X1481725Y125341D01*
X1481773Y125347D01*
X1481822Y125349D01*
X1482443Y125349D01*
X1484116Y125349D02*
X1483495Y123176D01*
X1485047Y123176D01*
X1484582Y123797D02*
X1484582Y122555D01*
X1493252Y122301D02*
X1493873Y122301D01*
X1493252Y122301D02*
X1493203Y122303D01*
X1493155Y122309D01*
X1493107Y122318D01*
X1493060Y122331D01*
X1493014Y122348D01*
X1492970Y122369D01*
X1492928Y122393D01*
X1492887Y122420D01*
X1492849Y122450D01*
X1492813Y122483D01*
X1492780Y122519D01*
X1492750Y122557D01*
X1492723Y122598D01*
X1492699Y122640D01*
X1492678Y122684D01*
X1492661Y122730D01*
X1492648Y122777D01*
X1492639Y122825D01*
X1492633Y122873D01*
X1492631Y122922D01*
X1492631Y124474D01*
X1492633Y124523D01*
X1492639Y124571D01*
X1492648Y124619D01*
X1492661Y124666D01*
X1492678Y124712D01*
X1492699Y124756D01*
X1492723Y124798D01*
X1492750Y124839D01*
X1492780Y124877D01*
X1492813Y124913D01*
X1492849Y124946D01*
X1492887Y124976D01*
X1492928Y125003D01*
X1492970Y125027D01*
X1493014Y125048D01*
X1493060Y125065D01*
X1493107Y125078D01*
X1493155Y125087D01*
X1493203Y125093D01*
X1493252Y125095D01*
X1493873Y125095D01*
X1494925Y122301D02*
X1495856Y122301D01*
X1495905Y122303D01*
X1495953Y122309D01*
X1496001Y122318D01*
X1496048Y122331D01*
X1496094Y122348D01*
X1496138Y122369D01*
X1496180Y122393D01*
X1496221Y122420D01*
X1496259Y122450D01*
X1496295Y122483D01*
X1496328Y122519D01*
X1496358Y122557D01*
X1496385Y122598D01*
X1496409Y122640D01*
X1496430Y122684D01*
X1496447Y122730D01*
X1496460Y122777D01*
X1496469Y122825D01*
X1496475Y122873D01*
X1496477Y122922D01*
X1496477Y123232D01*
X1496475Y123281D01*
X1496469Y123329D01*
X1496460Y123377D01*
X1496447Y123424D01*
X1496430Y123470D01*
X1496409Y123514D01*
X1496385Y123556D01*
X1496358Y123597D01*
X1496328Y123635D01*
X1496295Y123671D01*
X1496259Y123704D01*
X1496221Y123734D01*
X1496180Y123761D01*
X1496138Y123785D01*
X1496094Y123806D01*
X1496048Y123823D01*
X1496001Y123836D01*
X1495953Y123845D01*
X1495905Y123851D01*
X1495856Y123853D01*
X1494925Y123853D01*
X1494925Y125095D01*
X1496477Y125095D01*
X1531860Y124079D02*
X1532481Y124079D01*
X1531860Y124079D02*
X1531811Y124081D01*
X1531763Y124087D01*
X1531715Y124096D01*
X1531668Y124109D01*
X1531622Y124126D01*
X1531578Y124147D01*
X1531536Y124171D01*
X1531495Y124198D01*
X1531457Y124228D01*
X1531421Y124261D01*
X1531388Y124297D01*
X1531358Y124335D01*
X1531331Y124376D01*
X1531307Y124418D01*
X1531286Y124462D01*
X1531269Y124508D01*
X1531256Y124555D01*
X1531247Y124603D01*
X1531241Y124651D01*
X1531239Y124700D01*
X1531239Y126252D01*
X1531241Y126301D01*
X1531247Y126349D01*
X1531256Y126397D01*
X1531269Y126444D01*
X1531286Y126490D01*
X1531307Y126534D01*
X1531331Y126576D01*
X1531358Y126617D01*
X1531388Y126655D01*
X1531421Y126691D01*
X1531457Y126724D01*
X1531495Y126754D01*
X1531536Y126781D01*
X1531578Y126805D01*
X1531622Y126826D01*
X1531668Y126843D01*
X1531715Y126856D01*
X1531763Y126865D01*
X1531811Y126871D01*
X1531860Y126873D01*
X1532481Y126873D01*
X1533533Y125631D02*
X1534464Y125631D01*
X1534513Y125629D01*
X1534561Y125623D01*
X1534609Y125614D01*
X1534656Y125601D01*
X1534702Y125584D01*
X1534746Y125563D01*
X1534788Y125539D01*
X1534829Y125512D01*
X1534867Y125482D01*
X1534903Y125449D01*
X1534936Y125413D01*
X1534966Y125375D01*
X1534993Y125334D01*
X1535017Y125292D01*
X1535038Y125248D01*
X1535055Y125202D01*
X1535068Y125155D01*
X1535077Y125107D01*
X1535083Y125059D01*
X1535085Y125010D01*
X1535085Y124855D01*
X1535083Y124800D01*
X1535077Y124745D01*
X1535067Y124690D01*
X1535054Y124636D01*
X1535036Y124584D01*
X1535015Y124533D01*
X1534990Y124483D01*
X1534962Y124435D01*
X1534930Y124390D01*
X1534895Y124347D01*
X1534858Y124306D01*
X1534817Y124269D01*
X1534774Y124234D01*
X1534729Y124202D01*
X1534681Y124174D01*
X1534631Y124149D01*
X1534580Y124128D01*
X1534528Y124110D01*
X1534474Y124097D01*
X1534419Y124087D01*
X1534364Y124081D01*
X1534309Y124079D01*
X1534254Y124081D01*
X1534199Y124087D01*
X1534144Y124097D01*
X1534090Y124110D01*
X1534038Y124128D01*
X1533987Y124149D01*
X1533937Y124174D01*
X1533889Y124202D01*
X1533844Y124234D01*
X1533801Y124269D01*
X1533760Y124306D01*
X1533723Y124347D01*
X1533688Y124390D01*
X1533656Y124435D01*
X1533628Y124483D01*
X1533603Y124533D01*
X1533582Y124584D01*
X1533564Y124636D01*
X1533551Y124690D01*
X1533541Y124745D01*
X1533535Y124800D01*
X1533533Y124855D01*
X1533533Y125631D01*
X1533535Y125701D01*
X1533541Y125770D01*
X1533551Y125839D01*
X1533564Y125907D01*
X1533582Y125975D01*
X1533603Y126041D01*
X1533628Y126106D01*
X1533656Y126170D01*
X1533688Y126232D01*
X1533723Y126292D01*
X1533762Y126350D01*
X1533804Y126405D01*
X1533849Y126459D01*
X1533897Y126509D01*
X1533947Y126557D01*
X1534001Y126602D01*
X1534056Y126644D01*
X1534114Y126683D01*
X1534174Y126718D01*
X1534236Y126750D01*
X1534300Y126778D01*
X1534365Y126803D01*
X1534431Y126824D01*
X1534499Y126842D01*
X1534567Y126855D01*
X1534636Y126865D01*
X1534705Y126871D01*
X1534775Y126873D01*
X1480665Y188341D02*
X1480044Y188341D01*
X1479995Y188343D01*
X1479947Y188349D01*
X1479899Y188358D01*
X1479852Y188371D01*
X1479806Y188388D01*
X1479762Y188409D01*
X1479720Y188433D01*
X1479679Y188460D01*
X1479641Y188490D01*
X1479605Y188523D01*
X1479572Y188559D01*
X1479542Y188597D01*
X1479515Y188638D01*
X1479491Y188680D01*
X1479470Y188724D01*
X1479453Y188770D01*
X1479440Y188817D01*
X1479431Y188865D01*
X1479425Y188913D01*
X1479423Y188962D01*
X1479423Y190514D01*
X1479425Y190563D01*
X1479431Y190611D01*
X1479440Y190659D01*
X1479453Y190706D01*
X1479470Y190752D01*
X1479491Y190796D01*
X1479515Y190838D01*
X1479542Y190879D01*
X1479572Y190917D01*
X1479605Y190953D01*
X1479641Y190986D01*
X1479679Y191016D01*
X1479720Y191043D01*
X1479762Y191067D01*
X1479806Y191088D01*
X1479852Y191105D01*
X1479899Y191118D01*
X1479947Y191127D01*
X1479995Y191133D01*
X1480044Y191135D01*
X1480665Y191135D01*
X1481717Y191135D02*
X1481717Y190825D01*
X1481717Y191135D02*
X1483269Y191135D01*
X1482493Y188341D01*
X1505952Y188595D02*
X1506573Y188595D01*
X1505952Y188595D02*
X1505903Y188597D01*
X1505855Y188603D01*
X1505807Y188612D01*
X1505760Y188625D01*
X1505714Y188642D01*
X1505670Y188663D01*
X1505628Y188687D01*
X1505587Y188714D01*
X1505549Y188744D01*
X1505513Y188777D01*
X1505480Y188813D01*
X1505450Y188851D01*
X1505423Y188892D01*
X1505399Y188934D01*
X1505378Y188978D01*
X1505361Y189024D01*
X1505348Y189071D01*
X1505339Y189119D01*
X1505333Y189167D01*
X1505331Y189216D01*
X1505331Y190768D01*
X1505333Y190817D01*
X1505339Y190865D01*
X1505348Y190913D01*
X1505361Y190960D01*
X1505378Y191006D01*
X1505399Y191050D01*
X1505423Y191092D01*
X1505450Y191133D01*
X1505480Y191171D01*
X1505513Y191207D01*
X1505549Y191240D01*
X1505587Y191270D01*
X1505628Y191297D01*
X1505670Y191321D01*
X1505714Y191342D01*
X1505760Y191359D01*
X1505807Y191372D01*
X1505855Y191381D01*
X1505903Y191387D01*
X1505952Y191389D01*
X1506573Y191389D01*
X1507625Y189371D02*
X1507627Y189426D01*
X1507633Y189481D01*
X1507643Y189536D01*
X1507656Y189590D01*
X1507674Y189642D01*
X1507695Y189693D01*
X1507720Y189743D01*
X1507748Y189791D01*
X1507780Y189836D01*
X1507815Y189879D01*
X1507852Y189920D01*
X1507893Y189957D01*
X1507936Y189992D01*
X1507981Y190024D01*
X1508029Y190052D01*
X1508079Y190077D01*
X1508130Y190098D01*
X1508182Y190116D01*
X1508236Y190129D01*
X1508291Y190139D01*
X1508346Y190145D01*
X1508401Y190147D01*
X1508456Y190145D01*
X1508511Y190139D01*
X1508566Y190129D01*
X1508620Y190116D01*
X1508672Y190098D01*
X1508723Y190077D01*
X1508773Y190052D01*
X1508821Y190024D01*
X1508866Y189992D01*
X1508909Y189957D01*
X1508950Y189920D01*
X1508987Y189879D01*
X1509022Y189836D01*
X1509054Y189791D01*
X1509082Y189743D01*
X1509107Y189693D01*
X1509128Y189642D01*
X1509146Y189590D01*
X1509159Y189536D01*
X1509169Y189481D01*
X1509175Y189426D01*
X1509177Y189371D01*
X1509175Y189316D01*
X1509169Y189261D01*
X1509159Y189206D01*
X1509146Y189152D01*
X1509128Y189100D01*
X1509107Y189049D01*
X1509082Y188999D01*
X1509054Y188951D01*
X1509022Y188906D01*
X1508987Y188863D01*
X1508950Y188822D01*
X1508909Y188785D01*
X1508866Y188750D01*
X1508821Y188718D01*
X1508773Y188690D01*
X1508723Y188665D01*
X1508672Y188644D01*
X1508620Y188626D01*
X1508566Y188613D01*
X1508511Y188603D01*
X1508456Y188597D01*
X1508401Y188595D01*
X1508346Y188597D01*
X1508291Y188603D01*
X1508236Y188613D01*
X1508182Y188626D01*
X1508130Y188644D01*
X1508079Y188665D01*
X1508029Y188690D01*
X1507981Y188718D01*
X1507936Y188750D01*
X1507893Y188785D01*
X1507852Y188822D01*
X1507815Y188863D01*
X1507780Y188906D01*
X1507748Y188951D01*
X1507720Y188999D01*
X1507695Y189049D01*
X1507674Y189100D01*
X1507656Y189152D01*
X1507643Y189206D01*
X1507633Y189261D01*
X1507627Y189316D01*
X1507625Y189371D01*
X1507780Y190768D02*
X1507782Y190817D01*
X1507788Y190865D01*
X1507797Y190913D01*
X1507810Y190960D01*
X1507827Y191006D01*
X1507848Y191050D01*
X1507872Y191092D01*
X1507899Y191133D01*
X1507929Y191171D01*
X1507962Y191207D01*
X1507998Y191240D01*
X1508036Y191270D01*
X1508077Y191297D01*
X1508119Y191321D01*
X1508163Y191342D01*
X1508209Y191359D01*
X1508256Y191372D01*
X1508304Y191381D01*
X1508352Y191387D01*
X1508401Y191389D01*
X1508450Y191387D01*
X1508498Y191381D01*
X1508546Y191372D01*
X1508593Y191359D01*
X1508639Y191342D01*
X1508683Y191321D01*
X1508725Y191297D01*
X1508766Y191270D01*
X1508804Y191240D01*
X1508840Y191207D01*
X1508873Y191171D01*
X1508903Y191133D01*
X1508930Y191092D01*
X1508954Y191050D01*
X1508975Y191006D01*
X1508992Y190960D01*
X1509005Y190913D01*
X1509014Y190865D01*
X1509020Y190817D01*
X1509022Y190768D01*
X1509020Y190719D01*
X1509014Y190671D01*
X1509005Y190623D01*
X1508992Y190576D01*
X1508975Y190530D01*
X1508954Y190486D01*
X1508930Y190444D01*
X1508903Y190403D01*
X1508873Y190365D01*
X1508840Y190329D01*
X1508804Y190296D01*
X1508766Y190266D01*
X1508725Y190239D01*
X1508683Y190215D01*
X1508639Y190194D01*
X1508593Y190177D01*
X1508546Y190164D01*
X1508498Y190155D01*
X1508450Y190149D01*
X1508401Y190147D01*
X1508352Y190149D01*
X1508304Y190155D01*
X1508256Y190164D01*
X1508209Y190177D01*
X1508163Y190194D01*
X1508119Y190215D01*
X1508077Y190239D01*
X1508036Y190266D01*
X1507998Y190296D01*
X1507962Y190329D01*
X1507929Y190365D01*
X1507899Y190403D01*
X1507872Y190444D01*
X1507848Y190486D01*
X1507827Y190530D01*
X1507810Y190576D01*
X1507797Y190623D01*
X1507788Y190671D01*
X1507782Y190719D01*
X1507780Y190768D01*
X1512697Y140589D02*
X1512697Y138571D01*
X1512699Y138516D01*
X1512705Y138461D01*
X1512715Y138406D01*
X1512728Y138352D01*
X1512746Y138300D01*
X1512767Y138249D01*
X1512792Y138199D01*
X1512820Y138151D01*
X1512852Y138106D01*
X1512887Y138063D01*
X1512924Y138022D01*
X1512965Y137985D01*
X1513008Y137950D01*
X1513053Y137918D01*
X1513101Y137890D01*
X1513151Y137865D01*
X1513202Y137844D01*
X1513254Y137826D01*
X1513308Y137813D01*
X1513363Y137803D01*
X1513418Y137797D01*
X1513473Y137795D01*
X1513528Y137797D01*
X1513583Y137803D01*
X1513638Y137813D01*
X1513692Y137826D01*
X1513744Y137844D01*
X1513795Y137865D01*
X1513845Y137890D01*
X1513893Y137918D01*
X1513938Y137950D01*
X1513981Y137985D01*
X1514022Y138022D01*
X1514059Y138063D01*
X1514094Y138106D01*
X1514126Y138151D01*
X1514154Y138199D01*
X1514179Y138249D01*
X1514200Y138300D01*
X1514218Y138352D01*
X1514231Y138406D01*
X1514241Y138461D01*
X1514247Y138516D01*
X1514249Y138571D01*
X1514249Y140589D01*
X1515532Y139968D02*
X1516308Y140589D01*
X1516308Y137795D01*
X1515532Y137795D02*
X1517084Y137795D01*
X1436751Y174893D02*
X1436751Y176911D01*
X1436751Y174893D02*
X1436753Y174838D01*
X1436759Y174783D01*
X1436769Y174728D01*
X1436782Y174674D01*
X1436800Y174622D01*
X1436821Y174571D01*
X1436846Y174521D01*
X1436874Y174473D01*
X1436906Y174428D01*
X1436941Y174385D01*
X1436978Y174344D01*
X1437019Y174307D01*
X1437062Y174272D01*
X1437107Y174240D01*
X1437155Y174212D01*
X1437205Y174187D01*
X1437256Y174166D01*
X1437308Y174148D01*
X1437362Y174135D01*
X1437417Y174125D01*
X1437472Y174119D01*
X1437527Y174117D01*
X1437582Y174119D01*
X1437637Y174125D01*
X1437692Y174135D01*
X1437746Y174148D01*
X1437798Y174166D01*
X1437849Y174187D01*
X1437899Y174212D01*
X1437947Y174240D01*
X1437992Y174272D01*
X1438035Y174307D01*
X1438076Y174344D01*
X1438113Y174385D01*
X1438148Y174428D01*
X1438180Y174473D01*
X1438208Y174521D01*
X1438233Y174571D01*
X1438254Y174622D01*
X1438272Y174674D01*
X1438285Y174728D01*
X1438295Y174783D01*
X1438301Y174838D01*
X1438303Y174893D01*
X1438303Y176911D01*
X1440439Y176912D02*
X1440489Y176910D01*
X1440538Y176905D01*
X1440588Y176896D01*
X1440636Y176884D01*
X1440683Y176868D01*
X1440729Y176849D01*
X1440774Y176826D01*
X1440817Y176801D01*
X1440858Y176773D01*
X1440897Y176741D01*
X1440933Y176707D01*
X1440967Y176671D01*
X1440999Y176632D01*
X1441027Y176591D01*
X1441052Y176548D01*
X1441075Y176503D01*
X1441094Y176457D01*
X1441110Y176410D01*
X1441122Y176362D01*
X1441131Y176312D01*
X1441136Y176263D01*
X1441138Y176213D01*
X1440439Y176911D02*
X1440383Y176909D01*
X1440326Y176904D01*
X1440271Y176895D01*
X1440216Y176883D01*
X1440162Y176867D01*
X1440109Y176848D01*
X1440057Y176826D01*
X1440007Y176800D01*
X1439958Y176771D01*
X1439911Y176739D01*
X1439867Y176705D01*
X1439825Y176668D01*
X1439785Y176628D01*
X1439747Y176585D01*
X1439713Y176541D01*
X1439681Y176494D01*
X1439653Y176446D01*
X1439627Y176395D01*
X1439605Y176343D01*
X1439586Y176290D01*
X1440905Y175670D02*
X1440941Y175706D01*
X1440974Y175744D01*
X1441004Y175785D01*
X1441031Y175828D01*
X1441056Y175872D01*
X1441077Y175918D01*
X1441096Y175965D01*
X1441111Y176013D01*
X1441123Y176062D01*
X1441131Y176112D01*
X1441136Y176162D01*
X1441138Y176213D01*
X1440905Y175669D02*
X1439586Y174117D01*
X1441138Y174117D01*
X1474851Y164465D02*
X1474851Y162447D01*
X1474853Y162392D01*
X1474859Y162337D01*
X1474869Y162282D01*
X1474882Y162228D01*
X1474900Y162176D01*
X1474921Y162125D01*
X1474946Y162075D01*
X1474974Y162027D01*
X1475006Y161982D01*
X1475041Y161939D01*
X1475078Y161898D01*
X1475119Y161861D01*
X1475162Y161826D01*
X1475207Y161794D01*
X1475255Y161766D01*
X1475305Y161741D01*
X1475356Y161720D01*
X1475408Y161702D01*
X1475462Y161689D01*
X1475517Y161679D01*
X1475572Y161673D01*
X1475627Y161671D01*
X1475682Y161673D01*
X1475737Y161679D01*
X1475792Y161689D01*
X1475846Y161702D01*
X1475898Y161720D01*
X1475949Y161741D01*
X1475999Y161766D01*
X1476047Y161794D01*
X1476092Y161826D01*
X1476135Y161861D01*
X1476176Y161898D01*
X1476213Y161939D01*
X1476248Y161982D01*
X1476280Y162027D01*
X1476308Y162075D01*
X1476333Y162125D01*
X1476354Y162176D01*
X1476372Y162228D01*
X1476385Y162282D01*
X1476395Y162337D01*
X1476401Y162392D01*
X1476403Y162447D01*
X1476403Y164465D01*
X1477686Y161671D02*
X1478462Y161671D01*
X1478517Y161673D01*
X1478572Y161679D01*
X1478627Y161689D01*
X1478681Y161702D01*
X1478733Y161720D01*
X1478784Y161741D01*
X1478834Y161766D01*
X1478882Y161794D01*
X1478927Y161826D01*
X1478970Y161861D01*
X1479011Y161898D01*
X1479048Y161939D01*
X1479083Y161982D01*
X1479115Y162027D01*
X1479143Y162075D01*
X1479168Y162125D01*
X1479189Y162176D01*
X1479207Y162228D01*
X1479220Y162282D01*
X1479230Y162337D01*
X1479236Y162392D01*
X1479238Y162447D01*
X1479236Y162502D01*
X1479230Y162557D01*
X1479220Y162612D01*
X1479207Y162666D01*
X1479189Y162718D01*
X1479168Y162769D01*
X1479143Y162819D01*
X1479115Y162867D01*
X1479083Y162912D01*
X1479048Y162955D01*
X1479011Y162996D01*
X1478970Y163033D01*
X1478927Y163068D01*
X1478882Y163100D01*
X1478834Y163128D01*
X1478784Y163153D01*
X1478733Y163174D01*
X1478681Y163192D01*
X1478627Y163205D01*
X1478572Y163215D01*
X1478517Y163221D01*
X1478462Y163223D01*
X1478617Y164465D02*
X1477686Y164465D01*
X1478617Y164465D02*
X1478666Y164463D01*
X1478714Y164457D01*
X1478762Y164448D01*
X1478809Y164435D01*
X1478855Y164418D01*
X1478899Y164397D01*
X1478941Y164373D01*
X1478982Y164346D01*
X1479020Y164316D01*
X1479056Y164283D01*
X1479089Y164247D01*
X1479119Y164209D01*
X1479146Y164168D01*
X1479170Y164126D01*
X1479191Y164082D01*
X1479208Y164036D01*
X1479221Y163989D01*
X1479230Y163941D01*
X1479236Y163893D01*
X1479238Y163844D01*
X1479236Y163795D01*
X1479230Y163747D01*
X1479221Y163699D01*
X1479208Y163652D01*
X1479191Y163606D01*
X1479170Y163562D01*
X1479146Y163520D01*
X1479119Y163479D01*
X1479089Y163441D01*
X1479056Y163405D01*
X1479020Y163372D01*
X1478982Y163342D01*
X1478941Y163315D01*
X1478899Y163291D01*
X1478855Y163270D01*
X1478809Y163253D01*
X1478762Y163240D01*
X1478714Y163231D01*
X1478666Y163225D01*
X1478617Y163223D01*
X1477996Y163223D01*
X1630807Y180721D02*
X1630807Y183515D01*
X1631583Y183515D01*
X1631638Y183513D01*
X1631693Y183507D01*
X1631748Y183497D01*
X1631802Y183484D01*
X1631854Y183466D01*
X1631905Y183445D01*
X1631955Y183420D01*
X1632003Y183392D01*
X1632048Y183360D01*
X1632091Y183325D01*
X1632132Y183288D01*
X1632169Y183247D01*
X1632204Y183204D01*
X1632236Y183159D01*
X1632264Y183111D01*
X1632289Y183061D01*
X1632310Y183010D01*
X1632328Y182958D01*
X1632341Y182904D01*
X1632351Y182849D01*
X1632357Y182794D01*
X1632359Y182739D01*
X1632357Y182684D01*
X1632351Y182629D01*
X1632341Y182574D01*
X1632328Y182520D01*
X1632310Y182468D01*
X1632289Y182417D01*
X1632264Y182367D01*
X1632236Y182319D01*
X1632204Y182274D01*
X1632169Y182231D01*
X1632132Y182190D01*
X1632091Y182153D01*
X1632048Y182118D01*
X1632003Y182086D01*
X1631955Y182058D01*
X1631905Y182033D01*
X1631854Y182012D01*
X1631802Y181994D01*
X1631748Y181981D01*
X1631693Y181971D01*
X1631638Y181965D01*
X1631583Y181963D01*
X1630807Y181963D01*
X1633417Y182894D02*
X1634193Y183515D01*
X1634193Y180721D01*
X1633417Y180721D02*
X1634970Y180721D01*
X1630553Y140081D02*
X1630553Y137287D01*
X1630553Y140081D02*
X1631329Y140081D01*
X1631384Y140079D01*
X1631439Y140073D01*
X1631494Y140063D01*
X1631548Y140050D01*
X1631600Y140032D01*
X1631651Y140011D01*
X1631701Y139986D01*
X1631749Y139958D01*
X1631794Y139926D01*
X1631837Y139891D01*
X1631878Y139854D01*
X1631915Y139813D01*
X1631950Y139770D01*
X1631982Y139725D01*
X1632010Y139677D01*
X1632035Y139627D01*
X1632056Y139576D01*
X1632074Y139524D01*
X1632087Y139470D01*
X1632097Y139415D01*
X1632103Y139360D01*
X1632105Y139305D01*
X1632103Y139250D01*
X1632097Y139195D01*
X1632087Y139140D01*
X1632074Y139086D01*
X1632056Y139034D01*
X1632035Y138983D01*
X1632010Y138933D01*
X1631982Y138885D01*
X1631950Y138840D01*
X1631915Y138797D01*
X1631878Y138756D01*
X1631837Y138719D01*
X1631794Y138684D01*
X1631749Y138652D01*
X1631701Y138624D01*
X1631651Y138599D01*
X1631600Y138578D01*
X1631548Y138560D01*
X1631494Y138547D01*
X1631439Y138537D01*
X1631384Y138531D01*
X1631329Y138529D01*
X1630553Y138529D01*
X1634017Y140082D02*
X1634067Y140080D01*
X1634116Y140075D01*
X1634166Y140066D01*
X1634214Y140054D01*
X1634261Y140038D01*
X1634307Y140019D01*
X1634352Y139996D01*
X1634395Y139971D01*
X1634436Y139943D01*
X1634475Y139911D01*
X1634511Y139877D01*
X1634545Y139841D01*
X1634577Y139802D01*
X1634605Y139761D01*
X1634630Y139718D01*
X1634653Y139673D01*
X1634672Y139627D01*
X1634688Y139580D01*
X1634700Y139532D01*
X1634709Y139482D01*
X1634714Y139433D01*
X1634716Y139383D01*
X1634017Y140081D02*
X1633961Y140079D01*
X1633904Y140074D01*
X1633849Y140065D01*
X1633794Y140053D01*
X1633740Y140037D01*
X1633687Y140018D01*
X1633635Y139996D01*
X1633585Y139970D01*
X1633536Y139941D01*
X1633489Y139909D01*
X1633445Y139875D01*
X1633403Y139838D01*
X1633363Y139798D01*
X1633325Y139755D01*
X1633291Y139711D01*
X1633259Y139664D01*
X1633231Y139616D01*
X1633205Y139565D01*
X1633183Y139513D01*
X1633164Y139460D01*
X1634482Y138840D02*
X1634518Y138876D01*
X1634551Y138914D01*
X1634581Y138955D01*
X1634608Y138998D01*
X1634633Y139042D01*
X1634654Y139088D01*
X1634673Y139135D01*
X1634688Y139183D01*
X1634700Y139232D01*
X1634708Y139282D01*
X1634713Y139332D01*
X1634715Y139383D01*
X1634483Y138839D02*
X1633163Y137287D01*
X1634716Y137287D01*
D12*
X1491361Y166624D03*
D10*
X1224845Y154658D02*
X1224843Y154588D01*
X1224837Y154519D01*
X1224827Y154450D01*
X1224814Y154382D01*
X1224796Y154314D01*
X1224775Y154248D01*
X1224750Y154183D01*
X1224722Y154119D01*
X1224690Y154057D01*
X1224655Y153997D01*
X1224616Y153939D01*
X1224574Y153884D01*
X1224529Y153830D01*
X1224481Y153780D01*
X1224431Y153732D01*
X1224377Y153687D01*
X1224322Y153645D01*
X1224264Y153606D01*
X1224204Y153571D01*
X1224142Y153539D01*
X1224078Y153511D01*
X1224013Y153486D01*
X1223947Y153465D01*
X1223879Y153447D01*
X1223811Y153434D01*
X1223742Y153424D01*
X1223673Y153418D01*
X1223603Y153416D01*
X1223504Y153418D01*
X1223406Y153423D01*
X1223308Y153433D01*
X1223210Y153446D01*
X1223113Y153462D01*
X1223016Y153482D01*
X1222921Y153506D01*
X1222826Y153534D01*
X1222732Y153565D01*
X1222640Y153599D01*
X1222549Y153637D01*
X1222459Y153678D01*
X1222371Y153723D01*
X1222285Y153771D01*
X1222201Y153822D01*
X1222119Y153876D01*
X1222038Y153934D01*
X1221960Y153994D01*
X1221885Y154057D01*
X1221811Y154123D01*
X1221741Y154192D01*
X1221895Y157762D02*
X1221897Y157832D01*
X1221903Y157901D01*
X1221913Y157970D01*
X1221926Y158038D01*
X1221944Y158106D01*
X1221965Y158172D01*
X1221990Y158237D01*
X1222018Y158301D01*
X1222050Y158363D01*
X1222085Y158423D01*
X1222124Y158481D01*
X1222166Y158536D01*
X1222211Y158590D01*
X1222259Y158640D01*
X1222309Y158688D01*
X1222363Y158733D01*
X1222418Y158775D01*
X1222476Y158814D01*
X1222536Y158849D01*
X1222598Y158881D01*
X1222662Y158909D01*
X1222727Y158934D01*
X1222793Y158955D01*
X1222861Y158973D01*
X1222929Y158986D01*
X1222998Y158996D01*
X1223067Y159002D01*
X1223137Y159004D01*
X1223231Y159002D01*
X1223324Y158996D01*
X1223417Y158987D01*
X1223510Y158974D01*
X1223602Y158957D01*
X1223693Y158937D01*
X1223784Y158912D01*
X1223873Y158885D01*
X1223961Y158853D01*
X1224048Y158818D01*
X1224134Y158780D01*
X1224217Y158738D01*
X1224299Y158693D01*
X1224380Y158645D01*
X1224458Y158593D01*
X1224534Y158538D01*
X1222516Y156676D02*
X1222457Y156712D01*
X1222401Y156752D01*
X1222347Y156795D01*
X1222295Y156840D01*
X1222246Y156889D01*
X1222200Y156940D01*
X1222157Y156993D01*
X1222116Y157049D01*
X1222079Y157107D01*
X1222044Y157167D01*
X1222014Y157228D01*
X1221986Y157291D01*
X1221962Y157356D01*
X1221942Y157422D01*
X1221925Y157489D01*
X1221912Y157556D01*
X1221903Y157624D01*
X1221897Y157693D01*
X1221895Y157762D01*
X1224223Y155744D02*
X1224282Y155708D01*
X1224338Y155668D01*
X1224392Y155625D01*
X1224444Y155580D01*
X1224493Y155531D01*
X1224539Y155480D01*
X1224582Y155427D01*
X1224623Y155371D01*
X1224660Y155313D01*
X1224695Y155253D01*
X1224725Y155192D01*
X1224753Y155129D01*
X1224777Y155064D01*
X1224797Y154998D01*
X1224814Y154931D01*
X1224827Y154864D01*
X1224836Y154796D01*
X1224842Y154727D01*
X1224844Y154658D01*
X1224224Y155744D02*
X1222516Y156676D01*
X1228723Y153416D02*
X1228793Y153418D01*
X1228862Y153424D01*
X1228931Y153434D01*
X1228999Y153447D01*
X1229067Y153465D01*
X1229133Y153486D01*
X1229198Y153511D01*
X1229262Y153539D01*
X1229324Y153571D01*
X1229384Y153606D01*
X1229442Y153645D01*
X1229497Y153687D01*
X1229551Y153732D01*
X1229601Y153780D01*
X1229649Y153830D01*
X1229694Y153884D01*
X1229736Y153939D01*
X1229775Y153997D01*
X1229810Y154057D01*
X1229842Y154119D01*
X1229870Y154183D01*
X1229895Y154248D01*
X1229916Y154314D01*
X1229934Y154382D01*
X1229947Y154450D01*
X1229957Y154519D01*
X1229963Y154588D01*
X1229965Y154658D01*
X1228723Y153416D02*
X1228624Y153418D01*
X1228526Y153423D01*
X1228428Y153433D01*
X1228330Y153446D01*
X1228233Y153462D01*
X1228136Y153482D01*
X1228041Y153506D01*
X1227946Y153534D01*
X1227852Y153565D01*
X1227760Y153599D01*
X1227669Y153637D01*
X1227579Y153678D01*
X1227491Y153723D01*
X1227405Y153771D01*
X1227321Y153822D01*
X1227239Y153876D01*
X1227158Y153934D01*
X1227080Y153994D01*
X1227005Y154057D01*
X1226931Y154123D01*
X1226861Y154192D01*
X1227016Y157762D02*
X1227018Y157832D01*
X1227024Y157901D01*
X1227034Y157970D01*
X1227047Y158038D01*
X1227065Y158106D01*
X1227086Y158172D01*
X1227111Y158237D01*
X1227139Y158301D01*
X1227171Y158363D01*
X1227206Y158423D01*
X1227245Y158481D01*
X1227287Y158536D01*
X1227332Y158590D01*
X1227380Y158640D01*
X1227430Y158688D01*
X1227484Y158733D01*
X1227539Y158775D01*
X1227597Y158814D01*
X1227657Y158849D01*
X1227719Y158881D01*
X1227783Y158909D01*
X1227848Y158934D01*
X1227914Y158955D01*
X1227982Y158973D01*
X1228050Y158986D01*
X1228119Y158996D01*
X1228188Y159002D01*
X1228258Y159004D01*
X1228352Y159002D01*
X1228445Y158996D01*
X1228538Y158987D01*
X1228631Y158974D01*
X1228723Y158957D01*
X1228814Y158937D01*
X1228905Y158912D01*
X1228994Y158885D01*
X1229082Y158853D01*
X1229169Y158818D01*
X1229255Y158780D01*
X1229338Y158738D01*
X1229420Y158693D01*
X1229501Y158645D01*
X1229579Y158593D01*
X1229655Y158538D01*
X1227637Y156676D02*
X1227578Y156712D01*
X1227522Y156752D01*
X1227468Y156795D01*
X1227416Y156840D01*
X1227367Y156889D01*
X1227321Y156940D01*
X1227278Y156993D01*
X1227237Y157049D01*
X1227200Y157107D01*
X1227165Y157167D01*
X1227135Y157228D01*
X1227107Y157291D01*
X1227083Y157356D01*
X1227063Y157422D01*
X1227046Y157489D01*
X1227033Y157556D01*
X1227024Y157624D01*
X1227018Y157693D01*
X1227016Y157762D01*
X1229344Y155744D02*
X1229403Y155708D01*
X1229459Y155668D01*
X1229513Y155625D01*
X1229565Y155580D01*
X1229614Y155531D01*
X1229660Y155480D01*
X1229703Y155427D01*
X1229744Y155371D01*
X1229781Y155313D01*
X1229816Y155253D01*
X1229846Y155192D01*
X1229874Y155129D01*
X1229898Y155064D01*
X1229918Y154998D01*
X1229935Y154931D01*
X1229948Y154864D01*
X1229957Y154796D01*
X1229963Y154727D01*
X1229965Y154658D01*
X1229344Y155744D02*
X1227637Y156676D01*
X1242314Y159004D02*
X1242314Y153416D01*
X1244177Y155900D02*
X1242314Y159004D01*
X1244177Y155900D02*
X1246039Y159004D01*
X1246039Y153416D01*
X1248659Y154968D02*
X1248659Y157452D01*
X1248660Y157452D02*
X1248662Y157529D01*
X1248668Y157607D01*
X1248677Y157683D01*
X1248691Y157760D01*
X1248708Y157835D01*
X1248729Y157909D01*
X1248754Y157983D01*
X1248782Y158055D01*
X1248814Y158125D01*
X1248849Y158194D01*
X1248888Y158261D01*
X1248930Y158326D01*
X1248975Y158389D01*
X1249023Y158450D01*
X1249074Y158508D01*
X1249128Y158563D01*
X1249185Y158616D01*
X1249244Y158665D01*
X1249306Y158712D01*
X1249370Y158756D01*
X1249436Y158796D01*
X1249504Y158833D01*
X1249574Y158867D01*
X1249645Y158897D01*
X1249718Y158923D01*
X1249792Y158946D01*
X1249867Y158965D01*
X1249942Y158980D01*
X1250019Y158992D01*
X1250096Y159000D01*
X1250173Y159004D01*
X1250251Y159004D01*
X1250328Y159000D01*
X1250405Y158992D01*
X1250482Y158980D01*
X1250557Y158965D01*
X1250632Y158946D01*
X1250706Y158923D01*
X1250779Y158897D01*
X1250850Y158867D01*
X1250920Y158833D01*
X1250988Y158796D01*
X1251054Y158756D01*
X1251118Y158712D01*
X1251180Y158665D01*
X1251239Y158616D01*
X1251296Y158563D01*
X1251350Y158508D01*
X1251401Y158450D01*
X1251449Y158389D01*
X1251494Y158326D01*
X1251536Y158261D01*
X1251575Y158194D01*
X1251610Y158125D01*
X1251642Y158055D01*
X1251670Y157983D01*
X1251695Y157909D01*
X1251716Y157835D01*
X1251733Y157760D01*
X1251747Y157683D01*
X1251756Y157607D01*
X1251762Y157529D01*
X1251764Y157452D01*
X1251764Y154968D01*
X1251762Y154891D01*
X1251756Y154813D01*
X1251747Y154737D01*
X1251733Y154660D01*
X1251716Y154585D01*
X1251695Y154511D01*
X1251670Y154437D01*
X1251642Y154365D01*
X1251610Y154295D01*
X1251575Y154226D01*
X1251536Y154159D01*
X1251494Y154094D01*
X1251449Y154031D01*
X1251401Y153970D01*
X1251350Y153912D01*
X1251296Y153857D01*
X1251239Y153804D01*
X1251180Y153755D01*
X1251118Y153708D01*
X1251054Y153664D01*
X1250988Y153624D01*
X1250920Y153587D01*
X1250850Y153553D01*
X1250779Y153523D01*
X1250706Y153497D01*
X1250632Y153474D01*
X1250557Y153455D01*
X1250482Y153440D01*
X1250405Y153428D01*
X1250328Y153420D01*
X1250251Y153416D01*
X1250173Y153416D01*
X1250096Y153420D01*
X1250019Y153428D01*
X1249942Y153440D01*
X1249867Y153455D01*
X1249792Y153474D01*
X1249718Y153497D01*
X1249645Y153523D01*
X1249574Y153553D01*
X1249504Y153587D01*
X1249436Y153624D01*
X1249370Y153664D01*
X1249306Y153708D01*
X1249244Y153755D01*
X1249185Y153804D01*
X1249128Y153857D01*
X1249074Y153912D01*
X1249023Y153970D01*
X1248975Y154031D01*
X1248930Y154094D01*
X1248888Y154159D01*
X1248849Y154226D01*
X1248814Y154295D01*
X1248782Y154365D01*
X1248754Y154437D01*
X1248729Y154511D01*
X1248708Y154585D01*
X1248691Y154660D01*
X1248677Y154737D01*
X1248668Y154813D01*
X1248662Y154891D01*
X1248660Y154968D01*
X1255826Y153416D02*
X1255896Y153418D01*
X1255965Y153424D01*
X1256034Y153434D01*
X1256102Y153447D01*
X1256170Y153465D01*
X1256236Y153486D01*
X1256301Y153511D01*
X1256365Y153539D01*
X1256427Y153571D01*
X1256487Y153606D01*
X1256545Y153645D01*
X1256600Y153687D01*
X1256654Y153732D01*
X1256704Y153780D01*
X1256752Y153830D01*
X1256797Y153884D01*
X1256839Y153939D01*
X1256878Y153997D01*
X1256913Y154057D01*
X1256945Y154119D01*
X1256973Y154183D01*
X1256998Y154248D01*
X1257019Y154314D01*
X1257037Y154382D01*
X1257050Y154450D01*
X1257060Y154519D01*
X1257066Y154588D01*
X1257068Y154658D01*
X1255826Y153416D02*
X1255727Y153418D01*
X1255629Y153423D01*
X1255531Y153433D01*
X1255433Y153446D01*
X1255336Y153462D01*
X1255239Y153482D01*
X1255144Y153506D01*
X1255049Y153534D01*
X1254955Y153565D01*
X1254863Y153599D01*
X1254772Y153637D01*
X1254682Y153678D01*
X1254594Y153723D01*
X1254508Y153771D01*
X1254424Y153822D01*
X1254342Y153876D01*
X1254261Y153934D01*
X1254183Y153994D01*
X1254108Y154057D01*
X1254034Y154123D01*
X1253964Y154192D01*
X1254118Y157762D02*
X1254120Y157832D01*
X1254126Y157901D01*
X1254136Y157970D01*
X1254149Y158038D01*
X1254167Y158106D01*
X1254188Y158172D01*
X1254213Y158237D01*
X1254241Y158301D01*
X1254273Y158363D01*
X1254308Y158423D01*
X1254347Y158481D01*
X1254389Y158536D01*
X1254434Y158590D01*
X1254482Y158640D01*
X1254532Y158688D01*
X1254586Y158733D01*
X1254641Y158775D01*
X1254699Y158814D01*
X1254759Y158849D01*
X1254821Y158881D01*
X1254885Y158909D01*
X1254950Y158934D01*
X1255016Y158955D01*
X1255084Y158973D01*
X1255152Y158986D01*
X1255221Y158996D01*
X1255290Y159002D01*
X1255360Y159004D01*
X1255454Y159002D01*
X1255547Y158996D01*
X1255640Y158987D01*
X1255733Y158974D01*
X1255825Y158957D01*
X1255916Y158937D01*
X1256007Y158912D01*
X1256096Y158885D01*
X1256184Y158853D01*
X1256271Y158818D01*
X1256357Y158780D01*
X1256440Y158738D01*
X1256522Y158693D01*
X1256603Y158645D01*
X1256681Y158593D01*
X1256757Y158538D01*
X1254739Y156676D02*
X1254680Y156712D01*
X1254624Y156752D01*
X1254570Y156795D01*
X1254518Y156840D01*
X1254469Y156889D01*
X1254423Y156940D01*
X1254380Y156993D01*
X1254339Y157049D01*
X1254302Y157107D01*
X1254267Y157167D01*
X1254237Y157228D01*
X1254209Y157291D01*
X1254185Y157356D01*
X1254165Y157422D01*
X1254148Y157489D01*
X1254135Y157556D01*
X1254126Y157624D01*
X1254120Y157693D01*
X1254118Y157762D01*
X1256446Y155744D02*
X1256505Y155708D01*
X1256561Y155668D01*
X1256615Y155625D01*
X1256667Y155580D01*
X1256716Y155531D01*
X1256762Y155480D01*
X1256805Y155427D01*
X1256846Y155371D01*
X1256883Y155313D01*
X1256918Y155253D01*
X1256948Y155192D01*
X1256976Y155129D01*
X1257000Y155064D01*
X1257020Y154998D01*
X1257037Y154931D01*
X1257050Y154864D01*
X1257059Y154796D01*
X1257065Y154727D01*
X1257067Y154658D01*
X1256447Y155744D02*
X1254739Y156676D01*
X1259721Y159004D02*
X1259721Y153416D01*
X1259101Y153416D02*
X1260342Y153416D01*
X1260342Y159004D02*
X1259101Y159004D01*
X1268476Y159004D02*
X1268476Y153416D01*
X1270339Y155900D02*
X1268476Y159004D01*
X1270339Y155900D02*
X1272201Y159004D01*
X1272201Y153416D01*
X1275276Y153416D02*
X1275276Y159004D01*
X1274656Y153416D02*
X1275897Y153416D01*
X1275897Y159004D02*
X1274656Y159004D01*
X1279793Y153416D02*
X1279863Y153418D01*
X1279932Y153424D01*
X1280001Y153434D01*
X1280069Y153447D01*
X1280137Y153465D01*
X1280203Y153486D01*
X1280268Y153511D01*
X1280332Y153539D01*
X1280394Y153571D01*
X1280454Y153606D01*
X1280512Y153645D01*
X1280567Y153687D01*
X1280621Y153732D01*
X1280671Y153780D01*
X1280719Y153830D01*
X1280764Y153884D01*
X1280806Y153939D01*
X1280845Y153997D01*
X1280880Y154057D01*
X1280912Y154119D01*
X1280940Y154183D01*
X1280965Y154248D01*
X1280986Y154314D01*
X1281004Y154382D01*
X1281017Y154450D01*
X1281027Y154519D01*
X1281033Y154588D01*
X1281035Y154658D01*
X1279793Y153416D02*
X1279694Y153418D01*
X1279596Y153423D01*
X1279498Y153433D01*
X1279400Y153446D01*
X1279303Y153462D01*
X1279206Y153482D01*
X1279111Y153506D01*
X1279016Y153534D01*
X1278922Y153565D01*
X1278830Y153599D01*
X1278739Y153637D01*
X1278649Y153678D01*
X1278561Y153723D01*
X1278475Y153771D01*
X1278391Y153822D01*
X1278309Y153876D01*
X1278228Y153934D01*
X1278150Y153994D01*
X1278075Y154057D01*
X1278001Y154123D01*
X1277931Y154192D01*
X1278085Y157762D02*
X1278087Y157832D01*
X1278093Y157901D01*
X1278103Y157970D01*
X1278116Y158038D01*
X1278134Y158106D01*
X1278155Y158172D01*
X1278180Y158237D01*
X1278208Y158301D01*
X1278240Y158363D01*
X1278275Y158423D01*
X1278314Y158481D01*
X1278356Y158536D01*
X1278401Y158590D01*
X1278449Y158640D01*
X1278499Y158688D01*
X1278553Y158733D01*
X1278608Y158775D01*
X1278666Y158814D01*
X1278726Y158849D01*
X1278788Y158881D01*
X1278852Y158909D01*
X1278917Y158934D01*
X1278983Y158955D01*
X1279051Y158973D01*
X1279119Y158986D01*
X1279188Y158996D01*
X1279257Y159002D01*
X1279327Y159004D01*
X1279421Y159002D01*
X1279514Y158996D01*
X1279607Y158987D01*
X1279700Y158974D01*
X1279792Y158957D01*
X1279883Y158937D01*
X1279974Y158912D01*
X1280063Y158885D01*
X1280151Y158853D01*
X1280238Y158818D01*
X1280324Y158780D01*
X1280407Y158738D01*
X1280489Y158693D01*
X1280570Y158645D01*
X1280648Y158593D01*
X1280724Y158538D01*
X1278707Y156676D02*
X1278648Y156712D01*
X1278592Y156752D01*
X1278538Y156795D01*
X1278486Y156840D01*
X1278437Y156889D01*
X1278391Y156940D01*
X1278348Y156993D01*
X1278307Y157049D01*
X1278270Y157107D01*
X1278235Y157167D01*
X1278205Y157228D01*
X1278177Y157291D01*
X1278153Y157356D01*
X1278133Y157422D01*
X1278116Y157489D01*
X1278103Y157556D01*
X1278094Y157624D01*
X1278088Y157693D01*
X1278086Y157762D01*
X1280414Y155744D02*
X1280473Y155708D01*
X1280529Y155668D01*
X1280583Y155625D01*
X1280635Y155580D01*
X1280684Y155531D01*
X1280730Y155480D01*
X1280773Y155427D01*
X1280814Y155371D01*
X1280851Y155313D01*
X1280886Y155253D01*
X1280916Y155192D01*
X1280944Y155129D01*
X1280968Y155064D01*
X1280988Y154998D01*
X1281005Y154931D01*
X1281018Y154864D01*
X1281027Y154796D01*
X1281033Y154727D01*
X1281035Y154658D01*
X1280414Y155744D02*
X1278707Y156676D01*
X1283234Y157452D02*
X1283234Y154968D01*
X1283234Y157452D02*
X1283236Y157529D01*
X1283242Y157607D01*
X1283251Y157683D01*
X1283265Y157760D01*
X1283282Y157835D01*
X1283303Y157909D01*
X1283328Y157983D01*
X1283356Y158055D01*
X1283388Y158125D01*
X1283423Y158194D01*
X1283462Y158261D01*
X1283504Y158326D01*
X1283549Y158389D01*
X1283597Y158450D01*
X1283648Y158508D01*
X1283702Y158563D01*
X1283759Y158616D01*
X1283818Y158665D01*
X1283880Y158712D01*
X1283944Y158756D01*
X1284010Y158796D01*
X1284078Y158833D01*
X1284148Y158867D01*
X1284219Y158897D01*
X1284292Y158923D01*
X1284366Y158946D01*
X1284441Y158965D01*
X1284516Y158980D01*
X1284593Y158992D01*
X1284670Y159000D01*
X1284747Y159004D01*
X1284825Y159004D01*
X1284902Y159000D01*
X1284979Y158992D01*
X1285056Y158980D01*
X1285131Y158965D01*
X1285206Y158946D01*
X1285280Y158923D01*
X1285353Y158897D01*
X1285424Y158867D01*
X1285494Y158833D01*
X1285562Y158796D01*
X1285628Y158756D01*
X1285692Y158712D01*
X1285754Y158665D01*
X1285813Y158616D01*
X1285870Y158563D01*
X1285924Y158508D01*
X1285975Y158450D01*
X1286023Y158389D01*
X1286068Y158326D01*
X1286110Y158261D01*
X1286149Y158194D01*
X1286184Y158125D01*
X1286216Y158055D01*
X1286244Y157983D01*
X1286269Y157909D01*
X1286290Y157835D01*
X1286307Y157760D01*
X1286321Y157683D01*
X1286330Y157607D01*
X1286336Y157529D01*
X1286338Y157452D01*
X1286338Y154968D01*
X1286336Y154891D01*
X1286330Y154813D01*
X1286321Y154737D01*
X1286307Y154660D01*
X1286290Y154585D01*
X1286269Y154511D01*
X1286244Y154437D01*
X1286216Y154365D01*
X1286184Y154295D01*
X1286149Y154226D01*
X1286110Y154159D01*
X1286068Y154094D01*
X1286023Y154031D01*
X1285975Y153970D01*
X1285924Y153912D01*
X1285870Y153857D01*
X1285813Y153804D01*
X1285754Y153755D01*
X1285692Y153708D01*
X1285628Y153664D01*
X1285562Y153624D01*
X1285494Y153587D01*
X1285424Y153553D01*
X1285353Y153523D01*
X1285280Y153497D01*
X1285206Y153474D01*
X1285131Y153455D01*
X1285056Y153440D01*
X1284979Y153428D01*
X1284902Y153420D01*
X1284825Y153416D01*
X1284747Y153416D01*
X1284670Y153420D01*
X1284593Y153428D01*
X1284516Y153440D01*
X1284441Y153455D01*
X1284366Y153474D01*
X1284292Y153497D01*
X1284219Y153523D01*
X1284148Y153553D01*
X1284078Y153587D01*
X1284010Y153624D01*
X1283944Y153664D01*
X1283880Y153708D01*
X1283818Y153755D01*
X1283759Y153804D01*
X1283702Y153857D01*
X1283648Y153912D01*
X1283597Y153970D01*
X1283549Y154031D01*
X1283504Y154094D01*
X1283462Y154159D01*
X1283423Y154226D01*
X1283388Y154295D01*
X1283356Y154365D01*
X1283328Y154437D01*
X1283303Y154511D01*
X1283282Y154585D01*
X1283265Y154660D01*
X1283251Y154737D01*
X1283242Y154813D01*
X1283236Y154891D01*
X1283234Y154968D01*
X1297009Y153670D02*
X1297079Y153672D01*
X1297148Y153678D01*
X1297217Y153688D01*
X1297285Y153701D01*
X1297353Y153719D01*
X1297419Y153740D01*
X1297484Y153765D01*
X1297548Y153793D01*
X1297610Y153825D01*
X1297670Y153860D01*
X1297728Y153899D01*
X1297783Y153941D01*
X1297837Y153986D01*
X1297887Y154034D01*
X1297935Y154084D01*
X1297980Y154138D01*
X1298022Y154193D01*
X1298061Y154251D01*
X1298096Y154311D01*
X1298128Y154373D01*
X1298156Y154437D01*
X1298181Y154502D01*
X1298202Y154568D01*
X1298220Y154636D01*
X1298233Y154704D01*
X1298243Y154773D01*
X1298249Y154842D01*
X1298251Y154912D01*
X1297009Y153670D02*
X1296910Y153672D01*
X1296812Y153677D01*
X1296714Y153687D01*
X1296616Y153700D01*
X1296519Y153716D01*
X1296422Y153736D01*
X1296327Y153760D01*
X1296232Y153788D01*
X1296138Y153819D01*
X1296046Y153853D01*
X1295955Y153891D01*
X1295865Y153932D01*
X1295777Y153977D01*
X1295691Y154025D01*
X1295607Y154076D01*
X1295525Y154130D01*
X1295444Y154188D01*
X1295366Y154248D01*
X1295291Y154311D01*
X1295217Y154377D01*
X1295147Y154446D01*
X1295301Y158016D02*
X1295303Y158086D01*
X1295309Y158155D01*
X1295319Y158224D01*
X1295332Y158292D01*
X1295350Y158360D01*
X1295371Y158426D01*
X1295396Y158491D01*
X1295424Y158555D01*
X1295456Y158617D01*
X1295491Y158677D01*
X1295530Y158735D01*
X1295572Y158790D01*
X1295617Y158844D01*
X1295665Y158894D01*
X1295715Y158942D01*
X1295769Y158987D01*
X1295824Y159029D01*
X1295882Y159068D01*
X1295942Y159103D01*
X1296004Y159135D01*
X1296068Y159163D01*
X1296133Y159188D01*
X1296199Y159209D01*
X1296267Y159227D01*
X1296335Y159240D01*
X1296404Y159250D01*
X1296473Y159256D01*
X1296543Y159258D01*
X1296637Y159256D01*
X1296730Y159250D01*
X1296823Y159241D01*
X1296916Y159228D01*
X1297008Y159211D01*
X1297099Y159191D01*
X1297190Y159166D01*
X1297279Y159139D01*
X1297367Y159107D01*
X1297454Y159072D01*
X1297540Y159034D01*
X1297623Y158992D01*
X1297705Y158947D01*
X1297786Y158899D01*
X1297864Y158847D01*
X1297940Y158792D01*
X1295922Y156930D02*
X1295863Y156966D01*
X1295807Y157006D01*
X1295753Y157049D01*
X1295701Y157094D01*
X1295652Y157143D01*
X1295606Y157194D01*
X1295563Y157247D01*
X1295522Y157303D01*
X1295485Y157361D01*
X1295450Y157421D01*
X1295420Y157482D01*
X1295392Y157545D01*
X1295368Y157610D01*
X1295348Y157676D01*
X1295331Y157743D01*
X1295318Y157810D01*
X1295309Y157878D01*
X1295303Y157947D01*
X1295301Y158016D01*
X1297629Y155998D02*
X1297688Y155962D01*
X1297744Y155922D01*
X1297798Y155879D01*
X1297850Y155834D01*
X1297899Y155785D01*
X1297945Y155734D01*
X1297988Y155681D01*
X1298029Y155625D01*
X1298066Y155567D01*
X1298101Y155507D01*
X1298131Y155446D01*
X1298159Y155383D01*
X1298183Y155318D01*
X1298203Y155252D01*
X1298220Y155185D01*
X1298233Y155118D01*
X1298242Y155050D01*
X1298248Y154981D01*
X1298250Y154912D01*
X1297630Y155998D02*
X1295922Y156930D01*
X1301675Y153670D02*
X1302917Y153670D01*
X1301675Y153670D02*
X1301605Y153672D01*
X1301536Y153678D01*
X1301467Y153688D01*
X1301399Y153701D01*
X1301331Y153719D01*
X1301265Y153740D01*
X1301200Y153765D01*
X1301136Y153793D01*
X1301074Y153825D01*
X1301014Y153860D01*
X1300956Y153899D01*
X1300901Y153941D01*
X1300847Y153986D01*
X1300797Y154034D01*
X1300749Y154084D01*
X1300704Y154138D01*
X1300662Y154193D01*
X1300623Y154251D01*
X1300588Y154311D01*
X1300556Y154373D01*
X1300528Y154437D01*
X1300503Y154502D01*
X1300482Y154568D01*
X1300464Y154636D01*
X1300451Y154704D01*
X1300441Y154773D01*
X1300435Y154842D01*
X1300433Y154912D01*
X1300433Y158016D01*
X1300435Y158086D01*
X1300441Y158155D01*
X1300451Y158224D01*
X1300464Y158292D01*
X1300482Y158360D01*
X1300503Y158426D01*
X1300528Y158491D01*
X1300556Y158555D01*
X1300588Y158617D01*
X1300623Y158677D01*
X1300662Y158735D01*
X1300704Y158790D01*
X1300749Y158844D01*
X1300797Y158894D01*
X1300847Y158942D01*
X1300901Y158987D01*
X1300956Y159029D01*
X1301014Y159068D01*
X1301074Y159103D01*
X1301136Y159135D01*
X1301200Y159163D01*
X1301265Y159188D01*
X1301331Y159209D01*
X1301399Y159227D01*
X1301467Y159240D01*
X1301536Y159250D01*
X1301605Y159256D01*
X1301675Y159258D01*
X1302917Y159258D01*
X1305287Y159258D02*
X1305287Y153670D01*
X1305287Y155843D02*
X1308392Y159258D01*
X1306529Y157085D02*
X1308392Y153670D01*
X1320038Y159258D02*
X1321901Y153670D01*
X1323763Y159258D01*
X1326018Y159258D02*
X1326018Y153670D01*
X1326018Y159258D02*
X1327570Y159258D01*
X1327646Y159256D01*
X1327722Y159251D01*
X1327798Y159241D01*
X1327873Y159228D01*
X1327947Y159211D01*
X1328021Y159191D01*
X1328093Y159167D01*
X1328164Y159140D01*
X1328234Y159109D01*
X1328302Y159075D01*
X1328368Y159037D01*
X1328432Y158996D01*
X1328495Y158953D01*
X1328555Y158906D01*
X1328612Y158856D01*
X1328667Y158803D01*
X1328720Y158748D01*
X1328770Y158691D01*
X1328817Y158631D01*
X1328860Y158568D01*
X1328901Y158504D01*
X1328939Y158438D01*
X1328973Y158370D01*
X1329004Y158300D01*
X1329031Y158229D01*
X1329055Y158156D01*
X1329075Y158083D01*
X1329092Y158009D01*
X1329105Y157934D01*
X1329115Y157858D01*
X1329120Y157782D01*
X1329122Y157706D01*
X1329122Y155222D01*
X1329120Y155143D01*
X1329114Y155065D01*
X1329104Y154987D01*
X1329090Y154910D01*
X1329072Y154833D01*
X1329051Y154757D01*
X1329025Y154683D01*
X1328996Y154610D01*
X1328963Y154539D01*
X1328927Y154469D01*
X1328887Y154401D01*
X1328844Y154335D01*
X1328797Y154272D01*
X1328748Y154211D01*
X1328695Y154153D01*
X1328639Y154097D01*
X1328581Y154044D01*
X1328520Y153995D01*
X1328457Y153948D01*
X1328391Y153905D01*
X1328323Y153865D01*
X1328254Y153829D01*
X1328182Y153796D01*
X1328109Y153767D01*
X1328035Y153741D01*
X1327959Y153720D01*
X1327882Y153702D01*
X1327805Y153688D01*
X1327727Y153678D01*
X1327649Y153672D01*
X1327570Y153670D01*
X1326018Y153670D01*
X1331870Y153670D02*
X1331870Y159258D01*
X1333422Y159258D01*
X1333498Y159256D01*
X1333574Y159251D01*
X1333650Y159241D01*
X1333725Y159228D01*
X1333799Y159211D01*
X1333873Y159191D01*
X1333945Y159167D01*
X1334016Y159140D01*
X1334086Y159109D01*
X1334154Y159075D01*
X1334220Y159037D01*
X1334284Y158996D01*
X1334347Y158953D01*
X1334407Y158906D01*
X1334464Y158856D01*
X1334519Y158803D01*
X1334572Y158748D01*
X1334622Y158691D01*
X1334669Y158631D01*
X1334712Y158568D01*
X1334753Y158504D01*
X1334791Y158438D01*
X1334825Y158370D01*
X1334856Y158300D01*
X1334883Y158229D01*
X1334907Y158156D01*
X1334927Y158083D01*
X1334944Y158009D01*
X1334957Y157934D01*
X1334967Y157858D01*
X1334972Y157782D01*
X1334974Y157706D01*
X1334974Y155222D01*
X1334972Y155143D01*
X1334966Y155065D01*
X1334956Y154987D01*
X1334942Y154910D01*
X1334924Y154833D01*
X1334903Y154757D01*
X1334877Y154683D01*
X1334848Y154610D01*
X1334815Y154539D01*
X1334779Y154469D01*
X1334739Y154401D01*
X1334696Y154335D01*
X1334649Y154272D01*
X1334600Y154211D01*
X1334547Y154153D01*
X1334491Y154097D01*
X1334433Y154044D01*
X1334372Y153995D01*
X1334309Y153948D01*
X1334243Y153905D01*
X1334175Y153865D01*
X1334106Y153829D01*
X1334034Y153796D01*
X1333961Y153767D01*
X1333887Y153741D01*
X1333811Y153720D01*
X1333734Y153702D01*
X1333657Y153688D01*
X1333579Y153678D01*
X1333501Y153672D01*
X1333422Y153670D01*
X1331870Y153670D01*
X1221599Y177800D02*
X1221599Y183388D01*
X1220978Y177800D02*
X1222220Y177800D01*
X1222220Y183388D02*
X1220978Y183388D01*
X1224619Y183388D02*
X1224619Y177800D01*
X1227723Y177800D02*
X1224619Y183388D01*
X1227723Y183388D02*
X1227723Y177800D01*
X1231474Y177800D02*
X1231474Y183388D01*
X1229922Y183388D02*
X1233027Y183388D01*
X1243274Y181384D02*
X1244120Y181384D01*
X1244120Y178562D01*
X1242427Y178562D01*
X1242361Y178564D01*
X1242296Y178570D01*
X1242231Y178579D01*
X1242167Y178592D01*
X1242103Y178609D01*
X1242041Y178630D01*
X1241980Y178654D01*
X1241920Y178682D01*
X1241863Y178713D01*
X1241807Y178748D01*
X1241753Y178785D01*
X1241701Y178826D01*
X1241652Y178870D01*
X1241606Y178916D01*
X1241562Y178965D01*
X1241521Y179017D01*
X1241484Y179071D01*
X1241449Y179127D01*
X1241418Y179184D01*
X1241390Y179244D01*
X1241366Y179305D01*
X1241345Y179367D01*
X1241328Y179431D01*
X1241315Y179495D01*
X1241306Y179560D01*
X1241300Y179625D01*
X1241298Y179691D01*
X1241298Y182513D01*
X1241300Y182579D01*
X1241306Y182644D01*
X1241315Y182709D01*
X1241328Y182773D01*
X1241345Y182837D01*
X1241366Y182899D01*
X1241390Y182960D01*
X1241418Y183020D01*
X1241449Y183077D01*
X1241484Y183133D01*
X1241521Y183187D01*
X1241562Y183239D01*
X1241606Y183288D01*
X1241652Y183334D01*
X1241701Y183378D01*
X1241753Y183419D01*
X1241807Y183456D01*
X1241862Y183491D01*
X1241920Y183522D01*
X1241980Y183550D01*
X1242041Y183574D01*
X1242103Y183595D01*
X1242167Y183612D01*
X1242231Y183625D01*
X1242296Y183634D01*
X1242361Y183640D01*
X1242427Y183642D01*
X1244120Y183642D01*
X1246742Y183642D02*
X1246742Y178562D01*
X1246742Y183642D02*
X1248153Y183642D01*
X1248227Y183640D01*
X1248300Y183634D01*
X1248374Y183625D01*
X1248446Y183611D01*
X1248518Y183594D01*
X1248589Y183573D01*
X1248659Y183548D01*
X1248727Y183520D01*
X1248794Y183488D01*
X1248859Y183453D01*
X1248921Y183414D01*
X1248982Y183373D01*
X1249041Y183328D01*
X1249097Y183280D01*
X1249151Y183229D01*
X1249202Y183175D01*
X1249250Y183119D01*
X1249295Y183060D01*
X1249336Y182999D01*
X1249375Y182937D01*
X1249410Y182872D01*
X1249442Y182805D01*
X1249470Y182737D01*
X1249495Y182667D01*
X1249516Y182596D01*
X1249533Y182524D01*
X1249547Y182452D01*
X1249556Y182378D01*
X1249562Y182305D01*
X1249564Y182231D01*
X1249562Y182157D01*
X1249556Y182084D01*
X1249547Y182010D01*
X1249533Y181938D01*
X1249516Y181866D01*
X1249495Y181795D01*
X1249470Y181725D01*
X1249442Y181657D01*
X1249410Y181590D01*
X1249375Y181526D01*
X1249336Y181463D01*
X1249295Y181402D01*
X1249250Y181343D01*
X1249202Y181287D01*
X1249151Y181233D01*
X1249097Y181182D01*
X1249041Y181134D01*
X1248982Y181089D01*
X1248921Y181048D01*
X1248859Y181009D01*
X1248794Y180974D01*
X1248727Y180942D01*
X1248659Y180914D01*
X1248589Y180889D01*
X1248518Y180868D01*
X1248446Y180851D01*
X1248374Y180837D01*
X1248300Y180828D01*
X1248227Y180822D01*
X1248153Y180820D01*
X1246742Y180820D01*
X1251929Y178562D02*
X1251929Y183642D01*
X1251365Y178562D02*
X1252494Y178562D01*
X1252494Y183642D02*
X1251365Y183642D01*
X1254542Y182231D02*
X1254542Y179973D01*
X1254542Y182231D02*
X1254544Y182305D01*
X1254550Y182378D01*
X1254559Y182452D01*
X1254573Y182524D01*
X1254590Y182596D01*
X1254611Y182667D01*
X1254636Y182737D01*
X1254664Y182805D01*
X1254696Y182872D01*
X1254731Y182937D01*
X1254770Y182999D01*
X1254811Y183060D01*
X1254856Y183119D01*
X1254904Y183175D01*
X1254955Y183229D01*
X1255009Y183280D01*
X1255065Y183328D01*
X1255124Y183373D01*
X1255185Y183414D01*
X1255248Y183453D01*
X1255312Y183488D01*
X1255379Y183520D01*
X1255447Y183548D01*
X1255517Y183573D01*
X1255588Y183594D01*
X1255660Y183611D01*
X1255732Y183625D01*
X1255806Y183634D01*
X1255879Y183640D01*
X1255953Y183642D01*
X1256027Y183640D01*
X1256100Y183634D01*
X1256174Y183625D01*
X1256246Y183611D01*
X1256318Y183594D01*
X1256389Y183573D01*
X1256459Y183548D01*
X1256527Y183520D01*
X1256594Y183488D01*
X1256659Y183453D01*
X1256721Y183414D01*
X1256782Y183373D01*
X1256841Y183328D01*
X1256897Y183280D01*
X1256951Y183229D01*
X1257002Y183175D01*
X1257050Y183119D01*
X1257095Y183060D01*
X1257136Y182999D01*
X1257175Y182937D01*
X1257210Y182872D01*
X1257242Y182805D01*
X1257270Y182737D01*
X1257295Y182667D01*
X1257316Y182596D01*
X1257333Y182524D01*
X1257347Y182452D01*
X1257356Y182378D01*
X1257362Y182305D01*
X1257364Y182231D01*
X1257364Y179973D01*
X1257362Y179899D01*
X1257356Y179826D01*
X1257347Y179752D01*
X1257333Y179680D01*
X1257316Y179608D01*
X1257295Y179537D01*
X1257270Y179467D01*
X1257242Y179399D01*
X1257210Y179332D01*
X1257175Y179268D01*
X1257136Y179205D01*
X1257095Y179144D01*
X1257050Y179085D01*
X1257002Y179029D01*
X1256951Y178975D01*
X1256897Y178924D01*
X1256841Y178876D01*
X1256782Y178831D01*
X1256721Y178790D01*
X1256659Y178751D01*
X1256594Y178716D01*
X1256527Y178684D01*
X1256459Y178656D01*
X1256389Y178631D01*
X1256318Y178610D01*
X1256246Y178593D01*
X1256174Y178579D01*
X1256100Y178570D01*
X1256027Y178564D01*
X1255953Y178562D01*
X1255879Y178564D01*
X1255806Y178570D01*
X1255732Y178579D01*
X1255660Y178593D01*
X1255588Y178610D01*
X1255517Y178631D01*
X1255447Y178656D01*
X1255379Y178684D01*
X1255312Y178716D01*
X1255248Y178751D01*
X1255185Y178790D01*
X1255124Y178831D01*
X1255065Y178876D01*
X1255009Y178924D01*
X1254955Y178975D01*
X1254904Y179029D01*
X1254856Y179085D01*
X1254811Y179144D01*
X1254770Y179205D01*
X1254731Y179268D01*
X1254696Y179332D01*
X1254664Y179399D01*
X1254636Y179467D01*
X1254611Y179537D01*
X1254590Y179608D01*
X1254573Y179680D01*
X1254559Y179752D01*
X1254550Y179826D01*
X1254544Y179899D01*
X1254542Y179973D01*
X1259571Y182513D02*
X1260982Y183642D01*
X1260982Y178562D01*
X1259571Y178562D02*
X1262393Y178562D01*
X1269436Y181384D02*
X1270282Y181384D01*
X1270282Y178562D01*
X1268589Y178562D01*
X1268523Y178564D01*
X1268458Y178570D01*
X1268393Y178579D01*
X1268329Y178592D01*
X1268265Y178609D01*
X1268203Y178630D01*
X1268142Y178654D01*
X1268082Y178682D01*
X1268025Y178713D01*
X1267969Y178748D01*
X1267915Y178785D01*
X1267863Y178826D01*
X1267814Y178870D01*
X1267768Y178916D01*
X1267724Y178965D01*
X1267683Y179017D01*
X1267646Y179071D01*
X1267611Y179127D01*
X1267580Y179184D01*
X1267552Y179244D01*
X1267528Y179305D01*
X1267507Y179367D01*
X1267490Y179431D01*
X1267477Y179495D01*
X1267468Y179560D01*
X1267462Y179625D01*
X1267460Y179691D01*
X1267460Y182513D01*
X1267462Y182579D01*
X1267468Y182644D01*
X1267477Y182709D01*
X1267490Y182773D01*
X1267507Y182837D01*
X1267528Y182899D01*
X1267552Y182960D01*
X1267580Y183020D01*
X1267611Y183077D01*
X1267646Y183133D01*
X1267683Y183187D01*
X1267724Y183239D01*
X1267768Y183288D01*
X1267814Y183334D01*
X1267863Y183378D01*
X1267915Y183419D01*
X1267969Y183456D01*
X1268024Y183491D01*
X1268082Y183522D01*
X1268142Y183550D01*
X1268203Y183574D01*
X1268265Y183595D01*
X1268329Y183612D01*
X1268393Y183625D01*
X1268458Y183634D01*
X1268523Y183640D01*
X1268589Y183642D01*
X1270282Y183642D01*
X1272904Y183642D02*
X1272904Y178562D01*
X1272904Y183642D02*
X1274315Y183642D01*
X1274389Y183640D01*
X1274462Y183634D01*
X1274536Y183625D01*
X1274608Y183611D01*
X1274680Y183594D01*
X1274751Y183573D01*
X1274821Y183548D01*
X1274889Y183520D01*
X1274956Y183488D01*
X1275021Y183453D01*
X1275083Y183414D01*
X1275144Y183373D01*
X1275203Y183328D01*
X1275259Y183280D01*
X1275313Y183229D01*
X1275364Y183175D01*
X1275412Y183119D01*
X1275457Y183060D01*
X1275498Y182999D01*
X1275537Y182937D01*
X1275572Y182872D01*
X1275604Y182805D01*
X1275632Y182737D01*
X1275657Y182667D01*
X1275678Y182596D01*
X1275695Y182524D01*
X1275709Y182452D01*
X1275718Y182378D01*
X1275724Y182305D01*
X1275726Y182231D01*
X1275724Y182157D01*
X1275718Y182084D01*
X1275709Y182010D01*
X1275695Y181938D01*
X1275678Y181866D01*
X1275657Y181795D01*
X1275632Y181725D01*
X1275604Y181657D01*
X1275572Y181590D01*
X1275537Y181526D01*
X1275498Y181463D01*
X1275457Y181402D01*
X1275412Y181343D01*
X1275364Y181287D01*
X1275313Y181233D01*
X1275259Y181182D01*
X1275203Y181134D01*
X1275144Y181089D01*
X1275083Y181048D01*
X1275021Y181009D01*
X1274956Y180974D01*
X1274889Y180942D01*
X1274821Y180914D01*
X1274751Y180889D01*
X1274680Y180868D01*
X1274608Y180851D01*
X1274536Y180837D01*
X1274462Y180828D01*
X1274389Y180822D01*
X1274315Y180820D01*
X1272904Y180820D01*
X1278091Y178562D02*
X1278091Y183642D01*
X1277527Y178562D02*
X1278656Y178562D01*
X1278656Y183642D02*
X1277527Y183642D01*
X1280704Y182231D02*
X1280704Y179973D01*
X1280704Y182231D02*
X1280706Y182305D01*
X1280712Y182378D01*
X1280721Y182452D01*
X1280735Y182524D01*
X1280752Y182596D01*
X1280773Y182667D01*
X1280798Y182737D01*
X1280826Y182805D01*
X1280858Y182872D01*
X1280893Y182937D01*
X1280932Y182999D01*
X1280973Y183060D01*
X1281018Y183119D01*
X1281066Y183175D01*
X1281117Y183229D01*
X1281171Y183280D01*
X1281227Y183328D01*
X1281286Y183373D01*
X1281347Y183414D01*
X1281410Y183453D01*
X1281474Y183488D01*
X1281541Y183520D01*
X1281609Y183548D01*
X1281679Y183573D01*
X1281750Y183594D01*
X1281822Y183611D01*
X1281894Y183625D01*
X1281968Y183634D01*
X1282041Y183640D01*
X1282115Y183642D01*
X1282189Y183640D01*
X1282262Y183634D01*
X1282336Y183625D01*
X1282408Y183611D01*
X1282480Y183594D01*
X1282551Y183573D01*
X1282621Y183548D01*
X1282689Y183520D01*
X1282756Y183488D01*
X1282821Y183453D01*
X1282883Y183414D01*
X1282944Y183373D01*
X1283003Y183328D01*
X1283059Y183280D01*
X1283113Y183229D01*
X1283164Y183175D01*
X1283212Y183119D01*
X1283257Y183060D01*
X1283298Y182999D01*
X1283337Y182937D01*
X1283372Y182872D01*
X1283404Y182805D01*
X1283432Y182737D01*
X1283457Y182667D01*
X1283478Y182596D01*
X1283495Y182524D01*
X1283509Y182452D01*
X1283518Y182378D01*
X1283524Y182305D01*
X1283526Y182231D01*
X1283526Y179973D01*
X1283524Y179899D01*
X1283518Y179826D01*
X1283509Y179752D01*
X1283495Y179680D01*
X1283478Y179608D01*
X1283457Y179537D01*
X1283432Y179467D01*
X1283404Y179399D01*
X1283372Y179332D01*
X1283337Y179268D01*
X1283298Y179205D01*
X1283257Y179144D01*
X1283212Y179085D01*
X1283164Y179029D01*
X1283113Y178975D01*
X1283059Y178924D01*
X1283003Y178876D01*
X1282944Y178831D01*
X1282883Y178790D01*
X1282821Y178751D01*
X1282756Y178716D01*
X1282689Y178684D01*
X1282621Y178656D01*
X1282551Y178631D01*
X1282480Y178610D01*
X1282408Y178593D01*
X1282336Y178579D01*
X1282262Y178570D01*
X1282189Y178564D01*
X1282115Y178562D01*
X1282041Y178564D01*
X1281968Y178570D01*
X1281894Y178579D01*
X1281822Y178593D01*
X1281750Y178610D01*
X1281679Y178631D01*
X1281609Y178656D01*
X1281541Y178684D01*
X1281474Y178716D01*
X1281410Y178751D01*
X1281347Y178790D01*
X1281286Y178831D01*
X1281227Y178876D01*
X1281171Y178924D01*
X1281117Y178975D01*
X1281066Y179029D01*
X1281018Y179085D01*
X1280973Y179144D01*
X1280932Y179205D01*
X1280893Y179268D01*
X1280858Y179332D01*
X1280826Y179399D01*
X1280798Y179467D01*
X1280773Y179537D01*
X1280752Y179608D01*
X1280735Y179680D01*
X1280721Y179752D01*
X1280712Y179826D01*
X1280706Y179899D01*
X1280704Y179973D01*
X1287285Y183642D02*
X1287354Y183640D01*
X1287422Y183635D01*
X1287490Y183625D01*
X1287558Y183612D01*
X1287625Y183596D01*
X1287691Y183576D01*
X1287755Y183552D01*
X1287818Y183525D01*
X1287880Y183494D01*
X1287940Y183460D01*
X1287998Y183423D01*
X1288054Y183383D01*
X1288107Y183340D01*
X1288158Y183294D01*
X1288207Y183245D01*
X1288253Y183194D01*
X1288296Y183141D01*
X1288336Y183085D01*
X1288373Y183027D01*
X1288407Y182967D01*
X1288438Y182905D01*
X1288465Y182842D01*
X1288489Y182778D01*
X1288509Y182712D01*
X1288525Y182645D01*
X1288538Y182577D01*
X1288548Y182509D01*
X1288553Y182441D01*
X1288555Y182372D01*
X1287285Y183642D02*
X1287206Y183640D01*
X1287127Y183634D01*
X1287049Y183625D01*
X1286971Y183612D01*
X1286894Y183595D01*
X1286818Y183574D01*
X1286743Y183549D01*
X1286669Y183521D01*
X1286597Y183490D01*
X1286526Y183455D01*
X1286457Y183416D01*
X1286390Y183375D01*
X1286325Y183330D01*
X1286262Y183282D01*
X1286202Y183231D01*
X1286144Y183177D01*
X1286089Y183121D01*
X1286037Y183062D01*
X1285988Y183000D01*
X1285941Y182936D01*
X1285898Y182870D01*
X1285858Y182802D01*
X1285821Y182732D01*
X1285788Y182660D01*
X1285759Y182587D01*
X1285732Y182513D01*
X1288132Y181384D02*
X1288180Y181433D01*
X1288227Y181484D01*
X1288270Y181538D01*
X1288311Y181594D01*
X1288349Y181651D01*
X1288384Y181711D01*
X1288416Y181772D01*
X1288445Y181835D01*
X1288470Y181899D01*
X1288493Y181964D01*
X1288512Y182031D01*
X1288527Y182098D01*
X1288539Y182166D01*
X1288548Y182234D01*
X1288553Y182303D01*
X1288555Y182372D01*
X1288132Y181384D02*
X1285733Y178562D01*
X1288555Y178562D01*
X1296557Y181412D02*
X1297488Y181412D01*
X1297488Y178308D01*
X1295626Y178308D01*
X1295556Y178310D01*
X1295487Y178316D01*
X1295418Y178326D01*
X1295350Y178339D01*
X1295282Y178357D01*
X1295216Y178378D01*
X1295151Y178403D01*
X1295087Y178431D01*
X1295025Y178463D01*
X1294965Y178498D01*
X1294907Y178537D01*
X1294852Y178579D01*
X1294798Y178624D01*
X1294748Y178672D01*
X1294700Y178722D01*
X1294655Y178776D01*
X1294613Y178831D01*
X1294574Y178889D01*
X1294539Y178949D01*
X1294507Y179011D01*
X1294479Y179075D01*
X1294454Y179140D01*
X1294433Y179206D01*
X1294415Y179274D01*
X1294402Y179342D01*
X1294392Y179411D01*
X1294386Y179480D01*
X1294384Y179550D01*
X1294384Y182654D01*
X1294386Y182724D01*
X1294392Y182793D01*
X1294402Y182862D01*
X1294415Y182930D01*
X1294433Y182998D01*
X1294454Y183064D01*
X1294479Y183129D01*
X1294507Y183193D01*
X1294539Y183255D01*
X1294574Y183315D01*
X1294613Y183373D01*
X1294655Y183428D01*
X1294700Y183482D01*
X1294748Y183532D01*
X1294798Y183580D01*
X1294852Y183625D01*
X1294907Y183667D01*
X1294965Y183706D01*
X1295025Y183741D01*
X1295087Y183773D01*
X1295151Y183801D01*
X1295216Y183826D01*
X1295282Y183847D01*
X1295350Y183865D01*
X1295418Y183878D01*
X1295487Y183888D01*
X1295556Y183894D01*
X1295626Y183896D01*
X1297488Y183896D01*
X1300236Y183896D02*
X1300236Y178308D01*
X1303341Y178308D02*
X1300236Y183896D01*
X1303341Y183896D02*
X1303341Y178308D01*
X1306088Y178308D02*
X1306088Y183896D01*
X1307640Y183896D01*
X1307716Y183894D01*
X1307792Y183889D01*
X1307868Y183879D01*
X1307943Y183866D01*
X1308017Y183849D01*
X1308091Y183829D01*
X1308163Y183805D01*
X1308234Y183778D01*
X1308304Y183747D01*
X1308372Y183713D01*
X1308438Y183675D01*
X1308502Y183634D01*
X1308565Y183591D01*
X1308625Y183544D01*
X1308682Y183494D01*
X1308737Y183441D01*
X1308790Y183386D01*
X1308840Y183329D01*
X1308887Y183269D01*
X1308930Y183206D01*
X1308971Y183142D01*
X1309009Y183076D01*
X1309043Y183008D01*
X1309074Y182938D01*
X1309101Y182867D01*
X1309125Y182794D01*
X1309145Y182721D01*
X1309162Y182647D01*
X1309175Y182572D01*
X1309185Y182496D01*
X1309190Y182420D01*
X1309192Y182344D01*
X1309193Y182344D02*
X1309193Y179860D01*
X1309192Y179860D02*
X1309190Y179781D01*
X1309184Y179703D01*
X1309174Y179625D01*
X1309160Y179548D01*
X1309142Y179471D01*
X1309121Y179395D01*
X1309095Y179321D01*
X1309066Y179248D01*
X1309033Y179177D01*
X1308997Y179107D01*
X1308957Y179039D01*
X1308914Y178973D01*
X1308867Y178910D01*
X1308818Y178849D01*
X1308765Y178791D01*
X1308709Y178735D01*
X1308651Y178682D01*
X1308590Y178633D01*
X1308527Y178586D01*
X1308461Y178543D01*
X1308393Y178503D01*
X1308324Y178467D01*
X1308252Y178434D01*
X1308179Y178405D01*
X1308105Y178379D01*
X1308029Y178358D01*
X1307952Y178340D01*
X1307875Y178326D01*
X1307797Y178316D01*
X1307719Y178310D01*
X1307640Y178308D01*
X1306088Y178308D01*
X1318006Y178308D02*
X1318006Y183896D01*
X1319558Y183896D01*
X1319635Y183894D01*
X1319713Y183888D01*
X1319789Y183879D01*
X1319866Y183865D01*
X1319941Y183848D01*
X1320015Y183827D01*
X1320089Y183802D01*
X1320161Y183774D01*
X1320231Y183742D01*
X1320300Y183707D01*
X1320367Y183668D01*
X1320432Y183626D01*
X1320495Y183581D01*
X1320556Y183533D01*
X1320614Y183482D01*
X1320669Y183428D01*
X1320722Y183371D01*
X1320771Y183312D01*
X1320818Y183250D01*
X1320862Y183186D01*
X1320902Y183120D01*
X1320939Y183052D01*
X1320973Y182982D01*
X1321003Y182911D01*
X1321029Y182838D01*
X1321052Y182764D01*
X1321071Y182689D01*
X1321086Y182614D01*
X1321098Y182537D01*
X1321106Y182460D01*
X1321110Y182383D01*
X1321110Y182305D01*
X1321106Y182228D01*
X1321098Y182151D01*
X1321086Y182074D01*
X1321071Y181999D01*
X1321052Y181924D01*
X1321029Y181850D01*
X1321003Y181777D01*
X1320973Y181706D01*
X1320939Y181636D01*
X1320902Y181568D01*
X1320862Y181502D01*
X1320818Y181438D01*
X1320771Y181376D01*
X1320722Y181317D01*
X1320669Y181260D01*
X1320614Y181206D01*
X1320556Y181155D01*
X1320495Y181107D01*
X1320432Y181062D01*
X1320367Y181020D01*
X1320300Y180981D01*
X1320231Y180946D01*
X1320161Y180914D01*
X1320089Y180886D01*
X1320015Y180861D01*
X1319941Y180840D01*
X1319866Y180823D01*
X1319789Y180809D01*
X1319713Y180800D01*
X1319635Y180794D01*
X1319558Y180792D01*
X1318006Y180792D01*
X1323409Y178308D02*
X1323409Y183896D01*
X1324962Y183896D01*
X1325038Y183894D01*
X1325114Y183889D01*
X1325190Y183879D01*
X1325265Y183866D01*
X1325339Y183849D01*
X1325413Y183829D01*
X1325485Y183805D01*
X1325556Y183778D01*
X1325626Y183747D01*
X1325694Y183713D01*
X1325760Y183675D01*
X1325824Y183634D01*
X1325887Y183591D01*
X1325947Y183544D01*
X1326004Y183494D01*
X1326059Y183441D01*
X1326112Y183386D01*
X1326162Y183329D01*
X1326209Y183269D01*
X1326252Y183206D01*
X1326293Y183142D01*
X1326331Y183076D01*
X1326365Y183008D01*
X1326396Y182938D01*
X1326423Y182867D01*
X1326447Y182794D01*
X1326467Y182721D01*
X1326484Y182647D01*
X1326497Y182572D01*
X1326507Y182496D01*
X1326512Y182420D01*
X1326514Y182344D01*
X1326514Y179860D01*
X1326512Y179781D01*
X1326506Y179703D01*
X1326496Y179625D01*
X1326482Y179548D01*
X1326464Y179471D01*
X1326443Y179395D01*
X1326417Y179321D01*
X1326388Y179248D01*
X1326355Y179177D01*
X1326319Y179107D01*
X1326279Y179039D01*
X1326236Y178973D01*
X1326189Y178910D01*
X1326140Y178849D01*
X1326087Y178791D01*
X1326031Y178735D01*
X1325973Y178682D01*
X1325912Y178633D01*
X1325849Y178586D01*
X1325783Y178543D01*
X1325715Y178503D01*
X1325646Y178467D01*
X1325574Y178434D01*
X1325501Y178405D01*
X1325427Y178379D01*
X1325351Y178358D01*
X1325274Y178340D01*
X1325197Y178326D01*
X1325119Y178316D01*
X1325041Y178310D01*
X1324962Y178308D01*
X1323409Y178308D01*
X1328840Y177687D02*
X1331324Y177687D01*
X1335824Y181412D02*
X1336755Y181412D01*
X1336755Y178308D01*
X1334892Y178308D01*
X1334822Y178310D01*
X1334753Y178316D01*
X1334684Y178326D01*
X1334616Y178339D01*
X1334548Y178357D01*
X1334482Y178378D01*
X1334417Y178403D01*
X1334353Y178431D01*
X1334291Y178463D01*
X1334231Y178498D01*
X1334173Y178537D01*
X1334118Y178579D01*
X1334064Y178624D01*
X1334014Y178672D01*
X1333966Y178722D01*
X1333921Y178776D01*
X1333879Y178831D01*
X1333840Y178889D01*
X1333805Y178949D01*
X1333773Y179011D01*
X1333745Y179075D01*
X1333720Y179140D01*
X1333699Y179206D01*
X1333681Y179274D01*
X1333668Y179342D01*
X1333658Y179411D01*
X1333652Y179480D01*
X1333650Y179550D01*
X1333651Y179550D02*
X1333651Y182654D01*
X1333650Y182654D02*
X1333652Y182724D01*
X1333658Y182793D01*
X1333668Y182862D01*
X1333681Y182930D01*
X1333699Y182998D01*
X1333720Y183064D01*
X1333745Y183129D01*
X1333773Y183193D01*
X1333805Y183255D01*
X1333840Y183315D01*
X1333879Y183373D01*
X1333921Y183428D01*
X1333966Y183482D01*
X1334014Y183532D01*
X1334064Y183580D01*
X1334118Y183625D01*
X1334173Y183667D01*
X1334231Y183706D01*
X1334291Y183741D01*
X1334353Y183773D01*
X1334417Y183801D01*
X1334482Y183826D01*
X1334548Y183847D01*
X1334616Y183865D01*
X1334684Y183878D01*
X1334753Y183888D01*
X1334822Y183894D01*
X1334892Y183896D01*
X1336755Y183896D01*
X1339503Y183896D02*
X1339503Y178308D01*
X1342607Y178308D02*
X1339503Y183896D01*
X1342607Y183896D02*
X1342607Y178308D01*
X1345355Y178308D02*
X1345355Y183896D01*
X1346907Y183896D01*
X1346983Y183894D01*
X1347059Y183889D01*
X1347135Y183879D01*
X1347210Y183866D01*
X1347284Y183849D01*
X1347358Y183829D01*
X1347430Y183805D01*
X1347501Y183778D01*
X1347571Y183747D01*
X1347639Y183713D01*
X1347705Y183675D01*
X1347769Y183634D01*
X1347832Y183591D01*
X1347892Y183544D01*
X1347949Y183494D01*
X1348004Y183441D01*
X1348057Y183386D01*
X1348107Y183329D01*
X1348154Y183269D01*
X1348197Y183206D01*
X1348238Y183142D01*
X1348276Y183076D01*
X1348310Y183008D01*
X1348341Y182938D01*
X1348368Y182867D01*
X1348392Y182794D01*
X1348412Y182721D01*
X1348429Y182647D01*
X1348442Y182572D01*
X1348452Y182496D01*
X1348457Y182420D01*
X1348459Y182344D01*
X1348459Y179860D01*
X1348457Y179781D01*
X1348451Y179703D01*
X1348441Y179625D01*
X1348427Y179548D01*
X1348409Y179471D01*
X1348388Y179395D01*
X1348362Y179321D01*
X1348333Y179248D01*
X1348300Y179177D01*
X1348264Y179107D01*
X1348224Y179039D01*
X1348181Y178973D01*
X1348134Y178910D01*
X1348085Y178849D01*
X1348032Y178791D01*
X1347976Y178735D01*
X1347918Y178682D01*
X1347857Y178633D01*
X1347794Y178586D01*
X1347728Y178543D01*
X1347660Y178503D01*
X1347591Y178467D01*
X1347519Y178434D01*
X1347446Y178405D01*
X1347372Y178379D01*
X1347296Y178358D01*
X1347219Y178340D01*
X1347142Y178326D01*
X1347064Y178316D01*
X1346986Y178310D01*
X1346907Y178308D01*
X1345355Y178308D01*
D11*
X1463802Y178689D02*
X1463802Y180975D01*
X1463167Y180975D02*
X1464437Y180975D01*
X1465301Y180340D02*
X1465301Y179324D01*
X1465301Y180340D02*
X1465303Y180389D01*
X1465308Y180437D01*
X1465318Y180485D01*
X1465331Y180532D01*
X1465347Y180577D01*
X1465367Y180622D01*
X1465390Y180664D01*
X1465417Y180705D01*
X1465446Y180744D01*
X1465478Y180780D01*
X1465514Y180814D01*
X1465551Y180845D01*
X1465591Y180873D01*
X1465633Y180898D01*
X1465676Y180919D01*
X1465721Y180938D01*
X1465768Y180952D01*
X1465815Y180963D01*
X1465863Y180971D01*
X1465912Y180975D01*
X1465960Y180975D01*
X1466009Y180971D01*
X1466057Y180963D01*
X1466104Y180952D01*
X1466151Y180938D01*
X1466196Y180919D01*
X1466239Y180898D01*
X1466281Y180873D01*
X1466321Y180845D01*
X1466358Y180814D01*
X1466394Y180780D01*
X1466426Y180744D01*
X1466455Y180705D01*
X1466482Y180664D01*
X1466505Y180622D01*
X1466525Y180577D01*
X1466541Y180532D01*
X1466554Y180485D01*
X1466564Y180437D01*
X1466569Y180389D01*
X1466571Y180340D01*
X1466571Y179324D01*
X1466569Y179275D01*
X1466564Y179227D01*
X1466554Y179179D01*
X1466541Y179132D01*
X1466525Y179087D01*
X1466505Y179042D01*
X1466482Y179000D01*
X1466455Y178959D01*
X1466426Y178920D01*
X1466394Y178884D01*
X1466358Y178850D01*
X1466321Y178819D01*
X1466281Y178791D01*
X1466239Y178766D01*
X1466196Y178745D01*
X1466151Y178726D01*
X1466104Y178712D01*
X1466057Y178701D01*
X1466009Y178693D01*
X1465960Y178689D01*
X1465912Y178689D01*
X1465863Y178693D01*
X1465815Y178701D01*
X1465768Y178712D01*
X1465721Y178726D01*
X1465676Y178745D01*
X1465633Y178766D01*
X1465591Y178791D01*
X1465551Y178819D01*
X1465514Y178850D01*
X1465478Y178884D01*
X1465446Y178920D01*
X1465417Y178959D01*
X1465390Y179000D01*
X1465367Y179042D01*
X1465347Y179087D01*
X1465331Y179132D01*
X1465318Y179179D01*
X1465308Y179227D01*
X1465303Y179275D01*
X1465301Y179324D01*
X1467701Y178689D02*
X1467701Y180975D01*
X1468336Y180975D01*
X1468385Y180973D01*
X1468433Y180968D01*
X1468481Y180958D01*
X1468528Y180945D01*
X1468573Y180929D01*
X1468618Y180909D01*
X1468660Y180886D01*
X1468701Y180859D01*
X1468740Y180830D01*
X1468776Y180798D01*
X1468810Y180762D01*
X1468841Y180725D01*
X1468869Y180685D01*
X1468894Y180643D01*
X1468915Y180600D01*
X1468934Y180555D01*
X1468948Y180508D01*
X1468959Y180461D01*
X1468967Y180413D01*
X1468971Y180364D01*
X1468971Y180316D01*
X1468967Y180267D01*
X1468959Y180219D01*
X1468948Y180172D01*
X1468934Y180125D01*
X1468915Y180080D01*
X1468894Y180037D01*
X1468869Y179995D01*
X1468841Y179955D01*
X1468810Y179918D01*
X1468776Y179882D01*
X1468740Y179850D01*
X1468701Y179821D01*
X1468660Y179794D01*
X1468618Y179771D01*
X1468573Y179751D01*
X1468528Y179735D01*
X1468481Y179722D01*
X1468433Y179712D01*
X1468385Y179707D01*
X1468336Y179705D01*
X1467701Y179705D01*
X1500759Y155956D02*
X1503045Y155956D01*
X1500759Y155321D02*
X1500759Y156591D01*
X1501394Y157455D02*
X1502410Y157455D01*
X1501394Y157455D02*
X1501345Y157457D01*
X1501297Y157462D01*
X1501249Y157472D01*
X1501202Y157485D01*
X1501157Y157501D01*
X1501112Y157521D01*
X1501070Y157544D01*
X1501029Y157571D01*
X1500990Y157600D01*
X1500954Y157632D01*
X1500920Y157668D01*
X1500889Y157705D01*
X1500861Y157745D01*
X1500836Y157787D01*
X1500815Y157830D01*
X1500796Y157875D01*
X1500782Y157922D01*
X1500771Y157969D01*
X1500763Y158017D01*
X1500759Y158066D01*
X1500759Y158114D01*
X1500763Y158163D01*
X1500771Y158211D01*
X1500782Y158258D01*
X1500796Y158305D01*
X1500815Y158350D01*
X1500836Y158393D01*
X1500861Y158435D01*
X1500889Y158475D01*
X1500920Y158512D01*
X1500954Y158548D01*
X1500990Y158580D01*
X1501029Y158609D01*
X1501070Y158636D01*
X1501112Y158659D01*
X1501157Y158679D01*
X1501202Y158695D01*
X1501249Y158708D01*
X1501297Y158718D01*
X1501345Y158723D01*
X1501394Y158725D01*
X1502410Y158725D01*
X1502459Y158723D01*
X1502507Y158718D01*
X1502555Y158708D01*
X1502602Y158695D01*
X1502647Y158679D01*
X1502692Y158659D01*
X1502734Y158636D01*
X1502775Y158609D01*
X1502814Y158580D01*
X1502850Y158548D01*
X1502884Y158512D01*
X1502915Y158475D01*
X1502943Y158435D01*
X1502968Y158393D01*
X1502989Y158350D01*
X1503008Y158305D01*
X1503022Y158258D01*
X1503033Y158211D01*
X1503041Y158163D01*
X1503045Y158114D01*
X1503045Y158066D01*
X1503041Y158017D01*
X1503033Y157969D01*
X1503022Y157922D01*
X1503008Y157875D01*
X1502989Y157830D01*
X1502968Y157787D01*
X1502943Y157745D01*
X1502915Y157705D01*
X1502884Y157668D01*
X1502850Y157632D01*
X1502814Y157600D01*
X1502775Y157571D01*
X1502734Y157544D01*
X1502692Y157521D01*
X1502647Y157501D01*
X1502602Y157485D01*
X1502555Y157472D01*
X1502507Y157462D01*
X1502459Y157457D01*
X1502410Y157455D01*
X1503045Y159855D02*
X1500759Y159855D01*
X1500759Y160490D01*
X1500761Y160539D01*
X1500766Y160587D01*
X1500776Y160635D01*
X1500789Y160682D01*
X1500805Y160727D01*
X1500825Y160772D01*
X1500848Y160814D01*
X1500875Y160855D01*
X1500904Y160894D01*
X1500936Y160930D01*
X1500972Y160964D01*
X1501009Y160995D01*
X1501049Y161023D01*
X1501091Y161048D01*
X1501134Y161069D01*
X1501179Y161088D01*
X1501226Y161102D01*
X1501273Y161113D01*
X1501321Y161121D01*
X1501370Y161125D01*
X1501418Y161125D01*
X1501467Y161121D01*
X1501515Y161113D01*
X1501562Y161102D01*
X1501609Y161088D01*
X1501654Y161069D01*
X1501697Y161048D01*
X1501739Y161023D01*
X1501779Y160995D01*
X1501816Y160964D01*
X1501852Y160930D01*
X1501884Y160894D01*
X1501913Y160855D01*
X1501940Y160814D01*
X1501963Y160772D01*
X1501983Y160727D01*
X1501999Y160682D01*
X1502012Y160635D01*
X1502022Y160587D01*
X1502027Y160539D01*
X1502029Y160490D01*
X1502029Y159855D01*
D10*
X1906270Y150001D02*
X1909995Y150001D01*
X1908133Y148138D02*
X1908133Y151864D01*
X1867323Y150001D02*
X1863598Y150001D01*
X1905762Y197245D02*
X1909487Y197245D01*
X1907625Y195382D02*
X1907625Y199108D01*
X1866815Y197245D02*
X1863090Y197245D01*
D13*
X1506220Y149178D02*
X1506220Y147146D01*
X1527556Y147146D02*
X1527556Y149178D01*
X1506220Y168482D02*
X1506220Y170514D01*
X1527556Y170514D02*
X1527556Y168482D01*
D11*
X1509395Y135843D02*
X1503553Y137790D01*
X1509395Y139738D01*
X1507935Y139251D02*
X1507935Y136330D01*
X1520825Y135843D02*
X1526667Y135843D01*
X1520825Y135843D02*
X1520825Y137466D01*
X1520827Y137546D01*
X1520833Y137625D01*
X1520843Y137704D01*
X1520856Y137783D01*
X1520874Y137860D01*
X1520895Y137937D01*
X1520920Y138013D01*
X1520949Y138087D01*
X1520981Y138160D01*
X1521017Y138231D01*
X1521056Y138300D01*
X1521099Y138368D01*
X1521144Y138433D01*
X1521193Y138496D01*
X1521245Y138556D01*
X1521300Y138614D01*
X1521358Y138669D01*
X1521418Y138721D01*
X1521481Y138770D01*
X1521546Y138815D01*
X1521614Y138858D01*
X1521683Y138897D01*
X1521754Y138933D01*
X1521827Y138965D01*
X1521901Y138994D01*
X1521977Y139019D01*
X1522054Y139040D01*
X1522131Y139058D01*
X1522210Y139071D01*
X1522289Y139081D01*
X1522368Y139087D01*
X1522448Y139089D01*
X1525044Y139089D01*
X1525124Y139087D01*
X1525203Y139081D01*
X1525282Y139071D01*
X1525361Y139058D01*
X1525438Y139040D01*
X1525515Y139019D01*
X1525591Y138994D01*
X1525665Y138965D01*
X1525738Y138933D01*
X1525809Y138897D01*
X1525878Y138858D01*
X1525946Y138815D01*
X1526011Y138770D01*
X1526074Y138721D01*
X1526134Y138669D01*
X1526192Y138614D01*
X1526247Y138556D01*
X1526299Y138496D01*
X1526348Y138433D01*
X1526393Y138368D01*
X1526436Y138300D01*
X1526475Y138231D01*
X1526511Y138160D01*
X1526543Y138087D01*
X1526572Y138013D01*
X1526597Y137937D01*
X1526618Y137860D01*
X1526636Y137783D01*
X1526649Y137704D01*
X1526659Y137625D01*
X1526665Y137546D01*
X1526667Y137466D01*
X1526667Y135843D01*
X1501267Y150095D02*
X1499644Y148797D01*
X1499644Y154639D01*
X1501267Y154639D02*
X1498021Y154639D01*
X1499320Y167847D02*
X1501267Y167847D01*
X1499320Y167847D02*
X1499250Y167845D01*
X1499180Y167839D01*
X1499110Y167830D01*
X1499041Y167817D01*
X1498973Y167800D01*
X1498906Y167779D01*
X1498840Y167755D01*
X1498775Y167727D01*
X1498712Y167696D01*
X1498651Y167661D01*
X1498592Y167623D01*
X1498534Y167582D01*
X1498480Y167538D01*
X1498427Y167491D01*
X1498378Y167442D01*
X1498331Y167389D01*
X1498287Y167335D01*
X1498246Y167277D01*
X1498208Y167218D01*
X1498173Y167157D01*
X1498142Y167094D01*
X1498114Y167029D01*
X1498090Y166963D01*
X1498069Y166896D01*
X1498052Y166828D01*
X1498039Y166759D01*
X1498030Y166689D01*
X1498024Y166619D01*
X1498022Y166549D01*
X1498021Y166549D02*
X1498021Y165900D01*
X1498022Y165900D02*
X1498024Y165830D01*
X1498030Y165760D01*
X1498039Y165690D01*
X1498052Y165621D01*
X1498069Y165553D01*
X1498090Y165486D01*
X1498114Y165420D01*
X1498142Y165355D01*
X1498173Y165292D01*
X1498208Y165231D01*
X1498246Y165172D01*
X1498287Y165114D01*
X1498331Y165060D01*
X1498378Y165007D01*
X1498427Y164958D01*
X1498480Y164911D01*
X1498534Y164867D01*
X1498592Y164826D01*
X1498651Y164788D01*
X1498712Y164753D01*
X1498775Y164722D01*
X1498840Y164694D01*
X1498906Y164670D01*
X1498973Y164649D01*
X1499041Y164632D01*
X1499110Y164619D01*
X1499180Y164610D01*
X1499250Y164604D01*
X1499320Y164602D01*
X1499320Y164601D02*
X1501267Y164601D01*
X1501267Y162005D01*
X1498021Y162005D01*
D13*
X1496568Y141050D02*
X1501648Y141050D01*
X1499108Y138510D02*
X1499108Y143590D01*
D14*
X1880147Y175299D03*
X1880147Y189049D03*
D15*
X1884022Y182174D03*
D10*
X1874683Y197174D02*
X1874683Y202762D01*
X1874683Y197174D02*
X1877167Y197174D01*
X1879438Y197174D02*
X1881921Y197174D01*
X1879438Y197174D02*
X1879438Y202762D01*
X1881921Y202762D01*
X1881300Y200278D02*
X1879438Y200278D01*
X1884182Y202762D02*
X1884182Y197174D01*
X1884182Y202762D02*
X1885734Y202762D01*
X1885810Y202760D01*
X1885886Y202755D01*
X1885962Y202745D01*
X1886037Y202732D01*
X1886111Y202715D01*
X1886185Y202695D01*
X1886257Y202671D01*
X1886328Y202644D01*
X1886398Y202613D01*
X1886466Y202579D01*
X1886532Y202541D01*
X1886596Y202500D01*
X1886659Y202457D01*
X1886719Y202410D01*
X1886776Y202360D01*
X1886831Y202307D01*
X1886884Y202252D01*
X1886934Y202195D01*
X1886981Y202135D01*
X1887024Y202072D01*
X1887065Y202008D01*
X1887103Y201942D01*
X1887137Y201874D01*
X1887168Y201804D01*
X1887195Y201733D01*
X1887219Y201660D01*
X1887239Y201587D01*
X1887256Y201513D01*
X1887269Y201438D01*
X1887279Y201362D01*
X1887284Y201286D01*
X1887286Y201210D01*
X1887286Y198726D01*
X1887284Y198647D01*
X1887278Y198569D01*
X1887268Y198491D01*
X1887254Y198414D01*
X1887236Y198337D01*
X1887215Y198261D01*
X1887189Y198187D01*
X1887160Y198114D01*
X1887127Y198043D01*
X1887091Y197973D01*
X1887051Y197905D01*
X1887008Y197839D01*
X1886961Y197776D01*
X1886912Y197715D01*
X1886859Y197657D01*
X1886803Y197601D01*
X1886745Y197548D01*
X1886684Y197499D01*
X1886621Y197452D01*
X1886555Y197409D01*
X1886487Y197369D01*
X1886418Y197333D01*
X1886346Y197300D01*
X1886273Y197271D01*
X1886199Y197245D01*
X1886123Y197224D01*
X1886046Y197206D01*
X1885969Y197192D01*
X1885891Y197182D01*
X1885813Y197176D01*
X1885734Y197174D01*
X1884182Y197174D01*
X1889851Y201520D02*
X1891403Y202762D01*
X1891403Y197174D01*
X1889851Y197174D02*
X1892955Y197174D01*
D14*
X1880147Y156899D03*
X1880147Y170649D03*
D15*
X1884022Y163774D03*
D10*
X1874719Y149042D02*
X1874719Y143454D01*
X1877202Y143454D01*
X1879474Y143454D02*
X1881957Y143454D01*
X1879474Y143454D02*
X1879474Y149042D01*
X1881957Y149042D01*
X1881336Y146558D02*
X1879474Y146558D01*
X1884217Y149042D02*
X1884217Y143454D01*
X1884217Y149042D02*
X1885770Y149042D01*
X1885846Y149040D01*
X1885922Y149035D01*
X1885998Y149025D01*
X1886073Y149012D01*
X1886147Y148995D01*
X1886221Y148975D01*
X1886293Y148951D01*
X1886364Y148924D01*
X1886434Y148893D01*
X1886502Y148859D01*
X1886568Y148821D01*
X1886632Y148780D01*
X1886695Y148737D01*
X1886755Y148690D01*
X1886812Y148640D01*
X1886867Y148587D01*
X1886920Y148532D01*
X1886970Y148475D01*
X1887017Y148415D01*
X1887060Y148352D01*
X1887101Y148288D01*
X1887139Y148222D01*
X1887173Y148154D01*
X1887204Y148084D01*
X1887231Y148013D01*
X1887255Y147940D01*
X1887275Y147867D01*
X1887292Y147793D01*
X1887305Y147718D01*
X1887315Y147642D01*
X1887320Y147566D01*
X1887322Y147490D01*
X1887322Y145006D01*
X1887320Y144927D01*
X1887314Y144849D01*
X1887304Y144771D01*
X1887290Y144694D01*
X1887272Y144617D01*
X1887251Y144541D01*
X1887225Y144467D01*
X1887196Y144394D01*
X1887163Y144323D01*
X1887127Y144253D01*
X1887087Y144185D01*
X1887044Y144119D01*
X1886997Y144056D01*
X1886948Y143995D01*
X1886895Y143937D01*
X1886839Y143881D01*
X1886781Y143828D01*
X1886720Y143779D01*
X1886657Y143732D01*
X1886591Y143689D01*
X1886523Y143649D01*
X1886454Y143613D01*
X1886382Y143580D01*
X1886309Y143551D01*
X1886235Y143525D01*
X1886159Y143504D01*
X1886082Y143486D01*
X1886005Y143472D01*
X1885927Y143462D01*
X1885849Y143456D01*
X1885770Y143454D01*
X1884217Y143454D01*
X1891594Y149042D02*
X1891667Y149040D01*
X1891740Y149034D01*
X1891813Y149025D01*
X1891884Y149011D01*
X1891956Y148994D01*
X1892026Y148974D01*
X1892095Y148949D01*
X1892162Y148921D01*
X1892228Y148890D01*
X1892293Y148855D01*
X1892355Y148817D01*
X1892415Y148775D01*
X1892473Y148731D01*
X1892529Y148683D01*
X1892582Y148633D01*
X1892632Y148580D01*
X1892680Y148524D01*
X1892724Y148466D01*
X1892766Y148406D01*
X1892804Y148344D01*
X1892839Y148279D01*
X1892870Y148213D01*
X1892898Y148146D01*
X1892923Y148077D01*
X1892943Y148007D01*
X1892960Y147935D01*
X1892974Y147864D01*
X1892983Y147791D01*
X1892989Y147718D01*
X1892991Y147645D01*
X1891594Y149042D02*
X1891510Y149040D01*
X1891427Y149034D01*
X1891344Y149025D01*
X1891262Y149011D01*
X1891180Y148994D01*
X1891099Y148972D01*
X1891019Y148947D01*
X1890941Y148919D01*
X1890863Y148887D01*
X1890788Y148851D01*
X1890714Y148812D01*
X1890642Y148769D01*
X1890572Y148723D01*
X1890505Y148674D01*
X1890439Y148621D01*
X1890377Y148566D01*
X1890317Y148508D01*
X1890259Y148447D01*
X1890205Y148384D01*
X1890153Y148318D01*
X1890105Y148250D01*
X1890060Y148179D01*
X1890018Y148107D01*
X1889980Y148032D01*
X1889945Y147956D01*
X1889914Y147879D01*
X1889886Y147800D01*
X1892525Y146559D02*
X1892579Y146612D01*
X1892630Y146669D01*
X1892678Y146728D01*
X1892723Y146789D01*
X1892764Y146852D01*
X1892803Y146918D01*
X1892838Y146985D01*
X1892870Y147054D01*
X1892898Y147125D01*
X1892922Y147196D01*
X1892943Y147269D01*
X1892960Y147343D01*
X1892974Y147418D01*
X1892983Y147493D01*
X1892989Y147569D01*
X1892991Y147645D01*
X1892525Y146558D02*
X1889887Y143454D01*
X1892991Y143454D01*
D16*
X1563214Y159722D02*
X1563214Y169872D01*
X1607214Y169872D01*
X1607214Y162722D01*
X1563214Y141522D02*
X1563214Y131372D01*
X1607214Y131372D01*
X1607214Y137522D01*
D17*
X1628214Y150622D02*
X1628216Y150685D01*
X1628222Y150747D01*
X1628232Y150809D01*
X1628245Y150871D01*
X1628263Y150931D01*
X1628284Y150990D01*
X1628309Y151048D01*
X1628338Y151104D01*
X1628370Y151158D01*
X1628405Y151210D01*
X1628443Y151259D01*
X1628485Y151307D01*
X1628529Y151351D01*
X1628577Y151393D01*
X1628626Y151431D01*
X1628678Y151466D01*
X1628732Y151498D01*
X1628788Y151527D01*
X1628846Y151552D01*
X1628905Y151573D01*
X1628965Y151591D01*
X1629027Y151604D01*
X1629089Y151614D01*
X1629151Y151620D01*
X1629214Y151622D01*
X1629277Y151620D01*
X1629339Y151614D01*
X1629401Y151604D01*
X1629463Y151591D01*
X1629523Y151573D01*
X1629582Y151552D01*
X1629640Y151527D01*
X1629696Y151498D01*
X1629750Y151466D01*
X1629802Y151431D01*
X1629851Y151393D01*
X1629899Y151351D01*
X1629943Y151307D01*
X1629985Y151259D01*
X1630023Y151210D01*
X1630058Y151158D01*
X1630090Y151104D01*
X1630119Y151048D01*
X1630144Y150990D01*
X1630165Y150931D01*
X1630183Y150871D01*
X1630196Y150809D01*
X1630206Y150747D01*
X1630212Y150685D01*
X1630214Y150622D01*
X1630212Y150559D01*
X1630206Y150497D01*
X1630196Y150435D01*
X1630183Y150373D01*
X1630165Y150313D01*
X1630144Y150254D01*
X1630119Y150196D01*
X1630090Y150140D01*
X1630058Y150086D01*
X1630023Y150034D01*
X1629985Y149985D01*
X1629943Y149937D01*
X1629899Y149893D01*
X1629851Y149851D01*
X1629802Y149813D01*
X1629750Y149778D01*
X1629696Y149746D01*
X1629640Y149717D01*
X1629582Y149692D01*
X1629523Y149671D01*
X1629463Y149653D01*
X1629401Y149640D01*
X1629339Y149630D01*
X1629277Y149624D01*
X1629214Y149622D01*
X1629151Y149624D01*
X1629089Y149630D01*
X1629027Y149640D01*
X1628965Y149653D01*
X1628905Y149671D01*
X1628846Y149692D01*
X1628788Y149717D01*
X1628732Y149746D01*
X1628678Y149778D01*
X1628626Y149813D01*
X1628577Y149851D01*
X1628529Y149893D01*
X1628485Y149937D01*
X1628443Y149985D01*
X1628405Y150034D01*
X1628370Y150086D01*
X1628338Y150140D01*
X1628309Y150196D01*
X1628284Y150254D01*
X1628263Y150313D01*
X1628245Y150373D01*
X1628232Y150435D01*
X1628222Y150497D01*
X1628216Y150559D01*
X1628214Y150622D01*
D18*
X1580654Y194043D02*
X1580654Y201409D01*
X1582700Y201409D01*
X1582789Y201407D01*
X1582878Y201401D01*
X1582967Y201391D01*
X1583055Y201378D01*
X1583143Y201361D01*
X1583230Y201339D01*
X1583315Y201314D01*
X1583400Y201286D01*
X1583483Y201253D01*
X1583565Y201217D01*
X1583645Y201178D01*
X1583723Y201135D01*
X1583799Y201089D01*
X1583874Y201039D01*
X1583946Y200986D01*
X1584015Y200930D01*
X1584082Y200871D01*
X1584147Y200810D01*
X1584208Y200745D01*
X1584267Y200678D01*
X1584323Y200609D01*
X1584376Y200537D01*
X1584426Y200462D01*
X1584472Y200386D01*
X1584515Y200308D01*
X1584554Y200228D01*
X1584590Y200146D01*
X1584623Y200063D01*
X1584651Y199978D01*
X1584676Y199893D01*
X1584698Y199806D01*
X1584715Y199718D01*
X1584728Y199630D01*
X1584738Y199541D01*
X1584744Y199452D01*
X1584746Y199363D01*
X1584746Y196089D01*
X1584744Y196000D01*
X1584738Y195911D01*
X1584728Y195822D01*
X1584715Y195734D01*
X1584698Y195646D01*
X1584676Y195559D01*
X1584651Y195474D01*
X1584623Y195389D01*
X1584590Y195306D01*
X1584554Y195224D01*
X1584515Y195144D01*
X1584472Y195066D01*
X1584426Y194990D01*
X1584376Y194915D01*
X1584323Y194843D01*
X1584267Y194774D01*
X1584208Y194707D01*
X1584147Y194642D01*
X1584082Y194581D01*
X1584015Y194522D01*
X1583946Y194466D01*
X1583874Y194413D01*
X1583799Y194363D01*
X1583723Y194317D01*
X1583645Y194274D01*
X1583565Y194235D01*
X1583483Y194199D01*
X1583400Y194166D01*
X1583315Y194138D01*
X1583230Y194113D01*
X1583143Y194091D01*
X1583055Y194074D01*
X1582967Y194061D01*
X1582878Y194051D01*
X1582789Y194045D01*
X1582700Y194043D01*
X1580654Y194043D01*
X1588213Y199772D02*
X1590259Y201409D01*
X1590259Y194043D01*
X1588213Y194043D02*
X1592305Y194043D01*
D16*
X1563214Y204172D02*
X1563214Y214322D01*
X1607214Y214322D01*
X1607214Y207172D01*
X1563214Y185972D02*
X1563214Y175822D01*
X1607214Y175822D01*
X1607214Y181972D01*
D17*
X1628214Y195072D02*
X1628216Y195135D01*
X1628222Y195197D01*
X1628232Y195259D01*
X1628245Y195321D01*
X1628263Y195381D01*
X1628284Y195440D01*
X1628309Y195498D01*
X1628338Y195554D01*
X1628370Y195608D01*
X1628405Y195660D01*
X1628443Y195709D01*
X1628485Y195757D01*
X1628529Y195801D01*
X1628577Y195843D01*
X1628626Y195881D01*
X1628678Y195916D01*
X1628732Y195948D01*
X1628788Y195977D01*
X1628846Y196002D01*
X1628905Y196023D01*
X1628965Y196041D01*
X1629027Y196054D01*
X1629089Y196064D01*
X1629151Y196070D01*
X1629214Y196072D01*
X1629277Y196070D01*
X1629339Y196064D01*
X1629401Y196054D01*
X1629463Y196041D01*
X1629523Y196023D01*
X1629582Y196002D01*
X1629640Y195977D01*
X1629696Y195948D01*
X1629750Y195916D01*
X1629802Y195881D01*
X1629851Y195843D01*
X1629899Y195801D01*
X1629943Y195757D01*
X1629985Y195709D01*
X1630023Y195660D01*
X1630058Y195608D01*
X1630090Y195554D01*
X1630119Y195498D01*
X1630144Y195440D01*
X1630165Y195381D01*
X1630183Y195321D01*
X1630196Y195259D01*
X1630206Y195197D01*
X1630212Y195135D01*
X1630214Y195072D01*
X1630212Y195009D01*
X1630206Y194947D01*
X1630196Y194885D01*
X1630183Y194823D01*
X1630165Y194763D01*
X1630144Y194704D01*
X1630119Y194646D01*
X1630090Y194590D01*
X1630058Y194536D01*
X1630023Y194484D01*
X1629985Y194435D01*
X1629943Y194387D01*
X1629899Y194343D01*
X1629851Y194301D01*
X1629802Y194263D01*
X1629750Y194228D01*
X1629696Y194196D01*
X1629640Y194167D01*
X1629582Y194142D01*
X1629523Y194121D01*
X1629463Y194103D01*
X1629401Y194090D01*
X1629339Y194080D01*
X1629277Y194074D01*
X1629214Y194072D01*
X1629151Y194074D01*
X1629089Y194080D01*
X1629027Y194090D01*
X1628965Y194103D01*
X1628905Y194121D01*
X1628846Y194142D01*
X1628788Y194167D01*
X1628732Y194196D01*
X1628678Y194228D01*
X1628626Y194263D01*
X1628577Y194301D01*
X1628529Y194343D01*
X1628485Y194387D01*
X1628443Y194435D01*
X1628405Y194484D01*
X1628370Y194536D01*
X1628338Y194590D01*
X1628309Y194646D01*
X1628284Y194704D01*
X1628263Y194763D01*
X1628245Y194823D01*
X1628232Y194885D01*
X1628222Y194947D01*
X1628216Y195009D01*
X1628214Y195072D01*
D18*
X1578631Y150889D02*
X1578631Y143523D01*
X1578631Y150889D02*
X1580677Y150889D01*
X1580766Y150887D01*
X1580855Y150881D01*
X1580944Y150871D01*
X1581032Y150858D01*
X1581120Y150841D01*
X1581207Y150819D01*
X1581292Y150794D01*
X1581377Y150766D01*
X1581460Y150733D01*
X1581542Y150697D01*
X1581622Y150658D01*
X1581700Y150615D01*
X1581776Y150569D01*
X1581851Y150519D01*
X1581923Y150466D01*
X1581992Y150410D01*
X1582059Y150351D01*
X1582124Y150290D01*
X1582185Y150225D01*
X1582244Y150158D01*
X1582300Y150089D01*
X1582353Y150017D01*
X1582403Y149942D01*
X1582449Y149866D01*
X1582492Y149788D01*
X1582531Y149708D01*
X1582567Y149626D01*
X1582600Y149543D01*
X1582628Y149458D01*
X1582653Y149373D01*
X1582675Y149286D01*
X1582692Y149198D01*
X1582705Y149110D01*
X1582715Y149021D01*
X1582721Y148932D01*
X1582723Y148843D01*
X1582723Y145569D01*
X1582721Y145480D01*
X1582715Y145391D01*
X1582705Y145302D01*
X1582692Y145214D01*
X1582675Y145126D01*
X1582653Y145039D01*
X1582628Y144954D01*
X1582600Y144869D01*
X1582567Y144786D01*
X1582531Y144704D01*
X1582492Y144624D01*
X1582449Y144546D01*
X1582403Y144470D01*
X1582353Y144395D01*
X1582300Y144323D01*
X1582244Y144254D01*
X1582185Y144187D01*
X1582124Y144122D01*
X1582059Y144061D01*
X1581992Y144002D01*
X1581923Y143946D01*
X1581851Y143893D01*
X1581776Y143843D01*
X1581700Y143797D01*
X1581622Y143754D01*
X1581542Y143715D01*
X1581460Y143679D01*
X1581377Y143646D01*
X1581292Y143618D01*
X1581207Y143593D01*
X1581120Y143571D01*
X1581032Y143554D01*
X1580944Y143541D01*
X1580855Y143531D01*
X1580766Y143525D01*
X1580677Y143523D01*
X1578631Y143523D01*
X1588441Y150890D02*
X1588526Y150888D01*
X1588611Y150882D01*
X1588695Y150872D01*
X1588779Y150859D01*
X1588863Y150841D01*
X1588945Y150820D01*
X1589026Y150795D01*
X1589106Y150766D01*
X1589185Y150733D01*
X1589262Y150697D01*
X1589337Y150657D01*
X1589411Y150614D01*
X1589482Y150568D01*
X1589551Y150518D01*
X1589618Y150465D01*
X1589682Y150409D01*
X1589743Y150350D01*
X1589802Y150289D01*
X1589858Y150225D01*
X1589911Y150158D01*
X1589961Y150089D01*
X1590007Y150018D01*
X1590050Y149944D01*
X1590090Y149869D01*
X1590126Y149792D01*
X1590159Y149713D01*
X1590188Y149633D01*
X1590213Y149552D01*
X1590234Y149470D01*
X1590252Y149386D01*
X1590265Y149302D01*
X1590275Y149218D01*
X1590281Y149133D01*
X1590283Y149048D01*
X1588441Y150889D02*
X1588345Y150887D01*
X1588249Y150881D01*
X1588154Y150871D01*
X1588059Y150858D01*
X1587964Y150840D01*
X1587871Y150819D01*
X1587778Y150794D01*
X1587687Y150765D01*
X1587596Y150733D01*
X1587507Y150697D01*
X1587420Y150657D01*
X1587334Y150614D01*
X1587250Y150568D01*
X1587168Y150518D01*
X1587088Y150464D01*
X1587011Y150408D01*
X1586936Y150348D01*
X1586863Y150286D01*
X1586793Y150220D01*
X1586725Y150152D01*
X1586660Y150081D01*
X1586599Y150008D01*
X1586540Y149932D01*
X1586484Y149853D01*
X1586432Y149773D01*
X1586383Y149690D01*
X1586337Y149606D01*
X1586295Y149520D01*
X1586257Y149432D01*
X1586222Y149343D01*
X1586190Y149252D01*
X1589668Y147616D02*
X1589728Y147675D01*
X1589785Y147737D01*
X1589840Y147801D01*
X1589891Y147868D01*
X1589940Y147937D01*
X1589986Y148007D01*
X1590029Y148080D01*
X1590069Y148154D01*
X1590105Y148230D01*
X1590138Y148308D01*
X1590168Y148387D01*
X1590195Y148467D01*
X1590218Y148548D01*
X1590237Y148630D01*
X1590253Y148712D01*
X1590266Y148796D01*
X1590275Y148880D01*
X1590280Y148964D01*
X1590282Y149048D01*
X1589668Y147615D02*
X1586190Y143523D01*
X1590282Y143523D01*
D13*
X1476248Y148590D02*
X1464818Y148590D01*
X1490218Y148590D02*
X1490218Y152146D01*
X1490218Y177038D02*
X1478788Y177038D01*
X1464818Y177038D02*
X1464818Y173482D01*
X1464818Y152146D02*
X1464818Y148590D01*
X1478788Y148590D02*
X1490218Y148590D01*
X1490218Y173482D02*
X1490218Y177038D01*
X1476248Y177038D02*
X1464818Y177038D01*
D18*
X1459449Y175204D02*
X1459449Y179183D01*
X1459449Y175204D02*
X1461770Y172219D01*
X1459449Y175204D02*
X1457127Y172219D01*
X1459449Y175204D02*
X1463096Y176530D01*
X1459449Y175204D02*
X1455801Y176530D01*
D19*
X1415194Y186530D02*
X1415196Y186582D01*
X1415202Y186634D01*
X1415212Y186686D01*
X1415225Y186736D01*
X1415242Y186786D01*
X1415263Y186834D01*
X1415288Y186880D01*
X1415316Y186924D01*
X1415347Y186966D01*
X1415381Y187006D01*
X1415418Y187043D01*
X1415458Y187077D01*
X1415500Y187108D01*
X1415544Y187136D01*
X1415590Y187161D01*
X1415638Y187182D01*
X1415688Y187199D01*
X1415738Y187212D01*
X1415790Y187222D01*
X1415842Y187228D01*
X1415894Y187230D01*
X1415946Y187228D01*
X1415998Y187222D01*
X1416050Y187212D01*
X1416100Y187199D01*
X1416150Y187182D01*
X1416198Y187161D01*
X1416244Y187136D01*
X1416288Y187108D01*
X1416330Y187077D01*
X1416370Y187043D01*
X1416407Y187006D01*
X1416441Y186966D01*
X1416472Y186924D01*
X1416500Y186880D01*
X1416525Y186834D01*
X1416546Y186786D01*
X1416563Y186736D01*
X1416576Y186686D01*
X1416586Y186634D01*
X1416592Y186582D01*
X1416594Y186530D01*
X1416592Y186478D01*
X1416586Y186426D01*
X1416576Y186374D01*
X1416563Y186324D01*
X1416546Y186274D01*
X1416525Y186226D01*
X1416500Y186180D01*
X1416472Y186136D01*
X1416441Y186094D01*
X1416407Y186054D01*
X1416370Y186017D01*
X1416330Y185983D01*
X1416288Y185952D01*
X1416244Y185924D01*
X1416198Y185899D01*
X1416150Y185878D01*
X1416100Y185861D01*
X1416050Y185848D01*
X1415998Y185838D01*
X1415946Y185832D01*
X1415894Y185830D01*
X1415842Y185832D01*
X1415790Y185838D01*
X1415738Y185848D01*
X1415688Y185861D01*
X1415638Y185878D01*
X1415590Y185899D01*
X1415544Y185924D01*
X1415500Y185952D01*
X1415458Y185983D01*
X1415418Y186017D01*
X1415381Y186054D01*
X1415347Y186094D01*
X1415316Y186136D01*
X1415288Y186180D01*
X1415263Y186226D01*
X1415242Y186274D01*
X1415225Y186324D01*
X1415212Y186374D01*
X1415202Y186426D01*
X1415196Y186478D01*
X1415194Y186530D01*
D16*
X1429094Y191830D02*
X1446694Y191830D01*
X1446694Y161230D02*
X1429094Y161230D01*
D13*
X1258824Y188722D02*
X1246124Y188722D01*
X1239774Y195072D01*
X1239774Y207772D01*
X1246124Y214122D01*
X1284224Y188722D02*
X1290574Y195072D01*
X1284224Y188722D02*
X1271524Y188722D01*
X1265174Y195072D01*
X1265174Y207772D01*
X1271524Y214122D01*
X1284224Y214122D01*
X1290574Y207772D01*
X1265174Y195072D02*
X1258824Y188722D01*
X1265174Y207772D02*
X1258824Y214122D01*
X1246124Y214122D01*
X1322324Y188722D02*
X1335024Y188722D01*
X1322324Y188722D02*
X1315974Y195072D01*
X1315974Y207772D01*
X1322324Y214122D01*
X1315974Y195072D02*
X1309624Y188722D01*
X1296924Y188722D01*
X1290574Y195072D01*
X1290574Y207772D01*
X1296924Y214122D01*
X1309624Y214122D01*
X1315974Y207772D01*
X1341374Y207772D02*
X1341374Y195072D01*
X1335024Y188722D01*
X1341374Y207772D02*
X1335024Y214122D01*
X1322324Y214122D01*
X1233424Y188722D02*
X1220724Y188722D01*
X1214374Y195072D01*
X1214374Y207772D01*
X1220724Y214122D01*
X1239774Y195072D02*
X1233424Y188722D01*
X1239774Y207772D02*
X1233424Y214122D01*
X1220724Y214122D01*
X1296924Y149098D02*
X1309624Y149098D01*
X1315974Y142748D01*
X1315974Y130048D01*
X1309624Y123698D01*
X1271524Y149098D02*
X1265174Y142748D01*
X1271524Y149098D02*
X1284224Y149098D01*
X1290574Y142748D01*
X1290574Y130048D01*
X1284224Y123698D01*
X1271524Y123698D01*
X1265174Y130048D01*
X1290574Y142748D02*
X1296924Y149098D01*
X1290574Y130048D02*
X1296924Y123698D01*
X1309624Y123698D01*
X1233424Y149098D02*
X1220724Y149098D01*
X1233424Y149098D02*
X1239774Y142748D01*
X1239774Y130048D01*
X1233424Y123698D01*
X1239774Y142748D02*
X1246124Y149098D01*
X1258824Y149098D01*
X1265174Y142748D01*
X1265174Y130048D01*
X1258824Y123698D01*
X1246124Y123698D01*
X1239774Y130048D01*
X1214374Y130048D02*
X1214374Y142748D01*
X1220724Y149098D01*
X1214374Y130048D02*
X1220724Y123698D01*
X1233424Y123698D01*
X1322324Y149098D02*
X1335024Y149098D01*
X1341374Y142748D01*
X1341374Y130048D01*
X1335024Y123698D01*
X1315974Y142748D02*
X1322324Y149098D01*
X1315974Y130048D02*
X1322324Y123698D01*
X1335024Y123698D01*
M02*
