G04 EAGLE Gerber RS-274X export*
G75*
%MOMM*%
%FSLAX34Y34*%
%LPD*%
%INStiffener_BOT*%
%IPPOS*%
%AMOC8*
5,1,8,0,0,1.08239X$1,22.5*%
G01*
%ADD10C,0.152400*%
%ADD11C,0.254000*%


D10*
X1227836Y218440D02*
X1227468Y218436D01*
X1227100Y218422D01*
X1226732Y218400D01*
X1226365Y218369D01*
X1225999Y218329D01*
X1225634Y218280D01*
X1225270Y218222D01*
X1224908Y218156D01*
X1224547Y218081D01*
X1224189Y217997D01*
X1223832Y217905D01*
X1223478Y217804D01*
X1223127Y217694D01*
X1222778Y217576D01*
X1222432Y217450D01*
X1222089Y217315D01*
X1221750Y217172D01*
X1221414Y217021D01*
X1221082Y216862D01*
X1220754Y216694D01*
X1220430Y216519D01*
X1220110Y216336D01*
X1219795Y216146D01*
X1219484Y215948D01*
X1219179Y215742D01*
X1218878Y215529D01*
X1218583Y215309D01*
X1218293Y215082D01*
X1218009Y214848D01*
X1217730Y214607D01*
X1217457Y214360D01*
X1217191Y214106D01*
X1216930Y213845D01*
X1216676Y213579D01*
X1216429Y213306D01*
X1216188Y213027D01*
X1215954Y212743D01*
X1215727Y212453D01*
X1215507Y212158D01*
X1215294Y211857D01*
X1215088Y211552D01*
X1214890Y211241D01*
X1214700Y210926D01*
X1214517Y210606D01*
X1214342Y210282D01*
X1214174Y209954D01*
X1214015Y209622D01*
X1213864Y209286D01*
X1213721Y208947D01*
X1213586Y208604D01*
X1213460Y208258D01*
X1213342Y207909D01*
X1213232Y207558D01*
X1213131Y207204D01*
X1213039Y206847D01*
X1212955Y206489D01*
X1212880Y206128D01*
X1212814Y205766D01*
X1212756Y205402D01*
X1212707Y205037D01*
X1212667Y204671D01*
X1212636Y204304D01*
X1212614Y203936D01*
X1212600Y203568D01*
X1212596Y203200D01*
X1227836Y218440D02*
X1331976Y218440D01*
X1332283Y218436D01*
X1332590Y218425D01*
X1332896Y218407D01*
X1333202Y218381D01*
X1333507Y218347D01*
X1333811Y218307D01*
X1334114Y218259D01*
X1334416Y218203D01*
X1334716Y218141D01*
X1335015Y218071D01*
X1335312Y217994D01*
X1335608Y217910D01*
X1335901Y217818D01*
X1336191Y217720D01*
X1336479Y217615D01*
X1336765Y217502D01*
X1337048Y217383D01*
X1337328Y217257D01*
X1337605Y217125D01*
X1337878Y216985D01*
X1338148Y216839D01*
X1338414Y216687D01*
X1338677Y216528D01*
X1338936Y216363D01*
X1339190Y216192D01*
X1339441Y216015D01*
X1339687Y215831D01*
X1339929Y215642D01*
X1340165Y215447D01*
X1340398Y215246D01*
X1340625Y215040D01*
X1340847Y214828D01*
X1341064Y214611D01*
X1341276Y214389D01*
X1341482Y214162D01*
X1341683Y213929D01*
X1341878Y213693D01*
X1342067Y213451D01*
X1342251Y213205D01*
X1342428Y212954D01*
X1342599Y212700D01*
X1342764Y212441D01*
X1342923Y212178D01*
X1343075Y211912D01*
X1343221Y211642D01*
X1343361Y211369D01*
X1343493Y211092D01*
X1343619Y210812D01*
X1343738Y210529D01*
X1343851Y210243D01*
X1343956Y209955D01*
X1344054Y209665D01*
X1344146Y209372D01*
X1344230Y209076D01*
X1344307Y208779D01*
X1344377Y208480D01*
X1344439Y208180D01*
X1344495Y207878D01*
X1344543Y207575D01*
X1344583Y207271D01*
X1344617Y206966D01*
X1344643Y206660D01*
X1344661Y206354D01*
X1344672Y206047D01*
X1344676Y205740D01*
X1344676Y132080D01*
X1344672Y131773D01*
X1344661Y131466D01*
X1344643Y131160D01*
X1344617Y130854D01*
X1344583Y130549D01*
X1344543Y130245D01*
X1344495Y129942D01*
X1344439Y129640D01*
X1344377Y129340D01*
X1344307Y129041D01*
X1344230Y128744D01*
X1344146Y128448D01*
X1344054Y128155D01*
X1343956Y127865D01*
X1343851Y127577D01*
X1343738Y127291D01*
X1343619Y127008D01*
X1343493Y126728D01*
X1343361Y126451D01*
X1343221Y126178D01*
X1343075Y125908D01*
X1342923Y125642D01*
X1342764Y125379D01*
X1342599Y125120D01*
X1342428Y124866D01*
X1342251Y124615D01*
X1342067Y124369D01*
X1341878Y124127D01*
X1341683Y123891D01*
X1341482Y123658D01*
X1341276Y123431D01*
X1341064Y123209D01*
X1340847Y122992D01*
X1340625Y122780D01*
X1340398Y122574D01*
X1340165Y122373D01*
X1339929Y122178D01*
X1339687Y121989D01*
X1339441Y121805D01*
X1339190Y121628D01*
X1338936Y121457D01*
X1338677Y121292D01*
X1338414Y121133D01*
X1338148Y120981D01*
X1337878Y120835D01*
X1337605Y120695D01*
X1337328Y120563D01*
X1337048Y120437D01*
X1336765Y120318D01*
X1336479Y120205D01*
X1336191Y120100D01*
X1335901Y120002D01*
X1335608Y119910D01*
X1335312Y119826D01*
X1335015Y119749D01*
X1334716Y119679D01*
X1334416Y119617D01*
X1334114Y119561D01*
X1333811Y119513D01*
X1333507Y119473D01*
X1333202Y119439D01*
X1332896Y119413D01*
X1332590Y119395D01*
X1332283Y119384D01*
X1331976Y119380D01*
X1225296Y119380D01*
X1224989Y119384D01*
X1224682Y119395D01*
X1224376Y119413D01*
X1224070Y119439D01*
X1223765Y119473D01*
X1223461Y119513D01*
X1223158Y119561D01*
X1222856Y119617D01*
X1222556Y119679D01*
X1222257Y119749D01*
X1221960Y119826D01*
X1221664Y119910D01*
X1221371Y120002D01*
X1221081Y120100D01*
X1220793Y120205D01*
X1220507Y120318D01*
X1220224Y120437D01*
X1219944Y120563D01*
X1219667Y120695D01*
X1219394Y120835D01*
X1219124Y120981D01*
X1218858Y121133D01*
X1218595Y121292D01*
X1218336Y121457D01*
X1218082Y121628D01*
X1217831Y121805D01*
X1217585Y121989D01*
X1217343Y122178D01*
X1217107Y122373D01*
X1216874Y122574D01*
X1216647Y122780D01*
X1216425Y122992D01*
X1216208Y123209D01*
X1215996Y123431D01*
X1215790Y123658D01*
X1215589Y123891D01*
X1215394Y124127D01*
X1215205Y124369D01*
X1215021Y124615D01*
X1214844Y124866D01*
X1214673Y125120D01*
X1214508Y125379D01*
X1214349Y125642D01*
X1214197Y125908D01*
X1214051Y126178D01*
X1213911Y126451D01*
X1213779Y126728D01*
X1213653Y127008D01*
X1213534Y127291D01*
X1213421Y127577D01*
X1213316Y127865D01*
X1213218Y128155D01*
X1213126Y128448D01*
X1213042Y128744D01*
X1212965Y129041D01*
X1212895Y129340D01*
X1212833Y129640D01*
X1212777Y129942D01*
X1212729Y130245D01*
X1212689Y130549D01*
X1212655Y130854D01*
X1212629Y131160D01*
X1212611Y131466D01*
X1212600Y131773D01*
X1212596Y132080D01*
X1212596Y203200D01*
X1414780Y129540D02*
X1414783Y129294D01*
X1414792Y129049D01*
X1414807Y128804D01*
X1414827Y128559D01*
X1414854Y128315D01*
X1414887Y128072D01*
X1414925Y127829D01*
X1414969Y127588D01*
X1415019Y127348D01*
X1415075Y127109D01*
X1415137Y126871D01*
X1415204Y126635D01*
X1415277Y126400D01*
X1415356Y126168D01*
X1415440Y125937D01*
X1415530Y125709D01*
X1415625Y125482D01*
X1415726Y125259D01*
X1415832Y125037D01*
X1415944Y124818D01*
X1416060Y124602D01*
X1416182Y124389D01*
X1416309Y124179D01*
X1416441Y123972D01*
X1416578Y123768D01*
X1416720Y123568D01*
X1416867Y123371D01*
X1417019Y123178D01*
X1417175Y122988D01*
X1417335Y122803D01*
X1417500Y122621D01*
X1417670Y122443D01*
X1417843Y122270D01*
X1418021Y122100D01*
X1418203Y121935D01*
X1418388Y121775D01*
X1418578Y121619D01*
X1418771Y121467D01*
X1418968Y121320D01*
X1419168Y121178D01*
X1419372Y121041D01*
X1419579Y120909D01*
X1419789Y120782D01*
X1420002Y120660D01*
X1420218Y120544D01*
X1420437Y120432D01*
X1420659Y120326D01*
X1420882Y120225D01*
X1421109Y120130D01*
X1421337Y120040D01*
X1421568Y119956D01*
X1421800Y119877D01*
X1422035Y119804D01*
X1422271Y119737D01*
X1422509Y119675D01*
X1422748Y119619D01*
X1422988Y119569D01*
X1423229Y119525D01*
X1423472Y119487D01*
X1423715Y119454D01*
X1423959Y119427D01*
X1424204Y119407D01*
X1424449Y119392D01*
X1424694Y119383D01*
X1424940Y119380D01*
X1414780Y129540D02*
X1414780Y208280D01*
X1414783Y208526D01*
X1414792Y208771D01*
X1414807Y209016D01*
X1414827Y209261D01*
X1414854Y209505D01*
X1414887Y209748D01*
X1414925Y209991D01*
X1414969Y210232D01*
X1415019Y210472D01*
X1415075Y210711D01*
X1415137Y210949D01*
X1415204Y211185D01*
X1415277Y211420D01*
X1415356Y211652D01*
X1415440Y211883D01*
X1415530Y212111D01*
X1415625Y212338D01*
X1415726Y212561D01*
X1415832Y212783D01*
X1415944Y213002D01*
X1416060Y213218D01*
X1416182Y213431D01*
X1416309Y213641D01*
X1416441Y213848D01*
X1416578Y214052D01*
X1416720Y214252D01*
X1416867Y214449D01*
X1417019Y214642D01*
X1417175Y214832D01*
X1417335Y215017D01*
X1417500Y215199D01*
X1417670Y215377D01*
X1417843Y215550D01*
X1418021Y215720D01*
X1418203Y215885D01*
X1418388Y216045D01*
X1418578Y216201D01*
X1418771Y216353D01*
X1418968Y216500D01*
X1419168Y216642D01*
X1419372Y216779D01*
X1419579Y216911D01*
X1419789Y217038D01*
X1420002Y217160D01*
X1420218Y217276D01*
X1420437Y217388D01*
X1420659Y217494D01*
X1420882Y217595D01*
X1421109Y217690D01*
X1421337Y217780D01*
X1421568Y217864D01*
X1421800Y217943D01*
X1422035Y218016D01*
X1422271Y218083D01*
X1422509Y218145D01*
X1422748Y218201D01*
X1422988Y218251D01*
X1423229Y218295D01*
X1423472Y218333D01*
X1423715Y218366D01*
X1423959Y218393D01*
X1424204Y218413D01*
X1424449Y218428D01*
X1424694Y218437D01*
X1424940Y218440D01*
X1620520Y218440D01*
X1620704Y218438D01*
X1620888Y218431D01*
X1621072Y218420D01*
X1621255Y218404D01*
X1621438Y218384D01*
X1621621Y218360D01*
X1621803Y218331D01*
X1621984Y218298D01*
X1622164Y218260D01*
X1622344Y218219D01*
X1622522Y218172D01*
X1622699Y218122D01*
X1622875Y218067D01*
X1623049Y218008D01*
X1623222Y217945D01*
X1623393Y217877D01*
X1623563Y217806D01*
X1623731Y217730D01*
X1623897Y217651D01*
X1624061Y217567D01*
X1624223Y217480D01*
X1624383Y217388D01*
X1624541Y217293D01*
X1624696Y217194D01*
X1624849Y217091D01*
X1624999Y216985D01*
X1625147Y216875D01*
X1625292Y216761D01*
X1625434Y216644D01*
X1625573Y216524D01*
X1625709Y216400D01*
X1625843Y216273D01*
X1625973Y216143D01*
X1626100Y216009D01*
X1626224Y215873D01*
X1626344Y215734D01*
X1626461Y215592D01*
X1626575Y215447D01*
X1626685Y215299D01*
X1626791Y215149D01*
X1626894Y214996D01*
X1626993Y214841D01*
X1627088Y214683D01*
X1627180Y214523D01*
X1627267Y214361D01*
X1627351Y214197D01*
X1627430Y214031D01*
X1627506Y213863D01*
X1627577Y213693D01*
X1627645Y213522D01*
X1627708Y213349D01*
X1627767Y213175D01*
X1627822Y212999D01*
X1627872Y212822D01*
X1627919Y212644D01*
X1627960Y212464D01*
X1627998Y212284D01*
X1628031Y212103D01*
X1628060Y211921D01*
X1628084Y211738D01*
X1628104Y211555D01*
X1628120Y211372D01*
X1628131Y211188D01*
X1628138Y211004D01*
X1628140Y210820D01*
X1628140Y127000D01*
X1628138Y126816D01*
X1628131Y126632D01*
X1628120Y126448D01*
X1628104Y126265D01*
X1628084Y126082D01*
X1628060Y125899D01*
X1628031Y125717D01*
X1627998Y125536D01*
X1627960Y125356D01*
X1627919Y125176D01*
X1627872Y124998D01*
X1627822Y124821D01*
X1627767Y124645D01*
X1627708Y124471D01*
X1627645Y124298D01*
X1627577Y124127D01*
X1627506Y123957D01*
X1627430Y123789D01*
X1627351Y123623D01*
X1627267Y123459D01*
X1627180Y123297D01*
X1627088Y123137D01*
X1626993Y122979D01*
X1626894Y122824D01*
X1626791Y122671D01*
X1626685Y122521D01*
X1626575Y122373D01*
X1626461Y122228D01*
X1626344Y122086D01*
X1626224Y121947D01*
X1626100Y121811D01*
X1625973Y121677D01*
X1625843Y121547D01*
X1625709Y121420D01*
X1625573Y121296D01*
X1625434Y121176D01*
X1625292Y121059D01*
X1625147Y120945D01*
X1624999Y120835D01*
X1624849Y120729D01*
X1624696Y120626D01*
X1624541Y120527D01*
X1624383Y120432D01*
X1624223Y120340D01*
X1624061Y120253D01*
X1623897Y120169D01*
X1623731Y120090D01*
X1623563Y120014D01*
X1623393Y119943D01*
X1623222Y119875D01*
X1623049Y119812D01*
X1622875Y119753D01*
X1622699Y119698D01*
X1622522Y119648D01*
X1622344Y119601D01*
X1622164Y119560D01*
X1621984Y119522D01*
X1621803Y119489D01*
X1621621Y119460D01*
X1621438Y119436D01*
X1621255Y119416D01*
X1621072Y119400D01*
X1620888Y119389D01*
X1620704Y119382D01*
X1620520Y119380D01*
X1424940Y119380D01*
X1905000Y218440D02*
X1905184Y218438D01*
X1905368Y218431D01*
X1905552Y218420D01*
X1905735Y218404D01*
X1905918Y218384D01*
X1906101Y218360D01*
X1906283Y218331D01*
X1906464Y218298D01*
X1906644Y218260D01*
X1906824Y218219D01*
X1907002Y218172D01*
X1907179Y218122D01*
X1907355Y218067D01*
X1907529Y218008D01*
X1907702Y217945D01*
X1907873Y217877D01*
X1908043Y217806D01*
X1908211Y217730D01*
X1908377Y217651D01*
X1908541Y217567D01*
X1908703Y217480D01*
X1908863Y217388D01*
X1909021Y217293D01*
X1909176Y217194D01*
X1909329Y217091D01*
X1909479Y216985D01*
X1909627Y216875D01*
X1909772Y216761D01*
X1909914Y216644D01*
X1910053Y216524D01*
X1910189Y216400D01*
X1910323Y216273D01*
X1910453Y216143D01*
X1910580Y216009D01*
X1910704Y215873D01*
X1910824Y215734D01*
X1910941Y215592D01*
X1911055Y215447D01*
X1911165Y215299D01*
X1911271Y215149D01*
X1911374Y214996D01*
X1911473Y214841D01*
X1911568Y214683D01*
X1911660Y214523D01*
X1911747Y214361D01*
X1911831Y214197D01*
X1911910Y214031D01*
X1911986Y213863D01*
X1912057Y213693D01*
X1912125Y213522D01*
X1912188Y213349D01*
X1912247Y213175D01*
X1912302Y212999D01*
X1912352Y212822D01*
X1912399Y212644D01*
X1912440Y212464D01*
X1912478Y212284D01*
X1912511Y212103D01*
X1912540Y211921D01*
X1912564Y211738D01*
X1912584Y211555D01*
X1912600Y211372D01*
X1912611Y211188D01*
X1912618Y211004D01*
X1912620Y210820D01*
X1912620Y129540D01*
X1912617Y129294D01*
X1912608Y129049D01*
X1912593Y128804D01*
X1912573Y128559D01*
X1912546Y128315D01*
X1912513Y128072D01*
X1912475Y127829D01*
X1912431Y127588D01*
X1912381Y127348D01*
X1912325Y127109D01*
X1912263Y126871D01*
X1912196Y126635D01*
X1912123Y126400D01*
X1912044Y126168D01*
X1911960Y125937D01*
X1911870Y125709D01*
X1911775Y125482D01*
X1911674Y125259D01*
X1911568Y125037D01*
X1911456Y124818D01*
X1911340Y124602D01*
X1911218Y124389D01*
X1911091Y124179D01*
X1910959Y123972D01*
X1910822Y123768D01*
X1910680Y123568D01*
X1910533Y123371D01*
X1910381Y123178D01*
X1910225Y122988D01*
X1910065Y122803D01*
X1909900Y122621D01*
X1909730Y122443D01*
X1909557Y122270D01*
X1909379Y122100D01*
X1909197Y121935D01*
X1909012Y121775D01*
X1908822Y121619D01*
X1908629Y121467D01*
X1908432Y121320D01*
X1908232Y121178D01*
X1908028Y121041D01*
X1907821Y120909D01*
X1907611Y120782D01*
X1907398Y120660D01*
X1907182Y120544D01*
X1906963Y120432D01*
X1906741Y120326D01*
X1906518Y120225D01*
X1906291Y120130D01*
X1906063Y120040D01*
X1905832Y119956D01*
X1905600Y119877D01*
X1905365Y119804D01*
X1905129Y119737D01*
X1904891Y119675D01*
X1904652Y119619D01*
X1904412Y119569D01*
X1904171Y119525D01*
X1903928Y119487D01*
X1903685Y119454D01*
X1903441Y119427D01*
X1903196Y119407D01*
X1902951Y119392D01*
X1902706Y119383D01*
X1902460Y119380D01*
X1864360Y119380D01*
X1864176Y119382D01*
X1863992Y119389D01*
X1863808Y119400D01*
X1863625Y119416D01*
X1863442Y119436D01*
X1863259Y119460D01*
X1863077Y119489D01*
X1862896Y119522D01*
X1862716Y119560D01*
X1862536Y119601D01*
X1862358Y119648D01*
X1862181Y119698D01*
X1862005Y119753D01*
X1861831Y119812D01*
X1861658Y119875D01*
X1861487Y119943D01*
X1861317Y120014D01*
X1861149Y120090D01*
X1860983Y120169D01*
X1860819Y120253D01*
X1860657Y120340D01*
X1860497Y120432D01*
X1860339Y120527D01*
X1860184Y120626D01*
X1860031Y120729D01*
X1859881Y120835D01*
X1859733Y120945D01*
X1859588Y121059D01*
X1859446Y121176D01*
X1859307Y121296D01*
X1859171Y121420D01*
X1859037Y121547D01*
X1858907Y121677D01*
X1858780Y121811D01*
X1858656Y121947D01*
X1858536Y122086D01*
X1858419Y122228D01*
X1858305Y122373D01*
X1858195Y122521D01*
X1858089Y122671D01*
X1857986Y122824D01*
X1857887Y122979D01*
X1857792Y123137D01*
X1857700Y123297D01*
X1857613Y123459D01*
X1857529Y123623D01*
X1857450Y123789D01*
X1857374Y123957D01*
X1857303Y124127D01*
X1857235Y124298D01*
X1857172Y124471D01*
X1857113Y124645D01*
X1857058Y124821D01*
X1857008Y124998D01*
X1856961Y125176D01*
X1856920Y125356D01*
X1856882Y125536D01*
X1856849Y125717D01*
X1856820Y125899D01*
X1856796Y126082D01*
X1856776Y126265D01*
X1856760Y126448D01*
X1856749Y126632D01*
X1856742Y126816D01*
X1856740Y127000D01*
X1856740Y208280D01*
X1856743Y208526D01*
X1856752Y208771D01*
X1856767Y209016D01*
X1856787Y209261D01*
X1856814Y209505D01*
X1856847Y209748D01*
X1856885Y209991D01*
X1856929Y210232D01*
X1856979Y210472D01*
X1857035Y210711D01*
X1857097Y210949D01*
X1857164Y211185D01*
X1857237Y211420D01*
X1857316Y211652D01*
X1857400Y211883D01*
X1857490Y212111D01*
X1857585Y212338D01*
X1857686Y212561D01*
X1857792Y212783D01*
X1857904Y213002D01*
X1858020Y213218D01*
X1858142Y213431D01*
X1858269Y213641D01*
X1858401Y213848D01*
X1858538Y214052D01*
X1858680Y214252D01*
X1858827Y214449D01*
X1858979Y214642D01*
X1859135Y214832D01*
X1859295Y215017D01*
X1859460Y215199D01*
X1859630Y215377D01*
X1859803Y215550D01*
X1859981Y215720D01*
X1860163Y215885D01*
X1860348Y216045D01*
X1860538Y216201D01*
X1860731Y216353D01*
X1860928Y216500D01*
X1861128Y216642D01*
X1861332Y216779D01*
X1861539Y216911D01*
X1861749Y217038D01*
X1861962Y217160D01*
X1862178Y217276D01*
X1862397Y217388D01*
X1862619Y217494D01*
X1862842Y217595D01*
X1863069Y217690D01*
X1863297Y217780D01*
X1863528Y217864D01*
X1863760Y217943D01*
X1863995Y218016D01*
X1864231Y218083D01*
X1864469Y218145D01*
X1864708Y218201D01*
X1864948Y218251D01*
X1865189Y218295D01*
X1865432Y218333D01*
X1865675Y218366D01*
X1865919Y218393D01*
X1866164Y218413D01*
X1866409Y218428D01*
X1866654Y218437D01*
X1866900Y218440D01*
X1905000Y218440D01*
D11*
X1232574Y167331D02*
X1232505Y166717D01*
X1232367Y166115D01*
X1232163Y165532D01*
X1231895Y164975D01*
X1231567Y164452D01*
X1231182Y163969D01*
X1230745Y163533D01*
X1230262Y163147D01*
X1229739Y162819D01*
X1229182Y162551D01*
X1228599Y162347D01*
X1227997Y162209D01*
X1227383Y162140D01*
X1226765Y162140D01*
X1226151Y162209D01*
X1225549Y162347D01*
X1224966Y162551D01*
X1224409Y162819D01*
X1223886Y163147D01*
X1223403Y163533D01*
X1222967Y163969D01*
X1222581Y164452D01*
X1222253Y164975D01*
X1221985Y165532D01*
X1221781Y166115D01*
X1221643Y166717D01*
X1221574Y167331D01*
X1221574Y167949D01*
X1221643Y168563D01*
X1221781Y169165D01*
X1221985Y169748D01*
X1222253Y170305D01*
X1222581Y170828D01*
X1222967Y171311D01*
X1223403Y171748D01*
X1223886Y172133D01*
X1224409Y172461D01*
X1224966Y172729D01*
X1225549Y172933D01*
X1226151Y173071D01*
X1226765Y173140D01*
X1227383Y173140D01*
X1227997Y173071D01*
X1228599Y172933D01*
X1229182Y172729D01*
X1229739Y172461D01*
X1230262Y172133D01*
X1230745Y171748D01*
X1231182Y171311D01*
X1231567Y170828D01*
X1231895Y170305D01*
X1232163Y169748D01*
X1232367Y169165D01*
X1232505Y168563D01*
X1232574Y167949D01*
X1232574Y167331D01*
X1907960Y129231D02*
X1907891Y128617D01*
X1907753Y128015D01*
X1907549Y127432D01*
X1907281Y126875D01*
X1906953Y126352D01*
X1906568Y125869D01*
X1906131Y125433D01*
X1905648Y125047D01*
X1905125Y124719D01*
X1904568Y124451D01*
X1903985Y124247D01*
X1903383Y124109D01*
X1902769Y124040D01*
X1902151Y124040D01*
X1901537Y124109D01*
X1900935Y124247D01*
X1900352Y124451D01*
X1899795Y124719D01*
X1899272Y125047D01*
X1898789Y125433D01*
X1898353Y125869D01*
X1897967Y126352D01*
X1897639Y126875D01*
X1897371Y127432D01*
X1897167Y128015D01*
X1897029Y128617D01*
X1896960Y129231D01*
X1896960Y129849D01*
X1897029Y130463D01*
X1897167Y131065D01*
X1897371Y131648D01*
X1897639Y132205D01*
X1897967Y132728D01*
X1898353Y133211D01*
X1898789Y133648D01*
X1899272Y134033D01*
X1899795Y134361D01*
X1900352Y134629D01*
X1900935Y134833D01*
X1901537Y134971D01*
X1902151Y135040D01*
X1902769Y135040D01*
X1903383Y134971D01*
X1903985Y134833D01*
X1904568Y134629D01*
X1905125Y134361D01*
X1905648Y134033D01*
X1906131Y133648D01*
X1906568Y133211D01*
X1906953Y132728D01*
X1907281Y132205D01*
X1907549Y131648D01*
X1907753Y131065D01*
X1907891Y130463D01*
X1907960Y129849D01*
X1907960Y129231D01*
X1907960Y207971D02*
X1907891Y207357D01*
X1907753Y206755D01*
X1907549Y206172D01*
X1907281Y205615D01*
X1906953Y205092D01*
X1906568Y204609D01*
X1906131Y204173D01*
X1905648Y203787D01*
X1905125Y203459D01*
X1904568Y203191D01*
X1903985Y202987D01*
X1903383Y202849D01*
X1902769Y202780D01*
X1902151Y202780D01*
X1901537Y202849D01*
X1900935Y202987D01*
X1900352Y203191D01*
X1899795Y203459D01*
X1899272Y203787D01*
X1898789Y204173D01*
X1898353Y204609D01*
X1897967Y205092D01*
X1897639Y205615D01*
X1897371Y206172D01*
X1897167Y206755D01*
X1897029Y207357D01*
X1896960Y207971D01*
X1896960Y208589D01*
X1897029Y209203D01*
X1897167Y209805D01*
X1897371Y210388D01*
X1897639Y210945D01*
X1897967Y211468D01*
X1898353Y211951D01*
X1898789Y212388D01*
X1899272Y212773D01*
X1899795Y213101D01*
X1900352Y213369D01*
X1900935Y213573D01*
X1901537Y213711D01*
X1902151Y213780D01*
X1902769Y213780D01*
X1903383Y213711D01*
X1903985Y213573D01*
X1904568Y213369D01*
X1905125Y213101D01*
X1905648Y212773D01*
X1906131Y212388D01*
X1906568Y211951D01*
X1906953Y211468D01*
X1907281Y210945D01*
X1907549Y210388D01*
X1907753Y209805D01*
X1907891Y209203D01*
X1907960Y208589D01*
X1907960Y207971D01*
M02*
