G04 EAGLE Gerber RS-274X export*
G75*
%MOMM*%
%FSLAX34Y34*%
%LPD*%
%INStiffener_BOT*%
%IPPOS*%
%AMOC8*
5,1,8,0,0,1.08239X$1,22.5*%
G01*
%ADD10C,0.152400*%
%ADD11C,0.254000*%


D10*
X1277874Y218440D02*
X1277506Y218436D01*
X1277138Y218422D01*
X1276770Y218400D01*
X1276403Y218369D01*
X1276037Y218329D01*
X1275672Y218280D01*
X1275308Y218222D01*
X1274946Y218156D01*
X1274585Y218081D01*
X1274227Y217997D01*
X1273870Y217905D01*
X1273516Y217804D01*
X1273165Y217694D01*
X1272816Y217576D01*
X1272470Y217450D01*
X1272127Y217315D01*
X1271788Y217172D01*
X1271452Y217021D01*
X1271120Y216862D01*
X1270792Y216694D01*
X1270468Y216519D01*
X1270148Y216336D01*
X1269833Y216146D01*
X1269522Y215948D01*
X1269217Y215742D01*
X1268916Y215529D01*
X1268621Y215309D01*
X1268331Y215082D01*
X1268047Y214848D01*
X1267768Y214607D01*
X1267495Y214360D01*
X1267229Y214106D01*
X1266968Y213845D01*
X1266714Y213579D01*
X1266467Y213306D01*
X1266226Y213027D01*
X1265992Y212743D01*
X1265765Y212453D01*
X1265545Y212158D01*
X1265332Y211857D01*
X1265126Y211552D01*
X1264928Y211241D01*
X1264738Y210926D01*
X1264555Y210606D01*
X1264380Y210282D01*
X1264212Y209954D01*
X1264053Y209622D01*
X1263902Y209286D01*
X1263759Y208947D01*
X1263624Y208604D01*
X1263498Y208258D01*
X1263380Y207909D01*
X1263270Y207558D01*
X1263169Y207204D01*
X1263077Y206847D01*
X1262993Y206489D01*
X1262918Y206128D01*
X1262852Y205766D01*
X1262794Y205402D01*
X1262745Y205037D01*
X1262705Y204671D01*
X1262674Y204304D01*
X1262652Y203936D01*
X1262638Y203568D01*
X1262634Y203200D01*
X1277874Y218440D02*
X1382014Y218440D01*
X1382321Y218436D01*
X1382628Y218425D01*
X1382934Y218407D01*
X1383240Y218381D01*
X1383545Y218347D01*
X1383849Y218307D01*
X1384152Y218259D01*
X1384454Y218203D01*
X1384754Y218141D01*
X1385053Y218071D01*
X1385350Y217994D01*
X1385646Y217910D01*
X1385939Y217818D01*
X1386229Y217720D01*
X1386517Y217615D01*
X1386803Y217502D01*
X1387086Y217383D01*
X1387366Y217257D01*
X1387643Y217125D01*
X1387916Y216985D01*
X1388186Y216839D01*
X1388452Y216687D01*
X1388715Y216528D01*
X1388974Y216363D01*
X1389228Y216192D01*
X1389479Y216015D01*
X1389725Y215831D01*
X1389967Y215642D01*
X1390203Y215447D01*
X1390436Y215246D01*
X1390663Y215040D01*
X1390885Y214828D01*
X1391102Y214611D01*
X1391314Y214389D01*
X1391520Y214162D01*
X1391721Y213929D01*
X1391916Y213693D01*
X1392105Y213451D01*
X1392289Y213205D01*
X1392466Y212954D01*
X1392637Y212700D01*
X1392802Y212441D01*
X1392961Y212178D01*
X1393113Y211912D01*
X1393259Y211642D01*
X1393399Y211369D01*
X1393531Y211092D01*
X1393657Y210812D01*
X1393776Y210529D01*
X1393889Y210243D01*
X1393994Y209955D01*
X1394092Y209665D01*
X1394184Y209372D01*
X1394268Y209076D01*
X1394345Y208779D01*
X1394415Y208480D01*
X1394477Y208180D01*
X1394533Y207878D01*
X1394581Y207575D01*
X1394621Y207271D01*
X1394655Y206966D01*
X1394681Y206660D01*
X1394699Y206354D01*
X1394710Y206047D01*
X1394714Y205740D01*
X1394714Y132080D01*
X1394710Y131773D01*
X1394699Y131466D01*
X1394681Y131160D01*
X1394655Y130854D01*
X1394621Y130549D01*
X1394581Y130245D01*
X1394533Y129942D01*
X1394477Y129640D01*
X1394415Y129340D01*
X1394345Y129041D01*
X1394268Y128744D01*
X1394184Y128448D01*
X1394092Y128155D01*
X1393994Y127865D01*
X1393889Y127577D01*
X1393776Y127291D01*
X1393657Y127008D01*
X1393531Y126728D01*
X1393399Y126451D01*
X1393259Y126178D01*
X1393113Y125908D01*
X1392961Y125642D01*
X1392802Y125379D01*
X1392637Y125120D01*
X1392466Y124866D01*
X1392289Y124615D01*
X1392105Y124369D01*
X1391916Y124127D01*
X1391721Y123891D01*
X1391520Y123658D01*
X1391314Y123431D01*
X1391102Y123209D01*
X1390885Y122992D01*
X1390663Y122780D01*
X1390436Y122574D01*
X1390203Y122373D01*
X1389967Y122178D01*
X1389725Y121989D01*
X1389479Y121805D01*
X1389228Y121628D01*
X1388974Y121457D01*
X1388715Y121292D01*
X1388452Y121133D01*
X1388186Y120981D01*
X1387916Y120835D01*
X1387643Y120695D01*
X1387366Y120563D01*
X1387086Y120437D01*
X1386803Y120318D01*
X1386517Y120205D01*
X1386229Y120100D01*
X1385939Y120002D01*
X1385646Y119910D01*
X1385350Y119826D01*
X1385053Y119749D01*
X1384754Y119679D01*
X1384454Y119617D01*
X1384152Y119561D01*
X1383849Y119513D01*
X1383545Y119473D01*
X1383240Y119439D01*
X1382934Y119413D01*
X1382628Y119395D01*
X1382321Y119384D01*
X1382014Y119380D01*
X1275334Y119380D01*
X1275027Y119384D01*
X1274720Y119395D01*
X1274414Y119413D01*
X1274108Y119439D01*
X1273803Y119473D01*
X1273499Y119513D01*
X1273196Y119561D01*
X1272894Y119617D01*
X1272594Y119679D01*
X1272295Y119749D01*
X1271998Y119826D01*
X1271702Y119910D01*
X1271409Y120002D01*
X1271119Y120100D01*
X1270831Y120205D01*
X1270545Y120318D01*
X1270262Y120437D01*
X1269982Y120563D01*
X1269705Y120695D01*
X1269432Y120835D01*
X1269162Y120981D01*
X1268896Y121133D01*
X1268633Y121292D01*
X1268374Y121457D01*
X1268120Y121628D01*
X1267869Y121805D01*
X1267623Y121989D01*
X1267381Y122178D01*
X1267145Y122373D01*
X1266912Y122574D01*
X1266685Y122780D01*
X1266463Y122992D01*
X1266246Y123209D01*
X1266034Y123431D01*
X1265828Y123658D01*
X1265627Y123891D01*
X1265432Y124127D01*
X1265243Y124369D01*
X1265059Y124615D01*
X1264882Y124866D01*
X1264711Y125120D01*
X1264546Y125379D01*
X1264387Y125642D01*
X1264235Y125908D01*
X1264089Y126178D01*
X1263949Y126451D01*
X1263817Y126728D01*
X1263691Y127008D01*
X1263572Y127291D01*
X1263459Y127577D01*
X1263354Y127865D01*
X1263256Y128155D01*
X1263164Y128448D01*
X1263080Y128744D01*
X1263003Y129041D01*
X1262933Y129340D01*
X1262871Y129640D01*
X1262815Y129942D01*
X1262767Y130245D01*
X1262727Y130549D01*
X1262693Y130854D01*
X1262667Y131160D01*
X1262649Y131466D01*
X1262638Y131773D01*
X1262634Y132080D01*
X1262634Y203200D01*
X1414780Y129540D02*
X1414783Y129294D01*
X1414792Y129049D01*
X1414807Y128804D01*
X1414827Y128559D01*
X1414854Y128315D01*
X1414887Y128072D01*
X1414925Y127829D01*
X1414969Y127588D01*
X1415019Y127348D01*
X1415075Y127109D01*
X1415137Y126871D01*
X1415204Y126635D01*
X1415277Y126400D01*
X1415356Y126168D01*
X1415440Y125937D01*
X1415530Y125709D01*
X1415625Y125482D01*
X1415726Y125259D01*
X1415832Y125037D01*
X1415944Y124818D01*
X1416060Y124602D01*
X1416182Y124389D01*
X1416309Y124179D01*
X1416441Y123972D01*
X1416578Y123768D01*
X1416720Y123568D01*
X1416867Y123371D01*
X1417019Y123178D01*
X1417175Y122988D01*
X1417335Y122803D01*
X1417500Y122621D01*
X1417670Y122443D01*
X1417843Y122270D01*
X1418021Y122100D01*
X1418203Y121935D01*
X1418388Y121775D01*
X1418578Y121619D01*
X1418771Y121467D01*
X1418968Y121320D01*
X1419168Y121178D01*
X1419372Y121041D01*
X1419579Y120909D01*
X1419789Y120782D01*
X1420002Y120660D01*
X1420218Y120544D01*
X1420437Y120432D01*
X1420659Y120326D01*
X1420882Y120225D01*
X1421109Y120130D01*
X1421337Y120040D01*
X1421568Y119956D01*
X1421800Y119877D01*
X1422035Y119804D01*
X1422271Y119737D01*
X1422509Y119675D01*
X1422748Y119619D01*
X1422988Y119569D01*
X1423229Y119525D01*
X1423472Y119487D01*
X1423715Y119454D01*
X1423959Y119427D01*
X1424204Y119407D01*
X1424449Y119392D01*
X1424694Y119383D01*
X1424940Y119380D01*
X1414780Y129540D02*
X1414780Y208280D01*
X1414783Y208526D01*
X1414792Y208771D01*
X1414807Y209016D01*
X1414827Y209261D01*
X1414854Y209505D01*
X1414887Y209748D01*
X1414925Y209991D01*
X1414969Y210232D01*
X1415019Y210472D01*
X1415075Y210711D01*
X1415137Y210949D01*
X1415204Y211185D01*
X1415277Y211420D01*
X1415356Y211652D01*
X1415440Y211883D01*
X1415530Y212111D01*
X1415625Y212338D01*
X1415726Y212561D01*
X1415832Y212783D01*
X1415944Y213002D01*
X1416060Y213218D01*
X1416182Y213431D01*
X1416309Y213641D01*
X1416441Y213848D01*
X1416578Y214052D01*
X1416720Y214252D01*
X1416867Y214449D01*
X1417019Y214642D01*
X1417175Y214832D01*
X1417335Y215017D01*
X1417500Y215199D01*
X1417670Y215377D01*
X1417843Y215550D01*
X1418021Y215720D01*
X1418203Y215885D01*
X1418388Y216045D01*
X1418578Y216201D01*
X1418771Y216353D01*
X1418968Y216500D01*
X1419168Y216642D01*
X1419372Y216779D01*
X1419579Y216911D01*
X1419789Y217038D01*
X1420002Y217160D01*
X1420218Y217276D01*
X1420437Y217388D01*
X1420659Y217494D01*
X1420882Y217595D01*
X1421109Y217690D01*
X1421337Y217780D01*
X1421568Y217864D01*
X1421800Y217943D01*
X1422035Y218016D01*
X1422271Y218083D01*
X1422509Y218145D01*
X1422748Y218201D01*
X1422988Y218251D01*
X1423229Y218295D01*
X1423472Y218333D01*
X1423715Y218366D01*
X1423959Y218393D01*
X1424204Y218413D01*
X1424449Y218428D01*
X1424694Y218437D01*
X1424940Y218440D01*
X1620520Y218440D01*
X1620704Y218438D01*
X1620888Y218431D01*
X1621072Y218420D01*
X1621255Y218404D01*
X1621438Y218384D01*
X1621621Y218360D01*
X1621803Y218331D01*
X1621984Y218298D01*
X1622164Y218260D01*
X1622344Y218219D01*
X1622522Y218172D01*
X1622699Y218122D01*
X1622875Y218067D01*
X1623049Y218008D01*
X1623222Y217945D01*
X1623393Y217877D01*
X1623563Y217806D01*
X1623731Y217730D01*
X1623897Y217651D01*
X1624061Y217567D01*
X1624223Y217480D01*
X1624383Y217388D01*
X1624541Y217293D01*
X1624696Y217194D01*
X1624849Y217091D01*
X1624999Y216985D01*
X1625147Y216875D01*
X1625292Y216761D01*
X1625434Y216644D01*
X1625573Y216524D01*
X1625709Y216400D01*
X1625843Y216273D01*
X1625973Y216143D01*
X1626100Y216009D01*
X1626224Y215873D01*
X1626344Y215734D01*
X1626461Y215592D01*
X1626575Y215447D01*
X1626685Y215299D01*
X1626791Y215149D01*
X1626894Y214996D01*
X1626993Y214841D01*
X1627088Y214683D01*
X1627180Y214523D01*
X1627267Y214361D01*
X1627351Y214197D01*
X1627430Y214031D01*
X1627506Y213863D01*
X1627577Y213693D01*
X1627645Y213522D01*
X1627708Y213349D01*
X1627767Y213175D01*
X1627822Y212999D01*
X1627872Y212822D01*
X1627919Y212644D01*
X1627960Y212464D01*
X1627998Y212284D01*
X1628031Y212103D01*
X1628060Y211921D01*
X1628084Y211738D01*
X1628104Y211555D01*
X1628120Y211372D01*
X1628131Y211188D01*
X1628138Y211004D01*
X1628140Y210820D01*
X1628140Y127000D01*
X1628138Y126816D01*
X1628131Y126632D01*
X1628120Y126448D01*
X1628104Y126265D01*
X1628084Y126082D01*
X1628060Y125899D01*
X1628031Y125717D01*
X1627998Y125536D01*
X1627960Y125356D01*
X1627919Y125176D01*
X1627872Y124998D01*
X1627822Y124821D01*
X1627767Y124645D01*
X1627708Y124471D01*
X1627645Y124298D01*
X1627577Y124127D01*
X1627506Y123957D01*
X1627430Y123789D01*
X1627351Y123623D01*
X1627267Y123459D01*
X1627180Y123297D01*
X1627088Y123137D01*
X1626993Y122979D01*
X1626894Y122824D01*
X1626791Y122671D01*
X1626685Y122521D01*
X1626575Y122373D01*
X1626461Y122228D01*
X1626344Y122086D01*
X1626224Y121947D01*
X1626100Y121811D01*
X1625973Y121677D01*
X1625843Y121547D01*
X1625709Y121420D01*
X1625573Y121296D01*
X1625434Y121176D01*
X1625292Y121059D01*
X1625147Y120945D01*
X1624999Y120835D01*
X1624849Y120729D01*
X1624696Y120626D01*
X1624541Y120527D01*
X1624383Y120432D01*
X1624223Y120340D01*
X1624061Y120253D01*
X1623897Y120169D01*
X1623731Y120090D01*
X1623563Y120014D01*
X1623393Y119943D01*
X1623222Y119875D01*
X1623049Y119812D01*
X1622875Y119753D01*
X1622699Y119698D01*
X1622522Y119648D01*
X1622344Y119601D01*
X1622164Y119560D01*
X1621984Y119522D01*
X1621803Y119489D01*
X1621621Y119460D01*
X1621438Y119436D01*
X1621255Y119416D01*
X1621072Y119400D01*
X1620888Y119389D01*
X1620704Y119382D01*
X1620520Y119380D01*
X1424940Y119380D01*
X1905000Y218440D02*
X1905184Y218438D01*
X1905368Y218431D01*
X1905552Y218420D01*
X1905735Y218404D01*
X1905918Y218384D01*
X1906101Y218360D01*
X1906283Y218331D01*
X1906464Y218298D01*
X1906644Y218260D01*
X1906824Y218219D01*
X1907002Y218172D01*
X1907179Y218122D01*
X1907355Y218067D01*
X1907529Y218008D01*
X1907702Y217945D01*
X1907873Y217877D01*
X1908043Y217806D01*
X1908211Y217730D01*
X1908377Y217651D01*
X1908541Y217567D01*
X1908703Y217480D01*
X1908863Y217388D01*
X1909021Y217293D01*
X1909176Y217194D01*
X1909329Y217091D01*
X1909479Y216985D01*
X1909627Y216875D01*
X1909772Y216761D01*
X1909914Y216644D01*
X1910053Y216524D01*
X1910189Y216400D01*
X1910323Y216273D01*
X1910453Y216143D01*
X1910580Y216009D01*
X1910704Y215873D01*
X1910824Y215734D01*
X1910941Y215592D01*
X1911055Y215447D01*
X1911165Y215299D01*
X1911271Y215149D01*
X1911374Y214996D01*
X1911473Y214841D01*
X1911568Y214683D01*
X1911660Y214523D01*
X1911747Y214361D01*
X1911831Y214197D01*
X1911910Y214031D01*
X1911986Y213863D01*
X1912057Y213693D01*
X1912125Y213522D01*
X1912188Y213349D01*
X1912247Y213175D01*
X1912302Y212999D01*
X1912352Y212822D01*
X1912399Y212644D01*
X1912440Y212464D01*
X1912478Y212284D01*
X1912511Y212103D01*
X1912540Y211921D01*
X1912564Y211738D01*
X1912584Y211555D01*
X1912600Y211372D01*
X1912611Y211188D01*
X1912618Y211004D01*
X1912620Y210820D01*
X1912620Y129540D01*
X1912617Y129294D01*
X1912608Y129049D01*
X1912593Y128804D01*
X1912573Y128559D01*
X1912546Y128315D01*
X1912513Y128072D01*
X1912475Y127829D01*
X1912431Y127588D01*
X1912381Y127348D01*
X1912325Y127109D01*
X1912263Y126871D01*
X1912196Y126635D01*
X1912123Y126400D01*
X1912044Y126168D01*
X1911960Y125937D01*
X1911870Y125709D01*
X1911775Y125482D01*
X1911674Y125259D01*
X1911568Y125037D01*
X1911456Y124818D01*
X1911340Y124602D01*
X1911218Y124389D01*
X1911091Y124179D01*
X1910959Y123972D01*
X1910822Y123768D01*
X1910680Y123568D01*
X1910533Y123371D01*
X1910381Y123178D01*
X1910225Y122988D01*
X1910065Y122803D01*
X1909900Y122621D01*
X1909730Y122443D01*
X1909557Y122270D01*
X1909379Y122100D01*
X1909197Y121935D01*
X1909012Y121775D01*
X1908822Y121619D01*
X1908629Y121467D01*
X1908432Y121320D01*
X1908232Y121178D01*
X1908028Y121041D01*
X1907821Y120909D01*
X1907611Y120782D01*
X1907398Y120660D01*
X1907182Y120544D01*
X1906963Y120432D01*
X1906741Y120326D01*
X1906518Y120225D01*
X1906291Y120130D01*
X1906063Y120040D01*
X1905832Y119956D01*
X1905600Y119877D01*
X1905365Y119804D01*
X1905129Y119737D01*
X1904891Y119675D01*
X1904652Y119619D01*
X1904412Y119569D01*
X1904171Y119525D01*
X1903928Y119487D01*
X1903685Y119454D01*
X1903441Y119427D01*
X1903196Y119407D01*
X1902951Y119392D01*
X1902706Y119383D01*
X1902460Y119380D01*
X1864360Y119380D01*
X1864176Y119382D01*
X1863992Y119389D01*
X1863808Y119400D01*
X1863625Y119416D01*
X1863442Y119436D01*
X1863259Y119460D01*
X1863077Y119489D01*
X1862896Y119522D01*
X1862716Y119560D01*
X1862536Y119601D01*
X1862358Y119648D01*
X1862181Y119698D01*
X1862005Y119753D01*
X1861831Y119812D01*
X1861658Y119875D01*
X1861487Y119943D01*
X1861317Y120014D01*
X1861149Y120090D01*
X1860983Y120169D01*
X1860819Y120253D01*
X1860657Y120340D01*
X1860497Y120432D01*
X1860339Y120527D01*
X1860184Y120626D01*
X1860031Y120729D01*
X1859881Y120835D01*
X1859733Y120945D01*
X1859588Y121059D01*
X1859446Y121176D01*
X1859307Y121296D01*
X1859171Y121420D01*
X1859037Y121547D01*
X1858907Y121677D01*
X1858780Y121811D01*
X1858656Y121947D01*
X1858536Y122086D01*
X1858419Y122228D01*
X1858305Y122373D01*
X1858195Y122521D01*
X1858089Y122671D01*
X1857986Y122824D01*
X1857887Y122979D01*
X1857792Y123137D01*
X1857700Y123297D01*
X1857613Y123459D01*
X1857529Y123623D01*
X1857450Y123789D01*
X1857374Y123957D01*
X1857303Y124127D01*
X1857235Y124298D01*
X1857172Y124471D01*
X1857113Y124645D01*
X1857058Y124821D01*
X1857008Y124998D01*
X1856961Y125176D01*
X1856920Y125356D01*
X1856882Y125536D01*
X1856849Y125717D01*
X1856820Y125899D01*
X1856796Y126082D01*
X1856776Y126265D01*
X1856760Y126448D01*
X1856749Y126632D01*
X1856742Y126816D01*
X1856740Y127000D01*
X1856740Y208280D01*
X1856743Y208526D01*
X1856752Y208771D01*
X1856767Y209016D01*
X1856787Y209261D01*
X1856814Y209505D01*
X1856847Y209748D01*
X1856885Y209991D01*
X1856929Y210232D01*
X1856979Y210472D01*
X1857035Y210711D01*
X1857097Y210949D01*
X1857164Y211185D01*
X1857237Y211420D01*
X1857316Y211652D01*
X1857400Y211883D01*
X1857490Y212111D01*
X1857585Y212338D01*
X1857686Y212561D01*
X1857792Y212783D01*
X1857904Y213002D01*
X1858020Y213218D01*
X1858142Y213431D01*
X1858269Y213641D01*
X1858401Y213848D01*
X1858538Y214052D01*
X1858680Y214252D01*
X1858827Y214449D01*
X1858979Y214642D01*
X1859135Y214832D01*
X1859295Y215017D01*
X1859460Y215199D01*
X1859630Y215377D01*
X1859803Y215550D01*
X1859981Y215720D01*
X1860163Y215885D01*
X1860348Y216045D01*
X1860538Y216201D01*
X1860731Y216353D01*
X1860928Y216500D01*
X1861128Y216642D01*
X1861332Y216779D01*
X1861539Y216911D01*
X1861749Y217038D01*
X1861962Y217160D01*
X1862178Y217276D01*
X1862397Y217388D01*
X1862619Y217494D01*
X1862842Y217595D01*
X1863069Y217690D01*
X1863297Y217780D01*
X1863528Y217864D01*
X1863760Y217943D01*
X1863995Y218016D01*
X1864231Y218083D01*
X1864469Y218145D01*
X1864708Y218201D01*
X1864948Y218251D01*
X1865189Y218295D01*
X1865432Y218333D01*
X1865675Y218366D01*
X1865919Y218393D01*
X1866164Y218413D01*
X1866409Y218428D01*
X1866654Y218437D01*
X1866900Y218440D01*
X1905000Y218440D01*
D11*
X1282612Y167331D02*
X1282543Y166717D01*
X1282405Y166115D01*
X1282201Y165532D01*
X1281933Y164975D01*
X1281605Y164452D01*
X1281220Y163969D01*
X1280783Y163533D01*
X1280300Y163147D01*
X1279777Y162819D01*
X1279220Y162551D01*
X1278637Y162347D01*
X1278035Y162209D01*
X1277421Y162140D01*
X1276803Y162140D01*
X1276189Y162209D01*
X1275587Y162347D01*
X1275004Y162551D01*
X1274447Y162819D01*
X1273924Y163147D01*
X1273441Y163533D01*
X1273005Y163969D01*
X1272619Y164452D01*
X1272291Y164975D01*
X1272023Y165532D01*
X1271819Y166115D01*
X1271681Y166717D01*
X1271612Y167331D01*
X1271612Y167949D01*
X1271681Y168563D01*
X1271819Y169165D01*
X1272023Y169748D01*
X1272291Y170305D01*
X1272619Y170828D01*
X1273005Y171311D01*
X1273441Y171748D01*
X1273924Y172133D01*
X1274447Y172461D01*
X1275004Y172729D01*
X1275587Y172933D01*
X1276189Y173071D01*
X1276803Y173140D01*
X1277421Y173140D01*
X1278035Y173071D01*
X1278637Y172933D01*
X1279220Y172729D01*
X1279777Y172461D01*
X1280300Y172133D01*
X1280783Y171748D01*
X1281220Y171311D01*
X1281605Y170828D01*
X1281933Y170305D01*
X1282201Y169748D01*
X1282405Y169165D01*
X1282543Y168563D01*
X1282612Y167949D01*
X1282612Y167331D01*
X1907960Y129231D02*
X1907891Y128617D01*
X1907753Y128015D01*
X1907549Y127432D01*
X1907281Y126875D01*
X1906953Y126352D01*
X1906568Y125869D01*
X1906131Y125433D01*
X1905648Y125047D01*
X1905125Y124719D01*
X1904568Y124451D01*
X1903985Y124247D01*
X1903383Y124109D01*
X1902769Y124040D01*
X1902151Y124040D01*
X1901537Y124109D01*
X1900935Y124247D01*
X1900352Y124451D01*
X1899795Y124719D01*
X1899272Y125047D01*
X1898789Y125433D01*
X1898353Y125869D01*
X1897967Y126352D01*
X1897639Y126875D01*
X1897371Y127432D01*
X1897167Y128015D01*
X1897029Y128617D01*
X1896960Y129231D01*
X1896960Y129849D01*
X1897029Y130463D01*
X1897167Y131065D01*
X1897371Y131648D01*
X1897639Y132205D01*
X1897967Y132728D01*
X1898353Y133211D01*
X1898789Y133648D01*
X1899272Y134033D01*
X1899795Y134361D01*
X1900352Y134629D01*
X1900935Y134833D01*
X1901537Y134971D01*
X1902151Y135040D01*
X1902769Y135040D01*
X1903383Y134971D01*
X1903985Y134833D01*
X1904568Y134629D01*
X1905125Y134361D01*
X1905648Y134033D01*
X1906131Y133648D01*
X1906568Y133211D01*
X1906953Y132728D01*
X1907281Y132205D01*
X1907549Y131648D01*
X1907753Y131065D01*
X1907891Y130463D01*
X1907960Y129849D01*
X1907960Y129231D01*
X1907960Y207971D02*
X1907891Y207357D01*
X1907753Y206755D01*
X1907549Y206172D01*
X1907281Y205615D01*
X1906953Y205092D01*
X1906568Y204609D01*
X1906131Y204173D01*
X1905648Y203787D01*
X1905125Y203459D01*
X1904568Y203191D01*
X1903985Y202987D01*
X1903383Y202849D01*
X1902769Y202780D01*
X1902151Y202780D01*
X1901537Y202849D01*
X1900935Y202987D01*
X1900352Y203191D01*
X1899795Y203459D01*
X1899272Y203787D01*
X1898789Y204173D01*
X1898353Y204609D01*
X1897967Y205092D01*
X1897639Y205615D01*
X1897371Y206172D01*
X1897167Y206755D01*
X1897029Y207357D01*
X1896960Y207971D01*
X1896960Y208589D01*
X1897029Y209203D01*
X1897167Y209805D01*
X1897371Y210388D01*
X1897639Y210945D01*
X1897967Y211468D01*
X1898353Y211951D01*
X1898789Y212388D01*
X1899272Y212773D01*
X1899795Y213101D01*
X1900352Y213369D01*
X1900935Y213573D01*
X1901537Y213711D01*
X1902151Y213780D01*
X1902769Y213780D01*
X1903383Y213711D01*
X1903985Y213573D01*
X1904568Y213369D01*
X1905125Y213101D01*
X1905648Y212773D01*
X1906131Y212388D01*
X1906568Y211951D01*
X1906953Y211468D01*
X1907281Y210945D01*
X1907549Y210388D01*
X1907753Y209805D01*
X1907891Y209203D01*
X1907960Y208589D01*
X1907960Y207971D01*
M02*
