G04 EAGLE Gerber RS-274X export*
G75*
%MOMM*%
%FSLAX34Y34*%
%LPD*%
%INTop Copper*%
%IPPOS*%
%AMOC8*
5,1,8,0,0,1.08239X$1,22.5*%
G01*
%ADD10C,1.574800*%
%ADD11C,1.778000*%
%ADD12P,1.429621X8X292.500000*%
%ADD13C,1.524000*%
%ADD14C,1.408000*%
%ADD15R,1.408000X1.408000*%
%ADD16C,0.254000*%
%ADD17C,0.800100*%
%ADD18C,0.756400*%
%ADD19C,0.508000*%

G36*
X584226Y231907D02*
X584226Y231907D01*
X584275Y231906D01*
X585650Y232042D01*
X585677Y232049D01*
X585705Y232049D01*
X585866Y232096D01*
X588407Y233149D01*
X588463Y233183D01*
X588523Y233209D01*
X588588Y233261D01*
X588616Y233278D01*
X588629Y233293D01*
X588654Y233314D01*
X590599Y235258D01*
X590637Y235311D01*
X590683Y235358D01*
X590723Y235431D01*
X590742Y235458D01*
X590748Y235477D01*
X590764Y235505D01*
X591816Y238046D01*
X591823Y238074D01*
X591836Y238099D01*
X591871Y238263D01*
X592006Y239638D01*
X592004Y239664D01*
X592010Y239712D01*
X592010Y304514D01*
X591998Y304584D01*
X591996Y304656D01*
X591978Y304705D01*
X591970Y304756D01*
X591936Y304820D01*
X591912Y304887D01*
X591879Y304928D01*
X591855Y304974D01*
X591803Y305023D01*
X591758Y305079D01*
X591714Y305107D01*
X591677Y305143D01*
X591612Y305173D01*
X591551Y305212D01*
X591501Y305225D01*
X591454Y305247D01*
X591382Y305255D01*
X591313Y305272D01*
X591261Y305268D01*
X591209Y305274D01*
X591139Y305259D01*
X591068Y305253D01*
X591020Y305233D01*
X590969Y305222D01*
X590907Y305185D01*
X590841Y305157D01*
X590785Y305112D01*
X590758Y305095D01*
X590742Y305078D01*
X590710Y305052D01*
X563913Y278255D01*
X563860Y278181D01*
X563801Y278112D01*
X563788Y278081D01*
X563770Y278055D01*
X563743Y277968D01*
X563709Y277883D01*
X563704Y277842D01*
X563697Y277820D01*
X563698Y277788D01*
X563690Y277717D01*
X563690Y258982D01*
X561756Y257047D01*
X544568Y257047D01*
X544497Y257036D01*
X544426Y257034D01*
X544377Y257016D01*
X544325Y257008D01*
X544262Y256974D01*
X544195Y256949D01*
X544154Y256917D01*
X544108Y256892D01*
X544058Y256840D01*
X544002Y256796D01*
X543974Y256752D01*
X543938Y256714D01*
X543908Y256649D01*
X543869Y256589D01*
X543857Y256538D01*
X543835Y256491D01*
X543827Y256420D01*
X543809Y256350D01*
X543813Y256298D01*
X543808Y256247D01*
X543823Y256176D01*
X543829Y256105D01*
X543849Y256057D01*
X543860Y256006D01*
X543897Y255945D01*
X543925Y255879D01*
X543970Y255823D01*
X543986Y255795D01*
X544004Y255780D01*
X544007Y255776D01*
X544009Y255772D01*
X544012Y255769D01*
X544030Y255748D01*
X545959Y253818D01*
X547429Y250271D01*
X547429Y246430D01*
X545959Y242883D01*
X543244Y240167D01*
X539696Y238698D01*
X535856Y238698D01*
X532308Y240167D01*
X529593Y242883D01*
X528123Y246430D01*
X528123Y250271D01*
X529593Y253818D01*
X531522Y255748D01*
X531564Y255806D01*
X531613Y255858D01*
X531635Y255905D01*
X531666Y255947D01*
X531687Y256016D01*
X531717Y256081D01*
X531723Y256133D01*
X531738Y256183D01*
X531736Y256254D01*
X531744Y256325D01*
X531733Y256376D01*
X531732Y256428D01*
X531707Y256496D01*
X531692Y256566D01*
X531665Y256611D01*
X531647Y256659D01*
X531602Y256715D01*
X531566Y256777D01*
X531526Y256811D01*
X531494Y256851D01*
X531433Y256890D01*
X531379Y256937D01*
X531330Y256956D01*
X531287Y256984D01*
X531217Y257002D01*
X531151Y257029D01*
X531079Y257037D01*
X531048Y257045D01*
X531025Y257043D01*
X530984Y257047D01*
X519168Y257047D01*
X519097Y257036D01*
X519026Y257034D01*
X518977Y257016D01*
X518925Y257008D01*
X518862Y256974D01*
X518795Y256949D01*
X518754Y256917D01*
X518708Y256892D01*
X518658Y256840D01*
X518602Y256796D01*
X518574Y256752D01*
X518538Y256714D01*
X518508Y256649D01*
X518469Y256589D01*
X518457Y256538D01*
X518435Y256491D01*
X518427Y256420D01*
X518409Y256350D01*
X518413Y256298D01*
X518408Y256247D01*
X518423Y256176D01*
X518429Y256105D01*
X518449Y256057D01*
X518460Y256006D01*
X518497Y255945D01*
X518525Y255879D01*
X518570Y255823D01*
X518586Y255795D01*
X518604Y255780D01*
X518607Y255776D01*
X518609Y255772D01*
X518612Y255769D01*
X518630Y255748D01*
X520559Y253818D01*
X522029Y250271D01*
X522029Y246430D01*
X520559Y242883D01*
X517844Y240167D01*
X514296Y238698D01*
X510456Y238698D01*
X506908Y240167D01*
X504193Y242883D01*
X502723Y246430D01*
X502723Y250271D01*
X504193Y253818D01*
X506122Y255748D01*
X506164Y255806D01*
X506213Y255858D01*
X506235Y255905D01*
X506266Y255947D01*
X506287Y256016D01*
X506317Y256081D01*
X506323Y256133D01*
X506338Y256183D01*
X506336Y256254D01*
X506344Y256325D01*
X506333Y256376D01*
X506332Y256428D01*
X506307Y256496D01*
X506292Y256566D01*
X506265Y256611D01*
X506247Y256659D01*
X506202Y256715D01*
X506166Y256777D01*
X506126Y256811D01*
X506094Y256851D01*
X506033Y256890D01*
X505979Y256937D01*
X505930Y256956D01*
X505887Y256984D01*
X505817Y257002D01*
X505751Y257029D01*
X505679Y257037D01*
X505648Y257045D01*
X505625Y257043D01*
X505584Y257047D01*
X493768Y257047D01*
X493697Y257036D01*
X493626Y257034D01*
X493577Y257016D01*
X493525Y257008D01*
X493462Y256974D01*
X493395Y256949D01*
X493354Y256917D01*
X493308Y256892D01*
X493258Y256840D01*
X493202Y256796D01*
X493174Y256752D01*
X493138Y256714D01*
X493108Y256649D01*
X493069Y256589D01*
X493057Y256538D01*
X493035Y256491D01*
X493027Y256420D01*
X493009Y256350D01*
X493013Y256298D01*
X493008Y256247D01*
X493023Y256176D01*
X493029Y256105D01*
X493049Y256057D01*
X493060Y256006D01*
X493097Y255945D01*
X493125Y255879D01*
X493170Y255823D01*
X493186Y255795D01*
X493204Y255780D01*
X493207Y255776D01*
X493209Y255772D01*
X493212Y255769D01*
X493230Y255748D01*
X495159Y253818D01*
X496629Y250271D01*
X496629Y246430D01*
X495159Y242883D01*
X492444Y240167D01*
X488896Y238698D01*
X485056Y238698D01*
X481508Y240167D01*
X478793Y242883D01*
X477323Y246430D01*
X477323Y250271D01*
X478793Y253818D01*
X480722Y255748D01*
X480764Y255806D01*
X480813Y255858D01*
X480835Y255905D01*
X480866Y255947D01*
X480887Y256016D01*
X480917Y256081D01*
X480923Y256133D01*
X480938Y256183D01*
X480936Y256254D01*
X480944Y256325D01*
X480933Y256376D01*
X480932Y256428D01*
X480907Y256496D01*
X480892Y256566D01*
X480865Y256611D01*
X480847Y256659D01*
X480802Y256715D01*
X480766Y256777D01*
X480726Y256811D01*
X480694Y256851D01*
X480633Y256890D01*
X480579Y256937D01*
X480530Y256956D01*
X480487Y256984D01*
X480417Y257002D01*
X480351Y257029D01*
X480279Y257037D01*
X480248Y257045D01*
X480225Y257043D01*
X480184Y257047D01*
X468368Y257047D01*
X468297Y257036D01*
X468226Y257034D01*
X468177Y257016D01*
X468125Y257008D01*
X468062Y256974D01*
X467995Y256949D01*
X467954Y256917D01*
X467908Y256892D01*
X467858Y256840D01*
X467802Y256796D01*
X467774Y256752D01*
X467738Y256714D01*
X467708Y256649D01*
X467669Y256589D01*
X467657Y256538D01*
X467635Y256491D01*
X467627Y256420D01*
X467609Y256350D01*
X467613Y256298D01*
X467608Y256247D01*
X467623Y256176D01*
X467629Y256105D01*
X467649Y256057D01*
X467660Y256006D01*
X467697Y255945D01*
X467725Y255879D01*
X467770Y255823D01*
X467786Y255795D01*
X467804Y255780D01*
X467807Y255776D01*
X467809Y255772D01*
X467812Y255769D01*
X467830Y255748D01*
X469759Y253818D01*
X471229Y250271D01*
X471229Y246430D01*
X469759Y242883D01*
X467044Y240167D01*
X463496Y238698D01*
X459656Y238698D01*
X456108Y240167D01*
X453393Y242883D01*
X451923Y246430D01*
X451923Y250271D01*
X453393Y253818D01*
X455322Y255748D01*
X455364Y255806D01*
X455413Y255858D01*
X455435Y255905D01*
X455466Y255947D01*
X455487Y256016D01*
X455517Y256081D01*
X455523Y256133D01*
X455538Y256183D01*
X455536Y256254D01*
X455544Y256325D01*
X455533Y256376D01*
X455532Y256428D01*
X455507Y256496D01*
X455492Y256566D01*
X455465Y256611D01*
X455447Y256659D01*
X455402Y256715D01*
X455366Y256777D01*
X455326Y256811D01*
X455294Y256851D01*
X455233Y256890D01*
X455179Y256937D01*
X455130Y256956D01*
X455087Y256984D01*
X455017Y257002D01*
X454951Y257029D01*
X454879Y257037D01*
X454848Y257045D01*
X454825Y257043D01*
X454784Y257047D01*
X442968Y257047D01*
X442897Y257036D01*
X442826Y257034D01*
X442777Y257016D01*
X442725Y257008D01*
X442662Y256974D01*
X442595Y256949D01*
X442554Y256917D01*
X442508Y256892D01*
X442458Y256840D01*
X442402Y256796D01*
X442374Y256752D01*
X442338Y256714D01*
X442308Y256649D01*
X442269Y256589D01*
X442257Y256538D01*
X442235Y256491D01*
X442227Y256420D01*
X442209Y256350D01*
X442213Y256298D01*
X442208Y256247D01*
X442223Y256176D01*
X442229Y256105D01*
X442249Y256057D01*
X442260Y256006D01*
X442297Y255945D01*
X442325Y255879D01*
X442370Y255823D01*
X442386Y255795D01*
X442404Y255780D01*
X442407Y255776D01*
X442409Y255772D01*
X442412Y255769D01*
X442430Y255748D01*
X444359Y253818D01*
X445829Y250271D01*
X445829Y246430D01*
X444359Y242883D01*
X441644Y240167D01*
X438096Y238698D01*
X434256Y238698D01*
X430708Y240167D01*
X427993Y242883D01*
X426523Y246430D01*
X426523Y250271D01*
X427993Y253818D01*
X429922Y255748D01*
X429964Y255806D01*
X430013Y255858D01*
X430035Y255905D01*
X430066Y255947D01*
X430087Y256016D01*
X430117Y256081D01*
X430123Y256133D01*
X430138Y256183D01*
X430136Y256254D01*
X430144Y256325D01*
X430133Y256376D01*
X430132Y256428D01*
X430107Y256496D01*
X430092Y256566D01*
X430065Y256611D01*
X430047Y256659D01*
X430002Y256715D01*
X429966Y256777D01*
X429926Y256811D01*
X429894Y256851D01*
X429833Y256890D01*
X429779Y256937D01*
X429730Y256956D01*
X429687Y256984D01*
X429617Y257002D01*
X429551Y257029D01*
X429479Y257037D01*
X429448Y257045D01*
X429425Y257043D01*
X429384Y257047D01*
X417568Y257047D01*
X417497Y257036D01*
X417426Y257034D01*
X417377Y257016D01*
X417325Y257008D01*
X417262Y256974D01*
X417195Y256949D01*
X417154Y256917D01*
X417108Y256892D01*
X417058Y256840D01*
X417002Y256796D01*
X416974Y256752D01*
X416938Y256714D01*
X416908Y256649D01*
X416869Y256589D01*
X416857Y256538D01*
X416835Y256491D01*
X416827Y256420D01*
X416809Y256350D01*
X416813Y256298D01*
X416808Y256247D01*
X416823Y256176D01*
X416829Y256105D01*
X416849Y256057D01*
X416860Y256006D01*
X416897Y255945D01*
X416925Y255879D01*
X416970Y255823D01*
X416986Y255795D01*
X417004Y255780D01*
X417007Y255776D01*
X417009Y255772D01*
X417012Y255769D01*
X417030Y255748D01*
X418959Y253818D01*
X420429Y250271D01*
X420429Y246430D01*
X418959Y242883D01*
X416244Y240167D01*
X412696Y238698D01*
X408856Y238698D01*
X405308Y240167D01*
X402593Y242883D01*
X401123Y246430D01*
X401123Y250271D01*
X402593Y253818D01*
X404522Y255748D01*
X404564Y255806D01*
X404613Y255858D01*
X404635Y255905D01*
X404666Y255947D01*
X404687Y256016D01*
X404717Y256081D01*
X404723Y256133D01*
X404738Y256183D01*
X404736Y256254D01*
X404744Y256325D01*
X404733Y256376D01*
X404732Y256428D01*
X404707Y256496D01*
X404692Y256566D01*
X404665Y256611D01*
X404647Y256659D01*
X404602Y256715D01*
X404566Y256777D01*
X404526Y256811D01*
X404494Y256851D01*
X404433Y256890D01*
X404379Y256937D01*
X404330Y256956D01*
X404287Y256984D01*
X404217Y257002D01*
X404151Y257029D01*
X404079Y257037D01*
X404048Y257045D01*
X404025Y257043D01*
X403984Y257047D01*
X392168Y257047D01*
X392097Y257036D01*
X392026Y257034D01*
X391977Y257016D01*
X391925Y257008D01*
X391862Y256974D01*
X391795Y256949D01*
X391754Y256917D01*
X391708Y256892D01*
X391658Y256840D01*
X391602Y256796D01*
X391574Y256752D01*
X391538Y256714D01*
X391508Y256649D01*
X391469Y256589D01*
X391457Y256538D01*
X391435Y256491D01*
X391427Y256420D01*
X391409Y256350D01*
X391413Y256298D01*
X391408Y256247D01*
X391423Y256176D01*
X391429Y256105D01*
X391449Y256057D01*
X391460Y256006D01*
X391497Y255945D01*
X391525Y255879D01*
X391570Y255823D01*
X391586Y255795D01*
X391604Y255780D01*
X391607Y255776D01*
X391609Y255772D01*
X391612Y255769D01*
X391630Y255748D01*
X393559Y253818D01*
X395029Y250271D01*
X395029Y246430D01*
X393559Y242883D01*
X390844Y240167D01*
X387296Y238698D01*
X383456Y238698D01*
X379908Y240167D01*
X377193Y242883D01*
X375723Y246430D01*
X375723Y250271D01*
X377193Y253818D01*
X379122Y255748D01*
X379164Y255806D01*
X379213Y255858D01*
X379235Y255905D01*
X379266Y255947D01*
X379287Y256016D01*
X379317Y256081D01*
X379323Y256133D01*
X379338Y256183D01*
X379336Y256254D01*
X379344Y256325D01*
X379333Y256376D01*
X379332Y256428D01*
X379307Y256496D01*
X379292Y256566D01*
X379265Y256611D01*
X379247Y256659D01*
X379202Y256715D01*
X379166Y256777D01*
X379126Y256811D01*
X379094Y256851D01*
X379033Y256890D01*
X378979Y256937D01*
X378930Y256956D01*
X378887Y256984D01*
X378817Y257002D01*
X378751Y257029D01*
X378679Y257037D01*
X378648Y257045D01*
X378625Y257043D01*
X378584Y257047D01*
X366768Y257047D01*
X366697Y257036D01*
X366626Y257034D01*
X366577Y257016D01*
X366525Y257008D01*
X366462Y256974D01*
X366395Y256949D01*
X366354Y256917D01*
X366308Y256892D01*
X366258Y256840D01*
X366202Y256796D01*
X366174Y256752D01*
X366138Y256714D01*
X366108Y256649D01*
X366069Y256589D01*
X366057Y256538D01*
X366035Y256491D01*
X366027Y256420D01*
X366009Y256350D01*
X366013Y256298D01*
X366008Y256247D01*
X366023Y256176D01*
X366029Y256105D01*
X366049Y256057D01*
X366060Y256006D01*
X366097Y255945D01*
X366125Y255879D01*
X366170Y255823D01*
X366186Y255795D01*
X366204Y255780D01*
X366207Y255776D01*
X366209Y255772D01*
X366212Y255769D01*
X366230Y255748D01*
X368159Y253818D01*
X369629Y250271D01*
X369629Y246430D01*
X368159Y242883D01*
X365444Y240167D01*
X361896Y238698D01*
X358056Y238698D01*
X354508Y240167D01*
X351793Y242883D01*
X350323Y246430D01*
X350323Y250271D01*
X351793Y253818D01*
X353722Y255748D01*
X353764Y255806D01*
X353813Y255858D01*
X353835Y255905D01*
X353866Y255947D01*
X353887Y256016D01*
X353917Y256081D01*
X353923Y256133D01*
X353938Y256183D01*
X353936Y256254D01*
X353944Y256325D01*
X353933Y256376D01*
X353932Y256428D01*
X353907Y256496D01*
X353892Y256566D01*
X353865Y256611D01*
X353847Y256659D01*
X353802Y256715D01*
X353766Y256777D01*
X353726Y256811D01*
X353694Y256851D01*
X353633Y256890D01*
X353579Y256937D01*
X353530Y256956D01*
X353487Y256984D01*
X353417Y257002D01*
X353351Y257029D01*
X353279Y257037D01*
X353248Y257045D01*
X353225Y257043D01*
X353184Y257047D01*
X341368Y257047D01*
X341297Y257036D01*
X341226Y257034D01*
X341177Y257016D01*
X341125Y257008D01*
X341062Y256974D01*
X340995Y256949D01*
X340954Y256917D01*
X340908Y256892D01*
X340858Y256840D01*
X340802Y256796D01*
X340774Y256752D01*
X340738Y256714D01*
X340708Y256649D01*
X340669Y256589D01*
X340657Y256538D01*
X340635Y256491D01*
X340627Y256420D01*
X340609Y256350D01*
X340613Y256298D01*
X340608Y256247D01*
X340623Y256176D01*
X340629Y256105D01*
X340649Y256057D01*
X340660Y256006D01*
X340697Y255945D01*
X340725Y255879D01*
X340770Y255823D01*
X340786Y255795D01*
X340804Y255780D01*
X340807Y255776D01*
X340809Y255772D01*
X340812Y255769D01*
X340830Y255748D01*
X342759Y253818D01*
X344229Y250271D01*
X344229Y246430D01*
X342759Y242883D01*
X340044Y240167D01*
X336496Y238698D01*
X332656Y238698D01*
X329108Y240167D01*
X326393Y242883D01*
X324923Y246430D01*
X324923Y250271D01*
X326393Y253818D01*
X328322Y255748D01*
X328364Y255806D01*
X328413Y255858D01*
X328435Y255905D01*
X328466Y255947D01*
X328487Y256016D01*
X328517Y256081D01*
X328523Y256133D01*
X328538Y256183D01*
X328536Y256254D01*
X328544Y256325D01*
X328533Y256376D01*
X328532Y256428D01*
X328507Y256496D01*
X328492Y256566D01*
X328465Y256611D01*
X328447Y256659D01*
X328402Y256715D01*
X328366Y256777D01*
X328326Y256811D01*
X328294Y256851D01*
X328233Y256890D01*
X328179Y256937D01*
X328130Y256956D01*
X328087Y256984D01*
X328017Y257002D01*
X327951Y257029D01*
X327879Y257037D01*
X327848Y257045D01*
X327825Y257043D01*
X327784Y257047D01*
X315968Y257047D01*
X315897Y257036D01*
X315826Y257034D01*
X315777Y257016D01*
X315725Y257008D01*
X315662Y256974D01*
X315595Y256949D01*
X315554Y256917D01*
X315508Y256892D01*
X315458Y256840D01*
X315402Y256796D01*
X315374Y256752D01*
X315338Y256714D01*
X315308Y256649D01*
X315269Y256589D01*
X315257Y256538D01*
X315235Y256491D01*
X315227Y256420D01*
X315209Y256350D01*
X315213Y256298D01*
X315208Y256247D01*
X315223Y256176D01*
X315229Y256105D01*
X315249Y256057D01*
X315260Y256006D01*
X315297Y255945D01*
X315325Y255879D01*
X315370Y255823D01*
X315386Y255795D01*
X315404Y255780D01*
X315407Y255776D01*
X315409Y255772D01*
X315412Y255769D01*
X315430Y255748D01*
X317359Y253818D01*
X318829Y250271D01*
X318829Y246430D01*
X317359Y242883D01*
X314644Y240167D01*
X311096Y238698D01*
X307256Y238698D01*
X303708Y240167D01*
X300993Y242883D01*
X299523Y246430D01*
X299523Y250271D01*
X300993Y253818D01*
X302922Y255748D01*
X302964Y255806D01*
X303013Y255858D01*
X303035Y255905D01*
X303066Y255947D01*
X303087Y256016D01*
X303117Y256081D01*
X303123Y256133D01*
X303138Y256183D01*
X303136Y256254D01*
X303144Y256325D01*
X303133Y256376D01*
X303132Y256428D01*
X303107Y256496D01*
X303092Y256566D01*
X303065Y256611D01*
X303047Y256659D01*
X303002Y256715D01*
X302966Y256777D01*
X302926Y256811D01*
X302894Y256851D01*
X302833Y256890D01*
X302779Y256937D01*
X302730Y256956D01*
X302687Y256984D01*
X302617Y257002D01*
X302551Y257029D01*
X302479Y257037D01*
X302448Y257045D01*
X302425Y257043D01*
X302384Y257047D01*
X290568Y257047D01*
X290497Y257036D01*
X290426Y257034D01*
X290377Y257016D01*
X290325Y257008D01*
X290262Y256974D01*
X290195Y256949D01*
X290154Y256917D01*
X290108Y256892D01*
X290058Y256840D01*
X290002Y256796D01*
X289974Y256752D01*
X289938Y256714D01*
X289908Y256649D01*
X289869Y256589D01*
X289857Y256538D01*
X289835Y256491D01*
X289827Y256420D01*
X289809Y256350D01*
X289813Y256298D01*
X289808Y256247D01*
X289823Y256176D01*
X289829Y256105D01*
X289849Y256057D01*
X289860Y256006D01*
X289897Y255945D01*
X289925Y255879D01*
X289970Y255823D01*
X289986Y255795D01*
X290004Y255780D01*
X290007Y255776D01*
X290009Y255772D01*
X290012Y255769D01*
X290030Y255748D01*
X291959Y253818D01*
X293429Y250271D01*
X293429Y246430D01*
X291959Y242883D01*
X289244Y240167D01*
X285696Y238698D01*
X281856Y238698D01*
X278308Y240167D01*
X275593Y242883D01*
X274123Y246430D01*
X274123Y250271D01*
X275593Y253818D01*
X277522Y255748D01*
X277564Y255806D01*
X277613Y255858D01*
X277635Y255905D01*
X277666Y255947D01*
X277687Y256016D01*
X277717Y256081D01*
X277723Y256133D01*
X277738Y256183D01*
X277736Y256254D01*
X277744Y256325D01*
X277733Y256376D01*
X277732Y256428D01*
X277707Y256496D01*
X277692Y256566D01*
X277665Y256611D01*
X277647Y256659D01*
X277602Y256715D01*
X277566Y256777D01*
X277526Y256811D01*
X277494Y256851D01*
X277433Y256890D01*
X277379Y256937D01*
X277330Y256956D01*
X277287Y256984D01*
X277217Y257002D01*
X277151Y257029D01*
X277079Y257037D01*
X277048Y257045D01*
X277025Y257043D01*
X276984Y257047D01*
X265168Y257047D01*
X265097Y257036D01*
X265026Y257034D01*
X264977Y257016D01*
X264925Y257008D01*
X264862Y256974D01*
X264795Y256949D01*
X264754Y256917D01*
X264708Y256892D01*
X264658Y256840D01*
X264602Y256796D01*
X264574Y256752D01*
X264538Y256714D01*
X264508Y256649D01*
X264469Y256589D01*
X264457Y256538D01*
X264435Y256491D01*
X264427Y256420D01*
X264409Y256350D01*
X264413Y256298D01*
X264408Y256247D01*
X264423Y256176D01*
X264429Y256105D01*
X264449Y256057D01*
X264460Y256006D01*
X264497Y255945D01*
X264525Y255879D01*
X264570Y255823D01*
X264586Y255795D01*
X264604Y255780D01*
X264607Y255776D01*
X264609Y255772D01*
X264612Y255769D01*
X264630Y255748D01*
X266559Y253818D01*
X268029Y250271D01*
X268029Y246430D01*
X266559Y242883D01*
X263844Y240167D01*
X260296Y238698D01*
X256456Y238698D01*
X252908Y240167D01*
X250193Y242883D01*
X248723Y246430D01*
X248723Y250271D01*
X250193Y253818D01*
X252122Y255748D01*
X252164Y255806D01*
X252213Y255858D01*
X252235Y255905D01*
X252266Y255947D01*
X252287Y256016D01*
X252317Y256081D01*
X252323Y256133D01*
X252338Y256183D01*
X252336Y256254D01*
X252344Y256325D01*
X252333Y256376D01*
X252332Y256428D01*
X252307Y256496D01*
X252292Y256566D01*
X252265Y256611D01*
X252247Y256659D01*
X252202Y256715D01*
X252166Y256777D01*
X252126Y256811D01*
X252094Y256851D01*
X252033Y256890D01*
X251979Y256937D01*
X251930Y256956D01*
X251887Y256984D01*
X251817Y257002D01*
X251751Y257029D01*
X251679Y257037D01*
X251648Y257045D01*
X251625Y257043D01*
X251584Y257047D01*
X247746Y257047D01*
X247656Y257033D01*
X247565Y257025D01*
X247535Y257013D01*
X247503Y257008D01*
X247422Y256965D01*
X247339Y256929D01*
X247306Y256903D01*
X247286Y256892D01*
X247265Y256870D01*
X247262Y256869D01*
X247259Y256865D01*
X247208Y256824D01*
X242410Y252027D01*
X242342Y251932D01*
X242272Y251838D01*
X242270Y251832D01*
X242266Y251827D01*
X242232Y251715D01*
X242196Y251604D01*
X242196Y251598D01*
X242194Y251592D01*
X242197Y251475D01*
X242198Y251358D01*
X242200Y251351D01*
X242200Y251346D01*
X242207Y251328D01*
X242245Y251197D01*
X242629Y250271D01*
X242629Y246430D01*
X241159Y242883D01*
X238444Y240167D01*
X234896Y238698D01*
X231056Y238698D01*
X227508Y240167D01*
X224793Y242883D01*
X223323Y246430D01*
X223323Y250271D01*
X224793Y253818D01*
X227508Y256534D01*
X231056Y258003D01*
X234896Y258003D01*
X237360Y256983D01*
X237473Y256956D01*
X237587Y256927D01*
X237593Y256928D01*
X237599Y256926D01*
X237716Y256937D01*
X237832Y256947D01*
X237838Y256949D01*
X237844Y256950D01*
X237952Y256997D01*
X238058Y257043D01*
X238064Y257048D01*
X238069Y257050D01*
X238083Y257062D01*
X238189Y257148D01*
X242537Y261495D01*
X242590Y261569D01*
X242649Y261638D01*
X242661Y261669D01*
X242680Y261695D01*
X242707Y261782D01*
X242741Y261867D01*
X242746Y261908D01*
X242753Y261930D01*
X242752Y261962D01*
X242760Y262033D01*
X242760Y266352D01*
X242748Y266423D01*
X242746Y266494D01*
X242728Y266543D01*
X242720Y266595D01*
X242686Y266658D01*
X242662Y266725D01*
X242629Y266766D01*
X242605Y266812D01*
X242553Y266861D01*
X242508Y266917D01*
X242464Y266946D01*
X242427Y266981D01*
X242362Y267012D01*
X242301Y267050D01*
X242251Y267063D01*
X242204Y267085D01*
X242132Y267093D01*
X242063Y267110D01*
X242011Y267106D01*
X241959Y267112D01*
X241889Y267097D01*
X241818Y267091D01*
X241770Y267071D01*
X241719Y267060D01*
X241657Y267023D01*
X241591Y266995D01*
X241535Y266950D01*
X241508Y266934D01*
X241492Y266916D01*
X241460Y266890D01*
X238972Y264402D01*
X235518Y262972D01*
X231779Y262972D01*
X228325Y264402D01*
X225681Y267046D01*
X224250Y270501D01*
X224250Y289480D01*
X225681Y292934D01*
X228325Y295578D01*
X231779Y297009D01*
X235518Y297009D01*
X238972Y295578D01*
X241460Y293090D01*
X241518Y293049D01*
X241570Y292999D01*
X241618Y292977D01*
X241660Y292947D01*
X241728Y292926D01*
X241794Y292896D01*
X241845Y292890D01*
X241895Y292874D01*
X241967Y292876D01*
X242038Y292868D01*
X242089Y292879D01*
X242141Y292881D01*
X242208Y292905D01*
X242278Y292921D01*
X242323Y292947D01*
X242372Y292965D01*
X242428Y293010D01*
X242489Y293047D01*
X242523Y293086D01*
X242564Y293119D01*
X242603Y293179D01*
X242649Y293234D01*
X242669Y293282D01*
X242697Y293326D01*
X242714Y293395D01*
X242741Y293462D01*
X242749Y293533D01*
X242757Y293564D01*
X242755Y293588D01*
X242760Y293629D01*
X242760Y349031D01*
X244694Y350965D01*
X484886Y350965D01*
X484906Y350968D01*
X484925Y350966D01*
X485027Y350988D01*
X485129Y351005D01*
X485146Y351014D01*
X485166Y351019D01*
X485255Y351072D01*
X485346Y351120D01*
X485360Y351134D01*
X485377Y351145D01*
X485444Y351223D01*
X485516Y351298D01*
X485524Y351316D01*
X485537Y351332D01*
X485576Y351428D01*
X485619Y351521D01*
X485621Y351541D01*
X485629Y351560D01*
X485647Y351726D01*
X485647Y374399D01*
X485628Y374513D01*
X485611Y374629D01*
X485609Y374635D01*
X485608Y374641D01*
X485553Y374744D01*
X485500Y374849D01*
X485495Y374853D01*
X485492Y374859D01*
X485408Y374938D01*
X485324Y375021D01*
X485318Y375025D01*
X485314Y375028D01*
X485297Y375036D01*
X485177Y375102D01*
X483265Y375894D01*
X480264Y378895D01*
X478639Y382816D01*
X478639Y387061D01*
X480264Y390982D01*
X483265Y393983D01*
X486403Y395283D01*
X486486Y395334D01*
X486571Y395380D01*
X486589Y395398D01*
X486612Y395412D01*
X486674Y395488D01*
X486741Y395558D01*
X486752Y395582D01*
X486768Y395602D01*
X486803Y395693D01*
X486844Y395781D01*
X486847Y395807D01*
X486857Y395831D01*
X486861Y395929D01*
X486871Y396025D01*
X486866Y396051D01*
X486867Y396077D01*
X486840Y396171D01*
X486819Y396266D01*
X486806Y396288D01*
X486798Y396313D01*
X486743Y396393D01*
X486693Y396477D01*
X486673Y396494D01*
X486658Y396515D01*
X486580Y396574D01*
X486506Y396637D01*
X486482Y396647D01*
X486461Y396662D01*
X486368Y396692D01*
X486278Y396729D01*
X486245Y396732D01*
X486227Y396738D01*
X486194Y396738D01*
X486111Y396747D01*
X467105Y396747D01*
X467009Y396732D01*
X466912Y396722D01*
X466888Y396712D01*
X466862Y396708D01*
X466776Y396662D01*
X466687Y396622D01*
X466668Y396605D01*
X466645Y396592D01*
X466578Y396522D01*
X466506Y396456D01*
X466494Y396433D01*
X466476Y396414D01*
X466435Y396326D01*
X466388Y396240D01*
X466383Y396215D01*
X466372Y396191D01*
X466361Y396094D01*
X466344Y395998D01*
X466348Y395972D01*
X466345Y395947D01*
X466366Y395851D01*
X466380Y395755D01*
X466392Y395732D01*
X466397Y395706D01*
X466447Y395623D01*
X466491Y395536D01*
X466510Y395517D01*
X466523Y395495D01*
X466597Y395432D01*
X466667Y395364D01*
X466695Y395348D01*
X466710Y395335D01*
X466741Y395323D01*
X466814Y395283D01*
X469952Y393983D01*
X472953Y390982D01*
X474577Y387061D01*
X474577Y382816D01*
X472953Y378895D01*
X469952Y375894D01*
X466030Y374270D01*
X461786Y374270D01*
X457865Y375894D01*
X454864Y378895D01*
X453239Y382816D01*
X453239Y387061D01*
X454864Y390982D01*
X457865Y393983D01*
X461003Y395283D01*
X461086Y395334D01*
X461171Y395380D01*
X461189Y395398D01*
X461212Y395412D01*
X461274Y395488D01*
X461341Y395558D01*
X461352Y395582D01*
X461368Y395602D01*
X461403Y395693D01*
X461444Y395781D01*
X461447Y395807D01*
X461457Y395831D01*
X461461Y395929D01*
X461471Y396025D01*
X461466Y396051D01*
X461467Y396077D01*
X461440Y396171D01*
X461419Y396266D01*
X461406Y396288D01*
X461398Y396313D01*
X461343Y396393D01*
X461293Y396477D01*
X461273Y396494D01*
X461258Y396515D01*
X461180Y396574D01*
X461106Y396637D01*
X461082Y396647D01*
X461061Y396662D01*
X460968Y396692D01*
X460878Y396729D01*
X460845Y396732D01*
X460827Y396738D01*
X460794Y396738D01*
X460711Y396747D01*
X441705Y396747D01*
X441609Y396732D01*
X441512Y396722D01*
X441488Y396712D01*
X441462Y396708D01*
X441376Y396662D01*
X441287Y396622D01*
X441268Y396605D01*
X441245Y396592D01*
X441178Y396522D01*
X441106Y396456D01*
X441094Y396433D01*
X441076Y396414D01*
X441035Y396326D01*
X440988Y396240D01*
X440983Y396215D01*
X440972Y396191D01*
X440961Y396094D01*
X440944Y395998D01*
X440948Y395972D01*
X440945Y395947D01*
X440966Y395851D01*
X440980Y395755D01*
X440992Y395732D01*
X440997Y395706D01*
X441047Y395623D01*
X441091Y395536D01*
X441110Y395517D01*
X441123Y395495D01*
X441197Y395432D01*
X441267Y395364D01*
X441295Y395348D01*
X441310Y395335D01*
X441341Y395323D01*
X441414Y395283D01*
X444552Y393983D01*
X447553Y390982D01*
X449177Y387061D01*
X449177Y382816D01*
X447553Y378895D01*
X444552Y375894D01*
X440630Y374270D01*
X436386Y374270D01*
X432465Y375894D01*
X429464Y378895D01*
X427839Y382816D01*
X427839Y387061D01*
X429464Y390982D01*
X432465Y393983D01*
X435603Y395283D01*
X435686Y395334D01*
X435771Y395380D01*
X435789Y395398D01*
X435812Y395412D01*
X435874Y395488D01*
X435941Y395558D01*
X435952Y395582D01*
X435968Y395602D01*
X436003Y395693D01*
X436044Y395781D01*
X436047Y395807D01*
X436057Y395831D01*
X436061Y395929D01*
X436071Y396025D01*
X436066Y396051D01*
X436067Y396077D01*
X436040Y396171D01*
X436019Y396266D01*
X436006Y396288D01*
X435998Y396313D01*
X435943Y396393D01*
X435893Y396477D01*
X435873Y396494D01*
X435858Y396515D01*
X435780Y396574D01*
X435706Y396637D01*
X435682Y396647D01*
X435661Y396662D01*
X435568Y396692D01*
X435478Y396729D01*
X435445Y396732D01*
X435427Y396738D01*
X435394Y396738D01*
X435311Y396747D01*
X416305Y396747D01*
X416209Y396732D01*
X416112Y396722D01*
X416088Y396712D01*
X416062Y396708D01*
X415976Y396662D01*
X415887Y396622D01*
X415868Y396605D01*
X415845Y396592D01*
X415778Y396522D01*
X415706Y396456D01*
X415694Y396433D01*
X415676Y396414D01*
X415635Y396326D01*
X415588Y396240D01*
X415583Y396215D01*
X415572Y396191D01*
X415561Y396094D01*
X415544Y395998D01*
X415548Y395972D01*
X415545Y395947D01*
X415566Y395851D01*
X415580Y395755D01*
X415592Y395732D01*
X415597Y395706D01*
X415647Y395623D01*
X415691Y395536D01*
X415710Y395517D01*
X415723Y395495D01*
X415797Y395432D01*
X415867Y395364D01*
X415895Y395348D01*
X415910Y395335D01*
X415941Y395323D01*
X416014Y395283D01*
X419152Y393983D01*
X422153Y390982D01*
X423777Y387061D01*
X423777Y382816D01*
X422153Y378895D01*
X419152Y375894D01*
X415230Y374270D01*
X410986Y374270D01*
X407065Y375894D01*
X404064Y378895D01*
X402439Y382816D01*
X402439Y387061D01*
X404064Y390982D01*
X407065Y393983D01*
X410203Y395283D01*
X410286Y395334D01*
X410371Y395380D01*
X410389Y395398D01*
X410412Y395412D01*
X410474Y395488D01*
X410541Y395558D01*
X410552Y395582D01*
X410568Y395602D01*
X410603Y395693D01*
X410644Y395781D01*
X410647Y395807D01*
X410657Y395831D01*
X410661Y395929D01*
X410671Y396025D01*
X410666Y396051D01*
X410667Y396077D01*
X410640Y396171D01*
X410619Y396266D01*
X410606Y396288D01*
X410598Y396313D01*
X410543Y396393D01*
X410493Y396477D01*
X410473Y396494D01*
X410458Y396515D01*
X410380Y396574D01*
X410306Y396637D01*
X410282Y396647D01*
X410261Y396662D01*
X410168Y396692D01*
X410078Y396729D01*
X410045Y396732D01*
X410027Y396738D01*
X409994Y396738D01*
X409911Y396747D01*
X390905Y396747D01*
X390809Y396732D01*
X390712Y396722D01*
X390688Y396712D01*
X390662Y396708D01*
X390576Y396662D01*
X390487Y396622D01*
X390468Y396605D01*
X390445Y396592D01*
X390378Y396522D01*
X390306Y396456D01*
X390294Y396433D01*
X390276Y396414D01*
X390235Y396326D01*
X390188Y396240D01*
X390183Y396215D01*
X390172Y396191D01*
X390161Y396094D01*
X390144Y395998D01*
X390148Y395972D01*
X390145Y395947D01*
X390166Y395851D01*
X390180Y395755D01*
X390192Y395732D01*
X390197Y395706D01*
X390247Y395623D01*
X390291Y395536D01*
X390310Y395517D01*
X390323Y395495D01*
X390397Y395432D01*
X390467Y395364D01*
X390495Y395348D01*
X390510Y395335D01*
X390541Y395323D01*
X390614Y395283D01*
X393752Y393983D01*
X396753Y390982D01*
X398377Y387061D01*
X398377Y382816D01*
X396753Y378895D01*
X393752Y375894D01*
X389830Y374270D01*
X385586Y374270D01*
X381665Y375894D01*
X378664Y378895D01*
X377039Y382816D01*
X377039Y387061D01*
X378664Y390982D01*
X381665Y393983D01*
X384803Y395283D01*
X384886Y395334D01*
X384971Y395380D01*
X384989Y395398D01*
X385012Y395412D01*
X385074Y395488D01*
X385141Y395558D01*
X385152Y395582D01*
X385168Y395602D01*
X385203Y395693D01*
X385244Y395781D01*
X385247Y395807D01*
X385257Y395831D01*
X385261Y395929D01*
X385271Y396025D01*
X385266Y396051D01*
X385267Y396077D01*
X385240Y396171D01*
X385219Y396266D01*
X385206Y396288D01*
X385198Y396313D01*
X385143Y396393D01*
X385093Y396477D01*
X385073Y396494D01*
X385058Y396515D01*
X384980Y396574D01*
X384906Y396637D01*
X384882Y396647D01*
X384861Y396662D01*
X384768Y396692D01*
X384678Y396729D01*
X384645Y396732D01*
X384627Y396738D01*
X384594Y396738D01*
X384511Y396747D01*
X365505Y396747D01*
X365409Y396732D01*
X365312Y396722D01*
X365288Y396712D01*
X365262Y396708D01*
X365176Y396662D01*
X365087Y396622D01*
X365068Y396605D01*
X365045Y396592D01*
X364978Y396522D01*
X364906Y396456D01*
X364894Y396433D01*
X364876Y396414D01*
X364835Y396326D01*
X364788Y396240D01*
X364783Y396215D01*
X364772Y396191D01*
X364761Y396094D01*
X364744Y395998D01*
X364748Y395972D01*
X364745Y395947D01*
X364766Y395851D01*
X364780Y395755D01*
X364792Y395732D01*
X364797Y395706D01*
X364847Y395623D01*
X364891Y395536D01*
X364910Y395517D01*
X364923Y395495D01*
X364997Y395432D01*
X365067Y395364D01*
X365095Y395348D01*
X365110Y395335D01*
X365141Y395323D01*
X365214Y395283D01*
X368352Y393983D01*
X371353Y390982D01*
X372977Y387061D01*
X372977Y382816D01*
X371353Y378895D01*
X368352Y375894D01*
X364430Y374270D01*
X360186Y374270D01*
X356265Y375894D01*
X353264Y378895D01*
X351639Y382816D01*
X351639Y387061D01*
X353264Y390982D01*
X356265Y393983D01*
X359403Y395283D01*
X359486Y395334D01*
X359571Y395380D01*
X359589Y395398D01*
X359612Y395412D01*
X359674Y395488D01*
X359741Y395558D01*
X359752Y395582D01*
X359768Y395602D01*
X359803Y395693D01*
X359844Y395781D01*
X359847Y395807D01*
X359857Y395831D01*
X359861Y395929D01*
X359871Y396025D01*
X359866Y396051D01*
X359867Y396077D01*
X359840Y396171D01*
X359819Y396266D01*
X359806Y396288D01*
X359798Y396313D01*
X359743Y396393D01*
X359693Y396477D01*
X359673Y396494D01*
X359658Y396515D01*
X359580Y396574D01*
X359506Y396637D01*
X359482Y396647D01*
X359461Y396662D01*
X359368Y396692D01*
X359278Y396729D01*
X359245Y396732D01*
X359227Y396738D01*
X359194Y396738D01*
X359111Y396747D01*
X340105Y396747D01*
X340009Y396732D01*
X339912Y396722D01*
X339888Y396712D01*
X339862Y396708D01*
X339776Y396662D01*
X339687Y396622D01*
X339668Y396605D01*
X339645Y396592D01*
X339578Y396522D01*
X339506Y396456D01*
X339494Y396433D01*
X339476Y396414D01*
X339435Y396326D01*
X339388Y396240D01*
X339383Y396215D01*
X339372Y396191D01*
X339361Y396094D01*
X339344Y395998D01*
X339348Y395972D01*
X339345Y395947D01*
X339366Y395851D01*
X339380Y395755D01*
X339392Y395732D01*
X339397Y395706D01*
X339447Y395623D01*
X339491Y395536D01*
X339510Y395517D01*
X339523Y395495D01*
X339597Y395432D01*
X339667Y395364D01*
X339695Y395348D01*
X339710Y395335D01*
X339741Y395323D01*
X339814Y395283D01*
X342952Y393983D01*
X345953Y390982D01*
X347577Y387061D01*
X347577Y382816D01*
X345953Y378895D01*
X342952Y375894D01*
X339030Y374270D01*
X334786Y374270D01*
X330865Y375894D01*
X327864Y378895D01*
X326239Y382816D01*
X326239Y387061D01*
X327864Y390982D01*
X330865Y393983D01*
X334003Y395283D01*
X334086Y395334D01*
X334171Y395380D01*
X334189Y395398D01*
X334212Y395412D01*
X334274Y395488D01*
X334341Y395558D01*
X334352Y395582D01*
X334368Y395602D01*
X334403Y395693D01*
X334444Y395781D01*
X334447Y395807D01*
X334457Y395831D01*
X334461Y395929D01*
X334471Y396025D01*
X334466Y396051D01*
X334467Y396077D01*
X334440Y396171D01*
X334419Y396266D01*
X334406Y396288D01*
X334398Y396313D01*
X334343Y396393D01*
X334293Y396477D01*
X334273Y396494D01*
X334258Y396515D01*
X334180Y396574D01*
X334106Y396637D01*
X334082Y396647D01*
X334061Y396662D01*
X333968Y396692D01*
X333878Y396729D01*
X333845Y396732D01*
X333827Y396738D01*
X333794Y396738D01*
X333711Y396747D01*
X314705Y396747D01*
X314609Y396732D01*
X314512Y396722D01*
X314488Y396712D01*
X314462Y396708D01*
X314376Y396662D01*
X314287Y396622D01*
X314268Y396605D01*
X314245Y396592D01*
X314178Y396522D01*
X314106Y396456D01*
X314094Y396433D01*
X314076Y396414D01*
X314035Y396326D01*
X313988Y396240D01*
X313983Y396215D01*
X313972Y396191D01*
X313961Y396094D01*
X313944Y395998D01*
X313948Y395972D01*
X313945Y395947D01*
X313966Y395851D01*
X313980Y395755D01*
X313992Y395732D01*
X313997Y395706D01*
X314047Y395623D01*
X314091Y395536D01*
X314110Y395517D01*
X314123Y395495D01*
X314197Y395432D01*
X314267Y395364D01*
X314295Y395348D01*
X314310Y395335D01*
X314341Y395323D01*
X314414Y395283D01*
X317552Y393983D01*
X320553Y390982D01*
X322177Y387061D01*
X322177Y382816D01*
X320553Y378895D01*
X317552Y375894D01*
X313630Y374270D01*
X309386Y374270D01*
X305465Y375894D01*
X302464Y378895D01*
X300839Y382816D01*
X300839Y387061D01*
X302464Y390982D01*
X305465Y393983D01*
X308603Y395283D01*
X308686Y395334D01*
X308771Y395380D01*
X308789Y395398D01*
X308812Y395412D01*
X308874Y395488D01*
X308941Y395558D01*
X308952Y395582D01*
X308968Y395602D01*
X309003Y395693D01*
X309044Y395781D01*
X309047Y395807D01*
X309057Y395831D01*
X309061Y395929D01*
X309071Y396025D01*
X309066Y396051D01*
X309067Y396077D01*
X309040Y396171D01*
X309019Y396266D01*
X309006Y396288D01*
X308998Y396313D01*
X308943Y396393D01*
X308893Y396477D01*
X308873Y396494D01*
X308858Y396515D01*
X308780Y396574D01*
X308706Y396637D01*
X308682Y396647D01*
X308661Y396662D01*
X308568Y396692D01*
X308478Y396729D01*
X308445Y396732D01*
X308427Y396738D01*
X308394Y396738D01*
X308311Y396747D01*
X289305Y396747D01*
X289209Y396732D01*
X289112Y396722D01*
X289088Y396712D01*
X289062Y396708D01*
X288976Y396662D01*
X288887Y396622D01*
X288868Y396605D01*
X288845Y396592D01*
X288778Y396522D01*
X288706Y396456D01*
X288694Y396433D01*
X288676Y396414D01*
X288635Y396326D01*
X288588Y396240D01*
X288583Y396215D01*
X288572Y396191D01*
X288561Y396094D01*
X288544Y395998D01*
X288548Y395972D01*
X288545Y395947D01*
X288566Y395851D01*
X288580Y395755D01*
X288592Y395732D01*
X288597Y395706D01*
X288647Y395623D01*
X288691Y395536D01*
X288710Y395517D01*
X288723Y395495D01*
X288797Y395432D01*
X288867Y395364D01*
X288895Y395348D01*
X288910Y395335D01*
X288941Y395323D01*
X289014Y395283D01*
X292152Y393983D01*
X295153Y390982D01*
X296777Y387061D01*
X296777Y382816D01*
X295153Y378895D01*
X292152Y375894D01*
X288230Y374270D01*
X283986Y374270D01*
X280065Y375894D01*
X277064Y378895D01*
X275439Y382816D01*
X275439Y387061D01*
X277064Y390982D01*
X280065Y393983D01*
X283203Y395283D01*
X283286Y395334D01*
X283371Y395380D01*
X283389Y395398D01*
X283412Y395412D01*
X283474Y395488D01*
X283541Y395558D01*
X283552Y395582D01*
X283568Y395602D01*
X283603Y395693D01*
X283644Y395781D01*
X283647Y395807D01*
X283657Y395831D01*
X283661Y395929D01*
X283671Y396025D01*
X283666Y396051D01*
X283667Y396077D01*
X283640Y396171D01*
X283619Y396266D01*
X283606Y396288D01*
X283598Y396313D01*
X283543Y396393D01*
X283493Y396477D01*
X283473Y396494D01*
X283458Y396515D01*
X283380Y396574D01*
X283306Y396637D01*
X283282Y396647D01*
X283261Y396662D01*
X283168Y396692D01*
X283078Y396729D01*
X283045Y396732D01*
X283027Y396738D01*
X282994Y396738D01*
X282911Y396747D01*
X199326Y396747D01*
X199307Y396744D01*
X199287Y396746D01*
X199186Y396724D01*
X199084Y396708D01*
X199066Y396698D01*
X199047Y396694D01*
X198958Y396641D01*
X198866Y396592D01*
X198853Y396578D01*
X198836Y396568D01*
X198768Y396489D01*
X198697Y396414D01*
X198689Y396396D01*
X198676Y396381D01*
X198637Y396285D01*
X198593Y396191D01*
X198591Y396171D01*
X198584Y396153D01*
X198565Y395986D01*
X198565Y292620D01*
X198581Y292524D01*
X198590Y292427D01*
X198601Y292403D01*
X198605Y292377D01*
X198650Y292291D01*
X198690Y292202D01*
X198708Y292183D01*
X198720Y292160D01*
X198791Y292093D01*
X198857Y292021D01*
X198879Y292008D01*
X198898Y291990D01*
X198987Y291949D01*
X199072Y291902D01*
X199098Y291898D01*
X199121Y291887D01*
X199218Y291876D01*
X199314Y291859D01*
X199340Y291863D01*
X199366Y291860D01*
X199461Y291880D01*
X199557Y291895D01*
X199581Y291906D01*
X199606Y291912D01*
X199690Y291962D01*
X199777Y292006D01*
X199795Y292025D01*
X199817Y292038D01*
X199881Y292112D01*
X199949Y292182D01*
X199965Y292210D01*
X199977Y292225D01*
X199990Y292256D01*
X200030Y292329D01*
X200281Y292934D01*
X202925Y295578D01*
X206379Y297009D01*
X210118Y297009D01*
X213572Y295578D01*
X216216Y292934D01*
X217647Y289480D01*
X217647Y270501D01*
X216216Y267046D01*
X213572Y264402D01*
X210118Y262972D01*
X206379Y262972D01*
X202925Y264402D01*
X200281Y267046D01*
X200030Y267652D01*
X199978Y267735D01*
X199933Y267821D01*
X199914Y267839D01*
X199900Y267861D01*
X199825Y267923D01*
X199755Y267990D01*
X199731Y268001D01*
X199711Y268018D01*
X199620Y268053D01*
X199531Y268094D01*
X199505Y268097D01*
X199481Y268106D01*
X199384Y268110D01*
X199287Y268121D01*
X199262Y268115D01*
X199235Y268116D01*
X199142Y268089D01*
X199047Y268069D01*
X199024Y268055D01*
X198999Y268048D01*
X198919Y267992D01*
X198836Y267942D01*
X198819Y267923D01*
X198797Y267908D01*
X198739Y267830D01*
X198676Y267756D01*
X198666Y267731D01*
X198650Y267710D01*
X198620Y267618D01*
X198584Y267527D01*
X198580Y267495D01*
X198574Y267476D01*
X198574Y267443D01*
X198565Y267361D01*
X198565Y257394D01*
X192052Y250881D01*
X191998Y250807D01*
X191939Y250737D01*
X191927Y250707D01*
X191908Y250681D01*
X191881Y250594D01*
X191847Y250509D01*
X191843Y250468D01*
X191836Y250446D01*
X191837Y250414D01*
X191829Y250343D01*
X191829Y246430D01*
X190359Y242883D01*
X187644Y240167D01*
X184096Y238698D01*
X180256Y238698D01*
X176708Y240167D01*
X173993Y242883D01*
X172523Y246430D01*
X172523Y250271D01*
X173993Y253818D01*
X176708Y256534D01*
X180256Y258003D01*
X184096Y258003D01*
X187682Y256518D01*
X187796Y256491D01*
X187909Y256462D01*
X187916Y256463D01*
X187922Y256462D01*
X188038Y256473D01*
X188155Y256482D01*
X188160Y256484D01*
X188167Y256485D01*
X188274Y256532D01*
X188381Y256578D01*
X188387Y256583D01*
X188391Y256585D01*
X188405Y256597D01*
X188512Y256683D01*
X191737Y259908D01*
X191790Y259982D01*
X191849Y260051D01*
X191861Y260081D01*
X191880Y260107D01*
X191907Y260194D01*
X191941Y260279D01*
X191946Y260320D01*
X191953Y260342D01*
X191952Y260375D01*
X191960Y260446D01*
X191960Y266352D01*
X191948Y266423D01*
X191946Y266494D01*
X191928Y266543D01*
X191920Y266595D01*
X191886Y266658D01*
X191862Y266725D01*
X191829Y266766D01*
X191805Y266812D01*
X191753Y266861D01*
X191708Y266917D01*
X191664Y266946D01*
X191627Y266981D01*
X191562Y267012D01*
X191501Y267050D01*
X191451Y267063D01*
X191404Y267085D01*
X191332Y267093D01*
X191263Y267110D01*
X191211Y267106D01*
X191159Y267112D01*
X191089Y267097D01*
X191018Y267091D01*
X190970Y267071D01*
X190919Y267060D01*
X190857Y267023D01*
X190791Y266995D01*
X190735Y266950D01*
X190708Y266934D01*
X190692Y266916D01*
X190660Y266890D01*
X188172Y264402D01*
X184718Y262972D01*
X180979Y262972D01*
X177525Y264402D01*
X174881Y267046D01*
X173450Y270501D01*
X173450Y289480D01*
X174881Y292934D01*
X177525Y295578D01*
X180979Y297009D01*
X184718Y297009D01*
X188172Y295578D01*
X190660Y293090D01*
X190718Y293049D01*
X190770Y292999D01*
X190818Y292977D01*
X190860Y292947D01*
X190928Y292926D01*
X190994Y292896D01*
X191045Y292890D01*
X191095Y292874D01*
X191167Y292876D01*
X191238Y292868D01*
X191289Y292879D01*
X191341Y292881D01*
X191408Y292905D01*
X191478Y292921D01*
X191523Y292947D01*
X191572Y292965D01*
X191628Y293010D01*
X191689Y293047D01*
X191723Y293086D01*
X191764Y293119D01*
X191803Y293179D01*
X191849Y293234D01*
X191869Y293282D01*
X191897Y293326D01*
X191914Y293395D01*
X191941Y293462D01*
X191949Y293533D01*
X191957Y293564D01*
X191955Y293588D01*
X191960Y293629D01*
X191960Y401418D01*
X193894Y403353D01*
X509164Y403353D01*
X509254Y403367D01*
X509345Y403375D01*
X509375Y403387D01*
X509407Y403392D01*
X509488Y403435D01*
X509572Y403471D01*
X509604Y403497D01*
X509624Y403508D01*
X509647Y403531D01*
X509703Y403576D01*
X511076Y404949D01*
X513200Y405829D01*
X515500Y405829D01*
X517624Y404949D01*
X518997Y403576D01*
X519071Y403523D01*
X519141Y403463D01*
X519171Y403451D01*
X519197Y403432D01*
X519284Y403405D01*
X519369Y403371D01*
X519410Y403367D01*
X519432Y403360D01*
X519464Y403361D01*
X519536Y403353D01*
X534183Y403353D01*
X534203Y403356D01*
X534223Y403354D01*
X534324Y403376D01*
X534426Y403392D01*
X534444Y403402D01*
X534463Y403406D01*
X534552Y403459D01*
X534644Y403508D01*
X534657Y403522D01*
X534674Y403532D01*
X534742Y403611D01*
X534813Y403686D01*
X534821Y403704D01*
X534834Y403719D01*
X534873Y403815D01*
X534917Y403909D01*
X534919Y403929D01*
X534926Y403947D01*
X534945Y404114D01*
X534945Y404483D01*
X539855Y409394D01*
X546800Y409394D01*
X551710Y404483D01*
X551710Y404114D01*
X551713Y404094D01*
X551711Y404075D01*
X551733Y403973D01*
X551750Y403871D01*
X551759Y403854D01*
X551763Y403834D01*
X551817Y403745D01*
X551865Y403654D01*
X551879Y403640D01*
X551890Y403623D01*
X551968Y403556D01*
X552043Y403484D01*
X552061Y403476D01*
X552076Y403463D01*
X552173Y403424D01*
X552266Y403381D01*
X552286Y403379D01*
X552305Y403371D01*
X552471Y403353D01*
X558706Y403353D01*
X558726Y403356D01*
X558745Y403354D01*
X558847Y403376D01*
X558949Y403392D01*
X558966Y403402D01*
X558986Y403406D01*
X559075Y403459D01*
X559166Y403508D01*
X559180Y403522D01*
X559197Y403532D01*
X559264Y403611D01*
X559335Y403686D01*
X559344Y403704D01*
X559357Y403719D01*
X559396Y403815D01*
X559439Y403909D01*
X559441Y403929D01*
X559449Y403947D01*
X559467Y404114D01*
X559467Y404442D01*
X564378Y409352D01*
X571322Y409352D01*
X576233Y404442D01*
X576233Y397497D01*
X571322Y392587D01*
X564378Y392587D01*
X560440Y396524D01*
X560366Y396577D01*
X560297Y396637D01*
X560267Y396649D01*
X560240Y396668D01*
X560153Y396695D01*
X560069Y396729D01*
X560028Y396733D01*
X560005Y396740D01*
X559973Y396739D01*
X559902Y396747D01*
X551234Y396747D01*
X551144Y396733D01*
X551053Y396725D01*
X551023Y396713D01*
X550991Y396708D01*
X550910Y396665D01*
X550826Y396629D01*
X550794Y396603D01*
X550774Y396592D01*
X550751Y396569D01*
X550695Y396524D01*
X546800Y392628D01*
X539855Y392628D01*
X535959Y396524D01*
X535885Y396577D01*
X535816Y396637D01*
X535786Y396649D01*
X535760Y396668D01*
X535673Y396695D01*
X535588Y396729D01*
X535547Y396733D01*
X535525Y396740D01*
X535492Y396739D01*
X535421Y396747D01*
X519536Y396747D01*
X519446Y396733D01*
X519355Y396725D01*
X519325Y396713D01*
X519293Y396708D01*
X519212Y396665D01*
X519128Y396629D01*
X519096Y396603D01*
X519076Y396592D01*
X519053Y396569D01*
X518997Y396524D01*
X518520Y396047D01*
X518493Y396009D01*
X518459Y395978D01*
X518422Y395910D01*
X518376Y395847D01*
X518363Y395803D01*
X518341Y395763D01*
X518327Y395686D01*
X518304Y395612D01*
X518305Y395566D01*
X518297Y395521D01*
X518308Y395444D01*
X518310Y395366D01*
X518326Y395323D01*
X518333Y395278D01*
X518368Y395208D01*
X518395Y395135D01*
X518423Y395099D01*
X518444Y395058D01*
X518500Y395004D01*
X518548Y394943D01*
X518587Y394918D01*
X518620Y394886D01*
X518740Y394820D01*
X518755Y394810D01*
X518760Y394809D01*
X518767Y394805D01*
X520752Y393983D01*
X523753Y390982D01*
X525377Y387061D01*
X525377Y382816D01*
X523753Y378895D01*
X520752Y375894D01*
X516830Y374270D01*
X512586Y374270D01*
X508665Y375894D01*
X505664Y378895D01*
X504039Y382816D01*
X504039Y387061D01*
X505664Y390982D01*
X508665Y393983D01*
X510143Y394595D01*
X510182Y394620D01*
X510225Y394635D01*
X510286Y394684D01*
X510352Y394725D01*
X510381Y394760D01*
X510417Y394789D01*
X510459Y394854D01*
X510509Y394914D01*
X510525Y394957D01*
X510550Y394996D01*
X510569Y395071D01*
X510597Y395144D01*
X510599Y395190D01*
X510610Y395234D01*
X510604Y395312D01*
X510608Y395390D01*
X510595Y395434D01*
X510591Y395480D01*
X510561Y395551D01*
X510539Y395626D01*
X510513Y395664D01*
X510495Y395706D01*
X510409Y395813D01*
X510399Y395828D01*
X510395Y395831D01*
X510390Y395837D01*
X509703Y396524D01*
X509628Y396578D01*
X509559Y396637D01*
X509529Y396649D01*
X509503Y396668D01*
X509416Y396695D01*
X509331Y396729D01*
X509290Y396733D01*
X509268Y396740D01*
X509236Y396739D01*
X509164Y396747D01*
X492505Y396747D01*
X492409Y396732D01*
X492312Y396722D01*
X492288Y396712D01*
X492262Y396708D01*
X492176Y396662D01*
X492087Y396622D01*
X492068Y396605D01*
X492045Y396592D01*
X491978Y396522D01*
X491906Y396456D01*
X491894Y396433D01*
X491876Y396414D01*
X491835Y396326D01*
X491788Y396240D01*
X491783Y396215D01*
X491772Y396191D01*
X491761Y396094D01*
X491744Y395998D01*
X491748Y395972D01*
X491745Y395947D01*
X491766Y395851D01*
X491780Y395755D01*
X491792Y395732D01*
X491797Y395706D01*
X491847Y395623D01*
X491891Y395536D01*
X491910Y395517D01*
X491923Y395495D01*
X491997Y395432D01*
X492067Y395364D01*
X492095Y395348D01*
X492110Y395335D01*
X492141Y395323D01*
X492214Y395283D01*
X495352Y393983D01*
X498353Y390982D01*
X499977Y387061D01*
X499977Y382816D01*
X498353Y378895D01*
X495352Y375894D01*
X492723Y374805D01*
X492623Y374743D01*
X492523Y374684D01*
X492519Y374679D01*
X492514Y374676D01*
X492439Y374585D01*
X492363Y374497D01*
X492361Y374491D01*
X492357Y374486D01*
X492315Y374378D01*
X492271Y374269D01*
X492270Y374261D01*
X492269Y374256D01*
X492268Y374238D01*
X492253Y374102D01*
X492253Y346294D01*
X490318Y344360D01*
X364426Y344360D01*
X364407Y344357D01*
X364387Y344359D01*
X364286Y344337D01*
X364184Y344320D01*
X364166Y344311D01*
X364147Y344306D01*
X364058Y344253D01*
X363966Y344205D01*
X363953Y344191D01*
X363936Y344180D01*
X363868Y344102D01*
X363797Y344027D01*
X363789Y344009D01*
X363776Y343993D01*
X363737Y343897D01*
X363693Y343804D01*
X363691Y343784D01*
X363684Y343765D01*
X363665Y343599D01*
X363665Y297042D01*
X363684Y296927D01*
X363701Y296812D01*
X363704Y296806D01*
X363705Y296800D01*
X363759Y296697D01*
X363813Y296592D01*
X363817Y296588D01*
X363820Y296582D01*
X363904Y296503D01*
X363988Y296420D01*
X363995Y296416D01*
X363998Y296413D01*
X364015Y296405D01*
X364135Y296339D01*
X365972Y295578D01*
X368616Y292934D01*
X370047Y289480D01*
X370047Y270501D01*
X368616Y267046D01*
X366522Y264952D01*
X366480Y264894D01*
X366431Y264842D01*
X366409Y264795D01*
X366379Y264753D01*
X366358Y264684D01*
X366327Y264619D01*
X366322Y264567D01*
X366306Y264517D01*
X366308Y264446D01*
X366300Y264375D01*
X366311Y264324D01*
X366313Y264272D01*
X366337Y264204D01*
X366353Y264134D01*
X366379Y264089D01*
X366397Y264041D01*
X366442Y263985D01*
X366479Y263923D01*
X366518Y263889D01*
X366551Y263849D01*
X366611Y263810D01*
X366666Y263763D01*
X366714Y263744D01*
X366758Y263716D01*
X366827Y263698D01*
X366894Y263671D01*
X366965Y263663D01*
X366996Y263655D01*
X367020Y263657D01*
X367061Y263653D01*
X379636Y263653D01*
X379707Y263664D01*
X379779Y263666D01*
X379828Y263684D01*
X379879Y263692D01*
X379943Y263726D01*
X380010Y263751D01*
X380051Y263783D01*
X380097Y263808D01*
X380146Y263860D01*
X380202Y263904D01*
X380230Y263948D01*
X380266Y263986D01*
X380296Y264051D01*
X380335Y264111D01*
X380348Y264162D01*
X380370Y264209D01*
X380377Y264280D01*
X380395Y264350D01*
X380391Y264402D01*
X380397Y264453D01*
X380381Y264524D01*
X380376Y264595D01*
X380355Y264643D01*
X380344Y264694D01*
X380308Y264755D01*
X380280Y264821D01*
X380235Y264877D01*
X380218Y264905D01*
X380200Y264920D01*
X380175Y264952D01*
X378081Y267046D01*
X376650Y270501D01*
X376650Y289480D01*
X378081Y292934D01*
X380725Y295578D01*
X384179Y297009D01*
X387918Y297009D01*
X391372Y295578D01*
X394016Y292934D01*
X395447Y289480D01*
X395447Y270501D01*
X394016Y267046D01*
X391922Y264952D01*
X391880Y264894D01*
X391831Y264842D01*
X391809Y264795D01*
X391779Y264753D01*
X391758Y264684D01*
X391727Y264619D01*
X391722Y264567D01*
X391706Y264517D01*
X391708Y264446D01*
X391700Y264375D01*
X391711Y264324D01*
X391713Y264272D01*
X391737Y264204D01*
X391753Y264134D01*
X391779Y264089D01*
X391797Y264041D01*
X391842Y263985D01*
X391879Y263923D01*
X391918Y263889D01*
X391951Y263849D01*
X392011Y263810D01*
X392066Y263763D01*
X392114Y263744D01*
X392158Y263716D01*
X392227Y263698D01*
X392294Y263671D01*
X392365Y263663D01*
X392396Y263655D01*
X392420Y263657D01*
X392461Y263653D01*
X405036Y263653D01*
X405107Y263664D01*
X405179Y263666D01*
X405228Y263684D01*
X405279Y263692D01*
X405343Y263726D01*
X405410Y263751D01*
X405451Y263783D01*
X405497Y263808D01*
X405546Y263860D01*
X405602Y263904D01*
X405630Y263948D01*
X405666Y263986D01*
X405696Y264051D01*
X405735Y264111D01*
X405748Y264162D01*
X405770Y264209D01*
X405777Y264280D01*
X405795Y264350D01*
X405791Y264402D01*
X405797Y264453D01*
X405781Y264524D01*
X405776Y264595D01*
X405755Y264643D01*
X405744Y264694D01*
X405708Y264755D01*
X405680Y264821D01*
X405635Y264877D01*
X405618Y264905D01*
X405600Y264920D01*
X405575Y264952D01*
X403481Y267046D01*
X402050Y270501D01*
X402050Y289480D01*
X403481Y292934D01*
X406125Y295578D01*
X406856Y295881D01*
X406956Y295943D01*
X407056Y296003D01*
X407060Y296008D01*
X407065Y296011D01*
X407140Y296101D01*
X407216Y296190D01*
X407218Y296196D01*
X407222Y296200D01*
X407264Y296309D01*
X407308Y296418D01*
X407309Y296425D01*
X407310Y296430D01*
X407311Y296448D01*
X407326Y296585D01*
X407326Y326713D01*
X409261Y328647D01*
X433180Y328647D01*
X433270Y328662D01*
X433361Y328669D01*
X433391Y328682D01*
X433423Y328687D01*
X433504Y328730D01*
X433588Y328765D01*
X433620Y328791D01*
X433641Y328802D01*
X433663Y328825D01*
X433719Y328870D01*
X435000Y330152D01*
X437044Y330998D01*
X439256Y330998D01*
X441300Y330152D01*
X442581Y328870D01*
X442655Y328817D01*
X442725Y328758D01*
X442755Y328746D01*
X442781Y328727D01*
X442868Y328700D01*
X442953Y328666D01*
X442994Y328661D01*
X443016Y328654D01*
X443048Y328655D01*
X443120Y328647D01*
X496371Y328647D01*
X496461Y328662D01*
X496552Y328669D01*
X496582Y328682D01*
X496614Y328687D01*
X496695Y328730D01*
X496779Y328765D01*
X496811Y328791D01*
X496831Y328802D01*
X496854Y328825D01*
X496910Y328870D01*
X498376Y330337D01*
X500500Y331217D01*
X502800Y331217D01*
X504924Y330337D01*
X506390Y328870D01*
X506464Y328817D01*
X506534Y328758D01*
X506564Y328746D01*
X506590Y328727D01*
X506677Y328700D01*
X506762Y328666D01*
X506803Y328661D01*
X506825Y328654D01*
X506857Y328655D01*
X506929Y328647D01*
X534993Y328647D01*
X535083Y328662D01*
X535174Y328669D01*
X535204Y328682D01*
X535236Y328687D01*
X535317Y328730D01*
X535400Y328765D01*
X535433Y328791D01*
X535453Y328802D01*
X535475Y328825D01*
X535531Y328870D01*
X539855Y333194D01*
X546800Y333194D01*
X551710Y328283D01*
X551710Y321339D01*
X546800Y316428D01*
X539855Y316428D01*
X534938Y321346D01*
X534922Y321421D01*
X534905Y321523D01*
X534896Y321541D01*
X534891Y321560D01*
X534838Y321649D01*
X534790Y321741D01*
X534775Y321754D01*
X534765Y321771D01*
X534686Y321839D01*
X534611Y321910D01*
X534593Y321918D01*
X534578Y321931D01*
X534482Y321970D01*
X534388Y322014D01*
X534369Y322016D01*
X534350Y322023D01*
X534183Y322042D01*
X506743Y322042D01*
X506653Y322027D01*
X506562Y322020D01*
X506532Y322007D01*
X506500Y322002D01*
X506419Y321959D01*
X506335Y321924D01*
X506303Y321898D01*
X506283Y321887D01*
X506260Y321864D01*
X506204Y321819D01*
X504924Y320538D01*
X502800Y319658D01*
X500500Y319658D01*
X498376Y320538D01*
X497096Y321819D01*
X497022Y321872D01*
X496952Y321931D01*
X496922Y321944D01*
X496896Y321962D01*
X496809Y321989D01*
X496724Y322023D01*
X496683Y322028D01*
X496661Y322035D01*
X496629Y322034D01*
X496557Y322042D01*
X442934Y322042D01*
X442844Y322027D01*
X442753Y322020D01*
X442723Y322007D01*
X442691Y322002D01*
X442610Y321959D01*
X442526Y321924D01*
X442494Y321898D01*
X442474Y321887D01*
X442451Y321864D01*
X442395Y321819D01*
X441300Y320723D01*
X439256Y319877D01*
X437044Y319877D01*
X435000Y320723D01*
X433905Y321819D01*
X433831Y321872D01*
X433761Y321931D01*
X433731Y321944D01*
X433705Y321962D01*
X433618Y321989D01*
X433533Y322023D01*
X433492Y322028D01*
X433470Y322035D01*
X433438Y322034D01*
X433366Y322042D01*
X414693Y322042D01*
X414673Y322039D01*
X414654Y322041D01*
X414552Y322019D01*
X414450Y322002D01*
X414433Y321993D01*
X414413Y321989D01*
X414324Y321935D01*
X414233Y321887D01*
X414219Y321873D01*
X414202Y321862D01*
X414135Y321784D01*
X414064Y321709D01*
X414055Y321691D01*
X414042Y321675D01*
X414003Y321579D01*
X413960Y321486D01*
X413958Y321466D01*
X413950Y321447D01*
X413932Y321281D01*
X413932Y297263D01*
X413951Y297149D01*
X413968Y297032D01*
X413971Y297027D01*
X413972Y297021D01*
X414026Y296918D01*
X414079Y296813D01*
X414084Y296809D01*
X414087Y296803D01*
X414171Y296723D01*
X414255Y296641D01*
X414261Y296637D01*
X414265Y296634D01*
X414282Y296626D01*
X414402Y296560D01*
X416772Y295578D01*
X419416Y292934D01*
X420847Y289480D01*
X420847Y270501D01*
X419416Y267046D01*
X417322Y264952D01*
X417280Y264894D01*
X417231Y264842D01*
X417209Y264795D01*
X417179Y264753D01*
X417158Y264684D01*
X417127Y264619D01*
X417122Y264567D01*
X417106Y264517D01*
X417108Y264446D01*
X417100Y264375D01*
X417111Y264324D01*
X417113Y264272D01*
X417137Y264204D01*
X417153Y264134D01*
X417179Y264089D01*
X417197Y264041D01*
X417242Y263985D01*
X417279Y263923D01*
X417318Y263889D01*
X417351Y263849D01*
X417411Y263810D01*
X417466Y263763D01*
X417514Y263744D01*
X417558Y263716D01*
X417627Y263698D01*
X417694Y263671D01*
X417765Y263663D01*
X417796Y263655D01*
X417820Y263657D01*
X417861Y263653D01*
X430436Y263653D01*
X430507Y263664D01*
X430579Y263666D01*
X430628Y263684D01*
X430679Y263692D01*
X430743Y263726D01*
X430810Y263751D01*
X430851Y263783D01*
X430897Y263808D01*
X430946Y263860D01*
X431002Y263904D01*
X431030Y263948D01*
X431066Y263986D01*
X431096Y264051D01*
X431135Y264111D01*
X431148Y264162D01*
X431170Y264209D01*
X431177Y264280D01*
X431195Y264350D01*
X431191Y264402D01*
X431197Y264453D01*
X431181Y264524D01*
X431176Y264595D01*
X431155Y264643D01*
X431144Y264694D01*
X431108Y264755D01*
X431080Y264821D01*
X431035Y264877D01*
X431018Y264905D01*
X431000Y264920D01*
X430975Y264952D01*
X428881Y267046D01*
X427450Y270501D01*
X427450Y289480D01*
X428881Y292934D01*
X431525Y295578D01*
X434979Y297009D01*
X438718Y297009D01*
X442172Y295578D01*
X444816Y292934D01*
X446247Y289480D01*
X446247Y270501D01*
X444816Y267046D01*
X442722Y264952D01*
X442680Y264894D01*
X442631Y264842D01*
X442609Y264795D01*
X442579Y264753D01*
X442558Y264684D01*
X442527Y264619D01*
X442522Y264567D01*
X442506Y264517D01*
X442508Y264446D01*
X442500Y264375D01*
X442511Y264324D01*
X442513Y264272D01*
X442537Y264204D01*
X442553Y264134D01*
X442579Y264089D01*
X442597Y264041D01*
X442642Y263985D01*
X442679Y263923D01*
X442718Y263889D01*
X442751Y263849D01*
X442811Y263810D01*
X442866Y263763D01*
X442914Y263744D01*
X442958Y263716D01*
X443027Y263698D01*
X443094Y263671D01*
X443165Y263663D01*
X443196Y263655D01*
X443220Y263657D01*
X443261Y263653D01*
X455836Y263653D01*
X455907Y263664D01*
X455979Y263666D01*
X456028Y263684D01*
X456079Y263692D01*
X456143Y263726D01*
X456210Y263751D01*
X456251Y263783D01*
X456297Y263808D01*
X456346Y263860D01*
X456402Y263904D01*
X456430Y263948D01*
X456466Y263986D01*
X456496Y264051D01*
X456535Y264111D01*
X456548Y264162D01*
X456570Y264209D01*
X456577Y264280D01*
X456595Y264350D01*
X456591Y264402D01*
X456597Y264453D01*
X456581Y264524D01*
X456576Y264595D01*
X456555Y264643D01*
X456544Y264694D01*
X456508Y264755D01*
X456480Y264821D01*
X456435Y264877D01*
X456418Y264905D01*
X456400Y264920D01*
X456375Y264952D01*
X454281Y267046D01*
X452850Y270501D01*
X452850Y289480D01*
X454281Y292934D01*
X456925Y295578D01*
X460379Y297009D01*
X464118Y297009D01*
X467572Y295578D01*
X470216Y292934D01*
X471647Y289480D01*
X471647Y270501D01*
X470216Y267046D01*
X468122Y264952D01*
X468080Y264894D01*
X468031Y264842D01*
X468009Y264795D01*
X467979Y264753D01*
X467958Y264684D01*
X467927Y264619D01*
X467922Y264567D01*
X467906Y264517D01*
X467908Y264446D01*
X467900Y264375D01*
X467911Y264324D01*
X467913Y264272D01*
X467937Y264204D01*
X467953Y264134D01*
X467979Y264089D01*
X467997Y264041D01*
X468042Y263985D01*
X468079Y263923D01*
X468118Y263889D01*
X468151Y263849D01*
X468211Y263810D01*
X468266Y263763D01*
X468314Y263744D01*
X468358Y263716D01*
X468427Y263698D01*
X468494Y263671D01*
X468565Y263663D01*
X468596Y263655D01*
X468620Y263657D01*
X468661Y263653D01*
X481236Y263653D01*
X481307Y263664D01*
X481379Y263666D01*
X481428Y263684D01*
X481479Y263692D01*
X481543Y263726D01*
X481610Y263751D01*
X481651Y263783D01*
X481697Y263808D01*
X481746Y263860D01*
X481802Y263904D01*
X481830Y263948D01*
X481866Y263986D01*
X481896Y264051D01*
X481935Y264111D01*
X481948Y264162D01*
X481970Y264209D01*
X481977Y264280D01*
X481995Y264350D01*
X481991Y264402D01*
X481997Y264453D01*
X481981Y264524D01*
X481976Y264595D01*
X481955Y264643D01*
X481944Y264694D01*
X481908Y264755D01*
X481880Y264821D01*
X481835Y264877D01*
X481818Y264905D01*
X481800Y264920D01*
X481775Y264952D01*
X479681Y267046D01*
X478250Y270501D01*
X478250Y289480D01*
X479681Y292934D01*
X482325Y295578D01*
X485779Y297009D01*
X489518Y297009D01*
X492972Y295578D01*
X495616Y292934D01*
X497047Y289480D01*
X497047Y270501D01*
X495616Y267046D01*
X493522Y264952D01*
X493480Y264894D01*
X493431Y264842D01*
X493409Y264795D01*
X493379Y264753D01*
X493358Y264684D01*
X493327Y264619D01*
X493322Y264567D01*
X493306Y264517D01*
X493308Y264446D01*
X493300Y264375D01*
X493311Y264324D01*
X493313Y264272D01*
X493337Y264204D01*
X493353Y264134D01*
X493379Y264089D01*
X493397Y264041D01*
X493442Y263985D01*
X493479Y263923D01*
X493518Y263889D01*
X493551Y263849D01*
X493611Y263810D01*
X493666Y263763D01*
X493714Y263744D01*
X493758Y263716D01*
X493827Y263698D01*
X493894Y263671D01*
X493965Y263663D01*
X493996Y263655D01*
X494020Y263657D01*
X494061Y263653D01*
X506636Y263653D01*
X506707Y263664D01*
X506779Y263666D01*
X506828Y263684D01*
X506879Y263692D01*
X506943Y263726D01*
X507010Y263751D01*
X507051Y263783D01*
X507097Y263808D01*
X507146Y263860D01*
X507202Y263904D01*
X507230Y263948D01*
X507266Y263986D01*
X507296Y264051D01*
X507335Y264111D01*
X507348Y264162D01*
X507370Y264209D01*
X507377Y264280D01*
X507395Y264350D01*
X507391Y264402D01*
X507397Y264453D01*
X507381Y264524D01*
X507376Y264595D01*
X507355Y264643D01*
X507344Y264694D01*
X507308Y264755D01*
X507280Y264821D01*
X507235Y264877D01*
X507218Y264905D01*
X507200Y264920D01*
X507175Y264952D01*
X505081Y267046D01*
X503650Y270501D01*
X503650Y289480D01*
X505081Y292934D01*
X507725Y295578D01*
X511179Y297009D01*
X514918Y297009D01*
X518372Y295578D01*
X521016Y292934D01*
X522447Y289480D01*
X522447Y270501D01*
X521016Y267046D01*
X518922Y264952D01*
X518880Y264894D01*
X518831Y264842D01*
X518809Y264795D01*
X518779Y264753D01*
X518758Y264684D01*
X518727Y264619D01*
X518722Y264567D01*
X518706Y264517D01*
X518708Y264446D01*
X518700Y264375D01*
X518711Y264324D01*
X518713Y264272D01*
X518737Y264204D01*
X518753Y264134D01*
X518779Y264089D01*
X518797Y264041D01*
X518842Y263985D01*
X518879Y263923D01*
X518918Y263889D01*
X518951Y263849D01*
X519011Y263810D01*
X519066Y263763D01*
X519114Y263744D01*
X519158Y263716D01*
X519227Y263698D01*
X519294Y263671D01*
X519365Y263663D01*
X519396Y263655D01*
X519420Y263657D01*
X519461Y263653D01*
X532036Y263653D01*
X532107Y263664D01*
X532179Y263666D01*
X532228Y263684D01*
X532279Y263692D01*
X532343Y263726D01*
X532410Y263751D01*
X532451Y263783D01*
X532497Y263808D01*
X532546Y263860D01*
X532602Y263904D01*
X532630Y263948D01*
X532666Y263986D01*
X532696Y264051D01*
X532735Y264111D01*
X532748Y264162D01*
X532770Y264209D01*
X532777Y264280D01*
X532795Y264350D01*
X532791Y264402D01*
X532797Y264453D01*
X532781Y264524D01*
X532776Y264595D01*
X532755Y264643D01*
X532744Y264694D01*
X532708Y264755D01*
X532680Y264821D01*
X532635Y264877D01*
X532618Y264905D01*
X532600Y264920D01*
X532575Y264952D01*
X530481Y267046D01*
X529050Y270501D01*
X529050Y289480D01*
X530481Y292934D01*
X533125Y295578D01*
X536579Y297009D01*
X540318Y297009D01*
X543772Y295578D01*
X546416Y292934D01*
X547847Y289480D01*
X547847Y283464D01*
X547850Y283444D01*
X547848Y283425D01*
X547870Y283323D01*
X547887Y283221D01*
X547896Y283204D01*
X547901Y283184D01*
X547954Y283095D01*
X548002Y283004D01*
X548016Y282990D01*
X548027Y282973D01*
X548105Y282906D01*
X548180Y282834D01*
X548198Y282826D01*
X548214Y282813D01*
X548310Y282774D01*
X548403Y282731D01*
X548423Y282729D01*
X548442Y282721D01*
X548608Y282703D01*
X558704Y282703D01*
X558794Y282717D01*
X558885Y282725D01*
X558915Y282737D01*
X558947Y282742D01*
X559028Y282785D01*
X559111Y282821D01*
X559144Y282847D01*
X559164Y282858D01*
X559186Y282881D01*
X559242Y282926D01*
X585437Y309120D01*
X585490Y309194D01*
X585549Y309263D01*
X585562Y309294D01*
X585580Y309320D01*
X585607Y309407D01*
X585641Y309492D01*
X585646Y309533D01*
X585653Y309555D01*
X585652Y309587D01*
X585660Y309658D01*
X585660Y387131D01*
X625694Y427165D01*
X634949Y427165D01*
X634969Y427168D01*
X634989Y427166D01*
X635090Y427188D01*
X635192Y427205D01*
X635209Y427214D01*
X635229Y427219D01*
X635318Y427272D01*
X635409Y427320D01*
X635423Y427334D01*
X635440Y427345D01*
X635507Y427423D01*
X635579Y427498D01*
X635587Y427516D01*
X635600Y427532D01*
X635639Y427628D01*
X635682Y427721D01*
X635684Y427741D01*
X635692Y427760D01*
X635710Y427926D01*
X635710Y431229D01*
X635707Y431248D01*
X635709Y431268D01*
X635687Y431369D01*
X635671Y431471D01*
X635661Y431489D01*
X635657Y431508D01*
X635604Y431597D01*
X635556Y431689D01*
X635541Y431702D01*
X635531Y431719D01*
X635452Y431787D01*
X635377Y431858D01*
X635359Y431866D01*
X635344Y431879D01*
X635248Y431918D01*
X635154Y431962D01*
X635134Y431964D01*
X635116Y431971D01*
X634949Y431990D01*
X618159Y431990D01*
X618069Y431975D01*
X617978Y431968D01*
X617949Y431955D01*
X617917Y431950D01*
X617836Y431907D01*
X617752Y431872D01*
X617720Y431846D01*
X617699Y431835D01*
X617677Y431812D01*
X617621Y431767D01*
X601969Y416115D01*
X413491Y416115D01*
X413401Y416100D01*
X413310Y416093D01*
X413280Y416080D01*
X413248Y416075D01*
X413167Y416032D01*
X413083Y415997D01*
X413051Y415971D01*
X413031Y415960D01*
X413008Y415937D01*
X412952Y415892D01*
X412849Y415788D01*
X410725Y414908D01*
X408425Y414908D01*
X406301Y415788D01*
X404676Y417414D01*
X403796Y419538D01*
X403796Y421837D01*
X404676Y423961D01*
X406301Y425587D01*
X408425Y426467D01*
X410725Y426467D01*
X412849Y425587D01*
X412952Y425483D01*
X413026Y425430D01*
X413096Y425371D01*
X413126Y425358D01*
X413152Y425340D01*
X413239Y425313D01*
X413324Y425279D01*
X413365Y425274D01*
X413387Y425267D01*
X413419Y425268D01*
X413491Y425260D01*
X597866Y425260D01*
X597956Y425275D01*
X598047Y425282D01*
X598076Y425295D01*
X598108Y425300D01*
X598189Y425343D01*
X598273Y425378D01*
X598305Y425404D01*
X598326Y425415D01*
X598348Y425438D01*
X598404Y425483D01*
X614056Y441135D01*
X638160Y441135D01*
X638231Y441147D01*
X638302Y441149D01*
X638351Y441167D01*
X638403Y441175D01*
X638466Y441209D01*
X638533Y441233D01*
X638574Y441266D01*
X638620Y441290D01*
X638669Y441342D01*
X638725Y441387D01*
X638754Y441431D01*
X638790Y441468D01*
X638820Y441533D01*
X638858Y441594D01*
X638871Y441644D01*
X638893Y441691D01*
X638901Y441763D01*
X638919Y441832D01*
X638914Y441884D01*
X638920Y441936D01*
X638905Y442006D01*
X638899Y442077D01*
X638879Y442125D01*
X638868Y442176D01*
X638831Y442238D01*
X638803Y442304D01*
X638758Y442360D01*
X638742Y442387D01*
X638724Y442403D01*
X638698Y442435D01*
X637053Y444080D01*
X635710Y447321D01*
X635710Y450830D01*
X636270Y452182D01*
X636297Y452295D01*
X636326Y452409D01*
X636325Y452415D01*
X636327Y452421D01*
X636316Y452538D01*
X636306Y452654D01*
X636304Y452660D01*
X636303Y452666D01*
X636256Y452774D01*
X636210Y452880D01*
X636206Y452886D01*
X636203Y452891D01*
X636191Y452905D01*
X636105Y453011D01*
X624330Y464787D01*
X624256Y464840D01*
X624187Y464899D01*
X624156Y464912D01*
X624130Y464930D01*
X624043Y464957D01*
X623958Y464991D01*
X623917Y464996D01*
X623895Y465003D01*
X623863Y465002D01*
X623792Y465010D01*
X341016Y465010D01*
X340901Y464991D01*
X340785Y464974D01*
X340780Y464971D01*
X340773Y464970D01*
X340671Y464916D01*
X340566Y464862D01*
X340561Y464858D01*
X340556Y464855D01*
X340476Y464771D01*
X340394Y464687D01*
X340390Y464680D01*
X340387Y464677D01*
X340379Y464660D01*
X340313Y464540D01*
X339862Y463451D01*
X338213Y461802D01*
X338186Y461790D01*
X338148Y461755D01*
X338104Y461728D01*
X338058Y461673D01*
X338005Y461624D01*
X337980Y461579D01*
X337947Y461539D01*
X337921Y461471D01*
X337887Y461408D01*
X337877Y461357D01*
X337859Y461309D01*
X337856Y461237D01*
X337843Y461166D01*
X337850Y461115D01*
X337848Y461063D01*
X337868Y460994D01*
X337879Y460923D01*
X337902Y460877D01*
X337917Y460827D01*
X337958Y460768D01*
X337990Y460704D01*
X338027Y460667D01*
X338057Y460625D01*
X338114Y460582D01*
X338166Y460532D01*
X338228Y460497D01*
X338254Y460478D01*
X338276Y460471D01*
X338313Y460451D01*
X340044Y459734D01*
X342759Y457018D01*
X344229Y453471D01*
X344229Y449630D01*
X342759Y446083D01*
X340044Y443367D01*
X336496Y441898D01*
X332656Y441898D01*
X329108Y443367D01*
X326393Y446083D01*
X324923Y449630D01*
X324923Y453471D01*
X326393Y457018D01*
X329108Y459734D01*
X331360Y460666D01*
X331399Y460691D01*
X331442Y460706D01*
X331502Y460755D01*
X331569Y460796D01*
X331598Y460831D01*
X331634Y460860D01*
X331676Y460926D01*
X331725Y460985D01*
X331742Y461028D01*
X331767Y461067D01*
X331786Y461142D01*
X331814Y461215D01*
X331816Y461261D01*
X331827Y461305D01*
X331821Y461383D01*
X331824Y461461D01*
X331811Y461505D01*
X331808Y461551D01*
X331777Y461622D01*
X331756Y461697D01*
X331729Y461735D01*
X331711Y461777D01*
X331626Y461884D01*
X331615Y461899D01*
X331611Y461902D01*
X331607Y461908D01*
X330063Y463451D01*
X329183Y465575D01*
X329183Y467875D01*
X330063Y469999D01*
X331689Y471624D01*
X333813Y472504D01*
X336112Y472504D01*
X338118Y471673D01*
X338182Y471658D01*
X338243Y471634D01*
X338326Y471625D01*
X338358Y471617D01*
X338377Y471619D01*
X338410Y471615D01*
X626843Y471615D01*
X629001Y469458D01*
X640852Y457606D01*
X640946Y457539D01*
X641041Y457468D01*
X641047Y457466D01*
X641052Y457463D01*
X641163Y457429D01*
X641274Y457392D01*
X641281Y457392D01*
X641287Y457390D01*
X641403Y457394D01*
X641520Y457395D01*
X641528Y457397D01*
X641533Y457397D01*
X641550Y457403D01*
X641681Y457441D01*
X642775Y457894D01*
X646283Y457894D01*
X649525Y456552D01*
X652005Y454071D01*
X653348Y450830D01*
X653348Y447321D01*
X652005Y444080D01*
X650360Y442435D01*
X650318Y442377D01*
X650269Y442325D01*
X650247Y442277D01*
X650216Y442235D01*
X650195Y442167D01*
X650165Y442101D01*
X650159Y442050D01*
X650144Y442000D01*
X650146Y441928D01*
X650138Y441857D01*
X650149Y441806D01*
X650150Y441754D01*
X650175Y441687D01*
X650190Y441617D01*
X650217Y441572D01*
X650235Y441523D01*
X650280Y441467D01*
X650316Y441406D01*
X650356Y441372D01*
X650388Y441331D01*
X650449Y441292D01*
X650503Y441246D01*
X650552Y441226D01*
X650595Y441198D01*
X650665Y441181D01*
X650731Y441154D01*
X650803Y441146D01*
X650834Y441138D01*
X650857Y441140D01*
X650898Y441135D01*
X661902Y441135D01*
X661992Y441150D01*
X662083Y441157D01*
X662113Y441170D01*
X662145Y441175D01*
X662225Y441218D01*
X662309Y441253D01*
X662341Y441279D01*
X662362Y441290D01*
X662384Y441313D01*
X662440Y441358D01*
X664934Y443852D01*
X668175Y445194D01*
X671683Y445194D01*
X674925Y443852D01*
X677405Y441371D01*
X678748Y438130D01*
X678748Y434621D01*
X677405Y431380D01*
X674925Y428899D01*
X671683Y427557D01*
X668175Y427557D01*
X664934Y428899D01*
X662453Y431380D01*
X662395Y431520D01*
X662334Y431619D01*
X662274Y431719D01*
X662269Y431724D01*
X662265Y431729D01*
X662176Y431803D01*
X662087Y431879D01*
X662081Y431882D01*
X662076Y431886D01*
X661968Y431927D01*
X661858Y431971D01*
X661851Y431972D01*
X661846Y431974D01*
X661828Y431975D01*
X661692Y431990D01*
X654109Y431990D01*
X654089Y431987D01*
X654070Y431989D01*
X653968Y431967D01*
X653866Y431950D01*
X653849Y431941D01*
X653829Y431936D01*
X653740Y431883D01*
X653649Y431835D01*
X653635Y431821D01*
X653618Y431810D01*
X653551Y431732D01*
X653480Y431657D01*
X653471Y431639D01*
X653458Y431623D01*
X653419Y431527D01*
X653376Y431434D01*
X653374Y431414D01*
X653366Y431395D01*
X653348Y431229D01*
X653348Y415899D01*
X652306Y414857D01*
X636752Y414857D01*
X635710Y415899D01*
X635710Y419799D01*
X635707Y419818D01*
X635709Y419838D01*
X635687Y419939D01*
X635671Y420041D01*
X635661Y420059D01*
X635657Y420078D01*
X635604Y420167D01*
X635556Y420259D01*
X635541Y420272D01*
X635531Y420289D01*
X635452Y420357D01*
X635377Y420428D01*
X635359Y420436D01*
X635344Y420449D01*
X635248Y420488D01*
X635154Y420532D01*
X635134Y420534D01*
X635116Y420541D01*
X634949Y420560D01*
X628746Y420560D01*
X628656Y420545D01*
X628565Y420538D01*
X628535Y420525D01*
X628503Y420520D01*
X628422Y420477D01*
X628339Y420442D01*
X628306Y420416D01*
X628286Y420405D01*
X628264Y420382D01*
X628208Y420337D01*
X592488Y384617D01*
X592435Y384543D01*
X592376Y384474D01*
X592363Y384444D01*
X592345Y384418D01*
X592318Y384331D01*
X592284Y384246D01*
X592279Y384205D01*
X592272Y384183D01*
X592273Y384150D01*
X592265Y384079D01*
X592265Y365487D01*
X592266Y365483D01*
X592265Y365479D01*
X592286Y365360D01*
X592305Y365244D01*
X592307Y365241D01*
X592308Y365237D01*
X592365Y365131D01*
X592420Y365027D01*
X592423Y365024D01*
X592425Y365021D01*
X592512Y364940D01*
X592598Y364858D01*
X592602Y364856D01*
X592605Y364853D01*
X592713Y364804D01*
X592821Y364754D01*
X592825Y364754D01*
X592829Y364752D01*
X592949Y364740D01*
X593066Y364727D01*
X593070Y364728D01*
X593074Y364727D01*
X593191Y364754D01*
X593306Y364779D01*
X593310Y364781D01*
X593314Y364782D01*
X593416Y364845D01*
X593517Y364905D01*
X593520Y364908D01*
X593523Y364910D01*
X593600Y365002D01*
X593677Y365092D01*
X593679Y365096D01*
X593681Y365099D01*
X593750Y365252D01*
X594664Y368064D01*
X599713Y375012D01*
X606662Y380061D01*
X614830Y382715D01*
X739775Y382715D01*
X739801Y382719D01*
X739850Y382719D01*
X742154Y382946D01*
X742181Y382953D01*
X742209Y382953D01*
X742371Y383000D01*
X746628Y384764D01*
X746684Y384798D01*
X746744Y384824D01*
X746809Y384876D01*
X746837Y384893D01*
X746850Y384908D01*
X746875Y384929D01*
X750134Y388187D01*
X750172Y388241D01*
X750218Y388287D01*
X750258Y388360D01*
X750277Y388387D01*
X750283Y388406D01*
X750299Y388434D01*
X752062Y392692D01*
X752069Y392720D01*
X752082Y392745D01*
X752117Y392909D01*
X752344Y395213D01*
X752342Y395239D01*
X752347Y395287D01*
X752347Y398022D01*
X752332Y398118D01*
X752322Y398215D01*
X752312Y398239D01*
X752308Y398265D01*
X752262Y398351D01*
X752222Y398440D01*
X752205Y398459D01*
X752192Y398482D01*
X752122Y398549D01*
X752056Y398621D01*
X752033Y398633D01*
X752014Y398651D01*
X751926Y398692D01*
X751840Y398739D01*
X751815Y398744D01*
X751791Y398755D01*
X751694Y398766D01*
X751598Y398783D01*
X751572Y398779D01*
X751547Y398782D01*
X751451Y398761D01*
X751355Y398747D01*
X751332Y398735D01*
X751306Y398730D01*
X751223Y398680D01*
X751136Y398636D01*
X751117Y398617D01*
X751095Y398604D01*
X751032Y398530D01*
X750964Y398460D01*
X750948Y398432D01*
X750935Y398417D01*
X750923Y398386D01*
X750883Y398313D01*
X749147Y394123D01*
X743932Y388908D01*
X737117Y386085D01*
X729741Y386085D01*
X722927Y388908D01*
X717711Y394123D01*
X714888Y400938D01*
X714888Y408314D01*
X717711Y415128D01*
X722927Y420344D01*
X729741Y423166D01*
X737117Y423166D01*
X743932Y420344D01*
X749147Y415128D01*
X750883Y410938D01*
X750934Y410855D01*
X750980Y410769D01*
X750999Y410751D01*
X751012Y410729D01*
X751087Y410667D01*
X751158Y410600D01*
X751182Y410589D01*
X751202Y410572D01*
X751293Y410537D01*
X751381Y410496D01*
X751407Y410493D01*
X751431Y410484D01*
X751529Y410480D01*
X751625Y410469D01*
X751651Y410475D01*
X751677Y410473D01*
X751771Y410501D01*
X751866Y410521D01*
X751888Y410535D01*
X751913Y410542D01*
X751993Y410598D01*
X752077Y410647D01*
X752094Y410667D01*
X752115Y410682D01*
X752174Y410760D01*
X752237Y410834D01*
X752247Y410859D01*
X752262Y410880D01*
X752292Y410972D01*
X752329Y411063D01*
X752332Y411095D01*
X752338Y411114D01*
X752338Y411147D01*
X752347Y411229D01*
X752347Y499622D01*
X752332Y499718D01*
X752322Y499815D01*
X752312Y499839D01*
X752308Y499865D01*
X752262Y499951D01*
X752222Y500040D01*
X752205Y500059D01*
X752192Y500082D01*
X752122Y500149D01*
X752056Y500221D01*
X752033Y500233D01*
X752014Y500251D01*
X751926Y500292D01*
X751840Y500339D01*
X751815Y500344D01*
X751791Y500355D01*
X751694Y500366D01*
X751598Y500383D01*
X751572Y500379D01*
X751547Y500382D01*
X751451Y500361D01*
X751355Y500347D01*
X751332Y500335D01*
X751306Y500330D01*
X751223Y500280D01*
X751136Y500236D01*
X751117Y500217D01*
X751095Y500204D01*
X751032Y500130D01*
X750964Y500060D01*
X750948Y500032D01*
X750935Y500017D01*
X750923Y499986D01*
X750883Y499913D01*
X749147Y495723D01*
X743932Y490508D01*
X737117Y487685D01*
X729741Y487685D01*
X722927Y490508D01*
X717711Y495723D01*
X714888Y502538D01*
X714888Y509914D01*
X717711Y516728D01*
X722927Y521944D01*
X727578Y523870D01*
X727661Y523922D01*
X727747Y523967D01*
X727765Y523986D01*
X727787Y524000D01*
X727849Y524075D01*
X727916Y524145D01*
X727927Y524169D01*
X727944Y524189D01*
X727979Y524280D01*
X728020Y524369D01*
X728022Y524395D01*
X728032Y524419D01*
X728036Y524516D01*
X728047Y524613D01*
X728041Y524638D01*
X728042Y524665D01*
X728015Y524758D01*
X727994Y524853D01*
X727981Y524876D01*
X727974Y524901D01*
X727918Y524981D01*
X727868Y525064D01*
X727848Y525081D01*
X727833Y525103D01*
X727755Y525161D01*
X727681Y525224D01*
X727657Y525234D01*
X727636Y525250D01*
X727544Y525280D01*
X727453Y525316D01*
X727421Y525320D01*
X727402Y525326D01*
X727369Y525326D01*
X727286Y525335D01*
X549570Y525335D01*
X549500Y525323D01*
X549428Y525321D01*
X549379Y525303D01*
X549327Y525295D01*
X549264Y525261D01*
X549197Y525237D01*
X549156Y525204D01*
X549110Y525180D01*
X549061Y525128D01*
X549005Y525083D01*
X548977Y525039D01*
X548941Y525002D01*
X548911Y524937D01*
X548872Y524876D01*
X548859Y524826D01*
X548837Y524779D01*
X548829Y524707D01*
X548812Y524638D01*
X548816Y524586D01*
X548810Y524534D01*
X548825Y524464D01*
X548831Y524393D01*
X548851Y524345D01*
X548862Y524294D01*
X548899Y524232D01*
X548927Y524166D01*
X548972Y524110D01*
X548988Y524083D01*
X549006Y524067D01*
X549032Y524035D01*
X549628Y523439D01*
X551059Y519985D01*
X551059Y501006D01*
X549628Y497551D01*
X546984Y494907D01*
X543530Y493477D01*
X539791Y493477D01*
X536336Y494907D01*
X533692Y497551D01*
X532261Y501006D01*
X532261Y519985D01*
X533692Y523439D01*
X534288Y524035D01*
X534330Y524094D01*
X534379Y524145D01*
X534401Y524193D01*
X534432Y524235D01*
X534453Y524303D01*
X534483Y524369D01*
X534489Y524420D01*
X534504Y524470D01*
X534502Y524542D01*
X534510Y524613D01*
X534499Y524664D01*
X534498Y524716D01*
X534473Y524783D01*
X534458Y524853D01*
X534431Y524898D01*
X534413Y524947D01*
X534368Y525003D01*
X534332Y525064D01*
X534292Y525098D01*
X534260Y525139D01*
X534199Y525178D01*
X534145Y525224D01*
X534096Y525244D01*
X534053Y525272D01*
X533983Y525289D01*
X533917Y525316D01*
X533845Y525324D01*
X533814Y525332D01*
X533791Y525330D01*
X533750Y525335D01*
X524170Y525335D01*
X524100Y525323D01*
X524028Y525321D01*
X523979Y525303D01*
X523927Y525295D01*
X523864Y525261D01*
X523797Y525237D01*
X523756Y525204D01*
X523710Y525180D01*
X523661Y525128D01*
X523605Y525083D01*
X523577Y525039D01*
X523541Y525002D01*
X523511Y524937D01*
X523472Y524876D01*
X523459Y524826D01*
X523437Y524779D01*
X523429Y524707D01*
X523412Y524638D01*
X523416Y524586D01*
X523410Y524534D01*
X523425Y524464D01*
X523431Y524393D01*
X523451Y524345D01*
X523462Y524294D01*
X523499Y524232D01*
X523527Y524166D01*
X523572Y524110D01*
X523588Y524083D01*
X523606Y524067D01*
X523632Y524035D01*
X524228Y523439D01*
X525659Y519985D01*
X525659Y501006D01*
X524228Y497551D01*
X521584Y494907D01*
X518130Y493477D01*
X514391Y493477D01*
X510936Y494907D01*
X508292Y497551D01*
X506861Y501006D01*
X506861Y519985D01*
X508292Y523439D01*
X508888Y524035D01*
X508930Y524094D01*
X508979Y524145D01*
X509001Y524193D01*
X509032Y524235D01*
X509053Y524303D01*
X509083Y524369D01*
X509089Y524420D01*
X509104Y524470D01*
X509102Y524542D01*
X509110Y524613D01*
X509099Y524664D01*
X509098Y524716D01*
X509073Y524783D01*
X509058Y524853D01*
X509031Y524898D01*
X509013Y524947D01*
X508968Y525003D01*
X508932Y525064D01*
X508892Y525098D01*
X508860Y525139D01*
X508799Y525178D01*
X508745Y525224D01*
X508696Y525244D01*
X508653Y525272D01*
X508583Y525289D01*
X508517Y525316D01*
X508445Y525324D01*
X508414Y525332D01*
X508391Y525330D01*
X508350Y525335D01*
X498770Y525335D01*
X498700Y525323D01*
X498628Y525321D01*
X498579Y525303D01*
X498527Y525295D01*
X498464Y525261D01*
X498397Y525237D01*
X498356Y525204D01*
X498310Y525180D01*
X498261Y525128D01*
X498205Y525083D01*
X498177Y525039D01*
X498141Y525002D01*
X498111Y524937D01*
X498072Y524876D01*
X498059Y524826D01*
X498037Y524779D01*
X498029Y524707D01*
X498012Y524638D01*
X498016Y524586D01*
X498010Y524534D01*
X498025Y524464D01*
X498031Y524393D01*
X498051Y524345D01*
X498062Y524294D01*
X498099Y524232D01*
X498127Y524166D01*
X498172Y524110D01*
X498188Y524083D01*
X498206Y524067D01*
X498232Y524035D01*
X498828Y523439D01*
X500259Y519985D01*
X500259Y501006D01*
X498828Y497551D01*
X496184Y494907D01*
X492730Y493477D01*
X488991Y493477D01*
X485536Y494907D01*
X482892Y497551D01*
X481461Y501006D01*
X481461Y519985D01*
X482892Y523439D01*
X483488Y524035D01*
X483530Y524094D01*
X483579Y524145D01*
X483601Y524193D01*
X483632Y524235D01*
X483653Y524303D01*
X483683Y524369D01*
X483689Y524420D01*
X483704Y524470D01*
X483702Y524542D01*
X483710Y524613D01*
X483699Y524664D01*
X483698Y524716D01*
X483673Y524783D01*
X483658Y524853D01*
X483631Y524898D01*
X483613Y524947D01*
X483568Y525003D01*
X483532Y525064D01*
X483492Y525098D01*
X483460Y525139D01*
X483399Y525178D01*
X483345Y525224D01*
X483296Y525244D01*
X483253Y525272D01*
X483183Y525289D01*
X483117Y525316D01*
X483045Y525324D01*
X483014Y525332D01*
X482991Y525330D01*
X482950Y525335D01*
X473370Y525335D01*
X473300Y525323D01*
X473228Y525321D01*
X473179Y525303D01*
X473127Y525295D01*
X473064Y525261D01*
X472997Y525237D01*
X472956Y525204D01*
X472910Y525180D01*
X472861Y525128D01*
X472805Y525083D01*
X472777Y525039D01*
X472741Y525002D01*
X472711Y524937D01*
X472672Y524876D01*
X472659Y524826D01*
X472637Y524779D01*
X472629Y524707D01*
X472612Y524638D01*
X472616Y524586D01*
X472610Y524534D01*
X472625Y524464D01*
X472631Y524393D01*
X472651Y524345D01*
X472662Y524294D01*
X472699Y524232D01*
X472727Y524166D01*
X472772Y524110D01*
X472788Y524083D01*
X472806Y524067D01*
X472832Y524035D01*
X473428Y523439D01*
X474859Y519985D01*
X474859Y501006D01*
X473428Y497551D01*
X470784Y494907D01*
X467330Y493477D01*
X463591Y493477D01*
X460136Y494907D01*
X457492Y497551D01*
X456061Y501006D01*
X456061Y519985D01*
X457492Y523439D01*
X458088Y524035D01*
X458130Y524094D01*
X458179Y524145D01*
X458201Y524193D01*
X458232Y524235D01*
X458253Y524303D01*
X458283Y524369D01*
X458289Y524420D01*
X458304Y524470D01*
X458302Y524542D01*
X458310Y524613D01*
X458299Y524664D01*
X458298Y524716D01*
X458273Y524783D01*
X458258Y524853D01*
X458231Y524898D01*
X458213Y524947D01*
X458168Y525003D01*
X458132Y525064D01*
X458092Y525098D01*
X458060Y525139D01*
X457999Y525178D01*
X457945Y525224D01*
X457896Y525244D01*
X457853Y525272D01*
X457783Y525289D01*
X457717Y525316D01*
X457645Y525324D01*
X457614Y525332D01*
X457591Y525330D01*
X457550Y525335D01*
X447970Y525335D01*
X447900Y525323D01*
X447828Y525321D01*
X447779Y525303D01*
X447727Y525295D01*
X447664Y525261D01*
X447597Y525237D01*
X447556Y525204D01*
X447510Y525180D01*
X447461Y525128D01*
X447405Y525083D01*
X447377Y525039D01*
X447341Y525002D01*
X447311Y524937D01*
X447272Y524876D01*
X447259Y524826D01*
X447237Y524779D01*
X447229Y524707D01*
X447212Y524638D01*
X447216Y524586D01*
X447210Y524534D01*
X447225Y524464D01*
X447231Y524393D01*
X447251Y524345D01*
X447262Y524294D01*
X447299Y524232D01*
X447327Y524166D01*
X447372Y524110D01*
X447388Y524083D01*
X447406Y524067D01*
X447432Y524035D01*
X448028Y523439D01*
X449459Y519985D01*
X449459Y501006D01*
X448028Y497551D01*
X445384Y494907D01*
X441930Y493477D01*
X438191Y493477D01*
X434736Y494907D01*
X432092Y497551D01*
X430661Y501006D01*
X430661Y519985D01*
X432092Y523439D01*
X432688Y524035D01*
X432730Y524094D01*
X432779Y524145D01*
X432801Y524193D01*
X432832Y524235D01*
X432853Y524303D01*
X432883Y524369D01*
X432889Y524420D01*
X432904Y524470D01*
X432902Y524542D01*
X432910Y524613D01*
X432899Y524664D01*
X432898Y524716D01*
X432873Y524783D01*
X432858Y524853D01*
X432831Y524898D01*
X432813Y524947D01*
X432768Y525003D01*
X432732Y525064D01*
X432692Y525098D01*
X432660Y525139D01*
X432599Y525178D01*
X432545Y525224D01*
X432496Y525244D01*
X432453Y525272D01*
X432383Y525289D01*
X432317Y525316D01*
X432245Y525324D01*
X432214Y525332D01*
X432191Y525330D01*
X432150Y525335D01*
X422570Y525335D01*
X422500Y525323D01*
X422428Y525321D01*
X422379Y525303D01*
X422327Y525295D01*
X422264Y525261D01*
X422197Y525237D01*
X422156Y525204D01*
X422110Y525180D01*
X422061Y525128D01*
X422005Y525083D01*
X421977Y525039D01*
X421941Y525002D01*
X421911Y524937D01*
X421872Y524876D01*
X421859Y524826D01*
X421837Y524779D01*
X421829Y524707D01*
X421812Y524638D01*
X421816Y524586D01*
X421810Y524534D01*
X421825Y524464D01*
X421831Y524393D01*
X421851Y524345D01*
X421862Y524294D01*
X421899Y524232D01*
X421927Y524166D01*
X421972Y524110D01*
X421988Y524083D01*
X422006Y524067D01*
X422032Y524035D01*
X422628Y523439D01*
X424059Y519985D01*
X424059Y501006D01*
X422628Y497551D01*
X419984Y494907D01*
X416530Y493477D01*
X412791Y493477D01*
X409336Y494907D01*
X406692Y497551D01*
X405261Y501006D01*
X405261Y519985D01*
X406692Y523439D01*
X407288Y524035D01*
X407330Y524094D01*
X407379Y524145D01*
X407401Y524193D01*
X407432Y524235D01*
X407453Y524303D01*
X407483Y524369D01*
X407489Y524420D01*
X407504Y524470D01*
X407502Y524542D01*
X407510Y524613D01*
X407499Y524664D01*
X407498Y524716D01*
X407473Y524783D01*
X407458Y524853D01*
X407431Y524898D01*
X407413Y524947D01*
X407368Y525003D01*
X407332Y525064D01*
X407292Y525098D01*
X407260Y525139D01*
X407199Y525178D01*
X407145Y525224D01*
X407096Y525244D01*
X407053Y525272D01*
X406983Y525289D01*
X406917Y525316D01*
X406845Y525324D01*
X406814Y525332D01*
X406791Y525330D01*
X406750Y525335D01*
X397170Y525335D01*
X397100Y525323D01*
X397028Y525321D01*
X396979Y525303D01*
X396927Y525295D01*
X396864Y525261D01*
X396797Y525237D01*
X396756Y525204D01*
X396710Y525180D01*
X396661Y525128D01*
X396605Y525083D01*
X396577Y525039D01*
X396541Y525002D01*
X396511Y524937D01*
X396472Y524876D01*
X396459Y524826D01*
X396437Y524779D01*
X396429Y524707D01*
X396412Y524638D01*
X396416Y524586D01*
X396410Y524534D01*
X396425Y524464D01*
X396431Y524393D01*
X396451Y524345D01*
X396462Y524294D01*
X396499Y524232D01*
X396527Y524166D01*
X396572Y524110D01*
X396588Y524083D01*
X396606Y524067D01*
X396632Y524035D01*
X397228Y523439D01*
X398659Y519985D01*
X398659Y501006D01*
X397228Y497551D01*
X394584Y494907D01*
X391130Y493477D01*
X387391Y493477D01*
X383936Y494907D01*
X381292Y497551D01*
X379861Y501006D01*
X379861Y519985D01*
X381292Y523439D01*
X381888Y524035D01*
X381930Y524094D01*
X381979Y524145D01*
X382001Y524193D01*
X382032Y524235D01*
X382053Y524303D01*
X382083Y524369D01*
X382089Y524420D01*
X382104Y524470D01*
X382102Y524542D01*
X382110Y524613D01*
X382099Y524664D01*
X382098Y524716D01*
X382073Y524783D01*
X382058Y524853D01*
X382031Y524898D01*
X382013Y524947D01*
X381968Y525003D01*
X381932Y525064D01*
X381892Y525098D01*
X381860Y525139D01*
X381799Y525178D01*
X381745Y525224D01*
X381696Y525244D01*
X381653Y525272D01*
X381583Y525289D01*
X381517Y525316D01*
X381445Y525324D01*
X381414Y525332D01*
X381391Y525330D01*
X381350Y525335D01*
X371770Y525335D01*
X371700Y525323D01*
X371628Y525321D01*
X371579Y525303D01*
X371527Y525295D01*
X371464Y525261D01*
X371397Y525237D01*
X371356Y525204D01*
X371310Y525180D01*
X371261Y525128D01*
X371205Y525083D01*
X371177Y525039D01*
X371141Y525002D01*
X371111Y524937D01*
X371072Y524876D01*
X371059Y524826D01*
X371037Y524779D01*
X371029Y524707D01*
X371012Y524638D01*
X371016Y524586D01*
X371010Y524534D01*
X371025Y524464D01*
X371031Y524393D01*
X371051Y524345D01*
X371062Y524294D01*
X371099Y524232D01*
X371127Y524166D01*
X371172Y524110D01*
X371188Y524083D01*
X371206Y524067D01*
X371232Y524035D01*
X371828Y523439D01*
X373259Y519985D01*
X373259Y501006D01*
X371828Y497551D01*
X369184Y494907D01*
X365730Y493477D01*
X361991Y493477D01*
X358536Y494907D01*
X355892Y497551D01*
X354461Y501006D01*
X354461Y519985D01*
X355892Y523439D01*
X356488Y524035D01*
X356530Y524094D01*
X356579Y524145D01*
X356601Y524193D01*
X356632Y524235D01*
X356653Y524303D01*
X356683Y524369D01*
X356689Y524420D01*
X356704Y524470D01*
X356702Y524542D01*
X356710Y524613D01*
X356699Y524664D01*
X356698Y524716D01*
X356673Y524783D01*
X356658Y524853D01*
X356631Y524898D01*
X356613Y524947D01*
X356568Y525003D01*
X356532Y525064D01*
X356492Y525098D01*
X356460Y525139D01*
X356399Y525178D01*
X356345Y525224D01*
X356296Y525244D01*
X356253Y525272D01*
X356183Y525289D01*
X356117Y525316D01*
X356045Y525324D01*
X356014Y525332D01*
X355991Y525330D01*
X355950Y525335D01*
X346370Y525335D01*
X346300Y525323D01*
X346228Y525321D01*
X346179Y525303D01*
X346127Y525295D01*
X346064Y525261D01*
X345997Y525237D01*
X345956Y525204D01*
X345910Y525180D01*
X345861Y525128D01*
X345805Y525083D01*
X345777Y525039D01*
X345741Y525002D01*
X345711Y524937D01*
X345672Y524876D01*
X345659Y524826D01*
X345637Y524779D01*
X345629Y524707D01*
X345612Y524638D01*
X345616Y524586D01*
X345610Y524534D01*
X345625Y524464D01*
X345631Y524393D01*
X345651Y524345D01*
X345662Y524294D01*
X345699Y524232D01*
X345727Y524166D01*
X345772Y524110D01*
X345788Y524083D01*
X345806Y524067D01*
X345832Y524035D01*
X346428Y523439D01*
X347859Y519985D01*
X347859Y501006D01*
X346428Y497551D01*
X343784Y494907D01*
X340330Y493477D01*
X336591Y493477D01*
X333136Y494907D01*
X330492Y497551D01*
X329061Y501006D01*
X329061Y519985D01*
X330492Y523439D01*
X331088Y524035D01*
X331130Y524094D01*
X331179Y524145D01*
X331201Y524193D01*
X331232Y524235D01*
X331253Y524303D01*
X331283Y524369D01*
X331289Y524420D01*
X331304Y524470D01*
X331302Y524542D01*
X331310Y524613D01*
X331299Y524664D01*
X331298Y524716D01*
X331273Y524783D01*
X331258Y524853D01*
X331231Y524898D01*
X331213Y524947D01*
X331168Y525003D01*
X331132Y525064D01*
X331092Y525098D01*
X331060Y525139D01*
X330999Y525178D01*
X330945Y525224D01*
X330896Y525244D01*
X330853Y525272D01*
X330783Y525289D01*
X330717Y525316D01*
X330645Y525324D01*
X330614Y525332D01*
X330591Y525330D01*
X330550Y525335D01*
X320970Y525335D01*
X320900Y525323D01*
X320828Y525321D01*
X320779Y525303D01*
X320727Y525295D01*
X320664Y525261D01*
X320597Y525237D01*
X320556Y525204D01*
X320510Y525180D01*
X320461Y525128D01*
X320405Y525083D01*
X320377Y525039D01*
X320341Y525002D01*
X320311Y524937D01*
X320272Y524876D01*
X320259Y524826D01*
X320237Y524779D01*
X320229Y524707D01*
X320212Y524638D01*
X320216Y524586D01*
X320210Y524534D01*
X320225Y524464D01*
X320231Y524393D01*
X320251Y524345D01*
X320262Y524294D01*
X320299Y524232D01*
X320327Y524166D01*
X320372Y524110D01*
X320388Y524083D01*
X320406Y524067D01*
X320432Y524035D01*
X321028Y523439D01*
X322459Y519985D01*
X322459Y501006D01*
X321028Y497551D01*
X318384Y494907D01*
X314930Y493477D01*
X311191Y493477D01*
X307736Y494907D01*
X305092Y497551D01*
X303661Y501006D01*
X303661Y519985D01*
X305092Y523439D01*
X305688Y524035D01*
X305730Y524094D01*
X305779Y524145D01*
X305801Y524193D01*
X305832Y524235D01*
X305853Y524303D01*
X305883Y524369D01*
X305889Y524420D01*
X305904Y524470D01*
X305902Y524542D01*
X305910Y524613D01*
X305899Y524664D01*
X305898Y524716D01*
X305873Y524783D01*
X305858Y524853D01*
X305831Y524898D01*
X305813Y524947D01*
X305768Y525003D01*
X305732Y525064D01*
X305692Y525098D01*
X305660Y525139D01*
X305599Y525178D01*
X305545Y525224D01*
X305496Y525244D01*
X305453Y525272D01*
X305383Y525289D01*
X305317Y525316D01*
X305245Y525324D01*
X305214Y525332D01*
X305191Y525330D01*
X305150Y525335D01*
X295570Y525335D01*
X295500Y525323D01*
X295428Y525321D01*
X295379Y525303D01*
X295327Y525295D01*
X295264Y525261D01*
X295197Y525237D01*
X295156Y525204D01*
X295110Y525180D01*
X295061Y525128D01*
X295005Y525083D01*
X294977Y525039D01*
X294941Y525002D01*
X294911Y524937D01*
X294872Y524876D01*
X294859Y524826D01*
X294837Y524779D01*
X294829Y524707D01*
X294812Y524638D01*
X294816Y524586D01*
X294810Y524534D01*
X294825Y524464D01*
X294831Y524393D01*
X294851Y524345D01*
X294862Y524294D01*
X294899Y524232D01*
X294927Y524166D01*
X294972Y524110D01*
X294988Y524083D01*
X295006Y524067D01*
X295032Y524035D01*
X295628Y523439D01*
X297059Y519985D01*
X297059Y501006D01*
X295628Y497551D01*
X292984Y494907D01*
X289530Y493477D01*
X285791Y493477D01*
X282336Y494907D01*
X279692Y497551D01*
X278261Y501006D01*
X278261Y519985D01*
X279692Y523439D01*
X280288Y524035D01*
X280330Y524094D01*
X280379Y524145D01*
X280401Y524193D01*
X280432Y524235D01*
X280453Y524303D01*
X280483Y524369D01*
X280489Y524420D01*
X280504Y524470D01*
X280502Y524542D01*
X280510Y524613D01*
X280499Y524664D01*
X280498Y524716D01*
X280473Y524783D01*
X280458Y524853D01*
X280431Y524898D01*
X280413Y524947D01*
X280368Y525003D01*
X280332Y525064D01*
X280292Y525098D01*
X280260Y525139D01*
X280199Y525178D01*
X280145Y525224D01*
X280096Y525244D01*
X280053Y525272D01*
X279983Y525289D01*
X279917Y525316D01*
X279845Y525324D01*
X279814Y525332D01*
X279791Y525330D01*
X279750Y525335D01*
X270170Y525335D01*
X270100Y525323D01*
X270028Y525321D01*
X269979Y525303D01*
X269927Y525295D01*
X269864Y525261D01*
X269797Y525237D01*
X269756Y525204D01*
X269710Y525180D01*
X269661Y525128D01*
X269605Y525083D01*
X269577Y525039D01*
X269541Y525002D01*
X269511Y524937D01*
X269472Y524876D01*
X269459Y524826D01*
X269437Y524779D01*
X269429Y524707D01*
X269412Y524638D01*
X269416Y524586D01*
X269410Y524534D01*
X269425Y524464D01*
X269431Y524393D01*
X269451Y524345D01*
X269462Y524294D01*
X269499Y524232D01*
X269527Y524166D01*
X269572Y524110D01*
X269588Y524083D01*
X269606Y524067D01*
X269632Y524035D01*
X270228Y523439D01*
X271659Y519985D01*
X271659Y501006D01*
X270228Y497551D01*
X267584Y494907D01*
X264130Y493477D01*
X260391Y493477D01*
X256936Y494907D01*
X254292Y497551D01*
X252861Y501006D01*
X252861Y519985D01*
X254292Y523439D01*
X254888Y524035D01*
X254930Y524094D01*
X254979Y524145D01*
X255001Y524193D01*
X255032Y524235D01*
X255053Y524303D01*
X255083Y524369D01*
X255089Y524420D01*
X255104Y524470D01*
X255102Y524542D01*
X255110Y524613D01*
X255099Y524664D01*
X255098Y524716D01*
X255073Y524783D01*
X255058Y524853D01*
X255031Y524898D01*
X255013Y524947D01*
X254968Y525003D01*
X254932Y525064D01*
X254892Y525098D01*
X254860Y525139D01*
X254799Y525178D01*
X254745Y525224D01*
X254696Y525244D01*
X254653Y525272D01*
X254583Y525289D01*
X254517Y525316D01*
X254445Y525324D01*
X254414Y525332D01*
X254391Y525330D01*
X254350Y525335D01*
X244770Y525335D01*
X244700Y525323D01*
X244628Y525321D01*
X244579Y525303D01*
X244527Y525295D01*
X244464Y525261D01*
X244397Y525237D01*
X244356Y525204D01*
X244310Y525180D01*
X244261Y525128D01*
X244205Y525083D01*
X244177Y525039D01*
X244141Y525002D01*
X244111Y524937D01*
X244072Y524876D01*
X244059Y524826D01*
X244037Y524779D01*
X244029Y524707D01*
X244012Y524638D01*
X244016Y524586D01*
X244010Y524534D01*
X244025Y524464D01*
X244031Y524393D01*
X244051Y524345D01*
X244062Y524294D01*
X244099Y524232D01*
X244127Y524166D01*
X244172Y524110D01*
X244188Y524083D01*
X244206Y524067D01*
X244232Y524035D01*
X244828Y523439D01*
X246259Y519985D01*
X246259Y501006D01*
X244828Y497551D01*
X242184Y494907D01*
X238730Y493477D01*
X234991Y493477D01*
X231536Y494907D01*
X228892Y497551D01*
X227461Y501006D01*
X227461Y519985D01*
X228892Y523439D01*
X229488Y524035D01*
X229530Y524094D01*
X229579Y524145D01*
X229601Y524193D01*
X229632Y524235D01*
X229653Y524303D01*
X229683Y524369D01*
X229689Y524420D01*
X229704Y524470D01*
X229702Y524542D01*
X229710Y524613D01*
X229699Y524664D01*
X229698Y524716D01*
X229673Y524783D01*
X229658Y524853D01*
X229631Y524898D01*
X229613Y524947D01*
X229568Y525003D01*
X229532Y525064D01*
X229492Y525098D01*
X229460Y525139D01*
X229399Y525178D01*
X229345Y525224D01*
X229296Y525244D01*
X229253Y525272D01*
X229183Y525289D01*
X229117Y525316D01*
X229045Y525324D01*
X229014Y525332D01*
X228991Y525330D01*
X228950Y525335D01*
X219370Y525335D01*
X219300Y525323D01*
X219228Y525321D01*
X219179Y525303D01*
X219127Y525295D01*
X219064Y525261D01*
X218997Y525237D01*
X218956Y525204D01*
X218910Y525180D01*
X218861Y525128D01*
X218805Y525083D01*
X218777Y525039D01*
X218741Y525002D01*
X218711Y524937D01*
X218672Y524876D01*
X218659Y524826D01*
X218637Y524779D01*
X218629Y524707D01*
X218612Y524638D01*
X218616Y524586D01*
X218610Y524534D01*
X218625Y524464D01*
X218631Y524393D01*
X218651Y524345D01*
X218662Y524294D01*
X218699Y524232D01*
X218727Y524166D01*
X218772Y524110D01*
X218788Y524083D01*
X218806Y524067D01*
X218832Y524035D01*
X219428Y523439D01*
X220859Y519985D01*
X220859Y501006D01*
X219428Y497551D01*
X216784Y494907D01*
X213330Y493477D01*
X209591Y493477D01*
X206136Y494907D01*
X203492Y497551D01*
X202061Y501006D01*
X202061Y519985D01*
X203492Y523439D01*
X204088Y524035D01*
X204130Y524094D01*
X204179Y524145D01*
X204201Y524193D01*
X204232Y524235D01*
X204253Y524303D01*
X204283Y524369D01*
X204289Y524420D01*
X204304Y524470D01*
X204302Y524542D01*
X204310Y524613D01*
X204299Y524664D01*
X204298Y524716D01*
X204273Y524783D01*
X204258Y524853D01*
X204231Y524898D01*
X204213Y524947D01*
X204168Y525003D01*
X204132Y525064D01*
X204092Y525098D01*
X204060Y525139D01*
X203999Y525178D01*
X203945Y525224D01*
X203896Y525244D01*
X203853Y525272D01*
X203783Y525289D01*
X203717Y525316D01*
X203645Y525324D01*
X203614Y525332D01*
X203591Y525330D01*
X203550Y525335D01*
X193970Y525335D01*
X193900Y525323D01*
X193828Y525321D01*
X193779Y525303D01*
X193727Y525295D01*
X193664Y525261D01*
X193597Y525237D01*
X193556Y525204D01*
X193510Y525180D01*
X193461Y525128D01*
X193405Y525083D01*
X193377Y525039D01*
X193341Y525002D01*
X193311Y524937D01*
X193272Y524876D01*
X193259Y524826D01*
X193237Y524779D01*
X193229Y524707D01*
X193212Y524638D01*
X193216Y524586D01*
X193210Y524534D01*
X193225Y524464D01*
X193231Y524393D01*
X193251Y524345D01*
X193262Y524294D01*
X193299Y524232D01*
X193327Y524166D01*
X193372Y524110D01*
X193388Y524083D01*
X193406Y524067D01*
X193432Y524035D01*
X194028Y523439D01*
X195459Y519985D01*
X195459Y501006D01*
X194028Y497551D01*
X191384Y494907D01*
X187930Y493477D01*
X184191Y493477D01*
X180736Y494907D01*
X178092Y497551D01*
X176661Y501006D01*
X176661Y519985D01*
X178092Y523439D01*
X178688Y524035D01*
X178730Y524094D01*
X178779Y524145D01*
X178801Y524193D01*
X178832Y524235D01*
X178853Y524303D01*
X178883Y524369D01*
X178889Y524420D01*
X178904Y524470D01*
X178902Y524542D01*
X178910Y524613D01*
X178899Y524664D01*
X178898Y524716D01*
X178873Y524783D01*
X178858Y524853D01*
X178831Y524898D01*
X178813Y524947D01*
X178768Y525003D01*
X178732Y525064D01*
X178692Y525098D01*
X178660Y525139D01*
X178599Y525178D01*
X178545Y525224D01*
X178496Y525244D01*
X178453Y525272D01*
X178383Y525289D01*
X178317Y525316D01*
X178245Y525324D01*
X178214Y525332D01*
X178191Y525330D01*
X178150Y525335D01*
X168570Y525335D01*
X168500Y525323D01*
X168428Y525321D01*
X168379Y525303D01*
X168327Y525295D01*
X168264Y525261D01*
X168197Y525237D01*
X168156Y525204D01*
X168110Y525180D01*
X168061Y525128D01*
X168005Y525083D01*
X167977Y525039D01*
X167941Y525002D01*
X167911Y524937D01*
X167872Y524876D01*
X167859Y524826D01*
X167837Y524779D01*
X167829Y524707D01*
X167812Y524638D01*
X167816Y524586D01*
X167810Y524534D01*
X167825Y524464D01*
X167831Y524393D01*
X167851Y524345D01*
X167862Y524294D01*
X167899Y524232D01*
X167927Y524166D01*
X167972Y524110D01*
X167988Y524083D01*
X168006Y524067D01*
X168032Y524035D01*
X168628Y523439D01*
X170059Y519985D01*
X170059Y501006D01*
X168628Y497551D01*
X165984Y494907D01*
X162530Y493477D01*
X158791Y493477D01*
X155336Y494907D01*
X152692Y497551D01*
X151261Y501006D01*
X151261Y519985D01*
X152692Y523439D01*
X153288Y524035D01*
X153330Y524094D01*
X153379Y524145D01*
X153401Y524193D01*
X153432Y524235D01*
X153453Y524303D01*
X153483Y524369D01*
X153489Y524420D01*
X153504Y524470D01*
X153502Y524542D01*
X153510Y524613D01*
X153499Y524664D01*
X153498Y524716D01*
X153473Y524783D01*
X153458Y524853D01*
X153431Y524898D01*
X153413Y524947D01*
X153368Y525003D01*
X153332Y525064D01*
X153292Y525098D01*
X153260Y525139D01*
X153199Y525178D01*
X153145Y525224D01*
X153096Y525244D01*
X153053Y525272D01*
X152983Y525289D01*
X152917Y525316D01*
X152845Y525324D01*
X152814Y525332D01*
X152791Y525330D01*
X152750Y525335D01*
X53975Y525335D01*
X53949Y525331D01*
X53900Y525331D01*
X51286Y525074D01*
X51259Y525066D01*
X51231Y525066D01*
X51070Y525019D01*
X46240Y523019D01*
X46184Y522984D01*
X46124Y522959D01*
X46059Y522907D01*
X46031Y522889D01*
X46018Y522874D01*
X45993Y522854D01*
X42296Y519157D01*
X42258Y519104D01*
X42212Y519057D01*
X42172Y518984D01*
X42153Y518957D01*
X42147Y518939D01*
X42131Y518910D01*
X40131Y514080D01*
X40124Y514053D01*
X40111Y514028D01*
X40076Y513864D01*
X39819Y511250D01*
X39821Y511223D01*
X39815Y511175D01*
X39815Y257175D01*
X39819Y257153D01*
X39818Y257115D01*
X40119Y253281D01*
X40121Y253275D01*
X40120Y253270D01*
X40154Y253105D01*
X42524Y245812D01*
X42540Y245780D01*
X42549Y245746D01*
X42632Y245600D01*
X47140Y239396D01*
X47165Y239370D01*
X47184Y239340D01*
X47308Y239227D01*
X53512Y234720D01*
X53544Y234704D01*
X53572Y234681D01*
X53724Y234612D01*
X61018Y232242D01*
X61023Y232241D01*
X61029Y232238D01*
X61193Y232207D01*
X65028Y231905D01*
X65050Y231907D01*
X65087Y231903D01*
X584200Y231903D01*
X584226Y231907D01*
G37*
G36*
X278107Y263664D02*
X278107Y263664D01*
X278179Y263666D01*
X278228Y263684D01*
X278279Y263692D01*
X278343Y263726D01*
X278410Y263751D01*
X278451Y263783D01*
X278497Y263808D01*
X278546Y263860D01*
X278602Y263904D01*
X278630Y263948D01*
X278666Y263986D01*
X278696Y264051D01*
X278735Y264111D01*
X278748Y264162D01*
X278770Y264209D01*
X278777Y264280D01*
X278795Y264350D01*
X278791Y264402D01*
X278797Y264453D01*
X278781Y264524D01*
X278776Y264595D01*
X278755Y264643D01*
X278744Y264694D01*
X278708Y264755D01*
X278680Y264821D01*
X278635Y264877D01*
X278618Y264905D01*
X278600Y264920D01*
X278575Y264952D01*
X276481Y267046D01*
X275050Y270501D01*
X275050Y289480D01*
X276481Y292934D01*
X279125Y295578D01*
X282579Y297009D01*
X286318Y297009D01*
X289772Y295578D01*
X292416Y292934D01*
X293847Y289480D01*
X293847Y270501D01*
X292416Y267046D01*
X290322Y264952D01*
X290280Y264894D01*
X290231Y264842D01*
X290209Y264795D01*
X290179Y264753D01*
X290158Y264684D01*
X290127Y264619D01*
X290122Y264567D01*
X290106Y264517D01*
X290108Y264446D01*
X290100Y264375D01*
X290111Y264324D01*
X290113Y264272D01*
X290137Y264204D01*
X290153Y264134D01*
X290179Y264089D01*
X290197Y264041D01*
X290242Y263985D01*
X290279Y263923D01*
X290318Y263889D01*
X290351Y263849D01*
X290411Y263810D01*
X290466Y263763D01*
X290514Y263744D01*
X290558Y263716D01*
X290627Y263698D01*
X290694Y263671D01*
X290765Y263663D01*
X290796Y263655D01*
X290820Y263657D01*
X290861Y263653D01*
X303436Y263653D01*
X303507Y263664D01*
X303579Y263666D01*
X303628Y263684D01*
X303679Y263692D01*
X303743Y263726D01*
X303810Y263751D01*
X303851Y263783D01*
X303897Y263808D01*
X303946Y263860D01*
X304002Y263904D01*
X304030Y263948D01*
X304066Y263986D01*
X304096Y264051D01*
X304135Y264111D01*
X304148Y264162D01*
X304170Y264209D01*
X304177Y264280D01*
X304195Y264350D01*
X304191Y264402D01*
X304197Y264453D01*
X304181Y264524D01*
X304176Y264595D01*
X304155Y264643D01*
X304144Y264694D01*
X304108Y264755D01*
X304080Y264821D01*
X304035Y264877D01*
X304018Y264905D01*
X304000Y264920D01*
X303975Y264952D01*
X301881Y267046D01*
X300450Y270501D01*
X300450Y289480D01*
X301881Y292934D01*
X304525Y295578D01*
X307979Y297009D01*
X311718Y297009D01*
X315172Y295578D01*
X317816Y292934D01*
X319247Y289480D01*
X319247Y270501D01*
X317816Y267046D01*
X315722Y264952D01*
X315680Y264894D01*
X315631Y264842D01*
X315609Y264795D01*
X315579Y264753D01*
X315558Y264684D01*
X315527Y264619D01*
X315522Y264567D01*
X315506Y264517D01*
X315508Y264446D01*
X315500Y264375D01*
X315511Y264324D01*
X315513Y264272D01*
X315537Y264204D01*
X315553Y264134D01*
X315579Y264089D01*
X315597Y264041D01*
X315642Y263985D01*
X315679Y263923D01*
X315718Y263889D01*
X315751Y263849D01*
X315811Y263810D01*
X315866Y263763D01*
X315914Y263744D01*
X315958Y263716D01*
X316027Y263698D01*
X316094Y263671D01*
X316165Y263663D01*
X316196Y263655D01*
X316220Y263657D01*
X316261Y263653D01*
X328836Y263653D01*
X328907Y263664D01*
X328979Y263666D01*
X329028Y263684D01*
X329079Y263692D01*
X329143Y263726D01*
X329210Y263751D01*
X329251Y263783D01*
X329297Y263808D01*
X329346Y263860D01*
X329402Y263904D01*
X329430Y263948D01*
X329466Y263986D01*
X329496Y264051D01*
X329535Y264111D01*
X329548Y264162D01*
X329570Y264209D01*
X329577Y264280D01*
X329595Y264350D01*
X329591Y264402D01*
X329597Y264453D01*
X329581Y264524D01*
X329576Y264595D01*
X329555Y264643D01*
X329544Y264694D01*
X329508Y264755D01*
X329480Y264821D01*
X329435Y264877D01*
X329418Y264905D01*
X329400Y264920D01*
X329375Y264952D01*
X327281Y267046D01*
X325850Y270501D01*
X325850Y289480D01*
X327281Y292934D01*
X329925Y295578D01*
X333379Y297009D01*
X337118Y297009D01*
X340572Y295578D01*
X343216Y292934D01*
X344647Y289480D01*
X344647Y270501D01*
X343216Y267046D01*
X341122Y264952D01*
X341080Y264894D01*
X341031Y264842D01*
X341009Y264795D01*
X340979Y264753D01*
X340958Y264684D01*
X340927Y264619D01*
X340922Y264567D01*
X340906Y264517D01*
X340908Y264446D01*
X340900Y264375D01*
X340911Y264324D01*
X340913Y264272D01*
X340937Y264204D01*
X340953Y264134D01*
X340979Y264089D01*
X340997Y264041D01*
X341042Y263985D01*
X341079Y263923D01*
X341118Y263889D01*
X341151Y263849D01*
X341211Y263810D01*
X341266Y263763D01*
X341314Y263744D01*
X341358Y263716D01*
X341427Y263698D01*
X341494Y263671D01*
X341565Y263663D01*
X341596Y263655D01*
X341620Y263657D01*
X341661Y263653D01*
X354236Y263653D01*
X354307Y263664D01*
X354379Y263666D01*
X354428Y263684D01*
X354479Y263692D01*
X354543Y263726D01*
X354610Y263751D01*
X354651Y263783D01*
X354697Y263808D01*
X354746Y263860D01*
X354802Y263904D01*
X354830Y263948D01*
X354866Y263986D01*
X354896Y264051D01*
X354935Y264111D01*
X354948Y264162D01*
X354970Y264209D01*
X354977Y264280D01*
X354995Y264350D01*
X354991Y264402D01*
X354997Y264453D01*
X354981Y264524D01*
X354976Y264595D01*
X354955Y264643D01*
X354944Y264694D01*
X354908Y264755D01*
X354880Y264821D01*
X354835Y264877D01*
X354818Y264905D01*
X354800Y264920D01*
X354775Y264952D01*
X352681Y267046D01*
X351250Y270501D01*
X351250Y289480D01*
X352681Y292934D01*
X355325Y295578D01*
X356590Y296102D01*
X356690Y296164D01*
X356789Y296224D01*
X356793Y296228D01*
X356799Y296232D01*
X356874Y296322D01*
X356949Y296411D01*
X356952Y296417D01*
X356956Y296421D01*
X356997Y296530D01*
X357041Y296639D01*
X357042Y296646D01*
X357044Y296651D01*
X357045Y296669D01*
X357060Y296806D01*
X357060Y343599D01*
X357057Y343618D01*
X357059Y343638D01*
X357037Y343739D01*
X357020Y343841D01*
X357011Y343859D01*
X357006Y343878D01*
X356953Y343967D01*
X356905Y344059D01*
X356891Y344072D01*
X356880Y344089D01*
X356802Y344157D01*
X356727Y344228D01*
X356709Y344236D01*
X356693Y344249D01*
X356597Y344288D01*
X356504Y344332D01*
X356484Y344334D01*
X356465Y344341D01*
X356299Y344360D01*
X250126Y344360D01*
X250107Y344357D01*
X250087Y344359D01*
X249986Y344337D01*
X249884Y344320D01*
X249866Y344311D01*
X249847Y344306D01*
X249758Y344253D01*
X249666Y344205D01*
X249653Y344191D01*
X249636Y344180D01*
X249568Y344102D01*
X249497Y344027D01*
X249489Y344009D01*
X249476Y343993D01*
X249437Y343897D01*
X249393Y343804D01*
X249391Y343784D01*
X249384Y343765D01*
X249365Y343599D01*
X249365Y292620D01*
X249381Y292524D01*
X249390Y292427D01*
X249401Y292403D01*
X249405Y292377D01*
X249450Y292291D01*
X249490Y292202D01*
X249508Y292183D01*
X249520Y292160D01*
X249591Y292093D01*
X249657Y292021D01*
X249679Y292008D01*
X249698Y291990D01*
X249787Y291949D01*
X249872Y291902D01*
X249898Y291898D01*
X249921Y291887D01*
X250018Y291876D01*
X250114Y291859D01*
X250140Y291863D01*
X250166Y291860D01*
X250261Y291880D01*
X250357Y291895D01*
X250381Y291906D01*
X250406Y291912D01*
X250490Y291962D01*
X250577Y292006D01*
X250595Y292025D01*
X250617Y292038D01*
X250681Y292112D01*
X250749Y292182D01*
X250765Y292210D01*
X250777Y292225D01*
X250790Y292256D01*
X250830Y292329D01*
X251081Y292934D01*
X253725Y295578D01*
X257179Y297009D01*
X260918Y297009D01*
X264372Y295578D01*
X267016Y292934D01*
X268447Y289480D01*
X268447Y270501D01*
X267016Y267046D01*
X264922Y264952D01*
X264880Y264894D01*
X264831Y264842D01*
X264809Y264795D01*
X264779Y264753D01*
X264758Y264684D01*
X264727Y264619D01*
X264722Y264567D01*
X264706Y264517D01*
X264708Y264446D01*
X264700Y264375D01*
X264711Y264324D01*
X264713Y264272D01*
X264737Y264204D01*
X264753Y264134D01*
X264779Y264089D01*
X264797Y264041D01*
X264842Y263985D01*
X264879Y263923D01*
X264918Y263889D01*
X264951Y263849D01*
X265011Y263810D01*
X265066Y263763D01*
X265114Y263744D01*
X265158Y263716D01*
X265227Y263698D01*
X265294Y263671D01*
X265365Y263663D01*
X265396Y263655D01*
X265420Y263657D01*
X265461Y263653D01*
X278036Y263653D01*
X278107Y263664D01*
G37*
%LPC*%
G36*
X642775Y465657D02*
X642775Y465657D01*
X639534Y466999D01*
X637053Y469480D01*
X635710Y472721D01*
X635710Y475361D01*
X635707Y475381D01*
X635709Y475400D01*
X635687Y475502D01*
X635671Y475604D01*
X635661Y475621D01*
X635657Y475641D01*
X635604Y475730D01*
X635556Y475821D01*
X635541Y475835D01*
X635531Y475852D01*
X635452Y475919D01*
X635377Y475991D01*
X635359Y475999D01*
X635344Y476012D01*
X635248Y476051D01*
X635154Y476094D01*
X635134Y476096D01*
X635116Y476104D01*
X634949Y476122D01*
X386035Y476122D01*
X385970Y476112D01*
X385905Y476111D01*
X385824Y476088D01*
X385792Y476083D01*
X385775Y476073D01*
X385743Y476064D01*
X383737Y475233D01*
X381438Y475233D01*
X379314Y476113D01*
X377688Y477739D01*
X376808Y479863D01*
X376808Y482162D01*
X377688Y484286D01*
X379314Y485912D01*
X381438Y486792D01*
X383737Y486792D01*
X385861Y485912D01*
X387487Y484286D01*
X387938Y483198D01*
X388000Y483098D01*
X388059Y482998D01*
X388064Y482994D01*
X388067Y482989D01*
X388158Y482914D01*
X388246Y482838D01*
X388252Y482836D01*
X388257Y482832D01*
X388365Y482790D01*
X388474Y482746D01*
X388482Y482745D01*
X388486Y482744D01*
X388505Y482743D01*
X388641Y482728D01*
X641256Y482728D01*
X641320Y482738D01*
X641386Y482739D01*
X641466Y482762D01*
X641498Y482767D01*
X641516Y482777D01*
X641547Y482786D01*
X642775Y483294D01*
X646283Y483294D01*
X649525Y481952D01*
X652005Y479471D01*
X653348Y476230D01*
X653348Y472721D01*
X652005Y469480D01*
X649525Y466999D01*
X646283Y465657D01*
X642775Y465657D01*
G37*
%LPD*%
%LPC*%
G36*
X155579Y262972D02*
X155579Y262972D01*
X152125Y264402D01*
X149481Y267046D01*
X148050Y270501D01*
X148050Y289480D01*
X149481Y292934D01*
X152125Y295578D01*
X155579Y297009D01*
X159318Y297009D01*
X162772Y295578D01*
X165416Y292934D01*
X166847Y289480D01*
X166847Y270501D01*
X165416Y267046D01*
X162772Y264402D01*
X159318Y262972D01*
X155579Y262972D01*
G37*
%LPD*%
%LPC*%
G36*
X79379Y262972D02*
X79379Y262972D01*
X75925Y264402D01*
X73281Y267046D01*
X71850Y270501D01*
X71850Y289480D01*
X73281Y292934D01*
X75925Y295578D01*
X79379Y297009D01*
X83118Y297009D01*
X86572Y295578D01*
X89216Y292934D01*
X90647Y289480D01*
X90647Y270501D01*
X89216Y267046D01*
X86572Y264402D01*
X83118Y262972D01*
X79379Y262972D01*
G37*
%LPD*%
%LPC*%
G36*
X104779Y262972D02*
X104779Y262972D01*
X101325Y264402D01*
X98681Y267046D01*
X97250Y270501D01*
X97250Y289480D01*
X98681Y292934D01*
X101325Y295578D01*
X104779Y297009D01*
X108518Y297009D01*
X111972Y295578D01*
X114616Y292934D01*
X116047Y289480D01*
X116047Y270501D01*
X114616Y267046D01*
X111972Y264402D01*
X108518Y262972D01*
X104779Y262972D01*
G37*
%LPD*%
%LPC*%
G36*
X130179Y262972D02*
X130179Y262972D01*
X126725Y264402D01*
X124081Y267046D01*
X122650Y270501D01*
X122650Y289480D01*
X124081Y292934D01*
X126725Y295578D01*
X130179Y297009D01*
X133918Y297009D01*
X137372Y295578D01*
X140016Y292934D01*
X141447Y289480D01*
X141447Y270501D01*
X140016Y267046D01*
X137372Y264402D01*
X133918Y262972D01*
X130179Y262972D01*
G37*
%LPD*%
%LPC*%
G36*
X53979Y262972D02*
X53979Y262972D01*
X50525Y264402D01*
X47881Y267046D01*
X46450Y270501D01*
X46450Y289480D01*
X47881Y292934D01*
X50525Y295578D01*
X53979Y297009D01*
X57718Y297009D01*
X61172Y295578D01*
X63816Y292934D01*
X65247Y289480D01*
X65247Y270501D01*
X63816Y267046D01*
X61172Y264402D01*
X57718Y262972D01*
X53979Y262972D01*
G37*
%LPD*%
%LPC*%
G36*
X256456Y441898D02*
X256456Y441898D01*
X252908Y443367D01*
X250193Y446083D01*
X248723Y449630D01*
X248723Y453471D01*
X250193Y457018D01*
X252908Y459734D01*
X256456Y461203D01*
X260296Y461203D01*
X263844Y459734D01*
X266559Y457018D01*
X268029Y453471D01*
X268029Y449630D01*
X266559Y446083D01*
X263844Y443367D01*
X260296Y441898D01*
X256456Y441898D01*
G37*
%LPD*%
%LPC*%
G36*
X535856Y441898D02*
X535856Y441898D01*
X532308Y443367D01*
X529593Y446083D01*
X528123Y449630D01*
X528123Y453471D01*
X529593Y457018D01*
X532308Y459734D01*
X535856Y461203D01*
X539696Y461203D01*
X543244Y459734D01*
X545959Y457018D01*
X547429Y453471D01*
X547429Y449630D01*
X545959Y446083D01*
X543244Y443367D01*
X539696Y441898D01*
X535856Y441898D01*
G37*
%LPD*%
%LPC*%
G36*
X485056Y441898D02*
X485056Y441898D01*
X481508Y443367D01*
X478793Y446083D01*
X477323Y449630D01*
X477323Y453471D01*
X478793Y457018D01*
X481508Y459734D01*
X485056Y461203D01*
X488896Y461203D01*
X492444Y459734D01*
X495159Y457018D01*
X496629Y453471D01*
X496629Y449630D01*
X495159Y446083D01*
X492444Y443367D01*
X488896Y441898D01*
X485056Y441898D01*
G37*
%LPD*%
%LPC*%
G36*
X383456Y441898D02*
X383456Y441898D01*
X379908Y443367D01*
X377193Y446083D01*
X375723Y449630D01*
X375723Y453471D01*
X377193Y457018D01*
X379908Y459734D01*
X383456Y461203D01*
X387296Y461203D01*
X390844Y459734D01*
X393559Y457018D01*
X395029Y453471D01*
X395029Y449630D01*
X393559Y446083D01*
X390844Y443367D01*
X387296Y441898D01*
X383456Y441898D01*
G37*
%LPD*%
%LPC*%
G36*
X408856Y441898D02*
X408856Y441898D01*
X405308Y443367D01*
X402593Y446083D01*
X401123Y449630D01*
X401123Y453471D01*
X402593Y457018D01*
X405308Y459734D01*
X408856Y461203D01*
X412696Y461203D01*
X416244Y459734D01*
X418959Y457018D01*
X420429Y453471D01*
X420429Y449630D01*
X418959Y446083D01*
X416244Y443367D01*
X412696Y441898D01*
X408856Y441898D01*
G37*
%LPD*%
%LPC*%
G36*
X459656Y441898D02*
X459656Y441898D01*
X456108Y443367D01*
X453393Y446083D01*
X451923Y449630D01*
X451923Y453471D01*
X453393Y457018D01*
X456108Y459734D01*
X459656Y461203D01*
X463496Y461203D01*
X467044Y459734D01*
X469759Y457018D01*
X471229Y453471D01*
X471229Y449630D01*
X469759Y446083D01*
X467044Y443367D01*
X463496Y441898D01*
X459656Y441898D01*
G37*
%LPD*%
%LPC*%
G36*
X358056Y441898D02*
X358056Y441898D01*
X354508Y443367D01*
X351793Y446083D01*
X350323Y449630D01*
X350323Y453471D01*
X351793Y457018D01*
X354508Y459734D01*
X358056Y461203D01*
X361896Y461203D01*
X365444Y459734D01*
X368159Y457018D01*
X369629Y453471D01*
X369629Y449630D01*
X368159Y446083D01*
X365444Y443367D01*
X361896Y441898D01*
X358056Y441898D01*
G37*
%LPD*%
%LPC*%
G36*
X307256Y441898D02*
X307256Y441898D01*
X303708Y443367D01*
X300993Y446083D01*
X299523Y449630D01*
X299523Y453471D01*
X300993Y457018D01*
X303708Y459734D01*
X307256Y461203D01*
X311096Y461203D01*
X314644Y459734D01*
X317359Y457018D01*
X318829Y453471D01*
X318829Y449630D01*
X317359Y446083D01*
X314644Y443367D01*
X311096Y441898D01*
X307256Y441898D01*
G37*
%LPD*%
%LPC*%
G36*
X510456Y441898D02*
X510456Y441898D01*
X506908Y443367D01*
X504193Y446083D01*
X502723Y449630D01*
X502723Y453471D01*
X504193Y457018D01*
X506908Y459734D01*
X510456Y461203D01*
X514296Y461203D01*
X517844Y459734D01*
X520559Y457018D01*
X522029Y453471D01*
X522029Y449630D01*
X520559Y446083D01*
X517844Y443367D01*
X514296Y441898D01*
X510456Y441898D01*
G37*
%LPD*%
%LPC*%
G36*
X281856Y441898D02*
X281856Y441898D01*
X278308Y443367D01*
X275593Y446083D01*
X274123Y449630D01*
X274123Y453471D01*
X275593Y457018D01*
X278308Y459734D01*
X281856Y461203D01*
X285696Y461203D01*
X289244Y459734D01*
X291959Y457018D01*
X293429Y453471D01*
X293429Y449630D01*
X291959Y446083D01*
X289244Y443367D01*
X285696Y441898D01*
X281856Y441898D01*
G37*
%LPD*%
%LPC*%
G36*
X434256Y441898D02*
X434256Y441898D01*
X430708Y443367D01*
X427993Y446083D01*
X426523Y449630D01*
X426523Y453471D01*
X427993Y457018D01*
X430708Y459734D01*
X434256Y461203D01*
X438096Y461203D01*
X441644Y459734D01*
X444359Y457018D01*
X445829Y453471D01*
X445829Y449630D01*
X444359Y446083D01*
X441644Y443367D01*
X438096Y441898D01*
X434256Y441898D01*
G37*
%LPD*%
%LPC*%
G36*
X154856Y238698D02*
X154856Y238698D01*
X151308Y240167D01*
X148593Y242883D01*
X147123Y246430D01*
X147123Y250271D01*
X148593Y253818D01*
X151308Y256534D01*
X154856Y258003D01*
X158696Y258003D01*
X162244Y256534D01*
X164959Y253818D01*
X166429Y250271D01*
X166429Y246430D01*
X164959Y242883D01*
X162244Y240167D01*
X158696Y238698D01*
X154856Y238698D01*
G37*
%LPD*%
%LPC*%
G36*
X205656Y238698D02*
X205656Y238698D01*
X202108Y240167D01*
X199393Y242883D01*
X197923Y246430D01*
X197923Y250271D01*
X199393Y253818D01*
X202108Y256534D01*
X205656Y258003D01*
X209496Y258003D01*
X213044Y256534D01*
X215759Y253818D01*
X217229Y250271D01*
X217229Y246430D01*
X215759Y242883D01*
X213044Y240167D01*
X209496Y238698D01*
X205656Y238698D01*
G37*
%LPD*%
%LPC*%
G36*
X668175Y478357D02*
X668175Y478357D01*
X664934Y479699D01*
X662453Y482180D01*
X661110Y485421D01*
X661110Y488930D01*
X662453Y492171D01*
X664934Y494652D01*
X668175Y495994D01*
X671683Y495994D01*
X674925Y494652D01*
X677405Y492171D01*
X678748Y488930D01*
X678748Y485421D01*
X677405Y482180D01*
X674925Y479699D01*
X671683Y478357D01*
X668175Y478357D01*
G37*
%LPD*%
%LPC*%
G36*
X668175Y452957D02*
X668175Y452957D01*
X664934Y454299D01*
X662453Y456780D01*
X661110Y460021D01*
X661110Y463530D01*
X662453Y466771D01*
X664934Y469252D01*
X668175Y470594D01*
X671683Y470594D01*
X674925Y469252D01*
X677405Y466771D01*
X678748Y463530D01*
X678748Y460021D01*
X677405Y456780D01*
X674925Y454299D01*
X671683Y452957D01*
X668175Y452957D01*
G37*
%LPD*%
%LPC*%
G36*
X564378Y316387D02*
X564378Y316387D01*
X559467Y321297D01*
X559467Y328242D01*
X564378Y333152D01*
X571322Y333152D01*
X576233Y328242D01*
X576233Y321297D01*
X571322Y316387D01*
X564378Y316387D01*
G37*
%LPD*%
G36*
X556343Y263656D02*
X556343Y263656D01*
X556363Y263654D01*
X556464Y263676D01*
X556566Y263692D01*
X556584Y263702D01*
X556603Y263706D01*
X556692Y263759D01*
X556784Y263808D01*
X556797Y263822D01*
X556814Y263832D01*
X556882Y263911D01*
X556953Y263986D01*
X556961Y264004D01*
X556974Y264019D01*
X557013Y264115D01*
X557057Y264209D01*
X557059Y264229D01*
X557066Y264247D01*
X557085Y264414D01*
X557085Y275336D01*
X557082Y275356D01*
X557084Y275375D01*
X557062Y275477D01*
X557045Y275579D01*
X557036Y275596D01*
X557031Y275616D01*
X556978Y275705D01*
X556930Y275796D01*
X556916Y275810D01*
X556905Y275827D01*
X556827Y275894D01*
X556752Y275966D01*
X556734Y275974D01*
X556718Y275987D01*
X556622Y276026D01*
X556529Y276069D01*
X556509Y276071D01*
X556490Y276079D01*
X556324Y276097D01*
X548608Y276097D01*
X548589Y276094D01*
X548569Y276096D01*
X548468Y276074D01*
X548366Y276058D01*
X548348Y276048D01*
X548329Y276044D01*
X548240Y275991D01*
X548148Y275942D01*
X548135Y275928D01*
X548118Y275918D01*
X548050Y275839D01*
X547979Y275764D01*
X547971Y275746D01*
X547958Y275731D01*
X547919Y275635D01*
X547875Y275541D01*
X547873Y275521D01*
X547866Y275503D01*
X547847Y275336D01*
X547847Y270501D01*
X546416Y267046D01*
X544322Y264952D01*
X544280Y264894D01*
X544231Y264842D01*
X544209Y264795D01*
X544179Y264753D01*
X544158Y264684D01*
X544127Y264619D01*
X544122Y264567D01*
X544106Y264517D01*
X544108Y264446D01*
X544100Y264375D01*
X544111Y264324D01*
X544113Y264272D01*
X544137Y264204D01*
X544153Y264134D01*
X544179Y264089D01*
X544197Y264041D01*
X544242Y263985D01*
X544279Y263923D01*
X544318Y263889D01*
X544351Y263849D01*
X544411Y263810D01*
X544466Y263763D01*
X544514Y263744D01*
X544558Y263716D01*
X544627Y263698D01*
X544694Y263671D01*
X544765Y263663D01*
X544796Y263655D01*
X544820Y263657D01*
X544861Y263653D01*
X556324Y263653D01*
X556343Y263656D01*
G37*
G36*
X751651Y512075D02*
X751651Y512075D01*
X751677Y512073D01*
X751771Y512101D01*
X751866Y512121D01*
X751888Y512135D01*
X751913Y512142D01*
X751993Y512198D01*
X752077Y512247D01*
X752094Y512267D01*
X752115Y512282D01*
X752174Y512360D01*
X752237Y512434D01*
X752247Y512459D01*
X752262Y512480D01*
X752292Y512572D01*
X752329Y512663D01*
X752332Y512695D01*
X752338Y512714D01*
X752338Y512747D01*
X752347Y512829D01*
X752347Y520700D01*
X752343Y520726D01*
X752344Y520775D01*
X752269Y521530D01*
X752262Y521558D01*
X752262Y521586D01*
X752215Y521747D01*
X751637Y523143D01*
X751602Y523199D01*
X751576Y523259D01*
X751524Y523324D01*
X751507Y523352D01*
X751492Y523365D01*
X751471Y523390D01*
X750403Y524459D01*
X750350Y524497D01*
X750303Y524543D01*
X750230Y524583D01*
X750203Y524603D01*
X750185Y524608D01*
X750156Y524624D01*
X748759Y525202D01*
X748732Y525209D01*
X748707Y525222D01*
X748543Y525257D01*
X747787Y525331D01*
X747761Y525329D01*
X747713Y525335D01*
X739572Y525335D01*
X739476Y525319D01*
X739379Y525310D01*
X739355Y525299D01*
X739329Y525295D01*
X739243Y525250D01*
X739154Y525210D01*
X739135Y525192D01*
X739112Y525180D01*
X739045Y525109D01*
X738973Y525043D01*
X738960Y525021D01*
X738942Y525002D01*
X738901Y524913D01*
X738854Y524828D01*
X738850Y524802D01*
X738839Y524779D01*
X738828Y524682D01*
X738810Y524586D01*
X738814Y524560D01*
X738811Y524534D01*
X738832Y524439D01*
X738846Y524343D01*
X738858Y524319D01*
X738864Y524294D01*
X738914Y524210D01*
X738958Y524123D01*
X738976Y524105D01*
X738990Y524083D01*
X739064Y524019D01*
X739133Y523951D01*
X739162Y523935D01*
X739177Y523923D01*
X739207Y523910D01*
X739280Y523870D01*
X743932Y521944D01*
X749147Y516728D01*
X750883Y512538D01*
X750934Y512455D01*
X750980Y512369D01*
X750999Y512351D01*
X751012Y512329D01*
X751087Y512267D01*
X751158Y512200D01*
X751182Y512189D01*
X751202Y512172D01*
X751293Y512137D01*
X751381Y512096D01*
X751407Y512093D01*
X751431Y512084D01*
X751529Y512080D01*
X751625Y512069D01*
X751651Y512075D01*
G37*
G36*
X252707Y263664D02*
X252707Y263664D01*
X252779Y263666D01*
X252828Y263684D01*
X252879Y263692D01*
X252943Y263726D01*
X253010Y263751D01*
X253051Y263783D01*
X253097Y263808D01*
X253146Y263860D01*
X253202Y263904D01*
X253230Y263948D01*
X253266Y263986D01*
X253296Y264051D01*
X253335Y264111D01*
X253348Y264162D01*
X253370Y264209D01*
X253377Y264280D01*
X253395Y264350D01*
X253391Y264402D01*
X253397Y264453D01*
X253381Y264524D01*
X253376Y264595D01*
X253355Y264643D01*
X253344Y264694D01*
X253308Y264755D01*
X253280Y264821D01*
X253235Y264877D01*
X253218Y264905D01*
X253200Y264920D01*
X253175Y264952D01*
X251081Y267046D01*
X250830Y267652D01*
X250778Y267735D01*
X250733Y267821D01*
X250714Y267839D01*
X250700Y267861D01*
X250625Y267923D01*
X250555Y267990D01*
X250531Y268001D01*
X250511Y268018D01*
X250420Y268053D01*
X250331Y268094D01*
X250305Y268097D01*
X250281Y268106D01*
X250184Y268110D01*
X250087Y268121D01*
X250062Y268115D01*
X250035Y268116D01*
X249942Y268089D01*
X249847Y268069D01*
X249824Y268055D01*
X249799Y268048D01*
X249719Y267992D01*
X249636Y267942D01*
X249619Y267923D01*
X249597Y267908D01*
X249539Y267830D01*
X249476Y267756D01*
X249466Y267731D01*
X249450Y267710D01*
X249420Y267618D01*
X249384Y267527D01*
X249380Y267495D01*
X249374Y267476D01*
X249374Y267443D01*
X249365Y267361D01*
X249365Y264414D01*
X249368Y264394D01*
X249366Y264375D01*
X249388Y264273D01*
X249405Y264171D01*
X249414Y264154D01*
X249419Y264134D01*
X249472Y264045D01*
X249520Y263954D01*
X249534Y263940D01*
X249545Y263923D01*
X249623Y263856D01*
X249698Y263784D01*
X249716Y263776D01*
X249732Y263763D01*
X249828Y263724D01*
X249921Y263681D01*
X249941Y263679D01*
X249960Y263671D01*
X250126Y263653D01*
X252636Y263653D01*
X252707Y263664D01*
G37*
D10*
X258376Y451551D03*
X283776Y451551D03*
X309176Y451551D03*
X334576Y451551D03*
X359976Y451551D03*
X385376Y451551D03*
X410776Y451551D03*
X436176Y451551D03*
X461576Y451551D03*
X486976Y451551D03*
X512376Y451551D03*
X537776Y451551D03*
X537776Y248351D03*
X512376Y248351D03*
X486976Y248351D03*
X461576Y248351D03*
X436176Y248351D03*
X410776Y248351D03*
X385376Y248351D03*
X359976Y248351D03*
X334576Y248351D03*
X309176Y248351D03*
X283776Y248351D03*
X258376Y248351D03*
X232976Y248351D03*
X207576Y248351D03*
X182176Y248351D03*
X156776Y248351D03*
D11*
X514708Y384939D03*
X489308Y384939D03*
X463908Y384939D03*
X438508Y384939D03*
X413108Y384939D03*
X387708Y384939D03*
X362308Y384939D03*
X336908Y384939D03*
X311508Y384939D03*
X286108Y384939D03*
D12*
X543327Y401011D03*
X543327Y324811D03*
X567850Y400969D03*
X567850Y324769D03*
D13*
X160660Y502875D02*
X160660Y518115D01*
X186060Y518115D02*
X186060Y502875D01*
X211460Y502875D02*
X211460Y518115D01*
X236860Y518115D02*
X236860Y502875D01*
X262260Y502875D02*
X262260Y518115D01*
X287660Y518115D02*
X287660Y502875D01*
X313060Y502875D02*
X313060Y518115D01*
X338460Y518115D02*
X338460Y502875D01*
X363860Y502875D02*
X363860Y518115D01*
X389260Y518115D02*
X389260Y502875D01*
X414660Y502875D02*
X414660Y518115D01*
X440060Y518115D02*
X440060Y502875D01*
X465460Y502875D02*
X465460Y518115D01*
X490860Y518115D02*
X490860Y502875D01*
X516260Y502875D02*
X516260Y518115D01*
X541660Y518115D02*
X541660Y502875D01*
X55849Y287610D02*
X55849Y272370D01*
X81249Y272370D02*
X81249Y287610D01*
X106649Y287610D02*
X106649Y272370D01*
X132049Y272370D02*
X132049Y287610D01*
X157449Y287610D02*
X157449Y272370D01*
X182849Y272370D02*
X182849Y287610D01*
X208249Y287610D02*
X208249Y272370D01*
X233649Y272370D02*
X233649Y287610D01*
X259049Y287610D02*
X259049Y272370D01*
X284449Y272370D02*
X284449Y287610D01*
X309849Y287610D02*
X309849Y272370D01*
X335249Y272370D02*
X335249Y287610D01*
X360649Y287610D02*
X360649Y272370D01*
X386049Y272370D02*
X386049Y287610D01*
X411449Y287610D02*
X411449Y272370D01*
X436849Y272370D02*
X436849Y287610D01*
X462249Y287610D02*
X462249Y272370D01*
X487649Y272370D02*
X487649Y287610D01*
X513049Y287610D02*
X513049Y272370D01*
X538449Y272370D02*
X538449Y287610D01*
D14*
X669929Y487176D03*
X669929Y461776D03*
X669929Y436376D03*
X644529Y474476D03*
X644529Y449076D03*
D15*
X644529Y423676D03*
D16*
X644525Y423863D02*
X627063Y423863D01*
X588963Y385763D01*
X588963Y307975D01*
X560388Y279400D01*
X538163Y279400D01*
X560388Y279400D02*
X560388Y260350D01*
X246063Y260350D01*
X514350Y382588D02*
X514350Y400050D01*
X568325Y400050D01*
X514350Y400050D02*
X195263Y400050D01*
D17*
X514350Y400050D03*
D16*
X195263Y400050D02*
X195263Y258763D01*
X184150Y247650D01*
X182563Y247650D01*
X410629Y325345D02*
X541697Y325345D01*
X410629Y325345D02*
X410629Y276746D01*
D17*
X501650Y325438D03*
D18*
X438150Y325438D03*
D17*
X334963Y466725D03*
D16*
X625475Y468313D02*
X642938Y450850D01*
X625475Y468313D02*
X336550Y468313D01*
X334963Y466725D01*
D17*
X382588Y481013D03*
D16*
X384175Y479425D02*
X646113Y479425D01*
X384175Y479425D02*
X382588Y481013D01*
D17*
X409575Y420688D03*
D19*
X600075Y420688D01*
X615950Y436563D01*
X671513Y436563D01*
D16*
X488950Y347663D02*
X360363Y347663D01*
X360363Y279400D01*
X246063Y260350D02*
X246063Y347663D01*
X360363Y347663D01*
X488950Y347663D02*
X488950Y385763D01*
X234950Y249238D02*
X233363Y249238D01*
X234950Y249238D02*
X246063Y260350D01*
M02*
