G04 EAGLE Gerber RS-274X export*
G75*
%MOMM*%
%FSLAX34Y34*%
%LPD*%
%INSoldermask Bottom*%
%IPPOS*%
%AMOC8*
5,1,8,0,0,1.08239X$1,22.5*%
G01*
%ADD10C,1.676400*%
%ADD11C,1.879600*%
%ADD12P,1.539592X8X292.500000*%
%ADD13C,1.625600*%
%ADD14C,1.509600*%
%ADD15C,3.301600*%
%ADD16R,1.509600X1.509600*%


D10*
X258376Y451551D03*
X283776Y451551D03*
X309176Y451551D03*
X334576Y451551D03*
X359976Y451551D03*
X385376Y451551D03*
X410776Y451551D03*
X436176Y451551D03*
X461576Y451551D03*
X486976Y451551D03*
X512376Y451551D03*
X537776Y451551D03*
X537776Y248351D03*
X512376Y248351D03*
X486976Y248351D03*
X461576Y248351D03*
X436176Y248351D03*
X410776Y248351D03*
X385376Y248351D03*
X359976Y248351D03*
X334576Y248351D03*
X309176Y248351D03*
X283776Y248351D03*
X258376Y248351D03*
X232976Y248351D03*
X207576Y248351D03*
X182176Y248351D03*
X156776Y248351D03*
D11*
X514708Y384939D03*
X489308Y384939D03*
X463908Y384939D03*
X438508Y384939D03*
X413108Y384939D03*
X387708Y384939D03*
X362308Y384939D03*
X336908Y384939D03*
X311508Y384939D03*
X286108Y384939D03*
D12*
X543327Y401011D03*
X543327Y324811D03*
X567850Y400969D03*
X567850Y324769D03*
D13*
X160660Y502875D02*
X160660Y518115D01*
X186060Y518115D02*
X186060Y502875D01*
X211460Y502875D02*
X211460Y518115D01*
X236860Y518115D02*
X236860Y502875D01*
X262260Y502875D02*
X262260Y518115D01*
X287660Y518115D02*
X287660Y502875D01*
X313060Y502875D02*
X313060Y518115D01*
X338460Y518115D02*
X338460Y502875D01*
X363860Y502875D02*
X363860Y518115D01*
X389260Y518115D02*
X389260Y502875D01*
X414660Y502875D02*
X414660Y518115D01*
X440060Y518115D02*
X440060Y502875D01*
X465460Y502875D02*
X465460Y518115D01*
X490860Y518115D02*
X490860Y502875D01*
X516260Y502875D02*
X516260Y518115D01*
X541660Y518115D02*
X541660Y502875D01*
X55849Y287610D02*
X55849Y272370D01*
X81249Y272370D02*
X81249Y287610D01*
X106649Y287610D02*
X106649Y272370D01*
X132049Y272370D02*
X132049Y287610D01*
X157449Y287610D02*
X157449Y272370D01*
X182849Y272370D02*
X182849Y287610D01*
X208249Y287610D02*
X208249Y272370D01*
X233649Y272370D02*
X233649Y287610D01*
X259049Y287610D02*
X259049Y272370D01*
X284449Y272370D02*
X284449Y287610D01*
X309849Y287610D02*
X309849Y272370D01*
X335249Y272370D02*
X335249Y287610D01*
X360649Y287610D02*
X360649Y272370D01*
X386049Y272370D02*
X386049Y287610D01*
X411449Y287610D02*
X411449Y272370D01*
X436849Y272370D02*
X436849Y287610D01*
X462249Y287610D02*
X462249Y272370D01*
X487649Y272370D02*
X487649Y287610D01*
X513049Y287610D02*
X513049Y272370D01*
X538449Y272370D02*
X538449Y287610D01*
D14*
X669929Y487176D03*
D15*
X733429Y404626D03*
X733429Y506226D03*
D14*
X669929Y461776D03*
X669929Y436376D03*
X644529Y474476D03*
X644529Y449076D03*
D16*
X644529Y423676D03*
M02*
