M48
;GenerationSoftware,Autodesk,EAGLE,9.5.1*%
;CreationDate,2020-04-09T22:53:03Z*%
FMAT,2
ICI,OFF
METRIC,TZ,000.000
T7C0.350
T6C0.394
T5C0.813
T4C0.900
T3C1.000
T2C1.016
T1C3.200
%
G90
M71
T1
X73343Y40463
X73343Y50623
T2
X28766Y51050
X26226Y51050
X23686Y51050
X21146Y51050
X18606Y51050
X33846Y51050
X30985Y27999
X16066Y51050
X33525Y27999
X41145Y27999
X36065Y27999
X38605Y27999
X43685Y27999
X46225Y27999
X48765Y27999
X51305Y27999
X44006Y51050
X53845Y27999
X31306Y51050
X36386Y51050
X38926Y51050
X41466Y51050
X8125Y27999
X46546Y51050
X49086Y51050
X51626Y51050
X54166Y51050
X5585Y27999
X10665Y27999
X13205Y27999
X15745Y27999
X18285Y27999
X20825Y27999
X23365Y27999
X25905Y27999
X28445Y27999
T3
X31151Y38494
X28611Y38494
X33691Y38494
X51471Y38494
X48931Y38494
X46391Y38494
X43851Y38494
X41311Y38494
X36231Y38494
X38771Y38494
T4
X25838Y45155
X28378Y45155
X30918Y45155
X35998Y45155
X38538Y45155
X41078Y45155
X43618Y45155
X46158Y45155
X48698Y45155
X51238Y45155
X53778Y45155
X53778Y24835
X51238Y24835
X46158Y24835
X43618Y24835
X41078Y24835
X38538Y24835
X35998Y24835
X33458Y24835
X30918Y24835
X28378Y24835
X25838Y24835
X15678Y24835
X23298Y24835
X20758Y24835
X18218Y24835
X48698Y24835
X33458Y45155
X66993Y48718
X66993Y46178
X66993Y43638
X64453Y47448
X64453Y44908
X64453Y42368
T5
X54333Y32481
X54333Y40101
X56785Y40097
X56785Y32477
T6
X38259Y48101
X33496Y46672
X50165Y32544
X51435Y40005
X40958Y42069
T7
X43815Y32544
M30