G04 EAGLE Gerber RS-274X export*
G75*
%MOMM*%
%FSLAX34Y34*%
%LPD*%
%INSolderpaste Top*%
%IPPOS*%
%AMOC8*
5,1,8,0,0,1.08239X$1,22.5*%
G01*
%ADD10C,0.304800*%
%ADD11R,1.500000X1.500000*%
%ADD12R,1.300000X1.900000*%
%ADD13R,1.300000X1.100000*%
%ADD14R,0.900000X0.700000*%
%ADD15R,0.700000X0.900000*%
%ADD16C,0.088500*%

G36*
X1478270Y167939D02*
X1478270Y167939D01*
X1478272Y167938D01*
X1478315Y167958D01*
X1478359Y167976D01*
X1478359Y167978D01*
X1478361Y167979D01*
X1478394Y168064D01*
X1478394Y173564D01*
X1478393Y173566D01*
X1478394Y173568D01*
X1478374Y173611D01*
X1478356Y173655D01*
X1478354Y173655D01*
X1478353Y173657D01*
X1478268Y173690D01*
X1476768Y173690D01*
X1476766Y173689D01*
X1476764Y173690D01*
X1476721Y173670D01*
X1476677Y173652D01*
X1476677Y173650D01*
X1476675Y173649D01*
X1476642Y173564D01*
X1476642Y168064D01*
X1476643Y168062D01*
X1476642Y168060D01*
X1476662Y168017D01*
X1476680Y167973D01*
X1476682Y167973D01*
X1476683Y167971D01*
X1476768Y167938D01*
X1478268Y167938D01*
X1478270Y167939D01*
G37*
G36*
X1487270Y169939D02*
X1487270Y169939D01*
X1487272Y169938D01*
X1487315Y169958D01*
X1487359Y169976D01*
X1487359Y169978D01*
X1487361Y169979D01*
X1487394Y170064D01*
X1487394Y171564D01*
X1487393Y171566D01*
X1487394Y171568D01*
X1487374Y171611D01*
X1487356Y171655D01*
X1487354Y171655D01*
X1487353Y171657D01*
X1487268Y171690D01*
X1481768Y171690D01*
X1481766Y171689D01*
X1481764Y171690D01*
X1481721Y171670D01*
X1481677Y171652D01*
X1481677Y171650D01*
X1481675Y171649D01*
X1481642Y171564D01*
X1481642Y170064D01*
X1481643Y170062D01*
X1481642Y170060D01*
X1481662Y170017D01*
X1481680Y169973D01*
X1481682Y169973D01*
X1481683Y169971D01*
X1481768Y169938D01*
X1487268Y169938D01*
X1487270Y169939D01*
G37*
G36*
X1473270Y169939D02*
X1473270Y169939D01*
X1473272Y169938D01*
X1473315Y169958D01*
X1473359Y169976D01*
X1473359Y169978D01*
X1473361Y169979D01*
X1473394Y170064D01*
X1473394Y171564D01*
X1473393Y171566D01*
X1473394Y171568D01*
X1473374Y171611D01*
X1473356Y171655D01*
X1473354Y171655D01*
X1473353Y171657D01*
X1473268Y171690D01*
X1467768Y171690D01*
X1467766Y171689D01*
X1467764Y171690D01*
X1467721Y171670D01*
X1467677Y171652D01*
X1467677Y171650D01*
X1467675Y171649D01*
X1467642Y171564D01*
X1467642Y170064D01*
X1467643Y170062D01*
X1467642Y170060D01*
X1467662Y170017D01*
X1467680Y169973D01*
X1467682Y169973D01*
X1467683Y169971D01*
X1467768Y169938D01*
X1473268Y169938D01*
X1473270Y169939D01*
G37*
G36*
X1473270Y165939D02*
X1473270Y165939D01*
X1473272Y165938D01*
X1473315Y165958D01*
X1473359Y165976D01*
X1473359Y165978D01*
X1473361Y165979D01*
X1473394Y166064D01*
X1473394Y167564D01*
X1473393Y167566D01*
X1473394Y167568D01*
X1473374Y167611D01*
X1473356Y167655D01*
X1473354Y167655D01*
X1473353Y167657D01*
X1473268Y167690D01*
X1467768Y167690D01*
X1467766Y167689D01*
X1467764Y167690D01*
X1467721Y167670D01*
X1467677Y167652D01*
X1467677Y167650D01*
X1467675Y167649D01*
X1467642Y167564D01*
X1467642Y166064D01*
X1467643Y166062D01*
X1467642Y166060D01*
X1467662Y166017D01*
X1467680Y165973D01*
X1467682Y165973D01*
X1467683Y165971D01*
X1467768Y165938D01*
X1473268Y165938D01*
X1473270Y165939D01*
G37*
G36*
X1487270Y165939D02*
X1487270Y165939D01*
X1487272Y165938D01*
X1487315Y165958D01*
X1487359Y165976D01*
X1487359Y165978D01*
X1487361Y165979D01*
X1487394Y166064D01*
X1487394Y167564D01*
X1487393Y167566D01*
X1487394Y167568D01*
X1487374Y167611D01*
X1487356Y167655D01*
X1487354Y167655D01*
X1487353Y167657D01*
X1487268Y167690D01*
X1481768Y167690D01*
X1481766Y167689D01*
X1481764Y167690D01*
X1481721Y167670D01*
X1481677Y167652D01*
X1481677Y167650D01*
X1481675Y167649D01*
X1481642Y167564D01*
X1481642Y166064D01*
X1481643Y166062D01*
X1481642Y166060D01*
X1481662Y166017D01*
X1481680Y165973D01*
X1481682Y165973D01*
X1481683Y165971D01*
X1481768Y165938D01*
X1487268Y165938D01*
X1487270Y165939D01*
G37*
G36*
X1487270Y161939D02*
X1487270Y161939D01*
X1487272Y161938D01*
X1487315Y161958D01*
X1487359Y161976D01*
X1487359Y161978D01*
X1487361Y161979D01*
X1487394Y162064D01*
X1487394Y163564D01*
X1487393Y163566D01*
X1487394Y163568D01*
X1487374Y163611D01*
X1487356Y163655D01*
X1487354Y163655D01*
X1487353Y163657D01*
X1487268Y163690D01*
X1481768Y163690D01*
X1481766Y163689D01*
X1481764Y163690D01*
X1481721Y163670D01*
X1481677Y163652D01*
X1481677Y163650D01*
X1481675Y163649D01*
X1481642Y163564D01*
X1481642Y162064D01*
X1481643Y162062D01*
X1481642Y162060D01*
X1481662Y162017D01*
X1481680Y161973D01*
X1481682Y161973D01*
X1481683Y161971D01*
X1481768Y161938D01*
X1487268Y161938D01*
X1487270Y161939D01*
G37*
G36*
X1473270Y161939D02*
X1473270Y161939D01*
X1473272Y161938D01*
X1473315Y161958D01*
X1473359Y161976D01*
X1473359Y161978D01*
X1473361Y161979D01*
X1473394Y162064D01*
X1473394Y163564D01*
X1473393Y163566D01*
X1473394Y163568D01*
X1473374Y163611D01*
X1473356Y163655D01*
X1473354Y163655D01*
X1473353Y163657D01*
X1473268Y163690D01*
X1467768Y163690D01*
X1467766Y163689D01*
X1467764Y163690D01*
X1467721Y163670D01*
X1467677Y163652D01*
X1467677Y163650D01*
X1467675Y163649D01*
X1467642Y163564D01*
X1467642Y162064D01*
X1467643Y162062D01*
X1467642Y162060D01*
X1467662Y162017D01*
X1467680Y161973D01*
X1467682Y161973D01*
X1467683Y161971D01*
X1467768Y161938D01*
X1473268Y161938D01*
X1473270Y161939D01*
G37*
G36*
X1473270Y157939D02*
X1473270Y157939D01*
X1473272Y157938D01*
X1473315Y157958D01*
X1473359Y157976D01*
X1473359Y157978D01*
X1473361Y157979D01*
X1473394Y158064D01*
X1473394Y159564D01*
X1473393Y159566D01*
X1473394Y159568D01*
X1473374Y159611D01*
X1473356Y159655D01*
X1473354Y159655D01*
X1473353Y159657D01*
X1473268Y159690D01*
X1467768Y159690D01*
X1467766Y159689D01*
X1467764Y159690D01*
X1467721Y159670D01*
X1467677Y159652D01*
X1467677Y159650D01*
X1467675Y159649D01*
X1467642Y159564D01*
X1467642Y158064D01*
X1467643Y158062D01*
X1467642Y158060D01*
X1467662Y158017D01*
X1467680Y157973D01*
X1467682Y157973D01*
X1467683Y157971D01*
X1467768Y157938D01*
X1473268Y157938D01*
X1473270Y157939D01*
G37*
G36*
X1487270Y157939D02*
X1487270Y157939D01*
X1487272Y157938D01*
X1487315Y157958D01*
X1487359Y157976D01*
X1487359Y157978D01*
X1487361Y157979D01*
X1487394Y158064D01*
X1487394Y159564D01*
X1487393Y159566D01*
X1487394Y159568D01*
X1487374Y159611D01*
X1487356Y159655D01*
X1487354Y159655D01*
X1487353Y159657D01*
X1487268Y159690D01*
X1481768Y159690D01*
X1481766Y159689D01*
X1481764Y159690D01*
X1481721Y159670D01*
X1481677Y159652D01*
X1481677Y159650D01*
X1481675Y159649D01*
X1481642Y159564D01*
X1481642Y158064D01*
X1481643Y158062D01*
X1481642Y158060D01*
X1481662Y158017D01*
X1481680Y157973D01*
X1481682Y157973D01*
X1481683Y157971D01*
X1481768Y157938D01*
X1487268Y157938D01*
X1487270Y157939D01*
G37*
G36*
X1478270Y151939D02*
X1478270Y151939D01*
X1478272Y151938D01*
X1478315Y151958D01*
X1478359Y151976D01*
X1478359Y151978D01*
X1478361Y151979D01*
X1478394Y152064D01*
X1478394Y157564D01*
X1478393Y157566D01*
X1478394Y157568D01*
X1478374Y157611D01*
X1478356Y157655D01*
X1478354Y157655D01*
X1478353Y157657D01*
X1478268Y157690D01*
X1476768Y157690D01*
X1476766Y157689D01*
X1476764Y157690D01*
X1476721Y157670D01*
X1476677Y157652D01*
X1476677Y157650D01*
X1476675Y157649D01*
X1476642Y157564D01*
X1476642Y152064D01*
X1476643Y152062D01*
X1476642Y152060D01*
X1476662Y152017D01*
X1476680Y151973D01*
X1476682Y151973D01*
X1476683Y151971D01*
X1476768Y151938D01*
X1478268Y151938D01*
X1478270Y151939D01*
G37*
G36*
X1487270Y153939D02*
X1487270Y153939D01*
X1487272Y153938D01*
X1487315Y153958D01*
X1487359Y153976D01*
X1487359Y153978D01*
X1487361Y153979D01*
X1487394Y154064D01*
X1487394Y155564D01*
X1487393Y155566D01*
X1487394Y155568D01*
X1487374Y155611D01*
X1487356Y155655D01*
X1487354Y155655D01*
X1487353Y155657D01*
X1487268Y155690D01*
X1481768Y155690D01*
X1481766Y155689D01*
X1481764Y155690D01*
X1481721Y155670D01*
X1481677Y155652D01*
X1481677Y155650D01*
X1481675Y155649D01*
X1481642Y155564D01*
X1481642Y154064D01*
X1481643Y154062D01*
X1481642Y154060D01*
X1481662Y154017D01*
X1481680Y153973D01*
X1481682Y153973D01*
X1481683Y153971D01*
X1481768Y153938D01*
X1487268Y153938D01*
X1487270Y153939D01*
G37*
G36*
X1473270Y153939D02*
X1473270Y153939D01*
X1473272Y153938D01*
X1473315Y153958D01*
X1473359Y153976D01*
X1473359Y153978D01*
X1473361Y153979D01*
X1473394Y154064D01*
X1473394Y155564D01*
X1473393Y155566D01*
X1473394Y155568D01*
X1473374Y155611D01*
X1473356Y155655D01*
X1473354Y155655D01*
X1473353Y155657D01*
X1473268Y155690D01*
X1467768Y155690D01*
X1467766Y155689D01*
X1467764Y155690D01*
X1467721Y155670D01*
X1467677Y155652D01*
X1467677Y155650D01*
X1467675Y155649D01*
X1467642Y155564D01*
X1467642Y154064D01*
X1467643Y154062D01*
X1467642Y154060D01*
X1467662Y154017D01*
X1467680Y153973D01*
X1467682Y153973D01*
X1467683Y153971D01*
X1467768Y153938D01*
X1473268Y153938D01*
X1473270Y153939D01*
G37*
D10*
X1510888Y150830D03*
X1510888Y154830D03*
X1510888Y158830D03*
X1510888Y162830D03*
X1510888Y166830D03*
X1514888Y150830D03*
X1514888Y154830D03*
X1514888Y158830D03*
X1514888Y162830D03*
X1514888Y166830D03*
X1518888Y150830D03*
X1518888Y154830D03*
X1518888Y158830D03*
X1518888Y162830D03*
X1518888Y166830D03*
X1522888Y150830D03*
X1522888Y154830D03*
X1522888Y158830D03*
X1522888Y162830D03*
X1522888Y166830D03*
D11*
X1868272Y182174D03*
X1903272Y182174D03*
X1868272Y163774D03*
X1903272Y163774D03*
D12*
X1615714Y150622D03*
D13*
X1554714Y150622D03*
D12*
X1615714Y195072D03*
D13*
X1554714Y195072D03*
D14*
X1421638Y140312D03*
X1421638Y153312D03*
D15*
X1458318Y136144D03*
X1471318Y136144D03*
D14*
X1433068Y140312D03*
X1433068Y153312D03*
X1496822Y130914D03*
X1496822Y143914D03*
X1485392Y130914D03*
X1485392Y143914D03*
D15*
X1510642Y127508D03*
X1523642Y127508D03*
X1501244Y182626D03*
X1514244Y182626D03*
X1488336Y182372D03*
X1475336Y182372D03*
D14*
X1444498Y140312D03*
X1444498Y153312D03*
D16*
X1419736Y183522D02*
X1419736Y188538D01*
X1430952Y188538D01*
X1430952Y183522D01*
X1419736Y183522D01*
X1419736Y184363D02*
X1430952Y184363D01*
X1430952Y185204D02*
X1419736Y185204D01*
X1419736Y186045D02*
X1430952Y186045D01*
X1430952Y186886D02*
X1419736Y186886D01*
X1419736Y187727D02*
X1430952Y187727D01*
X1444836Y169538D02*
X1444836Y164522D01*
X1444836Y169538D02*
X1456052Y169538D01*
X1456052Y164522D01*
X1444836Y164522D01*
X1444836Y165363D02*
X1456052Y165363D01*
X1456052Y166204D02*
X1444836Y166204D01*
X1444836Y167045D02*
X1456052Y167045D01*
X1456052Y167886D02*
X1444836Y167886D01*
X1444836Y168727D02*
X1456052Y168727D01*
X1419736Y174022D02*
X1419736Y179038D01*
X1430952Y179038D01*
X1430952Y174022D01*
X1419736Y174022D01*
X1419736Y174863D02*
X1430952Y174863D01*
X1430952Y175704D02*
X1419736Y175704D01*
X1419736Y176545D02*
X1430952Y176545D01*
X1430952Y177386D02*
X1419736Y177386D01*
X1419736Y178227D02*
X1430952Y178227D01*
X1419736Y169538D02*
X1419736Y164522D01*
X1419736Y169538D02*
X1430952Y169538D01*
X1430952Y164522D01*
X1419736Y164522D01*
X1419736Y165363D02*
X1430952Y165363D01*
X1430952Y166204D02*
X1419736Y166204D01*
X1419736Y167045D02*
X1430952Y167045D01*
X1430952Y167886D02*
X1419736Y167886D01*
X1419736Y168727D02*
X1430952Y168727D01*
X1444836Y183522D02*
X1444836Y188538D01*
X1456052Y188538D01*
X1456052Y183522D01*
X1444836Y183522D01*
X1444836Y184363D02*
X1456052Y184363D01*
X1456052Y185204D02*
X1444836Y185204D01*
X1444836Y186045D02*
X1456052Y186045D01*
X1456052Y186886D02*
X1444836Y186886D01*
X1444836Y187727D02*
X1456052Y187727D01*
M02*
