G04 EAGLE Gerber RS-274X export*
G75*
%MOMM*%
%FSLAX34Y34*%
%LPD*%
%INSoldermask Bottom*%
%IPPOS*%
%AMOC8*
5,1,8,0,0,1.08239X$1,22.5*%
G01*
%ADD10C,1.303200*%
%ADD11C,1.727200*%
%ADD12C,0.555600*%
%ADD13C,0.803200*%
%ADD14C,0.728200*%


D10*
X1277112Y167640D03*
X1902460Y129540D03*
X1902460Y208280D03*
D11*
X1378712Y209042D02*
X1378712Y193802D01*
X1353312Y193802D02*
X1353312Y209042D01*
X1327912Y209042D02*
X1327912Y193802D01*
X1302512Y193802D02*
X1302512Y209042D01*
X1277112Y209042D02*
X1277112Y193802D01*
X1277112Y144018D02*
X1277112Y128778D01*
X1302512Y128778D02*
X1302512Y144018D01*
X1327912Y144018D02*
X1327912Y128778D01*
X1353312Y128778D02*
X1353312Y144018D01*
X1378712Y144018D02*
X1378712Y128778D01*
D12*
X1459596Y148082D03*
X1493520Y150876D03*
X1407668Y150622D03*
X1514888Y158830D03*
X1514888Y162957D03*
X1514888Y154576D03*
D13*
X1400048Y133604D03*
D12*
X1534414Y158750D03*
X1464056Y166878D03*
X1464056Y158750D03*
X1464056Y154686D03*
X1531874Y143256D03*
X1500378Y170942D03*
X1505458Y141732D03*
X1464056Y162814D03*
D14*
X1554734Y139954D03*
X1520825Y195453D03*
M02*
