G04 EAGLE Gerber RS-274X export*
G75*
%MOMM*%
%FSLAX34Y34*%
%LPD*%
%INTop Copper*%
%IPPOS*%
%AMOC8*
5,1,8,0,0,1.08239X$1,22.5*%
G01*
%ADD10R,1.500000X1.500000*%
%ADD11P,1.429621X8X202.500000*%
%ADD12C,1.408000*%
%ADD13R,1.408000X1.408000*%
%ADD14C,1.524000*%
%ADD15P,2.336880X8X22.500000*%
%ADD16C,0.254000*%
%ADD17C,0.756400*%


D10*
X1254088Y317500D03*
X1289088Y317500D03*
X1254088Y292100D03*
X1289088Y292100D03*
D11*
X473075Y285750D03*
X396875Y285750D03*
X473075Y311150D03*
X396875Y311150D03*
D12*
X320675Y336550D03*
X320675Y311150D03*
X320675Y285750D03*
X346075Y323850D03*
X346075Y298450D03*
D13*
X346075Y273050D03*
D14*
X935038Y344805D02*
X935038Y360045D01*
X960438Y360045D02*
X960438Y344805D01*
X985838Y344805D02*
X985838Y360045D01*
X1011238Y360045D02*
X1011238Y344805D01*
X935038Y264795D02*
X935038Y249555D01*
X960438Y249555D02*
X960438Y264795D01*
X985838Y264795D02*
X985838Y249555D01*
X1011238Y249555D02*
X1011238Y264795D01*
D15*
X473075Y311150D03*
X473075Y285750D03*
X396875Y285750D03*
X396875Y311150D03*
X320675Y336550D03*
X346075Y323850D03*
X346075Y298450D03*
X320675Y311150D03*
X320675Y285750D03*
X346075Y273050D03*
D16*
X369888Y241300D02*
X315913Y241300D01*
X396875Y268288D02*
X396875Y285750D01*
X396875Y268288D02*
X369888Y241300D01*
X315913Y241300D02*
X293688Y263525D01*
X293688Y276225D01*
X303213Y285750D02*
X320675Y285750D01*
X303213Y285750D02*
X293688Y276225D01*
D17*
X309563Y261938D03*
D16*
X317500Y254000D02*
X361950Y254000D01*
X317500Y254000D02*
X309563Y261938D01*
X373063Y265113D02*
X373063Y296863D01*
X387350Y311150D02*
X396875Y311150D01*
X387350Y311150D02*
X373063Y296863D01*
X373063Y265113D02*
X361950Y254000D01*
X347663Y298450D02*
X346075Y298450D01*
X347663Y298450D02*
X379413Y330200D01*
X798513Y330200D01*
X871538Y257175D01*
X935038Y257175D01*
X347663Y406400D02*
X320675Y379413D01*
X320675Y336550D01*
X1254125Y304800D02*
X1254125Y290513D01*
X1254125Y304800D02*
X1254125Y317500D01*
D17*
X1254125Y304800D03*
X1216025Y342900D03*
D16*
X1152525Y406400D01*
X347663Y406400D01*
X473075Y311150D02*
X808038Y311150D01*
X915988Y203200D01*
X1103313Y203200D01*
X1249363Y349250D01*
X1271588Y349250D01*
X1289050Y331788D01*
X1289050Y317500D01*
X1257300Y195263D02*
X914400Y195263D01*
X1257300Y195263D02*
X1289050Y227013D01*
X1289050Y292100D01*
X914400Y195263D02*
X823913Y285750D01*
X473075Y285750D01*
M02*
