G04 EAGLE Gerber RS-274X export*
G75*
%MOMM*%
%FSLAX34Y34*%
%LPD*%
%INSoldermask Top*%
%IPPOS*%
%AMOC8*
5,1,8,0,0,1.08239X$1,22.5*%
G01*
%ADD10C,1.003200*%
%ADD11R,1.703200X1.703200*%
%ADD12P,1.649562X8X202.500000*%
%ADD13C,1.611200*%
%ADD14C,3.403200*%
%ADD15R,1.611200X1.611200*%
%ADD16C,1.727200*%
%ADD17P,2.556822X8X22.500000*%
%ADD18C,0.959600*%


D10*
X396875Y311150D03*
X396875Y285750D03*
X473075Y285750D03*
X473075Y311150D03*
X396875Y311150D03*
X473075Y311150D03*
X473075Y285750D03*
X396875Y285750D03*
D11*
X1254088Y317500D03*
X1289088Y317500D03*
X1254088Y292100D03*
X1289088Y292100D03*
D12*
X473075Y285750D03*
X396875Y285750D03*
X473075Y311150D03*
X396875Y311150D03*
D13*
X320675Y336550D03*
D14*
X257175Y254000D03*
X257175Y355600D03*
D13*
X320675Y311150D03*
X320675Y285750D03*
X346075Y323850D03*
X346075Y298450D03*
D15*
X346075Y273050D03*
D16*
X935038Y344805D02*
X935038Y360045D01*
X960438Y360045D02*
X960438Y344805D01*
X985838Y344805D02*
X985838Y360045D01*
X1011238Y360045D02*
X1011238Y344805D01*
X935038Y264795D02*
X935038Y249555D01*
X960438Y249555D02*
X960438Y264795D01*
X985838Y264795D02*
X985838Y249555D01*
X1011238Y249555D02*
X1011238Y264795D01*
D17*
X473075Y311150D03*
X473075Y285750D03*
X396875Y285750D03*
X396875Y311150D03*
X320675Y336550D03*
X346075Y323850D03*
X346075Y298450D03*
X320675Y311150D03*
X320675Y285750D03*
X346075Y273050D03*
D18*
X309563Y261938D03*
X1254125Y304800D03*
X1216025Y342900D03*
M02*
