G04 EAGLE Gerber RS-274X export*
G75*
%MOMM*%
%FSLAX34Y34*%
%LPD*%
%INStiffener_TOP*%
%IPPOS*%
%AMOC8*
5,1,8,0,0,1.08239X$1,22.5*%
G01*
%ADD10C,0.152400*%
%ADD11C,0.101600*%


D10*
X1246188Y325438D02*
X1296988Y325438D01*
X1306513Y431800D02*
X1236663Y431800D01*
X1246188Y284163D02*
X1296988Y284163D01*
X1312863Y185738D02*
X1312863Y425450D01*
X1304925Y177800D02*
X1238250Y177800D01*
X1230313Y185738D02*
X1230313Y425450D01*
X1027113Y431800D02*
X920750Y431800D01*
X1035050Y423863D02*
X1035050Y185738D01*
X1027113Y177800D02*
X919163Y177800D01*
X911225Y185738D02*
X911225Y422275D01*
X1246188Y325438D02*
X1246188Y309563D01*
X1246188Y300038D02*
X1246188Y284163D01*
X371475Y431800D02*
X249238Y431800D01*
X371475Y431800D02*
X371475Y177800D01*
X249238Y177800D01*
X219075Y207963D02*
X219075Y401638D01*
X1246188Y309563D02*
X1296988Y309563D01*
X1296988Y325438D01*
X1296988Y300038D02*
X1296988Y284163D01*
X1296988Y300038D02*
X1246188Y300038D01*
X481013Y431800D02*
X381000Y431800D01*
X488950Y423863D02*
X488950Y185738D01*
X481013Y177800D02*
X381000Y177800D01*
X381000Y431800D01*
X1022350Y338138D02*
X1022350Y271463D01*
X923925Y271463D02*
X923925Y338138D01*
X240300Y355600D02*
X240305Y356014D01*
X240320Y356428D01*
X240346Y356841D01*
X240381Y357254D01*
X240427Y357666D01*
X240483Y358076D01*
X240548Y358485D01*
X240624Y358892D01*
X240710Y359297D01*
X240806Y359700D01*
X240911Y360101D01*
X241027Y360499D01*
X241152Y360893D01*
X241286Y361285D01*
X241431Y361673D01*
X241585Y362058D01*
X241748Y362438D01*
X241920Y362815D01*
X242102Y363187D01*
X242293Y363555D01*
X242492Y363918D01*
X242701Y364275D01*
X242918Y364628D01*
X243144Y364975D01*
X243378Y365317D01*
X243621Y365652D01*
X243872Y365982D01*
X244130Y366305D01*
X244397Y366622D01*
X244671Y366933D01*
X244953Y367236D01*
X245243Y367532D01*
X245539Y367822D01*
X245842Y368104D01*
X246153Y368378D01*
X246470Y368645D01*
X246793Y368903D01*
X247123Y369154D01*
X247458Y369397D01*
X247800Y369631D01*
X248147Y369857D01*
X248500Y370074D01*
X248857Y370283D01*
X249220Y370482D01*
X249588Y370673D01*
X249960Y370855D01*
X250337Y371027D01*
X250717Y371190D01*
X251102Y371344D01*
X251490Y371489D01*
X251882Y371623D01*
X252276Y371748D01*
X252674Y371864D01*
X253075Y371969D01*
X253478Y372065D01*
X253883Y372151D01*
X254290Y372227D01*
X254699Y372292D01*
X255109Y372348D01*
X255521Y372394D01*
X255934Y372429D01*
X256347Y372455D01*
X256761Y372470D01*
X257175Y372475D01*
X257589Y372470D01*
X258003Y372455D01*
X258416Y372429D01*
X258829Y372394D01*
X259241Y372348D01*
X259651Y372292D01*
X260060Y372227D01*
X260467Y372151D01*
X260872Y372065D01*
X261275Y371969D01*
X261676Y371864D01*
X262074Y371748D01*
X262468Y371623D01*
X262860Y371489D01*
X263248Y371344D01*
X263633Y371190D01*
X264013Y371027D01*
X264390Y370855D01*
X264762Y370673D01*
X265130Y370482D01*
X265493Y370283D01*
X265850Y370074D01*
X266203Y369857D01*
X266550Y369631D01*
X266892Y369397D01*
X267227Y369154D01*
X267557Y368903D01*
X267880Y368645D01*
X268197Y368378D01*
X268508Y368104D01*
X268811Y367822D01*
X269107Y367532D01*
X269397Y367236D01*
X269679Y366933D01*
X269953Y366622D01*
X270220Y366305D01*
X270478Y365982D01*
X270729Y365652D01*
X270972Y365317D01*
X271206Y364975D01*
X271432Y364628D01*
X271649Y364275D01*
X271858Y363918D01*
X272057Y363555D01*
X272248Y363187D01*
X272430Y362815D01*
X272602Y362438D01*
X272765Y362058D01*
X272919Y361673D01*
X273064Y361285D01*
X273198Y360893D01*
X273323Y360499D01*
X273439Y360101D01*
X273544Y359700D01*
X273640Y359297D01*
X273726Y358892D01*
X273802Y358485D01*
X273867Y358076D01*
X273923Y357666D01*
X273969Y357254D01*
X274004Y356841D01*
X274030Y356428D01*
X274045Y356014D01*
X274050Y355600D01*
X274045Y355186D01*
X274030Y354772D01*
X274004Y354359D01*
X273969Y353946D01*
X273923Y353534D01*
X273867Y353124D01*
X273802Y352715D01*
X273726Y352308D01*
X273640Y351903D01*
X273544Y351500D01*
X273439Y351099D01*
X273323Y350701D01*
X273198Y350307D01*
X273064Y349915D01*
X272919Y349527D01*
X272765Y349142D01*
X272602Y348762D01*
X272430Y348385D01*
X272248Y348013D01*
X272057Y347645D01*
X271858Y347282D01*
X271649Y346925D01*
X271432Y346572D01*
X271206Y346225D01*
X270972Y345883D01*
X270729Y345548D01*
X270478Y345218D01*
X270220Y344895D01*
X269953Y344578D01*
X269679Y344267D01*
X269397Y343964D01*
X269107Y343668D01*
X268811Y343378D01*
X268508Y343096D01*
X268197Y342822D01*
X267880Y342555D01*
X267557Y342297D01*
X267227Y342046D01*
X266892Y341803D01*
X266550Y341569D01*
X266203Y341343D01*
X265850Y341126D01*
X265493Y340917D01*
X265130Y340718D01*
X264762Y340527D01*
X264390Y340345D01*
X264013Y340173D01*
X263633Y340010D01*
X263248Y339856D01*
X262860Y339711D01*
X262468Y339577D01*
X262074Y339452D01*
X261676Y339336D01*
X261275Y339231D01*
X260872Y339135D01*
X260467Y339049D01*
X260060Y338973D01*
X259651Y338908D01*
X259241Y338852D01*
X258829Y338806D01*
X258416Y338771D01*
X258003Y338745D01*
X257589Y338730D01*
X257175Y338725D01*
X256761Y338730D01*
X256347Y338745D01*
X255934Y338771D01*
X255521Y338806D01*
X255109Y338852D01*
X254699Y338908D01*
X254290Y338973D01*
X253883Y339049D01*
X253478Y339135D01*
X253075Y339231D01*
X252674Y339336D01*
X252276Y339452D01*
X251882Y339577D01*
X251490Y339711D01*
X251102Y339856D01*
X250717Y340010D01*
X250337Y340173D01*
X249960Y340345D01*
X249588Y340527D01*
X249220Y340718D01*
X248857Y340917D01*
X248500Y341126D01*
X248147Y341343D01*
X247800Y341569D01*
X247458Y341803D01*
X247123Y342046D01*
X246793Y342297D01*
X246470Y342555D01*
X246153Y342822D01*
X245842Y343096D01*
X245539Y343378D01*
X245243Y343668D01*
X244953Y343964D01*
X244671Y344267D01*
X244397Y344578D01*
X244130Y344895D01*
X243872Y345218D01*
X243621Y345548D01*
X243378Y345883D01*
X243144Y346225D01*
X242918Y346572D01*
X242701Y346925D01*
X242492Y347282D01*
X242293Y347645D01*
X242102Y348013D01*
X241920Y348385D01*
X241748Y348762D01*
X241585Y349142D01*
X241431Y349527D01*
X241286Y349915D01*
X241152Y350307D01*
X241027Y350701D01*
X240911Y351099D01*
X240806Y351500D01*
X240710Y351903D01*
X240624Y352308D01*
X240548Y352715D01*
X240483Y353124D01*
X240427Y353534D01*
X240381Y353946D01*
X240346Y354359D01*
X240320Y354772D01*
X240305Y355186D01*
X240300Y355600D01*
X240300Y254000D02*
X240305Y254414D01*
X240320Y254828D01*
X240346Y255241D01*
X240381Y255654D01*
X240427Y256066D01*
X240483Y256476D01*
X240548Y256885D01*
X240624Y257292D01*
X240710Y257697D01*
X240806Y258100D01*
X240911Y258501D01*
X241027Y258899D01*
X241152Y259293D01*
X241286Y259685D01*
X241431Y260073D01*
X241585Y260458D01*
X241748Y260838D01*
X241920Y261215D01*
X242102Y261587D01*
X242293Y261955D01*
X242492Y262318D01*
X242701Y262675D01*
X242918Y263028D01*
X243144Y263375D01*
X243378Y263717D01*
X243621Y264052D01*
X243872Y264382D01*
X244130Y264705D01*
X244397Y265022D01*
X244671Y265333D01*
X244953Y265636D01*
X245243Y265932D01*
X245539Y266222D01*
X245842Y266504D01*
X246153Y266778D01*
X246470Y267045D01*
X246793Y267303D01*
X247123Y267554D01*
X247458Y267797D01*
X247800Y268031D01*
X248147Y268257D01*
X248500Y268474D01*
X248857Y268683D01*
X249220Y268882D01*
X249588Y269073D01*
X249960Y269255D01*
X250337Y269427D01*
X250717Y269590D01*
X251102Y269744D01*
X251490Y269889D01*
X251882Y270023D01*
X252276Y270148D01*
X252674Y270264D01*
X253075Y270369D01*
X253478Y270465D01*
X253883Y270551D01*
X254290Y270627D01*
X254699Y270692D01*
X255109Y270748D01*
X255521Y270794D01*
X255934Y270829D01*
X256347Y270855D01*
X256761Y270870D01*
X257175Y270875D01*
X257589Y270870D01*
X258003Y270855D01*
X258416Y270829D01*
X258829Y270794D01*
X259241Y270748D01*
X259651Y270692D01*
X260060Y270627D01*
X260467Y270551D01*
X260872Y270465D01*
X261275Y270369D01*
X261676Y270264D01*
X262074Y270148D01*
X262468Y270023D01*
X262860Y269889D01*
X263248Y269744D01*
X263633Y269590D01*
X264013Y269427D01*
X264390Y269255D01*
X264762Y269073D01*
X265130Y268882D01*
X265493Y268683D01*
X265850Y268474D01*
X266203Y268257D01*
X266550Y268031D01*
X266892Y267797D01*
X267227Y267554D01*
X267557Y267303D01*
X267880Y267045D01*
X268197Y266778D01*
X268508Y266504D01*
X268811Y266222D01*
X269107Y265932D01*
X269397Y265636D01*
X269679Y265333D01*
X269953Y265022D01*
X270220Y264705D01*
X270478Y264382D01*
X270729Y264052D01*
X270972Y263717D01*
X271206Y263375D01*
X271432Y263028D01*
X271649Y262675D01*
X271858Y262318D01*
X272057Y261955D01*
X272248Y261587D01*
X272430Y261215D01*
X272602Y260838D01*
X272765Y260458D01*
X272919Y260073D01*
X273064Y259685D01*
X273198Y259293D01*
X273323Y258899D01*
X273439Y258501D01*
X273544Y258100D01*
X273640Y257697D01*
X273726Y257292D01*
X273802Y256885D01*
X273867Y256476D01*
X273923Y256066D01*
X273969Y255654D01*
X274004Y255241D01*
X274030Y254828D01*
X274045Y254414D01*
X274050Y254000D01*
X274045Y253586D01*
X274030Y253172D01*
X274004Y252759D01*
X273969Y252346D01*
X273923Y251934D01*
X273867Y251524D01*
X273802Y251115D01*
X273726Y250708D01*
X273640Y250303D01*
X273544Y249900D01*
X273439Y249499D01*
X273323Y249101D01*
X273198Y248707D01*
X273064Y248315D01*
X272919Y247927D01*
X272765Y247542D01*
X272602Y247162D01*
X272430Y246785D01*
X272248Y246413D01*
X272057Y246045D01*
X271858Y245682D01*
X271649Y245325D01*
X271432Y244972D01*
X271206Y244625D01*
X270972Y244283D01*
X270729Y243948D01*
X270478Y243618D01*
X270220Y243295D01*
X269953Y242978D01*
X269679Y242667D01*
X269397Y242364D01*
X269107Y242068D01*
X268811Y241778D01*
X268508Y241496D01*
X268197Y241222D01*
X267880Y240955D01*
X267557Y240697D01*
X267227Y240446D01*
X266892Y240203D01*
X266550Y239969D01*
X266203Y239743D01*
X265850Y239526D01*
X265493Y239317D01*
X265130Y239118D01*
X264762Y238927D01*
X264390Y238745D01*
X264013Y238573D01*
X263633Y238410D01*
X263248Y238256D01*
X262860Y238111D01*
X262468Y237977D01*
X262074Y237852D01*
X261676Y237736D01*
X261275Y237631D01*
X260872Y237535D01*
X260467Y237449D01*
X260060Y237373D01*
X259651Y237308D01*
X259241Y237252D01*
X258829Y237206D01*
X258416Y237171D01*
X258003Y237145D01*
X257589Y237130D01*
X257175Y237125D01*
X256761Y237130D01*
X256347Y237145D01*
X255934Y237171D01*
X255521Y237206D01*
X255109Y237252D01*
X254699Y237308D01*
X254290Y237373D01*
X253883Y237449D01*
X253478Y237535D01*
X253075Y237631D01*
X252674Y237736D01*
X252276Y237852D01*
X251882Y237977D01*
X251490Y238111D01*
X251102Y238256D01*
X250717Y238410D01*
X250337Y238573D01*
X249960Y238745D01*
X249588Y238927D01*
X249220Y239118D01*
X248857Y239317D01*
X248500Y239526D01*
X248147Y239743D01*
X247800Y239969D01*
X247458Y240203D01*
X247123Y240446D01*
X246793Y240697D01*
X246470Y240955D01*
X246153Y241222D01*
X245842Y241496D01*
X245539Y241778D01*
X245243Y242068D01*
X244953Y242364D01*
X244671Y242667D01*
X244397Y242978D01*
X244130Y243295D01*
X243872Y243618D01*
X243621Y243948D01*
X243378Y244283D01*
X243144Y244625D01*
X242918Y244972D01*
X242701Y245325D01*
X242492Y245682D01*
X242293Y246045D01*
X242102Y246413D01*
X241920Y246785D01*
X241748Y247162D01*
X241585Y247542D01*
X241431Y247927D01*
X241286Y248315D01*
X241152Y248707D01*
X241027Y249101D01*
X240911Y249499D01*
X240806Y249900D01*
X240710Y250303D01*
X240624Y250708D01*
X240548Y251115D01*
X240483Y251524D01*
X240427Y251934D01*
X240381Y252346D01*
X240346Y252759D01*
X240320Y253172D01*
X240305Y253586D01*
X240300Y254000D01*
X923925Y338138D02*
X1022350Y338138D01*
X1022350Y271463D02*
X923925Y271463D01*
X309450Y336550D02*
X309453Y336825D01*
X309464Y337101D01*
X309480Y337376D01*
X309504Y337650D01*
X309534Y337924D01*
X309571Y338197D01*
X309615Y338469D01*
X309666Y338740D01*
X309723Y339009D01*
X309786Y339277D01*
X309857Y339544D01*
X309933Y339808D01*
X310017Y340071D01*
X310106Y340332D01*
X310202Y340590D01*
X310304Y340846D01*
X310413Y341099D01*
X310528Y341349D01*
X310649Y341597D01*
X310775Y341841D01*
X310908Y342083D01*
X311047Y342321D01*
X311192Y342555D01*
X311342Y342786D01*
X311498Y343013D01*
X311659Y343237D01*
X311826Y343456D01*
X311998Y343671D01*
X312175Y343882D01*
X312358Y344088D01*
X312545Y344290D01*
X312738Y344487D01*
X312935Y344680D01*
X313137Y344867D01*
X313343Y345050D01*
X313554Y345227D01*
X313769Y345399D01*
X313988Y345566D01*
X314212Y345727D01*
X314439Y345883D01*
X314670Y346033D01*
X314904Y346178D01*
X315142Y346317D01*
X315384Y346450D01*
X315628Y346576D01*
X315876Y346697D01*
X316126Y346812D01*
X316379Y346921D01*
X316635Y347023D01*
X316893Y347119D01*
X317154Y347208D01*
X317417Y347292D01*
X317681Y347368D01*
X317948Y347439D01*
X318216Y347502D01*
X318485Y347559D01*
X318756Y347610D01*
X319028Y347654D01*
X319301Y347691D01*
X319575Y347721D01*
X319849Y347745D01*
X320124Y347761D01*
X320400Y347772D01*
X320675Y347775D01*
X320950Y347772D01*
X321226Y347761D01*
X321501Y347745D01*
X321775Y347721D01*
X322049Y347691D01*
X322322Y347654D01*
X322594Y347610D01*
X322865Y347559D01*
X323134Y347502D01*
X323402Y347439D01*
X323669Y347368D01*
X323933Y347292D01*
X324196Y347208D01*
X324457Y347119D01*
X324715Y347023D01*
X324971Y346921D01*
X325224Y346812D01*
X325474Y346697D01*
X325722Y346576D01*
X325966Y346450D01*
X326208Y346317D01*
X326446Y346178D01*
X326680Y346033D01*
X326911Y345883D01*
X327138Y345727D01*
X327362Y345566D01*
X327581Y345399D01*
X327796Y345227D01*
X328007Y345050D01*
X328213Y344867D01*
X328415Y344680D01*
X328612Y344487D01*
X328805Y344290D01*
X328992Y344088D01*
X329175Y343882D01*
X329352Y343671D01*
X329524Y343456D01*
X329691Y343237D01*
X329852Y343013D01*
X330008Y342786D01*
X330158Y342555D01*
X330303Y342321D01*
X330442Y342083D01*
X330575Y341841D01*
X330701Y341597D01*
X330822Y341349D01*
X330937Y341099D01*
X331046Y340846D01*
X331148Y340590D01*
X331244Y340332D01*
X331333Y340071D01*
X331417Y339808D01*
X331493Y339544D01*
X331564Y339277D01*
X331627Y339009D01*
X331684Y338740D01*
X331735Y338469D01*
X331779Y338197D01*
X331816Y337924D01*
X331846Y337650D01*
X331870Y337376D01*
X331886Y337101D01*
X331897Y336825D01*
X331900Y336550D01*
X331897Y336275D01*
X331886Y335999D01*
X331870Y335724D01*
X331846Y335450D01*
X331816Y335176D01*
X331779Y334903D01*
X331735Y334631D01*
X331684Y334360D01*
X331627Y334091D01*
X331564Y333823D01*
X331493Y333556D01*
X331417Y333292D01*
X331333Y333029D01*
X331244Y332768D01*
X331148Y332510D01*
X331046Y332254D01*
X330937Y332001D01*
X330822Y331751D01*
X330701Y331503D01*
X330575Y331259D01*
X330442Y331017D01*
X330303Y330779D01*
X330158Y330545D01*
X330008Y330314D01*
X329852Y330087D01*
X329691Y329863D01*
X329524Y329644D01*
X329352Y329429D01*
X329175Y329218D01*
X328992Y329012D01*
X328805Y328810D01*
X328612Y328613D01*
X328415Y328420D01*
X328213Y328233D01*
X328007Y328050D01*
X327796Y327873D01*
X327581Y327701D01*
X327362Y327534D01*
X327138Y327373D01*
X326911Y327217D01*
X326680Y327067D01*
X326446Y326922D01*
X326208Y326783D01*
X325966Y326650D01*
X325722Y326524D01*
X325474Y326403D01*
X325224Y326288D01*
X324971Y326179D01*
X324715Y326077D01*
X324457Y325981D01*
X324196Y325892D01*
X323933Y325808D01*
X323669Y325732D01*
X323402Y325661D01*
X323134Y325598D01*
X322865Y325541D01*
X322594Y325490D01*
X322322Y325446D01*
X322049Y325409D01*
X321775Y325379D01*
X321501Y325355D01*
X321226Y325339D01*
X320950Y325328D01*
X320675Y325325D01*
X320400Y325328D01*
X320124Y325339D01*
X319849Y325355D01*
X319575Y325379D01*
X319301Y325409D01*
X319028Y325446D01*
X318756Y325490D01*
X318485Y325541D01*
X318216Y325598D01*
X317948Y325661D01*
X317681Y325732D01*
X317417Y325808D01*
X317154Y325892D01*
X316893Y325981D01*
X316635Y326077D01*
X316379Y326179D01*
X316126Y326288D01*
X315876Y326403D01*
X315628Y326524D01*
X315384Y326650D01*
X315142Y326783D01*
X314904Y326922D01*
X314670Y327067D01*
X314439Y327217D01*
X314212Y327373D01*
X313988Y327534D01*
X313769Y327701D01*
X313554Y327873D01*
X313343Y328050D01*
X313137Y328233D01*
X312935Y328420D01*
X312738Y328613D01*
X312545Y328810D01*
X312358Y329012D01*
X312175Y329218D01*
X311998Y329429D01*
X311826Y329644D01*
X311659Y329863D01*
X311498Y330087D01*
X311342Y330314D01*
X311192Y330545D01*
X311047Y330779D01*
X310908Y331017D01*
X310775Y331259D01*
X310649Y331503D01*
X310528Y331751D01*
X310413Y332001D01*
X310304Y332254D01*
X310202Y332510D01*
X310106Y332768D01*
X310017Y333029D01*
X309933Y333292D01*
X309857Y333556D01*
X309786Y333823D01*
X309723Y334091D01*
X309666Y334360D01*
X309615Y334631D01*
X309571Y334903D01*
X309534Y335176D01*
X309504Y335450D01*
X309480Y335724D01*
X309464Y335999D01*
X309453Y336275D01*
X309450Y336550D01*
X309227Y311150D02*
X309230Y311431D01*
X309241Y311712D01*
X309258Y311992D01*
X309282Y312272D01*
X309313Y312551D01*
X309351Y312830D01*
X309396Y313107D01*
X309447Y313383D01*
X309505Y313658D01*
X309570Y313932D01*
X309642Y314203D01*
X309720Y314473D01*
X309805Y314741D01*
X309896Y315007D01*
X309994Y315270D01*
X310098Y315531D01*
X310209Y315789D01*
X310326Y316045D01*
X310449Y316297D01*
X310579Y316547D01*
X310714Y316793D01*
X310856Y317035D01*
X311003Y317275D01*
X311156Y317510D01*
X311315Y317742D01*
X311480Y317970D01*
X311650Y318193D01*
X311826Y318413D01*
X312006Y318628D01*
X312193Y318838D01*
X312384Y319044D01*
X312580Y319245D01*
X312781Y319441D01*
X312987Y319632D01*
X313197Y319819D01*
X313412Y319999D01*
X313632Y320175D01*
X313855Y320345D01*
X314083Y320510D01*
X314315Y320669D01*
X314550Y320822D01*
X314790Y320969D01*
X315032Y321111D01*
X315278Y321246D01*
X315528Y321376D01*
X315780Y321499D01*
X316036Y321616D01*
X316294Y321727D01*
X316555Y321831D01*
X316818Y321929D01*
X317084Y322020D01*
X317352Y322105D01*
X317622Y322183D01*
X317893Y322255D01*
X318167Y322320D01*
X318442Y322378D01*
X318718Y322429D01*
X318995Y322474D01*
X319274Y322512D01*
X319553Y322543D01*
X319833Y322567D01*
X320113Y322584D01*
X320394Y322595D01*
X320675Y322598D01*
X320956Y322595D01*
X321237Y322584D01*
X321517Y322567D01*
X321797Y322543D01*
X322076Y322512D01*
X322355Y322474D01*
X322632Y322429D01*
X322908Y322378D01*
X323183Y322320D01*
X323457Y322255D01*
X323728Y322183D01*
X323998Y322105D01*
X324266Y322020D01*
X324532Y321929D01*
X324795Y321831D01*
X325056Y321727D01*
X325314Y321616D01*
X325570Y321499D01*
X325822Y321376D01*
X326072Y321246D01*
X326318Y321111D01*
X326560Y320969D01*
X326800Y320822D01*
X327035Y320669D01*
X327267Y320510D01*
X327495Y320345D01*
X327718Y320175D01*
X327938Y319999D01*
X328153Y319819D01*
X328363Y319632D01*
X328569Y319441D01*
X328770Y319245D01*
X328966Y319044D01*
X329157Y318838D01*
X329344Y318628D01*
X329524Y318413D01*
X329700Y318193D01*
X329870Y317970D01*
X330035Y317742D01*
X330194Y317510D01*
X330347Y317275D01*
X330494Y317035D01*
X330636Y316793D01*
X330771Y316547D01*
X330901Y316297D01*
X331024Y316045D01*
X331141Y315789D01*
X331252Y315531D01*
X331356Y315270D01*
X331454Y315007D01*
X331545Y314741D01*
X331630Y314473D01*
X331708Y314203D01*
X331780Y313932D01*
X331845Y313658D01*
X331903Y313383D01*
X331954Y313107D01*
X331999Y312830D01*
X332037Y312551D01*
X332068Y312272D01*
X332092Y311992D01*
X332109Y311712D01*
X332120Y311431D01*
X332123Y311150D01*
X332120Y310869D01*
X332109Y310588D01*
X332092Y310308D01*
X332068Y310028D01*
X332037Y309749D01*
X331999Y309470D01*
X331954Y309193D01*
X331903Y308917D01*
X331845Y308642D01*
X331780Y308368D01*
X331708Y308097D01*
X331630Y307827D01*
X331545Y307559D01*
X331454Y307293D01*
X331356Y307030D01*
X331252Y306769D01*
X331141Y306511D01*
X331024Y306255D01*
X330901Y306003D01*
X330771Y305753D01*
X330636Y305507D01*
X330494Y305265D01*
X330347Y305025D01*
X330194Y304790D01*
X330035Y304558D01*
X329870Y304330D01*
X329700Y304107D01*
X329524Y303887D01*
X329344Y303672D01*
X329157Y303462D01*
X328966Y303256D01*
X328770Y303055D01*
X328569Y302859D01*
X328363Y302668D01*
X328153Y302481D01*
X327938Y302301D01*
X327718Y302125D01*
X327495Y301955D01*
X327267Y301790D01*
X327035Y301631D01*
X326800Y301478D01*
X326560Y301331D01*
X326318Y301189D01*
X326072Y301054D01*
X325822Y300924D01*
X325570Y300801D01*
X325314Y300684D01*
X325056Y300573D01*
X324795Y300469D01*
X324532Y300371D01*
X324266Y300280D01*
X323998Y300195D01*
X323728Y300117D01*
X323457Y300045D01*
X323183Y299980D01*
X322908Y299922D01*
X322632Y299871D01*
X322355Y299826D01*
X322076Y299788D01*
X321797Y299757D01*
X321517Y299733D01*
X321237Y299716D01*
X320956Y299705D01*
X320675Y299702D01*
X320394Y299705D01*
X320113Y299716D01*
X319833Y299733D01*
X319553Y299757D01*
X319274Y299788D01*
X318995Y299826D01*
X318718Y299871D01*
X318442Y299922D01*
X318167Y299980D01*
X317893Y300045D01*
X317622Y300117D01*
X317352Y300195D01*
X317084Y300280D01*
X316818Y300371D01*
X316555Y300469D01*
X316294Y300573D01*
X316036Y300684D01*
X315780Y300801D01*
X315528Y300924D01*
X315278Y301054D01*
X315032Y301189D01*
X314790Y301331D01*
X314550Y301478D01*
X314315Y301631D01*
X314083Y301790D01*
X313855Y301955D01*
X313632Y302125D01*
X313412Y302301D01*
X313197Y302481D01*
X312987Y302668D01*
X312781Y302859D01*
X312580Y303055D01*
X312384Y303256D01*
X312193Y303462D01*
X312006Y303672D01*
X311826Y303887D01*
X311650Y304107D01*
X311480Y304330D01*
X311315Y304558D01*
X311156Y304790D01*
X311003Y305025D01*
X310856Y305265D01*
X310714Y305507D01*
X310579Y305753D01*
X310449Y306003D01*
X310326Y306255D01*
X310209Y306511D01*
X310098Y306769D01*
X309994Y307030D01*
X309896Y307293D01*
X309805Y307559D01*
X309720Y307827D01*
X309642Y308097D01*
X309570Y308368D01*
X309505Y308642D01*
X309447Y308917D01*
X309396Y309193D01*
X309351Y309470D01*
X309313Y309749D01*
X309282Y310028D01*
X309258Y310308D01*
X309241Y310588D01*
X309230Y310869D01*
X309227Y311150D01*
X309227Y285750D02*
X309230Y286031D01*
X309241Y286312D01*
X309258Y286592D01*
X309282Y286872D01*
X309313Y287151D01*
X309351Y287430D01*
X309396Y287707D01*
X309447Y287983D01*
X309505Y288258D01*
X309570Y288532D01*
X309642Y288803D01*
X309720Y289073D01*
X309805Y289341D01*
X309896Y289607D01*
X309994Y289870D01*
X310098Y290131D01*
X310209Y290389D01*
X310326Y290645D01*
X310449Y290897D01*
X310579Y291147D01*
X310714Y291393D01*
X310856Y291635D01*
X311003Y291875D01*
X311156Y292110D01*
X311315Y292342D01*
X311480Y292570D01*
X311650Y292793D01*
X311826Y293013D01*
X312006Y293228D01*
X312193Y293438D01*
X312384Y293644D01*
X312580Y293845D01*
X312781Y294041D01*
X312987Y294232D01*
X313197Y294419D01*
X313412Y294599D01*
X313632Y294775D01*
X313855Y294945D01*
X314083Y295110D01*
X314315Y295269D01*
X314550Y295422D01*
X314790Y295569D01*
X315032Y295711D01*
X315278Y295846D01*
X315528Y295976D01*
X315780Y296099D01*
X316036Y296216D01*
X316294Y296327D01*
X316555Y296431D01*
X316818Y296529D01*
X317084Y296620D01*
X317352Y296705D01*
X317622Y296783D01*
X317893Y296855D01*
X318167Y296920D01*
X318442Y296978D01*
X318718Y297029D01*
X318995Y297074D01*
X319274Y297112D01*
X319553Y297143D01*
X319833Y297167D01*
X320113Y297184D01*
X320394Y297195D01*
X320675Y297198D01*
X320956Y297195D01*
X321237Y297184D01*
X321517Y297167D01*
X321797Y297143D01*
X322076Y297112D01*
X322355Y297074D01*
X322632Y297029D01*
X322908Y296978D01*
X323183Y296920D01*
X323457Y296855D01*
X323728Y296783D01*
X323998Y296705D01*
X324266Y296620D01*
X324532Y296529D01*
X324795Y296431D01*
X325056Y296327D01*
X325314Y296216D01*
X325570Y296099D01*
X325822Y295976D01*
X326072Y295846D01*
X326318Y295711D01*
X326560Y295569D01*
X326800Y295422D01*
X327035Y295269D01*
X327267Y295110D01*
X327495Y294945D01*
X327718Y294775D01*
X327938Y294599D01*
X328153Y294419D01*
X328363Y294232D01*
X328569Y294041D01*
X328770Y293845D01*
X328966Y293644D01*
X329157Y293438D01*
X329344Y293228D01*
X329524Y293013D01*
X329700Y292793D01*
X329870Y292570D01*
X330035Y292342D01*
X330194Y292110D01*
X330347Y291875D01*
X330494Y291635D01*
X330636Y291393D01*
X330771Y291147D01*
X330901Y290897D01*
X331024Y290645D01*
X331141Y290389D01*
X331252Y290131D01*
X331356Y289870D01*
X331454Y289607D01*
X331545Y289341D01*
X331630Y289073D01*
X331708Y288803D01*
X331780Y288532D01*
X331845Y288258D01*
X331903Y287983D01*
X331954Y287707D01*
X331999Y287430D01*
X332037Y287151D01*
X332068Y286872D01*
X332092Y286592D01*
X332109Y286312D01*
X332120Y286031D01*
X332123Y285750D01*
X332120Y285469D01*
X332109Y285188D01*
X332092Y284908D01*
X332068Y284628D01*
X332037Y284349D01*
X331999Y284070D01*
X331954Y283793D01*
X331903Y283517D01*
X331845Y283242D01*
X331780Y282968D01*
X331708Y282697D01*
X331630Y282427D01*
X331545Y282159D01*
X331454Y281893D01*
X331356Y281630D01*
X331252Y281369D01*
X331141Y281111D01*
X331024Y280855D01*
X330901Y280603D01*
X330771Y280353D01*
X330636Y280107D01*
X330494Y279865D01*
X330347Y279625D01*
X330194Y279390D01*
X330035Y279158D01*
X329870Y278930D01*
X329700Y278707D01*
X329524Y278487D01*
X329344Y278272D01*
X329157Y278062D01*
X328966Y277856D01*
X328770Y277655D01*
X328569Y277459D01*
X328363Y277268D01*
X328153Y277081D01*
X327938Y276901D01*
X327718Y276725D01*
X327495Y276555D01*
X327267Y276390D01*
X327035Y276231D01*
X326800Y276078D01*
X326560Y275931D01*
X326318Y275789D01*
X326072Y275654D01*
X325822Y275524D01*
X325570Y275401D01*
X325314Y275284D01*
X325056Y275173D01*
X324795Y275069D01*
X324532Y274971D01*
X324266Y274880D01*
X323998Y274795D01*
X323728Y274717D01*
X323457Y274645D01*
X323183Y274580D01*
X322908Y274522D01*
X322632Y274471D01*
X322355Y274426D01*
X322076Y274388D01*
X321797Y274357D01*
X321517Y274333D01*
X321237Y274316D01*
X320956Y274305D01*
X320675Y274302D01*
X320394Y274305D01*
X320113Y274316D01*
X319833Y274333D01*
X319553Y274357D01*
X319274Y274388D01*
X318995Y274426D01*
X318718Y274471D01*
X318442Y274522D01*
X318167Y274580D01*
X317893Y274645D01*
X317622Y274717D01*
X317352Y274795D01*
X317084Y274880D01*
X316818Y274971D01*
X316555Y275069D01*
X316294Y275173D01*
X316036Y275284D01*
X315780Y275401D01*
X315528Y275524D01*
X315278Y275654D01*
X315032Y275789D01*
X314790Y275931D01*
X314550Y276078D01*
X314315Y276231D01*
X314083Y276390D01*
X313855Y276555D01*
X313632Y276725D01*
X313412Y276901D01*
X313197Y277081D01*
X312987Y277268D01*
X312781Y277459D01*
X312580Y277655D01*
X312384Y277856D01*
X312193Y278062D01*
X312006Y278272D01*
X311826Y278487D01*
X311650Y278707D01*
X311480Y278930D01*
X311315Y279158D01*
X311156Y279390D01*
X311003Y279625D01*
X310856Y279865D01*
X310714Y280107D01*
X310579Y280353D01*
X310449Y280603D01*
X310326Y280855D01*
X310209Y281111D01*
X310098Y281369D01*
X309994Y281630D01*
X309896Y281893D01*
X309805Y282159D01*
X309720Y282427D01*
X309642Y282697D01*
X309570Y282968D01*
X309505Y283242D01*
X309447Y283517D01*
X309396Y283793D01*
X309351Y284070D01*
X309313Y284349D01*
X309282Y284628D01*
X309258Y284908D01*
X309241Y285188D01*
X309230Y285469D01*
X309227Y285750D01*
X334518Y323850D02*
X334521Y324134D01*
X334532Y324417D01*
X334549Y324700D01*
X334574Y324983D01*
X334605Y325265D01*
X334643Y325546D01*
X334688Y325826D01*
X334740Y326105D01*
X334799Y326382D01*
X334864Y326658D01*
X334937Y326932D01*
X335016Y327205D01*
X335101Y327475D01*
X335194Y327743D01*
X335292Y328009D01*
X335398Y328273D01*
X335509Y328533D01*
X335628Y328791D01*
X335752Y329046D01*
X335883Y329298D01*
X336019Y329546D01*
X336162Y329791D01*
X336311Y330033D01*
X336466Y330271D01*
X336626Y330505D01*
X336792Y330734D01*
X336964Y330960D01*
X337141Y331182D01*
X337324Y331399D01*
X337512Y331611D01*
X337705Y331819D01*
X337903Y332022D01*
X338106Y332220D01*
X338314Y332413D01*
X338526Y332601D01*
X338743Y332784D01*
X338965Y332961D01*
X339191Y333133D01*
X339420Y333299D01*
X339654Y333459D01*
X339892Y333614D01*
X340134Y333763D01*
X340379Y333906D01*
X340627Y334042D01*
X340879Y334173D01*
X341134Y334297D01*
X341392Y334416D01*
X341652Y334527D01*
X341916Y334633D01*
X342182Y334731D01*
X342450Y334824D01*
X342720Y334909D01*
X342993Y334988D01*
X343267Y335061D01*
X343543Y335126D01*
X343820Y335185D01*
X344099Y335237D01*
X344379Y335282D01*
X344660Y335320D01*
X344942Y335351D01*
X345225Y335376D01*
X345508Y335393D01*
X345791Y335404D01*
X346075Y335407D01*
X346359Y335404D01*
X346642Y335393D01*
X346925Y335376D01*
X347208Y335351D01*
X347490Y335320D01*
X347771Y335282D01*
X348051Y335237D01*
X348330Y335185D01*
X348607Y335126D01*
X348883Y335061D01*
X349157Y334988D01*
X349430Y334909D01*
X349700Y334824D01*
X349968Y334731D01*
X350234Y334633D01*
X350498Y334527D01*
X350758Y334416D01*
X351016Y334297D01*
X351271Y334173D01*
X351523Y334042D01*
X351771Y333906D01*
X352016Y333763D01*
X352258Y333614D01*
X352496Y333459D01*
X352730Y333299D01*
X352959Y333133D01*
X353185Y332961D01*
X353407Y332784D01*
X353624Y332601D01*
X353836Y332413D01*
X354044Y332220D01*
X354247Y332022D01*
X354445Y331819D01*
X354638Y331611D01*
X354826Y331399D01*
X355009Y331182D01*
X355186Y330960D01*
X355358Y330734D01*
X355524Y330505D01*
X355684Y330271D01*
X355839Y330033D01*
X355988Y329791D01*
X356131Y329546D01*
X356267Y329298D01*
X356398Y329046D01*
X356522Y328791D01*
X356641Y328533D01*
X356752Y328273D01*
X356858Y328009D01*
X356956Y327743D01*
X357049Y327475D01*
X357134Y327205D01*
X357213Y326932D01*
X357286Y326658D01*
X357351Y326382D01*
X357410Y326105D01*
X357462Y325826D01*
X357507Y325546D01*
X357545Y325265D01*
X357576Y324983D01*
X357601Y324700D01*
X357618Y324417D01*
X357629Y324134D01*
X357632Y323850D01*
X357629Y323566D01*
X357618Y323283D01*
X357601Y323000D01*
X357576Y322717D01*
X357545Y322435D01*
X357507Y322154D01*
X357462Y321874D01*
X357410Y321595D01*
X357351Y321318D01*
X357286Y321042D01*
X357213Y320768D01*
X357134Y320495D01*
X357049Y320225D01*
X356956Y319957D01*
X356858Y319691D01*
X356752Y319427D01*
X356641Y319167D01*
X356522Y318909D01*
X356398Y318654D01*
X356267Y318402D01*
X356131Y318154D01*
X355988Y317909D01*
X355839Y317667D01*
X355684Y317429D01*
X355524Y317195D01*
X355358Y316966D01*
X355186Y316740D01*
X355009Y316518D01*
X354826Y316301D01*
X354638Y316089D01*
X354445Y315881D01*
X354247Y315678D01*
X354044Y315480D01*
X353836Y315287D01*
X353624Y315099D01*
X353407Y314916D01*
X353185Y314739D01*
X352959Y314567D01*
X352730Y314401D01*
X352496Y314241D01*
X352258Y314086D01*
X352016Y313937D01*
X351771Y313794D01*
X351523Y313658D01*
X351271Y313527D01*
X351016Y313403D01*
X350758Y313284D01*
X350498Y313173D01*
X350234Y313067D01*
X349968Y312969D01*
X349700Y312876D01*
X349430Y312791D01*
X349157Y312712D01*
X348883Y312639D01*
X348607Y312574D01*
X348330Y312515D01*
X348051Y312463D01*
X347771Y312418D01*
X347490Y312380D01*
X347208Y312349D01*
X346925Y312324D01*
X346642Y312307D01*
X346359Y312296D01*
X346075Y312293D01*
X345791Y312296D01*
X345508Y312307D01*
X345225Y312324D01*
X344942Y312349D01*
X344660Y312380D01*
X344379Y312418D01*
X344099Y312463D01*
X343820Y312515D01*
X343543Y312574D01*
X343267Y312639D01*
X342993Y312712D01*
X342720Y312791D01*
X342450Y312876D01*
X342182Y312969D01*
X341916Y313067D01*
X341652Y313173D01*
X341392Y313284D01*
X341134Y313403D01*
X340879Y313527D01*
X340627Y313658D01*
X340379Y313794D01*
X340134Y313937D01*
X339892Y314086D01*
X339654Y314241D01*
X339420Y314401D01*
X339191Y314567D01*
X338965Y314739D01*
X338743Y314916D01*
X338526Y315099D01*
X338314Y315287D01*
X338106Y315480D01*
X337903Y315678D01*
X337705Y315881D01*
X337512Y316089D01*
X337324Y316301D01*
X337141Y316518D01*
X336964Y316740D01*
X336792Y316966D01*
X336626Y317195D01*
X336466Y317429D01*
X336311Y317667D01*
X336162Y317909D01*
X336019Y318154D01*
X335883Y318402D01*
X335752Y318654D01*
X335628Y318909D01*
X335509Y319167D01*
X335398Y319427D01*
X335292Y319691D01*
X335194Y319957D01*
X335101Y320225D01*
X335016Y320495D01*
X334937Y320768D01*
X334864Y321042D01*
X334799Y321318D01*
X334740Y321595D01*
X334688Y321874D01*
X334643Y322154D01*
X334605Y322435D01*
X334574Y322717D01*
X334549Y323000D01*
X334532Y323283D01*
X334521Y323566D01*
X334518Y323850D01*
X334627Y298450D02*
X334630Y298731D01*
X334641Y299012D01*
X334658Y299292D01*
X334682Y299572D01*
X334713Y299851D01*
X334751Y300130D01*
X334796Y300407D01*
X334847Y300683D01*
X334905Y300958D01*
X334970Y301232D01*
X335042Y301503D01*
X335120Y301773D01*
X335205Y302041D01*
X335296Y302307D01*
X335394Y302570D01*
X335498Y302831D01*
X335609Y303089D01*
X335726Y303345D01*
X335849Y303597D01*
X335979Y303847D01*
X336114Y304093D01*
X336256Y304335D01*
X336403Y304575D01*
X336556Y304810D01*
X336715Y305042D01*
X336880Y305270D01*
X337050Y305493D01*
X337226Y305713D01*
X337406Y305928D01*
X337593Y306138D01*
X337784Y306344D01*
X337980Y306545D01*
X338181Y306741D01*
X338387Y306932D01*
X338597Y307119D01*
X338812Y307299D01*
X339032Y307475D01*
X339255Y307645D01*
X339483Y307810D01*
X339715Y307969D01*
X339950Y308122D01*
X340190Y308269D01*
X340432Y308411D01*
X340678Y308546D01*
X340928Y308676D01*
X341180Y308799D01*
X341436Y308916D01*
X341694Y309027D01*
X341955Y309131D01*
X342218Y309229D01*
X342484Y309320D01*
X342752Y309405D01*
X343022Y309483D01*
X343293Y309555D01*
X343567Y309620D01*
X343842Y309678D01*
X344118Y309729D01*
X344395Y309774D01*
X344674Y309812D01*
X344953Y309843D01*
X345233Y309867D01*
X345513Y309884D01*
X345794Y309895D01*
X346075Y309898D01*
X346356Y309895D01*
X346637Y309884D01*
X346917Y309867D01*
X347197Y309843D01*
X347476Y309812D01*
X347755Y309774D01*
X348032Y309729D01*
X348308Y309678D01*
X348583Y309620D01*
X348857Y309555D01*
X349128Y309483D01*
X349398Y309405D01*
X349666Y309320D01*
X349932Y309229D01*
X350195Y309131D01*
X350456Y309027D01*
X350714Y308916D01*
X350970Y308799D01*
X351222Y308676D01*
X351472Y308546D01*
X351718Y308411D01*
X351960Y308269D01*
X352200Y308122D01*
X352435Y307969D01*
X352667Y307810D01*
X352895Y307645D01*
X353118Y307475D01*
X353338Y307299D01*
X353553Y307119D01*
X353763Y306932D01*
X353969Y306741D01*
X354170Y306545D01*
X354366Y306344D01*
X354557Y306138D01*
X354744Y305928D01*
X354924Y305713D01*
X355100Y305493D01*
X355270Y305270D01*
X355435Y305042D01*
X355594Y304810D01*
X355747Y304575D01*
X355894Y304335D01*
X356036Y304093D01*
X356171Y303847D01*
X356301Y303597D01*
X356424Y303345D01*
X356541Y303089D01*
X356652Y302831D01*
X356756Y302570D01*
X356854Y302307D01*
X356945Y302041D01*
X357030Y301773D01*
X357108Y301503D01*
X357180Y301232D01*
X357245Y300958D01*
X357303Y300683D01*
X357354Y300407D01*
X357399Y300130D01*
X357437Y299851D01*
X357468Y299572D01*
X357492Y299292D01*
X357509Y299012D01*
X357520Y298731D01*
X357523Y298450D01*
X357520Y298169D01*
X357509Y297888D01*
X357492Y297608D01*
X357468Y297328D01*
X357437Y297049D01*
X357399Y296770D01*
X357354Y296493D01*
X357303Y296217D01*
X357245Y295942D01*
X357180Y295668D01*
X357108Y295397D01*
X357030Y295127D01*
X356945Y294859D01*
X356854Y294593D01*
X356756Y294330D01*
X356652Y294069D01*
X356541Y293811D01*
X356424Y293555D01*
X356301Y293303D01*
X356171Y293053D01*
X356036Y292807D01*
X355894Y292565D01*
X355747Y292325D01*
X355594Y292090D01*
X355435Y291858D01*
X355270Y291630D01*
X355100Y291407D01*
X354924Y291187D01*
X354744Y290972D01*
X354557Y290762D01*
X354366Y290556D01*
X354170Y290355D01*
X353969Y290159D01*
X353763Y289968D01*
X353553Y289781D01*
X353338Y289601D01*
X353118Y289425D01*
X352895Y289255D01*
X352667Y289090D01*
X352435Y288931D01*
X352200Y288778D01*
X351960Y288631D01*
X351718Y288489D01*
X351472Y288354D01*
X351222Y288224D01*
X350970Y288101D01*
X350714Y287984D01*
X350456Y287873D01*
X350195Y287769D01*
X349932Y287671D01*
X349666Y287580D01*
X349398Y287495D01*
X349128Y287417D01*
X348857Y287345D01*
X348583Y287280D01*
X348308Y287222D01*
X348032Y287171D01*
X347755Y287126D01*
X347476Y287088D01*
X347197Y287057D01*
X346917Y287033D01*
X346637Y287016D01*
X346356Y287005D01*
X346075Y287002D01*
X345794Y287005D01*
X345513Y287016D01*
X345233Y287033D01*
X344953Y287057D01*
X344674Y287088D01*
X344395Y287126D01*
X344118Y287171D01*
X343842Y287222D01*
X343567Y287280D01*
X343293Y287345D01*
X343022Y287417D01*
X342752Y287495D01*
X342484Y287580D01*
X342218Y287671D01*
X341955Y287769D01*
X341694Y287873D01*
X341436Y287984D01*
X341180Y288101D01*
X340928Y288224D01*
X340678Y288354D01*
X340432Y288489D01*
X340190Y288631D01*
X339950Y288778D01*
X339715Y288931D01*
X339483Y289090D01*
X339255Y289255D01*
X339032Y289425D01*
X338812Y289601D01*
X338597Y289781D01*
X338387Y289968D01*
X338181Y290159D01*
X337980Y290355D01*
X337784Y290556D01*
X337593Y290762D01*
X337406Y290972D01*
X337226Y291187D01*
X337050Y291407D01*
X336880Y291630D01*
X336715Y291858D01*
X336556Y292090D01*
X336403Y292325D01*
X336256Y292565D01*
X336114Y292807D01*
X335979Y293053D01*
X335849Y293303D01*
X335726Y293555D01*
X335609Y293811D01*
X335498Y294069D01*
X335394Y294330D01*
X335296Y294593D01*
X335205Y294859D01*
X335120Y295127D01*
X335042Y295397D01*
X334970Y295668D01*
X334905Y295942D01*
X334847Y296217D01*
X334796Y296493D01*
X334751Y296770D01*
X334713Y297049D01*
X334682Y297328D01*
X334658Y297608D01*
X334641Y297888D01*
X334630Y298169D01*
X334627Y298450D01*
X334627Y273050D02*
X334630Y273331D01*
X334641Y273612D01*
X334658Y273892D01*
X334682Y274172D01*
X334713Y274451D01*
X334751Y274730D01*
X334796Y275007D01*
X334847Y275283D01*
X334905Y275558D01*
X334970Y275832D01*
X335042Y276103D01*
X335120Y276373D01*
X335205Y276641D01*
X335296Y276907D01*
X335394Y277170D01*
X335498Y277431D01*
X335609Y277689D01*
X335726Y277945D01*
X335849Y278197D01*
X335979Y278447D01*
X336114Y278693D01*
X336256Y278935D01*
X336403Y279175D01*
X336556Y279410D01*
X336715Y279642D01*
X336880Y279870D01*
X337050Y280093D01*
X337226Y280313D01*
X337406Y280528D01*
X337593Y280738D01*
X337784Y280944D01*
X337980Y281145D01*
X338181Y281341D01*
X338387Y281532D01*
X338597Y281719D01*
X338812Y281899D01*
X339032Y282075D01*
X339255Y282245D01*
X339483Y282410D01*
X339715Y282569D01*
X339950Y282722D01*
X340190Y282869D01*
X340432Y283011D01*
X340678Y283146D01*
X340928Y283276D01*
X341180Y283399D01*
X341436Y283516D01*
X341694Y283627D01*
X341955Y283731D01*
X342218Y283829D01*
X342484Y283920D01*
X342752Y284005D01*
X343022Y284083D01*
X343293Y284155D01*
X343567Y284220D01*
X343842Y284278D01*
X344118Y284329D01*
X344395Y284374D01*
X344674Y284412D01*
X344953Y284443D01*
X345233Y284467D01*
X345513Y284484D01*
X345794Y284495D01*
X346075Y284498D01*
X346356Y284495D01*
X346637Y284484D01*
X346917Y284467D01*
X347197Y284443D01*
X347476Y284412D01*
X347755Y284374D01*
X348032Y284329D01*
X348308Y284278D01*
X348583Y284220D01*
X348857Y284155D01*
X349128Y284083D01*
X349398Y284005D01*
X349666Y283920D01*
X349932Y283829D01*
X350195Y283731D01*
X350456Y283627D01*
X350714Y283516D01*
X350970Y283399D01*
X351222Y283276D01*
X351472Y283146D01*
X351718Y283011D01*
X351960Y282869D01*
X352200Y282722D01*
X352435Y282569D01*
X352667Y282410D01*
X352895Y282245D01*
X353118Y282075D01*
X353338Y281899D01*
X353553Y281719D01*
X353763Y281532D01*
X353969Y281341D01*
X354170Y281145D01*
X354366Y280944D01*
X354557Y280738D01*
X354744Y280528D01*
X354924Y280313D01*
X355100Y280093D01*
X355270Y279870D01*
X355435Y279642D01*
X355594Y279410D01*
X355747Y279175D01*
X355894Y278935D01*
X356036Y278693D01*
X356171Y278447D01*
X356301Y278197D01*
X356424Y277945D01*
X356541Y277689D01*
X356652Y277431D01*
X356756Y277170D01*
X356854Y276907D01*
X356945Y276641D01*
X357030Y276373D01*
X357108Y276103D01*
X357180Y275832D01*
X357245Y275558D01*
X357303Y275283D01*
X357354Y275007D01*
X357399Y274730D01*
X357437Y274451D01*
X357468Y274172D01*
X357492Y273892D01*
X357509Y273612D01*
X357520Y273331D01*
X357523Y273050D01*
X357520Y272769D01*
X357509Y272488D01*
X357492Y272208D01*
X357468Y271928D01*
X357437Y271649D01*
X357399Y271370D01*
X357354Y271093D01*
X357303Y270817D01*
X357245Y270542D01*
X357180Y270268D01*
X357108Y269997D01*
X357030Y269727D01*
X356945Y269459D01*
X356854Y269193D01*
X356756Y268930D01*
X356652Y268669D01*
X356541Y268411D01*
X356424Y268155D01*
X356301Y267903D01*
X356171Y267653D01*
X356036Y267407D01*
X355894Y267165D01*
X355747Y266925D01*
X355594Y266690D01*
X355435Y266458D01*
X355270Y266230D01*
X355100Y266007D01*
X354924Y265787D01*
X354744Y265572D01*
X354557Y265362D01*
X354366Y265156D01*
X354170Y264955D01*
X353969Y264759D01*
X353763Y264568D01*
X353553Y264381D01*
X353338Y264201D01*
X353118Y264025D01*
X352895Y263855D01*
X352667Y263690D01*
X352435Y263531D01*
X352200Y263378D01*
X351960Y263231D01*
X351718Y263089D01*
X351472Y262954D01*
X351222Y262824D01*
X350970Y262701D01*
X350714Y262584D01*
X350456Y262473D01*
X350195Y262369D01*
X349932Y262271D01*
X349666Y262180D01*
X349398Y262095D01*
X349128Y262017D01*
X348857Y261945D01*
X348583Y261880D01*
X348308Y261822D01*
X348032Y261771D01*
X347755Y261726D01*
X347476Y261688D01*
X347197Y261657D01*
X346917Y261633D01*
X346637Y261616D01*
X346356Y261605D01*
X346075Y261602D01*
X345794Y261605D01*
X345513Y261616D01*
X345233Y261633D01*
X344953Y261657D01*
X344674Y261688D01*
X344395Y261726D01*
X344118Y261771D01*
X343842Y261822D01*
X343567Y261880D01*
X343293Y261945D01*
X343022Y262017D01*
X342752Y262095D01*
X342484Y262180D01*
X342218Y262271D01*
X341955Y262369D01*
X341694Y262473D01*
X341436Y262584D01*
X341180Y262701D01*
X340928Y262824D01*
X340678Y262954D01*
X340432Y263089D01*
X340190Y263231D01*
X339950Y263378D01*
X339715Y263531D01*
X339483Y263690D01*
X339255Y263855D01*
X339032Y264025D01*
X338812Y264201D01*
X338597Y264381D01*
X338387Y264568D01*
X338181Y264759D01*
X337980Y264955D01*
X337784Y265156D01*
X337593Y265362D01*
X337406Y265572D01*
X337226Y265787D01*
X337050Y266007D01*
X336880Y266230D01*
X336715Y266458D01*
X336556Y266690D01*
X336403Y266925D01*
X336256Y267165D01*
X336114Y267407D01*
X335979Y267653D01*
X335849Y267903D01*
X335726Y268155D01*
X335609Y268411D01*
X335498Y268669D01*
X335394Y268930D01*
X335296Y269193D01*
X335205Y269459D01*
X335120Y269727D01*
X335042Y269997D01*
X334970Y270268D01*
X334905Y270542D01*
X334847Y270817D01*
X334796Y271093D01*
X334751Y271370D01*
X334713Y271649D01*
X334682Y271928D01*
X334658Y272208D01*
X334641Y272488D01*
X334630Y272769D01*
X334627Y273050D01*
X385427Y311150D02*
X385430Y311431D01*
X385441Y311712D01*
X385458Y311992D01*
X385482Y312272D01*
X385513Y312551D01*
X385551Y312830D01*
X385596Y313107D01*
X385647Y313383D01*
X385705Y313658D01*
X385770Y313932D01*
X385842Y314203D01*
X385920Y314473D01*
X386005Y314741D01*
X386096Y315007D01*
X386194Y315270D01*
X386298Y315531D01*
X386409Y315789D01*
X386526Y316045D01*
X386649Y316297D01*
X386779Y316547D01*
X386914Y316793D01*
X387056Y317035D01*
X387203Y317275D01*
X387356Y317510D01*
X387515Y317742D01*
X387680Y317970D01*
X387850Y318193D01*
X388026Y318413D01*
X388206Y318628D01*
X388393Y318838D01*
X388584Y319044D01*
X388780Y319245D01*
X388981Y319441D01*
X389187Y319632D01*
X389397Y319819D01*
X389612Y319999D01*
X389832Y320175D01*
X390055Y320345D01*
X390283Y320510D01*
X390515Y320669D01*
X390750Y320822D01*
X390990Y320969D01*
X391232Y321111D01*
X391478Y321246D01*
X391728Y321376D01*
X391980Y321499D01*
X392236Y321616D01*
X392494Y321727D01*
X392755Y321831D01*
X393018Y321929D01*
X393284Y322020D01*
X393552Y322105D01*
X393822Y322183D01*
X394093Y322255D01*
X394367Y322320D01*
X394642Y322378D01*
X394918Y322429D01*
X395195Y322474D01*
X395474Y322512D01*
X395753Y322543D01*
X396033Y322567D01*
X396313Y322584D01*
X396594Y322595D01*
X396875Y322598D01*
X397156Y322595D01*
X397437Y322584D01*
X397717Y322567D01*
X397997Y322543D01*
X398276Y322512D01*
X398555Y322474D01*
X398832Y322429D01*
X399108Y322378D01*
X399383Y322320D01*
X399657Y322255D01*
X399928Y322183D01*
X400198Y322105D01*
X400466Y322020D01*
X400732Y321929D01*
X400995Y321831D01*
X401256Y321727D01*
X401514Y321616D01*
X401770Y321499D01*
X402022Y321376D01*
X402272Y321246D01*
X402518Y321111D01*
X402760Y320969D01*
X403000Y320822D01*
X403235Y320669D01*
X403467Y320510D01*
X403695Y320345D01*
X403918Y320175D01*
X404138Y319999D01*
X404353Y319819D01*
X404563Y319632D01*
X404769Y319441D01*
X404970Y319245D01*
X405166Y319044D01*
X405357Y318838D01*
X405544Y318628D01*
X405724Y318413D01*
X405900Y318193D01*
X406070Y317970D01*
X406235Y317742D01*
X406394Y317510D01*
X406547Y317275D01*
X406694Y317035D01*
X406836Y316793D01*
X406971Y316547D01*
X407101Y316297D01*
X407224Y316045D01*
X407341Y315789D01*
X407452Y315531D01*
X407556Y315270D01*
X407654Y315007D01*
X407745Y314741D01*
X407830Y314473D01*
X407908Y314203D01*
X407980Y313932D01*
X408045Y313658D01*
X408103Y313383D01*
X408154Y313107D01*
X408199Y312830D01*
X408237Y312551D01*
X408268Y312272D01*
X408292Y311992D01*
X408309Y311712D01*
X408320Y311431D01*
X408323Y311150D01*
X408320Y310869D01*
X408309Y310588D01*
X408292Y310308D01*
X408268Y310028D01*
X408237Y309749D01*
X408199Y309470D01*
X408154Y309193D01*
X408103Y308917D01*
X408045Y308642D01*
X407980Y308368D01*
X407908Y308097D01*
X407830Y307827D01*
X407745Y307559D01*
X407654Y307293D01*
X407556Y307030D01*
X407452Y306769D01*
X407341Y306511D01*
X407224Y306255D01*
X407101Y306003D01*
X406971Y305753D01*
X406836Y305507D01*
X406694Y305265D01*
X406547Y305025D01*
X406394Y304790D01*
X406235Y304558D01*
X406070Y304330D01*
X405900Y304107D01*
X405724Y303887D01*
X405544Y303672D01*
X405357Y303462D01*
X405166Y303256D01*
X404970Y303055D01*
X404769Y302859D01*
X404563Y302668D01*
X404353Y302481D01*
X404138Y302301D01*
X403918Y302125D01*
X403695Y301955D01*
X403467Y301790D01*
X403235Y301631D01*
X403000Y301478D01*
X402760Y301331D01*
X402518Y301189D01*
X402272Y301054D01*
X402022Y300924D01*
X401770Y300801D01*
X401514Y300684D01*
X401256Y300573D01*
X400995Y300469D01*
X400732Y300371D01*
X400466Y300280D01*
X400198Y300195D01*
X399928Y300117D01*
X399657Y300045D01*
X399383Y299980D01*
X399108Y299922D01*
X398832Y299871D01*
X398555Y299826D01*
X398276Y299788D01*
X397997Y299757D01*
X397717Y299733D01*
X397437Y299716D01*
X397156Y299705D01*
X396875Y299702D01*
X396594Y299705D01*
X396313Y299716D01*
X396033Y299733D01*
X395753Y299757D01*
X395474Y299788D01*
X395195Y299826D01*
X394918Y299871D01*
X394642Y299922D01*
X394367Y299980D01*
X394093Y300045D01*
X393822Y300117D01*
X393552Y300195D01*
X393284Y300280D01*
X393018Y300371D01*
X392755Y300469D01*
X392494Y300573D01*
X392236Y300684D01*
X391980Y300801D01*
X391728Y300924D01*
X391478Y301054D01*
X391232Y301189D01*
X390990Y301331D01*
X390750Y301478D01*
X390515Y301631D01*
X390283Y301790D01*
X390055Y301955D01*
X389832Y302125D01*
X389612Y302301D01*
X389397Y302481D01*
X389187Y302668D01*
X388981Y302859D01*
X388780Y303055D01*
X388584Y303256D01*
X388393Y303462D01*
X388206Y303672D01*
X388026Y303887D01*
X387850Y304107D01*
X387680Y304330D01*
X387515Y304558D01*
X387356Y304790D01*
X387203Y305025D01*
X387056Y305265D01*
X386914Y305507D01*
X386779Y305753D01*
X386649Y306003D01*
X386526Y306255D01*
X386409Y306511D01*
X386298Y306769D01*
X386194Y307030D01*
X386096Y307293D01*
X386005Y307559D01*
X385920Y307827D01*
X385842Y308097D01*
X385770Y308368D01*
X385705Y308642D01*
X385647Y308917D01*
X385596Y309193D01*
X385551Y309470D01*
X385513Y309749D01*
X385482Y310028D01*
X385458Y310308D01*
X385441Y310588D01*
X385430Y310869D01*
X385427Y311150D01*
X385427Y285750D02*
X385430Y286031D01*
X385441Y286312D01*
X385458Y286592D01*
X385482Y286872D01*
X385513Y287151D01*
X385551Y287430D01*
X385596Y287707D01*
X385647Y287983D01*
X385705Y288258D01*
X385770Y288532D01*
X385842Y288803D01*
X385920Y289073D01*
X386005Y289341D01*
X386096Y289607D01*
X386194Y289870D01*
X386298Y290131D01*
X386409Y290389D01*
X386526Y290645D01*
X386649Y290897D01*
X386779Y291147D01*
X386914Y291393D01*
X387056Y291635D01*
X387203Y291875D01*
X387356Y292110D01*
X387515Y292342D01*
X387680Y292570D01*
X387850Y292793D01*
X388026Y293013D01*
X388206Y293228D01*
X388393Y293438D01*
X388584Y293644D01*
X388780Y293845D01*
X388981Y294041D01*
X389187Y294232D01*
X389397Y294419D01*
X389612Y294599D01*
X389832Y294775D01*
X390055Y294945D01*
X390283Y295110D01*
X390515Y295269D01*
X390750Y295422D01*
X390990Y295569D01*
X391232Y295711D01*
X391478Y295846D01*
X391728Y295976D01*
X391980Y296099D01*
X392236Y296216D01*
X392494Y296327D01*
X392755Y296431D01*
X393018Y296529D01*
X393284Y296620D01*
X393552Y296705D01*
X393822Y296783D01*
X394093Y296855D01*
X394367Y296920D01*
X394642Y296978D01*
X394918Y297029D01*
X395195Y297074D01*
X395474Y297112D01*
X395753Y297143D01*
X396033Y297167D01*
X396313Y297184D01*
X396594Y297195D01*
X396875Y297198D01*
X397156Y297195D01*
X397437Y297184D01*
X397717Y297167D01*
X397997Y297143D01*
X398276Y297112D01*
X398555Y297074D01*
X398832Y297029D01*
X399108Y296978D01*
X399383Y296920D01*
X399657Y296855D01*
X399928Y296783D01*
X400198Y296705D01*
X400466Y296620D01*
X400732Y296529D01*
X400995Y296431D01*
X401256Y296327D01*
X401514Y296216D01*
X401770Y296099D01*
X402022Y295976D01*
X402272Y295846D01*
X402518Y295711D01*
X402760Y295569D01*
X403000Y295422D01*
X403235Y295269D01*
X403467Y295110D01*
X403695Y294945D01*
X403918Y294775D01*
X404138Y294599D01*
X404353Y294419D01*
X404563Y294232D01*
X404769Y294041D01*
X404970Y293845D01*
X405166Y293644D01*
X405357Y293438D01*
X405544Y293228D01*
X405724Y293013D01*
X405900Y292793D01*
X406070Y292570D01*
X406235Y292342D01*
X406394Y292110D01*
X406547Y291875D01*
X406694Y291635D01*
X406836Y291393D01*
X406971Y291147D01*
X407101Y290897D01*
X407224Y290645D01*
X407341Y290389D01*
X407452Y290131D01*
X407556Y289870D01*
X407654Y289607D01*
X407745Y289341D01*
X407830Y289073D01*
X407908Y288803D01*
X407980Y288532D01*
X408045Y288258D01*
X408103Y287983D01*
X408154Y287707D01*
X408199Y287430D01*
X408237Y287151D01*
X408268Y286872D01*
X408292Y286592D01*
X408309Y286312D01*
X408320Y286031D01*
X408323Y285750D01*
X408320Y285469D01*
X408309Y285188D01*
X408292Y284908D01*
X408268Y284628D01*
X408237Y284349D01*
X408199Y284070D01*
X408154Y283793D01*
X408103Y283517D01*
X408045Y283242D01*
X407980Y282968D01*
X407908Y282697D01*
X407830Y282427D01*
X407745Y282159D01*
X407654Y281893D01*
X407556Y281630D01*
X407452Y281369D01*
X407341Y281111D01*
X407224Y280855D01*
X407101Y280603D01*
X406971Y280353D01*
X406836Y280107D01*
X406694Y279865D01*
X406547Y279625D01*
X406394Y279390D01*
X406235Y279158D01*
X406070Y278930D01*
X405900Y278707D01*
X405724Y278487D01*
X405544Y278272D01*
X405357Y278062D01*
X405166Y277856D01*
X404970Y277655D01*
X404769Y277459D01*
X404563Y277268D01*
X404353Y277081D01*
X404138Y276901D01*
X403918Y276725D01*
X403695Y276555D01*
X403467Y276390D01*
X403235Y276231D01*
X403000Y276078D01*
X402760Y275931D01*
X402518Y275789D01*
X402272Y275654D01*
X402022Y275524D01*
X401770Y275401D01*
X401514Y275284D01*
X401256Y275173D01*
X400995Y275069D01*
X400732Y274971D01*
X400466Y274880D01*
X400198Y274795D01*
X399928Y274717D01*
X399657Y274645D01*
X399383Y274580D01*
X399108Y274522D01*
X398832Y274471D01*
X398555Y274426D01*
X398276Y274388D01*
X397997Y274357D01*
X397717Y274333D01*
X397437Y274316D01*
X397156Y274305D01*
X396875Y274302D01*
X396594Y274305D01*
X396313Y274316D01*
X396033Y274333D01*
X395753Y274357D01*
X395474Y274388D01*
X395195Y274426D01*
X394918Y274471D01*
X394642Y274522D01*
X394367Y274580D01*
X394093Y274645D01*
X393822Y274717D01*
X393552Y274795D01*
X393284Y274880D01*
X393018Y274971D01*
X392755Y275069D01*
X392494Y275173D01*
X392236Y275284D01*
X391980Y275401D01*
X391728Y275524D01*
X391478Y275654D01*
X391232Y275789D01*
X390990Y275931D01*
X390750Y276078D01*
X390515Y276231D01*
X390283Y276390D01*
X390055Y276555D01*
X389832Y276725D01*
X389612Y276901D01*
X389397Y277081D01*
X389187Y277268D01*
X388981Y277459D01*
X388780Y277655D01*
X388584Y277856D01*
X388393Y278062D01*
X388206Y278272D01*
X388026Y278487D01*
X387850Y278707D01*
X387680Y278930D01*
X387515Y279158D01*
X387356Y279390D01*
X387203Y279625D01*
X387056Y279865D01*
X386914Y280107D01*
X386779Y280353D01*
X386649Y280603D01*
X386526Y280855D01*
X386409Y281111D01*
X386298Y281369D01*
X386194Y281630D01*
X386096Y281893D01*
X386005Y282159D01*
X385920Y282427D01*
X385842Y282697D01*
X385770Y282968D01*
X385705Y283242D01*
X385647Y283517D01*
X385596Y283793D01*
X385551Y284070D01*
X385513Y284349D01*
X385482Y284628D01*
X385458Y284908D01*
X385441Y285188D01*
X385430Y285469D01*
X385427Y285750D01*
X461850Y311150D02*
X461853Y311425D01*
X461864Y311701D01*
X461880Y311976D01*
X461904Y312250D01*
X461934Y312524D01*
X461971Y312797D01*
X462015Y313069D01*
X462066Y313340D01*
X462123Y313609D01*
X462186Y313877D01*
X462257Y314144D01*
X462333Y314408D01*
X462417Y314671D01*
X462506Y314932D01*
X462602Y315190D01*
X462704Y315446D01*
X462813Y315699D01*
X462928Y315949D01*
X463049Y316197D01*
X463175Y316441D01*
X463308Y316683D01*
X463447Y316921D01*
X463592Y317155D01*
X463742Y317386D01*
X463898Y317613D01*
X464059Y317837D01*
X464226Y318056D01*
X464398Y318271D01*
X464575Y318482D01*
X464758Y318688D01*
X464945Y318890D01*
X465138Y319087D01*
X465335Y319280D01*
X465537Y319467D01*
X465743Y319650D01*
X465954Y319827D01*
X466169Y319999D01*
X466388Y320166D01*
X466612Y320327D01*
X466839Y320483D01*
X467070Y320633D01*
X467304Y320778D01*
X467542Y320917D01*
X467784Y321050D01*
X468028Y321176D01*
X468276Y321297D01*
X468526Y321412D01*
X468779Y321521D01*
X469035Y321623D01*
X469293Y321719D01*
X469554Y321808D01*
X469817Y321892D01*
X470081Y321968D01*
X470348Y322039D01*
X470616Y322102D01*
X470885Y322159D01*
X471156Y322210D01*
X471428Y322254D01*
X471701Y322291D01*
X471975Y322321D01*
X472249Y322345D01*
X472524Y322361D01*
X472800Y322372D01*
X473075Y322375D01*
X473350Y322372D01*
X473626Y322361D01*
X473901Y322345D01*
X474175Y322321D01*
X474449Y322291D01*
X474722Y322254D01*
X474994Y322210D01*
X475265Y322159D01*
X475534Y322102D01*
X475802Y322039D01*
X476069Y321968D01*
X476333Y321892D01*
X476596Y321808D01*
X476857Y321719D01*
X477115Y321623D01*
X477371Y321521D01*
X477624Y321412D01*
X477874Y321297D01*
X478122Y321176D01*
X478366Y321050D01*
X478608Y320917D01*
X478846Y320778D01*
X479080Y320633D01*
X479311Y320483D01*
X479538Y320327D01*
X479762Y320166D01*
X479981Y319999D01*
X480196Y319827D01*
X480407Y319650D01*
X480613Y319467D01*
X480815Y319280D01*
X481012Y319087D01*
X481205Y318890D01*
X481392Y318688D01*
X481575Y318482D01*
X481752Y318271D01*
X481924Y318056D01*
X482091Y317837D01*
X482252Y317613D01*
X482408Y317386D01*
X482558Y317155D01*
X482703Y316921D01*
X482842Y316683D01*
X482975Y316441D01*
X483101Y316197D01*
X483222Y315949D01*
X483337Y315699D01*
X483446Y315446D01*
X483548Y315190D01*
X483644Y314932D01*
X483733Y314671D01*
X483817Y314408D01*
X483893Y314144D01*
X483964Y313877D01*
X484027Y313609D01*
X484084Y313340D01*
X484135Y313069D01*
X484179Y312797D01*
X484216Y312524D01*
X484246Y312250D01*
X484270Y311976D01*
X484286Y311701D01*
X484297Y311425D01*
X484300Y311150D01*
X484297Y310875D01*
X484286Y310599D01*
X484270Y310324D01*
X484246Y310050D01*
X484216Y309776D01*
X484179Y309503D01*
X484135Y309231D01*
X484084Y308960D01*
X484027Y308691D01*
X483964Y308423D01*
X483893Y308156D01*
X483817Y307892D01*
X483733Y307629D01*
X483644Y307368D01*
X483548Y307110D01*
X483446Y306854D01*
X483337Y306601D01*
X483222Y306351D01*
X483101Y306103D01*
X482975Y305859D01*
X482842Y305617D01*
X482703Y305379D01*
X482558Y305145D01*
X482408Y304914D01*
X482252Y304687D01*
X482091Y304463D01*
X481924Y304244D01*
X481752Y304029D01*
X481575Y303818D01*
X481392Y303612D01*
X481205Y303410D01*
X481012Y303213D01*
X480815Y303020D01*
X480613Y302833D01*
X480407Y302650D01*
X480196Y302473D01*
X479981Y302301D01*
X479762Y302134D01*
X479538Y301973D01*
X479311Y301817D01*
X479080Y301667D01*
X478846Y301522D01*
X478608Y301383D01*
X478366Y301250D01*
X478122Y301124D01*
X477874Y301003D01*
X477624Y300888D01*
X477371Y300779D01*
X477115Y300677D01*
X476857Y300581D01*
X476596Y300492D01*
X476333Y300408D01*
X476069Y300332D01*
X475802Y300261D01*
X475534Y300198D01*
X475265Y300141D01*
X474994Y300090D01*
X474722Y300046D01*
X474449Y300009D01*
X474175Y299979D01*
X473901Y299955D01*
X473626Y299939D01*
X473350Y299928D01*
X473075Y299925D01*
X472800Y299928D01*
X472524Y299939D01*
X472249Y299955D01*
X471975Y299979D01*
X471701Y300009D01*
X471428Y300046D01*
X471156Y300090D01*
X470885Y300141D01*
X470616Y300198D01*
X470348Y300261D01*
X470081Y300332D01*
X469817Y300408D01*
X469554Y300492D01*
X469293Y300581D01*
X469035Y300677D01*
X468779Y300779D01*
X468526Y300888D01*
X468276Y301003D01*
X468028Y301124D01*
X467784Y301250D01*
X467542Y301383D01*
X467304Y301522D01*
X467070Y301667D01*
X466839Y301817D01*
X466612Y301973D01*
X466388Y302134D01*
X466169Y302301D01*
X465954Y302473D01*
X465743Y302650D01*
X465537Y302833D01*
X465335Y303020D01*
X465138Y303213D01*
X464945Y303410D01*
X464758Y303612D01*
X464575Y303818D01*
X464398Y304029D01*
X464226Y304244D01*
X464059Y304463D01*
X463898Y304687D01*
X463742Y304914D01*
X463592Y305145D01*
X463447Y305379D01*
X463308Y305617D01*
X463175Y305859D01*
X463049Y306103D01*
X462928Y306351D01*
X462813Y306601D01*
X462704Y306854D01*
X462602Y307110D01*
X462506Y307368D01*
X462417Y307629D01*
X462333Y307892D01*
X462257Y308156D01*
X462186Y308423D01*
X462123Y308691D01*
X462066Y308960D01*
X462015Y309231D01*
X461971Y309503D01*
X461934Y309776D01*
X461904Y310050D01*
X461880Y310324D01*
X461864Y310599D01*
X461853Y310875D01*
X461850Y311150D01*
X461518Y285750D02*
X461521Y286034D01*
X461532Y286317D01*
X461549Y286600D01*
X461574Y286883D01*
X461605Y287165D01*
X461643Y287446D01*
X461688Y287726D01*
X461740Y288005D01*
X461799Y288282D01*
X461864Y288558D01*
X461937Y288832D01*
X462016Y289105D01*
X462101Y289375D01*
X462194Y289643D01*
X462292Y289909D01*
X462398Y290173D01*
X462509Y290433D01*
X462628Y290691D01*
X462752Y290946D01*
X462883Y291198D01*
X463019Y291446D01*
X463162Y291691D01*
X463311Y291933D01*
X463466Y292171D01*
X463626Y292405D01*
X463792Y292634D01*
X463964Y292860D01*
X464141Y293082D01*
X464324Y293299D01*
X464512Y293511D01*
X464705Y293719D01*
X464903Y293922D01*
X465106Y294120D01*
X465314Y294313D01*
X465526Y294501D01*
X465743Y294684D01*
X465965Y294861D01*
X466191Y295033D01*
X466420Y295199D01*
X466654Y295359D01*
X466892Y295514D01*
X467134Y295663D01*
X467379Y295806D01*
X467627Y295942D01*
X467879Y296073D01*
X468134Y296197D01*
X468392Y296316D01*
X468652Y296427D01*
X468916Y296533D01*
X469182Y296631D01*
X469450Y296724D01*
X469720Y296809D01*
X469993Y296888D01*
X470267Y296961D01*
X470543Y297026D01*
X470820Y297085D01*
X471099Y297137D01*
X471379Y297182D01*
X471660Y297220D01*
X471942Y297251D01*
X472225Y297276D01*
X472508Y297293D01*
X472791Y297304D01*
X473075Y297307D01*
X473359Y297304D01*
X473642Y297293D01*
X473925Y297276D01*
X474208Y297251D01*
X474490Y297220D01*
X474771Y297182D01*
X475051Y297137D01*
X475330Y297085D01*
X475607Y297026D01*
X475883Y296961D01*
X476157Y296888D01*
X476430Y296809D01*
X476700Y296724D01*
X476968Y296631D01*
X477234Y296533D01*
X477498Y296427D01*
X477758Y296316D01*
X478016Y296197D01*
X478271Y296073D01*
X478523Y295942D01*
X478771Y295806D01*
X479016Y295663D01*
X479258Y295514D01*
X479496Y295359D01*
X479730Y295199D01*
X479959Y295033D01*
X480185Y294861D01*
X480407Y294684D01*
X480624Y294501D01*
X480836Y294313D01*
X481044Y294120D01*
X481247Y293922D01*
X481445Y293719D01*
X481638Y293511D01*
X481826Y293299D01*
X482009Y293082D01*
X482186Y292860D01*
X482358Y292634D01*
X482524Y292405D01*
X482684Y292171D01*
X482839Y291933D01*
X482988Y291691D01*
X483131Y291446D01*
X483267Y291198D01*
X483398Y290946D01*
X483522Y290691D01*
X483641Y290433D01*
X483752Y290173D01*
X483858Y289909D01*
X483956Y289643D01*
X484049Y289375D01*
X484134Y289105D01*
X484213Y288832D01*
X484286Y288558D01*
X484351Y288282D01*
X484410Y288005D01*
X484462Y287726D01*
X484507Y287446D01*
X484545Y287165D01*
X484576Y286883D01*
X484601Y286600D01*
X484618Y286317D01*
X484629Y286034D01*
X484632Y285750D01*
X484629Y285466D01*
X484618Y285183D01*
X484601Y284900D01*
X484576Y284617D01*
X484545Y284335D01*
X484507Y284054D01*
X484462Y283774D01*
X484410Y283495D01*
X484351Y283218D01*
X484286Y282942D01*
X484213Y282668D01*
X484134Y282395D01*
X484049Y282125D01*
X483956Y281857D01*
X483858Y281591D01*
X483752Y281327D01*
X483641Y281067D01*
X483522Y280809D01*
X483398Y280554D01*
X483267Y280302D01*
X483131Y280054D01*
X482988Y279809D01*
X482839Y279567D01*
X482684Y279329D01*
X482524Y279095D01*
X482358Y278866D01*
X482186Y278640D01*
X482009Y278418D01*
X481826Y278201D01*
X481638Y277989D01*
X481445Y277781D01*
X481247Y277578D01*
X481044Y277380D01*
X480836Y277187D01*
X480624Y276999D01*
X480407Y276816D01*
X480185Y276639D01*
X479959Y276467D01*
X479730Y276301D01*
X479496Y276141D01*
X479258Y275986D01*
X479016Y275837D01*
X478771Y275694D01*
X478523Y275558D01*
X478271Y275427D01*
X478016Y275303D01*
X477758Y275184D01*
X477498Y275073D01*
X477234Y274967D01*
X476968Y274869D01*
X476700Y274776D01*
X476430Y274691D01*
X476157Y274612D01*
X475883Y274539D01*
X475607Y274474D01*
X475330Y274415D01*
X475051Y274363D01*
X474771Y274318D01*
X474490Y274280D01*
X474208Y274249D01*
X473925Y274224D01*
X473642Y274207D01*
X473359Y274196D01*
X473075Y274193D01*
X472791Y274196D01*
X472508Y274207D01*
X472225Y274224D01*
X471942Y274249D01*
X471660Y274280D01*
X471379Y274318D01*
X471099Y274363D01*
X470820Y274415D01*
X470543Y274474D01*
X470267Y274539D01*
X469993Y274612D01*
X469720Y274691D01*
X469450Y274776D01*
X469182Y274869D01*
X468916Y274967D01*
X468652Y275073D01*
X468392Y275184D01*
X468134Y275303D01*
X467879Y275427D01*
X467627Y275558D01*
X467379Y275694D01*
X467134Y275837D01*
X466892Y275986D01*
X466654Y276141D01*
X466420Y276301D01*
X466191Y276467D01*
X465965Y276639D01*
X465743Y276816D01*
X465526Y276999D01*
X465314Y277187D01*
X465106Y277380D01*
X464903Y277578D01*
X464705Y277781D01*
X464512Y277989D01*
X464324Y278201D01*
X464141Y278418D01*
X463964Y278640D01*
X463792Y278866D01*
X463626Y279095D01*
X463466Y279329D01*
X463311Y279567D01*
X463162Y279809D01*
X463019Y280054D01*
X462883Y280302D01*
X462752Y280554D01*
X462628Y280809D01*
X462509Y281067D01*
X462398Y281327D01*
X462292Y281591D01*
X462194Y281857D01*
X462101Y282125D01*
X462016Y282395D01*
X461937Y282668D01*
X461864Y282942D01*
X461799Y283218D01*
X461740Y283495D01*
X461688Y283774D01*
X461643Y284054D01*
X461605Y284335D01*
X461574Y284617D01*
X461549Y284900D01*
X461532Y285183D01*
X461521Y285466D01*
X461518Y285750D01*
X1791653Y177800D02*
X1799590Y177800D01*
X1801508Y177823D01*
X1803425Y177893D01*
X1805340Y178009D01*
X1807251Y178171D01*
X1809158Y178379D01*
X1811059Y178633D01*
X1812953Y178933D01*
X1814840Y179279D01*
X1816718Y179670D01*
X1818586Y180106D01*
X1820442Y180588D01*
X1822287Y181114D01*
X1824118Y181685D01*
X1825935Y182300D01*
X1827737Y182958D01*
X1829522Y183660D01*
X1831290Y184405D01*
X1833039Y185192D01*
X1834768Y186021D01*
X1836477Y186892D01*
X1838165Y187804D01*
X1839830Y188756D01*
X1841471Y189748D01*
X1843088Y190780D01*
X1844680Y191851D01*
X1846245Y192959D01*
X1847784Y194105D01*
X1849293Y195288D01*
X1850774Y196507D01*
X1852225Y197762D01*
X1853646Y199051D01*
X1855034Y200374D01*
X1856391Y201731D01*
X1857714Y203119D01*
X1859003Y204540D01*
X1860258Y205991D01*
X1861477Y207472D01*
X1862660Y208981D01*
X1863806Y210520D01*
X1864914Y212085D01*
X1865985Y213677D01*
X1867017Y215294D01*
X1868009Y216935D01*
X1868961Y218600D01*
X1869873Y220288D01*
X1870744Y221997D01*
X1871573Y223726D01*
X1872360Y225475D01*
X1873105Y227243D01*
X1873807Y229028D01*
X1874465Y230830D01*
X1875080Y232647D01*
X1875651Y234478D01*
X1876177Y236323D01*
X1876659Y238179D01*
X1877095Y240047D01*
X1877486Y241925D01*
X1877832Y243812D01*
X1878132Y245706D01*
X1878386Y247607D01*
X1878594Y249514D01*
X1878756Y251425D01*
X1878872Y253340D01*
X1878942Y255257D01*
X1878965Y257175D01*
X1878965Y346075D01*
X1878940Y348146D01*
X1878865Y350217D01*
X1878740Y352284D01*
X1878565Y354349D01*
X1878340Y356408D01*
X1878065Y358461D01*
X1877741Y360507D01*
X1877368Y362545D01*
X1876945Y364573D01*
X1876474Y366590D01*
X1875954Y368596D01*
X1875386Y370588D01*
X1874769Y372565D01*
X1874105Y374528D01*
X1873394Y376474D01*
X1872636Y378401D01*
X1871832Y380311D01*
X1870982Y382200D01*
X1870086Y384068D01*
X1869146Y385913D01*
X1868161Y387736D01*
X1867132Y389534D01*
X1866061Y391307D01*
X1864946Y393053D01*
X1863790Y394772D01*
X1862593Y396463D01*
X1861355Y398124D01*
X1860078Y399755D01*
X1858761Y401354D01*
X1857406Y402921D01*
X1856014Y404455D01*
X1854585Y405955D01*
X1853120Y407420D01*
X1851620Y408849D01*
X1850086Y410241D01*
X1848519Y411596D01*
X1846920Y412913D01*
X1845289Y414190D01*
X1843628Y415428D01*
X1841937Y416625D01*
X1840218Y417781D01*
X1838472Y418896D01*
X1836699Y419967D01*
X1834901Y420996D01*
X1833078Y421981D01*
X1831233Y422921D01*
X1829365Y423817D01*
X1827476Y424667D01*
X1825566Y425471D01*
X1823639Y426229D01*
X1821693Y426940D01*
X1819730Y427604D01*
X1817753Y428221D01*
X1815761Y428789D01*
X1813755Y429309D01*
X1811738Y429780D01*
X1809710Y430203D01*
X1807672Y430576D01*
X1805626Y430900D01*
X1803573Y431175D01*
X1801514Y431400D01*
X1799449Y431575D01*
X1797382Y431700D01*
X1795311Y431775D01*
X1793240Y431800D01*
X249238Y431801D02*
X248509Y431792D01*
X247781Y431766D01*
X247053Y431722D01*
X246327Y431660D01*
X245602Y431581D01*
X244880Y431484D01*
X244160Y431370D01*
X243443Y431239D01*
X242729Y431090D01*
X242020Y430925D01*
X241314Y430742D01*
X240613Y430542D01*
X239917Y430325D01*
X239227Y430091D01*
X238542Y429841D01*
X237864Y429574D01*
X237192Y429291D01*
X236527Y428992D01*
X235870Y428677D01*
X235221Y428346D01*
X234579Y427999D01*
X233947Y427638D01*
X233323Y427261D01*
X232708Y426868D01*
X232103Y426462D01*
X231509Y426040D01*
X230924Y425605D01*
X230350Y425155D01*
X229788Y424692D01*
X229236Y424215D01*
X228697Y423725D01*
X228169Y423223D01*
X227653Y422707D01*
X227151Y422179D01*
X226661Y421640D01*
X226184Y421088D01*
X225721Y420526D01*
X225271Y419952D01*
X224836Y419367D01*
X224414Y418773D01*
X224008Y418168D01*
X223615Y417553D01*
X223238Y416929D01*
X222877Y416297D01*
X222530Y415655D01*
X222199Y415006D01*
X221884Y414349D01*
X221585Y413684D01*
X221302Y413012D01*
X221035Y412334D01*
X220785Y411649D01*
X220551Y410959D01*
X220334Y410263D01*
X220134Y409562D01*
X219951Y408856D01*
X219786Y408147D01*
X219637Y407433D01*
X219506Y406716D01*
X219392Y405996D01*
X219295Y405274D01*
X219216Y404549D01*
X219154Y403823D01*
X219110Y403095D01*
X219084Y402367D01*
X219075Y401638D01*
X219075Y207963D02*
X219084Y207234D01*
X219110Y206506D01*
X219154Y205778D01*
X219216Y205052D01*
X219295Y204327D01*
X219392Y203605D01*
X219506Y202885D01*
X219637Y202168D01*
X219786Y201454D01*
X219951Y200745D01*
X220134Y200039D01*
X220334Y199338D01*
X220551Y198642D01*
X220785Y197952D01*
X221035Y197267D01*
X221302Y196589D01*
X221585Y195917D01*
X221884Y195252D01*
X222199Y194595D01*
X222530Y193946D01*
X222877Y193304D01*
X223238Y192672D01*
X223615Y192048D01*
X224008Y191433D01*
X224414Y190828D01*
X224836Y190234D01*
X225271Y189649D01*
X225721Y189075D01*
X226184Y188513D01*
X226661Y187961D01*
X227151Y187422D01*
X227653Y186894D01*
X228169Y186378D01*
X228697Y185876D01*
X229236Y185386D01*
X229788Y184909D01*
X230350Y184446D01*
X230924Y183996D01*
X231509Y183561D01*
X232103Y183139D01*
X232708Y182733D01*
X233323Y182340D01*
X233947Y181963D01*
X234579Y181602D01*
X235221Y181255D01*
X235870Y180924D01*
X236527Y180609D01*
X237192Y180310D01*
X237864Y180027D01*
X238542Y179760D01*
X239227Y179510D01*
X239917Y179276D01*
X240613Y179059D01*
X241314Y178859D01*
X242020Y178676D01*
X242729Y178511D01*
X243443Y178362D01*
X244160Y178231D01*
X244880Y178117D01*
X245602Y178020D01*
X246327Y177941D01*
X247053Y177879D01*
X247781Y177835D01*
X248509Y177809D01*
X249238Y177800D01*
X1306513Y431800D02*
X1306671Y431798D01*
X1306830Y431792D01*
X1306988Y431782D01*
X1307145Y431768D01*
X1307303Y431751D01*
X1307459Y431729D01*
X1307616Y431704D01*
X1307771Y431674D01*
X1307926Y431641D01*
X1308080Y431604D01*
X1308233Y431563D01*
X1308385Y431518D01*
X1308535Y431469D01*
X1308685Y431417D01*
X1308833Y431361D01*
X1308980Y431301D01*
X1309125Y431238D01*
X1309268Y431171D01*
X1309410Y431101D01*
X1309550Y431027D01*
X1309688Y430949D01*
X1309824Y430868D01*
X1309958Y430784D01*
X1310090Y430697D01*
X1310220Y430606D01*
X1310347Y430512D01*
X1310472Y430415D01*
X1310595Y430314D01*
X1310715Y430211D01*
X1310832Y430105D01*
X1310947Y429996D01*
X1311059Y429884D01*
X1311168Y429769D01*
X1311274Y429652D01*
X1311377Y429532D01*
X1311478Y429409D01*
X1311575Y429284D01*
X1311669Y429157D01*
X1311760Y429027D01*
X1311847Y428895D01*
X1311931Y428761D01*
X1312012Y428625D01*
X1312090Y428487D01*
X1312164Y428347D01*
X1312234Y428205D01*
X1312301Y428062D01*
X1312364Y427917D01*
X1312424Y427770D01*
X1312480Y427622D01*
X1312532Y427472D01*
X1312581Y427322D01*
X1312626Y427170D01*
X1312667Y427017D01*
X1312704Y426863D01*
X1312737Y426708D01*
X1312767Y426553D01*
X1312792Y426396D01*
X1312814Y426240D01*
X1312831Y426082D01*
X1312845Y425925D01*
X1312855Y425767D01*
X1312861Y425608D01*
X1312863Y425450D01*
X1236663Y431800D02*
X1236505Y431798D01*
X1236346Y431792D01*
X1236188Y431782D01*
X1236031Y431768D01*
X1235873Y431751D01*
X1235717Y431729D01*
X1235560Y431704D01*
X1235405Y431674D01*
X1235250Y431641D01*
X1235096Y431604D01*
X1234943Y431563D01*
X1234791Y431518D01*
X1234641Y431469D01*
X1234491Y431417D01*
X1234343Y431361D01*
X1234196Y431301D01*
X1234051Y431238D01*
X1233908Y431171D01*
X1233766Y431101D01*
X1233626Y431027D01*
X1233488Y430949D01*
X1233352Y430868D01*
X1233218Y430784D01*
X1233086Y430697D01*
X1232956Y430606D01*
X1232829Y430512D01*
X1232704Y430415D01*
X1232581Y430314D01*
X1232461Y430211D01*
X1232344Y430105D01*
X1232229Y429996D01*
X1232117Y429884D01*
X1232008Y429769D01*
X1231902Y429652D01*
X1231799Y429532D01*
X1231698Y429409D01*
X1231601Y429284D01*
X1231507Y429157D01*
X1231416Y429027D01*
X1231329Y428895D01*
X1231245Y428761D01*
X1231164Y428625D01*
X1231086Y428487D01*
X1231012Y428347D01*
X1230942Y428205D01*
X1230875Y428062D01*
X1230812Y427917D01*
X1230752Y427770D01*
X1230696Y427622D01*
X1230644Y427472D01*
X1230595Y427322D01*
X1230550Y427170D01*
X1230509Y427017D01*
X1230472Y426863D01*
X1230439Y426708D01*
X1230409Y426553D01*
X1230384Y426396D01*
X1230362Y426240D01*
X1230345Y426082D01*
X1230331Y425925D01*
X1230321Y425767D01*
X1230315Y425608D01*
X1230313Y425450D01*
X1230312Y185738D02*
X1230314Y185546D01*
X1230321Y185354D01*
X1230333Y185163D01*
X1230349Y184972D01*
X1230370Y184781D01*
X1230395Y184591D01*
X1230425Y184402D01*
X1230460Y184213D01*
X1230499Y184025D01*
X1230543Y183838D01*
X1230591Y183653D01*
X1230643Y183468D01*
X1230701Y183285D01*
X1230762Y183103D01*
X1230828Y182923D01*
X1230898Y182745D01*
X1230973Y182568D01*
X1231051Y182393D01*
X1231134Y182220D01*
X1231221Y182049D01*
X1231312Y181880D01*
X1231408Y181714D01*
X1231507Y181550D01*
X1231610Y181388D01*
X1231717Y181229D01*
X1231828Y181072D01*
X1231943Y180918D01*
X1232061Y180767D01*
X1232183Y180619D01*
X1232308Y180474D01*
X1232437Y180332D01*
X1232570Y180193D01*
X1232705Y180058D01*
X1232844Y179925D01*
X1232986Y179796D01*
X1233131Y179671D01*
X1233279Y179549D01*
X1233430Y179431D01*
X1233584Y179316D01*
X1233741Y179205D01*
X1233900Y179098D01*
X1234062Y178995D01*
X1234226Y178896D01*
X1234392Y178800D01*
X1234561Y178709D01*
X1234732Y178622D01*
X1234905Y178539D01*
X1235080Y178461D01*
X1235257Y178386D01*
X1235435Y178316D01*
X1235615Y178250D01*
X1235797Y178189D01*
X1235980Y178131D01*
X1236165Y178079D01*
X1236350Y178031D01*
X1236537Y177987D01*
X1236725Y177948D01*
X1236914Y177913D01*
X1237103Y177883D01*
X1237293Y177858D01*
X1237484Y177837D01*
X1237675Y177821D01*
X1237866Y177809D01*
X1238058Y177802D01*
X1238250Y177800D01*
X1304925Y177800D02*
X1305117Y177802D01*
X1305309Y177809D01*
X1305500Y177821D01*
X1305691Y177837D01*
X1305882Y177858D01*
X1306072Y177883D01*
X1306261Y177913D01*
X1306450Y177948D01*
X1306638Y177987D01*
X1306825Y178031D01*
X1307010Y178079D01*
X1307195Y178131D01*
X1307378Y178189D01*
X1307560Y178250D01*
X1307740Y178316D01*
X1307918Y178386D01*
X1308095Y178461D01*
X1308270Y178539D01*
X1308443Y178622D01*
X1308614Y178709D01*
X1308783Y178800D01*
X1308949Y178896D01*
X1309113Y178995D01*
X1309275Y179098D01*
X1309434Y179205D01*
X1309591Y179316D01*
X1309745Y179431D01*
X1309896Y179549D01*
X1310044Y179671D01*
X1310189Y179796D01*
X1310331Y179925D01*
X1310470Y180058D01*
X1310605Y180193D01*
X1310738Y180332D01*
X1310867Y180474D01*
X1310992Y180619D01*
X1311114Y180767D01*
X1311232Y180918D01*
X1311347Y181072D01*
X1311458Y181229D01*
X1311565Y181388D01*
X1311668Y181550D01*
X1311767Y181714D01*
X1311863Y181880D01*
X1311954Y182049D01*
X1312041Y182220D01*
X1312124Y182393D01*
X1312202Y182568D01*
X1312277Y182745D01*
X1312347Y182923D01*
X1312413Y183103D01*
X1312474Y183285D01*
X1312532Y183468D01*
X1312584Y183653D01*
X1312632Y183838D01*
X1312676Y184025D01*
X1312715Y184213D01*
X1312750Y184402D01*
X1312780Y184591D01*
X1312805Y184781D01*
X1312826Y184972D01*
X1312842Y185163D01*
X1312854Y185354D01*
X1312861Y185546D01*
X1312863Y185738D01*
X1788477Y427038D02*
X1788479Y427174D01*
X1788485Y427310D01*
X1788494Y427446D01*
X1788508Y427581D01*
X1788525Y427716D01*
X1788547Y427850D01*
X1788572Y427984D01*
X1788601Y428117D01*
X1788633Y428249D01*
X1788670Y428380D01*
X1788710Y428510D01*
X1788754Y428639D01*
X1788802Y428766D01*
X1788853Y428892D01*
X1788907Y429017D01*
X1788966Y429140D01*
X1789027Y429261D01*
X1789093Y429380D01*
X1789161Y429498D01*
X1789233Y429613D01*
X1789308Y429726D01*
X1789387Y429838D01*
X1789468Y429947D01*
X1789553Y430053D01*
X1789640Y430157D01*
X1789731Y430259D01*
X1789824Y430358D01*
X1789920Y430454D01*
X1790019Y430547D01*
X1790121Y430638D01*
X1790225Y430725D01*
X1790331Y430810D01*
X1790440Y430891D01*
X1790552Y430970D01*
X1790665Y431045D01*
X1790780Y431117D01*
X1790898Y431185D01*
X1791017Y431251D01*
X1791138Y431312D01*
X1791261Y431371D01*
X1791386Y431425D01*
X1791512Y431476D01*
X1791639Y431524D01*
X1791768Y431568D01*
X1791898Y431608D01*
X1792029Y431645D01*
X1792161Y431677D01*
X1792294Y431706D01*
X1792428Y431731D01*
X1792562Y431753D01*
X1792697Y431770D01*
X1792832Y431784D01*
X1792968Y431793D01*
X1793104Y431799D01*
X1793240Y431801D01*
X1788478Y427038D02*
X1788478Y180975D01*
X1788480Y180864D01*
X1788486Y180754D01*
X1788495Y180643D01*
X1788509Y180533D01*
X1788526Y180424D01*
X1788547Y180315D01*
X1788572Y180207D01*
X1788601Y180100D01*
X1788633Y179994D01*
X1788669Y179889D01*
X1788709Y179786D01*
X1788752Y179684D01*
X1788799Y179583D01*
X1788850Y179484D01*
X1788903Y179388D01*
X1788960Y179293D01*
X1789021Y179200D01*
X1789084Y179109D01*
X1789151Y179020D01*
X1789221Y178934D01*
X1789294Y178851D01*
X1789369Y178769D01*
X1789447Y178691D01*
X1789529Y178616D01*
X1789612Y178543D01*
X1789698Y178473D01*
X1789787Y178406D01*
X1789878Y178343D01*
X1789971Y178282D01*
X1790066Y178225D01*
X1790162Y178172D01*
X1790261Y178121D01*
X1790362Y178074D01*
X1790464Y178031D01*
X1790567Y177991D01*
X1790672Y177955D01*
X1790778Y177923D01*
X1790885Y177894D01*
X1790993Y177869D01*
X1791102Y177848D01*
X1791211Y177831D01*
X1791321Y177817D01*
X1791432Y177808D01*
X1791542Y177802D01*
X1791653Y177800D01*
X920750Y431800D02*
X920520Y431797D01*
X920290Y431789D01*
X920060Y431775D01*
X919831Y431756D01*
X919602Y431731D01*
X919374Y431700D01*
X919146Y431664D01*
X918920Y431623D01*
X918695Y431576D01*
X918471Y431523D01*
X918248Y431465D01*
X918026Y431402D01*
X917807Y431334D01*
X917589Y431260D01*
X917372Y431181D01*
X917158Y431097D01*
X916946Y431007D01*
X916736Y430913D01*
X916529Y430813D01*
X916324Y430709D01*
X916121Y430600D01*
X915921Y430485D01*
X915724Y430366D01*
X915530Y430242D01*
X915339Y430114D01*
X915151Y429981D01*
X914967Y429843D01*
X914786Y429701D01*
X914608Y429555D01*
X914434Y429405D01*
X914263Y429250D01*
X914097Y429091D01*
X913934Y428928D01*
X913775Y428762D01*
X913620Y428591D01*
X913470Y428417D01*
X913324Y428239D01*
X913182Y428058D01*
X913044Y427874D01*
X912911Y427686D01*
X912783Y427495D01*
X912659Y427301D01*
X912540Y427104D01*
X912425Y426904D01*
X912316Y426701D01*
X912212Y426496D01*
X912112Y426289D01*
X912018Y426079D01*
X911928Y425867D01*
X911844Y425653D01*
X911765Y425436D01*
X911691Y425218D01*
X911623Y424999D01*
X911560Y424777D01*
X911502Y424554D01*
X911449Y424330D01*
X911402Y424105D01*
X911361Y423879D01*
X911325Y423651D01*
X911294Y423423D01*
X911269Y423194D01*
X911250Y422965D01*
X911236Y422735D01*
X911228Y422505D01*
X911225Y422275D01*
X1027113Y431801D02*
X1027305Y431799D01*
X1027497Y431792D01*
X1027688Y431780D01*
X1027879Y431764D01*
X1028070Y431743D01*
X1028260Y431718D01*
X1028449Y431688D01*
X1028638Y431653D01*
X1028826Y431614D01*
X1029013Y431570D01*
X1029198Y431522D01*
X1029383Y431470D01*
X1029566Y431412D01*
X1029748Y431351D01*
X1029928Y431285D01*
X1030106Y431215D01*
X1030283Y431140D01*
X1030458Y431062D01*
X1030631Y430979D01*
X1030802Y430892D01*
X1030971Y430801D01*
X1031137Y430705D01*
X1031301Y430606D01*
X1031463Y430503D01*
X1031622Y430396D01*
X1031779Y430285D01*
X1031933Y430170D01*
X1032084Y430052D01*
X1032232Y429930D01*
X1032377Y429805D01*
X1032519Y429676D01*
X1032658Y429543D01*
X1032793Y429408D01*
X1032926Y429269D01*
X1033055Y429127D01*
X1033180Y428982D01*
X1033302Y428834D01*
X1033420Y428683D01*
X1033535Y428529D01*
X1033646Y428372D01*
X1033753Y428213D01*
X1033856Y428051D01*
X1033955Y427887D01*
X1034051Y427721D01*
X1034142Y427552D01*
X1034229Y427381D01*
X1034312Y427208D01*
X1034390Y427033D01*
X1034465Y426856D01*
X1034535Y426678D01*
X1034601Y426498D01*
X1034662Y426316D01*
X1034720Y426133D01*
X1034772Y425948D01*
X1034820Y425763D01*
X1034864Y425576D01*
X1034903Y425388D01*
X1034938Y425199D01*
X1034968Y425010D01*
X1034993Y424820D01*
X1035014Y424629D01*
X1035030Y424438D01*
X1035042Y424247D01*
X1035049Y424055D01*
X1035051Y423863D01*
X1035051Y185738D02*
X1035049Y185546D01*
X1035042Y185354D01*
X1035030Y185163D01*
X1035014Y184972D01*
X1034993Y184781D01*
X1034968Y184591D01*
X1034938Y184402D01*
X1034903Y184213D01*
X1034864Y184025D01*
X1034820Y183838D01*
X1034772Y183653D01*
X1034720Y183468D01*
X1034662Y183285D01*
X1034601Y183103D01*
X1034535Y182923D01*
X1034465Y182745D01*
X1034390Y182568D01*
X1034312Y182393D01*
X1034229Y182220D01*
X1034142Y182049D01*
X1034051Y181880D01*
X1033955Y181714D01*
X1033856Y181550D01*
X1033753Y181388D01*
X1033646Y181229D01*
X1033535Y181072D01*
X1033420Y180918D01*
X1033302Y180767D01*
X1033180Y180619D01*
X1033055Y180474D01*
X1032926Y180332D01*
X1032793Y180193D01*
X1032658Y180058D01*
X1032519Y179925D01*
X1032377Y179796D01*
X1032232Y179671D01*
X1032084Y179549D01*
X1031933Y179431D01*
X1031779Y179316D01*
X1031622Y179205D01*
X1031463Y179098D01*
X1031301Y178995D01*
X1031137Y178896D01*
X1030971Y178800D01*
X1030802Y178709D01*
X1030631Y178622D01*
X1030458Y178539D01*
X1030283Y178461D01*
X1030106Y178386D01*
X1029928Y178316D01*
X1029748Y178250D01*
X1029566Y178189D01*
X1029383Y178131D01*
X1029198Y178079D01*
X1029013Y178031D01*
X1028826Y177987D01*
X1028638Y177948D01*
X1028449Y177913D01*
X1028260Y177883D01*
X1028070Y177858D01*
X1027879Y177837D01*
X1027688Y177821D01*
X1027497Y177809D01*
X1027305Y177802D01*
X1027113Y177800D01*
X919163Y177800D02*
X918971Y177802D01*
X918779Y177809D01*
X918588Y177821D01*
X918397Y177837D01*
X918206Y177858D01*
X918016Y177883D01*
X917827Y177913D01*
X917638Y177948D01*
X917450Y177987D01*
X917263Y178031D01*
X917078Y178079D01*
X916893Y178131D01*
X916710Y178189D01*
X916528Y178250D01*
X916348Y178316D01*
X916170Y178386D01*
X915993Y178461D01*
X915818Y178539D01*
X915645Y178622D01*
X915474Y178709D01*
X915305Y178800D01*
X915139Y178896D01*
X914975Y178995D01*
X914813Y179098D01*
X914654Y179205D01*
X914497Y179316D01*
X914343Y179431D01*
X914192Y179549D01*
X914044Y179671D01*
X913899Y179796D01*
X913757Y179925D01*
X913618Y180058D01*
X913483Y180193D01*
X913350Y180332D01*
X913221Y180474D01*
X913096Y180619D01*
X912974Y180767D01*
X912856Y180918D01*
X912741Y181072D01*
X912630Y181229D01*
X912523Y181388D01*
X912420Y181550D01*
X912321Y181714D01*
X912225Y181880D01*
X912134Y182049D01*
X912047Y182220D01*
X911964Y182393D01*
X911886Y182568D01*
X911811Y182745D01*
X911741Y182923D01*
X911675Y183103D01*
X911614Y183285D01*
X911556Y183468D01*
X911504Y183653D01*
X911456Y183838D01*
X911412Y184025D01*
X911373Y184213D01*
X911338Y184402D01*
X911308Y184591D01*
X911283Y184781D01*
X911262Y184972D01*
X911246Y185163D01*
X911234Y185354D01*
X911227Y185546D01*
X911225Y185738D01*
X488951Y185738D02*
X488949Y185546D01*
X488942Y185354D01*
X488930Y185163D01*
X488914Y184972D01*
X488893Y184781D01*
X488868Y184591D01*
X488838Y184402D01*
X488803Y184213D01*
X488764Y184025D01*
X488720Y183838D01*
X488672Y183653D01*
X488620Y183468D01*
X488562Y183285D01*
X488501Y183103D01*
X488435Y182923D01*
X488365Y182745D01*
X488290Y182568D01*
X488212Y182393D01*
X488129Y182220D01*
X488042Y182049D01*
X487951Y181880D01*
X487855Y181714D01*
X487756Y181550D01*
X487653Y181388D01*
X487546Y181229D01*
X487435Y181072D01*
X487320Y180918D01*
X487202Y180767D01*
X487080Y180619D01*
X486955Y180474D01*
X486826Y180332D01*
X486693Y180193D01*
X486558Y180058D01*
X486419Y179925D01*
X486277Y179796D01*
X486132Y179671D01*
X485984Y179549D01*
X485833Y179431D01*
X485679Y179316D01*
X485522Y179205D01*
X485363Y179098D01*
X485201Y178995D01*
X485037Y178896D01*
X484871Y178800D01*
X484702Y178709D01*
X484531Y178622D01*
X484358Y178539D01*
X484183Y178461D01*
X484006Y178386D01*
X483828Y178316D01*
X483648Y178250D01*
X483466Y178189D01*
X483283Y178131D01*
X483098Y178079D01*
X482913Y178031D01*
X482726Y177987D01*
X482538Y177948D01*
X482349Y177913D01*
X482160Y177883D01*
X481970Y177858D01*
X481779Y177837D01*
X481588Y177821D01*
X481397Y177809D01*
X481205Y177802D01*
X481013Y177800D01*
X488951Y423863D02*
X488949Y424055D01*
X488942Y424247D01*
X488930Y424438D01*
X488914Y424629D01*
X488893Y424820D01*
X488868Y425010D01*
X488838Y425199D01*
X488803Y425388D01*
X488764Y425576D01*
X488720Y425763D01*
X488672Y425948D01*
X488620Y426133D01*
X488562Y426316D01*
X488501Y426498D01*
X488435Y426678D01*
X488365Y426856D01*
X488290Y427033D01*
X488212Y427208D01*
X488129Y427381D01*
X488042Y427552D01*
X487951Y427721D01*
X487855Y427887D01*
X487756Y428051D01*
X487653Y428213D01*
X487546Y428372D01*
X487435Y428529D01*
X487320Y428683D01*
X487202Y428834D01*
X487080Y428982D01*
X486955Y429127D01*
X486826Y429269D01*
X486693Y429408D01*
X486558Y429543D01*
X486419Y429676D01*
X486277Y429805D01*
X486132Y429930D01*
X485984Y430052D01*
X485833Y430170D01*
X485679Y430285D01*
X485522Y430396D01*
X485363Y430503D01*
X485201Y430606D01*
X485037Y430705D01*
X484871Y430801D01*
X484702Y430892D01*
X484531Y430979D01*
X484358Y431062D01*
X484183Y431140D01*
X484006Y431215D01*
X483828Y431285D01*
X483648Y431351D01*
X483466Y431412D01*
X483283Y431470D01*
X483098Y431522D01*
X482913Y431570D01*
X482726Y431614D01*
X482538Y431653D01*
X482349Y431688D01*
X482160Y431718D01*
X481970Y431743D01*
X481779Y431764D01*
X481588Y431780D01*
X481397Y431792D01*
X481205Y431799D01*
X481013Y431801D01*
D11*
X930018Y352425D02*
X930020Y352566D01*
X930026Y352708D01*
X930036Y352849D01*
X930050Y352990D01*
X930068Y353130D01*
X930090Y353270D01*
X930115Y353409D01*
X930145Y353547D01*
X930179Y353684D01*
X930216Y353821D01*
X930257Y353956D01*
X930302Y354090D01*
X930351Y354223D01*
X930404Y354354D01*
X930460Y354484D01*
X930520Y354612D01*
X930583Y354739D01*
X930650Y354863D01*
X930720Y354986D01*
X930794Y355106D01*
X930871Y355225D01*
X930952Y355341D01*
X931036Y355455D01*
X931123Y355567D01*
X931213Y355676D01*
X931306Y355782D01*
X931402Y355886D01*
X931501Y355987D01*
X931603Y356085D01*
X931707Y356181D01*
X931814Y356273D01*
X931924Y356362D01*
X932036Y356449D01*
X932151Y356532D01*
X932267Y356611D01*
X932386Y356688D01*
X932508Y356761D01*
X932631Y356830D01*
X932756Y356896D01*
X932883Y356959D01*
X933011Y357018D01*
X933141Y357073D01*
X933273Y357125D01*
X933406Y357172D01*
X933541Y357216D01*
X933676Y357257D01*
X933813Y357293D01*
X933951Y357326D01*
X934089Y357354D01*
X934228Y357379D01*
X934368Y357400D01*
X934509Y357417D01*
X934649Y357430D01*
X934791Y357439D01*
X934932Y357444D01*
X935073Y357445D01*
X935215Y357442D01*
X935356Y357435D01*
X935497Y357424D01*
X935638Y357409D01*
X935778Y357390D01*
X935917Y357367D01*
X936056Y357341D01*
X936194Y357310D01*
X936332Y357275D01*
X936468Y357237D01*
X936603Y357195D01*
X936736Y357149D01*
X936869Y357099D01*
X937000Y357046D01*
X937129Y356989D01*
X937257Y356928D01*
X937383Y356864D01*
X937507Y356796D01*
X937629Y356725D01*
X937749Y356650D01*
X937867Y356572D01*
X937983Y356490D01*
X938096Y356406D01*
X938207Y356318D01*
X938316Y356227D01*
X938421Y356133D01*
X938525Y356037D01*
X938625Y355937D01*
X938722Y355835D01*
X938817Y355729D01*
X938909Y355622D01*
X938997Y355511D01*
X939083Y355399D01*
X939165Y355283D01*
X939244Y355166D01*
X939319Y355046D01*
X939391Y354925D01*
X939460Y354801D01*
X939525Y354676D01*
X939587Y354548D01*
X939645Y354419D01*
X939699Y354289D01*
X939750Y354157D01*
X939797Y354023D01*
X939840Y353889D01*
X939879Y353753D01*
X939915Y353616D01*
X939946Y353478D01*
X939974Y353339D01*
X939998Y353200D01*
X940018Y353060D01*
X940034Y352919D01*
X940046Y352778D01*
X940054Y352637D01*
X940058Y352496D01*
X940058Y352354D01*
X940054Y352213D01*
X940046Y352072D01*
X940034Y351931D01*
X940018Y351790D01*
X939998Y351650D01*
X939974Y351511D01*
X939946Y351372D01*
X939915Y351234D01*
X939879Y351097D01*
X939840Y350961D01*
X939797Y350827D01*
X939750Y350693D01*
X939699Y350561D01*
X939645Y350431D01*
X939587Y350302D01*
X939525Y350174D01*
X939460Y350049D01*
X939391Y349925D01*
X939319Y349804D01*
X939244Y349684D01*
X939165Y349567D01*
X939083Y349451D01*
X938997Y349339D01*
X938909Y349228D01*
X938817Y349121D01*
X938722Y349015D01*
X938625Y348913D01*
X938525Y348813D01*
X938421Y348717D01*
X938316Y348623D01*
X938207Y348532D01*
X938096Y348444D01*
X937983Y348360D01*
X937867Y348278D01*
X937749Y348200D01*
X937629Y348125D01*
X937507Y348054D01*
X937383Y347986D01*
X937257Y347922D01*
X937129Y347861D01*
X937000Y347804D01*
X936869Y347751D01*
X936736Y347701D01*
X936603Y347655D01*
X936468Y347613D01*
X936332Y347575D01*
X936194Y347540D01*
X936056Y347509D01*
X935917Y347483D01*
X935778Y347460D01*
X935638Y347441D01*
X935497Y347426D01*
X935356Y347415D01*
X935215Y347408D01*
X935073Y347405D01*
X934932Y347406D01*
X934791Y347411D01*
X934649Y347420D01*
X934509Y347433D01*
X934368Y347450D01*
X934228Y347471D01*
X934089Y347496D01*
X933951Y347524D01*
X933813Y347557D01*
X933676Y347593D01*
X933541Y347634D01*
X933406Y347678D01*
X933273Y347725D01*
X933141Y347777D01*
X933011Y347832D01*
X932883Y347891D01*
X932756Y347954D01*
X932631Y348020D01*
X932508Y348089D01*
X932386Y348162D01*
X932267Y348239D01*
X932151Y348318D01*
X932036Y348401D01*
X931924Y348488D01*
X931814Y348577D01*
X931707Y348669D01*
X931603Y348765D01*
X931501Y348863D01*
X931402Y348964D01*
X931306Y349068D01*
X931213Y349174D01*
X931123Y349283D01*
X931036Y349395D01*
X930952Y349509D01*
X930871Y349625D01*
X930794Y349744D01*
X930720Y349864D01*
X930650Y349987D01*
X930583Y350111D01*
X930520Y350238D01*
X930460Y350366D01*
X930404Y350496D01*
X930351Y350627D01*
X930302Y350760D01*
X930257Y350894D01*
X930216Y351029D01*
X930179Y351166D01*
X930145Y351303D01*
X930115Y351441D01*
X930090Y351580D01*
X930068Y351720D01*
X930050Y351860D01*
X930036Y352001D01*
X930026Y352142D01*
X930020Y352284D01*
X930018Y352425D01*
X955418Y352425D02*
X955420Y352566D01*
X955426Y352708D01*
X955436Y352849D01*
X955450Y352990D01*
X955468Y353130D01*
X955490Y353270D01*
X955515Y353409D01*
X955545Y353547D01*
X955579Y353684D01*
X955616Y353821D01*
X955657Y353956D01*
X955702Y354090D01*
X955751Y354223D01*
X955804Y354354D01*
X955860Y354484D01*
X955920Y354612D01*
X955983Y354739D01*
X956050Y354863D01*
X956120Y354986D01*
X956194Y355106D01*
X956271Y355225D01*
X956352Y355341D01*
X956436Y355455D01*
X956523Y355567D01*
X956613Y355676D01*
X956706Y355782D01*
X956802Y355886D01*
X956901Y355987D01*
X957003Y356085D01*
X957107Y356181D01*
X957214Y356273D01*
X957324Y356362D01*
X957436Y356449D01*
X957551Y356532D01*
X957667Y356611D01*
X957786Y356688D01*
X957908Y356761D01*
X958031Y356830D01*
X958156Y356896D01*
X958283Y356959D01*
X958411Y357018D01*
X958541Y357073D01*
X958673Y357125D01*
X958806Y357172D01*
X958941Y357216D01*
X959076Y357257D01*
X959213Y357293D01*
X959351Y357326D01*
X959489Y357354D01*
X959628Y357379D01*
X959768Y357400D01*
X959909Y357417D01*
X960049Y357430D01*
X960191Y357439D01*
X960332Y357444D01*
X960473Y357445D01*
X960615Y357442D01*
X960756Y357435D01*
X960897Y357424D01*
X961038Y357409D01*
X961178Y357390D01*
X961317Y357367D01*
X961456Y357341D01*
X961594Y357310D01*
X961732Y357275D01*
X961868Y357237D01*
X962003Y357195D01*
X962136Y357149D01*
X962269Y357099D01*
X962400Y357046D01*
X962529Y356989D01*
X962657Y356928D01*
X962783Y356864D01*
X962907Y356796D01*
X963029Y356725D01*
X963149Y356650D01*
X963267Y356572D01*
X963383Y356490D01*
X963496Y356406D01*
X963607Y356318D01*
X963716Y356227D01*
X963821Y356133D01*
X963925Y356037D01*
X964025Y355937D01*
X964122Y355835D01*
X964217Y355729D01*
X964309Y355622D01*
X964397Y355511D01*
X964483Y355399D01*
X964565Y355283D01*
X964644Y355166D01*
X964719Y355046D01*
X964791Y354925D01*
X964860Y354801D01*
X964925Y354676D01*
X964987Y354548D01*
X965045Y354419D01*
X965099Y354289D01*
X965150Y354157D01*
X965197Y354023D01*
X965240Y353889D01*
X965279Y353753D01*
X965315Y353616D01*
X965346Y353478D01*
X965374Y353339D01*
X965398Y353200D01*
X965418Y353060D01*
X965434Y352919D01*
X965446Y352778D01*
X965454Y352637D01*
X965458Y352496D01*
X965458Y352354D01*
X965454Y352213D01*
X965446Y352072D01*
X965434Y351931D01*
X965418Y351790D01*
X965398Y351650D01*
X965374Y351511D01*
X965346Y351372D01*
X965315Y351234D01*
X965279Y351097D01*
X965240Y350961D01*
X965197Y350827D01*
X965150Y350693D01*
X965099Y350561D01*
X965045Y350431D01*
X964987Y350302D01*
X964925Y350174D01*
X964860Y350049D01*
X964791Y349925D01*
X964719Y349804D01*
X964644Y349684D01*
X964565Y349567D01*
X964483Y349451D01*
X964397Y349339D01*
X964309Y349228D01*
X964217Y349121D01*
X964122Y349015D01*
X964025Y348913D01*
X963925Y348813D01*
X963821Y348717D01*
X963716Y348623D01*
X963607Y348532D01*
X963496Y348444D01*
X963383Y348360D01*
X963267Y348278D01*
X963149Y348200D01*
X963029Y348125D01*
X962907Y348054D01*
X962783Y347986D01*
X962657Y347922D01*
X962529Y347861D01*
X962400Y347804D01*
X962269Y347751D01*
X962136Y347701D01*
X962003Y347655D01*
X961868Y347613D01*
X961732Y347575D01*
X961594Y347540D01*
X961456Y347509D01*
X961317Y347483D01*
X961178Y347460D01*
X961038Y347441D01*
X960897Y347426D01*
X960756Y347415D01*
X960615Y347408D01*
X960473Y347405D01*
X960332Y347406D01*
X960191Y347411D01*
X960049Y347420D01*
X959909Y347433D01*
X959768Y347450D01*
X959628Y347471D01*
X959489Y347496D01*
X959351Y347524D01*
X959213Y347557D01*
X959076Y347593D01*
X958941Y347634D01*
X958806Y347678D01*
X958673Y347725D01*
X958541Y347777D01*
X958411Y347832D01*
X958283Y347891D01*
X958156Y347954D01*
X958031Y348020D01*
X957908Y348089D01*
X957786Y348162D01*
X957667Y348239D01*
X957551Y348318D01*
X957436Y348401D01*
X957324Y348488D01*
X957214Y348577D01*
X957107Y348669D01*
X957003Y348765D01*
X956901Y348863D01*
X956802Y348964D01*
X956706Y349068D01*
X956613Y349174D01*
X956523Y349283D01*
X956436Y349395D01*
X956352Y349509D01*
X956271Y349625D01*
X956194Y349744D01*
X956120Y349864D01*
X956050Y349987D01*
X955983Y350111D01*
X955920Y350238D01*
X955860Y350366D01*
X955804Y350496D01*
X955751Y350627D01*
X955702Y350760D01*
X955657Y350894D01*
X955616Y351029D01*
X955579Y351166D01*
X955545Y351303D01*
X955515Y351441D01*
X955490Y351580D01*
X955468Y351720D01*
X955450Y351860D01*
X955436Y352001D01*
X955426Y352142D01*
X955420Y352284D01*
X955418Y352425D01*
X980818Y352425D02*
X980820Y352566D01*
X980826Y352708D01*
X980836Y352849D01*
X980850Y352990D01*
X980868Y353130D01*
X980890Y353270D01*
X980915Y353409D01*
X980945Y353547D01*
X980979Y353684D01*
X981016Y353821D01*
X981057Y353956D01*
X981102Y354090D01*
X981151Y354223D01*
X981204Y354354D01*
X981260Y354484D01*
X981320Y354612D01*
X981383Y354739D01*
X981450Y354863D01*
X981520Y354986D01*
X981594Y355106D01*
X981671Y355225D01*
X981752Y355341D01*
X981836Y355455D01*
X981923Y355567D01*
X982013Y355676D01*
X982106Y355782D01*
X982202Y355886D01*
X982301Y355987D01*
X982403Y356085D01*
X982507Y356181D01*
X982614Y356273D01*
X982724Y356362D01*
X982836Y356449D01*
X982951Y356532D01*
X983067Y356611D01*
X983186Y356688D01*
X983308Y356761D01*
X983431Y356830D01*
X983556Y356896D01*
X983683Y356959D01*
X983811Y357018D01*
X983941Y357073D01*
X984073Y357125D01*
X984206Y357172D01*
X984341Y357216D01*
X984476Y357257D01*
X984613Y357293D01*
X984751Y357326D01*
X984889Y357354D01*
X985028Y357379D01*
X985168Y357400D01*
X985309Y357417D01*
X985449Y357430D01*
X985591Y357439D01*
X985732Y357444D01*
X985873Y357445D01*
X986015Y357442D01*
X986156Y357435D01*
X986297Y357424D01*
X986438Y357409D01*
X986578Y357390D01*
X986717Y357367D01*
X986856Y357341D01*
X986994Y357310D01*
X987132Y357275D01*
X987268Y357237D01*
X987403Y357195D01*
X987536Y357149D01*
X987669Y357099D01*
X987800Y357046D01*
X987929Y356989D01*
X988057Y356928D01*
X988183Y356864D01*
X988307Y356796D01*
X988429Y356725D01*
X988549Y356650D01*
X988667Y356572D01*
X988783Y356490D01*
X988896Y356406D01*
X989007Y356318D01*
X989116Y356227D01*
X989221Y356133D01*
X989325Y356037D01*
X989425Y355937D01*
X989522Y355835D01*
X989617Y355729D01*
X989709Y355622D01*
X989797Y355511D01*
X989883Y355399D01*
X989965Y355283D01*
X990044Y355166D01*
X990119Y355046D01*
X990191Y354925D01*
X990260Y354801D01*
X990325Y354676D01*
X990387Y354548D01*
X990445Y354419D01*
X990499Y354289D01*
X990550Y354157D01*
X990597Y354023D01*
X990640Y353889D01*
X990679Y353753D01*
X990715Y353616D01*
X990746Y353478D01*
X990774Y353339D01*
X990798Y353200D01*
X990818Y353060D01*
X990834Y352919D01*
X990846Y352778D01*
X990854Y352637D01*
X990858Y352496D01*
X990858Y352354D01*
X990854Y352213D01*
X990846Y352072D01*
X990834Y351931D01*
X990818Y351790D01*
X990798Y351650D01*
X990774Y351511D01*
X990746Y351372D01*
X990715Y351234D01*
X990679Y351097D01*
X990640Y350961D01*
X990597Y350827D01*
X990550Y350693D01*
X990499Y350561D01*
X990445Y350431D01*
X990387Y350302D01*
X990325Y350174D01*
X990260Y350049D01*
X990191Y349925D01*
X990119Y349804D01*
X990044Y349684D01*
X989965Y349567D01*
X989883Y349451D01*
X989797Y349339D01*
X989709Y349228D01*
X989617Y349121D01*
X989522Y349015D01*
X989425Y348913D01*
X989325Y348813D01*
X989221Y348717D01*
X989116Y348623D01*
X989007Y348532D01*
X988896Y348444D01*
X988783Y348360D01*
X988667Y348278D01*
X988549Y348200D01*
X988429Y348125D01*
X988307Y348054D01*
X988183Y347986D01*
X988057Y347922D01*
X987929Y347861D01*
X987800Y347804D01*
X987669Y347751D01*
X987536Y347701D01*
X987403Y347655D01*
X987268Y347613D01*
X987132Y347575D01*
X986994Y347540D01*
X986856Y347509D01*
X986717Y347483D01*
X986578Y347460D01*
X986438Y347441D01*
X986297Y347426D01*
X986156Y347415D01*
X986015Y347408D01*
X985873Y347405D01*
X985732Y347406D01*
X985591Y347411D01*
X985449Y347420D01*
X985309Y347433D01*
X985168Y347450D01*
X985028Y347471D01*
X984889Y347496D01*
X984751Y347524D01*
X984613Y347557D01*
X984476Y347593D01*
X984341Y347634D01*
X984206Y347678D01*
X984073Y347725D01*
X983941Y347777D01*
X983811Y347832D01*
X983683Y347891D01*
X983556Y347954D01*
X983431Y348020D01*
X983308Y348089D01*
X983186Y348162D01*
X983067Y348239D01*
X982951Y348318D01*
X982836Y348401D01*
X982724Y348488D01*
X982614Y348577D01*
X982507Y348669D01*
X982403Y348765D01*
X982301Y348863D01*
X982202Y348964D01*
X982106Y349068D01*
X982013Y349174D01*
X981923Y349283D01*
X981836Y349395D01*
X981752Y349509D01*
X981671Y349625D01*
X981594Y349744D01*
X981520Y349864D01*
X981450Y349987D01*
X981383Y350111D01*
X981320Y350238D01*
X981260Y350366D01*
X981204Y350496D01*
X981151Y350627D01*
X981102Y350760D01*
X981057Y350894D01*
X981016Y351029D01*
X980979Y351166D01*
X980945Y351303D01*
X980915Y351441D01*
X980890Y351580D01*
X980868Y351720D01*
X980850Y351860D01*
X980836Y352001D01*
X980826Y352142D01*
X980820Y352284D01*
X980818Y352425D01*
X1006218Y352425D02*
X1006220Y352566D01*
X1006226Y352708D01*
X1006236Y352849D01*
X1006250Y352990D01*
X1006268Y353130D01*
X1006290Y353270D01*
X1006315Y353409D01*
X1006345Y353547D01*
X1006379Y353684D01*
X1006416Y353821D01*
X1006457Y353956D01*
X1006502Y354090D01*
X1006551Y354223D01*
X1006604Y354354D01*
X1006660Y354484D01*
X1006720Y354612D01*
X1006783Y354739D01*
X1006850Y354863D01*
X1006920Y354986D01*
X1006994Y355106D01*
X1007071Y355225D01*
X1007152Y355341D01*
X1007236Y355455D01*
X1007323Y355567D01*
X1007413Y355676D01*
X1007506Y355782D01*
X1007602Y355886D01*
X1007701Y355987D01*
X1007803Y356085D01*
X1007907Y356181D01*
X1008014Y356273D01*
X1008124Y356362D01*
X1008236Y356449D01*
X1008351Y356532D01*
X1008467Y356611D01*
X1008586Y356688D01*
X1008708Y356761D01*
X1008831Y356830D01*
X1008956Y356896D01*
X1009083Y356959D01*
X1009211Y357018D01*
X1009341Y357073D01*
X1009473Y357125D01*
X1009606Y357172D01*
X1009741Y357216D01*
X1009876Y357257D01*
X1010013Y357293D01*
X1010151Y357326D01*
X1010289Y357354D01*
X1010428Y357379D01*
X1010568Y357400D01*
X1010709Y357417D01*
X1010849Y357430D01*
X1010991Y357439D01*
X1011132Y357444D01*
X1011273Y357445D01*
X1011415Y357442D01*
X1011556Y357435D01*
X1011697Y357424D01*
X1011838Y357409D01*
X1011978Y357390D01*
X1012117Y357367D01*
X1012256Y357341D01*
X1012394Y357310D01*
X1012532Y357275D01*
X1012668Y357237D01*
X1012803Y357195D01*
X1012936Y357149D01*
X1013069Y357099D01*
X1013200Y357046D01*
X1013329Y356989D01*
X1013457Y356928D01*
X1013583Y356864D01*
X1013707Y356796D01*
X1013829Y356725D01*
X1013949Y356650D01*
X1014067Y356572D01*
X1014183Y356490D01*
X1014296Y356406D01*
X1014407Y356318D01*
X1014516Y356227D01*
X1014621Y356133D01*
X1014725Y356037D01*
X1014825Y355937D01*
X1014922Y355835D01*
X1015017Y355729D01*
X1015109Y355622D01*
X1015197Y355511D01*
X1015283Y355399D01*
X1015365Y355283D01*
X1015444Y355166D01*
X1015519Y355046D01*
X1015591Y354925D01*
X1015660Y354801D01*
X1015725Y354676D01*
X1015787Y354548D01*
X1015845Y354419D01*
X1015899Y354289D01*
X1015950Y354157D01*
X1015997Y354023D01*
X1016040Y353889D01*
X1016079Y353753D01*
X1016115Y353616D01*
X1016146Y353478D01*
X1016174Y353339D01*
X1016198Y353200D01*
X1016218Y353060D01*
X1016234Y352919D01*
X1016246Y352778D01*
X1016254Y352637D01*
X1016258Y352496D01*
X1016258Y352354D01*
X1016254Y352213D01*
X1016246Y352072D01*
X1016234Y351931D01*
X1016218Y351790D01*
X1016198Y351650D01*
X1016174Y351511D01*
X1016146Y351372D01*
X1016115Y351234D01*
X1016079Y351097D01*
X1016040Y350961D01*
X1015997Y350827D01*
X1015950Y350693D01*
X1015899Y350561D01*
X1015845Y350431D01*
X1015787Y350302D01*
X1015725Y350174D01*
X1015660Y350049D01*
X1015591Y349925D01*
X1015519Y349804D01*
X1015444Y349684D01*
X1015365Y349567D01*
X1015283Y349451D01*
X1015197Y349339D01*
X1015109Y349228D01*
X1015017Y349121D01*
X1014922Y349015D01*
X1014825Y348913D01*
X1014725Y348813D01*
X1014621Y348717D01*
X1014516Y348623D01*
X1014407Y348532D01*
X1014296Y348444D01*
X1014183Y348360D01*
X1014067Y348278D01*
X1013949Y348200D01*
X1013829Y348125D01*
X1013707Y348054D01*
X1013583Y347986D01*
X1013457Y347922D01*
X1013329Y347861D01*
X1013200Y347804D01*
X1013069Y347751D01*
X1012936Y347701D01*
X1012803Y347655D01*
X1012668Y347613D01*
X1012532Y347575D01*
X1012394Y347540D01*
X1012256Y347509D01*
X1012117Y347483D01*
X1011978Y347460D01*
X1011838Y347441D01*
X1011697Y347426D01*
X1011556Y347415D01*
X1011415Y347408D01*
X1011273Y347405D01*
X1011132Y347406D01*
X1010991Y347411D01*
X1010849Y347420D01*
X1010709Y347433D01*
X1010568Y347450D01*
X1010428Y347471D01*
X1010289Y347496D01*
X1010151Y347524D01*
X1010013Y347557D01*
X1009876Y347593D01*
X1009741Y347634D01*
X1009606Y347678D01*
X1009473Y347725D01*
X1009341Y347777D01*
X1009211Y347832D01*
X1009083Y347891D01*
X1008956Y347954D01*
X1008831Y348020D01*
X1008708Y348089D01*
X1008586Y348162D01*
X1008467Y348239D01*
X1008351Y348318D01*
X1008236Y348401D01*
X1008124Y348488D01*
X1008014Y348577D01*
X1007907Y348669D01*
X1007803Y348765D01*
X1007701Y348863D01*
X1007602Y348964D01*
X1007506Y349068D01*
X1007413Y349174D01*
X1007323Y349283D01*
X1007236Y349395D01*
X1007152Y349509D01*
X1007071Y349625D01*
X1006994Y349744D01*
X1006920Y349864D01*
X1006850Y349987D01*
X1006783Y350111D01*
X1006720Y350238D01*
X1006660Y350366D01*
X1006604Y350496D01*
X1006551Y350627D01*
X1006502Y350760D01*
X1006457Y350894D01*
X1006416Y351029D01*
X1006379Y351166D01*
X1006345Y351303D01*
X1006315Y351441D01*
X1006290Y351580D01*
X1006268Y351720D01*
X1006250Y351860D01*
X1006236Y352001D01*
X1006226Y352142D01*
X1006220Y352284D01*
X1006218Y352425D01*
X930018Y257175D02*
X930020Y257316D01*
X930026Y257458D01*
X930036Y257599D01*
X930050Y257740D01*
X930068Y257880D01*
X930090Y258020D01*
X930115Y258159D01*
X930145Y258297D01*
X930179Y258434D01*
X930216Y258571D01*
X930257Y258706D01*
X930302Y258840D01*
X930351Y258973D01*
X930404Y259104D01*
X930460Y259234D01*
X930520Y259362D01*
X930583Y259489D01*
X930650Y259613D01*
X930720Y259736D01*
X930794Y259856D01*
X930871Y259975D01*
X930952Y260091D01*
X931036Y260205D01*
X931123Y260317D01*
X931213Y260426D01*
X931306Y260532D01*
X931402Y260636D01*
X931501Y260737D01*
X931603Y260835D01*
X931707Y260931D01*
X931814Y261023D01*
X931924Y261112D01*
X932036Y261199D01*
X932151Y261282D01*
X932267Y261361D01*
X932386Y261438D01*
X932508Y261511D01*
X932631Y261580D01*
X932756Y261646D01*
X932883Y261709D01*
X933011Y261768D01*
X933141Y261823D01*
X933273Y261875D01*
X933406Y261922D01*
X933541Y261966D01*
X933676Y262007D01*
X933813Y262043D01*
X933951Y262076D01*
X934089Y262104D01*
X934228Y262129D01*
X934368Y262150D01*
X934509Y262167D01*
X934649Y262180D01*
X934791Y262189D01*
X934932Y262194D01*
X935073Y262195D01*
X935215Y262192D01*
X935356Y262185D01*
X935497Y262174D01*
X935638Y262159D01*
X935778Y262140D01*
X935917Y262117D01*
X936056Y262091D01*
X936194Y262060D01*
X936332Y262025D01*
X936468Y261987D01*
X936603Y261945D01*
X936736Y261899D01*
X936869Y261849D01*
X937000Y261796D01*
X937129Y261739D01*
X937257Y261678D01*
X937383Y261614D01*
X937507Y261546D01*
X937629Y261475D01*
X937749Y261400D01*
X937867Y261322D01*
X937983Y261240D01*
X938096Y261156D01*
X938207Y261068D01*
X938316Y260977D01*
X938421Y260883D01*
X938525Y260787D01*
X938625Y260687D01*
X938722Y260585D01*
X938817Y260479D01*
X938909Y260372D01*
X938997Y260261D01*
X939083Y260149D01*
X939165Y260033D01*
X939244Y259916D01*
X939319Y259796D01*
X939391Y259675D01*
X939460Y259551D01*
X939525Y259426D01*
X939587Y259298D01*
X939645Y259169D01*
X939699Y259039D01*
X939750Y258907D01*
X939797Y258773D01*
X939840Y258639D01*
X939879Y258503D01*
X939915Y258366D01*
X939946Y258228D01*
X939974Y258089D01*
X939998Y257950D01*
X940018Y257810D01*
X940034Y257669D01*
X940046Y257528D01*
X940054Y257387D01*
X940058Y257246D01*
X940058Y257104D01*
X940054Y256963D01*
X940046Y256822D01*
X940034Y256681D01*
X940018Y256540D01*
X939998Y256400D01*
X939974Y256261D01*
X939946Y256122D01*
X939915Y255984D01*
X939879Y255847D01*
X939840Y255711D01*
X939797Y255577D01*
X939750Y255443D01*
X939699Y255311D01*
X939645Y255181D01*
X939587Y255052D01*
X939525Y254924D01*
X939460Y254799D01*
X939391Y254675D01*
X939319Y254554D01*
X939244Y254434D01*
X939165Y254317D01*
X939083Y254201D01*
X938997Y254089D01*
X938909Y253978D01*
X938817Y253871D01*
X938722Y253765D01*
X938625Y253663D01*
X938525Y253563D01*
X938421Y253467D01*
X938316Y253373D01*
X938207Y253282D01*
X938096Y253194D01*
X937983Y253110D01*
X937867Y253028D01*
X937749Y252950D01*
X937629Y252875D01*
X937507Y252804D01*
X937383Y252736D01*
X937257Y252672D01*
X937129Y252611D01*
X937000Y252554D01*
X936869Y252501D01*
X936736Y252451D01*
X936603Y252405D01*
X936468Y252363D01*
X936332Y252325D01*
X936194Y252290D01*
X936056Y252259D01*
X935917Y252233D01*
X935778Y252210D01*
X935638Y252191D01*
X935497Y252176D01*
X935356Y252165D01*
X935215Y252158D01*
X935073Y252155D01*
X934932Y252156D01*
X934791Y252161D01*
X934649Y252170D01*
X934509Y252183D01*
X934368Y252200D01*
X934228Y252221D01*
X934089Y252246D01*
X933951Y252274D01*
X933813Y252307D01*
X933676Y252343D01*
X933541Y252384D01*
X933406Y252428D01*
X933273Y252475D01*
X933141Y252527D01*
X933011Y252582D01*
X932883Y252641D01*
X932756Y252704D01*
X932631Y252770D01*
X932508Y252839D01*
X932386Y252912D01*
X932267Y252989D01*
X932151Y253068D01*
X932036Y253151D01*
X931924Y253238D01*
X931814Y253327D01*
X931707Y253419D01*
X931603Y253515D01*
X931501Y253613D01*
X931402Y253714D01*
X931306Y253818D01*
X931213Y253924D01*
X931123Y254033D01*
X931036Y254145D01*
X930952Y254259D01*
X930871Y254375D01*
X930794Y254494D01*
X930720Y254614D01*
X930650Y254737D01*
X930583Y254861D01*
X930520Y254988D01*
X930460Y255116D01*
X930404Y255246D01*
X930351Y255377D01*
X930302Y255510D01*
X930257Y255644D01*
X930216Y255779D01*
X930179Y255916D01*
X930145Y256053D01*
X930115Y256191D01*
X930090Y256330D01*
X930068Y256470D01*
X930050Y256610D01*
X930036Y256751D01*
X930026Y256892D01*
X930020Y257034D01*
X930018Y257175D01*
X955418Y257175D02*
X955420Y257316D01*
X955426Y257458D01*
X955436Y257599D01*
X955450Y257740D01*
X955468Y257880D01*
X955490Y258020D01*
X955515Y258159D01*
X955545Y258297D01*
X955579Y258434D01*
X955616Y258571D01*
X955657Y258706D01*
X955702Y258840D01*
X955751Y258973D01*
X955804Y259104D01*
X955860Y259234D01*
X955920Y259362D01*
X955983Y259489D01*
X956050Y259613D01*
X956120Y259736D01*
X956194Y259856D01*
X956271Y259975D01*
X956352Y260091D01*
X956436Y260205D01*
X956523Y260317D01*
X956613Y260426D01*
X956706Y260532D01*
X956802Y260636D01*
X956901Y260737D01*
X957003Y260835D01*
X957107Y260931D01*
X957214Y261023D01*
X957324Y261112D01*
X957436Y261199D01*
X957551Y261282D01*
X957667Y261361D01*
X957786Y261438D01*
X957908Y261511D01*
X958031Y261580D01*
X958156Y261646D01*
X958283Y261709D01*
X958411Y261768D01*
X958541Y261823D01*
X958673Y261875D01*
X958806Y261922D01*
X958941Y261966D01*
X959076Y262007D01*
X959213Y262043D01*
X959351Y262076D01*
X959489Y262104D01*
X959628Y262129D01*
X959768Y262150D01*
X959909Y262167D01*
X960049Y262180D01*
X960191Y262189D01*
X960332Y262194D01*
X960473Y262195D01*
X960615Y262192D01*
X960756Y262185D01*
X960897Y262174D01*
X961038Y262159D01*
X961178Y262140D01*
X961317Y262117D01*
X961456Y262091D01*
X961594Y262060D01*
X961732Y262025D01*
X961868Y261987D01*
X962003Y261945D01*
X962136Y261899D01*
X962269Y261849D01*
X962400Y261796D01*
X962529Y261739D01*
X962657Y261678D01*
X962783Y261614D01*
X962907Y261546D01*
X963029Y261475D01*
X963149Y261400D01*
X963267Y261322D01*
X963383Y261240D01*
X963496Y261156D01*
X963607Y261068D01*
X963716Y260977D01*
X963821Y260883D01*
X963925Y260787D01*
X964025Y260687D01*
X964122Y260585D01*
X964217Y260479D01*
X964309Y260372D01*
X964397Y260261D01*
X964483Y260149D01*
X964565Y260033D01*
X964644Y259916D01*
X964719Y259796D01*
X964791Y259675D01*
X964860Y259551D01*
X964925Y259426D01*
X964987Y259298D01*
X965045Y259169D01*
X965099Y259039D01*
X965150Y258907D01*
X965197Y258773D01*
X965240Y258639D01*
X965279Y258503D01*
X965315Y258366D01*
X965346Y258228D01*
X965374Y258089D01*
X965398Y257950D01*
X965418Y257810D01*
X965434Y257669D01*
X965446Y257528D01*
X965454Y257387D01*
X965458Y257246D01*
X965458Y257104D01*
X965454Y256963D01*
X965446Y256822D01*
X965434Y256681D01*
X965418Y256540D01*
X965398Y256400D01*
X965374Y256261D01*
X965346Y256122D01*
X965315Y255984D01*
X965279Y255847D01*
X965240Y255711D01*
X965197Y255577D01*
X965150Y255443D01*
X965099Y255311D01*
X965045Y255181D01*
X964987Y255052D01*
X964925Y254924D01*
X964860Y254799D01*
X964791Y254675D01*
X964719Y254554D01*
X964644Y254434D01*
X964565Y254317D01*
X964483Y254201D01*
X964397Y254089D01*
X964309Y253978D01*
X964217Y253871D01*
X964122Y253765D01*
X964025Y253663D01*
X963925Y253563D01*
X963821Y253467D01*
X963716Y253373D01*
X963607Y253282D01*
X963496Y253194D01*
X963383Y253110D01*
X963267Y253028D01*
X963149Y252950D01*
X963029Y252875D01*
X962907Y252804D01*
X962783Y252736D01*
X962657Y252672D01*
X962529Y252611D01*
X962400Y252554D01*
X962269Y252501D01*
X962136Y252451D01*
X962003Y252405D01*
X961868Y252363D01*
X961732Y252325D01*
X961594Y252290D01*
X961456Y252259D01*
X961317Y252233D01*
X961178Y252210D01*
X961038Y252191D01*
X960897Y252176D01*
X960756Y252165D01*
X960615Y252158D01*
X960473Y252155D01*
X960332Y252156D01*
X960191Y252161D01*
X960049Y252170D01*
X959909Y252183D01*
X959768Y252200D01*
X959628Y252221D01*
X959489Y252246D01*
X959351Y252274D01*
X959213Y252307D01*
X959076Y252343D01*
X958941Y252384D01*
X958806Y252428D01*
X958673Y252475D01*
X958541Y252527D01*
X958411Y252582D01*
X958283Y252641D01*
X958156Y252704D01*
X958031Y252770D01*
X957908Y252839D01*
X957786Y252912D01*
X957667Y252989D01*
X957551Y253068D01*
X957436Y253151D01*
X957324Y253238D01*
X957214Y253327D01*
X957107Y253419D01*
X957003Y253515D01*
X956901Y253613D01*
X956802Y253714D01*
X956706Y253818D01*
X956613Y253924D01*
X956523Y254033D01*
X956436Y254145D01*
X956352Y254259D01*
X956271Y254375D01*
X956194Y254494D01*
X956120Y254614D01*
X956050Y254737D01*
X955983Y254861D01*
X955920Y254988D01*
X955860Y255116D01*
X955804Y255246D01*
X955751Y255377D01*
X955702Y255510D01*
X955657Y255644D01*
X955616Y255779D01*
X955579Y255916D01*
X955545Y256053D01*
X955515Y256191D01*
X955490Y256330D01*
X955468Y256470D01*
X955450Y256610D01*
X955436Y256751D01*
X955426Y256892D01*
X955420Y257034D01*
X955418Y257175D01*
X980818Y257175D02*
X980820Y257316D01*
X980826Y257458D01*
X980836Y257599D01*
X980850Y257740D01*
X980868Y257880D01*
X980890Y258020D01*
X980915Y258159D01*
X980945Y258297D01*
X980979Y258434D01*
X981016Y258571D01*
X981057Y258706D01*
X981102Y258840D01*
X981151Y258973D01*
X981204Y259104D01*
X981260Y259234D01*
X981320Y259362D01*
X981383Y259489D01*
X981450Y259613D01*
X981520Y259736D01*
X981594Y259856D01*
X981671Y259975D01*
X981752Y260091D01*
X981836Y260205D01*
X981923Y260317D01*
X982013Y260426D01*
X982106Y260532D01*
X982202Y260636D01*
X982301Y260737D01*
X982403Y260835D01*
X982507Y260931D01*
X982614Y261023D01*
X982724Y261112D01*
X982836Y261199D01*
X982951Y261282D01*
X983067Y261361D01*
X983186Y261438D01*
X983308Y261511D01*
X983431Y261580D01*
X983556Y261646D01*
X983683Y261709D01*
X983811Y261768D01*
X983941Y261823D01*
X984073Y261875D01*
X984206Y261922D01*
X984341Y261966D01*
X984476Y262007D01*
X984613Y262043D01*
X984751Y262076D01*
X984889Y262104D01*
X985028Y262129D01*
X985168Y262150D01*
X985309Y262167D01*
X985449Y262180D01*
X985591Y262189D01*
X985732Y262194D01*
X985873Y262195D01*
X986015Y262192D01*
X986156Y262185D01*
X986297Y262174D01*
X986438Y262159D01*
X986578Y262140D01*
X986717Y262117D01*
X986856Y262091D01*
X986994Y262060D01*
X987132Y262025D01*
X987268Y261987D01*
X987403Y261945D01*
X987536Y261899D01*
X987669Y261849D01*
X987800Y261796D01*
X987929Y261739D01*
X988057Y261678D01*
X988183Y261614D01*
X988307Y261546D01*
X988429Y261475D01*
X988549Y261400D01*
X988667Y261322D01*
X988783Y261240D01*
X988896Y261156D01*
X989007Y261068D01*
X989116Y260977D01*
X989221Y260883D01*
X989325Y260787D01*
X989425Y260687D01*
X989522Y260585D01*
X989617Y260479D01*
X989709Y260372D01*
X989797Y260261D01*
X989883Y260149D01*
X989965Y260033D01*
X990044Y259916D01*
X990119Y259796D01*
X990191Y259675D01*
X990260Y259551D01*
X990325Y259426D01*
X990387Y259298D01*
X990445Y259169D01*
X990499Y259039D01*
X990550Y258907D01*
X990597Y258773D01*
X990640Y258639D01*
X990679Y258503D01*
X990715Y258366D01*
X990746Y258228D01*
X990774Y258089D01*
X990798Y257950D01*
X990818Y257810D01*
X990834Y257669D01*
X990846Y257528D01*
X990854Y257387D01*
X990858Y257246D01*
X990858Y257104D01*
X990854Y256963D01*
X990846Y256822D01*
X990834Y256681D01*
X990818Y256540D01*
X990798Y256400D01*
X990774Y256261D01*
X990746Y256122D01*
X990715Y255984D01*
X990679Y255847D01*
X990640Y255711D01*
X990597Y255577D01*
X990550Y255443D01*
X990499Y255311D01*
X990445Y255181D01*
X990387Y255052D01*
X990325Y254924D01*
X990260Y254799D01*
X990191Y254675D01*
X990119Y254554D01*
X990044Y254434D01*
X989965Y254317D01*
X989883Y254201D01*
X989797Y254089D01*
X989709Y253978D01*
X989617Y253871D01*
X989522Y253765D01*
X989425Y253663D01*
X989325Y253563D01*
X989221Y253467D01*
X989116Y253373D01*
X989007Y253282D01*
X988896Y253194D01*
X988783Y253110D01*
X988667Y253028D01*
X988549Y252950D01*
X988429Y252875D01*
X988307Y252804D01*
X988183Y252736D01*
X988057Y252672D01*
X987929Y252611D01*
X987800Y252554D01*
X987669Y252501D01*
X987536Y252451D01*
X987403Y252405D01*
X987268Y252363D01*
X987132Y252325D01*
X986994Y252290D01*
X986856Y252259D01*
X986717Y252233D01*
X986578Y252210D01*
X986438Y252191D01*
X986297Y252176D01*
X986156Y252165D01*
X986015Y252158D01*
X985873Y252155D01*
X985732Y252156D01*
X985591Y252161D01*
X985449Y252170D01*
X985309Y252183D01*
X985168Y252200D01*
X985028Y252221D01*
X984889Y252246D01*
X984751Y252274D01*
X984613Y252307D01*
X984476Y252343D01*
X984341Y252384D01*
X984206Y252428D01*
X984073Y252475D01*
X983941Y252527D01*
X983811Y252582D01*
X983683Y252641D01*
X983556Y252704D01*
X983431Y252770D01*
X983308Y252839D01*
X983186Y252912D01*
X983067Y252989D01*
X982951Y253068D01*
X982836Y253151D01*
X982724Y253238D01*
X982614Y253327D01*
X982507Y253419D01*
X982403Y253515D01*
X982301Y253613D01*
X982202Y253714D01*
X982106Y253818D01*
X982013Y253924D01*
X981923Y254033D01*
X981836Y254145D01*
X981752Y254259D01*
X981671Y254375D01*
X981594Y254494D01*
X981520Y254614D01*
X981450Y254737D01*
X981383Y254861D01*
X981320Y254988D01*
X981260Y255116D01*
X981204Y255246D01*
X981151Y255377D01*
X981102Y255510D01*
X981057Y255644D01*
X981016Y255779D01*
X980979Y255916D01*
X980945Y256053D01*
X980915Y256191D01*
X980890Y256330D01*
X980868Y256470D01*
X980850Y256610D01*
X980836Y256751D01*
X980826Y256892D01*
X980820Y257034D01*
X980818Y257175D01*
X1006218Y257175D02*
X1006220Y257316D01*
X1006226Y257458D01*
X1006236Y257599D01*
X1006250Y257740D01*
X1006268Y257880D01*
X1006290Y258020D01*
X1006315Y258159D01*
X1006345Y258297D01*
X1006379Y258434D01*
X1006416Y258571D01*
X1006457Y258706D01*
X1006502Y258840D01*
X1006551Y258973D01*
X1006604Y259104D01*
X1006660Y259234D01*
X1006720Y259362D01*
X1006783Y259489D01*
X1006850Y259613D01*
X1006920Y259736D01*
X1006994Y259856D01*
X1007071Y259975D01*
X1007152Y260091D01*
X1007236Y260205D01*
X1007323Y260317D01*
X1007413Y260426D01*
X1007506Y260532D01*
X1007602Y260636D01*
X1007701Y260737D01*
X1007803Y260835D01*
X1007907Y260931D01*
X1008014Y261023D01*
X1008124Y261112D01*
X1008236Y261199D01*
X1008351Y261282D01*
X1008467Y261361D01*
X1008586Y261438D01*
X1008708Y261511D01*
X1008831Y261580D01*
X1008956Y261646D01*
X1009083Y261709D01*
X1009211Y261768D01*
X1009341Y261823D01*
X1009473Y261875D01*
X1009606Y261922D01*
X1009741Y261966D01*
X1009876Y262007D01*
X1010013Y262043D01*
X1010151Y262076D01*
X1010289Y262104D01*
X1010428Y262129D01*
X1010568Y262150D01*
X1010709Y262167D01*
X1010849Y262180D01*
X1010991Y262189D01*
X1011132Y262194D01*
X1011273Y262195D01*
X1011415Y262192D01*
X1011556Y262185D01*
X1011697Y262174D01*
X1011838Y262159D01*
X1011978Y262140D01*
X1012117Y262117D01*
X1012256Y262091D01*
X1012394Y262060D01*
X1012532Y262025D01*
X1012668Y261987D01*
X1012803Y261945D01*
X1012936Y261899D01*
X1013069Y261849D01*
X1013200Y261796D01*
X1013329Y261739D01*
X1013457Y261678D01*
X1013583Y261614D01*
X1013707Y261546D01*
X1013829Y261475D01*
X1013949Y261400D01*
X1014067Y261322D01*
X1014183Y261240D01*
X1014296Y261156D01*
X1014407Y261068D01*
X1014516Y260977D01*
X1014621Y260883D01*
X1014725Y260787D01*
X1014825Y260687D01*
X1014922Y260585D01*
X1015017Y260479D01*
X1015109Y260372D01*
X1015197Y260261D01*
X1015283Y260149D01*
X1015365Y260033D01*
X1015444Y259916D01*
X1015519Y259796D01*
X1015591Y259675D01*
X1015660Y259551D01*
X1015725Y259426D01*
X1015787Y259298D01*
X1015845Y259169D01*
X1015899Y259039D01*
X1015950Y258907D01*
X1015997Y258773D01*
X1016040Y258639D01*
X1016079Y258503D01*
X1016115Y258366D01*
X1016146Y258228D01*
X1016174Y258089D01*
X1016198Y257950D01*
X1016218Y257810D01*
X1016234Y257669D01*
X1016246Y257528D01*
X1016254Y257387D01*
X1016258Y257246D01*
X1016258Y257104D01*
X1016254Y256963D01*
X1016246Y256822D01*
X1016234Y256681D01*
X1016218Y256540D01*
X1016198Y256400D01*
X1016174Y256261D01*
X1016146Y256122D01*
X1016115Y255984D01*
X1016079Y255847D01*
X1016040Y255711D01*
X1015997Y255577D01*
X1015950Y255443D01*
X1015899Y255311D01*
X1015845Y255181D01*
X1015787Y255052D01*
X1015725Y254924D01*
X1015660Y254799D01*
X1015591Y254675D01*
X1015519Y254554D01*
X1015444Y254434D01*
X1015365Y254317D01*
X1015283Y254201D01*
X1015197Y254089D01*
X1015109Y253978D01*
X1015017Y253871D01*
X1014922Y253765D01*
X1014825Y253663D01*
X1014725Y253563D01*
X1014621Y253467D01*
X1014516Y253373D01*
X1014407Y253282D01*
X1014296Y253194D01*
X1014183Y253110D01*
X1014067Y253028D01*
X1013949Y252950D01*
X1013829Y252875D01*
X1013707Y252804D01*
X1013583Y252736D01*
X1013457Y252672D01*
X1013329Y252611D01*
X1013200Y252554D01*
X1013069Y252501D01*
X1012936Y252451D01*
X1012803Y252405D01*
X1012668Y252363D01*
X1012532Y252325D01*
X1012394Y252290D01*
X1012256Y252259D01*
X1012117Y252233D01*
X1011978Y252210D01*
X1011838Y252191D01*
X1011697Y252176D01*
X1011556Y252165D01*
X1011415Y252158D01*
X1011273Y252155D01*
X1011132Y252156D01*
X1010991Y252161D01*
X1010849Y252170D01*
X1010709Y252183D01*
X1010568Y252200D01*
X1010428Y252221D01*
X1010289Y252246D01*
X1010151Y252274D01*
X1010013Y252307D01*
X1009876Y252343D01*
X1009741Y252384D01*
X1009606Y252428D01*
X1009473Y252475D01*
X1009341Y252527D01*
X1009211Y252582D01*
X1009083Y252641D01*
X1008956Y252704D01*
X1008831Y252770D01*
X1008708Y252839D01*
X1008586Y252912D01*
X1008467Y252989D01*
X1008351Y253068D01*
X1008236Y253151D01*
X1008124Y253238D01*
X1008014Y253327D01*
X1007907Y253419D01*
X1007803Y253515D01*
X1007701Y253613D01*
X1007602Y253714D01*
X1007506Y253818D01*
X1007413Y253924D01*
X1007323Y254033D01*
X1007236Y254145D01*
X1007152Y254259D01*
X1007071Y254375D01*
X1006994Y254494D01*
X1006920Y254614D01*
X1006850Y254737D01*
X1006783Y254861D01*
X1006720Y254988D01*
X1006660Y255116D01*
X1006604Y255246D01*
X1006551Y255377D01*
X1006502Y255510D01*
X1006457Y255644D01*
X1006416Y255779D01*
X1006379Y255916D01*
X1006345Y256053D01*
X1006315Y256191D01*
X1006290Y256330D01*
X1006268Y256470D01*
X1006250Y256610D01*
X1006236Y256751D01*
X1006226Y256892D01*
X1006220Y257034D01*
X1006218Y257175D01*
D10*
X1824038Y225425D02*
X1824038Y373063D01*
X1824040Y373174D01*
X1824046Y373284D01*
X1824055Y373395D01*
X1824069Y373505D01*
X1824086Y373614D01*
X1824107Y373723D01*
X1824132Y373831D01*
X1824161Y373938D01*
X1824193Y374044D01*
X1824229Y374149D01*
X1824269Y374252D01*
X1824312Y374354D01*
X1824359Y374455D01*
X1824410Y374554D01*
X1824463Y374651D01*
X1824520Y374745D01*
X1824581Y374838D01*
X1824644Y374929D01*
X1824711Y375018D01*
X1824781Y375104D01*
X1824854Y375187D01*
X1824929Y375269D01*
X1825007Y375347D01*
X1825089Y375422D01*
X1825172Y375495D01*
X1825258Y375565D01*
X1825347Y375632D01*
X1825438Y375695D01*
X1825531Y375756D01*
X1825626Y375813D01*
X1825722Y375866D01*
X1825821Y375917D01*
X1825922Y375964D01*
X1826024Y376007D01*
X1826127Y376047D01*
X1826232Y376083D01*
X1826338Y376115D01*
X1826445Y376144D01*
X1826553Y376169D01*
X1826662Y376190D01*
X1826771Y376207D01*
X1826881Y376221D01*
X1826992Y376230D01*
X1827102Y376236D01*
X1827213Y376238D01*
X1836738Y376238D01*
X1836849Y376236D01*
X1836959Y376230D01*
X1837070Y376221D01*
X1837180Y376207D01*
X1837289Y376190D01*
X1837398Y376169D01*
X1837506Y376144D01*
X1837613Y376115D01*
X1837719Y376083D01*
X1837824Y376047D01*
X1837927Y376007D01*
X1838029Y375964D01*
X1838130Y375917D01*
X1838229Y375866D01*
X1838326Y375813D01*
X1838420Y375756D01*
X1838513Y375695D01*
X1838604Y375632D01*
X1838693Y375565D01*
X1838779Y375495D01*
X1838862Y375422D01*
X1838944Y375347D01*
X1839022Y375269D01*
X1839097Y375187D01*
X1839170Y375104D01*
X1839240Y375018D01*
X1839307Y374929D01*
X1839370Y374838D01*
X1839431Y374745D01*
X1839488Y374651D01*
X1839541Y374554D01*
X1839592Y374455D01*
X1839639Y374354D01*
X1839682Y374252D01*
X1839722Y374149D01*
X1839758Y374044D01*
X1839790Y373938D01*
X1839819Y373831D01*
X1839844Y373723D01*
X1839865Y373614D01*
X1839882Y373505D01*
X1839896Y373395D01*
X1839905Y373284D01*
X1839911Y373174D01*
X1839913Y373063D01*
X1839913Y225425D01*
X1839911Y225314D01*
X1839905Y225204D01*
X1839896Y225093D01*
X1839882Y224983D01*
X1839865Y224874D01*
X1839844Y224765D01*
X1839819Y224657D01*
X1839790Y224550D01*
X1839758Y224444D01*
X1839722Y224339D01*
X1839682Y224236D01*
X1839639Y224134D01*
X1839592Y224033D01*
X1839541Y223934D01*
X1839488Y223837D01*
X1839431Y223743D01*
X1839370Y223650D01*
X1839307Y223559D01*
X1839240Y223470D01*
X1839170Y223384D01*
X1839097Y223301D01*
X1839022Y223219D01*
X1838944Y223141D01*
X1838862Y223066D01*
X1838779Y222993D01*
X1838693Y222923D01*
X1838604Y222856D01*
X1838513Y222793D01*
X1838420Y222732D01*
X1838326Y222675D01*
X1838229Y222622D01*
X1838130Y222571D01*
X1838029Y222524D01*
X1837927Y222481D01*
X1837824Y222441D01*
X1837719Y222405D01*
X1837613Y222373D01*
X1837506Y222344D01*
X1837398Y222319D01*
X1837289Y222298D01*
X1837180Y222281D01*
X1837070Y222267D01*
X1836959Y222258D01*
X1836849Y222252D01*
X1836738Y222250D01*
X1827213Y222250D01*
X1827102Y222252D01*
X1826992Y222258D01*
X1826881Y222267D01*
X1826771Y222281D01*
X1826662Y222298D01*
X1826553Y222319D01*
X1826445Y222344D01*
X1826338Y222373D01*
X1826232Y222405D01*
X1826127Y222441D01*
X1826024Y222481D01*
X1825922Y222524D01*
X1825821Y222571D01*
X1825722Y222622D01*
X1825626Y222675D01*
X1825531Y222732D01*
X1825438Y222793D01*
X1825347Y222856D01*
X1825258Y222923D01*
X1825172Y222993D01*
X1825089Y223066D01*
X1825007Y223141D01*
X1824929Y223219D01*
X1824854Y223301D01*
X1824781Y223384D01*
X1824711Y223470D01*
X1824644Y223559D01*
X1824581Y223650D01*
X1824520Y223743D01*
X1824463Y223838D01*
X1824410Y223934D01*
X1824359Y224033D01*
X1824312Y224134D01*
X1824269Y224236D01*
X1824229Y224339D01*
X1824193Y224444D01*
X1824161Y224550D01*
X1824132Y224657D01*
X1824107Y224765D01*
X1824086Y224874D01*
X1824069Y224983D01*
X1824055Y225093D01*
X1824046Y225204D01*
X1824040Y225314D01*
X1824038Y225425D01*
M02*
