G04 EAGLE Gerber RS-274X export*
G75*
%MOMM*%
%FSLAX34Y34*%
%LPD*%
%INSilkscreen Bottom*%
%IPPOS*%
%AMOC8*
5,1,8,0,0,1.08239X$1,22.5*%
G01*
%ADD10C,0.127000*%
%ADD11C,0.400000*%


D10*
X358675Y238800D02*
X358675Y370800D01*
X273275Y370800D01*
X242275Y370800D02*
X178675Y370800D01*
X178675Y238800D01*
X242275Y238800D01*
X273275Y238800D02*
X358675Y238800D01*
D11*
X345575Y228600D02*
X345577Y228644D01*
X345583Y228688D01*
X345593Y228731D01*
X345606Y228773D01*
X345623Y228814D01*
X345644Y228853D01*
X345668Y228890D01*
X345695Y228925D01*
X345725Y228957D01*
X345758Y228987D01*
X345794Y229013D01*
X345831Y229037D01*
X345871Y229056D01*
X345912Y229073D01*
X345955Y229085D01*
X345998Y229094D01*
X346042Y229099D01*
X346086Y229100D01*
X346130Y229097D01*
X346174Y229090D01*
X346217Y229079D01*
X346259Y229065D01*
X346299Y229047D01*
X346338Y229025D01*
X346374Y229001D01*
X346408Y228973D01*
X346440Y228942D01*
X346469Y228908D01*
X346495Y228872D01*
X346517Y228834D01*
X346536Y228794D01*
X346551Y228752D01*
X346563Y228710D01*
X346571Y228666D01*
X346575Y228622D01*
X346575Y228578D01*
X346571Y228534D01*
X346563Y228490D01*
X346551Y228448D01*
X346536Y228406D01*
X346517Y228366D01*
X346495Y228328D01*
X346469Y228292D01*
X346440Y228258D01*
X346408Y228227D01*
X346374Y228199D01*
X346338Y228175D01*
X346299Y228153D01*
X346259Y228135D01*
X346217Y228121D01*
X346174Y228110D01*
X346130Y228103D01*
X346086Y228100D01*
X346042Y228101D01*
X345998Y228106D01*
X345955Y228115D01*
X345912Y228127D01*
X345871Y228144D01*
X345831Y228163D01*
X345794Y228187D01*
X345758Y228213D01*
X345725Y228243D01*
X345695Y228275D01*
X345668Y228310D01*
X345644Y228347D01*
X345623Y228386D01*
X345606Y228427D01*
X345593Y228469D01*
X345583Y228512D01*
X345577Y228556D01*
X345575Y228600D01*
M02*
