G04 EAGLE Gerber RS-274X export*
G75*
%MOMM*%
%FSLAX34Y34*%
%LPD*%
%INStiffener_BOT*%
%IPPOS*%
%AMOC8*
5,1,8,0,0,1.08239X$1,22.5*%
G01*
%ADD10C,0.152400*%
%ADD11C,0.101600*%


D10*
X920750Y431800D02*
X1027113Y431800D01*
X1035050Y423863D02*
X1035050Y185738D01*
X1027113Y177800D02*
X919163Y177800D01*
X911225Y185738D02*
X911225Y422275D01*
X1236663Y431800D02*
X1306513Y431800D01*
X1312863Y425450D02*
X1312863Y185738D01*
X1304925Y177800D02*
X1238250Y177800D01*
X1230313Y185738D02*
X1230313Y425450D01*
X371475Y431800D02*
X249238Y431800D01*
X371475Y431800D02*
X371475Y177800D01*
X249238Y177800D01*
X219075Y207963D02*
X219075Y401638D01*
X381000Y431800D02*
X381000Y177800D01*
X381000Y431800D02*
X481013Y431800D01*
X488950Y423863D02*
X488950Y185738D01*
X481013Y177800D02*
X381000Y177800D01*
X923925Y339725D02*
X927100Y339725D01*
X942975Y339725D02*
X952500Y339725D01*
X968375Y339725D02*
X977900Y339725D01*
X993775Y339725D02*
X1003300Y339725D01*
X1019175Y339725D02*
X1022350Y339725D01*
X1022350Y269875D01*
X1019175Y269875D01*
X1003300Y269875D02*
X993775Y269875D01*
X977900Y269875D02*
X968375Y269875D01*
X952500Y269875D02*
X942975Y269875D01*
X927100Y269875D02*
X923925Y269875D01*
X923925Y339725D01*
X927100Y249238D02*
X927102Y249046D01*
X927109Y248854D01*
X927121Y248663D01*
X927137Y248472D01*
X927158Y248281D01*
X927183Y248091D01*
X927213Y247902D01*
X927248Y247713D01*
X927287Y247525D01*
X927331Y247338D01*
X927379Y247153D01*
X927431Y246968D01*
X927489Y246785D01*
X927550Y246603D01*
X927616Y246423D01*
X927686Y246245D01*
X927761Y246068D01*
X927839Y245893D01*
X927922Y245720D01*
X928009Y245549D01*
X928100Y245380D01*
X928196Y245214D01*
X928295Y245050D01*
X928398Y244888D01*
X928505Y244729D01*
X928616Y244572D01*
X928731Y244418D01*
X928849Y244267D01*
X928971Y244119D01*
X929096Y243974D01*
X929225Y243832D01*
X929358Y243693D01*
X929493Y243558D01*
X929632Y243425D01*
X929774Y243296D01*
X929919Y243171D01*
X930067Y243049D01*
X930218Y242931D01*
X930372Y242816D01*
X930529Y242705D01*
X930688Y242598D01*
X930850Y242495D01*
X931014Y242396D01*
X931180Y242300D01*
X931349Y242209D01*
X931520Y242122D01*
X931693Y242039D01*
X931868Y241961D01*
X932045Y241886D01*
X932223Y241816D01*
X932403Y241750D01*
X932585Y241689D01*
X932768Y241631D01*
X932953Y241579D01*
X933138Y241531D01*
X933325Y241487D01*
X933513Y241448D01*
X933702Y241413D01*
X933891Y241383D01*
X934081Y241358D01*
X934272Y241337D01*
X934463Y241321D01*
X934654Y241309D01*
X934846Y241302D01*
X935038Y241300D01*
X927100Y249238D02*
X927100Y269875D01*
X942976Y249238D02*
X942974Y249046D01*
X942967Y248854D01*
X942955Y248663D01*
X942939Y248472D01*
X942918Y248281D01*
X942893Y248091D01*
X942863Y247902D01*
X942828Y247713D01*
X942789Y247525D01*
X942745Y247338D01*
X942697Y247153D01*
X942645Y246968D01*
X942587Y246785D01*
X942526Y246603D01*
X942460Y246423D01*
X942390Y246245D01*
X942315Y246068D01*
X942237Y245893D01*
X942154Y245720D01*
X942067Y245549D01*
X941976Y245380D01*
X941880Y245214D01*
X941781Y245050D01*
X941678Y244888D01*
X941571Y244729D01*
X941460Y244572D01*
X941345Y244418D01*
X941227Y244267D01*
X941105Y244119D01*
X940980Y243974D01*
X940851Y243832D01*
X940718Y243693D01*
X940583Y243558D01*
X940444Y243425D01*
X940302Y243296D01*
X940157Y243171D01*
X940009Y243049D01*
X939858Y242931D01*
X939704Y242816D01*
X939547Y242705D01*
X939388Y242598D01*
X939226Y242495D01*
X939062Y242396D01*
X938896Y242300D01*
X938727Y242209D01*
X938556Y242122D01*
X938383Y242039D01*
X938208Y241961D01*
X938031Y241886D01*
X937853Y241816D01*
X937673Y241750D01*
X937491Y241689D01*
X937308Y241631D01*
X937123Y241579D01*
X936938Y241531D01*
X936751Y241487D01*
X936563Y241448D01*
X936374Y241413D01*
X936185Y241383D01*
X935995Y241358D01*
X935804Y241337D01*
X935613Y241321D01*
X935422Y241309D01*
X935230Y241302D01*
X935038Y241300D01*
X942975Y249238D02*
X942975Y269875D01*
X952500Y249238D02*
X952502Y249046D01*
X952509Y248854D01*
X952521Y248663D01*
X952537Y248472D01*
X952558Y248281D01*
X952583Y248091D01*
X952613Y247902D01*
X952648Y247713D01*
X952687Y247525D01*
X952731Y247338D01*
X952779Y247153D01*
X952831Y246968D01*
X952889Y246785D01*
X952950Y246603D01*
X953016Y246423D01*
X953086Y246245D01*
X953161Y246068D01*
X953239Y245893D01*
X953322Y245720D01*
X953409Y245549D01*
X953500Y245380D01*
X953596Y245214D01*
X953695Y245050D01*
X953798Y244888D01*
X953905Y244729D01*
X954016Y244572D01*
X954131Y244418D01*
X954249Y244267D01*
X954371Y244119D01*
X954496Y243974D01*
X954625Y243832D01*
X954758Y243693D01*
X954893Y243558D01*
X955032Y243425D01*
X955174Y243296D01*
X955319Y243171D01*
X955467Y243049D01*
X955618Y242931D01*
X955772Y242816D01*
X955929Y242705D01*
X956088Y242598D01*
X956250Y242495D01*
X956414Y242396D01*
X956580Y242300D01*
X956749Y242209D01*
X956920Y242122D01*
X957093Y242039D01*
X957268Y241961D01*
X957445Y241886D01*
X957623Y241816D01*
X957803Y241750D01*
X957985Y241689D01*
X958168Y241631D01*
X958353Y241579D01*
X958538Y241531D01*
X958725Y241487D01*
X958913Y241448D01*
X959102Y241413D01*
X959291Y241383D01*
X959481Y241358D01*
X959672Y241337D01*
X959863Y241321D01*
X960054Y241309D01*
X960246Y241302D01*
X960438Y241300D01*
X952500Y249238D02*
X952500Y269875D01*
X968376Y249238D02*
X968374Y249046D01*
X968367Y248854D01*
X968355Y248663D01*
X968339Y248472D01*
X968318Y248281D01*
X968293Y248091D01*
X968263Y247902D01*
X968228Y247713D01*
X968189Y247525D01*
X968145Y247338D01*
X968097Y247153D01*
X968045Y246968D01*
X967987Y246785D01*
X967926Y246603D01*
X967860Y246423D01*
X967790Y246245D01*
X967715Y246068D01*
X967637Y245893D01*
X967554Y245720D01*
X967467Y245549D01*
X967376Y245380D01*
X967280Y245214D01*
X967181Y245050D01*
X967078Y244888D01*
X966971Y244729D01*
X966860Y244572D01*
X966745Y244418D01*
X966627Y244267D01*
X966505Y244119D01*
X966380Y243974D01*
X966251Y243832D01*
X966118Y243693D01*
X965983Y243558D01*
X965844Y243425D01*
X965702Y243296D01*
X965557Y243171D01*
X965409Y243049D01*
X965258Y242931D01*
X965104Y242816D01*
X964947Y242705D01*
X964788Y242598D01*
X964626Y242495D01*
X964462Y242396D01*
X964296Y242300D01*
X964127Y242209D01*
X963956Y242122D01*
X963783Y242039D01*
X963608Y241961D01*
X963431Y241886D01*
X963253Y241816D01*
X963073Y241750D01*
X962891Y241689D01*
X962708Y241631D01*
X962523Y241579D01*
X962338Y241531D01*
X962151Y241487D01*
X961963Y241448D01*
X961774Y241413D01*
X961585Y241383D01*
X961395Y241358D01*
X961204Y241337D01*
X961013Y241321D01*
X960822Y241309D01*
X960630Y241302D01*
X960438Y241300D01*
X968375Y249238D02*
X968375Y269875D01*
X977900Y249238D02*
X977902Y249046D01*
X977909Y248854D01*
X977921Y248663D01*
X977937Y248472D01*
X977958Y248281D01*
X977983Y248091D01*
X978013Y247902D01*
X978048Y247713D01*
X978087Y247525D01*
X978131Y247338D01*
X978179Y247153D01*
X978231Y246968D01*
X978289Y246785D01*
X978350Y246603D01*
X978416Y246423D01*
X978486Y246245D01*
X978561Y246068D01*
X978639Y245893D01*
X978722Y245720D01*
X978809Y245549D01*
X978900Y245380D01*
X978996Y245214D01*
X979095Y245050D01*
X979198Y244888D01*
X979305Y244729D01*
X979416Y244572D01*
X979531Y244418D01*
X979649Y244267D01*
X979771Y244119D01*
X979896Y243974D01*
X980025Y243832D01*
X980158Y243693D01*
X980293Y243558D01*
X980432Y243425D01*
X980574Y243296D01*
X980719Y243171D01*
X980867Y243049D01*
X981018Y242931D01*
X981172Y242816D01*
X981329Y242705D01*
X981488Y242598D01*
X981650Y242495D01*
X981814Y242396D01*
X981980Y242300D01*
X982149Y242209D01*
X982320Y242122D01*
X982493Y242039D01*
X982668Y241961D01*
X982845Y241886D01*
X983023Y241816D01*
X983203Y241750D01*
X983385Y241689D01*
X983568Y241631D01*
X983753Y241579D01*
X983938Y241531D01*
X984125Y241487D01*
X984313Y241448D01*
X984502Y241413D01*
X984691Y241383D01*
X984881Y241358D01*
X985072Y241337D01*
X985263Y241321D01*
X985454Y241309D01*
X985646Y241302D01*
X985838Y241300D01*
X977900Y249238D02*
X977900Y269875D01*
X993776Y249238D02*
X993774Y249046D01*
X993767Y248854D01*
X993755Y248663D01*
X993739Y248472D01*
X993718Y248281D01*
X993693Y248091D01*
X993663Y247902D01*
X993628Y247713D01*
X993589Y247525D01*
X993545Y247338D01*
X993497Y247153D01*
X993445Y246968D01*
X993387Y246785D01*
X993326Y246603D01*
X993260Y246423D01*
X993190Y246245D01*
X993115Y246068D01*
X993037Y245893D01*
X992954Y245720D01*
X992867Y245549D01*
X992776Y245380D01*
X992680Y245214D01*
X992581Y245050D01*
X992478Y244888D01*
X992371Y244729D01*
X992260Y244572D01*
X992145Y244418D01*
X992027Y244267D01*
X991905Y244119D01*
X991780Y243974D01*
X991651Y243832D01*
X991518Y243693D01*
X991383Y243558D01*
X991244Y243425D01*
X991102Y243296D01*
X990957Y243171D01*
X990809Y243049D01*
X990658Y242931D01*
X990504Y242816D01*
X990347Y242705D01*
X990188Y242598D01*
X990026Y242495D01*
X989862Y242396D01*
X989696Y242300D01*
X989527Y242209D01*
X989356Y242122D01*
X989183Y242039D01*
X989008Y241961D01*
X988831Y241886D01*
X988653Y241816D01*
X988473Y241750D01*
X988291Y241689D01*
X988108Y241631D01*
X987923Y241579D01*
X987738Y241531D01*
X987551Y241487D01*
X987363Y241448D01*
X987174Y241413D01*
X986985Y241383D01*
X986795Y241358D01*
X986604Y241337D01*
X986413Y241321D01*
X986222Y241309D01*
X986030Y241302D01*
X985838Y241300D01*
X993775Y249238D02*
X993775Y269875D01*
X1003300Y249238D02*
X1003302Y249046D01*
X1003309Y248854D01*
X1003321Y248663D01*
X1003337Y248472D01*
X1003358Y248281D01*
X1003383Y248091D01*
X1003413Y247902D01*
X1003448Y247713D01*
X1003487Y247525D01*
X1003531Y247338D01*
X1003579Y247153D01*
X1003631Y246968D01*
X1003689Y246785D01*
X1003750Y246603D01*
X1003816Y246423D01*
X1003886Y246245D01*
X1003961Y246068D01*
X1004039Y245893D01*
X1004122Y245720D01*
X1004209Y245549D01*
X1004300Y245380D01*
X1004396Y245214D01*
X1004495Y245050D01*
X1004598Y244888D01*
X1004705Y244729D01*
X1004816Y244572D01*
X1004931Y244418D01*
X1005049Y244267D01*
X1005171Y244119D01*
X1005296Y243974D01*
X1005425Y243832D01*
X1005558Y243693D01*
X1005693Y243558D01*
X1005832Y243425D01*
X1005974Y243296D01*
X1006119Y243171D01*
X1006267Y243049D01*
X1006418Y242931D01*
X1006572Y242816D01*
X1006729Y242705D01*
X1006888Y242598D01*
X1007050Y242495D01*
X1007214Y242396D01*
X1007380Y242300D01*
X1007549Y242209D01*
X1007720Y242122D01*
X1007893Y242039D01*
X1008068Y241961D01*
X1008245Y241886D01*
X1008423Y241816D01*
X1008603Y241750D01*
X1008785Y241689D01*
X1008968Y241631D01*
X1009153Y241579D01*
X1009338Y241531D01*
X1009525Y241487D01*
X1009713Y241448D01*
X1009902Y241413D01*
X1010091Y241383D01*
X1010281Y241358D01*
X1010472Y241337D01*
X1010663Y241321D01*
X1010854Y241309D01*
X1011046Y241302D01*
X1011238Y241300D01*
X1003300Y249238D02*
X1003300Y269875D01*
X1019176Y249238D02*
X1019174Y249046D01*
X1019167Y248854D01*
X1019155Y248663D01*
X1019139Y248472D01*
X1019118Y248281D01*
X1019093Y248091D01*
X1019063Y247902D01*
X1019028Y247713D01*
X1018989Y247525D01*
X1018945Y247338D01*
X1018897Y247153D01*
X1018845Y246968D01*
X1018787Y246785D01*
X1018726Y246603D01*
X1018660Y246423D01*
X1018590Y246245D01*
X1018515Y246068D01*
X1018437Y245893D01*
X1018354Y245720D01*
X1018267Y245549D01*
X1018176Y245380D01*
X1018080Y245214D01*
X1017981Y245050D01*
X1017878Y244888D01*
X1017771Y244729D01*
X1017660Y244572D01*
X1017545Y244418D01*
X1017427Y244267D01*
X1017305Y244119D01*
X1017180Y243974D01*
X1017051Y243832D01*
X1016918Y243693D01*
X1016783Y243558D01*
X1016644Y243425D01*
X1016502Y243296D01*
X1016357Y243171D01*
X1016209Y243049D01*
X1016058Y242931D01*
X1015904Y242816D01*
X1015747Y242705D01*
X1015588Y242598D01*
X1015426Y242495D01*
X1015262Y242396D01*
X1015096Y242300D01*
X1014927Y242209D01*
X1014756Y242122D01*
X1014583Y242039D01*
X1014408Y241961D01*
X1014231Y241886D01*
X1014053Y241816D01*
X1013873Y241750D01*
X1013691Y241689D01*
X1013508Y241631D01*
X1013323Y241579D01*
X1013138Y241531D01*
X1012951Y241487D01*
X1012763Y241448D01*
X1012574Y241413D01*
X1012385Y241383D01*
X1012195Y241358D01*
X1012004Y241337D01*
X1011813Y241321D01*
X1011622Y241309D01*
X1011430Y241302D01*
X1011238Y241300D01*
X1019175Y249238D02*
X1019175Y269875D01*
X1019176Y360363D02*
X1019174Y360555D01*
X1019167Y360747D01*
X1019155Y360938D01*
X1019139Y361129D01*
X1019118Y361320D01*
X1019093Y361510D01*
X1019063Y361699D01*
X1019028Y361888D01*
X1018989Y362076D01*
X1018945Y362263D01*
X1018897Y362448D01*
X1018845Y362633D01*
X1018787Y362816D01*
X1018726Y362998D01*
X1018660Y363178D01*
X1018590Y363356D01*
X1018515Y363533D01*
X1018437Y363708D01*
X1018354Y363881D01*
X1018267Y364052D01*
X1018176Y364221D01*
X1018080Y364387D01*
X1017981Y364551D01*
X1017878Y364713D01*
X1017771Y364872D01*
X1017660Y365029D01*
X1017545Y365183D01*
X1017427Y365334D01*
X1017305Y365482D01*
X1017180Y365627D01*
X1017051Y365769D01*
X1016918Y365908D01*
X1016783Y366043D01*
X1016644Y366176D01*
X1016502Y366305D01*
X1016357Y366430D01*
X1016209Y366552D01*
X1016058Y366670D01*
X1015904Y366785D01*
X1015747Y366896D01*
X1015588Y367003D01*
X1015426Y367106D01*
X1015262Y367205D01*
X1015096Y367301D01*
X1014927Y367392D01*
X1014756Y367479D01*
X1014583Y367562D01*
X1014408Y367640D01*
X1014231Y367715D01*
X1014053Y367785D01*
X1013873Y367851D01*
X1013691Y367912D01*
X1013508Y367970D01*
X1013323Y368022D01*
X1013138Y368070D01*
X1012951Y368114D01*
X1012763Y368153D01*
X1012574Y368188D01*
X1012385Y368218D01*
X1012195Y368243D01*
X1012004Y368264D01*
X1011813Y368280D01*
X1011622Y368292D01*
X1011430Y368299D01*
X1011238Y368301D01*
X1019175Y360363D02*
X1019175Y339725D01*
X1003300Y360363D02*
X1003302Y360555D01*
X1003309Y360747D01*
X1003321Y360938D01*
X1003337Y361129D01*
X1003358Y361320D01*
X1003383Y361510D01*
X1003413Y361699D01*
X1003448Y361888D01*
X1003487Y362076D01*
X1003531Y362263D01*
X1003579Y362448D01*
X1003631Y362633D01*
X1003689Y362816D01*
X1003750Y362998D01*
X1003816Y363178D01*
X1003886Y363356D01*
X1003961Y363533D01*
X1004039Y363708D01*
X1004122Y363881D01*
X1004209Y364052D01*
X1004300Y364221D01*
X1004396Y364387D01*
X1004495Y364551D01*
X1004598Y364713D01*
X1004705Y364872D01*
X1004816Y365029D01*
X1004931Y365183D01*
X1005049Y365334D01*
X1005171Y365482D01*
X1005296Y365627D01*
X1005425Y365769D01*
X1005558Y365908D01*
X1005693Y366043D01*
X1005832Y366176D01*
X1005974Y366305D01*
X1006119Y366430D01*
X1006267Y366552D01*
X1006418Y366670D01*
X1006572Y366785D01*
X1006729Y366896D01*
X1006888Y367003D01*
X1007050Y367106D01*
X1007214Y367205D01*
X1007380Y367301D01*
X1007549Y367392D01*
X1007720Y367479D01*
X1007893Y367562D01*
X1008068Y367640D01*
X1008245Y367715D01*
X1008423Y367785D01*
X1008603Y367851D01*
X1008785Y367912D01*
X1008968Y367970D01*
X1009153Y368022D01*
X1009338Y368070D01*
X1009525Y368114D01*
X1009713Y368153D01*
X1009902Y368188D01*
X1010091Y368218D01*
X1010281Y368243D01*
X1010472Y368264D01*
X1010663Y368280D01*
X1010854Y368292D01*
X1011046Y368299D01*
X1011238Y368301D01*
X1003300Y360363D02*
X1003300Y339725D01*
X993776Y360363D02*
X993774Y360555D01*
X993767Y360747D01*
X993755Y360938D01*
X993739Y361129D01*
X993718Y361320D01*
X993693Y361510D01*
X993663Y361699D01*
X993628Y361888D01*
X993589Y362076D01*
X993545Y362263D01*
X993497Y362448D01*
X993445Y362633D01*
X993387Y362816D01*
X993326Y362998D01*
X993260Y363178D01*
X993190Y363356D01*
X993115Y363533D01*
X993037Y363708D01*
X992954Y363881D01*
X992867Y364052D01*
X992776Y364221D01*
X992680Y364387D01*
X992581Y364551D01*
X992478Y364713D01*
X992371Y364872D01*
X992260Y365029D01*
X992145Y365183D01*
X992027Y365334D01*
X991905Y365482D01*
X991780Y365627D01*
X991651Y365769D01*
X991518Y365908D01*
X991383Y366043D01*
X991244Y366176D01*
X991102Y366305D01*
X990957Y366430D01*
X990809Y366552D01*
X990658Y366670D01*
X990504Y366785D01*
X990347Y366896D01*
X990188Y367003D01*
X990026Y367106D01*
X989862Y367205D01*
X989696Y367301D01*
X989527Y367392D01*
X989356Y367479D01*
X989183Y367562D01*
X989008Y367640D01*
X988831Y367715D01*
X988653Y367785D01*
X988473Y367851D01*
X988291Y367912D01*
X988108Y367970D01*
X987923Y368022D01*
X987738Y368070D01*
X987551Y368114D01*
X987363Y368153D01*
X987174Y368188D01*
X986985Y368218D01*
X986795Y368243D01*
X986604Y368264D01*
X986413Y368280D01*
X986222Y368292D01*
X986030Y368299D01*
X985838Y368301D01*
X993775Y360363D02*
X993775Y339725D01*
X977900Y360363D02*
X977902Y360555D01*
X977909Y360747D01*
X977921Y360938D01*
X977937Y361129D01*
X977958Y361320D01*
X977983Y361510D01*
X978013Y361699D01*
X978048Y361888D01*
X978087Y362076D01*
X978131Y362263D01*
X978179Y362448D01*
X978231Y362633D01*
X978289Y362816D01*
X978350Y362998D01*
X978416Y363178D01*
X978486Y363356D01*
X978561Y363533D01*
X978639Y363708D01*
X978722Y363881D01*
X978809Y364052D01*
X978900Y364221D01*
X978996Y364387D01*
X979095Y364551D01*
X979198Y364713D01*
X979305Y364872D01*
X979416Y365029D01*
X979531Y365183D01*
X979649Y365334D01*
X979771Y365482D01*
X979896Y365627D01*
X980025Y365769D01*
X980158Y365908D01*
X980293Y366043D01*
X980432Y366176D01*
X980574Y366305D01*
X980719Y366430D01*
X980867Y366552D01*
X981018Y366670D01*
X981172Y366785D01*
X981329Y366896D01*
X981488Y367003D01*
X981650Y367106D01*
X981814Y367205D01*
X981980Y367301D01*
X982149Y367392D01*
X982320Y367479D01*
X982493Y367562D01*
X982668Y367640D01*
X982845Y367715D01*
X983023Y367785D01*
X983203Y367851D01*
X983385Y367912D01*
X983568Y367970D01*
X983753Y368022D01*
X983938Y368070D01*
X984125Y368114D01*
X984313Y368153D01*
X984502Y368188D01*
X984691Y368218D01*
X984881Y368243D01*
X985072Y368264D01*
X985263Y368280D01*
X985454Y368292D01*
X985646Y368299D01*
X985838Y368301D01*
X977900Y360363D02*
X977900Y339725D01*
X968376Y360363D02*
X968374Y360555D01*
X968367Y360747D01*
X968355Y360938D01*
X968339Y361129D01*
X968318Y361320D01*
X968293Y361510D01*
X968263Y361699D01*
X968228Y361888D01*
X968189Y362076D01*
X968145Y362263D01*
X968097Y362448D01*
X968045Y362633D01*
X967987Y362816D01*
X967926Y362998D01*
X967860Y363178D01*
X967790Y363356D01*
X967715Y363533D01*
X967637Y363708D01*
X967554Y363881D01*
X967467Y364052D01*
X967376Y364221D01*
X967280Y364387D01*
X967181Y364551D01*
X967078Y364713D01*
X966971Y364872D01*
X966860Y365029D01*
X966745Y365183D01*
X966627Y365334D01*
X966505Y365482D01*
X966380Y365627D01*
X966251Y365769D01*
X966118Y365908D01*
X965983Y366043D01*
X965844Y366176D01*
X965702Y366305D01*
X965557Y366430D01*
X965409Y366552D01*
X965258Y366670D01*
X965104Y366785D01*
X964947Y366896D01*
X964788Y367003D01*
X964626Y367106D01*
X964462Y367205D01*
X964296Y367301D01*
X964127Y367392D01*
X963956Y367479D01*
X963783Y367562D01*
X963608Y367640D01*
X963431Y367715D01*
X963253Y367785D01*
X963073Y367851D01*
X962891Y367912D01*
X962708Y367970D01*
X962523Y368022D01*
X962338Y368070D01*
X962151Y368114D01*
X961963Y368153D01*
X961774Y368188D01*
X961585Y368218D01*
X961395Y368243D01*
X961204Y368264D01*
X961013Y368280D01*
X960822Y368292D01*
X960630Y368299D01*
X960438Y368301D01*
X968375Y360363D02*
X968375Y339725D01*
X952500Y360363D02*
X952502Y360555D01*
X952509Y360747D01*
X952521Y360938D01*
X952537Y361129D01*
X952558Y361320D01*
X952583Y361510D01*
X952613Y361699D01*
X952648Y361888D01*
X952687Y362076D01*
X952731Y362263D01*
X952779Y362448D01*
X952831Y362633D01*
X952889Y362816D01*
X952950Y362998D01*
X953016Y363178D01*
X953086Y363356D01*
X953161Y363533D01*
X953239Y363708D01*
X953322Y363881D01*
X953409Y364052D01*
X953500Y364221D01*
X953596Y364387D01*
X953695Y364551D01*
X953798Y364713D01*
X953905Y364872D01*
X954016Y365029D01*
X954131Y365183D01*
X954249Y365334D01*
X954371Y365482D01*
X954496Y365627D01*
X954625Y365769D01*
X954758Y365908D01*
X954893Y366043D01*
X955032Y366176D01*
X955174Y366305D01*
X955319Y366430D01*
X955467Y366552D01*
X955618Y366670D01*
X955772Y366785D01*
X955929Y366896D01*
X956088Y367003D01*
X956250Y367106D01*
X956414Y367205D01*
X956580Y367301D01*
X956749Y367392D01*
X956920Y367479D01*
X957093Y367562D01*
X957268Y367640D01*
X957445Y367715D01*
X957623Y367785D01*
X957803Y367851D01*
X957985Y367912D01*
X958168Y367970D01*
X958353Y368022D01*
X958538Y368070D01*
X958725Y368114D01*
X958913Y368153D01*
X959102Y368188D01*
X959291Y368218D01*
X959481Y368243D01*
X959672Y368264D01*
X959863Y368280D01*
X960054Y368292D01*
X960246Y368299D01*
X960438Y368301D01*
X952500Y360363D02*
X952500Y339725D01*
X942976Y360363D02*
X942974Y360555D01*
X942967Y360747D01*
X942955Y360938D01*
X942939Y361129D01*
X942918Y361320D01*
X942893Y361510D01*
X942863Y361699D01*
X942828Y361888D01*
X942789Y362076D01*
X942745Y362263D01*
X942697Y362448D01*
X942645Y362633D01*
X942587Y362816D01*
X942526Y362998D01*
X942460Y363178D01*
X942390Y363356D01*
X942315Y363533D01*
X942237Y363708D01*
X942154Y363881D01*
X942067Y364052D01*
X941976Y364221D01*
X941880Y364387D01*
X941781Y364551D01*
X941678Y364713D01*
X941571Y364872D01*
X941460Y365029D01*
X941345Y365183D01*
X941227Y365334D01*
X941105Y365482D01*
X940980Y365627D01*
X940851Y365769D01*
X940718Y365908D01*
X940583Y366043D01*
X940444Y366176D01*
X940302Y366305D01*
X940157Y366430D01*
X940009Y366552D01*
X939858Y366670D01*
X939704Y366785D01*
X939547Y366896D01*
X939388Y367003D01*
X939226Y367106D01*
X939062Y367205D01*
X938896Y367301D01*
X938727Y367392D01*
X938556Y367479D01*
X938383Y367562D01*
X938208Y367640D01*
X938031Y367715D01*
X937853Y367785D01*
X937673Y367851D01*
X937491Y367912D01*
X937308Y367970D01*
X937123Y368022D01*
X936938Y368070D01*
X936751Y368114D01*
X936563Y368153D01*
X936374Y368188D01*
X936185Y368218D01*
X935995Y368243D01*
X935804Y368264D01*
X935613Y368280D01*
X935422Y368292D01*
X935230Y368299D01*
X935038Y368301D01*
X942975Y360363D02*
X942975Y339725D01*
X927100Y360363D02*
X927102Y360555D01*
X927109Y360747D01*
X927121Y360938D01*
X927137Y361129D01*
X927158Y361320D01*
X927183Y361510D01*
X927213Y361699D01*
X927248Y361888D01*
X927287Y362076D01*
X927331Y362263D01*
X927379Y362448D01*
X927431Y362633D01*
X927489Y362816D01*
X927550Y362998D01*
X927616Y363178D01*
X927686Y363356D01*
X927761Y363533D01*
X927839Y363708D01*
X927922Y363881D01*
X928009Y364052D01*
X928100Y364221D01*
X928196Y364387D01*
X928295Y364551D01*
X928398Y364713D01*
X928505Y364872D01*
X928616Y365029D01*
X928731Y365183D01*
X928849Y365334D01*
X928971Y365482D01*
X929096Y365627D01*
X929225Y365769D01*
X929358Y365908D01*
X929493Y366043D01*
X929632Y366176D01*
X929774Y366305D01*
X929919Y366430D01*
X930067Y366552D01*
X930218Y366670D01*
X930372Y366785D01*
X930529Y366896D01*
X930688Y367003D01*
X930850Y367106D01*
X931014Y367205D01*
X931180Y367301D01*
X931349Y367392D01*
X931520Y367479D01*
X931693Y367562D01*
X931868Y367640D01*
X932045Y367715D01*
X932223Y367785D01*
X932403Y367851D01*
X932585Y367912D01*
X932768Y367970D01*
X932953Y368022D01*
X933138Y368070D01*
X933325Y368114D01*
X933513Y368153D01*
X933702Y368188D01*
X933891Y368218D01*
X934081Y368243D01*
X934272Y368264D01*
X934463Y368280D01*
X934654Y368292D01*
X934846Y368299D01*
X935038Y368301D01*
X927100Y360363D02*
X927100Y339725D01*
X240077Y355600D02*
X240082Y356020D01*
X240098Y356439D01*
X240123Y356858D01*
X240159Y357276D01*
X240206Y357693D01*
X240262Y358109D01*
X240329Y358523D01*
X240406Y358936D01*
X240492Y359346D01*
X240589Y359754D01*
X240696Y360160D01*
X240813Y360563D01*
X240940Y360963D01*
X241076Y361360D01*
X241223Y361753D01*
X241379Y362143D01*
X241544Y362529D01*
X241719Y362910D01*
X241903Y363287D01*
X242096Y363660D01*
X242298Y364028D01*
X242510Y364390D01*
X242730Y364747D01*
X242959Y365099D01*
X243196Y365445D01*
X243442Y365785D01*
X243696Y366119D01*
X243958Y366447D01*
X244228Y366768D01*
X244506Y367082D01*
X244792Y367390D01*
X245085Y367690D01*
X245385Y367983D01*
X245693Y368269D01*
X246007Y368547D01*
X246328Y368817D01*
X246656Y369079D01*
X246990Y369333D01*
X247330Y369579D01*
X247676Y369816D01*
X248028Y370045D01*
X248385Y370265D01*
X248747Y370477D01*
X249115Y370679D01*
X249488Y370872D01*
X249865Y371056D01*
X250246Y371231D01*
X250632Y371396D01*
X251022Y371552D01*
X251415Y371699D01*
X251812Y371835D01*
X252212Y371962D01*
X252615Y372079D01*
X253021Y372186D01*
X253429Y372283D01*
X253839Y372369D01*
X254252Y372446D01*
X254666Y372513D01*
X255082Y372569D01*
X255499Y372616D01*
X255917Y372652D01*
X256336Y372677D01*
X256755Y372693D01*
X257175Y372698D01*
X257595Y372693D01*
X258014Y372677D01*
X258433Y372652D01*
X258851Y372616D01*
X259268Y372569D01*
X259684Y372513D01*
X260098Y372446D01*
X260511Y372369D01*
X260921Y372283D01*
X261329Y372186D01*
X261735Y372079D01*
X262138Y371962D01*
X262538Y371835D01*
X262935Y371699D01*
X263328Y371552D01*
X263718Y371396D01*
X264104Y371231D01*
X264485Y371056D01*
X264862Y370872D01*
X265235Y370679D01*
X265603Y370477D01*
X265965Y370265D01*
X266322Y370045D01*
X266674Y369816D01*
X267020Y369579D01*
X267360Y369333D01*
X267694Y369079D01*
X268022Y368817D01*
X268343Y368547D01*
X268657Y368269D01*
X268965Y367983D01*
X269265Y367690D01*
X269558Y367390D01*
X269844Y367082D01*
X270122Y366768D01*
X270392Y366447D01*
X270654Y366119D01*
X270908Y365785D01*
X271154Y365445D01*
X271391Y365099D01*
X271620Y364747D01*
X271840Y364390D01*
X272052Y364028D01*
X272254Y363660D01*
X272447Y363287D01*
X272631Y362910D01*
X272806Y362529D01*
X272971Y362143D01*
X273127Y361753D01*
X273274Y361360D01*
X273410Y360963D01*
X273537Y360563D01*
X273654Y360160D01*
X273761Y359754D01*
X273858Y359346D01*
X273944Y358936D01*
X274021Y358523D01*
X274088Y358109D01*
X274144Y357693D01*
X274191Y357276D01*
X274227Y356858D01*
X274252Y356439D01*
X274268Y356020D01*
X274273Y355600D01*
X274268Y355180D01*
X274252Y354761D01*
X274227Y354342D01*
X274191Y353924D01*
X274144Y353507D01*
X274088Y353091D01*
X274021Y352677D01*
X273944Y352264D01*
X273858Y351854D01*
X273761Y351446D01*
X273654Y351040D01*
X273537Y350637D01*
X273410Y350237D01*
X273274Y349840D01*
X273127Y349447D01*
X272971Y349057D01*
X272806Y348671D01*
X272631Y348290D01*
X272447Y347913D01*
X272254Y347540D01*
X272052Y347172D01*
X271840Y346810D01*
X271620Y346453D01*
X271391Y346101D01*
X271154Y345755D01*
X270908Y345415D01*
X270654Y345081D01*
X270392Y344753D01*
X270122Y344432D01*
X269844Y344118D01*
X269558Y343810D01*
X269265Y343510D01*
X268965Y343217D01*
X268657Y342931D01*
X268343Y342653D01*
X268022Y342383D01*
X267694Y342121D01*
X267360Y341867D01*
X267020Y341621D01*
X266674Y341384D01*
X266322Y341155D01*
X265965Y340935D01*
X265603Y340723D01*
X265235Y340521D01*
X264862Y340328D01*
X264485Y340144D01*
X264104Y339969D01*
X263718Y339804D01*
X263328Y339648D01*
X262935Y339501D01*
X262538Y339365D01*
X262138Y339238D01*
X261735Y339121D01*
X261329Y339014D01*
X260921Y338917D01*
X260511Y338831D01*
X260098Y338754D01*
X259684Y338687D01*
X259268Y338631D01*
X258851Y338584D01*
X258433Y338548D01*
X258014Y338523D01*
X257595Y338507D01*
X257175Y338502D01*
X256755Y338507D01*
X256336Y338523D01*
X255917Y338548D01*
X255499Y338584D01*
X255082Y338631D01*
X254666Y338687D01*
X254252Y338754D01*
X253839Y338831D01*
X253429Y338917D01*
X253021Y339014D01*
X252615Y339121D01*
X252212Y339238D01*
X251812Y339365D01*
X251415Y339501D01*
X251022Y339648D01*
X250632Y339804D01*
X250246Y339969D01*
X249865Y340144D01*
X249488Y340328D01*
X249115Y340521D01*
X248747Y340723D01*
X248385Y340935D01*
X248028Y341155D01*
X247676Y341384D01*
X247330Y341621D01*
X246990Y341867D01*
X246656Y342121D01*
X246328Y342383D01*
X246007Y342653D01*
X245693Y342931D01*
X245385Y343217D01*
X245085Y343510D01*
X244792Y343810D01*
X244506Y344118D01*
X244228Y344432D01*
X243958Y344753D01*
X243696Y345081D01*
X243442Y345415D01*
X243196Y345755D01*
X242959Y346101D01*
X242730Y346453D01*
X242510Y346810D01*
X242298Y347172D01*
X242096Y347540D01*
X241903Y347913D01*
X241719Y348290D01*
X241544Y348671D01*
X241379Y349057D01*
X241223Y349447D01*
X241076Y349840D01*
X240940Y350237D01*
X240813Y350637D01*
X240696Y351040D01*
X240589Y351446D01*
X240492Y351854D01*
X240406Y352264D01*
X240329Y352677D01*
X240262Y353091D01*
X240206Y353507D01*
X240159Y353924D01*
X240123Y354342D01*
X240098Y354761D01*
X240082Y355180D01*
X240077Y355600D01*
X240300Y254000D02*
X240305Y254414D01*
X240320Y254828D01*
X240346Y255241D01*
X240381Y255654D01*
X240427Y256066D01*
X240483Y256476D01*
X240548Y256885D01*
X240624Y257292D01*
X240710Y257697D01*
X240806Y258100D01*
X240911Y258501D01*
X241027Y258899D01*
X241152Y259293D01*
X241286Y259685D01*
X241431Y260073D01*
X241585Y260458D01*
X241748Y260838D01*
X241920Y261215D01*
X242102Y261587D01*
X242293Y261955D01*
X242492Y262318D01*
X242701Y262675D01*
X242918Y263028D01*
X243144Y263375D01*
X243378Y263717D01*
X243621Y264052D01*
X243872Y264382D01*
X244130Y264705D01*
X244397Y265022D01*
X244671Y265333D01*
X244953Y265636D01*
X245243Y265932D01*
X245539Y266222D01*
X245842Y266504D01*
X246153Y266778D01*
X246470Y267045D01*
X246793Y267303D01*
X247123Y267554D01*
X247458Y267797D01*
X247800Y268031D01*
X248147Y268257D01*
X248500Y268474D01*
X248857Y268683D01*
X249220Y268882D01*
X249588Y269073D01*
X249960Y269255D01*
X250337Y269427D01*
X250717Y269590D01*
X251102Y269744D01*
X251490Y269889D01*
X251882Y270023D01*
X252276Y270148D01*
X252674Y270264D01*
X253075Y270369D01*
X253478Y270465D01*
X253883Y270551D01*
X254290Y270627D01*
X254699Y270692D01*
X255109Y270748D01*
X255521Y270794D01*
X255934Y270829D01*
X256347Y270855D01*
X256761Y270870D01*
X257175Y270875D01*
X257589Y270870D01*
X258003Y270855D01*
X258416Y270829D01*
X258829Y270794D01*
X259241Y270748D01*
X259651Y270692D01*
X260060Y270627D01*
X260467Y270551D01*
X260872Y270465D01*
X261275Y270369D01*
X261676Y270264D01*
X262074Y270148D01*
X262468Y270023D01*
X262860Y269889D01*
X263248Y269744D01*
X263633Y269590D01*
X264013Y269427D01*
X264390Y269255D01*
X264762Y269073D01*
X265130Y268882D01*
X265493Y268683D01*
X265850Y268474D01*
X266203Y268257D01*
X266550Y268031D01*
X266892Y267797D01*
X267227Y267554D01*
X267557Y267303D01*
X267880Y267045D01*
X268197Y266778D01*
X268508Y266504D01*
X268811Y266222D01*
X269107Y265932D01*
X269397Y265636D01*
X269679Y265333D01*
X269953Y265022D01*
X270220Y264705D01*
X270478Y264382D01*
X270729Y264052D01*
X270972Y263717D01*
X271206Y263375D01*
X271432Y263028D01*
X271649Y262675D01*
X271858Y262318D01*
X272057Y261955D01*
X272248Y261587D01*
X272430Y261215D01*
X272602Y260838D01*
X272765Y260458D01*
X272919Y260073D01*
X273064Y259685D01*
X273198Y259293D01*
X273323Y258899D01*
X273439Y258501D01*
X273544Y258100D01*
X273640Y257697D01*
X273726Y257292D01*
X273802Y256885D01*
X273867Y256476D01*
X273923Y256066D01*
X273969Y255654D01*
X274004Y255241D01*
X274030Y254828D01*
X274045Y254414D01*
X274050Y254000D01*
X274045Y253586D01*
X274030Y253172D01*
X274004Y252759D01*
X273969Y252346D01*
X273923Y251934D01*
X273867Y251524D01*
X273802Y251115D01*
X273726Y250708D01*
X273640Y250303D01*
X273544Y249900D01*
X273439Y249499D01*
X273323Y249101D01*
X273198Y248707D01*
X273064Y248315D01*
X272919Y247927D01*
X272765Y247542D01*
X272602Y247162D01*
X272430Y246785D01*
X272248Y246413D01*
X272057Y246045D01*
X271858Y245682D01*
X271649Y245325D01*
X271432Y244972D01*
X271206Y244625D01*
X270972Y244283D01*
X270729Y243948D01*
X270478Y243618D01*
X270220Y243295D01*
X269953Y242978D01*
X269679Y242667D01*
X269397Y242364D01*
X269107Y242068D01*
X268811Y241778D01*
X268508Y241496D01*
X268197Y241222D01*
X267880Y240955D01*
X267557Y240697D01*
X267227Y240446D01*
X266892Y240203D01*
X266550Y239969D01*
X266203Y239743D01*
X265850Y239526D01*
X265493Y239317D01*
X265130Y239118D01*
X264762Y238927D01*
X264390Y238745D01*
X264013Y238573D01*
X263633Y238410D01*
X263248Y238256D01*
X262860Y238111D01*
X262468Y237977D01*
X262074Y237852D01*
X261676Y237736D01*
X261275Y237631D01*
X260872Y237535D01*
X260467Y237449D01*
X260060Y237373D01*
X259651Y237308D01*
X259241Y237252D01*
X258829Y237206D01*
X258416Y237171D01*
X258003Y237145D01*
X257589Y237130D01*
X257175Y237125D01*
X256761Y237130D01*
X256347Y237145D01*
X255934Y237171D01*
X255521Y237206D01*
X255109Y237252D01*
X254699Y237308D01*
X254290Y237373D01*
X253883Y237449D01*
X253478Y237535D01*
X253075Y237631D01*
X252674Y237736D01*
X252276Y237852D01*
X251882Y237977D01*
X251490Y238111D01*
X251102Y238256D01*
X250717Y238410D01*
X250337Y238573D01*
X249960Y238745D01*
X249588Y238927D01*
X249220Y239118D01*
X248857Y239317D01*
X248500Y239526D01*
X248147Y239743D01*
X247800Y239969D01*
X247458Y240203D01*
X247123Y240446D01*
X246793Y240697D01*
X246470Y240955D01*
X246153Y241222D01*
X245842Y241496D01*
X245539Y241778D01*
X245243Y242068D01*
X244953Y242364D01*
X244671Y242667D01*
X244397Y242978D01*
X244130Y243295D01*
X243872Y243618D01*
X243621Y243948D01*
X243378Y244283D01*
X243144Y244625D01*
X242918Y244972D01*
X242701Y245325D01*
X242492Y245682D01*
X242293Y246045D01*
X242102Y246413D01*
X241920Y246785D01*
X241748Y247162D01*
X241585Y247542D01*
X241431Y247927D01*
X241286Y248315D01*
X241152Y248707D01*
X241027Y249101D01*
X240911Y249499D01*
X240806Y249900D01*
X240710Y250303D01*
X240624Y250708D01*
X240548Y251115D01*
X240483Y251524D01*
X240427Y251934D01*
X240381Y252346D01*
X240346Y252759D01*
X240320Y253172D01*
X240305Y253586D01*
X240300Y254000D01*
X1791653Y177800D02*
X1799590Y177800D01*
X1801508Y177823D01*
X1803425Y177893D01*
X1805340Y178009D01*
X1807251Y178171D01*
X1809158Y178379D01*
X1811059Y178633D01*
X1812953Y178933D01*
X1814840Y179279D01*
X1816718Y179670D01*
X1818586Y180106D01*
X1820442Y180588D01*
X1822287Y181114D01*
X1824118Y181685D01*
X1825935Y182300D01*
X1827737Y182958D01*
X1829522Y183660D01*
X1831290Y184405D01*
X1833039Y185192D01*
X1834768Y186021D01*
X1836477Y186892D01*
X1838165Y187804D01*
X1839830Y188756D01*
X1841471Y189748D01*
X1843088Y190780D01*
X1844680Y191851D01*
X1846245Y192959D01*
X1847784Y194105D01*
X1849293Y195288D01*
X1850774Y196507D01*
X1852225Y197762D01*
X1853646Y199051D01*
X1855034Y200374D01*
X1856391Y201731D01*
X1857714Y203119D01*
X1859003Y204540D01*
X1860258Y205991D01*
X1861477Y207472D01*
X1862660Y208981D01*
X1863806Y210520D01*
X1864914Y212085D01*
X1865985Y213677D01*
X1867017Y215294D01*
X1868009Y216935D01*
X1868961Y218600D01*
X1869873Y220288D01*
X1870744Y221997D01*
X1871573Y223726D01*
X1872360Y225475D01*
X1873105Y227243D01*
X1873807Y229028D01*
X1874465Y230830D01*
X1875080Y232647D01*
X1875651Y234478D01*
X1876177Y236323D01*
X1876659Y238179D01*
X1877095Y240047D01*
X1877486Y241925D01*
X1877832Y243812D01*
X1878132Y245706D01*
X1878386Y247607D01*
X1878594Y249514D01*
X1878756Y251425D01*
X1878872Y253340D01*
X1878942Y255257D01*
X1878965Y257175D01*
X1878965Y346075D01*
X1878940Y348146D01*
X1878865Y350217D01*
X1878740Y352284D01*
X1878565Y354349D01*
X1878340Y356408D01*
X1878065Y358461D01*
X1877741Y360507D01*
X1877368Y362545D01*
X1876945Y364573D01*
X1876474Y366590D01*
X1875954Y368596D01*
X1875386Y370588D01*
X1874769Y372565D01*
X1874105Y374528D01*
X1873394Y376474D01*
X1872636Y378401D01*
X1871832Y380311D01*
X1870982Y382200D01*
X1870086Y384068D01*
X1869146Y385913D01*
X1868161Y387736D01*
X1867132Y389534D01*
X1866061Y391307D01*
X1864946Y393053D01*
X1863790Y394772D01*
X1862593Y396463D01*
X1861355Y398124D01*
X1860078Y399755D01*
X1858761Y401354D01*
X1857406Y402921D01*
X1856014Y404455D01*
X1854585Y405955D01*
X1853120Y407420D01*
X1851620Y408849D01*
X1850086Y410241D01*
X1848519Y411596D01*
X1846920Y412913D01*
X1845289Y414190D01*
X1843628Y415428D01*
X1841937Y416625D01*
X1840218Y417781D01*
X1838472Y418896D01*
X1836699Y419967D01*
X1834901Y420996D01*
X1833078Y421981D01*
X1831233Y422921D01*
X1829365Y423817D01*
X1827476Y424667D01*
X1825566Y425471D01*
X1823639Y426229D01*
X1821693Y426940D01*
X1819730Y427604D01*
X1817753Y428221D01*
X1815761Y428789D01*
X1813755Y429309D01*
X1811738Y429780D01*
X1809710Y430203D01*
X1807672Y430576D01*
X1805626Y430900D01*
X1803573Y431175D01*
X1801514Y431400D01*
X1799449Y431575D01*
X1797382Y431700D01*
X1795311Y431775D01*
X1793240Y431800D01*
X249238Y177800D02*
X248509Y177809D01*
X247781Y177835D01*
X247053Y177879D01*
X246327Y177941D01*
X245602Y178020D01*
X244880Y178117D01*
X244160Y178231D01*
X243443Y178362D01*
X242729Y178511D01*
X242020Y178676D01*
X241314Y178859D01*
X240613Y179059D01*
X239917Y179276D01*
X239227Y179510D01*
X238542Y179760D01*
X237864Y180027D01*
X237192Y180310D01*
X236527Y180609D01*
X235870Y180924D01*
X235221Y181255D01*
X234579Y181602D01*
X233947Y181963D01*
X233323Y182340D01*
X232708Y182733D01*
X232103Y183139D01*
X231509Y183561D01*
X230924Y183996D01*
X230350Y184446D01*
X229788Y184909D01*
X229236Y185386D01*
X228697Y185876D01*
X228169Y186378D01*
X227653Y186894D01*
X227151Y187422D01*
X226661Y187961D01*
X226184Y188513D01*
X225721Y189075D01*
X225271Y189649D01*
X224836Y190234D01*
X224414Y190828D01*
X224008Y191433D01*
X223615Y192048D01*
X223238Y192672D01*
X222877Y193304D01*
X222530Y193946D01*
X222199Y194595D01*
X221884Y195252D01*
X221585Y195917D01*
X221302Y196589D01*
X221035Y197267D01*
X220785Y197952D01*
X220551Y198642D01*
X220334Y199338D01*
X220134Y200039D01*
X219951Y200745D01*
X219786Y201454D01*
X219637Y202168D01*
X219506Y202885D01*
X219392Y203605D01*
X219295Y204327D01*
X219216Y205052D01*
X219154Y205778D01*
X219110Y206506D01*
X219084Y207234D01*
X219075Y207963D01*
X219075Y401638D02*
X219084Y402367D01*
X219110Y403095D01*
X219154Y403823D01*
X219216Y404549D01*
X219295Y405274D01*
X219392Y405996D01*
X219506Y406716D01*
X219637Y407433D01*
X219786Y408147D01*
X219951Y408856D01*
X220134Y409562D01*
X220334Y410263D01*
X220551Y410959D01*
X220785Y411649D01*
X221035Y412334D01*
X221302Y413012D01*
X221585Y413684D01*
X221884Y414349D01*
X222199Y415006D01*
X222530Y415655D01*
X222877Y416297D01*
X223238Y416929D01*
X223615Y417553D01*
X224008Y418168D01*
X224414Y418773D01*
X224836Y419367D01*
X225271Y419952D01*
X225721Y420526D01*
X226184Y421088D01*
X226661Y421640D01*
X227151Y422179D01*
X227653Y422707D01*
X228169Y423223D01*
X228697Y423725D01*
X229236Y424215D01*
X229788Y424692D01*
X230350Y425155D01*
X230924Y425605D01*
X231509Y426040D01*
X232103Y426462D01*
X232708Y426868D01*
X233323Y427261D01*
X233947Y427638D01*
X234579Y427999D01*
X235221Y428346D01*
X235870Y428677D01*
X236527Y428992D01*
X237192Y429291D01*
X237864Y429574D01*
X238542Y429841D01*
X239227Y430091D01*
X239917Y430325D01*
X240613Y430542D01*
X241314Y430742D01*
X242020Y430925D01*
X242729Y431090D01*
X243443Y431239D01*
X244160Y431370D01*
X244880Y431484D01*
X245602Y431581D01*
X246327Y431660D01*
X247053Y431722D01*
X247781Y431766D01*
X248509Y431792D01*
X249238Y431801D01*
X1304925Y177800D02*
X1305117Y177802D01*
X1305309Y177809D01*
X1305500Y177821D01*
X1305691Y177837D01*
X1305882Y177858D01*
X1306072Y177883D01*
X1306261Y177913D01*
X1306450Y177948D01*
X1306638Y177987D01*
X1306825Y178031D01*
X1307010Y178079D01*
X1307195Y178131D01*
X1307378Y178189D01*
X1307560Y178250D01*
X1307740Y178316D01*
X1307918Y178386D01*
X1308095Y178461D01*
X1308270Y178539D01*
X1308443Y178622D01*
X1308614Y178709D01*
X1308783Y178800D01*
X1308949Y178896D01*
X1309113Y178995D01*
X1309275Y179098D01*
X1309434Y179205D01*
X1309591Y179316D01*
X1309745Y179431D01*
X1309896Y179549D01*
X1310044Y179671D01*
X1310189Y179796D01*
X1310331Y179925D01*
X1310470Y180058D01*
X1310605Y180193D01*
X1310738Y180332D01*
X1310867Y180474D01*
X1310992Y180619D01*
X1311114Y180767D01*
X1311232Y180918D01*
X1311347Y181072D01*
X1311458Y181229D01*
X1311565Y181388D01*
X1311668Y181550D01*
X1311767Y181714D01*
X1311863Y181880D01*
X1311954Y182049D01*
X1312041Y182220D01*
X1312124Y182393D01*
X1312202Y182568D01*
X1312277Y182745D01*
X1312347Y182923D01*
X1312413Y183103D01*
X1312474Y183285D01*
X1312532Y183468D01*
X1312584Y183653D01*
X1312632Y183838D01*
X1312676Y184025D01*
X1312715Y184213D01*
X1312750Y184402D01*
X1312780Y184591D01*
X1312805Y184781D01*
X1312826Y184972D01*
X1312842Y185163D01*
X1312854Y185354D01*
X1312861Y185546D01*
X1312863Y185738D01*
X1238250Y177800D02*
X1238058Y177802D01*
X1237866Y177809D01*
X1237675Y177821D01*
X1237484Y177837D01*
X1237293Y177858D01*
X1237103Y177883D01*
X1236914Y177913D01*
X1236725Y177948D01*
X1236537Y177987D01*
X1236350Y178031D01*
X1236165Y178079D01*
X1235980Y178131D01*
X1235797Y178189D01*
X1235615Y178250D01*
X1235435Y178316D01*
X1235257Y178386D01*
X1235080Y178461D01*
X1234905Y178539D01*
X1234732Y178622D01*
X1234561Y178709D01*
X1234392Y178800D01*
X1234226Y178896D01*
X1234062Y178995D01*
X1233900Y179098D01*
X1233741Y179205D01*
X1233584Y179316D01*
X1233430Y179431D01*
X1233279Y179549D01*
X1233131Y179671D01*
X1232986Y179796D01*
X1232844Y179925D01*
X1232705Y180058D01*
X1232570Y180193D01*
X1232437Y180332D01*
X1232308Y180474D01*
X1232183Y180619D01*
X1232061Y180767D01*
X1231943Y180918D01*
X1231828Y181072D01*
X1231717Y181229D01*
X1231610Y181388D01*
X1231507Y181550D01*
X1231408Y181714D01*
X1231312Y181880D01*
X1231221Y182049D01*
X1231134Y182220D01*
X1231051Y182393D01*
X1230973Y182568D01*
X1230898Y182745D01*
X1230828Y182923D01*
X1230762Y183103D01*
X1230701Y183285D01*
X1230643Y183468D01*
X1230591Y183653D01*
X1230543Y183838D01*
X1230499Y184025D01*
X1230460Y184213D01*
X1230425Y184402D01*
X1230395Y184591D01*
X1230370Y184781D01*
X1230349Y184972D01*
X1230333Y185163D01*
X1230321Y185354D01*
X1230314Y185546D01*
X1230312Y185738D01*
X1230313Y425450D02*
X1230315Y425608D01*
X1230321Y425767D01*
X1230331Y425925D01*
X1230345Y426082D01*
X1230362Y426240D01*
X1230384Y426396D01*
X1230409Y426553D01*
X1230439Y426708D01*
X1230472Y426863D01*
X1230509Y427017D01*
X1230550Y427170D01*
X1230595Y427322D01*
X1230644Y427472D01*
X1230696Y427622D01*
X1230752Y427770D01*
X1230812Y427917D01*
X1230875Y428062D01*
X1230942Y428205D01*
X1231012Y428347D01*
X1231086Y428487D01*
X1231164Y428625D01*
X1231245Y428761D01*
X1231329Y428895D01*
X1231416Y429027D01*
X1231507Y429157D01*
X1231601Y429284D01*
X1231698Y429409D01*
X1231799Y429532D01*
X1231902Y429652D01*
X1232008Y429769D01*
X1232117Y429884D01*
X1232229Y429996D01*
X1232344Y430105D01*
X1232461Y430211D01*
X1232581Y430314D01*
X1232704Y430415D01*
X1232829Y430512D01*
X1232956Y430606D01*
X1233086Y430697D01*
X1233218Y430784D01*
X1233352Y430868D01*
X1233488Y430949D01*
X1233626Y431027D01*
X1233766Y431101D01*
X1233908Y431171D01*
X1234051Y431238D01*
X1234196Y431301D01*
X1234343Y431361D01*
X1234491Y431417D01*
X1234641Y431469D01*
X1234791Y431518D01*
X1234943Y431563D01*
X1235096Y431604D01*
X1235250Y431641D01*
X1235405Y431674D01*
X1235560Y431704D01*
X1235717Y431729D01*
X1235873Y431751D01*
X1236031Y431768D01*
X1236188Y431782D01*
X1236346Y431792D01*
X1236505Y431798D01*
X1236663Y431800D01*
X1306513Y431800D02*
X1306671Y431798D01*
X1306830Y431792D01*
X1306988Y431782D01*
X1307145Y431768D01*
X1307303Y431751D01*
X1307459Y431729D01*
X1307616Y431704D01*
X1307771Y431674D01*
X1307926Y431641D01*
X1308080Y431604D01*
X1308233Y431563D01*
X1308385Y431518D01*
X1308535Y431469D01*
X1308685Y431417D01*
X1308833Y431361D01*
X1308980Y431301D01*
X1309125Y431238D01*
X1309268Y431171D01*
X1309410Y431101D01*
X1309550Y431027D01*
X1309688Y430949D01*
X1309824Y430868D01*
X1309958Y430784D01*
X1310090Y430697D01*
X1310220Y430606D01*
X1310347Y430512D01*
X1310472Y430415D01*
X1310595Y430314D01*
X1310715Y430211D01*
X1310832Y430105D01*
X1310947Y429996D01*
X1311059Y429884D01*
X1311168Y429769D01*
X1311274Y429652D01*
X1311377Y429532D01*
X1311478Y429409D01*
X1311575Y429284D01*
X1311669Y429157D01*
X1311760Y429027D01*
X1311847Y428895D01*
X1311931Y428761D01*
X1312012Y428625D01*
X1312090Y428487D01*
X1312164Y428347D01*
X1312234Y428205D01*
X1312301Y428062D01*
X1312364Y427917D01*
X1312424Y427770D01*
X1312480Y427622D01*
X1312532Y427472D01*
X1312581Y427322D01*
X1312626Y427170D01*
X1312667Y427017D01*
X1312704Y426863D01*
X1312737Y426708D01*
X1312767Y426553D01*
X1312792Y426396D01*
X1312814Y426240D01*
X1312831Y426082D01*
X1312845Y425925D01*
X1312855Y425767D01*
X1312861Y425608D01*
X1312863Y425450D01*
X1312863Y185738D02*
X1312861Y185546D01*
X1312854Y185354D01*
X1312842Y185163D01*
X1312826Y184972D01*
X1312805Y184781D01*
X1312780Y184591D01*
X1312750Y184402D01*
X1312715Y184213D01*
X1312676Y184025D01*
X1312632Y183838D01*
X1312584Y183653D01*
X1312532Y183468D01*
X1312474Y183285D01*
X1312413Y183103D01*
X1312347Y182923D01*
X1312277Y182745D01*
X1312202Y182568D01*
X1312124Y182393D01*
X1312041Y182220D01*
X1311954Y182049D01*
X1311863Y181880D01*
X1311767Y181714D01*
X1311668Y181550D01*
X1311565Y181388D01*
X1311458Y181229D01*
X1311347Y181072D01*
X1311232Y180918D01*
X1311114Y180767D01*
X1310992Y180619D01*
X1310867Y180474D01*
X1310738Y180332D01*
X1310605Y180193D01*
X1310470Y180058D01*
X1310331Y179925D01*
X1310189Y179796D01*
X1310044Y179671D01*
X1309896Y179549D01*
X1309745Y179431D01*
X1309591Y179316D01*
X1309434Y179205D01*
X1309275Y179098D01*
X1309113Y178995D01*
X1308949Y178896D01*
X1308783Y178800D01*
X1308614Y178709D01*
X1308443Y178622D01*
X1308270Y178539D01*
X1308095Y178461D01*
X1307918Y178386D01*
X1307740Y178316D01*
X1307560Y178250D01*
X1307378Y178189D01*
X1307195Y178131D01*
X1307010Y178079D01*
X1306825Y178031D01*
X1306638Y177987D01*
X1306450Y177948D01*
X1306261Y177913D01*
X1306072Y177883D01*
X1305882Y177858D01*
X1305691Y177837D01*
X1305500Y177821D01*
X1305309Y177809D01*
X1305117Y177802D01*
X1304925Y177800D01*
X1788477Y427038D02*
X1788479Y427174D01*
X1788485Y427310D01*
X1788494Y427446D01*
X1788508Y427581D01*
X1788525Y427716D01*
X1788547Y427850D01*
X1788572Y427984D01*
X1788601Y428117D01*
X1788633Y428249D01*
X1788670Y428380D01*
X1788710Y428510D01*
X1788754Y428639D01*
X1788802Y428766D01*
X1788853Y428892D01*
X1788907Y429017D01*
X1788966Y429140D01*
X1789027Y429261D01*
X1789093Y429380D01*
X1789161Y429498D01*
X1789233Y429613D01*
X1789308Y429726D01*
X1789387Y429838D01*
X1789468Y429947D01*
X1789553Y430053D01*
X1789640Y430157D01*
X1789731Y430259D01*
X1789824Y430358D01*
X1789920Y430454D01*
X1790019Y430547D01*
X1790121Y430638D01*
X1790225Y430725D01*
X1790331Y430810D01*
X1790440Y430891D01*
X1790552Y430970D01*
X1790665Y431045D01*
X1790780Y431117D01*
X1790898Y431185D01*
X1791017Y431251D01*
X1791138Y431312D01*
X1791261Y431371D01*
X1791386Y431425D01*
X1791512Y431476D01*
X1791639Y431524D01*
X1791768Y431568D01*
X1791898Y431608D01*
X1792029Y431645D01*
X1792161Y431677D01*
X1792294Y431706D01*
X1792428Y431731D01*
X1792562Y431753D01*
X1792697Y431770D01*
X1792832Y431784D01*
X1792968Y431793D01*
X1793104Y431799D01*
X1793240Y431801D01*
X1788478Y180975D02*
X1788480Y180864D01*
X1788486Y180754D01*
X1788495Y180643D01*
X1788509Y180533D01*
X1788526Y180424D01*
X1788547Y180315D01*
X1788572Y180207D01*
X1788601Y180100D01*
X1788633Y179994D01*
X1788669Y179889D01*
X1788709Y179786D01*
X1788752Y179684D01*
X1788799Y179583D01*
X1788850Y179484D01*
X1788903Y179388D01*
X1788960Y179293D01*
X1789021Y179200D01*
X1789084Y179109D01*
X1789151Y179020D01*
X1789221Y178934D01*
X1789294Y178851D01*
X1789369Y178769D01*
X1789447Y178691D01*
X1789529Y178616D01*
X1789612Y178543D01*
X1789698Y178473D01*
X1789787Y178406D01*
X1789878Y178343D01*
X1789971Y178282D01*
X1790066Y178225D01*
X1790162Y178172D01*
X1790261Y178121D01*
X1790362Y178074D01*
X1790464Y178031D01*
X1790567Y177991D01*
X1790672Y177955D01*
X1790778Y177923D01*
X1790885Y177894D01*
X1790993Y177869D01*
X1791102Y177848D01*
X1791211Y177831D01*
X1791321Y177817D01*
X1791432Y177808D01*
X1791542Y177802D01*
X1791653Y177800D01*
X1788478Y180975D02*
X1788478Y427038D01*
X919163Y177800D02*
X918971Y177802D01*
X918779Y177809D01*
X918588Y177821D01*
X918397Y177837D01*
X918206Y177858D01*
X918016Y177883D01*
X917827Y177913D01*
X917638Y177948D01*
X917450Y177987D01*
X917263Y178031D01*
X917078Y178079D01*
X916893Y178131D01*
X916710Y178189D01*
X916528Y178250D01*
X916348Y178316D01*
X916170Y178386D01*
X915993Y178461D01*
X915818Y178539D01*
X915645Y178622D01*
X915474Y178709D01*
X915305Y178800D01*
X915139Y178896D01*
X914975Y178995D01*
X914813Y179098D01*
X914654Y179205D01*
X914497Y179316D01*
X914343Y179431D01*
X914192Y179549D01*
X914044Y179671D01*
X913899Y179796D01*
X913757Y179925D01*
X913618Y180058D01*
X913483Y180193D01*
X913350Y180332D01*
X913221Y180474D01*
X913096Y180619D01*
X912974Y180767D01*
X912856Y180918D01*
X912741Y181072D01*
X912630Y181229D01*
X912523Y181388D01*
X912420Y181550D01*
X912321Y181714D01*
X912225Y181880D01*
X912134Y182049D01*
X912047Y182220D01*
X911964Y182393D01*
X911886Y182568D01*
X911811Y182745D01*
X911741Y182923D01*
X911675Y183103D01*
X911614Y183285D01*
X911556Y183468D01*
X911504Y183653D01*
X911456Y183838D01*
X911412Y184025D01*
X911373Y184213D01*
X911338Y184402D01*
X911308Y184591D01*
X911283Y184781D01*
X911262Y184972D01*
X911246Y185163D01*
X911234Y185354D01*
X911227Y185546D01*
X911225Y185738D01*
X911225Y422275D02*
X911228Y422505D01*
X911236Y422735D01*
X911250Y422965D01*
X911269Y423194D01*
X911294Y423423D01*
X911325Y423651D01*
X911361Y423879D01*
X911402Y424105D01*
X911449Y424330D01*
X911502Y424554D01*
X911560Y424777D01*
X911623Y424999D01*
X911691Y425218D01*
X911765Y425436D01*
X911844Y425653D01*
X911928Y425867D01*
X912018Y426079D01*
X912112Y426289D01*
X912212Y426496D01*
X912316Y426701D01*
X912425Y426904D01*
X912540Y427104D01*
X912659Y427301D01*
X912783Y427495D01*
X912911Y427686D01*
X913044Y427874D01*
X913182Y428058D01*
X913324Y428239D01*
X913470Y428417D01*
X913620Y428591D01*
X913775Y428762D01*
X913934Y428928D01*
X914097Y429091D01*
X914263Y429250D01*
X914434Y429405D01*
X914608Y429555D01*
X914786Y429701D01*
X914967Y429843D01*
X915151Y429981D01*
X915339Y430114D01*
X915530Y430242D01*
X915724Y430366D01*
X915921Y430485D01*
X916121Y430600D01*
X916324Y430709D01*
X916529Y430813D01*
X916736Y430913D01*
X916946Y431007D01*
X917158Y431097D01*
X917372Y431181D01*
X917589Y431260D01*
X917807Y431334D01*
X918026Y431402D01*
X918248Y431465D01*
X918471Y431523D01*
X918695Y431576D01*
X918920Y431623D01*
X919146Y431664D01*
X919374Y431700D01*
X919602Y431731D01*
X919831Y431756D01*
X920060Y431775D01*
X920290Y431789D01*
X920520Y431797D01*
X920750Y431800D01*
X1027113Y431801D02*
X1027305Y431799D01*
X1027497Y431792D01*
X1027688Y431780D01*
X1027879Y431764D01*
X1028070Y431743D01*
X1028260Y431718D01*
X1028449Y431688D01*
X1028638Y431653D01*
X1028826Y431614D01*
X1029013Y431570D01*
X1029198Y431522D01*
X1029383Y431470D01*
X1029566Y431412D01*
X1029748Y431351D01*
X1029928Y431285D01*
X1030106Y431215D01*
X1030283Y431140D01*
X1030458Y431062D01*
X1030631Y430979D01*
X1030802Y430892D01*
X1030971Y430801D01*
X1031137Y430705D01*
X1031301Y430606D01*
X1031463Y430503D01*
X1031622Y430396D01*
X1031779Y430285D01*
X1031933Y430170D01*
X1032084Y430052D01*
X1032232Y429930D01*
X1032377Y429805D01*
X1032519Y429676D01*
X1032658Y429543D01*
X1032793Y429408D01*
X1032926Y429269D01*
X1033055Y429127D01*
X1033180Y428982D01*
X1033302Y428834D01*
X1033420Y428683D01*
X1033535Y428529D01*
X1033646Y428372D01*
X1033753Y428213D01*
X1033856Y428051D01*
X1033955Y427887D01*
X1034051Y427721D01*
X1034142Y427552D01*
X1034229Y427381D01*
X1034312Y427208D01*
X1034390Y427033D01*
X1034465Y426856D01*
X1034535Y426678D01*
X1034601Y426498D01*
X1034662Y426316D01*
X1034720Y426133D01*
X1034772Y425948D01*
X1034820Y425763D01*
X1034864Y425576D01*
X1034903Y425388D01*
X1034938Y425199D01*
X1034968Y425010D01*
X1034993Y424820D01*
X1035014Y424629D01*
X1035030Y424438D01*
X1035042Y424247D01*
X1035049Y424055D01*
X1035051Y423863D01*
X1035051Y185738D02*
X1035049Y185546D01*
X1035042Y185354D01*
X1035030Y185163D01*
X1035014Y184972D01*
X1034993Y184781D01*
X1034968Y184591D01*
X1034938Y184402D01*
X1034903Y184213D01*
X1034864Y184025D01*
X1034820Y183838D01*
X1034772Y183653D01*
X1034720Y183468D01*
X1034662Y183285D01*
X1034601Y183103D01*
X1034535Y182923D01*
X1034465Y182745D01*
X1034390Y182568D01*
X1034312Y182393D01*
X1034229Y182220D01*
X1034142Y182049D01*
X1034051Y181880D01*
X1033955Y181714D01*
X1033856Y181550D01*
X1033753Y181388D01*
X1033646Y181229D01*
X1033535Y181072D01*
X1033420Y180918D01*
X1033302Y180767D01*
X1033180Y180619D01*
X1033055Y180474D01*
X1032926Y180332D01*
X1032793Y180193D01*
X1032658Y180058D01*
X1032519Y179925D01*
X1032377Y179796D01*
X1032232Y179671D01*
X1032084Y179549D01*
X1031933Y179431D01*
X1031779Y179316D01*
X1031622Y179205D01*
X1031463Y179098D01*
X1031301Y178995D01*
X1031137Y178896D01*
X1030971Y178800D01*
X1030802Y178709D01*
X1030631Y178622D01*
X1030458Y178539D01*
X1030283Y178461D01*
X1030106Y178386D01*
X1029928Y178316D01*
X1029748Y178250D01*
X1029566Y178189D01*
X1029383Y178131D01*
X1029198Y178079D01*
X1029013Y178031D01*
X1028826Y177987D01*
X1028638Y177948D01*
X1028449Y177913D01*
X1028260Y177883D01*
X1028070Y177858D01*
X1027879Y177837D01*
X1027688Y177821D01*
X1027497Y177809D01*
X1027305Y177802D01*
X1027113Y177800D01*
X488951Y423863D02*
X488949Y424055D01*
X488942Y424247D01*
X488930Y424438D01*
X488914Y424629D01*
X488893Y424820D01*
X488868Y425010D01*
X488838Y425199D01*
X488803Y425388D01*
X488764Y425576D01*
X488720Y425763D01*
X488672Y425948D01*
X488620Y426133D01*
X488562Y426316D01*
X488501Y426498D01*
X488435Y426678D01*
X488365Y426856D01*
X488290Y427033D01*
X488212Y427208D01*
X488129Y427381D01*
X488042Y427552D01*
X487951Y427721D01*
X487855Y427887D01*
X487756Y428051D01*
X487653Y428213D01*
X487546Y428372D01*
X487435Y428529D01*
X487320Y428683D01*
X487202Y428834D01*
X487080Y428982D01*
X486955Y429127D01*
X486826Y429269D01*
X486693Y429408D01*
X486558Y429543D01*
X486419Y429676D01*
X486277Y429805D01*
X486132Y429930D01*
X485984Y430052D01*
X485833Y430170D01*
X485679Y430285D01*
X485522Y430396D01*
X485363Y430503D01*
X485201Y430606D01*
X485037Y430705D01*
X484871Y430801D01*
X484702Y430892D01*
X484531Y430979D01*
X484358Y431062D01*
X484183Y431140D01*
X484006Y431215D01*
X483828Y431285D01*
X483648Y431351D01*
X483466Y431412D01*
X483283Y431470D01*
X483098Y431522D01*
X482913Y431570D01*
X482726Y431614D01*
X482538Y431653D01*
X482349Y431688D01*
X482160Y431718D01*
X481970Y431743D01*
X481779Y431764D01*
X481588Y431780D01*
X481397Y431792D01*
X481205Y431799D01*
X481013Y431801D01*
X488951Y185738D02*
X488949Y185546D01*
X488942Y185354D01*
X488930Y185163D01*
X488914Y184972D01*
X488893Y184781D01*
X488868Y184591D01*
X488838Y184402D01*
X488803Y184213D01*
X488764Y184025D01*
X488720Y183838D01*
X488672Y183653D01*
X488620Y183468D01*
X488562Y183285D01*
X488501Y183103D01*
X488435Y182923D01*
X488365Y182745D01*
X488290Y182568D01*
X488212Y182393D01*
X488129Y182220D01*
X488042Y182049D01*
X487951Y181880D01*
X487855Y181714D01*
X487756Y181550D01*
X487653Y181388D01*
X487546Y181229D01*
X487435Y181072D01*
X487320Y180918D01*
X487202Y180767D01*
X487080Y180619D01*
X486955Y180474D01*
X486826Y180332D01*
X486693Y180193D01*
X486558Y180058D01*
X486419Y179925D01*
X486277Y179796D01*
X486132Y179671D01*
X485984Y179549D01*
X485833Y179431D01*
X485679Y179316D01*
X485522Y179205D01*
X485363Y179098D01*
X485201Y178995D01*
X485037Y178896D01*
X484871Y178800D01*
X484702Y178709D01*
X484531Y178622D01*
X484358Y178539D01*
X484183Y178461D01*
X484006Y178386D01*
X483828Y178316D01*
X483648Y178250D01*
X483466Y178189D01*
X483283Y178131D01*
X483098Y178079D01*
X482913Y178031D01*
X482726Y177987D01*
X482538Y177948D01*
X482349Y177913D01*
X482160Y177883D01*
X481970Y177858D01*
X481779Y177837D01*
X481588Y177821D01*
X481397Y177809D01*
X481205Y177802D01*
X481013Y177800D01*
D11*
X315655Y336550D02*
X315657Y336691D01*
X315663Y336833D01*
X315673Y336974D01*
X315687Y337115D01*
X315705Y337255D01*
X315727Y337395D01*
X315752Y337534D01*
X315782Y337672D01*
X315816Y337809D01*
X315853Y337946D01*
X315894Y338081D01*
X315939Y338215D01*
X315988Y338348D01*
X316041Y338479D01*
X316097Y338609D01*
X316157Y338737D01*
X316220Y338864D01*
X316287Y338988D01*
X316357Y339111D01*
X316431Y339231D01*
X316508Y339350D01*
X316589Y339466D01*
X316673Y339580D01*
X316760Y339692D01*
X316850Y339801D01*
X316943Y339907D01*
X317039Y340011D01*
X317138Y340112D01*
X317240Y340210D01*
X317344Y340306D01*
X317451Y340398D01*
X317561Y340487D01*
X317673Y340574D01*
X317788Y340657D01*
X317904Y340736D01*
X318023Y340813D01*
X318145Y340886D01*
X318268Y340955D01*
X318393Y341021D01*
X318520Y341084D01*
X318648Y341143D01*
X318778Y341198D01*
X318910Y341250D01*
X319043Y341297D01*
X319178Y341341D01*
X319313Y341382D01*
X319450Y341418D01*
X319588Y341451D01*
X319726Y341479D01*
X319865Y341504D01*
X320005Y341525D01*
X320146Y341542D01*
X320286Y341555D01*
X320428Y341564D01*
X320569Y341569D01*
X320710Y341570D01*
X320852Y341567D01*
X320993Y341560D01*
X321134Y341549D01*
X321275Y341534D01*
X321415Y341515D01*
X321554Y341492D01*
X321693Y341466D01*
X321831Y341435D01*
X321969Y341400D01*
X322105Y341362D01*
X322240Y341320D01*
X322373Y341274D01*
X322506Y341224D01*
X322637Y341171D01*
X322766Y341114D01*
X322894Y341053D01*
X323020Y340989D01*
X323144Y340921D01*
X323266Y340850D01*
X323386Y340775D01*
X323504Y340697D01*
X323620Y340615D01*
X323733Y340531D01*
X323844Y340443D01*
X323953Y340352D01*
X324058Y340258D01*
X324162Y340162D01*
X324262Y340062D01*
X324359Y339960D01*
X324454Y339854D01*
X324546Y339747D01*
X324634Y339636D01*
X324720Y339524D01*
X324802Y339408D01*
X324881Y339291D01*
X324956Y339171D01*
X325028Y339050D01*
X325097Y338926D01*
X325162Y338801D01*
X325224Y338673D01*
X325282Y338544D01*
X325336Y338414D01*
X325387Y338282D01*
X325434Y338148D01*
X325477Y338014D01*
X325516Y337878D01*
X325552Y337741D01*
X325583Y337603D01*
X325611Y337464D01*
X325635Y337325D01*
X325655Y337185D01*
X325671Y337044D01*
X325683Y336903D01*
X325691Y336762D01*
X325695Y336621D01*
X325695Y336479D01*
X325691Y336338D01*
X325683Y336197D01*
X325671Y336056D01*
X325655Y335915D01*
X325635Y335775D01*
X325611Y335636D01*
X325583Y335497D01*
X325552Y335359D01*
X325516Y335222D01*
X325477Y335086D01*
X325434Y334952D01*
X325387Y334818D01*
X325336Y334686D01*
X325282Y334556D01*
X325224Y334427D01*
X325162Y334299D01*
X325097Y334174D01*
X325028Y334050D01*
X324956Y333929D01*
X324881Y333809D01*
X324802Y333692D01*
X324720Y333576D01*
X324634Y333464D01*
X324546Y333353D01*
X324454Y333246D01*
X324359Y333140D01*
X324262Y333038D01*
X324162Y332938D01*
X324058Y332842D01*
X323953Y332748D01*
X323844Y332657D01*
X323733Y332569D01*
X323620Y332485D01*
X323504Y332403D01*
X323386Y332325D01*
X323266Y332250D01*
X323144Y332179D01*
X323020Y332111D01*
X322894Y332047D01*
X322766Y331986D01*
X322637Y331929D01*
X322506Y331876D01*
X322373Y331826D01*
X322240Y331780D01*
X322105Y331738D01*
X321969Y331700D01*
X321831Y331665D01*
X321693Y331634D01*
X321554Y331608D01*
X321415Y331585D01*
X321275Y331566D01*
X321134Y331551D01*
X320993Y331540D01*
X320852Y331533D01*
X320710Y331530D01*
X320569Y331531D01*
X320428Y331536D01*
X320286Y331545D01*
X320146Y331558D01*
X320005Y331575D01*
X319865Y331596D01*
X319726Y331621D01*
X319588Y331649D01*
X319450Y331682D01*
X319313Y331718D01*
X319178Y331759D01*
X319043Y331803D01*
X318910Y331850D01*
X318778Y331902D01*
X318648Y331957D01*
X318520Y332016D01*
X318393Y332079D01*
X318268Y332145D01*
X318145Y332214D01*
X318023Y332287D01*
X317904Y332364D01*
X317788Y332443D01*
X317673Y332526D01*
X317561Y332613D01*
X317451Y332702D01*
X317344Y332794D01*
X317240Y332890D01*
X317138Y332988D01*
X317039Y333089D01*
X316943Y333193D01*
X316850Y333299D01*
X316760Y333408D01*
X316673Y333520D01*
X316589Y333634D01*
X316508Y333750D01*
X316431Y333869D01*
X316357Y333989D01*
X316287Y334112D01*
X316220Y334236D01*
X316157Y334363D01*
X316097Y334491D01*
X316041Y334621D01*
X315988Y334752D01*
X315939Y334885D01*
X315894Y335019D01*
X315853Y335154D01*
X315816Y335291D01*
X315782Y335428D01*
X315752Y335566D01*
X315727Y335705D01*
X315705Y335845D01*
X315687Y335985D01*
X315673Y336126D01*
X315663Y336267D01*
X315657Y336409D01*
X315655Y336550D01*
X341055Y323850D02*
X341057Y323991D01*
X341063Y324133D01*
X341073Y324274D01*
X341087Y324415D01*
X341105Y324555D01*
X341127Y324695D01*
X341152Y324834D01*
X341182Y324972D01*
X341216Y325109D01*
X341253Y325246D01*
X341294Y325381D01*
X341339Y325515D01*
X341388Y325648D01*
X341441Y325779D01*
X341497Y325909D01*
X341557Y326037D01*
X341620Y326164D01*
X341687Y326288D01*
X341757Y326411D01*
X341831Y326531D01*
X341908Y326650D01*
X341989Y326766D01*
X342073Y326880D01*
X342160Y326992D01*
X342250Y327101D01*
X342343Y327207D01*
X342439Y327311D01*
X342538Y327412D01*
X342640Y327510D01*
X342744Y327606D01*
X342851Y327698D01*
X342961Y327787D01*
X343073Y327874D01*
X343188Y327957D01*
X343304Y328036D01*
X343423Y328113D01*
X343545Y328186D01*
X343668Y328255D01*
X343793Y328321D01*
X343920Y328384D01*
X344048Y328443D01*
X344178Y328498D01*
X344310Y328550D01*
X344443Y328597D01*
X344578Y328641D01*
X344713Y328682D01*
X344850Y328718D01*
X344988Y328751D01*
X345126Y328779D01*
X345265Y328804D01*
X345405Y328825D01*
X345546Y328842D01*
X345686Y328855D01*
X345828Y328864D01*
X345969Y328869D01*
X346110Y328870D01*
X346252Y328867D01*
X346393Y328860D01*
X346534Y328849D01*
X346675Y328834D01*
X346815Y328815D01*
X346954Y328792D01*
X347093Y328766D01*
X347231Y328735D01*
X347369Y328700D01*
X347505Y328662D01*
X347640Y328620D01*
X347773Y328574D01*
X347906Y328524D01*
X348037Y328471D01*
X348166Y328414D01*
X348294Y328353D01*
X348420Y328289D01*
X348544Y328221D01*
X348666Y328150D01*
X348786Y328075D01*
X348904Y327997D01*
X349020Y327915D01*
X349133Y327831D01*
X349244Y327743D01*
X349353Y327652D01*
X349458Y327558D01*
X349562Y327462D01*
X349662Y327362D01*
X349759Y327260D01*
X349854Y327154D01*
X349946Y327047D01*
X350034Y326936D01*
X350120Y326824D01*
X350202Y326708D01*
X350281Y326591D01*
X350356Y326471D01*
X350428Y326350D01*
X350497Y326226D01*
X350562Y326101D01*
X350624Y325973D01*
X350682Y325844D01*
X350736Y325714D01*
X350787Y325582D01*
X350834Y325448D01*
X350877Y325314D01*
X350916Y325178D01*
X350952Y325041D01*
X350983Y324903D01*
X351011Y324764D01*
X351035Y324625D01*
X351055Y324485D01*
X351071Y324344D01*
X351083Y324203D01*
X351091Y324062D01*
X351095Y323921D01*
X351095Y323779D01*
X351091Y323638D01*
X351083Y323497D01*
X351071Y323356D01*
X351055Y323215D01*
X351035Y323075D01*
X351011Y322936D01*
X350983Y322797D01*
X350952Y322659D01*
X350916Y322522D01*
X350877Y322386D01*
X350834Y322252D01*
X350787Y322118D01*
X350736Y321986D01*
X350682Y321856D01*
X350624Y321727D01*
X350562Y321599D01*
X350497Y321474D01*
X350428Y321350D01*
X350356Y321229D01*
X350281Y321109D01*
X350202Y320992D01*
X350120Y320876D01*
X350034Y320764D01*
X349946Y320653D01*
X349854Y320546D01*
X349759Y320440D01*
X349662Y320338D01*
X349562Y320238D01*
X349458Y320142D01*
X349353Y320048D01*
X349244Y319957D01*
X349133Y319869D01*
X349020Y319785D01*
X348904Y319703D01*
X348786Y319625D01*
X348666Y319550D01*
X348544Y319479D01*
X348420Y319411D01*
X348294Y319347D01*
X348166Y319286D01*
X348037Y319229D01*
X347906Y319176D01*
X347773Y319126D01*
X347640Y319080D01*
X347505Y319038D01*
X347369Y319000D01*
X347231Y318965D01*
X347093Y318934D01*
X346954Y318908D01*
X346815Y318885D01*
X346675Y318866D01*
X346534Y318851D01*
X346393Y318840D01*
X346252Y318833D01*
X346110Y318830D01*
X345969Y318831D01*
X345828Y318836D01*
X345686Y318845D01*
X345546Y318858D01*
X345405Y318875D01*
X345265Y318896D01*
X345126Y318921D01*
X344988Y318949D01*
X344850Y318982D01*
X344713Y319018D01*
X344578Y319059D01*
X344443Y319103D01*
X344310Y319150D01*
X344178Y319202D01*
X344048Y319257D01*
X343920Y319316D01*
X343793Y319379D01*
X343668Y319445D01*
X343545Y319514D01*
X343423Y319587D01*
X343304Y319664D01*
X343188Y319743D01*
X343073Y319826D01*
X342961Y319913D01*
X342851Y320002D01*
X342744Y320094D01*
X342640Y320190D01*
X342538Y320288D01*
X342439Y320389D01*
X342343Y320493D01*
X342250Y320599D01*
X342160Y320708D01*
X342073Y320820D01*
X341989Y320934D01*
X341908Y321050D01*
X341831Y321169D01*
X341757Y321289D01*
X341687Y321412D01*
X341620Y321536D01*
X341557Y321663D01*
X341497Y321791D01*
X341441Y321921D01*
X341388Y322052D01*
X341339Y322185D01*
X341294Y322319D01*
X341253Y322454D01*
X341216Y322591D01*
X341182Y322728D01*
X341152Y322866D01*
X341127Y323005D01*
X341105Y323145D01*
X341087Y323285D01*
X341073Y323426D01*
X341063Y323567D01*
X341057Y323709D01*
X341055Y323850D01*
X315655Y311150D02*
X315657Y311291D01*
X315663Y311433D01*
X315673Y311574D01*
X315687Y311715D01*
X315705Y311855D01*
X315727Y311995D01*
X315752Y312134D01*
X315782Y312272D01*
X315816Y312409D01*
X315853Y312546D01*
X315894Y312681D01*
X315939Y312815D01*
X315988Y312948D01*
X316041Y313079D01*
X316097Y313209D01*
X316157Y313337D01*
X316220Y313464D01*
X316287Y313588D01*
X316357Y313711D01*
X316431Y313831D01*
X316508Y313950D01*
X316589Y314066D01*
X316673Y314180D01*
X316760Y314292D01*
X316850Y314401D01*
X316943Y314507D01*
X317039Y314611D01*
X317138Y314712D01*
X317240Y314810D01*
X317344Y314906D01*
X317451Y314998D01*
X317561Y315087D01*
X317673Y315174D01*
X317788Y315257D01*
X317904Y315336D01*
X318023Y315413D01*
X318145Y315486D01*
X318268Y315555D01*
X318393Y315621D01*
X318520Y315684D01*
X318648Y315743D01*
X318778Y315798D01*
X318910Y315850D01*
X319043Y315897D01*
X319178Y315941D01*
X319313Y315982D01*
X319450Y316018D01*
X319588Y316051D01*
X319726Y316079D01*
X319865Y316104D01*
X320005Y316125D01*
X320146Y316142D01*
X320286Y316155D01*
X320428Y316164D01*
X320569Y316169D01*
X320710Y316170D01*
X320852Y316167D01*
X320993Y316160D01*
X321134Y316149D01*
X321275Y316134D01*
X321415Y316115D01*
X321554Y316092D01*
X321693Y316066D01*
X321831Y316035D01*
X321969Y316000D01*
X322105Y315962D01*
X322240Y315920D01*
X322373Y315874D01*
X322506Y315824D01*
X322637Y315771D01*
X322766Y315714D01*
X322894Y315653D01*
X323020Y315589D01*
X323144Y315521D01*
X323266Y315450D01*
X323386Y315375D01*
X323504Y315297D01*
X323620Y315215D01*
X323733Y315131D01*
X323844Y315043D01*
X323953Y314952D01*
X324058Y314858D01*
X324162Y314762D01*
X324262Y314662D01*
X324359Y314560D01*
X324454Y314454D01*
X324546Y314347D01*
X324634Y314236D01*
X324720Y314124D01*
X324802Y314008D01*
X324881Y313891D01*
X324956Y313771D01*
X325028Y313650D01*
X325097Y313526D01*
X325162Y313401D01*
X325224Y313273D01*
X325282Y313144D01*
X325336Y313014D01*
X325387Y312882D01*
X325434Y312748D01*
X325477Y312614D01*
X325516Y312478D01*
X325552Y312341D01*
X325583Y312203D01*
X325611Y312064D01*
X325635Y311925D01*
X325655Y311785D01*
X325671Y311644D01*
X325683Y311503D01*
X325691Y311362D01*
X325695Y311221D01*
X325695Y311079D01*
X325691Y310938D01*
X325683Y310797D01*
X325671Y310656D01*
X325655Y310515D01*
X325635Y310375D01*
X325611Y310236D01*
X325583Y310097D01*
X325552Y309959D01*
X325516Y309822D01*
X325477Y309686D01*
X325434Y309552D01*
X325387Y309418D01*
X325336Y309286D01*
X325282Y309156D01*
X325224Y309027D01*
X325162Y308899D01*
X325097Y308774D01*
X325028Y308650D01*
X324956Y308529D01*
X324881Y308409D01*
X324802Y308292D01*
X324720Y308176D01*
X324634Y308064D01*
X324546Y307953D01*
X324454Y307846D01*
X324359Y307740D01*
X324262Y307638D01*
X324162Y307538D01*
X324058Y307442D01*
X323953Y307348D01*
X323844Y307257D01*
X323733Y307169D01*
X323620Y307085D01*
X323504Y307003D01*
X323386Y306925D01*
X323266Y306850D01*
X323144Y306779D01*
X323020Y306711D01*
X322894Y306647D01*
X322766Y306586D01*
X322637Y306529D01*
X322506Y306476D01*
X322373Y306426D01*
X322240Y306380D01*
X322105Y306338D01*
X321969Y306300D01*
X321831Y306265D01*
X321693Y306234D01*
X321554Y306208D01*
X321415Y306185D01*
X321275Y306166D01*
X321134Y306151D01*
X320993Y306140D01*
X320852Y306133D01*
X320710Y306130D01*
X320569Y306131D01*
X320428Y306136D01*
X320286Y306145D01*
X320146Y306158D01*
X320005Y306175D01*
X319865Y306196D01*
X319726Y306221D01*
X319588Y306249D01*
X319450Y306282D01*
X319313Y306318D01*
X319178Y306359D01*
X319043Y306403D01*
X318910Y306450D01*
X318778Y306502D01*
X318648Y306557D01*
X318520Y306616D01*
X318393Y306679D01*
X318268Y306745D01*
X318145Y306814D01*
X318023Y306887D01*
X317904Y306964D01*
X317788Y307043D01*
X317673Y307126D01*
X317561Y307213D01*
X317451Y307302D01*
X317344Y307394D01*
X317240Y307490D01*
X317138Y307588D01*
X317039Y307689D01*
X316943Y307793D01*
X316850Y307899D01*
X316760Y308008D01*
X316673Y308120D01*
X316589Y308234D01*
X316508Y308350D01*
X316431Y308469D01*
X316357Y308589D01*
X316287Y308712D01*
X316220Y308836D01*
X316157Y308963D01*
X316097Y309091D01*
X316041Y309221D01*
X315988Y309352D01*
X315939Y309485D01*
X315894Y309619D01*
X315853Y309754D01*
X315816Y309891D01*
X315782Y310028D01*
X315752Y310166D01*
X315727Y310305D01*
X315705Y310445D01*
X315687Y310585D01*
X315673Y310726D01*
X315663Y310867D01*
X315657Y311009D01*
X315655Y311150D01*
X341055Y298450D02*
X341057Y298591D01*
X341063Y298733D01*
X341073Y298874D01*
X341087Y299015D01*
X341105Y299155D01*
X341127Y299295D01*
X341152Y299434D01*
X341182Y299572D01*
X341216Y299709D01*
X341253Y299846D01*
X341294Y299981D01*
X341339Y300115D01*
X341388Y300248D01*
X341441Y300379D01*
X341497Y300509D01*
X341557Y300637D01*
X341620Y300764D01*
X341687Y300888D01*
X341757Y301011D01*
X341831Y301131D01*
X341908Y301250D01*
X341989Y301366D01*
X342073Y301480D01*
X342160Y301592D01*
X342250Y301701D01*
X342343Y301807D01*
X342439Y301911D01*
X342538Y302012D01*
X342640Y302110D01*
X342744Y302206D01*
X342851Y302298D01*
X342961Y302387D01*
X343073Y302474D01*
X343188Y302557D01*
X343304Y302636D01*
X343423Y302713D01*
X343545Y302786D01*
X343668Y302855D01*
X343793Y302921D01*
X343920Y302984D01*
X344048Y303043D01*
X344178Y303098D01*
X344310Y303150D01*
X344443Y303197D01*
X344578Y303241D01*
X344713Y303282D01*
X344850Y303318D01*
X344988Y303351D01*
X345126Y303379D01*
X345265Y303404D01*
X345405Y303425D01*
X345546Y303442D01*
X345686Y303455D01*
X345828Y303464D01*
X345969Y303469D01*
X346110Y303470D01*
X346252Y303467D01*
X346393Y303460D01*
X346534Y303449D01*
X346675Y303434D01*
X346815Y303415D01*
X346954Y303392D01*
X347093Y303366D01*
X347231Y303335D01*
X347369Y303300D01*
X347505Y303262D01*
X347640Y303220D01*
X347773Y303174D01*
X347906Y303124D01*
X348037Y303071D01*
X348166Y303014D01*
X348294Y302953D01*
X348420Y302889D01*
X348544Y302821D01*
X348666Y302750D01*
X348786Y302675D01*
X348904Y302597D01*
X349020Y302515D01*
X349133Y302431D01*
X349244Y302343D01*
X349353Y302252D01*
X349458Y302158D01*
X349562Y302062D01*
X349662Y301962D01*
X349759Y301860D01*
X349854Y301754D01*
X349946Y301647D01*
X350034Y301536D01*
X350120Y301424D01*
X350202Y301308D01*
X350281Y301191D01*
X350356Y301071D01*
X350428Y300950D01*
X350497Y300826D01*
X350562Y300701D01*
X350624Y300573D01*
X350682Y300444D01*
X350736Y300314D01*
X350787Y300182D01*
X350834Y300048D01*
X350877Y299914D01*
X350916Y299778D01*
X350952Y299641D01*
X350983Y299503D01*
X351011Y299364D01*
X351035Y299225D01*
X351055Y299085D01*
X351071Y298944D01*
X351083Y298803D01*
X351091Y298662D01*
X351095Y298521D01*
X351095Y298379D01*
X351091Y298238D01*
X351083Y298097D01*
X351071Y297956D01*
X351055Y297815D01*
X351035Y297675D01*
X351011Y297536D01*
X350983Y297397D01*
X350952Y297259D01*
X350916Y297122D01*
X350877Y296986D01*
X350834Y296852D01*
X350787Y296718D01*
X350736Y296586D01*
X350682Y296456D01*
X350624Y296327D01*
X350562Y296199D01*
X350497Y296074D01*
X350428Y295950D01*
X350356Y295829D01*
X350281Y295709D01*
X350202Y295592D01*
X350120Y295476D01*
X350034Y295364D01*
X349946Y295253D01*
X349854Y295146D01*
X349759Y295040D01*
X349662Y294938D01*
X349562Y294838D01*
X349458Y294742D01*
X349353Y294648D01*
X349244Y294557D01*
X349133Y294469D01*
X349020Y294385D01*
X348904Y294303D01*
X348786Y294225D01*
X348666Y294150D01*
X348544Y294079D01*
X348420Y294011D01*
X348294Y293947D01*
X348166Y293886D01*
X348037Y293829D01*
X347906Y293776D01*
X347773Y293726D01*
X347640Y293680D01*
X347505Y293638D01*
X347369Y293600D01*
X347231Y293565D01*
X347093Y293534D01*
X346954Y293508D01*
X346815Y293485D01*
X346675Y293466D01*
X346534Y293451D01*
X346393Y293440D01*
X346252Y293433D01*
X346110Y293430D01*
X345969Y293431D01*
X345828Y293436D01*
X345686Y293445D01*
X345546Y293458D01*
X345405Y293475D01*
X345265Y293496D01*
X345126Y293521D01*
X344988Y293549D01*
X344850Y293582D01*
X344713Y293618D01*
X344578Y293659D01*
X344443Y293703D01*
X344310Y293750D01*
X344178Y293802D01*
X344048Y293857D01*
X343920Y293916D01*
X343793Y293979D01*
X343668Y294045D01*
X343545Y294114D01*
X343423Y294187D01*
X343304Y294264D01*
X343188Y294343D01*
X343073Y294426D01*
X342961Y294513D01*
X342851Y294602D01*
X342744Y294694D01*
X342640Y294790D01*
X342538Y294888D01*
X342439Y294989D01*
X342343Y295093D01*
X342250Y295199D01*
X342160Y295308D01*
X342073Y295420D01*
X341989Y295534D01*
X341908Y295650D01*
X341831Y295769D01*
X341757Y295889D01*
X341687Y296012D01*
X341620Y296136D01*
X341557Y296263D01*
X341497Y296391D01*
X341441Y296521D01*
X341388Y296652D01*
X341339Y296785D01*
X341294Y296919D01*
X341253Y297054D01*
X341216Y297191D01*
X341182Y297328D01*
X341152Y297466D01*
X341127Y297605D01*
X341105Y297745D01*
X341087Y297885D01*
X341073Y298026D01*
X341063Y298167D01*
X341057Y298309D01*
X341055Y298450D01*
X315655Y285750D02*
X315657Y285891D01*
X315663Y286033D01*
X315673Y286174D01*
X315687Y286315D01*
X315705Y286455D01*
X315727Y286595D01*
X315752Y286734D01*
X315782Y286872D01*
X315816Y287009D01*
X315853Y287146D01*
X315894Y287281D01*
X315939Y287415D01*
X315988Y287548D01*
X316041Y287679D01*
X316097Y287809D01*
X316157Y287937D01*
X316220Y288064D01*
X316287Y288188D01*
X316357Y288311D01*
X316431Y288431D01*
X316508Y288550D01*
X316589Y288666D01*
X316673Y288780D01*
X316760Y288892D01*
X316850Y289001D01*
X316943Y289107D01*
X317039Y289211D01*
X317138Y289312D01*
X317240Y289410D01*
X317344Y289506D01*
X317451Y289598D01*
X317561Y289687D01*
X317673Y289774D01*
X317788Y289857D01*
X317904Y289936D01*
X318023Y290013D01*
X318145Y290086D01*
X318268Y290155D01*
X318393Y290221D01*
X318520Y290284D01*
X318648Y290343D01*
X318778Y290398D01*
X318910Y290450D01*
X319043Y290497D01*
X319178Y290541D01*
X319313Y290582D01*
X319450Y290618D01*
X319588Y290651D01*
X319726Y290679D01*
X319865Y290704D01*
X320005Y290725D01*
X320146Y290742D01*
X320286Y290755D01*
X320428Y290764D01*
X320569Y290769D01*
X320710Y290770D01*
X320852Y290767D01*
X320993Y290760D01*
X321134Y290749D01*
X321275Y290734D01*
X321415Y290715D01*
X321554Y290692D01*
X321693Y290666D01*
X321831Y290635D01*
X321969Y290600D01*
X322105Y290562D01*
X322240Y290520D01*
X322373Y290474D01*
X322506Y290424D01*
X322637Y290371D01*
X322766Y290314D01*
X322894Y290253D01*
X323020Y290189D01*
X323144Y290121D01*
X323266Y290050D01*
X323386Y289975D01*
X323504Y289897D01*
X323620Y289815D01*
X323733Y289731D01*
X323844Y289643D01*
X323953Y289552D01*
X324058Y289458D01*
X324162Y289362D01*
X324262Y289262D01*
X324359Y289160D01*
X324454Y289054D01*
X324546Y288947D01*
X324634Y288836D01*
X324720Y288724D01*
X324802Y288608D01*
X324881Y288491D01*
X324956Y288371D01*
X325028Y288250D01*
X325097Y288126D01*
X325162Y288001D01*
X325224Y287873D01*
X325282Y287744D01*
X325336Y287614D01*
X325387Y287482D01*
X325434Y287348D01*
X325477Y287214D01*
X325516Y287078D01*
X325552Y286941D01*
X325583Y286803D01*
X325611Y286664D01*
X325635Y286525D01*
X325655Y286385D01*
X325671Y286244D01*
X325683Y286103D01*
X325691Y285962D01*
X325695Y285821D01*
X325695Y285679D01*
X325691Y285538D01*
X325683Y285397D01*
X325671Y285256D01*
X325655Y285115D01*
X325635Y284975D01*
X325611Y284836D01*
X325583Y284697D01*
X325552Y284559D01*
X325516Y284422D01*
X325477Y284286D01*
X325434Y284152D01*
X325387Y284018D01*
X325336Y283886D01*
X325282Y283756D01*
X325224Y283627D01*
X325162Y283499D01*
X325097Y283374D01*
X325028Y283250D01*
X324956Y283129D01*
X324881Y283009D01*
X324802Y282892D01*
X324720Y282776D01*
X324634Y282664D01*
X324546Y282553D01*
X324454Y282446D01*
X324359Y282340D01*
X324262Y282238D01*
X324162Y282138D01*
X324058Y282042D01*
X323953Y281948D01*
X323844Y281857D01*
X323733Y281769D01*
X323620Y281685D01*
X323504Y281603D01*
X323386Y281525D01*
X323266Y281450D01*
X323144Y281379D01*
X323020Y281311D01*
X322894Y281247D01*
X322766Y281186D01*
X322637Y281129D01*
X322506Y281076D01*
X322373Y281026D01*
X322240Y280980D01*
X322105Y280938D01*
X321969Y280900D01*
X321831Y280865D01*
X321693Y280834D01*
X321554Y280808D01*
X321415Y280785D01*
X321275Y280766D01*
X321134Y280751D01*
X320993Y280740D01*
X320852Y280733D01*
X320710Y280730D01*
X320569Y280731D01*
X320428Y280736D01*
X320286Y280745D01*
X320146Y280758D01*
X320005Y280775D01*
X319865Y280796D01*
X319726Y280821D01*
X319588Y280849D01*
X319450Y280882D01*
X319313Y280918D01*
X319178Y280959D01*
X319043Y281003D01*
X318910Y281050D01*
X318778Y281102D01*
X318648Y281157D01*
X318520Y281216D01*
X318393Y281279D01*
X318268Y281345D01*
X318145Y281414D01*
X318023Y281487D01*
X317904Y281564D01*
X317788Y281643D01*
X317673Y281726D01*
X317561Y281813D01*
X317451Y281902D01*
X317344Y281994D01*
X317240Y282090D01*
X317138Y282188D01*
X317039Y282289D01*
X316943Y282393D01*
X316850Y282499D01*
X316760Y282608D01*
X316673Y282720D01*
X316589Y282834D01*
X316508Y282950D01*
X316431Y283069D01*
X316357Y283189D01*
X316287Y283312D01*
X316220Y283436D01*
X316157Y283563D01*
X316097Y283691D01*
X316041Y283821D01*
X315988Y283952D01*
X315939Y284085D01*
X315894Y284219D01*
X315853Y284354D01*
X315816Y284491D01*
X315782Y284628D01*
X315752Y284766D01*
X315727Y284905D01*
X315705Y285045D01*
X315687Y285185D01*
X315673Y285326D01*
X315663Y285467D01*
X315657Y285609D01*
X315655Y285750D01*
X341055Y273050D02*
X341057Y273191D01*
X341063Y273333D01*
X341073Y273474D01*
X341087Y273615D01*
X341105Y273755D01*
X341127Y273895D01*
X341152Y274034D01*
X341182Y274172D01*
X341216Y274309D01*
X341253Y274446D01*
X341294Y274581D01*
X341339Y274715D01*
X341388Y274848D01*
X341441Y274979D01*
X341497Y275109D01*
X341557Y275237D01*
X341620Y275364D01*
X341687Y275488D01*
X341757Y275611D01*
X341831Y275731D01*
X341908Y275850D01*
X341989Y275966D01*
X342073Y276080D01*
X342160Y276192D01*
X342250Y276301D01*
X342343Y276407D01*
X342439Y276511D01*
X342538Y276612D01*
X342640Y276710D01*
X342744Y276806D01*
X342851Y276898D01*
X342961Y276987D01*
X343073Y277074D01*
X343188Y277157D01*
X343304Y277236D01*
X343423Y277313D01*
X343545Y277386D01*
X343668Y277455D01*
X343793Y277521D01*
X343920Y277584D01*
X344048Y277643D01*
X344178Y277698D01*
X344310Y277750D01*
X344443Y277797D01*
X344578Y277841D01*
X344713Y277882D01*
X344850Y277918D01*
X344988Y277951D01*
X345126Y277979D01*
X345265Y278004D01*
X345405Y278025D01*
X345546Y278042D01*
X345686Y278055D01*
X345828Y278064D01*
X345969Y278069D01*
X346110Y278070D01*
X346252Y278067D01*
X346393Y278060D01*
X346534Y278049D01*
X346675Y278034D01*
X346815Y278015D01*
X346954Y277992D01*
X347093Y277966D01*
X347231Y277935D01*
X347369Y277900D01*
X347505Y277862D01*
X347640Y277820D01*
X347773Y277774D01*
X347906Y277724D01*
X348037Y277671D01*
X348166Y277614D01*
X348294Y277553D01*
X348420Y277489D01*
X348544Y277421D01*
X348666Y277350D01*
X348786Y277275D01*
X348904Y277197D01*
X349020Y277115D01*
X349133Y277031D01*
X349244Y276943D01*
X349353Y276852D01*
X349458Y276758D01*
X349562Y276662D01*
X349662Y276562D01*
X349759Y276460D01*
X349854Y276354D01*
X349946Y276247D01*
X350034Y276136D01*
X350120Y276024D01*
X350202Y275908D01*
X350281Y275791D01*
X350356Y275671D01*
X350428Y275550D01*
X350497Y275426D01*
X350562Y275301D01*
X350624Y275173D01*
X350682Y275044D01*
X350736Y274914D01*
X350787Y274782D01*
X350834Y274648D01*
X350877Y274514D01*
X350916Y274378D01*
X350952Y274241D01*
X350983Y274103D01*
X351011Y273964D01*
X351035Y273825D01*
X351055Y273685D01*
X351071Y273544D01*
X351083Y273403D01*
X351091Y273262D01*
X351095Y273121D01*
X351095Y272979D01*
X351091Y272838D01*
X351083Y272697D01*
X351071Y272556D01*
X351055Y272415D01*
X351035Y272275D01*
X351011Y272136D01*
X350983Y271997D01*
X350952Y271859D01*
X350916Y271722D01*
X350877Y271586D01*
X350834Y271452D01*
X350787Y271318D01*
X350736Y271186D01*
X350682Y271056D01*
X350624Y270927D01*
X350562Y270799D01*
X350497Y270674D01*
X350428Y270550D01*
X350356Y270429D01*
X350281Y270309D01*
X350202Y270192D01*
X350120Y270076D01*
X350034Y269964D01*
X349946Y269853D01*
X349854Y269746D01*
X349759Y269640D01*
X349662Y269538D01*
X349562Y269438D01*
X349458Y269342D01*
X349353Y269248D01*
X349244Y269157D01*
X349133Y269069D01*
X349020Y268985D01*
X348904Y268903D01*
X348786Y268825D01*
X348666Y268750D01*
X348544Y268679D01*
X348420Y268611D01*
X348294Y268547D01*
X348166Y268486D01*
X348037Y268429D01*
X347906Y268376D01*
X347773Y268326D01*
X347640Y268280D01*
X347505Y268238D01*
X347369Y268200D01*
X347231Y268165D01*
X347093Y268134D01*
X346954Y268108D01*
X346815Y268085D01*
X346675Y268066D01*
X346534Y268051D01*
X346393Y268040D01*
X346252Y268033D01*
X346110Y268030D01*
X345969Y268031D01*
X345828Y268036D01*
X345686Y268045D01*
X345546Y268058D01*
X345405Y268075D01*
X345265Y268096D01*
X345126Y268121D01*
X344988Y268149D01*
X344850Y268182D01*
X344713Y268218D01*
X344578Y268259D01*
X344443Y268303D01*
X344310Y268350D01*
X344178Y268402D01*
X344048Y268457D01*
X343920Y268516D01*
X343793Y268579D01*
X343668Y268645D01*
X343545Y268714D01*
X343423Y268787D01*
X343304Y268864D01*
X343188Y268943D01*
X343073Y269026D01*
X342961Y269113D01*
X342851Y269202D01*
X342744Y269294D01*
X342640Y269390D01*
X342538Y269488D01*
X342439Y269589D01*
X342343Y269693D01*
X342250Y269799D01*
X342160Y269908D01*
X342073Y270020D01*
X341989Y270134D01*
X341908Y270250D01*
X341831Y270369D01*
X341757Y270489D01*
X341687Y270612D01*
X341620Y270736D01*
X341557Y270863D01*
X341497Y270991D01*
X341441Y271121D01*
X341388Y271252D01*
X341339Y271385D01*
X341294Y271519D01*
X341253Y271654D01*
X341216Y271791D01*
X341182Y271928D01*
X341152Y272066D01*
X341127Y272205D01*
X341105Y272345D01*
X341087Y272485D01*
X341073Y272626D01*
X341063Y272767D01*
X341057Y272909D01*
X341055Y273050D01*
X391855Y311150D02*
X391857Y311291D01*
X391863Y311433D01*
X391873Y311574D01*
X391887Y311715D01*
X391905Y311855D01*
X391927Y311995D01*
X391952Y312134D01*
X391982Y312272D01*
X392016Y312409D01*
X392053Y312546D01*
X392094Y312681D01*
X392139Y312815D01*
X392188Y312948D01*
X392241Y313079D01*
X392297Y313209D01*
X392357Y313337D01*
X392420Y313464D01*
X392487Y313588D01*
X392557Y313711D01*
X392631Y313831D01*
X392708Y313950D01*
X392789Y314066D01*
X392873Y314180D01*
X392960Y314292D01*
X393050Y314401D01*
X393143Y314507D01*
X393239Y314611D01*
X393338Y314712D01*
X393440Y314810D01*
X393544Y314906D01*
X393651Y314998D01*
X393761Y315087D01*
X393873Y315174D01*
X393988Y315257D01*
X394104Y315336D01*
X394223Y315413D01*
X394345Y315486D01*
X394468Y315555D01*
X394593Y315621D01*
X394720Y315684D01*
X394848Y315743D01*
X394978Y315798D01*
X395110Y315850D01*
X395243Y315897D01*
X395378Y315941D01*
X395513Y315982D01*
X395650Y316018D01*
X395788Y316051D01*
X395926Y316079D01*
X396065Y316104D01*
X396205Y316125D01*
X396346Y316142D01*
X396486Y316155D01*
X396628Y316164D01*
X396769Y316169D01*
X396910Y316170D01*
X397052Y316167D01*
X397193Y316160D01*
X397334Y316149D01*
X397475Y316134D01*
X397615Y316115D01*
X397754Y316092D01*
X397893Y316066D01*
X398031Y316035D01*
X398169Y316000D01*
X398305Y315962D01*
X398440Y315920D01*
X398573Y315874D01*
X398706Y315824D01*
X398837Y315771D01*
X398966Y315714D01*
X399094Y315653D01*
X399220Y315589D01*
X399344Y315521D01*
X399466Y315450D01*
X399586Y315375D01*
X399704Y315297D01*
X399820Y315215D01*
X399933Y315131D01*
X400044Y315043D01*
X400153Y314952D01*
X400258Y314858D01*
X400362Y314762D01*
X400462Y314662D01*
X400559Y314560D01*
X400654Y314454D01*
X400746Y314347D01*
X400834Y314236D01*
X400920Y314124D01*
X401002Y314008D01*
X401081Y313891D01*
X401156Y313771D01*
X401228Y313650D01*
X401297Y313526D01*
X401362Y313401D01*
X401424Y313273D01*
X401482Y313144D01*
X401536Y313014D01*
X401587Y312882D01*
X401634Y312748D01*
X401677Y312614D01*
X401716Y312478D01*
X401752Y312341D01*
X401783Y312203D01*
X401811Y312064D01*
X401835Y311925D01*
X401855Y311785D01*
X401871Y311644D01*
X401883Y311503D01*
X401891Y311362D01*
X401895Y311221D01*
X401895Y311079D01*
X401891Y310938D01*
X401883Y310797D01*
X401871Y310656D01*
X401855Y310515D01*
X401835Y310375D01*
X401811Y310236D01*
X401783Y310097D01*
X401752Y309959D01*
X401716Y309822D01*
X401677Y309686D01*
X401634Y309552D01*
X401587Y309418D01*
X401536Y309286D01*
X401482Y309156D01*
X401424Y309027D01*
X401362Y308899D01*
X401297Y308774D01*
X401228Y308650D01*
X401156Y308529D01*
X401081Y308409D01*
X401002Y308292D01*
X400920Y308176D01*
X400834Y308064D01*
X400746Y307953D01*
X400654Y307846D01*
X400559Y307740D01*
X400462Y307638D01*
X400362Y307538D01*
X400258Y307442D01*
X400153Y307348D01*
X400044Y307257D01*
X399933Y307169D01*
X399820Y307085D01*
X399704Y307003D01*
X399586Y306925D01*
X399466Y306850D01*
X399344Y306779D01*
X399220Y306711D01*
X399094Y306647D01*
X398966Y306586D01*
X398837Y306529D01*
X398706Y306476D01*
X398573Y306426D01*
X398440Y306380D01*
X398305Y306338D01*
X398169Y306300D01*
X398031Y306265D01*
X397893Y306234D01*
X397754Y306208D01*
X397615Y306185D01*
X397475Y306166D01*
X397334Y306151D01*
X397193Y306140D01*
X397052Y306133D01*
X396910Y306130D01*
X396769Y306131D01*
X396628Y306136D01*
X396486Y306145D01*
X396346Y306158D01*
X396205Y306175D01*
X396065Y306196D01*
X395926Y306221D01*
X395788Y306249D01*
X395650Y306282D01*
X395513Y306318D01*
X395378Y306359D01*
X395243Y306403D01*
X395110Y306450D01*
X394978Y306502D01*
X394848Y306557D01*
X394720Y306616D01*
X394593Y306679D01*
X394468Y306745D01*
X394345Y306814D01*
X394223Y306887D01*
X394104Y306964D01*
X393988Y307043D01*
X393873Y307126D01*
X393761Y307213D01*
X393651Y307302D01*
X393544Y307394D01*
X393440Y307490D01*
X393338Y307588D01*
X393239Y307689D01*
X393143Y307793D01*
X393050Y307899D01*
X392960Y308008D01*
X392873Y308120D01*
X392789Y308234D01*
X392708Y308350D01*
X392631Y308469D01*
X392557Y308589D01*
X392487Y308712D01*
X392420Y308836D01*
X392357Y308963D01*
X392297Y309091D01*
X392241Y309221D01*
X392188Y309352D01*
X392139Y309485D01*
X392094Y309619D01*
X392053Y309754D01*
X392016Y309891D01*
X391982Y310028D01*
X391952Y310166D01*
X391927Y310305D01*
X391905Y310445D01*
X391887Y310585D01*
X391873Y310726D01*
X391863Y310867D01*
X391857Y311009D01*
X391855Y311150D01*
X391855Y285750D02*
X391857Y285891D01*
X391863Y286033D01*
X391873Y286174D01*
X391887Y286315D01*
X391905Y286455D01*
X391927Y286595D01*
X391952Y286734D01*
X391982Y286872D01*
X392016Y287009D01*
X392053Y287146D01*
X392094Y287281D01*
X392139Y287415D01*
X392188Y287548D01*
X392241Y287679D01*
X392297Y287809D01*
X392357Y287937D01*
X392420Y288064D01*
X392487Y288188D01*
X392557Y288311D01*
X392631Y288431D01*
X392708Y288550D01*
X392789Y288666D01*
X392873Y288780D01*
X392960Y288892D01*
X393050Y289001D01*
X393143Y289107D01*
X393239Y289211D01*
X393338Y289312D01*
X393440Y289410D01*
X393544Y289506D01*
X393651Y289598D01*
X393761Y289687D01*
X393873Y289774D01*
X393988Y289857D01*
X394104Y289936D01*
X394223Y290013D01*
X394345Y290086D01*
X394468Y290155D01*
X394593Y290221D01*
X394720Y290284D01*
X394848Y290343D01*
X394978Y290398D01*
X395110Y290450D01*
X395243Y290497D01*
X395378Y290541D01*
X395513Y290582D01*
X395650Y290618D01*
X395788Y290651D01*
X395926Y290679D01*
X396065Y290704D01*
X396205Y290725D01*
X396346Y290742D01*
X396486Y290755D01*
X396628Y290764D01*
X396769Y290769D01*
X396910Y290770D01*
X397052Y290767D01*
X397193Y290760D01*
X397334Y290749D01*
X397475Y290734D01*
X397615Y290715D01*
X397754Y290692D01*
X397893Y290666D01*
X398031Y290635D01*
X398169Y290600D01*
X398305Y290562D01*
X398440Y290520D01*
X398573Y290474D01*
X398706Y290424D01*
X398837Y290371D01*
X398966Y290314D01*
X399094Y290253D01*
X399220Y290189D01*
X399344Y290121D01*
X399466Y290050D01*
X399586Y289975D01*
X399704Y289897D01*
X399820Y289815D01*
X399933Y289731D01*
X400044Y289643D01*
X400153Y289552D01*
X400258Y289458D01*
X400362Y289362D01*
X400462Y289262D01*
X400559Y289160D01*
X400654Y289054D01*
X400746Y288947D01*
X400834Y288836D01*
X400920Y288724D01*
X401002Y288608D01*
X401081Y288491D01*
X401156Y288371D01*
X401228Y288250D01*
X401297Y288126D01*
X401362Y288001D01*
X401424Y287873D01*
X401482Y287744D01*
X401536Y287614D01*
X401587Y287482D01*
X401634Y287348D01*
X401677Y287214D01*
X401716Y287078D01*
X401752Y286941D01*
X401783Y286803D01*
X401811Y286664D01*
X401835Y286525D01*
X401855Y286385D01*
X401871Y286244D01*
X401883Y286103D01*
X401891Y285962D01*
X401895Y285821D01*
X401895Y285679D01*
X401891Y285538D01*
X401883Y285397D01*
X401871Y285256D01*
X401855Y285115D01*
X401835Y284975D01*
X401811Y284836D01*
X401783Y284697D01*
X401752Y284559D01*
X401716Y284422D01*
X401677Y284286D01*
X401634Y284152D01*
X401587Y284018D01*
X401536Y283886D01*
X401482Y283756D01*
X401424Y283627D01*
X401362Y283499D01*
X401297Y283374D01*
X401228Y283250D01*
X401156Y283129D01*
X401081Y283009D01*
X401002Y282892D01*
X400920Y282776D01*
X400834Y282664D01*
X400746Y282553D01*
X400654Y282446D01*
X400559Y282340D01*
X400462Y282238D01*
X400362Y282138D01*
X400258Y282042D01*
X400153Y281948D01*
X400044Y281857D01*
X399933Y281769D01*
X399820Y281685D01*
X399704Y281603D01*
X399586Y281525D01*
X399466Y281450D01*
X399344Y281379D01*
X399220Y281311D01*
X399094Y281247D01*
X398966Y281186D01*
X398837Y281129D01*
X398706Y281076D01*
X398573Y281026D01*
X398440Y280980D01*
X398305Y280938D01*
X398169Y280900D01*
X398031Y280865D01*
X397893Y280834D01*
X397754Y280808D01*
X397615Y280785D01*
X397475Y280766D01*
X397334Y280751D01*
X397193Y280740D01*
X397052Y280733D01*
X396910Y280730D01*
X396769Y280731D01*
X396628Y280736D01*
X396486Y280745D01*
X396346Y280758D01*
X396205Y280775D01*
X396065Y280796D01*
X395926Y280821D01*
X395788Y280849D01*
X395650Y280882D01*
X395513Y280918D01*
X395378Y280959D01*
X395243Y281003D01*
X395110Y281050D01*
X394978Y281102D01*
X394848Y281157D01*
X394720Y281216D01*
X394593Y281279D01*
X394468Y281345D01*
X394345Y281414D01*
X394223Y281487D01*
X394104Y281564D01*
X393988Y281643D01*
X393873Y281726D01*
X393761Y281813D01*
X393651Y281902D01*
X393544Y281994D01*
X393440Y282090D01*
X393338Y282188D01*
X393239Y282289D01*
X393143Y282393D01*
X393050Y282499D01*
X392960Y282608D01*
X392873Y282720D01*
X392789Y282834D01*
X392708Y282950D01*
X392631Y283069D01*
X392557Y283189D01*
X392487Y283312D01*
X392420Y283436D01*
X392357Y283563D01*
X392297Y283691D01*
X392241Y283821D01*
X392188Y283952D01*
X392139Y284085D01*
X392094Y284219D01*
X392053Y284354D01*
X392016Y284491D01*
X391982Y284628D01*
X391952Y284766D01*
X391927Y284905D01*
X391905Y285045D01*
X391887Y285185D01*
X391873Y285326D01*
X391863Y285467D01*
X391857Y285609D01*
X391855Y285750D01*
X468055Y311150D02*
X468057Y311291D01*
X468063Y311433D01*
X468073Y311574D01*
X468087Y311715D01*
X468105Y311855D01*
X468127Y311995D01*
X468152Y312134D01*
X468182Y312272D01*
X468216Y312409D01*
X468253Y312546D01*
X468294Y312681D01*
X468339Y312815D01*
X468388Y312948D01*
X468441Y313079D01*
X468497Y313209D01*
X468557Y313337D01*
X468620Y313464D01*
X468687Y313588D01*
X468757Y313711D01*
X468831Y313831D01*
X468908Y313950D01*
X468989Y314066D01*
X469073Y314180D01*
X469160Y314292D01*
X469250Y314401D01*
X469343Y314507D01*
X469439Y314611D01*
X469538Y314712D01*
X469640Y314810D01*
X469744Y314906D01*
X469851Y314998D01*
X469961Y315087D01*
X470073Y315174D01*
X470188Y315257D01*
X470304Y315336D01*
X470423Y315413D01*
X470545Y315486D01*
X470668Y315555D01*
X470793Y315621D01*
X470920Y315684D01*
X471048Y315743D01*
X471178Y315798D01*
X471310Y315850D01*
X471443Y315897D01*
X471578Y315941D01*
X471713Y315982D01*
X471850Y316018D01*
X471988Y316051D01*
X472126Y316079D01*
X472265Y316104D01*
X472405Y316125D01*
X472546Y316142D01*
X472686Y316155D01*
X472828Y316164D01*
X472969Y316169D01*
X473110Y316170D01*
X473252Y316167D01*
X473393Y316160D01*
X473534Y316149D01*
X473675Y316134D01*
X473815Y316115D01*
X473954Y316092D01*
X474093Y316066D01*
X474231Y316035D01*
X474369Y316000D01*
X474505Y315962D01*
X474640Y315920D01*
X474773Y315874D01*
X474906Y315824D01*
X475037Y315771D01*
X475166Y315714D01*
X475294Y315653D01*
X475420Y315589D01*
X475544Y315521D01*
X475666Y315450D01*
X475786Y315375D01*
X475904Y315297D01*
X476020Y315215D01*
X476133Y315131D01*
X476244Y315043D01*
X476353Y314952D01*
X476458Y314858D01*
X476562Y314762D01*
X476662Y314662D01*
X476759Y314560D01*
X476854Y314454D01*
X476946Y314347D01*
X477034Y314236D01*
X477120Y314124D01*
X477202Y314008D01*
X477281Y313891D01*
X477356Y313771D01*
X477428Y313650D01*
X477497Y313526D01*
X477562Y313401D01*
X477624Y313273D01*
X477682Y313144D01*
X477736Y313014D01*
X477787Y312882D01*
X477834Y312748D01*
X477877Y312614D01*
X477916Y312478D01*
X477952Y312341D01*
X477983Y312203D01*
X478011Y312064D01*
X478035Y311925D01*
X478055Y311785D01*
X478071Y311644D01*
X478083Y311503D01*
X478091Y311362D01*
X478095Y311221D01*
X478095Y311079D01*
X478091Y310938D01*
X478083Y310797D01*
X478071Y310656D01*
X478055Y310515D01*
X478035Y310375D01*
X478011Y310236D01*
X477983Y310097D01*
X477952Y309959D01*
X477916Y309822D01*
X477877Y309686D01*
X477834Y309552D01*
X477787Y309418D01*
X477736Y309286D01*
X477682Y309156D01*
X477624Y309027D01*
X477562Y308899D01*
X477497Y308774D01*
X477428Y308650D01*
X477356Y308529D01*
X477281Y308409D01*
X477202Y308292D01*
X477120Y308176D01*
X477034Y308064D01*
X476946Y307953D01*
X476854Y307846D01*
X476759Y307740D01*
X476662Y307638D01*
X476562Y307538D01*
X476458Y307442D01*
X476353Y307348D01*
X476244Y307257D01*
X476133Y307169D01*
X476020Y307085D01*
X475904Y307003D01*
X475786Y306925D01*
X475666Y306850D01*
X475544Y306779D01*
X475420Y306711D01*
X475294Y306647D01*
X475166Y306586D01*
X475037Y306529D01*
X474906Y306476D01*
X474773Y306426D01*
X474640Y306380D01*
X474505Y306338D01*
X474369Y306300D01*
X474231Y306265D01*
X474093Y306234D01*
X473954Y306208D01*
X473815Y306185D01*
X473675Y306166D01*
X473534Y306151D01*
X473393Y306140D01*
X473252Y306133D01*
X473110Y306130D01*
X472969Y306131D01*
X472828Y306136D01*
X472686Y306145D01*
X472546Y306158D01*
X472405Y306175D01*
X472265Y306196D01*
X472126Y306221D01*
X471988Y306249D01*
X471850Y306282D01*
X471713Y306318D01*
X471578Y306359D01*
X471443Y306403D01*
X471310Y306450D01*
X471178Y306502D01*
X471048Y306557D01*
X470920Y306616D01*
X470793Y306679D01*
X470668Y306745D01*
X470545Y306814D01*
X470423Y306887D01*
X470304Y306964D01*
X470188Y307043D01*
X470073Y307126D01*
X469961Y307213D01*
X469851Y307302D01*
X469744Y307394D01*
X469640Y307490D01*
X469538Y307588D01*
X469439Y307689D01*
X469343Y307793D01*
X469250Y307899D01*
X469160Y308008D01*
X469073Y308120D01*
X468989Y308234D01*
X468908Y308350D01*
X468831Y308469D01*
X468757Y308589D01*
X468687Y308712D01*
X468620Y308836D01*
X468557Y308963D01*
X468497Y309091D01*
X468441Y309221D01*
X468388Y309352D01*
X468339Y309485D01*
X468294Y309619D01*
X468253Y309754D01*
X468216Y309891D01*
X468182Y310028D01*
X468152Y310166D01*
X468127Y310305D01*
X468105Y310445D01*
X468087Y310585D01*
X468073Y310726D01*
X468063Y310867D01*
X468057Y311009D01*
X468055Y311150D01*
X468055Y285750D02*
X468057Y285891D01*
X468063Y286033D01*
X468073Y286174D01*
X468087Y286315D01*
X468105Y286455D01*
X468127Y286595D01*
X468152Y286734D01*
X468182Y286872D01*
X468216Y287009D01*
X468253Y287146D01*
X468294Y287281D01*
X468339Y287415D01*
X468388Y287548D01*
X468441Y287679D01*
X468497Y287809D01*
X468557Y287937D01*
X468620Y288064D01*
X468687Y288188D01*
X468757Y288311D01*
X468831Y288431D01*
X468908Y288550D01*
X468989Y288666D01*
X469073Y288780D01*
X469160Y288892D01*
X469250Y289001D01*
X469343Y289107D01*
X469439Y289211D01*
X469538Y289312D01*
X469640Y289410D01*
X469744Y289506D01*
X469851Y289598D01*
X469961Y289687D01*
X470073Y289774D01*
X470188Y289857D01*
X470304Y289936D01*
X470423Y290013D01*
X470545Y290086D01*
X470668Y290155D01*
X470793Y290221D01*
X470920Y290284D01*
X471048Y290343D01*
X471178Y290398D01*
X471310Y290450D01*
X471443Y290497D01*
X471578Y290541D01*
X471713Y290582D01*
X471850Y290618D01*
X471988Y290651D01*
X472126Y290679D01*
X472265Y290704D01*
X472405Y290725D01*
X472546Y290742D01*
X472686Y290755D01*
X472828Y290764D01*
X472969Y290769D01*
X473110Y290770D01*
X473252Y290767D01*
X473393Y290760D01*
X473534Y290749D01*
X473675Y290734D01*
X473815Y290715D01*
X473954Y290692D01*
X474093Y290666D01*
X474231Y290635D01*
X474369Y290600D01*
X474505Y290562D01*
X474640Y290520D01*
X474773Y290474D01*
X474906Y290424D01*
X475037Y290371D01*
X475166Y290314D01*
X475294Y290253D01*
X475420Y290189D01*
X475544Y290121D01*
X475666Y290050D01*
X475786Y289975D01*
X475904Y289897D01*
X476020Y289815D01*
X476133Y289731D01*
X476244Y289643D01*
X476353Y289552D01*
X476458Y289458D01*
X476562Y289362D01*
X476662Y289262D01*
X476759Y289160D01*
X476854Y289054D01*
X476946Y288947D01*
X477034Y288836D01*
X477120Y288724D01*
X477202Y288608D01*
X477281Y288491D01*
X477356Y288371D01*
X477428Y288250D01*
X477497Y288126D01*
X477562Y288001D01*
X477624Y287873D01*
X477682Y287744D01*
X477736Y287614D01*
X477787Y287482D01*
X477834Y287348D01*
X477877Y287214D01*
X477916Y287078D01*
X477952Y286941D01*
X477983Y286803D01*
X478011Y286664D01*
X478035Y286525D01*
X478055Y286385D01*
X478071Y286244D01*
X478083Y286103D01*
X478091Y285962D01*
X478095Y285821D01*
X478095Y285679D01*
X478091Y285538D01*
X478083Y285397D01*
X478071Y285256D01*
X478055Y285115D01*
X478035Y284975D01*
X478011Y284836D01*
X477983Y284697D01*
X477952Y284559D01*
X477916Y284422D01*
X477877Y284286D01*
X477834Y284152D01*
X477787Y284018D01*
X477736Y283886D01*
X477682Y283756D01*
X477624Y283627D01*
X477562Y283499D01*
X477497Y283374D01*
X477428Y283250D01*
X477356Y283129D01*
X477281Y283009D01*
X477202Y282892D01*
X477120Y282776D01*
X477034Y282664D01*
X476946Y282553D01*
X476854Y282446D01*
X476759Y282340D01*
X476662Y282238D01*
X476562Y282138D01*
X476458Y282042D01*
X476353Y281948D01*
X476244Y281857D01*
X476133Y281769D01*
X476020Y281685D01*
X475904Y281603D01*
X475786Y281525D01*
X475666Y281450D01*
X475544Y281379D01*
X475420Y281311D01*
X475294Y281247D01*
X475166Y281186D01*
X475037Y281129D01*
X474906Y281076D01*
X474773Y281026D01*
X474640Y280980D01*
X474505Y280938D01*
X474369Y280900D01*
X474231Y280865D01*
X474093Y280834D01*
X473954Y280808D01*
X473815Y280785D01*
X473675Y280766D01*
X473534Y280751D01*
X473393Y280740D01*
X473252Y280733D01*
X473110Y280730D01*
X472969Y280731D01*
X472828Y280736D01*
X472686Y280745D01*
X472546Y280758D01*
X472405Y280775D01*
X472265Y280796D01*
X472126Y280821D01*
X471988Y280849D01*
X471850Y280882D01*
X471713Y280918D01*
X471578Y280959D01*
X471443Y281003D01*
X471310Y281050D01*
X471178Y281102D01*
X471048Y281157D01*
X470920Y281216D01*
X470793Y281279D01*
X470668Y281345D01*
X470545Y281414D01*
X470423Y281487D01*
X470304Y281564D01*
X470188Y281643D01*
X470073Y281726D01*
X469961Y281813D01*
X469851Y281902D01*
X469744Y281994D01*
X469640Y282090D01*
X469538Y282188D01*
X469439Y282289D01*
X469343Y282393D01*
X469250Y282499D01*
X469160Y282608D01*
X469073Y282720D01*
X468989Y282834D01*
X468908Y282950D01*
X468831Y283069D01*
X468757Y283189D01*
X468687Y283312D01*
X468620Y283436D01*
X468557Y283563D01*
X468497Y283691D01*
X468441Y283821D01*
X468388Y283952D01*
X468339Y284085D01*
X468294Y284219D01*
X468253Y284354D01*
X468216Y284491D01*
X468182Y284628D01*
X468152Y284766D01*
X468127Y284905D01*
X468105Y285045D01*
X468087Y285185D01*
X468073Y285326D01*
X468063Y285467D01*
X468057Y285609D01*
X468055Y285750D01*
D10*
X1824038Y225425D02*
X1824038Y373063D01*
X1824040Y373174D01*
X1824046Y373284D01*
X1824055Y373395D01*
X1824069Y373505D01*
X1824086Y373614D01*
X1824107Y373723D01*
X1824132Y373831D01*
X1824161Y373938D01*
X1824193Y374044D01*
X1824229Y374149D01*
X1824269Y374252D01*
X1824312Y374354D01*
X1824359Y374455D01*
X1824410Y374554D01*
X1824463Y374651D01*
X1824520Y374745D01*
X1824581Y374838D01*
X1824644Y374929D01*
X1824711Y375018D01*
X1824781Y375104D01*
X1824854Y375187D01*
X1824929Y375269D01*
X1825007Y375347D01*
X1825089Y375422D01*
X1825172Y375495D01*
X1825258Y375565D01*
X1825347Y375632D01*
X1825438Y375695D01*
X1825531Y375756D01*
X1825626Y375813D01*
X1825722Y375866D01*
X1825821Y375917D01*
X1825922Y375964D01*
X1826024Y376007D01*
X1826127Y376047D01*
X1826232Y376083D01*
X1826338Y376115D01*
X1826445Y376144D01*
X1826553Y376169D01*
X1826662Y376190D01*
X1826771Y376207D01*
X1826881Y376221D01*
X1826992Y376230D01*
X1827102Y376236D01*
X1827213Y376238D01*
X1836738Y376238D01*
X1836849Y376236D01*
X1836959Y376230D01*
X1837070Y376221D01*
X1837180Y376207D01*
X1837289Y376190D01*
X1837398Y376169D01*
X1837506Y376144D01*
X1837613Y376115D01*
X1837719Y376083D01*
X1837824Y376047D01*
X1837927Y376007D01*
X1838029Y375964D01*
X1838130Y375917D01*
X1838229Y375866D01*
X1838326Y375813D01*
X1838420Y375756D01*
X1838513Y375695D01*
X1838604Y375632D01*
X1838693Y375565D01*
X1838779Y375495D01*
X1838862Y375422D01*
X1838944Y375347D01*
X1839022Y375269D01*
X1839097Y375187D01*
X1839170Y375104D01*
X1839240Y375018D01*
X1839307Y374929D01*
X1839370Y374838D01*
X1839431Y374745D01*
X1839488Y374651D01*
X1839541Y374554D01*
X1839592Y374455D01*
X1839639Y374354D01*
X1839682Y374252D01*
X1839722Y374149D01*
X1839758Y374044D01*
X1839790Y373938D01*
X1839819Y373831D01*
X1839844Y373723D01*
X1839865Y373614D01*
X1839882Y373505D01*
X1839896Y373395D01*
X1839905Y373284D01*
X1839911Y373174D01*
X1839913Y373063D01*
X1839913Y225425D01*
X1839911Y225314D01*
X1839905Y225204D01*
X1839896Y225093D01*
X1839882Y224983D01*
X1839865Y224874D01*
X1839844Y224765D01*
X1839819Y224657D01*
X1839790Y224550D01*
X1839758Y224444D01*
X1839722Y224339D01*
X1839682Y224236D01*
X1839639Y224134D01*
X1839592Y224033D01*
X1839541Y223934D01*
X1839488Y223837D01*
X1839431Y223743D01*
X1839370Y223650D01*
X1839307Y223559D01*
X1839240Y223470D01*
X1839170Y223384D01*
X1839097Y223301D01*
X1839022Y223219D01*
X1838944Y223141D01*
X1838862Y223066D01*
X1838779Y222993D01*
X1838693Y222923D01*
X1838604Y222856D01*
X1838513Y222793D01*
X1838420Y222732D01*
X1838326Y222675D01*
X1838229Y222622D01*
X1838130Y222571D01*
X1838029Y222524D01*
X1837927Y222481D01*
X1837824Y222441D01*
X1837719Y222405D01*
X1837613Y222373D01*
X1837506Y222344D01*
X1837398Y222319D01*
X1837289Y222298D01*
X1837180Y222281D01*
X1837070Y222267D01*
X1836959Y222258D01*
X1836849Y222252D01*
X1836738Y222250D01*
X1827213Y222250D01*
X1827102Y222252D01*
X1826992Y222258D01*
X1826881Y222267D01*
X1826771Y222281D01*
X1826662Y222298D01*
X1826553Y222319D01*
X1826445Y222344D01*
X1826338Y222373D01*
X1826232Y222405D01*
X1826127Y222441D01*
X1826024Y222481D01*
X1825922Y222524D01*
X1825821Y222571D01*
X1825722Y222622D01*
X1825626Y222675D01*
X1825531Y222732D01*
X1825438Y222793D01*
X1825347Y222856D01*
X1825258Y222923D01*
X1825172Y222993D01*
X1825089Y223066D01*
X1825007Y223141D01*
X1824929Y223219D01*
X1824854Y223301D01*
X1824781Y223384D01*
X1824711Y223470D01*
X1824644Y223559D01*
X1824581Y223650D01*
X1824520Y223743D01*
X1824463Y223838D01*
X1824410Y223934D01*
X1824359Y224033D01*
X1824312Y224134D01*
X1824269Y224236D01*
X1824229Y224339D01*
X1824193Y224444D01*
X1824161Y224550D01*
X1824132Y224657D01*
X1824107Y224765D01*
X1824086Y224874D01*
X1824069Y224983D01*
X1824055Y225093D01*
X1824046Y225204D01*
X1824040Y225314D01*
X1824038Y225425D01*
M02*
