G04 EAGLE Gerber RS-274X export*
G75*
%MOMM*%
%FSLAX34Y34*%
%LPD*%
%INSilkscreen Top*%
%IPPOS*%
%AMOC8*
5,1,8,0,0,1.08239X$1,22.5*%
G01*
%ADD10C,0.152400*%
%ADD11R,0.425000X0.325000*%
%ADD12R,0.350000X0.350000*%
%ADD13C,0.101600*%
%ADD14R,0.381000X0.508000*%
%ADD15C,0.127000*%


D10*
X1062800Y202128D02*
X1062800Y209352D01*
X1062799Y209352D02*
X1062801Y209485D01*
X1062807Y209617D01*
X1062817Y209749D01*
X1062830Y209881D01*
X1062848Y210013D01*
X1062869Y210143D01*
X1062894Y210274D01*
X1062923Y210403D01*
X1062956Y210531D01*
X1062992Y210659D01*
X1063032Y210785D01*
X1063076Y210910D01*
X1063124Y211034D01*
X1063175Y211156D01*
X1063230Y211277D01*
X1063288Y211396D01*
X1063350Y211514D01*
X1063415Y211629D01*
X1063484Y211743D01*
X1063555Y211854D01*
X1063631Y211963D01*
X1063709Y212070D01*
X1063790Y212175D01*
X1063875Y212277D01*
X1063962Y212377D01*
X1064052Y212474D01*
X1064145Y212569D01*
X1064241Y212660D01*
X1064339Y212749D01*
X1064440Y212835D01*
X1064544Y212918D01*
X1064650Y212998D01*
X1064758Y213074D01*
X1064868Y213148D01*
X1064981Y213218D01*
X1065095Y213285D01*
X1065212Y213348D01*
X1065330Y213408D01*
X1065450Y213465D01*
X1065572Y213518D01*
X1065695Y213567D01*
X1065819Y213613D01*
X1065945Y213655D01*
X1066072Y213693D01*
X1066200Y213728D01*
X1066329Y213759D01*
X1066458Y213786D01*
X1066589Y213809D01*
X1066720Y213829D01*
X1066852Y213844D01*
X1066984Y213856D01*
X1067116Y213864D01*
X1067249Y213868D01*
X1067381Y213868D01*
X1067514Y213864D01*
X1067646Y213856D01*
X1067778Y213844D01*
X1067910Y213829D01*
X1068041Y213809D01*
X1068172Y213786D01*
X1068301Y213759D01*
X1068430Y213728D01*
X1068558Y213693D01*
X1068685Y213655D01*
X1068811Y213613D01*
X1068935Y213567D01*
X1069058Y213518D01*
X1069180Y213465D01*
X1069300Y213408D01*
X1069418Y213348D01*
X1069535Y213285D01*
X1069649Y213218D01*
X1069762Y213148D01*
X1069872Y213074D01*
X1069980Y212998D01*
X1070086Y212918D01*
X1070190Y212835D01*
X1070291Y212749D01*
X1070389Y212660D01*
X1070485Y212569D01*
X1070578Y212474D01*
X1070668Y212377D01*
X1070755Y212277D01*
X1070840Y212175D01*
X1070921Y212070D01*
X1070999Y211963D01*
X1071075Y211854D01*
X1071146Y211743D01*
X1071215Y211629D01*
X1071280Y211514D01*
X1071342Y211396D01*
X1071400Y211277D01*
X1071455Y211156D01*
X1071506Y211034D01*
X1071554Y210910D01*
X1071598Y210785D01*
X1071638Y210659D01*
X1071674Y210531D01*
X1071707Y210403D01*
X1071736Y210274D01*
X1071761Y210143D01*
X1071782Y210013D01*
X1071800Y209881D01*
X1071813Y209749D01*
X1071823Y209617D01*
X1071829Y209485D01*
X1071831Y209352D01*
X1071831Y202128D01*
X1071829Y201995D01*
X1071823Y201863D01*
X1071813Y201731D01*
X1071800Y201599D01*
X1071782Y201467D01*
X1071761Y201337D01*
X1071736Y201206D01*
X1071707Y201077D01*
X1071674Y200949D01*
X1071638Y200821D01*
X1071598Y200695D01*
X1071554Y200570D01*
X1071506Y200446D01*
X1071455Y200324D01*
X1071400Y200203D01*
X1071342Y200084D01*
X1071280Y199966D01*
X1071215Y199851D01*
X1071146Y199737D01*
X1071075Y199626D01*
X1070999Y199517D01*
X1070921Y199410D01*
X1070840Y199305D01*
X1070755Y199203D01*
X1070668Y199103D01*
X1070578Y199006D01*
X1070485Y198911D01*
X1070389Y198820D01*
X1070291Y198731D01*
X1070190Y198645D01*
X1070086Y198562D01*
X1069980Y198482D01*
X1069872Y198406D01*
X1069762Y198332D01*
X1069649Y198262D01*
X1069535Y198195D01*
X1069418Y198132D01*
X1069300Y198072D01*
X1069180Y198015D01*
X1069058Y197962D01*
X1068935Y197913D01*
X1068811Y197867D01*
X1068685Y197825D01*
X1068558Y197787D01*
X1068430Y197752D01*
X1068301Y197721D01*
X1068172Y197694D01*
X1068041Y197671D01*
X1067910Y197651D01*
X1067778Y197636D01*
X1067646Y197624D01*
X1067514Y197616D01*
X1067381Y197612D01*
X1067249Y197612D01*
X1067116Y197616D01*
X1066984Y197624D01*
X1066852Y197636D01*
X1066720Y197651D01*
X1066589Y197671D01*
X1066458Y197694D01*
X1066329Y197721D01*
X1066200Y197752D01*
X1066072Y197787D01*
X1065945Y197825D01*
X1065819Y197867D01*
X1065695Y197913D01*
X1065572Y197962D01*
X1065450Y198015D01*
X1065330Y198072D01*
X1065212Y198132D01*
X1065095Y198195D01*
X1064981Y198262D01*
X1064868Y198332D01*
X1064758Y198406D01*
X1064650Y198482D01*
X1064544Y198562D01*
X1064440Y198645D01*
X1064339Y198731D01*
X1064241Y198820D01*
X1064145Y198911D01*
X1064052Y199006D01*
X1063962Y199103D01*
X1063875Y199203D01*
X1063790Y199305D01*
X1063709Y199410D01*
X1063631Y199517D01*
X1063555Y199626D01*
X1063484Y199737D01*
X1063415Y199851D01*
X1063350Y199966D01*
X1063288Y200084D01*
X1063230Y200203D01*
X1063175Y200324D01*
X1063124Y200446D01*
X1063076Y200570D01*
X1063032Y200695D01*
X1062992Y200821D01*
X1062956Y200949D01*
X1062923Y201077D01*
X1062894Y201206D01*
X1062869Y201337D01*
X1062848Y201467D01*
X1062830Y201599D01*
X1062817Y201731D01*
X1062807Y201863D01*
X1062801Y201995D01*
X1062799Y202128D01*
X1083398Y213868D02*
X1083523Y213866D01*
X1083648Y213860D01*
X1083773Y213851D01*
X1083897Y213837D01*
X1084021Y213820D01*
X1084145Y213799D01*
X1084267Y213774D01*
X1084389Y213745D01*
X1084510Y213713D01*
X1084630Y213677D01*
X1084749Y213637D01*
X1084866Y213594D01*
X1084982Y213547D01*
X1085097Y213496D01*
X1085209Y213442D01*
X1085321Y213384D01*
X1085430Y213324D01*
X1085537Y213259D01*
X1085643Y213192D01*
X1085746Y213121D01*
X1085847Y213047D01*
X1085946Y212970D01*
X1086042Y212890D01*
X1086136Y212807D01*
X1086227Y212722D01*
X1086316Y212633D01*
X1086401Y212542D01*
X1086484Y212448D01*
X1086564Y212352D01*
X1086641Y212253D01*
X1086715Y212152D01*
X1086786Y212049D01*
X1086853Y211943D01*
X1086918Y211836D01*
X1086978Y211727D01*
X1087036Y211615D01*
X1087090Y211503D01*
X1087141Y211388D01*
X1087188Y211272D01*
X1087231Y211155D01*
X1087271Y211036D01*
X1087307Y210916D01*
X1087339Y210795D01*
X1087368Y210673D01*
X1087393Y210551D01*
X1087414Y210427D01*
X1087431Y210303D01*
X1087445Y210179D01*
X1087454Y210054D01*
X1087460Y209929D01*
X1087462Y209804D01*
X1083398Y213868D02*
X1083255Y213866D01*
X1083113Y213860D01*
X1082970Y213850D01*
X1082828Y213837D01*
X1082687Y213819D01*
X1082545Y213798D01*
X1082405Y213773D01*
X1082265Y213744D01*
X1082126Y213711D01*
X1081988Y213674D01*
X1081851Y213634D01*
X1081716Y213590D01*
X1081581Y213542D01*
X1081448Y213490D01*
X1081316Y213435D01*
X1081186Y213376D01*
X1081058Y213314D01*
X1080931Y213248D01*
X1080806Y213179D01*
X1080683Y213107D01*
X1080563Y213031D01*
X1080444Y212952D01*
X1080327Y212869D01*
X1080213Y212784D01*
X1080101Y212695D01*
X1079992Y212604D01*
X1079885Y212509D01*
X1079780Y212412D01*
X1079679Y212311D01*
X1079580Y212208D01*
X1079484Y212103D01*
X1079391Y211994D01*
X1079301Y211883D01*
X1079214Y211770D01*
X1079130Y211655D01*
X1079050Y211537D01*
X1078972Y211417D01*
X1078898Y211295D01*
X1078828Y211171D01*
X1078760Y211045D01*
X1078697Y210917D01*
X1078636Y210788D01*
X1078579Y210657D01*
X1078526Y210525D01*
X1078477Y210391D01*
X1078431Y210256D01*
X1086107Y206643D02*
X1086201Y206735D01*
X1086291Y206829D01*
X1086379Y206926D01*
X1086464Y207026D01*
X1086546Y207128D01*
X1086625Y207233D01*
X1086700Y207340D01*
X1086772Y207449D01*
X1086841Y207560D01*
X1086907Y207674D01*
X1086969Y207789D01*
X1087028Y207906D01*
X1087083Y208025D01*
X1087134Y208145D01*
X1087182Y208267D01*
X1087227Y208390D01*
X1087267Y208514D01*
X1087304Y208640D01*
X1087337Y208767D01*
X1087366Y208894D01*
X1087392Y209023D01*
X1087413Y209152D01*
X1087431Y209282D01*
X1087444Y209412D01*
X1087454Y209542D01*
X1087460Y209673D01*
X1087462Y209804D01*
X1086107Y206643D02*
X1078431Y197612D01*
X1087462Y197612D01*
X1107296Y197612D02*
X1107414Y197614D01*
X1107532Y197620D01*
X1107650Y197629D01*
X1107767Y197643D01*
X1107884Y197660D01*
X1108001Y197681D01*
X1108116Y197706D01*
X1108231Y197735D01*
X1108345Y197768D01*
X1108457Y197804D01*
X1108568Y197844D01*
X1108678Y197887D01*
X1108787Y197934D01*
X1108894Y197984D01*
X1108999Y198039D01*
X1109102Y198096D01*
X1109203Y198157D01*
X1109303Y198221D01*
X1109400Y198288D01*
X1109495Y198358D01*
X1109587Y198432D01*
X1109678Y198508D01*
X1109765Y198588D01*
X1109850Y198670D01*
X1109932Y198755D01*
X1110012Y198842D01*
X1110088Y198933D01*
X1110162Y199025D01*
X1110232Y199120D01*
X1110299Y199217D01*
X1110363Y199317D01*
X1110424Y199418D01*
X1110481Y199521D01*
X1110536Y199626D01*
X1110586Y199733D01*
X1110633Y199842D01*
X1110676Y199952D01*
X1110716Y200063D01*
X1110752Y200175D01*
X1110785Y200289D01*
X1110814Y200404D01*
X1110839Y200519D01*
X1110860Y200636D01*
X1110877Y200753D01*
X1110891Y200870D01*
X1110900Y200988D01*
X1110906Y201106D01*
X1110908Y201224D01*
X1107296Y197612D02*
X1107113Y197614D01*
X1106931Y197621D01*
X1106749Y197632D01*
X1106567Y197647D01*
X1106385Y197667D01*
X1106204Y197690D01*
X1106024Y197719D01*
X1105844Y197751D01*
X1105665Y197788D01*
X1105488Y197829D01*
X1105311Y197875D01*
X1105135Y197924D01*
X1104961Y197978D01*
X1104787Y198036D01*
X1104616Y198098D01*
X1104446Y198164D01*
X1104277Y198235D01*
X1104110Y198309D01*
X1103945Y198387D01*
X1103782Y198469D01*
X1103621Y198555D01*
X1103462Y198645D01*
X1103305Y198739D01*
X1103151Y198836D01*
X1102999Y198937D01*
X1102849Y199042D01*
X1102702Y199150D01*
X1102558Y199261D01*
X1102416Y199376D01*
X1102277Y199495D01*
X1102141Y199617D01*
X1102008Y199742D01*
X1101878Y199870D01*
X1102330Y210256D02*
X1102332Y210374D01*
X1102338Y210492D01*
X1102347Y210610D01*
X1102361Y210727D01*
X1102378Y210844D01*
X1102399Y210961D01*
X1102424Y211076D01*
X1102453Y211191D01*
X1102486Y211305D01*
X1102522Y211417D01*
X1102562Y211528D01*
X1102605Y211638D01*
X1102652Y211747D01*
X1102702Y211854D01*
X1102757Y211959D01*
X1102814Y212062D01*
X1102875Y212163D01*
X1102939Y212263D01*
X1103006Y212360D01*
X1103076Y212455D01*
X1103150Y212547D01*
X1103226Y212638D01*
X1103306Y212725D01*
X1103388Y212810D01*
X1103473Y212892D01*
X1103560Y212972D01*
X1103651Y213048D01*
X1103743Y213122D01*
X1103838Y213192D01*
X1103935Y213259D01*
X1104035Y213323D01*
X1104136Y213384D01*
X1104239Y213442D01*
X1104344Y213496D01*
X1104451Y213546D01*
X1104560Y213593D01*
X1104670Y213637D01*
X1104781Y213676D01*
X1104894Y213712D01*
X1105007Y213745D01*
X1105122Y213774D01*
X1105237Y213799D01*
X1105354Y213820D01*
X1105471Y213837D01*
X1105588Y213851D01*
X1105706Y213860D01*
X1105824Y213866D01*
X1105942Y213868D01*
X1105941Y213868D02*
X1106102Y213866D01*
X1106264Y213860D01*
X1106425Y213851D01*
X1106586Y213837D01*
X1106746Y213820D01*
X1106906Y213799D01*
X1107066Y213774D01*
X1107225Y213745D01*
X1107383Y213713D01*
X1107540Y213677D01*
X1107696Y213637D01*
X1107852Y213593D01*
X1108006Y213545D01*
X1108159Y213494D01*
X1108311Y213440D01*
X1108462Y213381D01*
X1108611Y213320D01*
X1108758Y213254D01*
X1108904Y213185D01*
X1109049Y213113D01*
X1109191Y213037D01*
X1109332Y212958D01*
X1109471Y212876D01*
X1109607Y212790D01*
X1109742Y212701D01*
X1109875Y212609D01*
X1110005Y212513D01*
X1104135Y207095D02*
X1104034Y207157D01*
X1103934Y207222D01*
X1103837Y207291D01*
X1103742Y207363D01*
X1103649Y207437D01*
X1103559Y207515D01*
X1103471Y207596D01*
X1103386Y207679D01*
X1103304Y207765D01*
X1103225Y207854D01*
X1103148Y207945D01*
X1103075Y208039D01*
X1103004Y208135D01*
X1102937Y208233D01*
X1102873Y208333D01*
X1102812Y208436D01*
X1102755Y208540D01*
X1102701Y208646D01*
X1102651Y208754D01*
X1102604Y208863D01*
X1102560Y208974D01*
X1102520Y209086D01*
X1102484Y209200D01*
X1102452Y209314D01*
X1102423Y209430D01*
X1102398Y209546D01*
X1102377Y209663D01*
X1102360Y209781D01*
X1102346Y209899D01*
X1102337Y210018D01*
X1102331Y210137D01*
X1102329Y210256D01*
X1109103Y204385D02*
X1109204Y204323D01*
X1109304Y204258D01*
X1109401Y204189D01*
X1109496Y204117D01*
X1109589Y204043D01*
X1109679Y203965D01*
X1109767Y203884D01*
X1109852Y203801D01*
X1109934Y203715D01*
X1110013Y203626D01*
X1110090Y203535D01*
X1110163Y203441D01*
X1110234Y203345D01*
X1110301Y203247D01*
X1110365Y203147D01*
X1110426Y203044D01*
X1110483Y202940D01*
X1110537Y202834D01*
X1110587Y202726D01*
X1110634Y202617D01*
X1110678Y202506D01*
X1110718Y202394D01*
X1110754Y202280D01*
X1110786Y202166D01*
X1110815Y202050D01*
X1110840Y201934D01*
X1110861Y201817D01*
X1110878Y201699D01*
X1110892Y201581D01*
X1110901Y201462D01*
X1110907Y201343D01*
X1110909Y201224D01*
X1109102Y204385D02*
X1104135Y207095D01*
X1117539Y197612D02*
X1124763Y197612D01*
X1117539Y197612D02*
X1117539Y213868D01*
X1124763Y213868D01*
X1122957Y206643D02*
X1117539Y206643D01*
X1131056Y213868D02*
X1131056Y197612D01*
X1140087Y197612D02*
X1131056Y213868D01*
X1140087Y213868D02*
X1140087Y197612D01*
X1152106Y197612D02*
X1152224Y197614D01*
X1152342Y197620D01*
X1152460Y197629D01*
X1152577Y197643D01*
X1152694Y197660D01*
X1152811Y197681D01*
X1152926Y197706D01*
X1153041Y197735D01*
X1153155Y197768D01*
X1153267Y197804D01*
X1153378Y197844D01*
X1153488Y197887D01*
X1153597Y197934D01*
X1153704Y197984D01*
X1153809Y198039D01*
X1153912Y198096D01*
X1154013Y198157D01*
X1154113Y198221D01*
X1154210Y198288D01*
X1154305Y198358D01*
X1154397Y198432D01*
X1154488Y198508D01*
X1154575Y198588D01*
X1154660Y198670D01*
X1154742Y198755D01*
X1154822Y198842D01*
X1154898Y198933D01*
X1154972Y199025D01*
X1155042Y199120D01*
X1155109Y199217D01*
X1155173Y199317D01*
X1155234Y199418D01*
X1155291Y199521D01*
X1155346Y199626D01*
X1155396Y199733D01*
X1155443Y199842D01*
X1155486Y199952D01*
X1155526Y200063D01*
X1155562Y200175D01*
X1155595Y200289D01*
X1155624Y200404D01*
X1155649Y200519D01*
X1155670Y200636D01*
X1155687Y200753D01*
X1155701Y200870D01*
X1155710Y200988D01*
X1155716Y201106D01*
X1155718Y201224D01*
X1152106Y197612D02*
X1151923Y197614D01*
X1151741Y197621D01*
X1151559Y197632D01*
X1151377Y197647D01*
X1151195Y197667D01*
X1151014Y197690D01*
X1150834Y197719D01*
X1150654Y197751D01*
X1150475Y197788D01*
X1150298Y197829D01*
X1150121Y197875D01*
X1149945Y197924D01*
X1149771Y197978D01*
X1149597Y198036D01*
X1149426Y198098D01*
X1149256Y198164D01*
X1149087Y198235D01*
X1148920Y198309D01*
X1148755Y198387D01*
X1148592Y198469D01*
X1148431Y198555D01*
X1148272Y198645D01*
X1148115Y198739D01*
X1147961Y198836D01*
X1147809Y198937D01*
X1147659Y199042D01*
X1147512Y199150D01*
X1147368Y199261D01*
X1147226Y199376D01*
X1147087Y199495D01*
X1146951Y199617D01*
X1146818Y199742D01*
X1146688Y199870D01*
X1147139Y210256D02*
X1147141Y210374D01*
X1147147Y210492D01*
X1147156Y210610D01*
X1147170Y210727D01*
X1147187Y210844D01*
X1147208Y210961D01*
X1147233Y211076D01*
X1147262Y211191D01*
X1147295Y211305D01*
X1147331Y211417D01*
X1147371Y211528D01*
X1147414Y211638D01*
X1147461Y211747D01*
X1147511Y211854D01*
X1147566Y211959D01*
X1147623Y212062D01*
X1147684Y212163D01*
X1147748Y212263D01*
X1147815Y212360D01*
X1147885Y212455D01*
X1147959Y212547D01*
X1148035Y212638D01*
X1148115Y212725D01*
X1148197Y212810D01*
X1148282Y212892D01*
X1148369Y212972D01*
X1148460Y213048D01*
X1148552Y213122D01*
X1148647Y213192D01*
X1148744Y213259D01*
X1148844Y213323D01*
X1148945Y213384D01*
X1149048Y213442D01*
X1149153Y213496D01*
X1149260Y213546D01*
X1149369Y213593D01*
X1149479Y213637D01*
X1149590Y213676D01*
X1149703Y213712D01*
X1149816Y213745D01*
X1149931Y213774D01*
X1150046Y213799D01*
X1150163Y213820D01*
X1150280Y213837D01*
X1150397Y213851D01*
X1150515Y213860D01*
X1150633Y213866D01*
X1150751Y213868D01*
X1150912Y213866D01*
X1151074Y213860D01*
X1151235Y213851D01*
X1151396Y213837D01*
X1151556Y213820D01*
X1151716Y213799D01*
X1151876Y213774D01*
X1152035Y213745D01*
X1152193Y213713D01*
X1152350Y213677D01*
X1152506Y213637D01*
X1152662Y213593D01*
X1152816Y213545D01*
X1152969Y213494D01*
X1153121Y213440D01*
X1153272Y213381D01*
X1153421Y213320D01*
X1153568Y213254D01*
X1153714Y213185D01*
X1153859Y213113D01*
X1154001Y213037D01*
X1154142Y212958D01*
X1154281Y212876D01*
X1154417Y212790D01*
X1154552Y212701D01*
X1154685Y212609D01*
X1154815Y212513D01*
X1148944Y207095D02*
X1148843Y207157D01*
X1148743Y207222D01*
X1148646Y207291D01*
X1148551Y207363D01*
X1148458Y207437D01*
X1148368Y207515D01*
X1148280Y207596D01*
X1148195Y207679D01*
X1148113Y207765D01*
X1148034Y207854D01*
X1147957Y207945D01*
X1147884Y208039D01*
X1147813Y208135D01*
X1147746Y208233D01*
X1147682Y208333D01*
X1147621Y208436D01*
X1147564Y208540D01*
X1147510Y208646D01*
X1147460Y208754D01*
X1147413Y208863D01*
X1147369Y208974D01*
X1147329Y209086D01*
X1147293Y209200D01*
X1147261Y209314D01*
X1147232Y209430D01*
X1147207Y209546D01*
X1147186Y209663D01*
X1147169Y209781D01*
X1147155Y209899D01*
X1147146Y210018D01*
X1147140Y210137D01*
X1147138Y210256D01*
X1153912Y204385D02*
X1154013Y204323D01*
X1154113Y204258D01*
X1154210Y204189D01*
X1154305Y204117D01*
X1154398Y204043D01*
X1154488Y203965D01*
X1154576Y203884D01*
X1154661Y203801D01*
X1154743Y203715D01*
X1154822Y203626D01*
X1154899Y203535D01*
X1154972Y203441D01*
X1155043Y203345D01*
X1155110Y203247D01*
X1155174Y203147D01*
X1155235Y203044D01*
X1155292Y202940D01*
X1155346Y202834D01*
X1155396Y202726D01*
X1155443Y202617D01*
X1155487Y202506D01*
X1155527Y202394D01*
X1155563Y202280D01*
X1155595Y202166D01*
X1155624Y202050D01*
X1155649Y201934D01*
X1155670Y201817D01*
X1155687Y201699D01*
X1155701Y201581D01*
X1155710Y201462D01*
X1155716Y201343D01*
X1155718Y201224D01*
X1153912Y204385D02*
X1148945Y207095D01*
X1161797Y209352D02*
X1161797Y202128D01*
X1161797Y209352D02*
X1161799Y209485D01*
X1161805Y209617D01*
X1161815Y209749D01*
X1161828Y209881D01*
X1161846Y210013D01*
X1161867Y210143D01*
X1161892Y210274D01*
X1161921Y210403D01*
X1161954Y210531D01*
X1161990Y210659D01*
X1162030Y210785D01*
X1162074Y210910D01*
X1162122Y211034D01*
X1162173Y211156D01*
X1162228Y211277D01*
X1162286Y211396D01*
X1162348Y211514D01*
X1162413Y211629D01*
X1162482Y211743D01*
X1162553Y211854D01*
X1162629Y211963D01*
X1162707Y212070D01*
X1162788Y212175D01*
X1162873Y212277D01*
X1162960Y212377D01*
X1163050Y212474D01*
X1163143Y212569D01*
X1163239Y212660D01*
X1163337Y212749D01*
X1163438Y212835D01*
X1163542Y212918D01*
X1163648Y212998D01*
X1163756Y213074D01*
X1163866Y213148D01*
X1163979Y213218D01*
X1164093Y213285D01*
X1164210Y213348D01*
X1164328Y213408D01*
X1164448Y213465D01*
X1164570Y213518D01*
X1164693Y213567D01*
X1164817Y213613D01*
X1164943Y213655D01*
X1165070Y213693D01*
X1165198Y213728D01*
X1165327Y213759D01*
X1165456Y213786D01*
X1165587Y213809D01*
X1165718Y213829D01*
X1165850Y213844D01*
X1165982Y213856D01*
X1166114Y213864D01*
X1166247Y213868D01*
X1166379Y213868D01*
X1166512Y213864D01*
X1166644Y213856D01*
X1166776Y213844D01*
X1166908Y213829D01*
X1167039Y213809D01*
X1167170Y213786D01*
X1167299Y213759D01*
X1167428Y213728D01*
X1167556Y213693D01*
X1167683Y213655D01*
X1167809Y213613D01*
X1167933Y213567D01*
X1168056Y213518D01*
X1168178Y213465D01*
X1168298Y213408D01*
X1168416Y213348D01*
X1168533Y213285D01*
X1168647Y213218D01*
X1168760Y213148D01*
X1168870Y213074D01*
X1168978Y212998D01*
X1169084Y212918D01*
X1169188Y212835D01*
X1169289Y212749D01*
X1169387Y212660D01*
X1169483Y212569D01*
X1169576Y212474D01*
X1169666Y212377D01*
X1169753Y212277D01*
X1169838Y212175D01*
X1169919Y212070D01*
X1169997Y211963D01*
X1170073Y211854D01*
X1170144Y211743D01*
X1170213Y211629D01*
X1170278Y211514D01*
X1170340Y211396D01*
X1170398Y211277D01*
X1170453Y211156D01*
X1170504Y211034D01*
X1170552Y210910D01*
X1170596Y210785D01*
X1170636Y210659D01*
X1170672Y210531D01*
X1170705Y210403D01*
X1170734Y210274D01*
X1170759Y210143D01*
X1170780Y210013D01*
X1170798Y209881D01*
X1170811Y209749D01*
X1170821Y209617D01*
X1170827Y209485D01*
X1170829Y209352D01*
X1170828Y209352D02*
X1170828Y202128D01*
X1170829Y202128D02*
X1170827Y201995D01*
X1170821Y201863D01*
X1170811Y201731D01*
X1170798Y201599D01*
X1170780Y201467D01*
X1170759Y201337D01*
X1170734Y201206D01*
X1170705Y201077D01*
X1170672Y200949D01*
X1170636Y200821D01*
X1170596Y200695D01*
X1170552Y200570D01*
X1170504Y200446D01*
X1170453Y200324D01*
X1170398Y200203D01*
X1170340Y200084D01*
X1170278Y199966D01*
X1170213Y199851D01*
X1170144Y199737D01*
X1170073Y199626D01*
X1169997Y199517D01*
X1169919Y199410D01*
X1169838Y199305D01*
X1169753Y199203D01*
X1169666Y199103D01*
X1169576Y199006D01*
X1169483Y198911D01*
X1169387Y198820D01*
X1169289Y198731D01*
X1169188Y198645D01*
X1169084Y198562D01*
X1168978Y198482D01*
X1168870Y198406D01*
X1168760Y198332D01*
X1168647Y198262D01*
X1168533Y198195D01*
X1168416Y198132D01*
X1168298Y198072D01*
X1168178Y198015D01*
X1168056Y197962D01*
X1167933Y197913D01*
X1167809Y197867D01*
X1167683Y197825D01*
X1167556Y197787D01*
X1167428Y197752D01*
X1167299Y197721D01*
X1167170Y197694D01*
X1167039Y197671D01*
X1166908Y197651D01*
X1166776Y197636D01*
X1166644Y197624D01*
X1166512Y197616D01*
X1166379Y197612D01*
X1166247Y197612D01*
X1166114Y197616D01*
X1165982Y197624D01*
X1165850Y197636D01*
X1165718Y197651D01*
X1165587Y197671D01*
X1165456Y197694D01*
X1165327Y197721D01*
X1165198Y197752D01*
X1165070Y197787D01*
X1164943Y197825D01*
X1164817Y197867D01*
X1164693Y197913D01*
X1164570Y197962D01*
X1164448Y198015D01*
X1164328Y198072D01*
X1164210Y198132D01*
X1164093Y198195D01*
X1163979Y198262D01*
X1163866Y198332D01*
X1163756Y198406D01*
X1163648Y198482D01*
X1163542Y198562D01*
X1163438Y198645D01*
X1163337Y198731D01*
X1163239Y198820D01*
X1163143Y198911D01*
X1163050Y199006D01*
X1162960Y199103D01*
X1162873Y199203D01*
X1162788Y199305D01*
X1162707Y199410D01*
X1162629Y199517D01*
X1162553Y199626D01*
X1162482Y199737D01*
X1162413Y199851D01*
X1162348Y199966D01*
X1162286Y200084D01*
X1162228Y200203D01*
X1162173Y200324D01*
X1162122Y200446D01*
X1162074Y200570D01*
X1162030Y200695D01*
X1161990Y200821D01*
X1161954Y200949D01*
X1161921Y201077D01*
X1161892Y201206D01*
X1161867Y201337D01*
X1161846Y201467D01*
X1161828Y201599D01*
X1161815Y201731D01*
X1161805Y201863D01*
X1161799Y201995D01*
X1161797Y202128D01*
X1178041Y197612D02*
X1178041Y213868D01*
X1182557Y213868D01*
X1182690Y213866D01*
X1182822Y213860D01*
X1182954Y213850D01*
X1183086Y213837D01*
X1183218Y213819D01*
X1183348Y213798D01*
X1183479Y213773D01*
X1183608Y213744D01*
X1183736Y213711D01*
X1183864Y213675D01*
X1183990Y213635D01*
X1184115Y213591D01*
X1184239Y213543D01*
X1184361Y213492D01*
X1184482Y213437D01*
X1184601Y213379D01*
X1184719Y213317D01*
X1184834Y213252D01*
X1184948Y213183D01*
X1185059Y213112D01*
X1185168Y213036D01*
X1185275Y212958D01*
X1185380Y212877D01*
X1185482Y212792D01*
X1185582Y212705D01*
X1185679Y212615D01*
X1185774Y212522D01*
X1185865Y212426D01*
X1185954Y212328D01*
X1186040Y212227D01*
X1186123Y212123D01*
X1186203Y212017D01*
X1186279Y211909D01*
X1186353Y211799D01*
X1186423Y211686D01*
X1186490Y211572D01*
X1186553Y211455D01*
X1186613Y211337D01*
X1186670Y211217D01*
X1186723Y211095D01*
X1186772Y210972D01*
X1186818Y210848D01*
X1186860Y210722D01*
X1186898Y210595D01*
X1186933Y210467D01*
X1186964Y210338D01*
X1186991Y210209D01*
X1187014Y210078D01*
X1187034Y209947D01*
X1187049Y209815D01*
X1187061Y209683D01*
X1187069Y209551D01*
X1187073Y209418D01*
X1187073Y209286D01*
X1187069Y209153D01*
X1187061Y209021D01*
X1187049Y208889D01*
X1187034Y208757D01*
X1187014Y208626D01*
X1186991Y208495D01*
X1186964Y208366D01*
X1186933Y208237D01*
X1186898Y208109D01*
X1186860Y207982D01*
X1186818Y207856D01*
X1186772Y207732D01*
X1186723Y207609D01*
X1186670Y207487D01*
X1186613Y207367D01*
X1186553Y207249D01*
X1186490Y207132D01*
X1186423Y207018D01*
X1186353Y206905D01*
X1186279Y206795D01*
X1186203Y206687D01*
X1186123Y206581D01*
X1186040Y206477D01*
X1185954Y206376D01*
X1185865Y206278D01*
X1185774Y206182D01*
X1185679Y206089D01*
X1185582Y205999D01*
X1185482Y205912D01*
X1185380Y205827D01*
X1185275Y205746D01*
X1185168Y205668D01*
X1185059Y205592D01*
X1184948Y205521D01*
X1184834Y205452D01*
X1184719Y205387D01*
X1184601Y205325D01*
X1184482Y205267D01*
X1184361Y205212D01*
X1184239Y205161D01*
X1184115Y205113D01*
X1183990Y205069D01*
X1183864Y205029D01*
X1183736Y204993D01*
X1183608Y204960D01*
X1183479Y204931D01*
X1183348Y204906D01*
X1183218Y204885D01*
X1183086Y204867D01*
X1182954Y204854D01*
X1182822Y204844D01*
X1182690Y204838D01*
X1182557Y204836D01*
X1182557Y204837D02*
X1178041Y204837D01*
X1183460Y204837D02*
X1187072Y197612D01*
X1334262Y234901D02*
X1338778Y234901D01*
X1338911Y234899D01*
X1339043Y234893D01*
X1339175Y234883D01*
X1339307Y234870D01*
X1339439Y234852D01*
X1339569Y234831D01*
X1339700Y234806D01*
X1339829Y234777D01*
X1339957Y234744D01*
X1340085Y234708D01*
X1340211Y234668D01*
X1340336Y234624D01*
X1340460Y234576D01*
X1340582Y234525D01*
X1340703Y234470D01*
X1340822Y234412D01*
X1340940Y234350D01*
X1341055Y234285D01*
X1341169Y234216D01*
X1341280Y234145D01*
X1341389Y234069D01*
X1341496Y233991D01*
X1341601Y233910D01*
X1341703Y233825D01*
X1341803Y233738D01*
X1341900Y233648D01*
X1341995Y233555D01*
X1342086Y233459D01*
X1342175Y233361D01*
X1342261Y233260D01*
X1342344Y233156D01*
X1342424Y233050D01*
X1342500Y232942D01*
X1342574Y232832D01*
X1342644Y232719D01*
X1342711Y232605D01*
X1342774Y232488D01*
X1342834Y232370D01*
X1342891Y232250D01*
X1342944Y232128D01*
X1342993Y232005D01*
X1343039Y231881D01*
X1343081Y231755D01*
X1343119Y231628D01*
X1343154Y231500D01*
X1343185Y231371D01*
X1343212Y231242D01*
X1343235Y231111D01*
X1343255Y230980D01*
X1343270Y230848D01*
X1343282Y230716D01*
X1343290Y230584D01*
X1343294Y230451D01*
X1343294Y230319D01*
X1343290Y230186D01*
X1343282Y230054D01*
X1343270Y229922D01*
X1343255Y229790D01*
X1343235Y229659D01*
X1343212Y229528D01*
X1343185Y229399D01*
X1343154Y229270D01*
X1343119Y229142D01*
X1343081Y229015D01*
X1343039Y228889D01*
X1342993Y228765D01*
X1342944Y228642D01*
X1342891Y228520D01*
X1342834Y228400D01*
X1342774Y228282D01*
X1342711Y228165D01*
X1342644Y228051D01*
X1342574Y227938D01*
X1342500Y227828D01*
X1342424Y227720D01*
X1342344Y227614D01*
X1342261Y227510D01*
X1342175Y227409D01*
X1342086Y227311D01*
X1341995Y227215D01*
X1341900Y227122D01*
X1341803Y227032D01*
X1341703Y226945D01*
X1341601Y226860D01*
X1341496Y226779D01*
X1341389Y226701D01*
X1341280Y226625D01*
X1341169Y226554D01*
X1341055Y226485D01*
X1340940Y226420D01*
X1340822Y226358D01*
X1340703Y226300D01*
X1340582Y226245D01*
X1340460Y226194D01*
X1340336Y226146D01*
X1340211Y226102D01*
X1340085Y226062D01*
X1339957Y226026D01*
X1339829Y225993D01*
X1339700Y225964D01*
X1339569Y225939D01*
X1339439Y225918D01*
X1339307Y225900D01*
X1339175Y225887D01*
X1339043Y225877D01*
X1338911Y225871D01*
X1338778Y225869D01*
X1338778Y225870D02*
X1334262Y225870D01*
X1334262Y242126D01*
X1338778Y242126D01*
X1338778Y242125D02*
X1338897Y242123D01*
X1339017Y242117D01*
X1339136Y242107D01*
X1339254Y242093D01*
X1339373Y242076D01*
X1339490Y242054D01*
X1339607Y242029D01*
X1339722Y241999D01*
X1339837Y241966D01*
X1339951Y241929D01*
X1340063Y241889D01*
X1340174Y241844D01*
X1340283Y241796D01*
X1340391Y241745D01*
X1340497Y241690D01*
X1340601Y241631D01*
X1340703Y241569D01*
X1340803Y241504D01*
X1340901Y241435D01*
X1340997Y241363D01*
X1341090Y241288D01*
X1341180Y241211D01*
X1341268Y241130D01*
X1341353Y241046D01*
X1341435Y240959D01*
X1341515Y240870D01*
X1341591Y240778D01*
X1341665Y240684D01*
X1341735Y240587D01*
X1341802Y240489D01*
X1341866Y240388D01*
X1341926Y240284D01*
X1341983Y240179D01*
X1342036Y240072D01*
X1342086Y239964D01*
X1342132Y239854D01*
X1342174Y239742D01*
X1342213Y239629D01*
X1342248Y239515D01*
X1342279Y239400D01*
X1342307Y239283D01*
X1342330Y239166D01*
X1342350Y239049D01*
X1342366Y238930D01*
X1342378Y238811D01*
X1342386Y238692D01*
X1342390Y238573D01*
X1342390Y238453D01*
X1342386Y238334D01*
X1342378Y238215D01*
X1342366Y238096D01*
X1342350Y237977D01*
X1342330Y237860D01*
X1342307Y237743D01*
X1342279Y237626D01*
X1342248Y237511D01*
X1342213Y237397D01*
X1342174Y237284D01*
X1342132Y237172D01*
X1342086Y237062D01*
X1342036Y236954D01*
X1341983Y236847D01*
X1341926Y236742D01*
X1341866Y236638D01*
X1341802Y236537D01*
X1341735Y236439D01*
X1341665Y236342D01*
X1341591Y236248D01*
X1341515Y236156D01*
X1341435Y236067D01*
X1341353Y235980D01*
X1341268Y235896D01*
X1341180Y235815D01*
X1341090Y235738D01*
X1340997Y235663D01*
X1340901Y235591D01*
X1340803Y235522D01*
X1340703Y235457D01*
X1340601Y235395D01*
X1340497Y235336D01*
X1340391Y235281D01*
X1340283Y235230D01*
X1340174Y235182D01*
X1340063Y235137D01*
X1339951Y235097D01*
X1339837Y235060D01*
X1339722Y235027D01*
X1339607Y234997D01*
X1339490Y234972D01*
X1339373Y234950D01*
X1339254Y234933D01*
X1339136Y234919D01*
X1339017Y234909D01*
X1338897Y234903D01*
X1338778Y234901D01*
X1348501Y220451D02*
X1350307Y220451D01*
X1355726Y236707D01*
X1348501Y236707D02*
X1352114Y225870D01*
X1373878Y229482D02*
X1373878Y242126D01*
X1373877Y229482D02*
X1373875Y229364D01*
X1373869Y229246D01*
X1373860Y229128D01*
X1373846Y229011D01*
X1373829Y228894D01*
X1373808Y228777D01*
X1373783Y228662D01*
X1373754Y228547D01*
X1373721Y228433D01*
X1373685Y228321D01*
X1373645Y228210D01*
X1373602Y228100D01*
X1373555Y227991D01*
X1373505Y227884D01*
X1373450Y227779D01*
X1373393Y227676D01*
X1373332Y227575D01*
X1373268Y227475D01*
X1373201Y227378D01*
X1373131Y227283D01*
X1373057Y227191D01*
X1372981Y227100D01*
X1372901Y227013D01*
X1372819Y226928D01*
X1372734Y226846D01*
X1372647Y226766D01*
X1372556Y226690D01*
X1372464Y226616D01*
X1372369Y226546D01*
X1372272Y226479D01*
X1372172Y226415D01*
X1372071Y226354D01*
X1371968Y226297D01*
X1371863Y226242D01*
X1371756Y226192D01*
X1371647Y226145D01*
X1371537Y226102D01*
X1371426Y226062D01*
X1371314Y226026D01*
X1371200Y225993D01*
X1371085Y225964D01*
X1370970Y225939D01*
X1370853Y225918D01*
X1370736Y225901D01*
X1370619Y225887D01*
X1370501Y225878D01*
X1370383Y225872D01*
X1370265Y225870D01*
X1368459Y225870D01*
X1380806Y229482D02*
X1380806Y233094D01*
X1380808Y233213D01*
X1380814Y233333D01*
X1380824Y233452D01*
X1380838Y233570D01*
X1380855Y233689D01*
X1380877Y233806D01*
X1380902Y233923D01*
X1380932Y234038D01*
X1380965Y234153D01*
X1381002Y234267D01*
X1381042Y234379D01*
X1381087Y234490D01*
X1381135Y234599D01*
X1381186Y234707D01*
X1381241Y234813D01*
X1381300Y234917D01*
X1381362Y235019D01*
X1381427Y235119D01*
X1381496Y235217D01*
X1381568Y235313D01*
X1381643Y235406D01*
X1381720Y235496D01*
X1381801Y235584D01*
X1381885Y235669D01*
X1381972Y235751D01*
X1382061Y235831D01*
X1382153Y235907D01*
X1382247Y235981D01*
X1382344Y236051D01*
X1382442Y236118D01*
X1382543Y236182D01*
X1382647Y236242D01*
X1382752Y236299D01*
X1382859Y236352D01*
X1382967Y236402D01*
X1383077Y236448D01*
X1383189Y236490D01*
X1383302Y236529D01*
X1383416Y236564D01*
X1383531Y236595D01*
X1383648Y236623D01*
X1383765Y236646D01*
X1383882Y236666D01*
X1384001Y236682D01*
X1384120Y236694D01*
X1384239Y236702D01*
X1384358Y236706D01*
X1384478Y236706D01*
X1384597Y236702D01*
X1384716Y236694D01*
X1384835Y236682D01*
X1384954Y236666D01*
X1385071Y236646D01*
X1385188Y236623D01*
X1385305Y236595D01*
X1385420Y236564D01*
X1385534Y236529D01*
X1385647Y236490D01*
X1385759Y236448D01*
X1385869Y236402D01*
X1385977Y236352D01*
X1386084Y236299D01*
X1386189Y236242D01*
X1386293Y236182D01*
X1386394Y236118D01*
X1386492Y236051D01*
X1386589Y235981D01*
X1386683Y235907D01*
X1386775Y235831D01*
X1386864Y235751D01*
X1386951Y235669D01*
X1387035Y235584D01*
X1387116Y235496D01*
X1387193Y235406D01*
X1387268Y235313D01*
X1387340Y235217D01*
X1387409Y235119D01*
X1387474Y235019D01*
X1387536Y234917D01*
X1387595Y234813D01*
X1387650Y234707D01*
X1387701Y234599D01*
X1387749Y234490D01*
X1387794Y234379D01*
X1387834Y234267D01*
X1387871Y234153D01*
X1387904Y234038D01*
X1387934Y233923D01*
X1387959Y233806D01*
X1387981Y233689D01*
X1387998Y233570D01*
X1388012Y233452D01*
X1388022Y233333D01*
X1388028Y233213D01*
X1388030Y233094D01*
X1388031Y233094D02*
X1388031Y229482D01*
X1388030Y229482D02*
X1388028Y229363D01*
X1388022Y229243D01*
X1388012Y229124D01*
X1387998Y229006D01*
X1387981Y228887D01*
X1387959Y228770D01*
X1387934Y228653D01*
X1387904Y228538D01*
X1387871Y228423D01*
X1387834Y228309D01*
X1387794Y228197D01*
X1387749Y228086D01*
X1387701Y227977D01*
X1387650Y227869D01*
X1387595Y227763D01*
X1387536Y227659D01*
X1387474Y227557D01*
X1387409Y227457D01*
X1387340Y227359D01*
X1387268Y227263D01*
X1387193Y227170D01*
X1387116Y227080D01*
X1387035Y226992D01*
X1386951Y226907D01*
X1386864Y226825D01*
X1386775Y226745D01*
X1386683Y226669D01*
X1386589Y226595D01*
X1386492Y226525D01*
X1386394Y226458D01*
X1386293Y226394D01*
X1386189Y226334D01*
X1386084Y226277D01*
X1385977Y226224D01*
X1385869Y226174D01*
X1385759Y226128D01*
X1385647Y226086D01*
X1385534Y226047D01*
X1385420Y226012D01*
X1385305Y225981D01*
X1385188Y225953D01*
X1385071Y225930D01*
X1384954Y225910D01*
X1384835Y225894D01*
X1384716Y225882D01*
X1384597Y225874D01*
X1384478Y225870D01*
X1384358Y225870D01*
X1384239Y225874D01*
X1384120Y225882D01*
X1384001Y225894D01*
X1383882Y225910D01*
X1383765Y225930D01*
X1383648Y225953D01*
X1383531Y225981D01*
X1383416Y226012D01*
X1383302Y226047D01*
X1383189Y226086D01*
X1383077Y226128D01*
X1382967Y226174D01*
X1382859Y226224D01*
X1382752Y226277D01*
X1382647Y226334D01*
X1382543Y226394D01*
X1382442Y226458D01*
X1382344Y226525D01*
X1382247Y226595D01*
X1382153Y226669D01*
X1382061Y226745D01*
X1381972Y226825D01*
X1381885Y226907D01*
X1381801Y226992D01*
X1381720Y227080D01*
X1381643Y227170D01*
X1381568Y227263D01*
X1381496Y227359D01*
X1381427Y227457D01*
X1381362Y227557D01*
X1381300Y227659D01*
X1381241Y227763D01*
X1381186Y227869D01*
X1381135Y227977D01*
X1381087Y228086D01*
X1381042Y228197D01*
X1381002Y228309D01*
X1380965Y228423D01*
X1380932Y228538D01*
X1380902Y228653D01*
X1380877Y228770D01*
X1380855Y228887D01*
X1380838Y229006D01*
X1380824Y229124D01*
X1380814Y229243D01*
X1380808Y229363D01*
X1380806Y229482D01*
X1395707Y232191D02*
X1400223Y230385D01*
X1395707Y232191D02*
X1395619Y232228D01*
X1395533Y232269D01*
X1395448Y232313D01*
X1395365Y232361D01*
X1395285Y232412D01*
X1395206Y232466D01*
X1395130Y232524D01*
X1395056Y232584D01*
X1394984Y232648D01*
X1394916Y232714D01*
X1394850Y232784D01*
X1394787Y232855D01*
X1394726Y232930D01*
X1394669Y233006D01*
X1394616Y233085D01*
X1394565Y233166D01*
X1394518Y233249D01*
X1394474Y233334D01*
X1394434Y233421D01*
X1394397Y233509D01*
X1394364Y233599D01*
X1394334Y233690D01*
X1394309Y233782D01*
X1394287Y233875D01*
X1394269Y233969D01*
X1394254Y234063D01*
X1394244Y234158D01*
X1394238Y234254D01*
X1394235Y234349D01*
X1394236Y234445D01*
X1394242Y234540D01*
X1394251Y234636D01*
X1394264Y234730D01*
X1394280Y234824D01*
X1394301Y234918D01*
X1394326Y235010D01*
X1394354Y235101D01*
X1394386Y235191D01*
X1394421Y235280D01*
X1394460Y235367D01*
X1394503Y235453D01*
X1394549Y235537D01*
X1394599Y235618D01*
X1394651Y235698D01*
X1394707Y235776D01*
X1394767Y235851D01*
X1394829Y235923D01*
X1394894Y235993D01*
X1394962Y236061D01*
X1395032Y236125D01*
X1395105Y236187D01*
X1395181Y236245D01*
X1395259Y236301D01*
X1395339Y236353D01*
X1395421Y236402D01*
X1395505Y236447D01*
X1395591Y236489D01*
X1395678Y236528D01*
X1395767Y236563D01*
X1395858Y236594D01*
X1395949Y236621D01*
X1396042Y236645D01*
X1396135Y236665D01*
X1396229Y236681D01*
X1396324Y236693D01*
X1396419Y236702D01*
X1396515Y236706D01*
X1396610Y236707D01*
X1396857Y236700D01*
X1397103Y236688D01*
X1397349Y236670D01*
X1397595Y236645D01*
X1397839Y236615D01*
X1398083Y236579D01*
X1398326Y236538D01*
X1398568Y236490D01*
X1398809Y236436D01*
X1399048Y236377D01*
X1399286Y236312D01*
X1399522Y236241D01*
X1399757Y236165D01*
X1399990Y236083D01*
X1400220Y235995D01*
X1400448Y235902D01*
X1400675Y235804D01*
X1400223Y230385D02*
X1400311Y230348D01*
X1400397Y230307D01*
X1400482Y230263D01*
X1400565Y230215D01*
X1400645Y230164D01*
X1400724Y230110D01*
X1400800Y230052D01*
X1400874Y229992D01*
X1400946Y229928D01*
X1401014Y229862D01*
X1401080Y229792D01*
X1401143Y229721D01*
X1401204Y229646D01*
X1401261Y229570D01*
X1401314Y229491D01*
X1401365Y229410D01*
X1401412Y229327D01*
X1401456Y229242D01*
X1401496Y229155D01*
X1401533Y229067D01*
X1401566Y228977D01*
X1401596Y228886D01*
X1401621Y228794D01*
X1401643Y228701D01*
X1401661Y228607D01*
X1401676Y228513D01*
X1401686Y228418D01*
X1401692Y228322D01*
X1401695Y228227D01*
X1401694Y228131D01*
X1401688Y228036D01*
X1401679Y227940D01*
X1401666Y227846D01*
X1401650Y227752D01*
X1401629Y227658D01*
X1401604Y227566D01*
X1401576Y227475D01*
X1401544Y227385D01*
X1401509Y227296D01*
X1401470Y227209D01*
X1401427Y227123D01*
X1401381Y227039D01*
X1401331Y226958D01*
X1401279Y226878D01*
X1401223Y226800D01*
X1401163Y226725D01*
X1401101Y226653D01*
X1401036Y226583D01*
X1400968Y226515D01*
X1400898Y226451D01*
X1400825Y226389D01*
X1400749Y226331D01*
X1400671Y226275D01*
X1400591Y226223D01*
X1400509Y226174D01*
X1400425Y226129D01*
X1400339Y226087D01*
X1400252Y226048D01*
X1400163Y226013D01*
X1400072Y225982D01*
X1399981Y225955D01*
X1399888Y225931D01*
X1399795Y225911D01*
X1399701Y225895D01*
X1399606Y225883D01*
X1399511Y225874D01*
X1399415Y225870D01*
X1399320Y225869D01*
X1399320Y225870D02*
X1398958Y225879D01*
X1398596Y225897D01*
X1398235Y225924D01*
X1397875Y225959D01*
X1397515Y226002D01*
X1397156Y226054D01*
X1396799Y226115D01*
X1396444Y226184D01*
X1396090Y226261D01*
X1395738Y226347D01*
X1395388Y226441D01*
X1395040Y226544D01*
X1394695Y226654D01*
X1394353Y226773D01*
X1408421Y225870D02*
X1408421Y242126D01*
X1408421Y236707D02*
X1412936Y236707D01*
X1412936Y236706D02*
X1413040Y236704D01*
X1413143Y236698D01*
X1413247Y236688D01*
X1413350Y236674D01*
X1413452Y236656D01*
X1413553Y236635D01*
X1413654Y236609D01*
X1413753Y236580D01*
X1413852Y236547D01*
X1413949Y236510D01*
X1414044Y236469D01*
X1414138Y236425D01*
X1414230Y236377D01*
X1414320Y236326D01*
X1414409Y236271D01*
X1414495Y236213D01*
X1414578Y236151D01*
X1414660Y236087D01*
X1414738Y236019D01*
X1414814Y235949D01*
X1414888Y235876D01*
X1414958Y235799D01*
X1415026Y235721D01*
X1415090Y235639D01*
X1415152Y235556D01*
X1415210Y235470D01*
X1415265Y235381D01*
X1415316Y235291D01*
X1415364Y235199D01*
X1415408Y235105D01*
X1415449Y235010D01*
X1415486Y234913D01*
X1415519Y234814D01*
X1415548Y234715D01*
X1415574Y234614D01*
X1415595Y234513D01*
X1415613Y234411D01*
X1415627Y234308D01*
X1415637Y234204D01*
X1415643Y234101D01*
X1415645Y233997D01*
X1415646Y233998D02*
X1415646Y225870D01*
X1423010Y228579D02*
X1423010Y236707D01*
X1423010Y228579D02*
X1423012Y228478D01*
X1423018Y228377D01*
X1423027Y228276D01*
X1423040Y228175D01*
X1423057Y228075D01*
X1423078Y227976D01*
X1423102Y227878D01*
X1423130Y227781D01*
X1423162Y227684D01*
X1423197Y227589D01*
X1423236Y227496D01*
X1423278Y227404D01*
X1423324Y227313D01*
X1423373Y227225D01*
X1423425Y227138D01*
X1423481Y227053D01*
X1423539Y226970D01*
X1423601Y226890D01*
X1423666Y226812D01*
X1423733Y226736D01*
X1423803Y226663D01*
X1423876Y226593D01*
X1423952Y226526D01*
X1424030Y226461D01*
X1424110Y226399D01*
X1424193Y226341D01*
X1424278Y226285D01*
X1424365Y226233D01*
X1424453Y226184D01*
X1424544Y226138D01*
X1424636Y226096D01*
X1424729Y226057D01*
X1424824Y226022D01*
X1424921Y225990D01*
X1425018Y225962D01*
X1425116Y225938D01*
X1425215Y225917D01*
X1425315Y225900D01*
X1425416Y225887D01*
X1425517Y225878D01*
X1425618Y225872D01*
X1425719Y225870D01*
X1430235Y225870D01*
X1430235Y236707D01*
X1440166Y232191D02*
X1444230Y232191D01*
X1440166Y232191D02*
X1440054Y232189D01*
X1439943Y232183D01*
X1439832Y232173D01*
X1439721Y232160D01*
X1439611Y232142D01*
X1439502Y232120D01*
X1439393Y232095D01*
X1439285Y232066D01*
X1439179Y232033D01*
X1439073Y231996D01*
X1438969Y231956D01*
X1438867Y231912D01*
X1438766Y231864D01*
X1438667Y231813D01*
X1438569Y231758D01*
X1438474Y231700D01*
X1438381Y231639D01*
X1438290Y231574D01*
X1438201Y231506D01*
X1438115Y231435D01*
X1438032Y231362D01*
X1437951Y231285D01*
X1437872Y231205D01*
X1437797Y231123D01*
X1437725Y231038D01*
X1437655Y230951D01*
X1437589Y230861D01*
X1437526Y230769D01*
X1437466Y230674D01*
X1437410Y230578D01*
X1437357Y230480D01*
X1437308Y230380D01*
X1437262Y230278D01*
X1437220Y230175D01*
X1437181Y230070D01*
X1437146Y229964D01*
X1437115Y229857D01*
X1437088Y229749D01*
X1437064Y229640D01*
X1437045Y229530D01*
X1437029Y229420D01*
X1437017Y229309D01*
X1437009Y229197D01*
X1437005Y229086D01*
X1437005Y228974D01*
X1437009Y228863D01*
X1437017Y228751D01*
X1437029Y228640D01*
X1437045Y228530D01*
X1437064Y228420D01*
X1437088Y228311D01*
X1437115Y228203D01*
X1437146Y228096D01*
X1437181Y227990D01*
X1437220Y227885D01*
X1437262Y227782D01*
X1437308Y227680D01*
X1437357Y227580D01*
X1437410Y227482D01*
X1437466Y227386D01*
X1437526Y227291D01*
X1437589Y227199D01*
X1437655Y227109D01*
X1437725Y227022D01*
X1437797Y226937D01*
X1437872Y226855D01*
X1437951Y226775D01*
X1438032Y226698D01*
X1438115Y226625D01*
X1438201Y226554D01*
X1438290Y226486D01*
X1438381Y226421D01*
X1438474Y226360D01*
X1438569Y226302D01*
X1438667Y226247D01*
X1438766Y226196D01*
X1438867Y226148D01*
X1438969Y226104D01*
X1439073Y226064D01*
X1439179Y226027D01*
X1439285Y225994D01*
X1439393Y225965D01*
X1439502Y225940D01*
X1439611Y225918D01*
X1439721Y225900D01*
X1439832Y225887D01*
X1439943Y225877D01*
X1440054Y225871D01*
X1440166Y225869D01*
X1440166Y225870D02*
X1444230Y225870D01*
X1444230Y233998D01*
X1444229Y233998D02*
X1444227Y234099D01*
X1444221Y234200D01*
X1444212Y234301D01*
X1444199Y234402D01*
X1444182Y234502D01*
X1444161Y234601D01*
X1444137Y234699D01*
X1444109Y234796D01*
X1444077Y234893D01*
X1444042Y234988D01*
X1444003Y235081D01*
X1443961Y235173D01*
X1443915Y235264D01*
X1443866Y235353D01*
X1443814Y235439D01*
X1443758Y235524D01*
X1443700Y235607D01*
X1443638Y235687D01*
X1443573Y235765D01*
X1443506Y235841D01*
X1443436Y235914D01*
X1443363Y235984D01*
X1443287Y236051D01*
X1443209Y236116D01*
X1443129Y236178D01*
X1443046Y236236D01*
X1442961Y236292D01*
X1442875Y236344D01*
X1442786Y236393D01*
X1442695Y236439D01*
X1442603Y236481D01*
X1442510Y236520D01*
X1442415Y236555D01*
X1442318Y236587D01*
X1442221Y236615D01*
X1442123Y236639D01*
X1442024Y236660D01*
X1441924Y236677D01*
X1441823Y236690D01*
X1441722Y236699D01*
X1441621Y236705D01*
X1441520Y236707D01*
X1437908Y236707D01*
X1460354Y234901D02*
X1464869Y234901D01*
X1465002Y234899D01*
X1465134Y234893D01*
X1465266Y234883D01*
X1465398Y234870D01*
X1465530Y234852D01*
X1465660Y234831D01*
X1465791Y234806D01*
X1465920Y234777D01*
X1466048Y234744D01*
X1466176Y234708D01*
X1466302Y234668D01*
X1466427Y234624D01*
X1466551Y234576D01*
X1466673Y234525D01*
X1466794Y234470D01*
X1466913Y234412D01*
X1467031Y234350D01*
X1467146Y234285D01*
X1467260Y234216D01*
X1467371Y234145D01*
X1467480Y234069D01*
X1467587Y233991D01*
X1467692Y233910D01*
X1467794Y233825D01*
X1467894Y233738D01*
X1467991Y233648D01*
X1468086Y233555D01*
X1468177Y233459D01*
X1468266Y233361D01*
X1468352Y233260D01*
X1468435Y233156D01*
X1468515Y233050D01*
X1468591Y232942D01*
X1468665Y232832D01*
X1468735Y232719D01*
X1468802Y232605D01*
X1468865Y232488D01*
X1468925Y232370D01*
X1468982Y232250D01*
X1469035Y232128D01*
X1469084Y232005D01*
X1469130Y231881D01*
X1469172Y231755D01*
X1469210Y231628D01*
X1469245Y231500D01*
X1469276Y231371D01*
X1469303Y231242D01*
X1469326Y231111D01*
X1469346Y230980D01*
X1469361Y230848D01*
X1469373Y230716D01*
X1469381Y230584D01*
X1469385Y230451D01*
X1469385Y230319D01*
X1469381Y230186D01*
X1469373Y230054D01*
X1469361Y229922D01*
X1469346Y229790D01*
X1469326Y229659D01*
X1469303Y229528D01*
X1469276Y229399D01*
X1469245Y229270D01*
X1469210Y229142D01*
X1469172Y229015D01*
X1469130Y228889D01*
X1469084Y228765D01*
X1469035Y228642D01*
X1468982Y228520D01*
X1468925Y228400D01*
X1468865Y228282D01*
X1468802Y228165D01*
X1468735Y228051D01*
X1468665Y227938D01*
X1468591Y227828D01*
X1468515Y227720D01*
X1468435Y227614D01*
X1468352Y227510D01*
X1468266Y227409D01*
X1468177Y227311D01*
X1468086Y227215D01*
X1467991Y227122D01*
X1467894Y227032D01*
X1467794Y226945D01*
X1467692Y226860D01*
X1467587Y226779D01*
X1467480Y226701D01*
X1467371Y226625D01*
X1467260Y226554D01*
X1467146Y226485D01*
X1467031Y226420D01*
X1466913Y226358D01*
X1466794Y226300D01*
X1466673Y226245D01*
X1466551Y226194D01*
X1466427Y226146D01*
X1466302Y226102D01*
X1466176Y226062D01*
X1466048Y226026D01*
X1465920Y225993D01*
X1465791Y225964D01*
X1465660Y225939D01*
X1465530Y225918D01*
X1465398Y225900D01*
X1465266Y225887D01*
X1465134Y225877D01*
X1465002Y225871D01*
X1464869Y225869D01*
X1464869Y225870D02*
X1460354Y225870D01*
X1460354Y242126D01*
X1464869Y242126D01*
X1464869Y242125D02*
X1464988Y242123D01*
X1465108Y242117D01*
X1465227Y242107D01*
X1465345Y242093D01*
X1465464Y242076D01*
X1465581Y242054D01*
X1465698Y242029D01*
X1465813Y241999D01*
X1465928Y241966D01*
X1466042Y241929D01*
X1466154Y241889D01*
X1466265Y241844D01*
X1466374Y241796D01*
X1466482Y241745D01*
X1466588Y241690D01*
X1466692Y241631D01*
X1466794Y241569D01*
X1466894Y241504D01*
X1466992Y241435D01*
X1467088Y241363D01*
X1467181Y241288D01*
X1467271Y241211D01*
X1467359Y241130D01*
X1467444Y241046D01*
X1467526Y240959D01*
X1467606Y240870D01*
X1467682Y240778D01*
X1467756Y240684D01*
X1467826Y240587D01*
X1467893Y240489D01*
X1467957Y240388D01*
X1468017Y240284D01*
X1468074Y240179D01*
X1468127Y240072D01*
X1468177Y239964D01*
X1468223Y239854D01*
X1468265Y239742D01*
X1468304Y239629D01*
X1468339Y239515D01*
X1468370Y239400D01*
X1468398Y239283D01*
X1468421Y239166D01*
X1468441Y239049D01*
X1468457Y238930D01*
X1468469Y238811D01*
X1468477Y238692D01*
X1468481Y238573D01*
X1468481Y238453D01*
X1468477Y238334D01*
X1468469Y238215D01*
X1468457Y238096D01*
X1468441Y237977D01*
X1468421Y237860D01*
X1468398Y237743D01*
X1468370Y237626D01*
X1468339Y237511D01*
X1468304Y237397D01*
X1468265Y237284D01*
X1468223Y237172D01*
X1468177Y237062D01*
X1468127Y236954D01*
X1468074Y236847D01*
X1468017Y236742D01*
X1467957Y236638D01*
X1467893Y236537D01*
X1467826Y236439D01*
X1467756Y236342D01*
X1467682Y236248D01*
X1467606Y236156D01*
X1467526Y236067D01*
X1467444Y235980D01*
X1467359Y235896D01*
X1467271Y235815D01*
X1467181Y235738D01*
X1467088Y235663D01*
X1466992Y235591D01*
X1466894Y235522D01*
X1466794Y235457D01*
X1466692Y235395D01*
X1466588Y235336D01*
X1466482Y235281D01*
X1466374Y235230D01*
X1466265Y235182D01*
X1466154Y235137D01*
X1466042Y235097D01*
X1465928Y235060D01*
X1465813Y235027D01*
X1465698Y234997D01*
X1465581Y234972D01*
X1465464Y234950D01*
X1465345Y234933D01*
X1465227Y234919D01*
X1465108Y234909D01*
X1464988Y234903D01*
X1464869Y234901D01*
X1475720Y236707D02*
X1475720Y225870D01*
X1475720Y236707D02*
X1481139Y236707D01*
X1481139Y234901D01*
X1488765Y225870D02*
X1493281Y225870D01*
X1488765Y225870D02*
X1488664Y225872D01*
X1488563Y225878D01*
X1488462Y225887D01*
X1488361Y225900D01*
X1488261Y225917D01*
X1488162Y225938D01*
X1488064Y225962D01*
X1487967Y225990D01*
X1487870Y226022D01*
X1487775Y226057D01*
X1487682Y226096D01*
X1487590Y226138D01*
X1487499Y226184D01*
X1487411Y226233D01*
X1487324Y226285D01*
X1487239Y226341D01*
X1487156Y226399D01*
X1487076Y226461D01*
X1486998Y226526D01*
X1486922Y226593D01*
X1486849Y226663D01*
X1486779Y226736D01*
X1486712Y226812D01*
X1486647Y226890D01*
X1486585Y226970D01*
X1486527Y227053D01*
X1486471Y227138D01*
X1486419Y227225D01*
X1486370Y227313D01*
X1486324Y227404D01*
X1486282Y227496D01*
X1486243Y227589D01*
X1486208Y227684D01*
X1486176Y227781D01*
X1486148Y227878D01*
X1486124Y227976D01*
X1486103Y228075D01*
X1486086Y228175D01*
X1486073Y228276D01*
X1486064Y228377D01*
X1486058Y228478D01*
X1486056Y228579D01*
X1486056Y233094D01*
X1486058Y233213D01*
X1486064Y233333D01*
X1486074Y233452D01*
X1486088Y233570D01*
X1486105Y233689D01*
X1486127Y233806D01*
X1486152Y233923D01*
X1486182Y234038D01*
X1486215Y234153D01*
X1486252Y234267D01*
X1486292Y234379D01*
X1486337Y234490D01*
X1486385Y234599D01*
X1486436Y234707D01*
X1486491Y234813D01*
X1486550Y234917D01*
X1486612Y235019D01*
X1486677Y235119D01*
X1486746Y235217D01*
X1486818Y235313D01*
X1486893Y235406D01*
X1486970Y235496D01*
X1487051Y235584D01*
X1487135Y235669D01*
X1487222Y235751D01*
X1487311Y235831D01*
X1487403Y235907D01*
X1487497Y235981D01*
X1487594Y236051D01*
X1487692Y236118D01*
X1487793Y236182D01*
X1487897Y236242D01*
X1488002Y236299D01*
X1488109Y236352D01*
X1488217Y236402D01*
X1488327Y236448D01*
X1488439Y236490D01*
X1488552Y236529D01*
X1488666Y236564D01*
X1488781Y236595D01*
X1488898Y236623D01*
X1489015Y236646D01*
X1489132Y236666D01*
X1489251Y236682D01*
X1489370Y236694D01*
X1489489Y236702D01*
X1489608Y236706D01*
X1489728Y236706D01*
X1489847Y236702D01*
X1489966Y236694D01*
X1490085Y236682D01*
X1490204Y236666D01*
X1490321Y236646D01*
X1490438Y236623D01*
X1490555Y236595D01*
X1490670Y236564D01*
X1490784Y236529D01*
X1490897Y236490D01*
X1491009Y236448D01*
X1491119Y236402D01*
X1491227Y236352D01*
X1491334Y236299D01*
X1491439Y236242D01*
X1491543Y236182D01*
X1491644Y236118D01*
X1491742Y236051D01*
X1491839Y235981D01*
X1491933Y235907D01*
X1492025Y235831D01*
X1492114Y235751D01*
X1492201Y235669D01*
X1492285Y235584D01*
X1492366Y235496D01*
X1492443Y235406D01*
X1492518Y235313D01*
X1492590Y235217D01*
X1492659Y235119D01*
X1492724Y235019D01*
X1492786Y234917D01*
X1492845Y234813D01*
X1492900Y234707D01*
X1492951Y234599D01*
X1492999Y234490D01*
X1493044Y234379D01*
X1493084Y234267D01*
X1493121Y234153D01*
X1493154Y234038D01*
X1493184Y233923D01*
X1493209Y233806D01*
X1493231Y233689D01*
X1493248Y233570D01*
X1493262Y233452D01*
X1493272Y233333D01*
X1493278Y233213D01*
X1493280Y233094D01*
X1493281Y233094D02*
X1493281Y231288D01*
X1486056Y231288D01*
X1499360Y236707D02*
X1502069Y225870D01*
X1504778Y233094D01*
X1507488Y225870D01*
X1510197Y236707D01*
X1517631Y232191D02*
X1522146Y230385D01*
X1517631Y232191D02*
X1517543Y232228D01*
X1517457Y232269D01*
X1517372Y232313D01*
X1517289Y232361D01*
X1517209Y232412D01*
X1517130Y232466D01*
X1517054Y232524D01*
X1516980Y232584D01*
X1516908Y232648D01*
X1516840Y232714D01*
X1516774Y232784D01*
X1516711Y232855D01*
X1516650Y232930D01*
X1516593Y233006D01*
X1516540Y233085D01*
X1516489Y233166D01*
X1516442Y233249D01*
X1516398Y233334D01*
X1516358Y233421D01*
X1516321Y233509D01*
X1516288Y233599D01*
X1516258Y233690D01*
X1516233Y233782D01*
X1516211Y233875D01*
X1516193Y233969D01*
X1516178Y234063D01*
X1516168Y234158D01*
X1516162Y234254D01*
X1516159Y234349D01*
X1516160Y234445D01*
X1516166Y234540D01*
X1516175Y234636D01*
X1516188Y234730D01*
X1516204Y234824D01*
X1516225Y234918D01*
X1516250Y235010D01*
X1516278Y235101D01*
X1516310Y235191D01*
X1516345Y235280D01*
X1516384Y235367D01*
X1516427Y235453D01*
X1516473Y235537D01*
X1516523Y235618D01*
X1516575Y235698D01*
X1516631Y235776D01*
X1516691Y235851D01*
X1516753Y235923D01*
X1516818Y235993D01*
X1516886Y236061D01*
X1516956Y236125D01*
X1517029Y236187D01*
X1517105Y236245D01*
X1517183Y236301D01*
X1517263Y236353D01*
X1517345Y236402D01*
X1517429Y236447D01*
X1517515Y236489D01*
X1517602Y236528D01*
X1517691Y236563D01*
X1517782Y236594D01*
X1517873Y236621D01*
X1517966Y236645D01*
X1518059Y236665D01*
X1518153Y236681D01*
X1518248Y236693D01*
X1518343Y236702D01*
X1518439Y236706D01*
X1518534Y236707D01*
X1518781Y236700D01*
X1519027Y236688D01*
X1519273Y236670D01*
X1519519Y236645D01*
X1519763Y236615D01*
X1520007Y236579D01*
X1520250Y236538D01*
X1520492Y236490D01*
X1520733Y236436D01*
X1520972Y236377D01*
X1521210Y236312D01*
X1521446Y236241D01*
X1521681Y236165D01*
X1521914Y236083D01*
X1522144Y235995D01*
X1522372Y235902D01*
X1522599Y235804D01*
X1522147Y230385D02*
X1522235Y230348D01*
X1522321Y230307D01*
X1522406Y230263D01*
X1522489Y230215D01*
X1522569Y230164D01*
X1522648Y230110D01*
X1522724Y230052D01*
X1522798Y229992D01*
X1522870Y229928D01*
X1522938Y229862D01*
X1523004Y229792D01*
X1523067Y229721D01*
X1523128Y229646D01*
X1523185Y229570D01*
X1523238Y229491D01*
X1523289Y229410D01*
X1523336Y229327D01*
X1523380Y229242D01*
X1523420Y229155D01*
X1523457Y229067D01*
X1523490Y228977D01*
X1523520Y228886D01*
X1523545Y228794D01*
X1523567Y228701D01*
X1523585Y228607D01*
X1523600Y228513D01*
X1523610Y228418D01*
X1523616Y228322D01*
X1523619Y228227D01*
X1523618Y228131D01*
X1523612Y228036D01*
X1523603Y227940D01*
X1523590Y227846D01*
X1523574Y227752D01*
X1523553Y227658D01*
X1523528Y227566D01*
X1523500Y227475D01*
X1523468Y227385D01*
X1523433Y227296D01*
X1523394Y227209D01*
X1523351Y227123D01*
X1523305Y227039D01*
X1523255Y226958D01*
X1523203Y226878D01*
X1523147Y226800D01*
X1523087Y226725D01*
X1523025Y226653D01*
X1522960Y226583D01*
X1522892Y226515D01*
X1522822Y226451D01*
X1522749Y226389D01*
X1522673Y226331D01*
X1522595Y226275D01*
X1522515Y226223D01*
X1522433Y226174D01*
X1522349Y226129D01*
X1522263Y226087D01*
X1522176Y226048D01*
X1522087Y226013D01*
X1521996Y225982D01*
X1521905Y225955D01*
X1521812Y225931D01*
X1521719Y225911D01*
X1521625Y225895D01*
X1521530Y225883D01*
X1521435Y225874D01*
X1521339Y225870D01*
X1521244Y225869D01*
X1521243Y225870D02*
X1520881Y225879D01*
X1520519Y225897D01*
X1520158Y225924D01*
X1519798Y225959D01*
X1519438Y226002D01*
X1519079Y226054D01*
X1518722Y226115D01*
X1518367Y226184D01*
X1518013Y226261D01*
X1517661Y226347D01*
X1517311Y226441D01*
X1516963Y226544D01*
X1516618Y226654D01*
X1516276Y226773D01*
X1528526Y236707D02*
X1533945Y236707D01*
X1530332Y242126D02*
X1530332Y228579D01*
X1530333Y228579D02*
X1530335Y228478D01*
X1530341Y228377D01*
X1530350Y228276D01*
X1530363Y228175D01*
X1530380Y228075D01*
X1530401Y227976D01*
X1530425Y227878D01*
X1530453Y227781D01*
X1530485Y227684D01*
X1530520Y227589D01*
X1530559Y227496D01*
X1530601Y227404D01*
X1530647Y227313D01*
X1530696Y227225D01*
X1530748Y227138D01*
X1530804Y227053D01*
X1530862Y226970D01*
X1530924Y226890D01*
X1530989Y226812D01*
X1531056Y226736D01*
X1531126Y226663D01*
X1531199Y226593D01*
X1531275Y226526D01*
X1531353Y226461D01*
X1531433Y226399D01*
X1531516Y226341D01*
X1531601Y226285D01*
X1531688Y226233D01*
X1531776Y226184D01*
X1531867Y226138D01*
X1531959Y226096D01*
X1532052Y226057D01*
X1532147Y226022D01*
X1532244Y225990D01*
X1532341Y225962D01*
X1532439Y225938D01*
X1532538Y225917D01*
X1532638Y225900D01*
X1532739Y225887D01*
X1532840Y225878D01*
X1532941Y225872D01*
X1533042Y225870D01*
X1533945Y225870D01*
X1542432Y225870D02*
X1546948Y225870D01*
X1542432Y225870D02*
X1542331Y225872D01*
X1542230Y225878D01*
X1542129Y225887D01*
X1542028Y225900D01*
X1541928Y225917D01*
X1541829Y225938D01*
X1541731Y225962D01*
X1541634Y225990D01*
X1541537Y226022D01*
X1541442Y226057D01*
X1541349Y226096D01*
X1541257Y226138D01*
X1541166Y226184D01*
X1541078Y226233D01*
X1540991Y226285D01*
X1540906Y226341D01*
X1540823Y226399D01*
X1540743Y226461D01*
X1540665Y226526D01*
X1540589Y226593D01*
X1540516Y226663D01*
X1540446Y226736D01*
X1540379Y226812D01*
X1540314Y226890D01*
X1540252Y226970D01*
X1540194Y227053D01*
X1540138Y227138D01*
X1540086Y227225D01*
X1540037Y227313D01*
X1539991Y227404D01*
X1539949Y227496D01*
X1539910Y227589D01*
X1539875Y227684D01*
X1539843Y227781D01*
X1539815Y227878D01*
X1539791Y227976D01*
X1539770Y228075D01*
X1539753Y228175D01*
X1539740Y228276D01*
X1539731Y228377D01*
X1539725Y228478D01*
X1539723Y228579D01*
X1539723Y233094D01*
X1539725Y233213D01*
X1539731Y233333D01*
X1539741Y233452D01*
X1539755Y233570D01*
X1539772Y233689D01*
X1539794Y233806D01*
X1539819Y233923D01*
X1539849Y234038D01*
X1539882Y234153D01*
X1539919Y234267D01*
X1539959Y234379D01*
X1540004Y234490D01*
X1540052Y234599D01*
X1540103Y234707D01*
X1540158Y234813D01*
X1540217Y234917D01*
X1540279Y235019D01*
X1540344Y235119D01*
X1540413Y235217D01*
X1540485Y235313D01*
X1540560Y235406D01*
X1540637Y235496D01*
X1540718Y235584D01*
X1540802Y235669D01*
X1540889Y235751D01*
X1540978Y235831D01*
X1541070Y235907D01*
X1541164Y235981D01*
X1541261Y236051D01*
X1541359Y236118D01*
X1541460Y236182D01*
X1541564Y236242D01*
X1541669Y236299D01*
X1541776Y236352D01*
X1541884Y236402D01*
X1541994Y236448D01*
X1542106Y236490D01*
X1542219Y236529D01*
X1542333Y236564D01*
X1542448Y236595D01*
X1542565Y236623D01*
X1542682Y236646D01*
X1542799Y236666D01*
X1542918Y236682D01*
X1543037Y236694D01*
X1543156Y236702D01*
X1543275Y236706D01*
X1543395Y236706D01*
X1543514Y236702D01*
X1543633Y236694D01*
X1543752Y236682D01*
X1543871Y236666D01*
X1543988Y236646D01*
X1544105Y236623D01*
X1544222Y236595D01*
X1544337Y236564D01*
X1544451Y236529D01*
X1544564Y236490D01*
X1544676Y236448D01*
X1544786Y236402D01*
X1544894Y236352D01*
X1545001Y236299D01*
X1545106Y236242D01*
X1545210Y236182D01*
X1545311Y236118D01*
X1545409Y236051D01*
X1545506Y235981D01*
X1545600Y235907D01*
X1545692Y235831D01*
X1545781Y235751D01*
X1545868Y235669D01*
X1545952Y235584D01*
X1546033Y235496D01*
X1546110Y235406D01*
X1546185Y235313D01*
X1546257Y235217D01*
X1546326Y235119D01*
X1546391Y235019D01*
X1546453Y234917D01*
X1546512Y234813D01*
X1546567Y234707D01*
X1546618Y234599D01*
X1546666Y234490D01*
X1546711Y234379D01*
X1546751Y234267D01*
X1546788Y234153D01*
X1546821Y234038D01*
X1546851Y233923D01*
X1546876Y233806D01*
X1546898Y233689D01*
X1546915Y233570D01*
X1546929Y233452D01*
X1546939Y233333D01*
X1546945Y233213D01*
X1546947Y233094D01*
X1546948Y233094D02*
X1546948Y231288D01*
X1539723Y231288D01*
X1553876Y225870D02*
X1553876Y236707D01*
X1559295Y236707D01*
X1559295Y234901D01*
X1572828Y233998D02*
X1572832Y234370D01*
X1572846Y234742D01*
X1572868Y235113D01*
X1572900Y235484D01*
X1572940Y235854D01*
X1572989Y236222D01*
X1573047Y236590D01*
X1573113Y236956D01*
X1573189Y237320D01*
X1573273Y237682D01*
X1573366Y238042D01*
X1573468Y238400D01*
X1573578Y238756D01*
X1573697Y239108D01*
X1573824Y239458D01*
X1573959Y239804D01*
X1574103Y240147D01*
X1574255Y240487D01*
X1574415Y240823D01*
X1574583Y241154D01*
X1574759Y241482D01*
X1574943Y241806D01*
X1575135Y242124D01*
X1575334Y242438D01*
X1575541Y242748D01*
X1575755Y243052D01*
X1575976Y243351D01*
X1576205Y243644D01*
X1576441Y243932D01*
X1572828Y233998D02*
X1572832Y233626D01*
X1572846Y233254D01*
X1572868Y232883D01*
X1572900Y232512D01*
X1572940Y232142D01*
X1572989Y231774D01*
X1573047Y231406D01*
X1573113Y231040D01*
X1573189Y230676D01*
X1573273Y230314D01*
X1573366Y229954D01*
X1573468Y229596D01*
X1573578Y229240D01*
X1573697Y228888D01*
X1573824Y228538D01*
X1573959Y228192D01*
X1574103Y227849D01*
X1574255Y227509D01*
X1574415Y227173D01*
X1574583Y226842D01*
X1574759Y226514D01*
X1574943Y226191D01*
X1575135Y225872D01*
X1575334Y225558D01*
X1575541Y225248D01*
X1575755Y224944D01*
X1575976Y224645D01*
X1576205Y224352D01*
X1576440Y224064D01*
X1583247Y225870D02*
X1583247Y242126D01*
X1588666Y233094D01*
X1594085Y242126D01*
X1594085Y225870D01*
X1602734Y225870D02*
X1602734Y242126D01*
X1600928Y225870D02*
X1604540Y225870D01*
X1604540Y242126D02*
X1600928Y242126D01*
X1614197Y242126D02*
X1614197Y225870D01*
X1609681Y242126D02*
X1618713Y242126D01*
X1633158Y242126D02*
X1633158Y225870D01*
X1640383Y225870D01*
X1645980Y225870D02*
X1645980Y236707D01*
X1645529Y241222D02*
X1645529Y242126D01*
X1646432Y242126D01*
X1646432Y241222D01*
X1645529Y241222D01*
X1654995Y225870D02*
X1658607Y225870D01*
X1654995Y225870D02*
X1654894Y225872D01*
X1654793Y225878D01*
X1654692Y225887D01*
X1654591Y225900D01*
X1654491Y225917D01*
X1654392Y225938D01*
X1654294Y225962D01*
X1654197Y225990D01*
X1654100Y226022D01*
X1654005Y226057D01*
X1653912Y226096D01*
X1653820Y226138D01*
X1653729Y226184D01*
X1653641Y226233D01*
X1653554Y226285D01*
X1653469Y226341D01*
X1653386Y226399D01*
X1653306Y226461D01*
X1653228Y226526D01*
X1653152Y226593D01*
X1653079Y226663D01*
X1653009Y226736D01*
X1652942Y226812D01*
X1652877Y226890D01*
X1652815Y226970D01*
X1652757Y227053D01*
X1652701Y227138D01*
X1652649Y227225D01*
X1652600Y227313D01*
X1652554Y227404D01*
X1652512Y227496D01*
X1652473Y227589D01*
X1652438Y227684D01*
X1652406Y227781D01*
X1652378Y227878D01*
X1652354Y227976D01*
X1652333Y228075D01*
X1652316Y228175D01*
X1652303Y228276D01*
X1652294Y228377D01*
X1652288Y228478D01*
X1652286Y228579D01*
X1652285Y228579D02*
X1652285Y233998D01*
X1652286Y233998D02*
X1652288Y234099D01*
X1652294Y234200D01*
X1652303Y234301D01*
X1652316Y234402D01*
X1652333Y234502D01*
X1652354Y234601D01*
X1652378Y234699D01*
X1652406Y234796D01*
X1652438Y234893D01*
X1652473Y234988D01*
X1652512Y235081D01*
X1652554Y235173D01*
X1652600Y235264D01*
X1652649Y235353D01*
X1652701Y235439D01*
X1652757Y235524D01*
X1652815Y235607D01*
X1652877Y235687D01*
X1652942Y235765D01*
X1653009Y235841D01*
X1653079Y235914D01*
X1653152Y235984D01*
X1653228Y236051D01*
X1653306Y236116D01*
X1653386Y236178D01*
X1653469Y236236D01*
X1653554Y236292D01*
X1653641Y236344D01*
X1653729Y236393D01*
X1653820Y236439D01*
X1653912Y236481D01*
X1654005Y236520D01*
X1654100Y236555D01*
X1654197Y236587D01*
X1654294Y236615D01*
X1654392Y236639D01*
X1654491Y236660D01*
X1654591Y236677D01*
X1654692Y236690D01*
X1654793Y236699D01*
X1654894Y236705D01*
X1654995Y236707D01*
X1658607Y236707D01*
X1666961Y225870D02*
X1671477Y225870D01*
X1666961Y225870D02*
X1666860Y225872D01*
X1666759Y225878D01*
X1666658Y225887D01*
X1666557Y225900D01*
X1666457Y225917D01*
X1666358Y225938D01*
X1666260Y225962D01*
X1666163Y225990D01*
X1666066Y226022D01*
X1665971Y226057D01*
X1665878Y226096D01*
X1665786Y226138D01*
X1665695Y226184D01*
X1665607Y226233D01*
X1665520Y226285D01*
X1665435Y226341D01*
X1665352Y226399D01*
X1665272Y226461D01*
X1665194Y226526D01*
X1665118Y226593D01*
X1665045Y226663D01*
X1664975Y226736D01*
X1664908Y226812D01*
X1664843Y226890D01*
X1664781Y226970D01*
X1664723Y227053D01*
X1664667Y227138D01*
X1664615Y227225D01*
X1664566Y227313D01*
X1664520Y227404D01*
X1664478Y227496D01*
X1664439Y227589D01*
X1664404Y227684D01*
X1664372Y227781D01*
X1664344Y227878D01*
X1664320Y227976D01*
X1664299Y228075D01*
X1664282Y228175D01*
X1664269Y228276D01*
X1664260Y228377D01*
X1664254Y228478D01*
X1664252Y228579D01*
X1664252Y233094D01*
X1664254Y233213D01*
X1664260Y233333D01*
X1664270Y233452D01*
X1664284Y233570D01*
X1664301Y233689D01*
X1664323Y233806D01*
X1664348Y233923D01*
X1664378Y234038D01*
X1664411Y234153D01*
X1664448Y234267D01*
X1664488Y234379D01*
X1664533Y234490D01*
X1664581Y234599D01*
X1664632Y234707D01*
X1664687Y234813D01*
X1664746Y234917D01*
X1664808Y235019D01*
X1664873Y235119D01*
X1664942Y235217D01*
X1665014Y235313D01*
X1665089Y235406D01*
X1665166Y235496D01*
X1665247Y235584D01*
X1665331Y235669D01*
X1665418Y235751D01*
X1665507Y235831D01*
X1665599Y235907D01*
X1665693Y235981D01*
X1665790Y236051D01*
X1665888Y236118D01*
X1665989Y236182D01*
X1666093Y236242D01*
X1666198Y236299D01*
X1666305Y236352D01*
X1666413Y236402D01*
X1666523Y236448D01*
X1666635Y236490D01*
X1666748Y236529D01*
X1666862Y236564D01*
X1666977Y236595D01*
X1667094Y236623D01*
X1667211Y236646D01*
X1667328Y236666D01*
X1667447Y236682D01*
X1667566Y236694D01*
X1667685Y236702D01*
X1667804Y236706D01*
X1667924Y236706D01*
X1668043Y236702D01*
X1668162Y236694D01*
X1668281Y236682D01*
X1668400Y236666D01*
X1668517Y236646D01*
X1668634Y236623D01*
X1668751Y236595D01*
X1668866Y236564D01*
X1668980Y236529D01*
X1669093Y236490D01*
X1669205Y236448D01*
X1669315Y236402D01*
X1669423Y236352D01*
X1669530Y236299D01*
X1669635Y236242D01*
X1669739Y236182D01*
X1669840Y236118D01*
X1669938Y236051D01*
X1670035Y235981D01*
X1670129Y235907D01*
X1670221Y235831D01*
X1670310Y235751D01*
X1670397Y235669D01*
X1670481Y235584D01*
X1670562Y235496D01*
X1670639Y235406D01*
X1670714Y235313D01*
X1670786Y235217D01*
X1670855Y235119D01*
X1670920Y235019D01*
X1670982Y234917D01*
X1671041Y234813D01*
X1671096Y234707D01*
X1671147Y234599D01*
X1671195Y234490D01*
X1671240Y234379D01*
X1671280Y234267D01*
X1671317Y234153D01*
X1671350Y234038D01*
X1671380Y233923D01*
X1671405Y233806D01*
X1671427Y233689D01*
X1671444Y233570D01*
X1671458Y233452D01*
X1671468Y233333D01*
X1671474Y233213D01*
X1671476Y233094D01*
X1671477Y233094D02*
X1671477Y231288D01*
X1664252Y231288D01*
X1678320Y225870D02*
X1678320Y236707D01*
X1682835Y236707D01*
X1682835Y236706D02*
X1682939Y236704D01*
X1683042Y236698D01*
X1683146Y236688D01*
X1683249Y236674D01*
X1683351Y236656D01*
X1683452Y236635D01*
X1683553Y236609D01*
X1683652Y236580D01*
X1683751Y236547D01*
X1683848Y236510D01*
X1683943Y236469D01*
X1684037Y236425D01*
X1684129Y236377D01*
X1684219Y236326D01*
X1684308Y236271D01*
X1684394Y236213D01*
X1684477Y236151D01*
X1684559Y236087D01*
X1684637Y236019D01*
X1684713Y235949D01*
X1684787Y235876D01*
X1684857Y235799D01*
X1684925Y235721D01*
X1684989Y235639D01*
X1685051Y235556D01*
X1685109Y235470D01*
X1685164Y235381D01*
X1685215Y235291D01*
X1685263Y235199D01*
X1685307Y235105D01*
X1685348Y235010D01*
X1685385Y234913D01*
X1685418Y234814D01*
X1685447Y234715D01*
X1685473Y234614D01*
X1685494Y234513D01*
X1685512Y234411D01*
X1685526Y234308D01*
X1685536Y234204D01*
X1685542Y234101D01*
X1685544Y233997D01*
X1685545Y233998D02*
X1685545Y225870D01*
X1693743Y232191D02*
X1698258Y230385D01*
X1693742Y232191D02*
X1693654Y232228D01*
X1693568Y232269D01*
X1693483Y232313D01*
X1693400Y232361D01*
X1693320Y232412D01*
X1693241Y232466D01*
X1693165Y232524D01*
X1693091Y232584D01*
X1693019Y232648D01*
X1692951Y232714D01*
X1692885Y232784D01*
X1692822Y232855D01*
X1692761Y232930D01*
X1692704Y233006D01*
X1692651Y233085D01*
X1692600Y233166D01*
X1692553Y233249D01*
X1692509Y233334D01*
X1692469Y233421D01*
X1692432Y233509D01*
X1692399Y233599D01*
X1692369Y233690D01*
X1692344Y233782D01*
X1692322Y233875D01*
X1692304Y233969D01*
X1692289Y234063D01*
X1692279Y234158D01*
X1692273Y234254D01*
X1692270Y234349D01*
X1692271Y234445D01*
X1692277Y234540D01*
X1692286Y234636D01*
X1692299Y234730D01*
X1692315Y234824D01*
X1692336Y234918D01*
X1692361Y235010D01*
X1692389Y235101D01*
X1692421Y235191D01*
X1692456Y235280D01*
X1692495Y235367D01*
X1692538Y235453D01*
X1692584Y235537D01*
X1692634Y235618D01*
X1692686Y235698D01*
X1692742Y235776D01*
X1692802Y235851D01*
X1692864Y235923D01*
X1692929Y235993D01*
X1692997Y236061D01*
X1693067Y236125D01*
X1693140Y236187D01*
X1693216Y236245D01*
X1693294Y236301D01*
X1693374Y236353D01*
X1693456Y236402D01*
X1693540Y236447D01*
X1693626Y236489D01*
X1693713Y236528D01*
X1693802Y236563D01*
X1693893Y236594D01*
X1693984Y236621D01*
X1694077Y236645D01*
X1694170Y236665D01*
X1694264Y236681D01*
X1694359Y236693D01*
X1694454Y236702D01*
X1694550Y236706D01*
X1694645Y236707D01*
X1694892Y236700D01*
X1695138Y236688D01*
X1695384Y236670D01*
X1695630Y236645D01*
X1695874Y236615D01*
X1696118Y236579D01*
X1696361Y236538D01*
X1696603Y236490D01*
X1696844Y236436D01*
X1697083Y236377D01*
X1697321Y236312D01*
X1697557Y236241D01*
X1697792Y236165D01*
X1698025Y236083D01*
X1698255Y235995D01*
X1698483Y235902D01*
X1698710Y235804D01*
X1698258Y230385D02*
X1698346Y230348D01*
X1698432Y230307D01*
X1698517Y230263D01*
X1698600Y230215D01*
X1698680Y230164D01*
X1698759Y230110D01*
X1698835Y230052D01*
X1698909Y229992D01*
X1698981Y229928D01*
X1699049Y229862D01*
X1699115Y229792D01*
X1699178Y229721D01*
X1699239Y229646D01*
X1699296Y229570D01*
X1699349Y229491D01*
X1699400Y229410D01*
X1699447Y229327D01*
X1699491Y229242D01*
X1699531Y229155D01*
X1699568Y229067D01*
X1699601Y228977D01*
X1699631Y228886D01*
X1699656Y228794D01*
X1699678Y228701D01*
X1699696Y228607D01*
X1699711Y228513D01*
X1699721Y228418D01*
X1699727Y228322D01*
X1699730Y228227D01*
X1699729Y228131D01*
X1699723Y228036D01*
X1699714Y227940D01*
X1699701Y227846D01*
X1699685Y227752D01*
X1699664Y227658D01*
X1699639Y227566D01*
X1699611Y227475D01*
X1699579Y227385D01*
X1699544Y227296D01*
X1699505Y227209D01*
X1699462Y227123D01*
X1699416Y227039D01*
X1699366Y226958D01*
X1699314Y226878D01*
X1699258Y226800D01*
X1699198Y226725D01*
X1699136Y226653D01*
X1699071Y226583D01*
X1699003Y226515D01*
X1698933Y226451D01*
X1698860Y226389D01*
X1698784Y226331D01*
X1698706Y226275D01*
X1698626Y226223D01*
X1698544Y226174D01*
X1698460Y226129D01*
X1698374Y226087D01*
X1698287Y226048D01*
X1698198Y226013D01*
X1698107Y225982D01*
X1698016Y225955D01*
X1697923Y225931D01*
X1697830Y225911D01*
X1697736Y225895D01*
X1697641Y225883D01*
X1697546Y225874D01*
X1697450Y225870D01*
X1697355Y225869D01*
X1697355Y225870D02*
X1696993Y225879D01*
X1696631Y225897D01*
X1696270Y225924D01*
X1695910Y225959D01*
X1695550Y226002D01*
X1695191Y226054D01*
X1694834Y226115D01*
X1694479Y226184D01*
X1694125Y226261D01*
X1693773Y226347D01*
X1693423Y226441D01*
X1693075Y226544D01*
X1692730Y226654D01*
X1692388Y226773D01*
X1708644Y225870D02*
X1713160Y225870D01*
X1708644Y225870D02*
X1708543Y225872D01*
X1708442Y225878D01*
X1708341Y225887D01*
X1708240Y225900D01*
X1708140Y225917D01*
X1708041Y225938D01*
X1707943Y225962D01*
X1707846Y225990D01*
X1707749Y226022D01*
X1707654Y226057D01*
X1707561Y226096D01*
X1707469Y226138D01*
X1707378Y226184D01*
X1707290Y226233D01*
X1707203Y226285D01*
X1707118Y226341D01*
X1707035Y226399D01*
X1706955Y226461D01*
X1706877Y226526D01*
X1706801Y226593D01*
X1706728Y226663D01*
X1706658Y226736D01*
X1706591Y226812D01*
X1706526Y226890D01*
X1706464Y226970D01*
X1706406Y227053D01*
X1706350Y227138D01*
X1706298Y227225D01*
X1706249Y227313D01*
X1706203Y227404D01*
X1706161Y227496D01*
X1706122Y227589D01*
X1706087Y227684D01*
X1706055Y227781D01*
X1706027Y227878D01*
X1706003Y227976D01*
X1705982Y228075D01*
X1705965Y228175D01*
X1705952Y228276D01*
X1705943Y228377D01*
X1705937Y228478D01*
X1705935Y228579D01*
X1705935Y233094D01*
X1705937Y233213D01*
X1705943Y233333D01*
X1705953Y233452D01*
X1705967Y233570D01*
X1705984Y233689D01*
X1706006Y233806D01*
X1706031Y233923D01*
X1706061Y234038D01*
X1706094Y234153D01*
X1706131Y234267D01*
X1706171Y234379D01*
X1706216Y234490D01*
X1706264Y234599D01*
X1706315Y234707D01*
X1706370Y234813D01*
X1706429Y234917D01*
X1706491Y235019D01*
X1706556Y235119D01*
X1706625Y235217D01*
X1706697Y235313D01*
X1706772Y235406D01*
X1706849Y235496D01*
X1706930Y235584D01*
X1707014Y235669D01*
X1707101Y235751D01*
X1707190Y235831D01*
X1707282Y235907D01*
X1707376Y235981D01*
X1707473Y236051D01*
X1707571Y236118D01*
X1707672Y236182D01*
X1707776Y236242D01*
X1707881Y236299D01*
X1707988Y236352D01*
X1708096Y236402D01*
X1708206Y236448D01*
X1708318Y236490D01*
X1708431Y236529D01*
X1708545Y236564D01*
X1708660Y236595D01*
X1708777Y236623D01*
X1708894Y236646D01*
X1709011Y236666D01*
X1709130Y236682D01*
X1709249Y236694D01*
X1709368Y236702D01*
X1709487Y236706D01*
X1709607Y236706D01*
X1709726Y236702D01*
X1709845Y236694D01*
X1709964Y236682D01*
X1710083Y236666D01*
X1710200Y236646D01*
X1710317Y236623D01*
X1710434Y236595D01*
X1710549Y236564D01*
X1710663Y236529D01*
X1710776Y236490D01*
X1710888Y236448D01*
X1710998Y236402D01*
X1711106Y236352D01*
X1711213Y236299D01*
X1711318Y236242D01*
X1711422Y236182D01*
X1711523Y236118D01*
X1711621Y236051D01*
X1711718Y235981D01*
X1711812Y235907D01*
X1711904Y235831D01*
X1711993Y235751D01*
X1712080Y235669D01*
X1712164Y235584D01*
X1712245Y235496D01*
X1712322Y235406D01*
X1712397Y235313D01*
X1712469Y235217D01*
X1712538Y235119D01*
X1712603Y235019D01*
X1712665Y234917D01*
X1712724Y234813D01*
X1712779Y234707D01*
X1712830Y234599D01*
X1712878Y234490D01*
X1712923Y234379D01*
X1712963Y234267D01*
X1713000Y234153D01*
X1713033Y234038D01*
X1713063Y233923D01*
X1713088Y233806D01*
X1713110Y233689D01*
X1713127Y233570D01*
X1713141Y233452D01*
X1713151Y233333D01*
X1713157Y233213D01*
X1713159Y233094D01*
X1713160Y233094D02*
X1713160Y231288D01*
X1705935Y231288D01*
X1719168Y224064D02*
X1719403Y224352D01*
X1719632Y224645D01*
X1719853Y224944D01*
X1720067Y225248D01*
X1720274Y225558D01*
X1720473Y225872D01*
X1720665Y226191D01*
X1720849Y226514D01*
X1721025Y226842D01*
X1721193Y227173D01*
X1721353Y227509D01*
X1721505Y227849D01*
X1721649Y228192D01*
X1721784Y228538D01*
X1721911Y228888D01*
X1722030Y229240D01*
X1722140Y229596D01*
X1722242Y229954D01*
X1722335Y230314D01*
X1722419Y230676D01*
X1722495Y231040D01*
X1722561Y231406D01*
X1722619Y231774D01*
X1722668Y232142D01*
X1722708Y232512D01*
X1722740Y232883D01*
X1722762Y233254D01*
X1722776Y233626D01*
X1722780Y233998D01*
X1722776Y234370D01*
X1722762Y234742D01*
X1722740Y235113D01*
X1722708Y235484D01*
X1722668Y235854D01*
X1722619Y236222D01*
X1722561Y236590D01*
X1722495Y236956D01*
X1722419Y237320D01*
X1722335Y237682D01*
X1722242Y238042D01*
X1722140Y238400D01*
X1722030Y238756D01*
X1721911Y239108D01*
X1721784Y239458D01*
X1721649Y239804D01*
X1721505Y240147D01*
X1721353Y240487D01*
X1721193Y240823D01*
X1721025Y241154D01*
X1720849Y241482D01*
X1720665Y241806D01*
X1720473Y242124D01*
X1720274Y242438D01*
X1720067Y242748D01*
X1719853Y243052D01*
X1719632Y243351D01*
X1719403Y243644D01*
X1719167Y243932D01*
X1336068Y215456D02*
X1336068Y199200D01*
X1334262Y199200D02*
X1337874Y199200D01*
X1337874Y215456D02*
X1334262Y215456D01*
X1344440Y210037D02*
X1344440Y199200D01*
X1344440Y210037D02*
X1348955Y210037D01*
X1348955Y210036D02*
X1349059Y210034D01*
X1349162Y210028D01*
X1349266Y210018D01*
X1349369Y210004D01*
X1349471Y209986D01*
X1349572Y209965D01*
X1349673Y209939D01*
X1349772Y209910D01*
X1349871Y209877D01*
X1349968Y209840D01*
X1350063Y209799D01*
X1350157Y209755D01*
X1350249Y209707D01*
X1350339Y209656D01*
X1350428Y209601D01*
X1350514Y209543D01*
X1350597Y209481D01*
X1350679Y209417D01*
X1350757Y209349D01*
X1350833Y209279D01*
X1350907Y209206D01*
X1350977Y209129D01*
X1351045Y209051D01*
X1351109Y208969D01*
X1351171Y208886D01*
X1351229Y208800D01*
X1351284Y208711D01*
X1351335Y208621D01*
X1351383Y208529D01*
X1351427Y208435D01*
X1351468Y208340D01*
X1351505Y208243D01*
X1351538Y208144D01*
X1351567Y208045D01*
X1351593Y207944D01*
X1351614Y207843D01*
X1351632Y207741D01*
X1351646Y207638D01*
X1351656Y207534D01*
X1351662Y207431D01*
X1351664Y207327D01*
X1351665Y207328D02*
X1351665Y199200D01*
X1359862Y205521D02*
X1364378Y203715D01*
X1359862Y205521D02*
X1359774Y205558D01*
X1359688Y205599D01*
X1359603Y205643D01*
X1359520Y205691D01*
X1359440Y205742D01*
X1359361Y205796D01*
X1359285Y205854D01*
X1359211Y205914D01*
X1359139Y205978D01*
X1359071Y206044D01*
X1359005Y206114D01*
X1358942Y206185D01*
X1358881Y206260D01*
X1358824Y206336D01*
X1358771Y206415D01*
X1358720Y206496D01*
X1358673Y206579D01*
X1358629Y206664D01*
X1358589Y206751D01*
X1358552Y206839D01*
X1358519Y206929D01*
X1358489Y207020D01*
X1358464Y207112D01*
X1358442Y207205D01*
X1358424Y207299D01*
X1358409Y207393D01*
X1358399Y207488D01*
X1358393Y207584D01*
X1358390Y207679D01*
X1358391Y207775D01*
X1358397Y207870D01*
X1358406Y207966D01*
X1358419Y208060D01*
X1358435Y208154D01*
X1358456Y208248D01*
X1358481Y208340D01*
X1358509Y208431D01*
X1358541Y208521D01*
X1358576Y208610D01*
X1358615Y208697D01*
X1358658Y208783D01*
X1358704Y208867D01*
X1358754Y208948D01*
X1358806Y209028D01*
X1358862Y209106D01*
X1358922Y209181D01*
X1358984Y209253D01*
X1359049Y209323D01*
X1359117Y209391D01*
X1359187Y209455D01*
X1359260Y209517D01*
X1359336Y209575D01*
X1359414Y209631D01*
X1359494Y209683D01*
X1359576Y209732D01*
X1359660Y209777D01*
X1359746Y209819D01*
X1359833Y209858D01*
X1359922Y209893D01*
X1360013Y209924D01*
X1360104Y209951D01*
X1360197Y209975D01*
X1360290Y209995D01*
X1360384Y210011D01*
X1360479Y210023D01*
X1360574Y210032D01*
X1360670Y210036D01*
X1360765Y210037D01*
X1361012Y210030D01*
X1361258Y210018D01*
X1361504Y210000D01*
X1361750Y209975D01*
X1361994Y209945D01*
X1362238Y209909D01*
X1362481Y209868D01*
X1362723Y209820D01*
X1362964Y209766D01*
X1363203Y209707D01*
X1363441Y209642D01*
X1363677Y209571D01*
X1363912Y209495D01*
X1364145Y209413D01*
X1364375Y209325D01*
X1364603Y209232D01*
X1364830Y209134D01*
X1364378Y203715D02*
X1364466Y203678D01*
X1364552Y203637D01*
X1364637Y203593D01*
X1364720Y203545D01*
X1364800Y203494D01*
X1364879Y203440D01*
X1364955Y203382D01*
X1365029Y203322D01*
X1365101Y203258D01*
X1365169Y203192D01*
X1365235Y203122D01*
X1365298Y203051D01*
X1365359Y202976D01*
X1365416Y202900D01*
X1365469Y202821D01*
X1365520Y202740D01*
X1365567Y202657D01*
X1365611Y202572D01*
X1365651Y202485D01*
X1365688Y202397D01*
X1365721Y202307D01*
X1365751Y202216D01*
X1365776Y202124D01*
X1365798Y202031D01*
X1365816Y201937D01*
X1365831Y201843D01*
X1365841Y201748D01*
X1365847Y201652D01*
X1365850Y201557D01*
X1365849Y201461D01*
X1365843Y201366D01*
X1365834Y201270D01*
X1365821Y201176D01*
X1365805Y201082D01*
X1365784Y200988D01*
X1365759Y200896D01*
X1365731Y200805D01*
X1365699Y200715D01*
X1365664Y200626D01*
X1365625Y200539D01*
X1365582Y200453D01*
X1365536Y200369D01*
X1365486Y200288D01*
X1365434Y200208D01*
X1365378Y200130D01*
X1365318Y200055D01*
X1365256Y199983D01*
X1365191Y199913D01*
X1365123Y199845D01*
X1365053Y199781D01*
X1364980Y199719D01*
X1364904Y199661D01*
X1364826Y199605D01*
X1364746Y199553D01*
X1364664Y199504D01*
X1364580Y199459D01*
X1364494Y199417D01*
X1364407Y199378D01*
X1364318Y199343D01*
X1364227Y199312D01*
X1364136Y199285D01*
X1364043Y199261D01*
X1363950Y199241D01*
X1363856Y199225D01*
X1363761Y199213D01*
X1363666Y199204D01*
X1363570Y199200D01*
X1363475Y199199D01*
X1363475Y199200D02*
X1363113Y199209D01*
X1362751Y199227D01*
X1362390Y199254D01*
X1362030Y199289D01*
X1361670Y199332D01*
X1361311Y199384D01*
X1360954Y199445D01*
X1360599Y199514D01*
X1360245Y199591D01*
X1359893Y199677D01*
X1359543Y199771D01*
X1359195Y199874D01*
X1358850Y199984D01*
X1358508Y200103D01*
X1372649Y193781D02*
X1372649Y210037D01*
X1377165Y210037D01*
X1377165Y210036D02*
X1377269Y210034D01*
X1377372Y210028D01*
X1377476Y210018D01*
X1377579Y210004D01*
X1377681Y209986D01*
X1377782Y209965D01*
X1377883Y209939D01*
X1377982Y209910D01*
X1378081Y209877D01*
X1378178Y209840D01*
X1378273Y209799D01*
X1378367Y209755D01*
X1378459Y209707D01*
X1378549Y209656D01*
X1378638Y209601D01*
X1378724Y209543D01*
X1378807Y209481D01*
X1378889Y209417D01*
X1378967Y209349D01*
X1379043Y209279D01*
X1379117Y209206D01*
X1379187Y209129D01*
X1379255Y209051D01*
X1379319Y208969D01*
X1379381Y208886D01*
X1379439Y208800D01*
X1379494Y208711D01*
X1379545Y208621D01*
X1379593Y208529D01*
X1379637Y208435D01*
X1379678Y208340D01*
X1379715Y208243D01*
X1379748Y208144D01*
X1379777Y208045D01*
X1379803Y207944D01*
X1379824Y207843D01*
X1379842Y207741D01*
X1379856Y207638D01*
X1379866Y207534D01*
X1379872Y207431D01*
X1379874Y207327D01*
X1379874Y207328D02*
X1379874Y201909D01*
X1379872Y201808D01*
X1379866Y201707D01*
X1379857Y201606D01*
X1379844Y201505D01*
X1379827Y201405D01*
X1379806Y201306D01*
X1379782Y201208D01*
X1379754Y201111D01*
X1379722Y201014D01*
X1379687Y200919D01*
X1379648Y200826D01*
X1379606Y200734D01*
X1379560Y200643D01*
X1379511Y200554D01*
X1379459Y200468D01*
X1379403Y200383D01*
X1379345Y200300D01*
X1379283Y200220D01*
X1379218Y200142D01*
X1379151Y200066D01*
X1379081Y199993D01*
X1379008Y199923D01*
X1378932Y199856D01*
X1378854Y199791D01*
X1378774Y199729D01*
X1378691Y199671D01*
X1378606Y199615D01*
X1378520Y199563D01*
X1378431Y199514D01*
X1378340Y199468D01*
X1378248Y199426D01*
X1378155Y199387D01*
X1378060Y199352D01*
X1377963Y199320D01*
X1377866Y199292D01*
X1377768Y199268D01*
X1377669Y199247D01*
X1377569Y199230D01*
X1377468Y199217D01*
X1377367Y199208D01*
X1377266Y199202D01*
X1377165Y199200D01*
X1372649Y199200D01*
X1386088Y199200D02*
X1386088Y210037D01*
X1385637Y214552D02*
X1385637Y215456D01*
X1386540Y215456D01*
X1386540Y214552D01*
X1385637Y214552D01*
X1392981Y210037D02*
X1392981Y199200D01*
X1392981Y210037D02*
X1398400Y210037D01*
X1398400Y208231D01*
X1406027Y199200D02*
X1410542Y199200D01*
X1406027Y199200D02*
X1405926Y199202D01*
X1405825Y199208D01*
X1405724Y199217D01*
X1405623Y199230D01*
X1405523Y199247D01*
X1405424Y199268D01*
X1405326Y199292D01*
X1405229Y199320D01*
X1405132Y199352D01*
X1405037Y199387D01*
X1404944Y199426D01*
X1404852Y199468D01*
X1404761Y199514D01*
X1404673Y199563D01*
X1404586Y199615D01*
X1404501Y199671D01*
X1404418Y199729D01*
X1404338Y199791D01*
X1404260Y199856D01*
X1404184Y199923D01*
X1404111Y199993D01*
X1404041Y200066D01*
X1403974Y200142D01*
X1403909Y200220D01*
X1403847Y200300D01*
X1403789Y200383D01*
X1403733Y200468D01*
X1403681Y200555D01*
X1403632Y200643D01*
X1403586Y200734D01*
X1403544Y200826D01*
X1403505Y200919D01*
X1403470Y201014D01*
X1403438Y201111D01*
X1403410Y201208D01*
X1403386Y201306D01*
X1403365Y201405D01*
X1403348Y201505D01*
X1403335Y201606D01*
X1403326Y201707D01*
X1403320Y201808D01*
X1403318Y201909D01*
X1403317Y201909D02*
X1403317Y206424D01*
X1403318Y206424D02*
X1403320Y206543D01*
X1403326Y206663D01*
X1403336Y206782D01*
X1403350Y206900D01*
X1403367Y207019D01*
X1403389Y207136D01*
X1403414Y207253D01*
X1403444Y207368D01*
X1403477Y207483D01*
X1403514Y207597D01*
X1403554Y207709D01*
X1403599Y207820D01*
X1403647Y207929D01*
X1403698Y208037D01*
X1403753Y208143D01*
X1403812Y208247D01*
X1403874Y208349D01*
X1403939Y208449D01*
X1404008Y208547D01*
X1404080Y208643D01*
X1404155Y208736D01*
X1404232Y208826D01*
X1404313Y208914D01*
X1404397Y208999D01*
X1404484Y209081D01*
X1404573Y209161D01*
X1404665Y209237D01*
X1404759Y209311D01*
X1404856Y209381D01*
X1404954Y209448D01*
X1405055Y209512D01*
X1405159Y209572D01*
X1405264Y209629D01*
X1405371Y209682D01*
X1405479Y209732D01*
X1405589Y209778D01*
X1405701Y209820D01*
X1405814Y209859D01*
X1405928Y209894D01*
X1406043Y209925D01*
X1406160Y209953D01*
X1406277Y209976D01*
X1406394Y209996D01*
X1406513Y210012D01*
X1406632Y210024D01*
X1406751Y210032D01*
X1406870Y210036D01*
X1406990Y210036D01*
X1407109Y210032D01*
X1407228Y210024D01*
X1407347Y210012D01*
X1407466Y209996D01*
X1407583Y209976D01*
X1407700Y209953D01*
X1407817Y209925D01*
X1407932Y209894D01*
X1408046Y209859D01*
X1408159Y209820D01*
X1408271Y209778D01*
X1408381Y209732D01*
X1408489Y209682D01*
X1408596Y209629D01*
X1408701Y209572D01*
X1408805Y209512D01*
X1408906Y209448D01*
X1409004Y209381D01*
X1409101Y209311D01*
X1409195Y209237D01*
X1409287Y209161D01*
X1409376Y209081D01*
X1409463Y208999D01*
X1409547Y208914D01*
X1409628Y208826D01*
X1409705Y208736D01*
X1409780Y208643D01*
X1409852Y208547D01*
X1409921Y208449D01*
X1409986Y208349D01*
X1410048Y208247D01*
X1410107Y208143D01*
X1410162Y208037D01*
X1410213Y207929D01*
X1410261Y207820D01*
X1410306Y207709D01*
X1410346Y207597D01*
X1410383Y207483D01*
X1410416Y207368D01*
X1410446Y207253D01*
X1410471Y207136D01*
X1410493Y207019D01*
X1410510Y206900D01*
X1410524Y206782D01*
X1410534Y206663D01*
X1410540Y206543D01*
X1410542Y206424D01*
X1410542Y204618D01*
X1403317Y204618D01*
X1424016Y199200D02*
X1424016Y215456D01*
X1424016Y199200D02*
X1419500Y199200D01*
X1419399Y199202D01*
X1419298Y199208D01*
X1419197Y199217D01*
X1419096Y199230D01*
X1418996Y199247D01*
X1418897Y199268D01*
X1418799Y199292D01*
X1418702Y199320D01*
X1418605Y199352D01*
X1418510Y199387D01*
X1418417Y199426D01*
X1418325Y199468D01*
X1418234Y199514D01*
X1418146Y199563D01*
X1418059Y199615D01*
X1417974Y199671D01*
X1417891Y199729D01*
X1417811Y199791D01*
X1417733Y199856D01*
X1417657Y199923D01*
X1417584Y199993D01*
X1417514Y200066D01*
X1417447Y200142D01*
X1417382Y200220D01*
X1417320Y200300D01*
X1417262Y200383D01*
X1417206Y200468D01*
X1417154Y200555D01*
X1417105Y200643D01*
X1417059Y200734D01*
X1417017Y200826D01*
X1416978Y200919D01*
X1416943Y201014D01*
X1416911Y201111D01*
X1416883Y201208D01*
X1416859Y201306D01*
X1416838Y201405D01*
X1416821Y201505D01*
X1416808Y201606D01*
X1416799Y201707D01*
X1416793Y201808D01*
X1416791Y201909D01*
X1416791Y207328D01*
X1416793Y207429D01*
X1416799Y207530D01*
X1416808Y207631D01*
X1416821Y207732D01*
X1416838Y207832D01*
X1416859Y207931D01*
X1416883Y208029D01*
X1416911Y208126D01*
X1416943Y208223D01*
X1416978Y208318D01*
X1417017Y208411D01*
X1417059Y208503D01*
X1417105Y208594D01*
X1417154Y208683D01*
X1417206Y208769D01*
X1417262Y208854D01*
X1417320Y208937D01*
X1417382Y209017D01*
X1417447Y209095D01*
X1417514Y209171D01*
X1417584Y209244D01*
X1417657Y209314D01*
X1417733Y209381D01*
X1417811Y209446D01*
X1417891Y209508D01*
X1417974Y209566D01*
X1418059Y209622D01*
X1418146Y209674D01*
X1418234Y209723D01*
X1418325Y209769D01*
X1418417Y209811D01*
X1418510Y209850D01*
X1418605Y209885D01*
X1418702Y209917D01*
X1418799Y209945D01*
X1418897Y209969D01*
X1418996Y209990D01*
X1419096Y210007D01*
X1419197Y210020D01*
X1419298Y210029D01*
X1419399Y210035D01*
X1419500Y210037D01*
X1424016Y210037D01*
X1439863Y215456D02*
X1439863Y199200D01*
X1444379Y199200D01*
X1444483Y199202D01*
X1444586Y199208D01*
X1444690Y199218D01*
X1444793Y199232D01*
X1444895Y199250D01*
X1444996Y199271D01*
X1445097Y199297D01*
X1445196Y199326D01*
X1445295Y199359D01*
X1445392Y199396D01*
X1445487Y199437D01*
X1445581Y199481D01*
X1445673Y199529D01*
X1445763Y199580D01*
X1445852Y199635D01*
X1445938Y199693D01*
X1446021Y199755D01*
X1446103Y199819D01*
X1446181Y199887D01*
X1446257Y199957D01*
X1446331Y200030D01*
X1446401Y200107D01*
X1446469Y200185D01*
X1446533Y200267D01*
X1446595Y200350D01*
X1446653Y200436D01*
X1446708Y200525D01*
X1446759Y200615D01*
X1446807Y200707D01*
X1446851Y200801D01*
X1446892Y200896D01*
X1446929Y200993D01*
X1446962Y201092D01*
X1446991Y201191D01*
X1447017Y201292D01*
X1447038Y201393D01*
X1447056Y201495D01*
X1447070Y201598D01*
X1447080Y201702D01*
X1447086Y201805D01*
X1447088Y201909D01*
X1447088Y207328D01*
X1447086Y207429D01*
X1447080Y207530D01*
X1447071Y207631D01*
X1447058Y207732D01*
X1447041Y207832D01*
X1447020Y207931D01*
X1446996Y208029D01*
X1446968Y208126D01*
X1446936Y208223D01*
X1446901Y208318D01*
X1446862Y208411D01*
X1446820Y208503D01*
X1446774Y208594D01*
X1446725Y208683D01*
X1446673Y208769D01*
X1446617Y208854D01*
X1446559Y208937D01*
X1446497Y209017D01*
X1446432Y209095D01*
X1446365Y209171D01*
X1446295Y209244D01*
X1446222Y209314D01*
X1446146Y209381D01*
X1446068Y209446D01*
X1445988Y209508D01*
X1445905Y209566D01*
X1445820Y209622D01*
X1445734Y209674D01*
X1445645Y209723D01*
X1445554Y209769D01*
X1445462Y209811D01*
X1445369Y209850D01*
X1445274Y209885D01*
X1445177Y209917D01*
X1445080Y209945D01*
X1444982Y209969D01*
X1444883Y209990D01*
X1444783Y210007D01*
X1444682Y210020D01*
X1444581Y210029D01*
X1444480Y210035D01*
X1444379Y210037D01*
X1439863Y210037D01*
X1452816Y193781D02*
X1454622Y193781D01*
X1460041Y210037D01*
X1452816Y210037D02*
X1456429Y199200D01*
X1474773Y193781D02*
X1474773Y210037D01*
X1479289Y210037D01*
X1479289Y210036D02*
X1479393Y210034D01*
X1479496Y210028D01*
X1479600Y210018D01*
X1479703Y210004D01*
X1479805Y209986D01*
X1479906Y209965D01*
X1480007Y209939D01*
X1480106Y209910D01*
X1480205Y209877D01*
X1480302Y209840D01*
X1480397Y209799D01*
X1480491Y209755D01*
X1480583Y209707D01*
X1480673Y209656D01*
X1480762Y209601D01*
X1480848Y209543D01*
X1480931Y209481D01*
X1481013Y209417D01*
X1481091Y209349D01*
X1481167Y209279D01*
X1481241Y209206D01*
X1481311Y209129D01*
X1481379Y209051D01*
X1481443Y208969D01*
X1481505Y208886D01*
X1481563Y208800D01*
X1481618Y208711D01*
X1481669Y208621D01*
X1481717Y208529D01*
X1481761Y208435D01*
X1481802Y208340D01*
X1481839Y208243D01*
X1481872Y208144D01*
X1481901Y208045D01*
X1481927Y207944D01*
X1481948Y207843D01*
X1481966Y207741D01*
X1481980Y207638D01*
X1481990Y207534D01*
X1481996Y207431D01*
X1481998Y207327D01*
X1481998Y207328D02*
X1481998Y201909D01*
X1481996Y201808D01*
X1481990Y201707D01*
X1481981Y201606D01*
X1481968Y201505D01*
X1481951Y201405D01*
X1481930Y201306D01*
X1481906Y201208D01*
X1481878Y201111D01*
X1481846Y201014D01*
X1481811Y200919D01*
X1481772Y200826D01*
X1481730Y200734D01*
X1481684Y200643D01*
X1481635Y200554D01*
X1481583Y200468D01*
X1481527Y200383D01*
X1481469Y200300D01*
X1481407Y200220D01*
X1481342Y200142D01*
X1481275Y200066D01*
X1481205Y199993D01*
X1481132Y199923D01*
X1481056Y199856D01*
X1480978Y199791D01*
X1480898Y199729D01*
X1480815Y199671D01*
X1480730Y199615D01*
X1480644Y199563D01*
X1480555Y199514D01*
X1480464Y199468D01*
X1480372Y199426D01*
X1480279Y199387D01*
X1480184Y199352D01*
X1480087Y199320D01*
X1479990Y199292D01*
X1479892Y199268D01*
X1479793Y199247D01*
X1479693Y199230D01*
X1479592Y199217D01*
X1479491Y199208D01*
X1479390Y199202D01*
X1479289Y199200D01*
X1474773Y199200D01*
X1491334Y205521D02*
X1495398Y205521D01*
X1491334Y205521D02*
X1491222Y205519D01*
X1491111Y205513D01*
X1491000Y205503D01*
X1490889Y205490D01*
X1490779Y205472D01*
X1490670Y205450D01*
X1490561Y205425D01*
X1490453Y205396D01*
X1490347Y205363D01*
X1490241Y205326D01*
X1490137Y205286D01*
X1490035Y205242D01*
X1489934Y205194D01*
X1489835Y205143D01*
X1489737Y205088D01*
X1489642Y205030D01*
X1489549Y204969D01*
X1489458Y204904D01*
X1489369Y204836D01*
X1489283Y204765D01*
X1489200Y204692D01*
X1489119Y204615D01*
X1489040Y204535D01*
X1488965Y204453D01*
X1488893Y204368D01*
X1488823Y204281D01*
X1488757Y204191D01*
X1488694Y204099D01*
X1488634Y204004D01*
X1488578Y203908D01*
X1488525Y203810D01*
X1488476Y203710D01*
X1488430Y203608D01*
X1488388Y203505D01*
X1488349Y203400D01*
X1488314Y203294D01*
X1488283Y203187D01*
X1488256Y203079D01*
X1488232Y202970D01*
X1488213Y202860D01*
X1488197Y202750D01*
X1488185Y202639D01*
X1488177Y202527D01*
X1488173Y202416D01*
X1488173Y202304D01*
X1488177Y202193D01*
X1488185Y202081D01*
X1488197Y201970D01*
X1488213Y201860D01*
X1488232Y201750D01*
X1488256Y201641D01*
X1488283Y201533D01*
X1488314Y201426D01*
X1488349Y201320D01*
X1488388Y201215D01*
X1488430Y201112D01*
X1488476Y201010D01*
X1488525Y200910D01*
X1488578Y200812D01*
X1488634Y200716D01*
X1488694Y200621D01*
X1488757Y200529D01*
X1488823Y200439D01*
X1488893Y200352D01*
X1488965Y200267D01*
X1489040Y200185D01*
X1489119Y200105D01*
X1489200Y200028D01*
X1489283Y199955D01*
X1489369Y199884D01*
X1489458Y199816D01*
X1489549Y199751D01*
X1489642Y199690D01*
X1489737Y199632D01*
X1489835Y199577D01*
X1489934Y199526D01*
X1490035Y199478D01*
X1490137Y199434D01*
X1490241Y199394D01*
X1490347Y199357D01*
X1490453Y199324D01*
X1490561Y199295D01*
X1490670Y199270D01*
X1490779Y199248D01*
X1490889Y199230D01*
X1491000Y199217D01*
X1491111Y199207D01*
X1491222Y199201D01*
X1491334Y199199D01*
X1491334Y199200D02*
X1495398Y199200D01*
X1495398Y207328D01*
X1495396Y207429D01*
X1495390Y207530D01*
X1495381Y207631D01*
X1495368Y207732D01*
X1495351Y207832D01*
X1495330Y207931D01*
X1495306Y208029D01*
X1495278Y208126D01*
X1495246Y208223D01*
X1495211Y208318D01*
X1495172Y208411D01*
X1495130Y208503D01*
X1495084Y208594D01*
X1495035Y208683D01*
X1494983Y208769D01*
X1494927Y208854D01*
X1494869Y208937D01*
X1494807Y209017D01*
X1494742Y209095D01*
X1494675Y209171D01*
X1494605Y209244D01*
X1494532Y209314D01*
X1494456Y209381D01*
X1494378Y209446D01*
X1494298Y209508D01*
X1494215Y209566D01*
X1494130Y209622D01*
X1494044Y209674D01*
X1493955Y209723D01*
X1493864Y209769D01*
X1493772Y209811D01*
X1493679Y209850D01*
X1493584Y209885D01*
X1493487Y209917D01*
X1493390Y209945D01*
X1493292Y209969D01*
X1493193Y209990D01*
X1493093Y210007D01*
X1492992Y210020D01*
X1492891Y210029D01*
X1492790Y210035D01*
X1492689Y210037D01*
X1489077Y210037D01*
X1501018Y210037D02*
X1506436Y210037D01*
X1502824Y215456D02*
X1502824Y201909D01*
X1502826Y201808D01*
X1502832Y201707D01*
X1502841Y201606D01*
X1502854Y201505D01*
X1502871Y201405D01*
X1502892Y201306D01*
X1502916Y201208D01*
X1502944Y201111D01*
X1502976Y201014D01*
X1503011Y200919D01*
X1503050Y200826D01*
X1503092Y200734D01*
X1503138Y200643D01*
X1503187Y200555D01*
X1503239Y200468D01*
X1503295Y200383D01*
X1503353Y200300D01*
X1503415Y200220D01*
X1503480Y200142D01*
X1503547Y200066D01*
X1503617Y199993D01*
X1503690Y199923D01*
X1503766Y199856D01*
X1503844Y199791D01*
X1503924Y199729D01*
X1504007Y199671D01*
X1504092Y199615D01*
X1504179Y199563D01*
X1504267Y199514D01*
X1504358Y199468D01*
X1504450Y199426D01*
X1504543Y199387D01*
X1504638Y199352D01*
X1504735Y199320D01*
X1504832Y199292D01*
X1504930Y199268D01*
X1505029Y199247D01*
X1505129Y199230D01*
X1505230Y199217D01*
X1505331Y199208D01*
X1505432Y199202D01*
X1505533Y199200D01*
X1506436Y199200D01*
X1514924Y199200D02*
X1519440Y199200D01*
X1514924Y199200D02*
X1514823Y199202D01*
X1514722Y199208D01*
X1514621Y199217D01*
X1514520Y199230D01*
X1514420Y199247D01*
X1514321Y199268D01*
X1514223Y199292D01*
X1514126Y199320D01*
X1514029Y199352D01*
X1513934Y199387D01*
X1513841Y199426D01*
X1513749Y199468D01*
X1513658Y199514D01*
X1513570Y199563D01*
X1513483Y199615D01*
X1513398Y199671D01*
X1513315Y199729D01*
X1513235Y199791D01*
X1513157Y199856D01*
X1513081Y199923D01*
X1513008Y199993D01*
X1512938Y200066D01*
X1512871Y200142D01*
X1512806Y200220D01*
X1512744Y200300D01*
X1512686Y200383D01*
X1512630Y200468D01*
X1512578Y200555D01*
X1512529Y200643D01*
X1512483Y200734D01*
X1512441Y200826D01*
X1512402Y200919D01*
X1512367Y201014D01*
X1512335Y201111D01*
X1512307Y201208D01*
X1512283Y201306D01*
X1512262Y201405D01*
X1512245Y201505D01*
X1512232Y201606D01*
X1512223Y201707D01*
X1512217Y201808D01*
X1512215Y201909D01*
X1512215Y206424D01*
X1512217Y206543D01*
X1512223Y206663D01*
X1512233Y206782D01*
X1512247Y206900D01*
X1512264Y207019D01*
X1512286Y207136D01*
X1512311Y207253D01*
X1512341Y207368D01*
X1512374Y207483D01*
X1512411Y207597D01*
X1512451Y207709D01*
X1512496Y207820D01*
X1512544Y207929D01*
X1512595Y208037D01*
X1512650Y208143D01*
X1512709Y208247D01*
X1512771Y208349D01*
X1512836Y208449D01*
X1512905Y208547D01*
X1512977Y208643D01*
X1513052Y208736D01*
X1513129Y208826D01*
X1513210Y208914D01*
X1513294Y208999D01*
X1513381Y209081D01*
X1513470Y209161D01*
X1513562Y209237D01*
X1513656Y209311D01*
X1513753Y209381D01*
X1513851Y209448D01*
X1513952Y209512D01*
X1514056Y209572D01*
X1514161Y209629D01*
X1514268Y209682D01*
X1514376Y209732D01*
X1514486Y209778D01*
X1514598Y209820D01*
X1514711Y209859D01*
X1514825Y209894D01*
X1514940Y209925D01*
X1515057Y209953D01*
X1515174Y209976D01*
X1515291Y209996D01*
X1515410Y210012D01*
X1515529Y210024D01*
X1515648Y210032D01*
X1515767Y210036D01*
X1515887Y210036D01*
X1516006Y210032D01*
X1516125Y210024D01*
X1516244Y210012D01*
X1516363Y209996D01*
X1516480Y209976D01*
X1516597Y209953D01*
X1516714Y209925D01*
X1516829Y209894D01*
X1516943Y209859D01*
X1517056Y209820D01*
X1517168Y209778D01*
X1517278Y209732D01*
X1517386Y209682D01*
X1517493Y209629D01*
X1517598Y209572D01*
X1517702Y209512D01*
X1517803Y209448D01*
X1517901Y209381D01*
X1517998Y209311D01*
X1518092Y209237D01*
X1518184Y209161D01*
X1518273Y209081D01*
X1518360Y208999D01*
X1518444Y208914D01*
X1518525Y208826D01*
X1518602Y208736D01*
X1518677Y208643D01*
X1518749Y208547D01*
X1518818Y208449D01*
X1518883Y208349D01*
X1518945Y208247D01*
X1519004Y208143D01*
X1519059Y208037D01*
X1519110Y207929D01*
X1519158Y207820D01*
X1519203Y207709D01*
X1519243Y207597D01*
X1519280Y207483D01*
X1519313Y207368D01*
X1519343Y207253D01*
X1519368Y207136D01*
X1519390Y207019D01*
X1519407Y206900D01*
X1519421Y206782D01*
X1519431Y206663D01*
X1519437Y206543D01*
X1519439Y206424D01*
X1519440Y206424D02*
X1519440Y204618D01*
X1512215Y204618D01*
X1526283Y199200D02*
X1526283Y210037D01*
X1530798Y210037D01*
X1530798Y210036D02*
X1530902Y210034D01*
X1531005Y210028D01*
X1531109Y210018D01*
X1531212Y210004D01*
X1531314Y209986D01*
X1531415Y209965D01*
X1531516Y209939D01*
X1531615Y209910D01*
X1531714Y209877D01*
X1531811Y209840D01*
X1531906Y209799D01*
X1532000Y209755D01*
X1532092Y209707D01*
X1532182Y209656D01*
X1532271Y209601D01*
X1532357Y209543D01*
X1532440Y209481D01*
X1532522Y209417D01*
X1532600Y209349D01*
X1532676Y209279D01*
X1532750Y209206D01*
X1532820Y209129D01*
X1532888Y209051D01*
X1532952Y208969D01*
X1533014Y208886D01*
X1533072Y208800D01*
X1533127Y208711D01*
X1533178Y208621D01*
X1533226Y208529D01*
X1533270Y208435D01*
X1533311Y208340D01*
X1533348Y208243D01*
X1533381Y208144D01*
X1533410Y208045D01*
X1533436Y207944D01*
X1533457Y207843D01*
X1533475Y207741D01*
X1533489Y207638D01*
X1533499Y207534D01*
X1533505Y207431D01*
X1533507Y207327D01*
X1533508Y207328D02*
X1533508Y199200D01*
X1539054Y210037D02*
X1544472Y210037D01*
X1540860Y215456D02*
X1540860Y201909D01*
X1540862Y201808D01*
X1540868Y201707D01*
X1540877Y201606D01*
X1540890Y201505D01*
X1540907Y201405D01*
X1540928Y201306D01*
X1540952Y201208D01*
X1540980Y201111D01*
X1541012Y201014D01*
X1541047Y200919D01*
X1541086Y200826D01*
X1541128Y200734D01*
X1541174Y200643D01*
X1541223Y200555D01*
X1541275Y200468D01*
X1541331Y200383D01*
X1541389Y200300D01*
X1541451Y200220D01*
X1541516Y200142D01*
X1541583Y200066D01*
X1541653Y199993D01*
X1541726Y199923D01*
X1541802Y199856D01*
X1541880Y199791D01*
X1541960Y199729D01*
X1542043Y199671D01*
X1542128Y199615D01*
X1542215Y199563D01*
X1542303Y199514D01*
X1542394Y199468D01*
X1542486Y199426D01*
X1542579Y199387D01*
X1542674Y199352D01*
X1542771Y199320D01*
X1542868Y199292D01*
X1542966Y199268D01*
X1543065Y199247D01*
X1543165Y199230D01*
X1543266Y199217D01*
X1543367Y199208D01*
X1543468Y199202D01*
X1543569Y199200D01*
X1544472Y199200D01*
X1558726Y199200D02*
X1564145Y199200D01*
X1564263Y199202D01*
X1564381Y199208D01*
X1564499Y199217D01*
X1564616Y199231D01*
X1564733Y199248D01*
X1564850Y199269D01*
X1564965Y199294D01*
X1565080Y199323D01*
X1565194Y199356D01*
X1565306Y199392D01*
X1565417Y199432D01*
X1565527Y199475D01*
X1565636Y199522D01*
X1565743Y199572D01*
X1565848Y199627D01*
X1565951Y199684D01*
X1566052Y199745D01*
X1566152Y199809D01*
X1566249Y199876D01*
X1566344Y199946D01*
X1566436Y200020D01*
X1566527Y200096D01*
X1566614Y200176D01*
X1566699Y200258D01*
X1566781Y200343D01*
X1566861Y200430D01*
X1566937Y200521D01*
X1567011Y200613D01*
X1567081Y200708D01*
X1567148Y200805D01*
X1567212Y200905D01*
X1567273Y201006D01*
X1567330Y201109D01*
X1567385Y201214D01*
X1567435Y201321D01*
X1567482Y201430D01*
X1567525Y201540D01*
X1567565Y201651D01*
X1567601Y201763D01*
X1567634Y201877D01*
X1567663Y201992D01*
X1567688Y202107D01*
X1567709Y202224D01*
X1567726Y202341D01*
X1567740Y202458D01*
X1567749Y202576D01*
X1567755Y202694D01*
X1567757Y202812D01*
X1567757Y204618D01*
X1567755Y204736D01*
X1567749Y204854D01*
X1567740Y204972D01*
X1567726Y205089D01*
X1567709Y205206D01*
X1567688Y205323D01*
X1567663Y205438D01*
X1567634Y205553D01*
X1567601Y205667D01*
X1567565Y205779D01*
X1567525Y205890D01*
X1567482Y206000D01*
X1567435Y206109D01*
X1567385Y206216D01*
X1567330Y206321D01*
X1567273Y206424D01*
X1567212Y206525D01*
X1567148Y206625D01*
X1567081Y206722D01*
X1567011Y206817D01*
X1566937Y206909D01*
X1566861Y207000D01*
X1566781Y207087D01*
X1566699Y207172D01*
X1566614Y207254D01*
X1566527Y207334D01*
X1566436Y207410D01*
X1566344Y207484D01*
X1566249Y207554D01*
X1566152Y207621D01*
X1566052Y207685D01*
X1565951Y207746D01*
X1565848Y207803D01*
X1565743Y207858D01*
X1565636Y207908D01*
X1565527Y207955D01*
X1565417Y207998D01*
X1565306Y208038D01*
X1565194Y208074D01*
X1565080Y208107D01*
X1564965Y208136D01*
X1564850Y208161D01*
X1564733Y208182D01*
X1564616Y208199D01*
X1564499Y208213D01*
X1564381Y208222D01*
X1564263Y208228D01*
X1564145Y208230D01*
X1564145Y208231D02*
X1558726Y208231D01*
X1558726Y215456D01*
X1567757Y215456D01*
X1577970Y206424D02*
X1583388Y206424D01*
X1577970Y206425D02*
X1577852Y206427D01*
X1577734Y206433D01*
X1577616Y206442D01*
X1577499Y206456D01*
X1577382Y206473D01*
X1577265Y206494D01*
X1577150Y206519D01*
X1577035Y206548D01*
X1576921Y206581D01*
X1576809Y206617D01*
X1576698Y206657D01*
X1576588Y206700D01*
X1576479Y206747D01*
X1576372Y206797D01*
X1576267Y206852D01*
X1576164Y206909D01*
X1576063Y206970D01*
X1575963Y207034D01*
X1575866Y207101D01*
X1575771Y207171D01*
X1575679Y207245D01*
X1575588Y207321D01*
X1575501Y207401D01*
X1575416Y207483D01*
X1575334Y207568D01*
X1575254Y207655D01*
X1575178Y207746D01*
X1575104Y207838D01*
X1575034Y207933D01*
X1574967Y208030D01*
X1574903Y208130D01*
X1574842Y208231D01*
X1574785Y208334D01*
X1574730Y208439D01*
X1574680Y208546D01*
X1574633Y208655D01*
X1574590Y208765D01*
X1574550Y208876D01*
X1574514Y208988D01*
X1574481Y209102D01*
X1574452Y209217D01*
X1574427Y209332D01*
X1574406Y209449D01*
X1574389Y209566D01*
X1574375Y209683D01*
X1574366Y209801D01*
X1574360Y209919D01*
X1574358Y210037D01*
X1574357Y210037D02*
X1574357Y210940D01*
X1574359Y211073D01*
X1574365Y211205D01*
X1574375Y211337D01*
X1574388Y211469D01*
X1574406Y211601D01*
X1574427Y211731D01*
X1574452Y211862D01*
X1574481Y211991D01*
X1574514Y212119D01*
X1574550Y212247D01*
X1574590Y212373D01*
X1574634Y212498D01*
X1574682Y212622D01*
X1574733Y212744D01*
X1574788Y212865D01*
X1574846Y212984D01*
X1574908Y213102D01*
X1574973Y213217D01*
X1575042Y213331D01*
X1575113Y213442D01*
X1575189Y213551D01*
X1575267Y213658D01*
X1575348Y213763D01*
X1575433Y213865D01*
X1575520Y213965D01*
X1575610Y214062D01*
X1575703Y214157D01*
X1575799Y214248D01*
X1575897Y214337D01*
X1575998Y214423D01*
X1576102Y214506D01*
X1576208Y214586D01*
X1576316Y214662D01*
X1576426Y214736D01*
X1576539Y214806D01*
X1576653Y214873D01*
X1576770Y214936D01*
X1576888Y214996D01*
X1577008Y215053D01*
X1577130Y215106D01*
X1577253Y215155D01*
X1577377Y215201D01*
X1577503Y215243D01*
X1577630Y215281D01*
X1577758Y215316D01*
X1577887Y215347D01*
X1578016Y215374D01*
X1578147Y215397D01*
X1578278Y215417D01*
X1578410Y215432D01*
X1578542Y215444D01*
X1578674Y215452D01*
X1578807Y215456D01*
X1578939Y215456D01*
X1579072Y215452D01*
X1579204Y215444D01*
X1579336Y215432D01*
X1579468Y215417D01*
X1579599Y215397D01*
X1579730Y215374D01*
X1579859Y215347D01*
X1579988Y215316D01*
X1580116Y215281D01*
X1580243Y215243D01*
X1580369Y215201D01*
X1580493Y215155D01*
X1580616Y215106D01*
X1580738Y215053D01*
X1580858Y214996D01*
X1580976Y214936D01*
X1581093Y214873D01*
X1581207Y214806D01*
X1581320Y214736D01*
X1581430Y214662D01*
X1581538Y214586D01*
X1581644Y214506D01*
X1581748Y214423D01*
X1581849Y214337D01*
X1581947Y214248D01*
X1582043Y214157D01*
X1582136Y214062D01*
X1582226Y213965D01*
X1582313Y213865D01*
X1582398Y213763D01*
X1582479Y213658D01*
X1582557Y213551D01*
X1582633Y213442D01*
X1582704Y213331D01*
X1582773Y213217D01*
X1582838Y213102D01*
X1582900Y212984D01*
X1582958Y212865D01*
X1583013Y212744D01*
X1583064Y212622D01*
X1583112Y212498D01*
X1583156Y212373D01*
X1583196Y212247D01*
X1583232Y212119D01*
X1583265Y211991D01*
X1583294Y211862D01*
X1583319Y211731D01*
X1583340Y211601D01*
X1583358Y211469D01*
X1583371Y211337D01*
X1583381Y211205D01*
X1583387Y211073D01*
X1583389Y210940D01*
X1583388Y210940D02*
X1583388Y206424D01*
X1583389Y206424D02*
X1583387Y206249D01*
X1583381Y206075D01*
X1583370Y205901D01*
X1583355Y205727D01*
X1583336Y205553D01*
X1583313Y205380D01*
X1583286Y205208D01*
X1583254Y205036D01*
X1583219Y204865D01*
X1583179Y204695D01*
X1583135Y204526D01*
X1583087Y204358D01*
X1583035Y204191D01*
X1582979Y204026D01*
X1582919Y203862D01*
X1582856Y203699D01*
X1582788Y203539D01*
X1582716Y203379D01*
X1582641Y203222D01*
X1582561Y203066D01*
X1582478Y202913D01*
X1582392Y202761D01*
X1582301Y202612D01*
X1582207Y202465D01*
X1582110Y202320D01*
X1582009Y202177D01*
X1581905Y202037D01*
X1581797Y201900D01*
X1581686Y201765D01*
X1581572Y201633D01*
X1581455Y201504D01*
X1581334Y201377D01*
X1581211Y201254D01*
X1581084Y201133D01*
X1580955Y201016D01*
X1580823Y200902D01*
X1580688Y200791D01*
X1580551Y200683D01*
X1580411Y200579D01*
X1580268Y200478D01*
X1580123Y200381D01*
X1579976Y200287D01*
X1579827Y200196D01*
X1579675Y200110D01*
X1579522Y200027D01*
X1579366Y199947D01*
X1579209Y199872D01*
X1579049Y199800D01*
X1578889Y199732D01*
X1578726Y199669D01*
X1578562Y199609D01*
X1578397Y199553D01*
X1578230Y199501D01*
X1578062Y199453D01*
X1577893Y199409D01*
X1577723Y199369D01*
X1577552Y199334D01*
X1577380Y199302D01*
X1577208Y199275D01*
X1577035Y199252D01*
X1576861Y199233D01*
X1576687Y199218D01*
X1576513Y199207D01*
X1576339Y199201D01*
X1576164Y199199D01*
X1593601Y206424D02*
X1599020Y206424D01*
X1593601Y206425D02*
X1593483Y206427D01*
X1593365Y206433D01*
X1593247Y206442D01*
X1593130Y206456D01*
X1593013Y206473D01*
X1592896Y206494D01*
X1592781Y206519D01*
X1592666Y206548D01*
X1592552Y206581D01*
X1592440Y206617D01*
X1592329Y206657D01*
X1592219Y206700D01*
X1592110Y206747D01*
X1592003Y206797D01*
X1591898Y206852D01*
X1591795Y206909D01*
X1591694Y206970D01*
X1591594Y207034D01*
X1591497Y207101D01*
X1591402Y207171D01*
X1591310Y207245D01*
X1591219Y207321D01*
X1591132Y207401D01*
X1591047Y207483D01*
X1590965Y207568D01*
X1590885Y207655D01*
X1590809Y207746D01*
X1590735Y207838D01*
X1590665Y207933D01*
X1590598Y208030D01*
X1590534Y208130D01*
X1590473Y208231D01*
X1590416Y208334D01*
X1590361Y208439D01*
X1590311Y208546D01*
X1590264Y208655D01*
X1590221Y208765D01*
X1590181Y208876D01*
X1590145Y208988D01*
X1590112Y209102D01*
X1590083Y209217D01*
X1590058Y209332D01*
X1590037Y209449D01*
X1590020Y209566D01*
X1590006Y209683D01*
X1589997Y209801D01*
X1589991Y209919D01*
X1589989Y210037D01*
X1589989Y210940D01*
X1589988Y210940D02*
X1589990Y211073D01*
X1589996Y211205D01*
X1590006Y211337D01*
X1590019Y211469D01*
X1590037Y211601D01*
X1590058Y211731D01*
X1590083Y211862D01*
X1590112Y211991D01*
X1590145Y212119D01*
X1590181Y212247D01*
X1590221Y212373D01*
X1590265Y212498D01*
X1590313Y212622D01*
X1590364Y212744D01*
X1590419Y212865D01*
X1590477Y212984D01*
X1590539Y213102D01*
X1590604Y213217D01*
X1590673Y213331D01*
X1590744Y213442D01*
X1590820Y213551D01*
X1590898Y213658D01*
X1590979Y213763D01*
X1591064Y213865D01*
X1591151Y213965D01*
X1591241Y214062D01*
X1591334Y214157D01*
X1591430Y214248D01*
X1591528Y214337D01*
X1591629Y214423D01*
X1591733Y214506D01*
X1591839Y214586D01*
X1591947Y214662D01*
X1592057Y214736D01*
X1592170Y214806D01*
X1592284Y214873D01*
X1592401Y214936D01*
X1592519Y214996D01*
X1592639Y215053D01*
X1592761Y215106D01*
X1592884Y215155D01*
X1593008Y215201D01*
X1593134Y215243D01*
X1593261Y215281D01*
X1593389Y215316D01*
X1593518Y215347D01*
X1593647Y215374D01*
X1593778Y215397D01*
X1593909Y215417D01*
X1594041Y215432D01*
X1594173Y215444D01*
X1594305Y215452D01*
X1594438Y215456D01*
X1594570Y215456D01*
X1594703Y215452D01*
X1594835Y215444D01*
X1594967Y215432D01*
X1595099Y215417D01*
X1595230Y215397D01*
X1595361Y215374D01*
X1595490Y215347D01*
X1595619Y215316D01*
X1595747Y215281D01*
X1595874Y215243D01*
X1596000Y215201D01*
X1596124Y215155D01*
X1596247Y215106D01*
X1596369Y215053D01*
X1596489Y214996D01*
X1596607Y214936D01*
X1596724Y214873D01*
X1596838Y214806D01*
X1596951Y214736D01*
X1597061Y214662D01*
X1597169Y214586D01*
X1597275Y214506D01*
X1597379Y214423D01*
X1597480Y214337D01*
X1597578Y214248D01*
X1597674Y214157D01*
X1597767Y214062D01*
X1597857Y213965D01*
X1597944Y213865D01*
X1598029Y213763D01*
X1598110Y213658D01*
X1598188Y213551D01*
X1598264Y213442D01*
X1598335Y213331D01*
X1598404Y213217D01*
X1598469Y213102D01*
X1598531Y212984D01*
X1598589Y212865D01*
X1598644Y212744D01*
X1598695Y212622D01*
X1598743Y212498D01*
X1598787Y212373D01*
X1598827Y212247D01*
X1598863Y212119D01*
X1598896Y211991D01*
X1598925Y211862D01*
X1598950Y211731D01*
X1598971Y211601D01*
X1598989Y211469D01*
X1599002Y211337D01*
X1599012Y211205D01*
X1599018Y211073D01*
X1599020Y210940D01*
X1599020Y206424D01*
X1599018Y206249D01*
X1599012Y206075D01*
X1599001Y205901D01*
X1598986Y205727D01*
X1598967Y205553D01*
X1598944Y205380D01*
X1598917Y205208D01*
X1598885Y205036D01*
X1598850Y204865D01*
X1598810Y204695D01*
X1598766Y204526D01*
X1598718Y204358D01*
X1598666Y204191D01*
X1598610Y204026D01*
X1598550Y203862D01*
X1598487Y203699D01*
X1598419Y203539D01*
X1598347Y203379D01*
X1598272Y203222D01*
X1598192Y203066D01*
X1598109Y202913D01*
X1598023Y202761D01*
X1597932Y202612D01*
X1597838Y202465D01*
X1597741Y202320D01*
X1597640Y202177D01*
X1597536Y202037D01*
X1597428Y201900D01*
X1597317Y201765D01*
X1597203Y201633D01*
X1597086Y201504D01*
X1596965Y201377D01*
X1596842Y201254D01*
X1596715Y201133D01*
X1596586Y201016D01*
X1596454Y200902D01*
X1596319Y200791D01*
X1596182Y200683D01*
X1596042Y200579D01*
X1595899Y200478D01*
X1595754Y200381D01*
X1595607Y200287D01*
X1595458Y200196D01*
X1595306Y200110D01*
X1595153Y200027D01*
X1594997Y199947D01*
X1594840Y199872D01*
X1594680Y199800D01*
X1594520Y199732D01*
X1594357Y199669D01*
X1594193Y199609D01*
X1594028Y199553D01*
X1593861Y199501D01*
X1593693Y199453D01*
X1593524Y199409D01*
X1593354Y199369D01*
X1593183Y199334D01*
X1593011Y199302D01*
X1592839Y199275D01*
X1592666Y199252D01*
X1592492Y199233D01*
X1592318Y199218D01*
X1592144Y199207D01*
X1591970Y199201D01*
X1591795Y199199D01*
X1605620Y199200D02*
X1611038Y199200D01*
X1611156Y199202D01*
X1611274Y199208D01*
X1611392Y199217D01*
X1611509Y199231D01*
X1611626Y199248D01*
X1611743Y199269D01*
X1611858Y199294D01*
X1611973Y199323D01*
X1612087Y199356D01*
X1612199Y199392D01*
X1612310Y199432D01*
X1612420Y199475D01*
X1612529Y199522D01*
X1612636Y199572D01*
X1612741Y199627D01*
X1612844Y199684D01*
X1612945Y199745D01*
X1613045Y199809D01*
X1613142Y199876D01*
X1613237Y199946D01*
X1613329Y200020D01*
X1613420Y200096D01*
X1613507Y200176D01*
X1613592Y200258D01*
X1613674Y200343D01*
X1613754Y200430D01*
X1613830Y200521D01*
X1613904Y200613D01*
X1613974Y200708D01*
X1614041Y200805D01*
X1614105Y200905D01*
X1614166Y201006D01*
X1614223Y201109D01*
X1614278Y201214D01*
X1614328Y201321D01*
X1614375Y201430D01*
X1614418Y201540D01*
X1614458Y201651D01*
X1614494Y201763D01*
X1614527Y201877D01*
X1614556Y201992D01*
X1614581Y202107D01*
X1614602Y202224D01*
X1614619Y202341D01*
X1614633Y202458D01*
X1614642Y202576D01*
X1614648Y202694D01*
X1614650Y202812D01*
X1614651Y202812D02*
X1614651Y204618D01*
X1614650Y204618D02*
X1614648Y204736D01*
X1614642Y204854D01*
X1614633Y204972D01*
X1614619Y205089D01*
X1614602Y205206D01*
X1614581Y205323D01*
X1614556Y205438D01*
X1614527Y205553D01*
X1614494Y205667D01*
X1614458Y205779D01*
X1614418Y205890D01*
X1614375Y206000D01*
X1614328Y206109D01*
X1614278Y206216D01*
X1614223Y206321D01*
X1614166Y206424D01*
X1614105Y206525D01*
X1614041Y206625D01*
X1613974Y206722D01*
X1613904Y206817D01*
X1613830Y206909D01*
X1613754Y207000D01*
X1613674Y207087D01*
X1613592Y207172D01*
X1613507Y207254D01*
X1613420Y207334D01*
X1613329Y207410D01*
X1613237Y207484D01*
X1613142Y207554D01*
X1613045Y207621D01*
X1612945Y207685D01*
X1612844Y207746D01*
X1612741Y207803D01*
X1612636Y207858D01*
X1612529Y207908D01*
X1612420Y207955D01*
X1612310Y207998D01*
X1612199Y208038D01*
X1612087Y208074D01*
X1611973Y208107D01*
X1611858Y208136D01*
X1611743Y208161D01*
X1611626Y208182D01*
X1611509Y208199D01*
X1611392Y208213D01*
X1611274Y208222D01*
X1611156Y208228D01*
X1611038Y208230D01*
X1611038Y208231D02*
X1605620Y208231D01*
X1605620Y215456D01*
X1614651Y215456D01*
X1621251Y203715D02*
X1621253Y203848D01*
X1621259Y203980D01*
X1621269Y204112D01*
X1621282Y204244D01*
X1621300Y204376D01*
X1621321Y204506D01*
X1621346Y204637D01*
X1621375Y204766D01*
X1621408Y204894D01*
X1621444Y205022D01*
X1621484Y205148D01*
X1621528Y205273D01*
X1621576Y205397D01*
X1621627Y205519D01*
X1621682Y205640D01*
X1621740Y205759D01*
X1621802Y205877D01*
X1621867Y205992D01*
X1621936Y206106D01*
X1622007Y206217D01*
X1622083Y206326D01*
X1622161Y206433D01*
X1622242Y206538D01*
X1622327Y206640D01*
X1622414Y206740D01*
X1622504Y206837D01*
X1622597Y206932D01*
X1622693Y207023D01*
X1622791Y207112D01*
X1622892Y207198D01*
X1622996Y207281D01*
X1623102Y207361D01*
X1623210Y207437D01*
X1623320Y207511D01*
X1623433Y207581D01*
X1623547Y207648D01*
X1623664Y207711D01*
X1623782Y207771D01*
X1623902Y207828D01*
X1624024Y207881D01*
X1624147Y207930D01*
X1624271Y207976D01*
X1624397Y208018D01*
X1624524Y208056D01*
X1624652Y208091D01*
X1624781Y208122D01*
X1624910Y208149D01*
X1625041Y208172D01*
X1625172Y208192D01*
X1625304Y208207D01*
X1625436Y208219D01*
X1625568Y208227D01*
X1625701Y208231D01*
X1625833Y208231D01*
X1625966Y208227D01*
X1626098Y208219D01*
X1626230Y208207D01*
X1626362Y208192D01*
X1626493Y208172D01*
X1626624Y208149D01*
X1626753Y208122D01*
X1626882Y208091D01*
X1627010Y208056D01*
X1627137Y208018D01*
X1627263Y207976D01*
X1627387Y207930D01*
X1627510Y207881D01*
X1627632Y207828D01*
X1627752Y207771D01*
X1627870Y207711D01*
X1627987Y207648D01*
X1628101Y207581D01*
X1628214Y207511D01*
X1628324Y207437D01*
X1628432Y207361D01*
X1628538Y207281D01*
X1628642Y207198D01*
X1628743Y207112D01*
X1628841Y207023D01*
X1628937Y206932D01*
X1629030Y206837D01*
X1629120Y206740D01*
X1629207Y206640D01*
X1629292Y206538D01*
X1629373Y206433D01*
X1629451Y206326D01*
X1629527Y206217D01*
X1629598Y206106D01*
X1629667Y205992D01*
X1629732Y205877D01*
X1629794Y205759D01*
X1629852Y205640D01*
X1629907Y205519D01*
X1629958Y205397D01*
X1630006Y205273D01*
X1630050Y205148D01*
X1630090Y205022D01*
X1630126Y204894D01*
X1630159Y204766D01*
X1630188Y204637D01*
X1630213Y204506D01*
X1630234Y204376D01*
X1630252Y204244D01*
X1630265Y204112D01*
X1630275Y203980D01*
X1630281Y203848D01*
X1630283Y203715D01*
X1630281Y203582D01*
X1630275Y203450D01*
X1630265Y203318D01*
X1630252Y203186D01*
X1630234Y203054D01*
X1630213Y202924D01*
X1630188Y202793D01*
X1630159Y202664D01*
X1630126Y202536D01*
X1630090Y202408D01*
X1630050Y202282D01*
X1630006Y202157D01*
X1629958Y202033D01*
X1629907Y201911D01*
X1629852Y201790D01*
X1629794Y201671D01*
X1629732Y201553D01*
X1629667Y201438D01*
X1629598Y201324D01*
X1629527Y201213D01*
X1629451Y201104D01*
X1629373Y200997D01*
X1629292Y200892D01*
X1629207Y200790D01*
X1629120Y200690D01*
X1629030Y200593D01*
X1628937Y200498D01*
X1628841Y200407D01*
X1628743Y200318D01*
X1628642Y200232D01*
X1628538Y200149D01*
X1628432Y200069D01*
X1628324Y199993D01*
X1628214Y199919D01*
X1628101Y199849D01*
X1627987Y199782D01*
X1627870Y199719D01*
X1627752Y199659D01*
X1627632Y199602D01*
X1627510Y199549D01*
X1627387Y199500D01*
X1627263Y199454D01*
X1627137Y199412D01*
X1627010Y199374D01*
X1626882Y199339D01*
X1626753Y199308D01*
X1626624Y199281D01*
X1626493Y199258D01*
X1626362Y199238D01*
X1626230Y199223D01*
X1626098Y199211D01*
X1625966Y199203D01*
X1625833Y199199D01*
X1625701Y199199D01*
X1625568Y199203D01*
X1625436Y199211D01*
X1625304Y199223D01*
X1625172Y199238D01*
X1625041Y199258D01*
X1624910Y199281D01*
X1624781Y199308D01*
X1624652Y199339D01*
X1624524Y199374D01*
X1624397Y199412D01*
X1624271Y199454D01*
X1624147Y199500D01*
X1624024Y199549D01*
X1623902Y199602D01*
X1623782Y199659D01*
X1623664Y199719D01*
X1623547Y199782D01*
X1623433Y199849D01*
X1623320Y199919D01*
X1623210Y199993D01*
X1623102Y200069D01*
X1622996Y200149D01*
X1622892Y200232D01*
X1622791Y200318D01*
X1622693Y200407D01*
X1622597Y200498D01*
X1622504Y200593D01*
X1622414Y200690D01*
X1622327Y200790D01*
X1622242Y200892D01*
X1622161Y200997D01*
X1622083Y201104D01*
X1622007Y201213D01*
X1621936Y201324D01*
X1621867Y201438D01*
X1621802Y201553D01*
X1621740Y201671D01*
X1621682Y201790D01*
X1621627Y201911D01*
X1621576Y202033D01*
X1621528Y202157D01*
X1621484Y202282D01*
X1621444Y202408D01*
X1621408Y202536D01*
X1621375Y202664D01*
X1621346Y202793D01*
X1621321Y202924D01*
X1621300Y203054D01*
X1621282Y203186D01*
X1621269Y203318D01*
X1621259Y203450D01*
X1621253Y203582D01*
X1621251Y203715D01*
X1622155Y211843D02*
X1622157Y211962D01*
X1622163Y212082D01*
X1622173Y212201D01*
X1622187Y212319D01*
X1622204Y212438D01*
X1622226Y212555D01*
X1622251Y212672D01*
X1622281Y212787D01*
X1622314Y212902D01*
X1622351Y213016D01*
X1622391Y213128D01*
X1622436Y213239D01*
X1622484Y213348D01*
X1622535Y213456D01*
X1622590Y213562D01*
X1622649Y213666D01*
X1622711Y213768D01*
X1622776Y213868D01*
X1622845Y213966D01*
X1622917Y214062D01*
X1622992Y214155D01*
X1623069Y214245D01*
X1623150Y214333D01*
X1623234Y214418D01*
X1623321Y214500D01*
X1623410Y214580D01*
X1623502Y214656D01*
X1623596Y214730D01*
X1623693Y214800D01*
X1623791Y214867D01*
X1623892Y214931D01*
X1623996Y214991D01*
X1624101Y215048D01*
X1624208Y215101D01*
X1624316Y215151D01*
X1624426Y215197D01*
X1624538Y215239D01*
X1624651Y215278D01*
X1624765Y215313D01*
X1624880Y215344D01*
X1624997Y215372D01*
X1625114Y215395D01*
X1625231Y215415D01*
X1625350Y215431D01*
X1625469Y215443D01*
X1625588Y215451D01*
X1625707Y215455D01*
X1625827Y215455D01*
X1625946Y215451D01*
X1626065Y215443D01*
X1626184Y215431D01*
X1626303Y215415D01*
X1626420Y215395D01*
X1626537Y215372D01*
X1626654Y215344D01*
X1626769Y215313D01*
X1626883Y215278D01*
X1626996Y215239D01*
X1627108Y215197D01*
X1627218Y215151D01*
X1627326Y215101D01*
X1627433Y215048D01*
X1627538Y214991D01*
X1627642Y214931D01*
X1627743Y214867D01*
X1627841Y214800D01*
X1627938Y214730D01*
X1628032Y214656D01*
X1628124Y214580D01*
X1628213Y214500D01*
X1628300Y214418D01*
X1628384Y214333D01*
X1628465Y214245D01*
X1628542Y214155D01*
X1628617Y214062D01*
X1628689Y213966D01*
X1628758Y213868D01*
X1628823Y213768D01*
X1628885Y213666D01*
X1628944Y213562D01*
X1628999Y213456D01*
X1629050Y213348D01*
X1629098Y213239D01*
X1629143Y213128D01*
X1629183Y213016D01*
X1629220Y212902D01*
X1629253Y212787D01*
X1629283Y212672D01*
X1629308Y212555D01*
X1629330Y212438D01*
X1629347Y212319D01*
X1629361Y212201D01*
X1629371Y212082D01*
X1629377Y211962D01*
X1629379Y211843D01*
X1629377Y211724D01*
X1629371Y211604D01*
X1629361Y211485D01*
X1629347Y211367D01*
X1629330Y211248D01*
X1629308Y211131D01*
X1629283Y211014D01*
X1629253Y210899D01*
X1629220Y210784D01*
X1629183Y210670D01*
X1629143Y210558D01*
X1629098Y210447D01*
X1629050Y210338D01*
X1628999Y210230D01*
X1628944Y210124D01*
X1628885Y210020D01*
X1628823Y209918D01*
X1628758Y209818D01*
X1628689Y209720D01*
X1628617Y209624D01*
X1628542Y209531D01*
X1628465Y209441D01*
X1628384Y209353D01*
X1628300Y209268D01*
X1628213Y209186D01*
X1628124Y209106D01*
X1628032Y209030D01*
X1627938Y208956D01*
X1627841Y208886D01*
X1627743Y208819D01*
X1627642Y208755D01*
X1627538Y208695D01*
X1627433Y208638D01*
X1627326Y208585D01*
X1627218Y208535D01*
X1627108Y208489D01*
X1626996Y208447D01*
X1626883Y208408D01*
X1626769Y208373D01*
X1626654Y208342D01*
X1626537Y208314D01*
X1626420Y208291D01*
X1626303Y208271D01*
X1626184Y208255D01*
X1626065Y208243D01*
X1625946Y208235D01*
X1625827Y208231D01*
X1625707Y208231D01*
X1625588Y208235D01*
X1625469Y208243D01*
X1625350Y208255D01*
X1625231Y208271D01*
X1625114Y208291D01*
X1624997Y208314D01*
X1624880Y208342D01*
X1624765Y208373D01*
X1624651Y208408D01*
X1624538Y208447D01*
X1624426Y208489D01*
X1624316Y208535D01*
X1624208Y208585D01*
X1624101Y208638D01*
X1623996Y208695D01*
X1623892Y208755D01*
X1623791Y208819D01*
X1623693Y208886D01*
X1623596Y208956D01*
X1623502Y209030D01*
X1623410Y209106D01*
X1623321Y209186D01*
X1623234Y209268D01*
X1623150Y209353D01*
X1623069Y209441D01*
X1622992Y209531D01*
X1622917Y209624D01*
X1622845Y209720D01*
X1622776Y209818D01*
X1622711Y209918D01*
X1622649Y210020D01*
X1622590Y210124D01*
X1622535Y210230D01*
X1622484Y210338D01*
X1622436Y210447D01*
X1622391Y210558D01*
X1622351Y210670D01*
X1622314Y210784D01*
X1622281Y210899D01*
X1622251Y211014D01*
X1622226Y211131D01*
X1622204Y211248D01*
X1622187Y211367D01*
X1622173Y211485D01*
X1622163Y211604D01*
X1622157Y211724D01*
X1622155Y211843D01*
X1636882Y199200D02*
X1642301Y199200D01*
X1642419Y199202D01*
X1642537Y199208D01*
X1642655Y199217D01*
X1642772Y199231D01*
X1642889Y199248D01*
X1643006Y199269D01*
X1643121Y199294D01*
X1643236Y199323D01*
X1643350Y199356D01*
X1643462Y199392D01*
X1643573Y199432D01*
X1643683Y199475D01*
X1643792Y199522D01*
X1643899Y199572D01*
X1644004Y199627D01*
X1644107Y199684D01*
X1644208Y199745D01*
X1644308Y199809D01*
X1644405Y199876D01*
X1644500Y199946D01*
X1644592Y200020D01*
X1644683Y200096D01*
X1644770Y200176D01*
X1644855Y200258D01*
X1644937Y200343D01*
X1645017Y200430D01*
X1645093Y200521D01*
X1645167Y200613D01*
X1645237Y200708D01*
X1645304Y200805D01*
X1645368Y200905D01*
X1645429Y201006D01*
X1645486Y201109D01*
X1645541Y201214D01*
X1645591Y201321D01*
X1645638Y201430D01*
X1645681Y201540D01*
X1645721Y201651D01*
X1645757Y201763D01*
X1645790Y201877D01*
X1645819Y201992D01*
X1645844Y202107D01*
X1645865Y202224D01*
X1645882Y202341D01*
X1645896Y202458D01*
X1645905Y202576D01*
X1645911Y202694D01*
X1645913Y202812D01*
X1645913Y204618D01*
X1645911Y204736D01*
X1645905Y204854D01*
X1645896Y204972D01*
X1645882Y205089D01*
X1645865Y205206D01*
X1645844Y205323D01*
X1645819Y205438D01*
X1645790Y205553D01*
X1645757Y205667D01*
X1645721Y205779D01*
X1645681Y205890D01*
X1645638Y206000D01*
X1645591Y206109D01*
X1645541Y206216D01*
X1645486Y206321D01*
X1645429Y206424D01*
X1645368Y206525D01*
X1645304Y206625D01*
X1645237Y206722D01*
X1645167Y206817D01*
X1645093Y206909D01*
X1645017Y207000D01*
X1644937Y207087D01*
X1644855Y207172D01*
X1644770Y207254D01*
X1644683Y207334D01*
X1644592Y207410D01*
X1644500Y207484D01*
X1644405Y207554D01*
X1644308Y207621D01*
X1644208Y207685D01*
X1644107Y207746D01*
X1644004Y207803D01*
X1643899Y207858D01*
X1643792Y207908D01*
X1643683Y207955D01*
X1643573Y207998D01*
X1643462Y208038D01*
X1643350Y208074D01*
X1643236Y208107D01*
X1643121Y208136D01*
X1643006Y208161D01*
X1642889Y208182D01*
X1642772Y208199D01*
X1642655Y208213D01*
X1642537Y208222D01*
X1642419Y208228D01*
X1642301Y208230D01*
X1642301Y208231D02*
X1636882Y208231D01*
X1636882Y215456D01*
X1645913Y215456D01*
X1652513Y215456D02*
X1652513Y213649D01*
X1652513Y215456D02*
X1661545Y215456D01*
X1657029Y199200D01*
D11*
X1265963Y310625D03*
X1265963Y324375D03*
D12*
X1269838Y317500D03*
D13*
X1198495Y311658D02*
X1198495Y323342D01*
X1201741Y323342D01*
X1201854Y323340D01*
X1201967Y323334D01*
X1202080Y323324D01*
X1202193Y323310D01*
X1202305Y323293D01*
X1202416Y323271D01*
X1202526Y323246D01*
X1202636Y323216D01*
X1202744Y323183D01*
X1202851Y323146D01*
X1202957Y323106D01*
X1203061Y323061D01*
X1203164Y323013D01*
X1203265Y322962D01*
X1203364Y322907D01*
X1203461Y322849D01*
X1203556Y322787D01*
X1203649Y322722D01*
X1203739Y322654D01*
X1203827Y322583D01*
X1203913Y322508D01*
X1203996Y322431D01*
X1204076Y322351D01*
X1204153Y322268D01*
X1204228Y322182D01*
X1204299Y322094D01*
X1204367Y322004D01*
X1204432Y321911D01*
X1204494Y321816D01*
X1204552Y321719D01*
X1204607Y321620D01*
X1204658Y321519D01*
X1204706Y321416D01*
X1204751Y321312D01*
X1204791Y321206D01*
X1204828Y321099D01*
X1204861Y320991D01*
X1204891Y320881D01*
X1204916Y320771D01*
X1204938Y320660D01*
X1204955Y320548D01*
X1204969Y320435D01*
X1204979Y320322D01*
X1204985Y320209D01*
X1204987Y320096D01*
X1204985Y319983D01*
X1204979Y319870D01*
X1204969Y319757D01*
X1204955Y319644D01*
X1204938Y319532D01*
X1204916Y319421D01*
X1204891Y319311D01*
X1204861Y319201D01*
X1204828Y319093D01*
X1204791Y318986D01*
X1204751Y318880D01*
X1204706Y318776D01*
X1204658Y318673D01*
X1204607Y318572D01*
X1204552Y318473D01*
X1204494Y318376D01*
X1204432Y318281D01*
X1204367Y318188D01*
X1204299Y318098D01*
X1204228Y318010D01*
X1204153Y317924D01*
X1204076Y317841D01*
X1203996Y317761D01*
X1203913Y317684D01*
X1203827Y317609D01*
X1203739Y317538D01*
X1203649Y317470D01*
X1203556Y317405D01*
X1203461Y317343D01*
X1203364Y317285D01*
X1203265Y317230D01*
X1203164Y317179D01*
X1203061Y317131D01*
X1202957Y317086D01*
X1202851Y317046D01*
X1202744Y317009D01*
X1202636Y316976D01*
X1202526Y316946D01*
X1202416Y316921D01*
X1202305Y316899D01*
X1202193Y316882D01*
X1202080Y316868D01*
X1201967Y316858D01*
X1201854Y316852D01*
X1201741Y316850D01*
X1201741Y316851D02*
X1198495Y316851D01*
X1202390Y316851D02*
X1204986Y311658D01*
X1210255Y311658D02*
X1215448Y311658D01*
X1210255Y311658D02*
X1210255Y323342D01*
X1215448Y323342D01*
X1214150Y318149D02*
X1210255Y318149D01*
X1220138Y323342D02*
X1220138Y311658D01*
X1220138Y323342D02*
X1223384Y323342D01*
X1223497Y323340D01*
X1223610Y323334D01*
X1223723Y323324D01*
X1223836Y323310D01*
X1223948Y323293D01*
X1224059Y323271D01*
X1224169Y323246D01*
X1224279Y323216D01*
X1224387Y323183D01*
X1224494Y323146D01*
X1224600Y323106D01*
X1224704Y323061D01*
X1224807Y323013D01*
X1224908Y322962D01*
X1225007Y322907D01*
X1225104Y322849D01*
X1225199Y322787D01*
X1225292Y322722D01*
X1225382Y322654D01*
X1225470Y322583D01*
X1225556Y322508D01*
X1225639Y322431D01*
X1225719Y322351D01*
X1225796Y322268D01*
X1225871Y322182D01*
X1225942Y322094D01*
X1226010Y322004D01*
X1226075Y321911D01*
X1226137Y321816D01*
X1226195Y321719D01*
X1226250Y321620D01*
X1226301Y321519D01*
X1226349Y321416D01*
X1226394Y321312D01*
X1226434Y321206D01*
X1226471Y321099D01*
X1226504Y320991D01*
X1226534Y320881D01*
X1226559Y320771D01*
X1226581Y320660D01*
X1226598Y320548D01*
X1226612Y320435D01*
X1226622Y320322D01*
X1226628Y320209D01*
X1226630Y320096D01*
X1226630Y314904D01*
X1226628Y314791D01*
X1226622Y314678D01*
X1226612Y314565D01*
X1226598Y314452D01*
X1226581Y314340D01*
X1226559Y314229D01*
X1226534Y314119D01*
X1226504Y314009D01*
X1226471Y313901D01*
X1226434Y313794D01*
X1226394Y313688D01*
X1226349Y313584D01*
X1226301Y313481D01*
X1226250Y313380D01*
X1226195Y313281D01*
X1226137Y313184D01*
X1226075Y313089D01*
X1226010Y312996D01*
X1225942Y312906D01*
X1225871Y312818D01*
X1225796Y312732D01*
X1225719Y312649D01*
X1225639Y312569D01*
X1225556Y312492D01*
X1225470Y312417D01*
X1225382Y312346D01*
X1225292Y312278D01*
X1225199Y312213D01*
X1225104Y312151D01*
X1225007Y312093D01*
X1224908Y312038D01*
X1224807Y311987D01*
X1224704Y311939D01*
X1224600Y311894D01*
X1224494Y311854D01*
X1224387Y311817D01*
X1224279Y311784D01*
X1224169Y311754D01*
X1224059Y311729D01*
X1223948Y311707D01*
X1223836Y311690D01*
X1223723Y311676D01*
X1223610Y311666D01*
X1223497Y311660D01*
X1223384Y311658D01*
X1220138Y311658D01*
D11*
X1265963Y285225D03*
X1265963Y298975D03*
D12*
X1269838Y292100D03*
D13*
X1212198Y296355D02*
X1212198Y284671D01*
X1210900Y284671D02*
X1213496Y284671D01*
X1213496Y296355D02*
X1210900Y296355D01*
X1218551Y296355D02*
X1218551Y284671D01*
X1218551Y296355D02*
X1221796Y296355D01*
X1221909Y296353D01*
X1222022Y296347D01*
X1222135Y296337D01*
X1222248Y296323D01*
X1222360Y296306D01*
X1222471Y296284D01*
X1222581Y296259D01*
X1222691Y296229D01*
X1222799Y296196D01*
X1222906Y296159D01*
X1223012Y296119D01*
X1223116Y296074D01*
X1223219Y296026D01*
X1223320Y295975D01*
X1223419Y295920D01*
X1223516Y295862D01*
X1223611Y295800D01*
X1223704Y295735D01*
X1223794Y295667D01*
X1223882Y295596D01*
X1223968Y295521D01*
X1224051Y295444D01*
X1224131Y295364D01*
X1224208Y295281D01*
X1224283Y295195D01*
X1224354Y295107D01*
X1224422Y295017D01*
X1224487Y294924D01*
X1224549Y294829D01*
X1224607Y294732D01*
X1224662Y294633D01*
X1224713Y294532D01*
X1224761Y294429D01*
X1224806Y294325D01*
X1224846Y294219D01*
X1224883Y294112D01*
X1224916Y294004D01*
X1224946Y293894D01*
X1224971Y293784D01*
X1224993Y293673D01*
X1225010Y293561D01*
X1225024Y293448D01*
X1225034Y293335D01*
X1225040Y293222D01*
X1225042Y293109D01*
X1225040Y292996D01*
X1225034Y292883D01*
X1225024Y292770D01*
X1225010Y292657D01*
X1224993Y292545D01*
X1224971Y292434D01*
X1224946Y292324D01*
X1224916Y292214D01*
X1224883Y292106D01*
X1224846Y291999D01*
X1224806Y291893D01*
X1224761Y291789D01*
X1224713Y291686D01*
X1224662Y291585D01*
X1224607Y291486D01*
X1224549Y291389D01*
X1224487Y291294D01*
X1224422Y291201D01*
X1224354Y291111D01*
X1224283Y291023D01*
X1224208Y290937D01*
X1224131Y290854D01*
X1224051Y290774D01*
X1223968Y290697D01*
X1223882Y290622D01*
X1223794Y290551D01*
X1223704Y290483D01*
X1223611Y290418D01*
X1223516Y290356D01*
X1223419Y290298D01*
X1223320Y290243D01*
X1223219Y290192D01*
X1223116Y290144D01*
X1223012Y290099D01*
X1222906Y290059D01*
X1222799Y290022D01*
X1222691Y289989D01*
X1222581Y289959D01*
X1222471Y289934D01*
X1222360Y289912D01*
X1222248Y289895D01*
X1222135Y289881D01*
X1222022Y289871D01*
X1221909Y289865D01*
X1221796Y289863D01*
X1218551Y289863D01*
X1222446Y289863D02*
X1225042Y284671D01*
D10*
X460375Y278130D02*
X460373Y278030D01*
X460367Y277931D01*
X460357Y277831D01*
X460344Y277733D01*
X460326Y277634D01*
X460305Y277537D01*
X460280Y277441D01*
X460251Y277345D01*
X460218Y277251D01*
X460182Y277158D01*
X460142Y277067D01*
X460098Y276977D01*
X460051Y276889D01*
X460001Y276803D01*
X459947Y276719D01*
X459890Y276637D01*
X459830Y276558D01*
X459766Y276480D01*
X459700Y276406D01*
X459631Y276334D01*
X459559Y276265D01*
X459485Y276199D01*
X459407Y276135D01*
X459328Y276075D01*
X459246Y276018D01*
X459162Y275964D01*
X459076Y275914D01*
X458988Y275867D01*
X458898Y275823D01*
X458807Y275783D01*
X458714Y275747D01*
X458620Y275714D01*
X458524Y275685D01*
X458428Y275660D01*
X458331Y275639D01*
X458232Y275621D01*
X458134Y275608D01*
X458034Y275598D01*
X457935Y275592D01*
X457835Y275590D01*
X460375Y293370D02*
X460373Y293470D01*
X460367Y293569D01*
X460357Y293669D01*
X460344Y293767D01*
X460326Y293866D01*
X460305Y293963D01*
X460280Y294059D01*
X460251Y294155D01*
X460218Y294249D01*
X460182Y294342D01*
X460142Y294433D01*
X460098Y294523D01*
X460051Y294611D01*
X460001Y294697D01*
X459947Y294781D01*
X459890Y294863D01*
X459830Y294942D01*
X459766Y295020D01*
X459700Y295094D01*
X459631Y295166D01*
X459559Y295235D01*
X459485Y295301D01*
X459407Y295365D01*
X459328Y295425D01*
X459246Y295482D01*
X459162Y295536D01*
X459076Y295586D01*
X458988Y295633D01*
X458898Y295677D01*
X458807Y295717D01*
X458714Y295753D01*
X458620Y295786D01*
X458524Y295815D01*
X458428Y295840D01*
X458331Y295861D01*
X458232Y295879D01*
X458134Y295892D01*
X458034Y295902D01*
X457935Y295908D01*
X457835Y295910D01*
X412115Y295910D02*
X412015Y295908D01*
X411916Y295902D01*
X411816Y295892D01*
X411718Y295879D01*
X411619Y295861D01*
X411522Y295840D01*
X411426Y295815D01*
X411330Y295786D01*
X411236Y295753D01*
X411143Y295717D01*
X411052Y295677D01*
X410962Y295633D01*
X410874Y295586D01*
X410788Y295536D01*
X410704Y295482D01*
X410622Y295425D01*
X410543Y295365D01*
X410465Y295301D01*
X410391Y295235D01*
X410319Y295166D01*
X410250Y295094D01*
X410184Y295020D01*
X410120Y294942D01*
X410060Y294863D01*
X410003Y294781D01*
X409949Y294697D01*
X409899Y294611D01*
X409852Y294523D01*
X409808Y294433D01*
X409768Y294342D01*
X409732Y294249D01*
X409699Y294155D01*
X409670Y294059D01*
X409645Y293963D01*
X409624Y293866D01*
X409606Y293767D01*
X409593Y293669D01*
X409583Y293569D01*
X409577Y293470D01*
X409575Y293370D01*
X409575Y278130D02*
X409577Y278030D01*
X409583Y277931D01*
X409593Y277831D01*
X409606Y277733D01*
X409624Y277634D01*
X409645Y277537D01*
X409670Y277441D01*
X409699Y277345D01*
X409732Y277251D01*
X409768Y277158D01*
X409808Y277067D01*
X409852Y276977D01*
X409899Y276889D01*
X409949Y276803D01*
X410003Y276719D01*
X410060Y276637D01*
X410120Y276558D01*
X410184Y276480D01*
X410250Y276406D01*
X410319Y276334D01*
X410391Y276265D01*
X410465Y276199D01*
X410543Y276135D01*
X410622Y276075D01*
X410704Y276018D01*
X410788Y275964D01*
X410874Y275914D01*
X410962Y275867D01*
X411052Y275823D01*
X411143Y275783D01*
X411236Y275747D01*
X411330Y275714D01*
X411426Y275685D01*
X411522Y275660D01*
X411619Y275639D01*
X411718Y275621D01*
X411816Y275608D01*
X411916Y275598D01*
X412015Y275592D01*
X412115Y275590D01*
X460375Y278130D02*
X460375Y293370D01*
X457835Y275590D02*
X454025Y275590D01*
X452755Y276860D01*
X454025Y295910D02*
X457835Y295910D01*
X454025Y295910D02*
X452755Y294640D01*
X417195Y276860D02*
X415925Y275590D01*
X417195Y276860D02*
X452755Y276860D01*
X417195Y294640D02*
X415925Y295910D01*
X417195Y294640D02*
X452755Y294640D01*
X415925Y275590D02*
X412115Y275590D01*
X412115Y295910D02*
X415925Y295910D01*
X409575Y293370D02*
X409575Y278130D01*
D14*
X407670Y285750D03*
X462280Y285750D03*
D10*
X457835Y300990D02*
X457935Y300992D01*
X458034Y300998D01*
X458134Y301008D01*
X458232Y301021D01*
X458331Y301039D01*
X458428Y301060D01*
X458524Y301085D01*
X458620Y301114D01*
X458714Y301147D01*
X458807Y301183D01*
X458898Y301223D01*
X458988Y301267D01*
X459076Y301314D01*
X459162Y301364D01*
X459246Y301418D01*
X459328Y301475D01*
X459407Y301535D01*
X459485Y301599D01*
X459559Y301665D01*
X459631Y301734D01*
X459700Y301806D01*
X459766Y301880D01*
X459830Y301958D01*
X459890Y302037D01*
X459947Y302119D01*
X460001Y302203D01*
X460051Y302289D01*
X460098Y302377D01*
X460142Y302467D01*
X460182Y302558D01*
X460218Y302651D01*
X460251Y302745D01*
X460280Y302841D01*
X460305Y302937D01*
X460326Y303034D01*
X460344Y303133D01*
X460357Y303231D01*
X460367Y303331D01*
X460373Y303430D01*
X460375Y303530D01*
X460375Y318770D02*
X460373Y318870D01*
X460367Y318969D01*
X460357Y319069D01*
X460344Y319167D01*
X460326Y319266D01*
X460305Y319363D01*
X460280Y319459D01*
X460251Y319555D01*
X460218Y319649D01*
X460182Y319742D01*
X460142Y319833D01*
X460098Y319923D01*
X460051Y320011D01*
X460001Y320097D01*
X459947Y320181D01*
X459890Y320263D01*
X459830Y320342D01*
X459766Y320420D01*
X459700Y320494D01*
X459631Y320566D01*
X459559Y320635D01*
X459485Y320701D01*
X459407Y320765D01*
X459328Y320825D01*
X459246Y320882D01*
X459162Y320936D01*
X459076Y320986D01*
X458988Y321033D01*
X458898Y321077D01*
X458807Y321117D01*
X458714Y321153D01*
X458620Y321186D01*
X458524Y321215D01*
X458428Y321240D01*
X458331Y321261D01*
X458232Y321279D01*
X458134Y321292D01*
X458034Y321302D01*
X457935Y321308D01*
X457835Y321310D01*
X412115Y321310D02*
X412015Y321308D01*
X411916Y321302D01*
X411816Y321292D01*
X411718Y321279D01*
X411619Y321261D01*
X411522Y321240D01*
X411426Y321215D01*
X411330Y321186D01*
X411236Y321153D01*
X411143Y321117D01*
X411052Y321077D01*
X410962Y321033D01*
X410874Y320986D01*
X410788Y320936D01*
X410704Y320882D01*
X410622Y320825D01*
X410543Y320765D01*
X410465Y320701D01*
X410391Y320635D01*
X410319Y320566D01*
X410250Y320494D01*
X410184Y320420D01*
X410120Y320342D01*
X410060Y320263D01*
X410003Y320181D01*
X409949Y320097D01*
X409899Y320011D01*
X409852Y319923D01*
X409808Y319833D01*
X409768Y319742D01*
X409732Y319649D01*
X409699Y319555D01*
X409670Y319459D01*
X409645Y319363D01*
X409624Y319266D01*
X409606Y319167D01*
X409593Y319069D01*
X409583Y318969D01*
X409577Y318870D01*
X409575Y318770D01*
X409575Y303530D02*
X409577Y303430D01*
X409583Y303331D01*
X409593Y303231D01*
X409606Y303133D01*
X409624Y303034D01*
X409645Y302937D01*
X409670Y302841D01*
X409699Y302745D01*
X409732Y302651D01*
X409768Y302558D01*
X409808Y302467D01*
X409852Y302377D01*
X409899Y302289D01*
X409949Y302203D01*
X410003Y302119D01*
X410060Y302037D01*
X410120Y301958D01*
X410184Y301880D01*
X410250Y301806D01*
X410319Y301734D01*
X410391Y301665D01*
X410465Y301599D01*
X410543Y301535D01*
X410622Y301475D01*
X410704Y301418D01*
X410788Y301364D01*
X410874Y301314D01*
X410962Y301267D01*
X411052Y301223D01*
X411143Y301183D01*
X411236Y301147D01*
X411330Y301114D01*
X411426Y301085D01*
X411522Y301060D01*
X411619Y301039D01*
X411718Y301021D01*
X411816Y301008D01*
X411916Y300998D01*
X412015Y300992D01*
X412115Y300990D01*
X460375Y303530D02*
X460375Y318770D01*
X457835Y300990D02*
X454025Y300990D01*
X452755Y302260D01*
X454025Y321310D02*
X457835Y321310D01*
X454025Y321310D02*
X452755Y320040D01*
X417195Y302260D02*
X415925Y300990D01*
X417195Y302260D02*
X452755Y302260D01*
X417195Y320040D02*
X415925Y321310D01*
X417195Y320040D02*
X452755Y320040D01*
X415925Y300990D02*
X412115Y300990D01*
X412115Y321310D02*
X415925Y321310D01*
X409575Y318770D02*
X409575Y303530D01*
D14*
X407670Y311150D03*
X462280Y311150D03*
D10*
X973138Y358775D02*
X979488Y365125D01*
X992188Y365125D01*
X998538Y358775D01*
X998538Y346075D01*
X992188Y339725D01*
X979488Y339725D01*
X973138Y346075D01*
X941388Y365125D02*
X928688Y365125D01*
X941388Y365125D02*
X947738Y358775D01*
X947738Y346075D01*
X941388Y339725D01*
X947738Y358775D02*
X954088Y365125D01*
X966788Y365125D01*
X973138Y358775D01*
X973138Y346075D01*
X966788Y339725D01*
X954088Y339725D01*
X947738Y346075D01*
X922338Y346075D02*
X922338Y358775D01*
X928688Y365125D01*
X922338Y346075D02*
X928688Y339725D01*
X941388Y339725D01*
X1004888Y365125D02*
X1017588Y365125D01*
X1023938Y358775D01*
X1023938Y346075D01*
X1017588Y339725D01*
X998538Y358775D02*
X1004888Y365125D01*
X998538Y346075D02*
X1004888Y339725D01*
X1017588Y339725D01*
D15*
X900303Y272923D02*
X895223Y272923D01*
X895112Y272925D01*
X895002Y272931D01*
X894891Y272940D01*
X894781Y272954D01*
X894672Y272971D01*
X894563Y272992D01*
X894455Y273017D01*
X894348Y273046D01*
X894242Y273078D01*
X894137Y273114D01*
X894034Y273154D01*
X893932Y273197D01*
X893831Y273244D01*
X893732Y273295D01*
X893636Y273348D01*
X893541Y273405D01*
X893448Y273466D01*
X893357Y273529D01*
X893268Y273596D01*
X893182Y273666D01*
X893099Y273739D01*
X893017Y273814D01*
X892939Y273892D01*
X892864Y273974D01*
X892791Y274057D01*
X892721Y274143D01*
X892654Y274232D01*
X892591Y274323D01*
X892530Y274416D01*
X892473Y274511D01*
X892420Y274607D01*
X892369Y274706D01*
X892322Y274807D01*
X892279Y274909D01*
X892239Y275012D01*
X892203Y275117D01*
X892171Y275223D01*
X892142Y275330D01*
X892117Y275438D01*
X892096Y275547D01*
X892079Y275656D01*
X892065Y275766D01*
X892056Y275877D01*
X892050Y275987D01*
X892048Y276098D01*
X892050Y276209D01*
X892056Y276319D01*
X892065Y276430D01*
X892079Y276540D01*
X892096Y276649D01*
X892117Y276758D01*
X892142Y276866D01*
X892171Y276973D01*
X892203Y277079D01*
X892239Y277184D01*
X892279Y277287D01*
X892322Y277389D01*
X892369Y277490D01*
X892420Y277589D01*
X892473Y277686D01*
X892530Y277780D01*
X892591Y277873D01*
X892654Y277964D01*
X892721Y278053D01*
X892791Y278139D01*
X892864Y278222D01*
X892939Y278304D01*
X893017Y278382D01*
X893099Y278457D01*
X893182Y278530D01*
X893268Y278600D01*
X893357Y278667D01*
X893448Y278730D01*
X893541Y278791D01*
X893636Y278848D01*
X893732Y278901D01*
X893831Y278952D01*
X893932Y278999D01*
X894034Y279042D01*
X894137Y279082D01*
X894242Y279118D01*
X894348Y279150D01*
X894455Y279179D01*
X894563Y279204D01*
X894672Y279225D01*
X894781Y279242D01*
X894891Y279256D01*
X895002Y279265D01*
X895112Y279271D01*
X895223Y279273D01*
X900303Y279273D01*
X900414Y279271D01*
X900524Y279265D01*
X900635Y279256D01*
X900745Y279242D01*
X900854Y279225D01*
X900963Y279204D01*
X901071Y279179D01*
X901178Y279150D01*
X901284Y279118D01*
X901389Y279082D01*
X901492Y279042D01*
X901594Y278999D01*
X901695Y278952D01*
X901794Y278901D01*
X901891Y278848D01*
X901985Y278791D01*
X902078Y278730D01*
X902169Y278667D01*
X902258Y278600D01*
X902344Y278530D01*
X902427Y278457D01*
X902509Y278382D01*
X902587Y278304D01*
X902662Y278222D01*
X902735Y278139D01*
X902805Y278053D01*
X902872Y277964D01*
X902935Y277873D01*
X902996Y277780D01*
X903053Y277685D01*
X903106Y277589D01*
X903157Y277490D01*
X903204Y277389D01*
X903247Y277287D01*
X903287Y277184D01*
X903323Y277079D01*
X903355Y276973D01*
X903384Y276866D01*
X903409Y276758D01*
X903430Y276649D01*
X903447Y276540D01*
X903461Y276430D01*
X903470Y276319D01*
X903476Y276209D01*
X903478Y276098D01*
X903476Y275987D01*
X903470Y275877D01*
X903461Y275766D01*
X903447Y275656D01*
X903430Y275547D01*
X903409Y275438D01*
X903384Y275330D01*
X903355Y275223D01*
X903323Y275117D01*
X903287Y275012D01*
X903247Y274909D01*
X903204Y274807D01*
X903157Y274706D01*
X903106Y274607D01*
X903053Y274510D01*
X902996Y274416D01*
X902935Y274323D01*
X902872Y274232D01*
X902805Y274143D01*
X902735Y274057D01*
X902662Y273974D01*
X902587Y273892D01*
X902509Y273814D01*
X902427Y273739D01*
X902344Y273666D01*
X902258Y273596D01*
X902169Y273529D01*
X902078Y273466D01*
X901985Y273405D01*
X901891Y273348D01*
X901794Y273295D01*
X901695Y273244D01*
X901594Y273197D01*
X901492Y273154D01*
X901389Y273114D01*
X901284Y273078D01*
X901178Y273046D01*
X901071Y273017D01*
X900963Y272992D01*
X900854Y272971D01*
X900745Y272954D01*
X900635Y272940D01*
X900524Y272931D01*
X900414Y272925D01*
X900303Y272923D01*
X903478Y284925D02*
X892048Y284925D01*
X892048Y288100D01*
X892050Y288211D01*
X892056Y288321D01*
X892065Y288432D01*
X892079Y288542D01*
X892096Y288651D01*
X892117Y288760D01*
X892142Y288868D01*
X892171Y288975D01*
X892203Y289081D01*
X892239Y289186D01*
X892279Y289289D01*
X892322Y289391D01*
X892369Y289492D01*
X892420Y289591D01*
X892473Y289688D01*
X892530Y289782D01*
X892591Y289875D01*
X892654Y289966D01*
X892721Y290055D01*
X892791Y290141D01*
X892864Y290224D01*
X892939Y290306D01*
X893017Y290384D01*
X893099Y290459D01*
X893182Y290532D01*
X893268Y290602D01*
X893357Y290669D01*
X893448Y290732D01*
X893541Y290793D01*
X893636Y290850D01*
X893732Y290903D01*
X893831Y290954D01*
X893932Y291001D01*
X894034Y291044D01*
X894137Y291084D01*
X894242Y291120D01*
X894348Y291152D01*
X894455Y291181D01*
X894563Y291206D01*
X894672Y291227D01*
X894781Y291244D01*
X894891Y291258D01*
X895002Y291267D01*
X895112Y291273D01*
X895223Y291275D01*
X895334Y291273D01*
X895444Y291267D01*
X895555Y291258D01*
X895665Y291244D01*
X895774Y291227D01*
X895883Y291206D01*
X895991Y291181D01*
X896098Y291152D01*
X896204Y291120D01*
X896309Y291084D01*
X896412Y291044D01*
X896514Y291001D01*
X896615Y290954D01*
X896714Y290903D01*
X896811Y290850D01*
X896905Y290793D01*
X896998Y290732D01*
X897089Y290669D01*
X897178Y290602D01*
X897264Y290532D01*
X897347Y290459D01*
X897429Y290384D01*
X897507Y290306D01*
X897582Y290224D01*
X897655Y290141D01*
X897725Y290055D01*
X897792Y289966D01*
X897855Y289875D01*
X897916Y289782D01*
X897973Y289688D01*
X898026Y289591D01*
X898077Y289492D01*
X898124Y289391D01*
X898167Y289289D01*
X898207Y289186D01*
X898243Y289081D01*
X898275Y288975D01*
X898304Y288868D01*
X898329Y288760D01*
X898350Y288651D01*
X898367Y288542D01*
X898381Y288432D01*
X898390Y288321D01*
X898396Y288211D01*
X898398Y288100D01*
X898398Y284925D01*
X903478Y298196D02*
X892048Y298196D01*
X892048Y295021D02*
X892048Y301371D01*
X894588Y305689D02*
X892048Y308864D01*
X903478Y308864D01*
X903478Y305689D02*
X903478Y312039D01*
X897763Y317119D02*
X897538Y317122D01*
X897313Y317130D01*
X897089Y317143D01*
X896865Y317162D01*
X896641Y317186D01*
X896418Y317215D01*
X896196Y317250D01*
X895975Y317290D01*
X895755Y317336D01*
X895536Y317386D01*
X895318Y317442D01*
X895101Y317503D01*
X894886Y317569D01*
X894673Y317640D01*
X894462Y317717D01*
X894252Y317798D01*
X894044Y317884D01*
X893839Y317975D01*
X893636Y318071D01*
X893548Y318103D01*
X893461Y318139D01*
X893375Y318178D01*
X893291Y318221D01*
X893209Y318267D01*
X893129Y318316D01*
X893051Y318368D01*
X892975Y318424D01*
X892901Y318482D01*
X892830Y318544D01*
X892761Y318608D01*
X892695Y318675D01*
X892632Y318744D01*
X892571Y318816D01*
X892513Y318890D01*
X892459Y318967D01*
X892407Y319045D01*
X892359Y319126D01*
X892314Y319208D01*
X892272Y319293D01*
X892234Y319379D01*
X892199Y319466D01*
X892167Y319554D01*
X892140Y319644D01*
X892115Y319735D01*
X892095Y319827D01*
X892078Y319919D01*
X892065Y320013D01*
X892056Y320106D01*
X892050Y320200D01*
X892048Y320294D01*
X892050Y320388D01*
X892056Y320482D01*
X892065Y320575D01*
X892078Y320669D01*
X892095Y320761D01*
X892115Y320853D01*
X892140Y320944D01*
X892167Y321034D01*
X892199Y321122D01*
X892234Y321209D01*
X892272Y321295D01*
X892314Y321380D01*
X892359Y321462D01*
X892407Y321543D01*
X892459Y321621D01*
X892513Y321698D01*
X892571Y321772D01*
X892632Y321844D01*
X892695Y321913D01*
X892761Y321980D01*
X892830Y322044D01*
X892901Y322106D01*
X892975Y322164D01*
X893051Y322220D01*
X893129Y322272D01*
X893209Y322321D01*
X893291Y322367D01*
X893375Y322410D01*
X893461Y322449D01*
X893548Y322485D01*
X893636Y322517D01*
X893839Y322613D01*
X894044Y322704D01*
X894252Y322790D01*
X894462Y322871D01*
X894673Y322948D01*
X894886Y323019D01*
X895101Y323085D01*
X895318Y323146D01*
X895536Y323202D01*
X895755Y323252D01*
X895975Y323298D01*
X896196Y323338D01*
X896418Y323373D01*
X896641Y323402D01*
X896865Y323426D01*
X897089Y323445D01*
X897313Y323458D01*
X897538Y323466D01*
X897763Y323469D01*
X897763Y317119D02*
X897988Y317122D01*
X898213Y317130D01*
X898437Y317143D01*
X898661Y317162D01*
X898885Y317186D01*
X899108Y317215D01*
X899330Y317250D01*
X899551Y317290D01*
X899771Y317336D01*
X899990Y317386D01*
X900208Y317442D01*
X900425Y317503D01*
X900640Y317569D01*
X900853Y317640D01*
X901064Y317717D01*
X901274Y317798D01*
X901482Y317884D01*
X901687Y317975D01*
X901890Y318071D01*
X901891Y318071D02*
X901979Y318103D01*
X902066Y318139D01*
X902152Y318178D01*
X902236Y318221D01*
X902318Y318267D01*
X902398Y318316D01*
X902476Y318368D01*
X902552Y318424D01*
X902626Y318482D01*
X902697Y318544D01*
X902766Y318608D01*
X902832Y318675D01*
X902895Y318744D01*
X902956Y318816D01*
X903014Y318890D01*
X903068Y318967D01*
X903120Y319045D01*
X903168Y319126D01*
X903213Y319208D01*
X903255Y319293D01*
X903293Y319379D01*
X903328Y319466D01*
X903360Y319554D01*
X903387Y319644D01*
X903412Y319735D01*
X903432Y319827D01*
X903449Y319919D01*
X903462Y320013D01*
X903471Y320106D01*
X903477Y320200D01*
X903479Y320294D01*
X901890Y322517D02*
X901687Y322613D01*
X901482Y322704D01*
X901274Y322790D01*
X901064Y322871D01*
X900853Y322948D01*
X900640Y323019D01*
X900425Y323085D01*
X900208Y323146D01*
X899990Y323202D01*
X899771Y323252D01*
X899551Y323298D01*
X899330Y323338D01*
X899108Y323373D01*
X898885Y323402D01*
X898661Y323426D01*
X898437Y323445D01*
X898213Y323458D01*
X897988Y323466D01*
X897763Y323469D01*
X901891Y322517D02*
X901979Y322485D01*
X902066Y322449D01*
X902152Y322410D01*
X902236Y322367D01*
X902318Y322321D01*
X902398Y322272D01*
X902476Y322220D01*
X902552Y322164D01*
X902626Y322106D01*
X902697Y322044D01*
X902766Y321980D01*
X902832Y321913D01*
X902895Y321844D01*
X902956Y321772D01*
X903014Y321698D01*
X903068Y321621D01*
X903120Y321543D01*
X903168Y321462D01*
X903213Y321380D01*
X903255Y321295D01*
X903293Y321209D01*
X903328Y321122D01*
X903360Y321034D01*
X903387Y320944D01*
X903412Y320853D01*
X903432Y320761D01*
X903449Y320669D01*
X903462Y320575D01*
X903471Y320482D01*
X903477Y320388D01*
X903479Y320294D01*
X900938Y317754D02*
X894588Y322834D01*
X894588Y328549D02*
X892048Y331724D01*
X903478Y331724D01*
X903478Y328549D02*
X903478Y334899D01*
D10*
X973138Y263525D02*
X979488Y269875D01*
X992188Y269875D01*
X998538Y263525D01*
X998538Y250825D01*
X992188Y244475D01*
X979488Y244475D01*
X973138Y250825D01*
X941388Y269875D02*
X928688Y269875D01*
X941388Y269875D02*
X947738Y263525D01*
X947738Y250825D01*
X941388Y244475D01*
X947738Y263525D02*
X954088Y269875D01*
X966788Y269875D01*
X973138Y263525D01*
X973138Y250825D01*
X966788Y244475D01*
X954088Y244475D01*
X947738Y250825D01*
X922338Y250825D02*
X922338Y263525D01*
X928688Y269875D01*
X922338Y250825D02*
X928688Y244475D01*
X941388Y244475D01*
X1004888Y269875D02*
X1017588Y269875D01*
X1023938Y263525D01*
X1023938Y250825D01*
X1017588Y244475D01*
X998538Y263525D02*
X1004888Y269875D01*
X998538Y250825D02*
X1004888Y244475D01*
X1017588Y244475D01*
X484505Y299720D02*
X484505Y304800D01*
X484505Y299720D02*
X479425Y299720D01*
X484505Y317500D02*
X484505Y322580D01*
X479425Y322580D01*
X466725Y322580D02*
X461645Y322580D01*
X461645Y317500D01*
X461645Y304800D02*
X461645Y299720D01*
X466725Y299720D01*
X484505Y279400D02*
X484505Y274320D01*
X479425Y274320D01*
X484505Y292100D02*
X484505Y297180D01*
X479425Y297180D01*
X466725Y297180D02*
X461645Y297180D01*
X461645Y292100D01*
X461645Y279400D02*
X461645Y274320D01*
X466725Y274320D01*
X408305Y274320D02*
X408305Y279400D01*
X408305Y274320D02*
X403225Y274320D01*
X408305Y292100D02*
X408305Y297180D01*
X403225Y297180D01*
X390525Y297180D02*
X385445Y297180D01*
X385445Y292100D01*
X385445Y279400D02*
X385445Y274320D01*
X390525Y274320D01*
X408305Y299720D02*
X408305Y304800D01*
X408305Y299720D02*
X403225Y299720D01*
X408305Y317500D02*
X408305Y322580D01*
X403225Y322580D01*
X390525Y322580D02*
X385445Y322580D01*
X385445Y317500D01*
X385445Y304800D02*
X385445Y299720D01*
X390525Y299720D01*
X332105Y325120D02*
X332105Y330200D01*
X332105Y325120D02*
X327025Y325120D01*
X332105Y342900D02*
X332105Y347980D01*
X327025Y347980D01*
X314325Y347980D02*
X309245Y347980D01*
X309245Y342900D01*
X309245Y330200D02*
X309245Y325120D01*
X314325Y325120D01*
X357505Y317500D02*
X357505Y312420D01*
X352425Y312420D01*
X357505Y330200D02*
X357505Y335280D01*
X352425Y335280D01*
X339725Y335280D02*
X334645Y335280D01*
X334645Y330200D01*
X334645Y317500D02*
X334645Y312420D01*
X339725Y312420D01*
X357505Y292100D02*
X357505Y287020D01*
X352425Y287020D01*
X357505Y304800D02*
X357505Y309880D01*
X352425Y309880D01*
X339725Y309880D02*
X334645Y309880D01*
X334645Y304800D01*
X334645Y292100D02*
X334645Y287020D01*
X339725Y287020D01*
X332105Y299720D02*
X332105Y304800D01*
X332105Y299720D02*
X327025Y299720D01*
X332105Y317500D02*
X332105Y322580D01*
X327025Y322580D01*
X314325Y322580D02*
X309245Y322580D01*
X309245Y317500D01*
X309245Y304800D02*
X309245Y299720D01*
X314325Y299720D01*
X332105Y279400D02*
X332105Y274320D01*
X327025Y274320D01*
X332105Y292100D02*
X332105Y297180D01*
X327025Y297180D01*
X314325Y297180D02*
X309245Y297180D01*
X309245Y292100D01*
X309245Y279400D02*
X309245Y274320D01*
X314325Y274320D01*
X357505Y266700D02*
X357505Y261620D01*
X352425Y261620D01*
X357505Y279400D02*
X357505Y284480D01*
X352425Y284480D01*
X339725Y284480D02*
X334645Y284480D01*
X334645Y279400D01*
X334645Y266700D02*
X334645Y261620D01*
X339725Y261620D01*
M02*
