G04 EAGLE Gerber RS-274X export*
G75*
%MOMM*%
%FSLAX34Y34*%
%LPD*%
%INBottom Copper*%
%IPPOS*%
%AMOC8*
5,1,8,0,0,1.08239X$1,22.5*%
G01*
%ADD10P,1.429621X8X202.500000*%
%ADD11C,1.408000*%
%ADD12R,1.408000X1.408000*%
%ADD13C,1.524000*%
%ADD14P,2.336880X8X22.500000*%
%ADD15C,0.762000*%
%ADD16C,0.304800*%
%ADD17C,0.406400*%
%ADD18C,0.254000*%
%ADD19C,0.152400*%
%ADD20C,0.756400*%

G36*
X1054858Y420136D02*
X1054858Y420136D01*
X1054860Y420155D01*
X1054838Y420257D01*
X1054822Y420359D01*
X1054812Y420376D01*
X1054808Y420396D01*
X1054755Y420485D01*
X1054706Y420576D01*
X1054692Y420590D01*
X1054682Y420607D01*
X1054603Y420674D01*
X1054528Y420746D01*
X1054510Y420754D01*
X1054495Y420767D01*
X1054399Y420806D01*
X1054305Y420849D01*
X1054285Y420851D01*
X1054267Y420859D01*
X1054100Y420877D01*
X336550Y420877D01*
X336530Y420874D01*
X336511Y420876D01*
X336409Y420854D01*
X336307Y420838D01*
X336290Y420828D01*
X336270Y420824D01*
X336181Y420771D01*
X336090Y420722D01*
X336076Y420708D01*
X336059Y420698D01*
X335992Y420619D01*
X335921Y420544D01*
X335912Y420526D01*
X335899Y420511D01*
X335860Y420415D01*
X335817Y420321D01*
X335815Y420301D01*
X335807Y420283D01*
X335789Y420116D01*
X335789Y341313D01*
X335792Y341293D01*
X335790Y341273D01*
X335812Y341172D01*
X335829Y341070D01*
X335838Y341052D01*
X335842Y341033D01*
X335895Y340944D01*
X335944Y340852D01*
X335958Y340839D01*
X335968Y340822D01*
X336047Y340754D01*
X336122Y340683D01*
X336140Y340675D01*
X336155Y340662D01*
X336251Y340623D01*
X336345Y340579D01*
X336365Y340577D01*
X336383Y340570D01*
X336550Y340551D01*
X341567Y340551D01*
X341586Y340554D01*
X341606Y340552D01*
X341707Y340574D01*
X341809Y340591D01*
X341827Y340600D01*
X341846Y340605D01*
X341935Y340658D01*
X342027Y340706D01*
X342040Y340721D01*
X342057Y340731D01*
X342125Y340809D01*
X342196Y340884D01*
X342204Y340902D01*
X342217Y340918D01*
X342256Y341014D01*
X342300Y341108D01*
X342302Y341127D01*
X342309Y341146D01*
X342328Y341313D01*
X342328Y383649D01*
X343140Y385609D01*
X344641Y387110D01*
X346601Y387922D01*
X998011Y387922D01*
X999972Y387110D01*
X1015760Y371322D01*
X1016475Y369596D01*
X1016536Y369497D01*
X1016596Y369397D01*
X1016601Y369392D01*
X1016604Y369387D01*
X1016694Y369313D01*
X1016783Y369237D01*
X1016789Y369234D01*
X1016794Y369230D01*
X1016902Y369189D01*
X1017011Y369145D01*
X1017019Y369144D01*
X1017024Y369142D01*
X1017042Y369141D01*
X1017178Y369126D01*
X1027939Y369126D01*
X1027939Y355155D01*
X1027942Y355136D01*
X1027940Y355116D01*
X1027962Y355015D01*
X1027979Y354913D01*
X1027988Y354895D01*
X1027992Y354876D01*
X1028045Y354787D01*
X1028094Y354695D01*
X1028108Y354682D01*
X1028118Y354665D01*
X1028197Y354597D01*
X1028272Y354526D01*
X1028290Y354518D01*
X1028305Y354505D01*
X1028401Y354466D01*
X1028495Y354422D01*
X1028515Y354420D01*
X1028533Y354413D01*
X1028700Y354394D01*
X1047636Y354394D01*
X1049719Y352311D01*
X1049719Y258877D01*
X1044461Y253618D01*
X1021143Y253618D01*
X1021124Y253615D01*
X1021104Y253617D01*
X1021003Y253595D01*
X1020901Y253579D01*
X1020883Y253569D01*
X1020864Y253565D01*
X1020775Y253512D01*
X1020683Y253463D01*
X1020670Y253449D01*
X1020653Y253439D01*
X1020585Y253360D01*
X1020514Y253285D01*
X1020506Y253267D01*
X1020493Y253252D01*
X1020454Y253156D01*
X1020410Y253062D01*
X1020408Y253042D01*
X1020401Y253024D01*
X1020382Y252857D01*
X1020382Y247736D01*
X1018990Y244375D01*
X1016418Y241802D01*
X1013056Y240410D01*
X1009419Y240410D01*
X1006057Y241802D01*
X1003485Y244375D01*
X1002093Y247736D01*
X1002093Y259779D01*
X1002090Y259796D01*
X1002092Y259813D01*
X1002091Y259815D01*
X1002092Y259818D01*
X1002070Y259919D01*
X1002053Y260021D01*
X1002044Y260039D01*
X1002039Y260058D01*
X1001986Y260147D01*
X1001938Y260239D01*
X1001924Y260252D01*
X1001913Y260269D01*
X1001835Y260337D01*
X1001760Y260408D01*
X1001742Y260416D01*
X1001726Y260429D01*
X1001630Y260468D01*
X1001537Y260512D01*
X1001517Y260514D01*
X1001498Y260521D01*
X1001332Y260540D01*
X995743Y260540D01*
X995724Y260537D01*
X995704Y260539D01*
X995603Y260517D01*
X995501Y260500D01*
X995483Y260491D01*
X995464Y260486D01*
X995375Y260433D01*
X995283Y260385D01*
X995270Y260371D01*
X995253Y260360D01*
X995185Y260282D01*
X995114Y260207D01*
X995106Y260189D01*
X995093Y260173D01*
X995054Y260077D01*
X995010Y259984D01*
X995008Y259964D01*
X995001Y259945D01*
X994982Y259779D01*
X994982Y247736D01*
X993590Y244375D01*
X991018Y241802D01*
X989102Y241009D01*
X989003Y240948D01*
X988903Y240888D01*
X988898Y240883D01*
X988893Y240879D01*
X988819Y240790D01*
X988743Y240701D01*
X988740Y240695D01*
X988736Y240690D01*
X988695Y240582D01*
X988651Y240472D01*
X988650Y240465D01*
X988648Y240460D01*
X988647Y240442D01*
X988632Y240306D01*
X988632Y235380D01*
X982233Y228980D01*
X386192Y228980D01*
X362488Y252684D01*
X362430Y252726D01*
X362378Y252776D01*
X362331Y252798D01*
X362289Y252828D01*
X362220Y252849D01*
X362155Y252879D01*
X362103Y252885D01*
X362053Y252900D01*
X361982Y252898D01*
X361911Y252906D01*
X361860Y252895D01*
X361808Y252894D01*
X361740Y252869D01*
X361670Y252854D01*
X361626Y252827D01*
X361577Y252809D01*
X361521Y252765D01*
X361459Y252728D01*
X361425Y252688D01*
X361385Y252656D01*
X361346Y252595D01*
X361299Y252541D01*
X361280Y252493D01*
X361252Y252449D01*
X361234Y252379D01*
X361207Y252313D01*
X361199Y252241D01*
X361191Y252210D01*
X361193Y252187D01*
X361189Y252146D01*
X361189Y190500D01*
X361192Y190480D01*
X361190Y190461D01*
X361212Y190359D01*
X361229Y190257D01*
X361238Y190240D01*
X361242Y190220D01*
X361295Y190131D01*
X361344Y190040D01*
X361358Y190026D01*
X361368Y190009D01*
X361447Y189942D01*
X361522Y189871D01*
X361540Y189862D01*
X361555Y189849D01*
X361651Y189810D01*
X361745Y189767D01*
X361765Y189765D01*
X361783Y189757D01*
X361950Y189739D01*
X1054100Y189739D01*
X1054120Y189742D01*
X1054139Y189740D01*
X1054241Y189762D01*
X1054343Y189779D01*
X1054360Y189788D01*
X1054380Y189792D01*
X1054469Y189845D01*
X1054560Y189894D01*
X1054574Y189908D01*
X1054591Y189918D01*
X1054658Y189997D01*
X1054730Y190072D01*
X1054738Y190090D01*
X1054751Y190105D01*
X1054790Y190201D01*
X1054833Y190295D01*
X1054835Y190315D01*
X1054843Y190333D01*
X1054861Y190500D01*
X1054861Y420116D01*
X1054858Y420136D01*
G37*
G36*
X900542Y355220D02*
X900542Y355220D01*
X917575Y355220D01*
X917595Y355223D01*
X917614Y355221D01*
X917716Y355243D01*
X917818Y355259D01*
X917835Y355269D01*
X917855Y355273D01*
X917944Y355326D01*
X918035Y355375D01*
X918049Y355389D01*
X918066Y355399D01*
X918133Y355478D01*
X918205Y355553D01*
X918213Y355571D01*
X918226Y355586D01*
X918265Y355682D01*
X918308Y355776D01*
X918310Y355796D01*
X918318Y355814D01*
X918336Y355981D01*
X918336Y369126D01*
X932914Y369126D01*
X932978Y369137D01*
X933044Y369137D01*
X933124Y369161D01*
X933157Y369166D01*
X933174Y369175D01*
X933205Y369184D01*
X933218Y369190D01*
X936857Y369190D01*
X936870Y369184D01*
X936934Y369169D01*
X936994Y369145D01*
X937077Y369136D01*
X937109Y369128D01*
X937129Y369130D01*
X937161Y369126D01*
X958314Y369126D01*
X958378Y369137D01*
X958444Y369137D01*
X958524Y369161D01*
X958557Y369166D01*
X958574Y369175D01*
X958605Y369184D01*
X958618Y369190D01*
X962257Y369190D01*
X962270Y369184D01*
X962334Y369169D01*
X962394Y369145D01*
X962477Y369136D01*
X962509Y369128D01*
X962529Y369130D01*
X962561Y369126D01*
X983714Y369126D01*
X983778Y369137D01*
X983844Y369137D01*
X983924Y369161D01*
X983957Y369166D01*
X983974Y369175D01*
X984005Y369184D01*
X984018Y369190D01*
X987657Y369190D01*
X987670Y369184D01*
X987734Y369169D01*
X987794Y369145D01*
X987877Y369136D01*
X987909Y369128D01*
X987929Y369130D01*
X987961Y369126D01*
X1001029Y369126D01*
X1001100Y369138D01*
X1001171Y369140D01*
X1001220Y369158D01*
X1001272Y369166D01*
X1001335Y369200D01*
X1001402Y369224D01*
X1001443Y369257D01*
X1001489Y369281D01*
X1001538Y369333D01*
X1001594Y369378D01*
X1001623Y369422D01*
X1001658Y369459D01*
X1001689Y369524D01*
X1001727Y369585D01*
X1001740Y369635D01*
X1001762Y369683D01*
X1001770Y369754D01*
X1001788Y369823D01*
X1001783Y369875D01*
X1001789Y369927D01*
X1001774Y369997D01*
X1001768Y370069D01*
X1001748Y370116D01*
X1001737Y370167D01*
X1001700Y370229D01*
X1001672Y370295D01*
X1001627Y370351D01*
X1001611Y370378D01*
X1001593Y370394D01*
X1001567Y370426D01*
X994963Y377030D01*
X994889Y377083D01*
X994820Y377142D01*
X994790Y377155D01*
X994763Y377173D01*
X994677Y377200D01*
X994592Y377234D01*
X994551Y377239D01*
X994528Y377246D01*
X994496Y377245D01*
X994425Y377253D01*
X353758Y377253D01*
X353739Y377250D01*
X353719Y377252D01*
X353618Y377230D01*
X353516Y377213D01*
X353498Y377204D01*
X353479Y377199D01*
X353390Y377146D01*
X353298Y377098D01*
X353285Y377084D01*
X353268Y377073D01*
X353200Y376995D01*
X353129Y376920D01*
X353121Y376902D01*
X353108Y376886D01*
X353069Y376790D01*
X353025Y376697D01*
X353023Y376677D01*
X353016Y376658D01*
X352997Y376492D01*
X352997Y341313D01*
X353000Y341293D01*
X352998Y341273D01*
X353020Y341172D01*
X353037Y341070D01*
X353046Y341052D01*
X353051Y341033D01*
X353104Y340944D01*
X353152Y340852D01*
X353166Y340839D01*
X353177Y340822D01*
X353255Y340754D01*
X353330Y340683D01*
X353348Y340675D01*
X353364Y340662D01*
X353460Y340623D01*
X353553Y340579D01*
X353573Y340577D01*
X353592Y340570D01*
X353758Y340551D01*
X889826Y340551D01*
X889826Y267461D01*
X361950Y267461D01*
X361930Y267458D01*
X361911Y267460D01*
X361809Y267438D01*
X361707Y267422D01*
X361690Y267412D01*
X361670Y267408D01*
X361581Y267355D01*
X361490Y267306D01*
X361476Y267292D01*
X361459Y267282D01*
X361392Y267203D01*
X361321Y267128D01*
X361312Y267110D01*
X361299Y267095D01*
X361260Y266999D01*
X361217Y266905D01*
X361215Y266885D01*
X361207Y266867D01*
X361189Y266700D01*
X361189Y262204D01*
X361204Y262114D01*
X361211Y262023D01*
X361223Y261993D01*
X361229Y261961D01*
X361271Y261880D01*
X361307Y261797D01*
X361333Y261764D01*
X361344Y261744D01*
X361367Y261722D01*
X361412Y261666D01*
X388285Y234793D01*
X388359Y234740D01*
X388428Y234680D01*
X388458Y234668D01*
X388484Y234649D01*
X388571Y234622D01*
X388656Y234588D01*
X388697Y234584D01*
X388719Y234577D01*
X388752Y234578D01*
X388823Y234570D01*
X898144Y234570D01*
X898164Y234573D01*
X898183Y234571D01*
X898285Y234593D01*
X898387Y234609D01*
X898404Y234619D01*
X898424Y234623D01*
X898513Y234676D01*
X898604Y234725D01*
X898618Y234739D01*
X898635Y234749D01*
X898702Y234828D01*
X898774Y234903D01*
X898782Y234921D01*
X898795Y234936D01*
X898834Y235032D01*
X898877Y235126D01*
X898879Y235146D01*
X898887Y235164D01*
X898905Y235331D01*
X898905Y353583D01*
X900542Y355220D01*
G37*
G36*
X904498Y235311D02*
X904498Y235311D01*
X904496Y235292D01*
X904518Y235190D01*
X904534Y235088D01*
X904544Y235071D01*
X904548Y235051D01*
X904601Y234962D01*
X904650Y234871D01*
X904664Y234857D01*
X904674Y234840D01*
X904753Y234773D01*
X904828Y234701D01*
X904846Y234693D01*
X904861Y234680D01*
X904957Y234641D01*
X905051Y234598D01*
X905071Y234596D01*
X905089Y234588D01*
X905256Y234570D01*
X979602Y234570D01*
X979692Y234584D01*
X979783Y234592D01*
X979813Y234604D01*
X979845Y234609D01*
X979925Y234652D01*
X980009Y234688D01*
X980041Y234714D01*
X980062Y234725D01*
X980084Y234748D01*
X980140Y234793D01*
X982820Y237472D01*
X982873Y237546D01*
X982932Y237616D01*
X982945Y237646D01*
X982963Y237672D01*
X982990Y237759D01*
X983024Y237844D01*
X983029Y237885D01*
X983036Y237907D01*
X983035Y237939D01*
X983043Y238010D01*
X983043Y240306D01*
X983024Y240421D01*
X983007Y240537D01*
X983004Y240542D01*
X983003Y240549D01*
X982949Y240651D01*
X982895Y240756D01*
X982891Y240760D01*
X982888Y240766D01*
X982804Y240846D01*
X982720Y240928D01*
X982713Y240932D01*
X982710Y240935D01*
X982693Y240943D01*
X982573Y241009D01*
X980657Y241802D01*
X978085Y244375D01*
X976693Y247736D01*
X976693Y259779D01*
X976690Y259796D01*
X976692Y259813D01*
X976691Y259815D01*
X976692Y259818D01*
X976670Y259919D01*
X976653Y260021D01*
X976644Y260039D01*
X976639Y260058D01*
X976586Y260147D01*
X976538Y260239D01*
X976524Y260252D01*
X976513Y260269D01*
X976435Y260337D01*
X976360Y260408D01*
X976342Y260416D01*
X976326Y260429D01*
X976230Y260468D01*
X976137Y260512D01*
X976117Y260514D01*
X976098Y260521D01*
X975932Y260540D01*
X970343Y260540D01*
X970324Y260537D01*
X970304Y260539D01*
X970203Y260517D01*
X970101Y260500D01*
X970083Y260491D01*
X970064Y260486D01*
X969975Y260433D01*
X969883Y260385D01*
X969870Y260371D01*
X969853Y260360D01*
X969785Y260282D01*
X969714Y260207D01*
X969706Y260189D01*
X969693Y260173D01*
X969654Y260077D01*
X969610Y259984D01*
X969608Y259964D01*
X969601Y259945D01*
X969582Y259779D01*
X969582Y247736D01*
X968190Y244375D01*
X965618Y241802D01*
X962256Y240410D01*
X958619Y240410D01*
X955257Y241802D01*
X952685Y244375D01*
X951293Y247736D01*
X951293Y259779D01*
X951290Y259796D01*
X951292Y259813D01*
X951291Y259815D01*
X951292Y259818D01*
X951270Y259919D01*
X951253Y260021D01*
X951244Y260039D01*
X951239Y260058D01*
X951186Y260147D01*
X951138Y260239D01*
X951124Y260252D01*
X951113Y260269D01*
X951035Y260337D01*
X950960Y260408D01*
X950942Y260416D01*
X950926Y260429D01*
X950830Y260468D01*
X950737Y260512D01*
X950717Y260514D01*
X950698Y260521D01*
X950532Y260540D01*
X944943Y260540D01*
X944924Y260537D01*
X944904Y260539D01*
X944803Y260517D01*
X944701Y260500D01*
X944683Y260491D01*
X944664Y260486D01*
X944575Y260433D01*
X944483Y260385D01*
X944470Y260371D01*
X944453Y260360D01*
X944385Y260282D01*
X944314Y260207D01*
X944306Y260189D01*
X944293Y260173D01*
X944254Y260077D01*
X944210Y259984D01*
X944208Y259964D01*
X944201Y259945D01*
X944182Y259779D01*
X944182Y247736D01*
X942790Y244375D01*
X940218Y241802D01*
X936856Y240410D01*
X933219Y240410D01*
X929857Y241802D01*
X927285Y244375D01*
X925893Y247736D01*
X925893Y259779D01*
X925890Y259796D01*
X925892Y259813D01*
X925891Y259815D01*
X925892Y259818D01*
X925870Y259919D01*
X925853Y260021D01*
X925844Y260039D01*
X925839Y260058D01*
X925786Y260147D01*
X925738Y260239D01*
X925724Y260252D01*
X925713Y260269D01*
X925635Y260337D01*
X925560Y260408D01*
X925542Y260416D01*
X925526Y260429D01*
X925430Y260468D01*
X925337Y260512D01*
X925317Y260514D01*
X925298Y260521D01*
X925132Y260540D01*
X921752Y260540D01*
X917738Y262203D01*
X914665Y265275D01*
X913954Y266991D01*
X913002Y269290D01*
X913002Y340310D01*
X913297Y341021D01*
X914665Y344325D01*
X917738Y347397D01*
X917866Y347451D01*
X917965Y347512D01*
X918066Y347572D01*
X918070Y347577D01*
X918075Y347580D01*
X918150Y347670D01*
X918226Y347759D01*
X918228Y347765D01*
X918232Y347770D01*
X918274Y347878D01*
X918295Y347930D01*
X918308Y347959D01*
X918309Y347965D01*
X918318Y347987D01*
X918319Y347995D01*
X918320Y347999D01*
X918321Y348018D01*
X918336Y348154D01*
X918336Y348869D01*
X918333Y348889D01*
X918335Y348908D01*
X918313Y349010D01*
X918297Y349112D01*
X918287Y349129D01*
X918283Y349149D01*
X918230Y349238D01*
X918181Y349329D01*
X918167Y349343D01*
X918157Y349360D01*
X918078Y349427D01*
X918003Y349499D01*
X917985Y349507D01*
X917970Y349520D01*
X917874Y349559D01*
X917780Y349602D01*
X917760Y349604D01*
X917742Y349612D01*
X917575Y349630D01*
X905256Y349630D01*
X905236Y349627D01*
X905217Y349629D01*
X905115Y349607D01*
X905013Y349591D01*
X904996Y349581D01*
X904976Y349577D01*
X904887Y349524D01*
X904796Y349475D01*
X904782Y349461D01*
X904765Y349451D01*
X904698Y349372D01*
X904626Y349297D01*
X904618Y349279D01*
X904605Y349264D01*
X904566Y349168D01*
X904523Y349074D01*
X904521Y349054D01*
X904513Y349036D01*
X904495Y348869D01*
X904495Y235331D01*
X904498Y235311D01*
G37*
G36*
X1041289Y260746D02*
X1041289Y260746D01*
X1041380Y260754D01*
X1041410Y260766D01*
X1041442Y260771D01*
X1041522Y260814D01*
X1041606Y260850D01*
X1041638Y260876D01*
X1041659Y260887D01*
X1041681Y260910D01*
X1041737Y260955D01*
X1042383Y261600D01*
X1042436Y261674D01*
X1042495Y261744D01*
X1042508Y261774D01*
X1042526Y261800D01*
X1042553Y261887D01*
X1042587Y261972D01*
X1042592Y262013D01*
X1042599Y262035D01*
X1042598Y262067D01*
X1042606Y262139D01*
X1042606Y346520D01*
X1042603Y346539D01*
X1042605Y346559D01*
X1042583Y346660D01*
X1042566Y346762D01*
X1042557Y346780D01*
X1042552Y346799D01*
X1042499Y346888D01*
X1042451Y346980D01*
X1042437Y346993D01*
X1042426Y347010D01*
X1042348Y347078D01*
X1042273Y347149D01*
X1042255Y347157D01*
X1042239Y347170D01*
X1042143Y347209D01*
X1042050Y347253D01*
X1042030Y347255D01*
X1042011Y347262D01*
X1041845Y347281D01*
X1030492Y347281D01*
X1030421Y347269D01*
X1030349Y347267D01*
X1030300Y347249D01*
X1030249Y347241D01*
X1030186Y347207D01*
X1030118Y347183D01*
X1030078Y347150D01*
X1030031Y347126D01*
X1029982Y347074D01*
X1029926Y347029D01*
X1029898Y346985D01*
X1029862Y346948D01*
X1029832Y346883D01*
X1029793Y346822D01*
X1029780Y346772D01*
X1029758Y346725D01*
X1029751Y346653D01*
X1029733Y346584D01*
X1029737Y346532D01*
X1029731Y346480D01*
X1029747Y346410D01*
X1029752Y346339D01*
X1029773Y346291D01*
X1029784Y346240D01*
X1029820Y346178D01*
X1029849Y346112D01*
X1029893Y346056D01*
X1029910Y346029D01*
X1029928Y346013D01*
X1029953Y345981D01*
X1031610Y344325D01*
X1033273Y340310D01*
X1033273Y269290D01*
X1032321Y266991D01*
X1031610Y265275D01*
X1028537Y262203D01*
X1028522Y262196D01*
X1028439Y262145D01*
X1028353Y262099D01*
X1028335Y262081D01*
X1028313Y262067D01*
X1028251Y261992D01*
X1028184Y261921D01*
X1028173Y261897D01*
X1028156Y261877D01*
X1028121Y261786D01*
X1028080Y261698D01*
X1028077Y261672D01*
X1028068Y261648D01*
X1028064Y261550D01*
X1028053Y261454D01*
X1028058Y261428D01*
X1028057Y261402D01*
X1028084Y261308D01*
X1028105Y261213D01*
X1028119Y261191D01*
X1028126Y261166D01*
X1028181Y261086D01*
X1028231Y261002D01*
X1028251Y260985D01*
X1028266Y260964D01*
X1028344Y260905D01*
X1028418Y260842D01*
X1028442Y260832D01*
X1028463Y260817D01*
X1028556Y260787D01*
X1028646Y260750D01*
X1028679Y260747D01*
X1028697Y260741D01*
X1028730Y260741D01*
X1028813Y260732D01*
X1041199Y260732D01*
X1041289Y260746D01*
G37*
D10*
X473075Y285750D03*
X396875Y285750D03*
X473075Y311150D03*
X396875Y311150D03*
D11*
X320675Y336550D03*
X320675Y311150D03*
X320675Y285750D03*
X346075Y323850D03*
X346075Y298450D03*
D12*
X346075Y273050D03*
D13*
X935038Y344805D02*
X935038Y360045D01*
X960438Y360045D02*
X960438Y344805D01*
X985838Y344805D02*
X985838Y360045D01*
X1011238Y360045D02*
X1011238Y344805D01*
X935038Y264795D02*
X935038Y249555D01*
X960438Y249555D02*
X960438Y264795D01*
X985838Y264795D02*
X985838Y249555D01*
X1011238Y249555D02*
X1011238Y264795D01*
D14*
X473075Y311150D03*
X473075Y285750D03*
X396875Y285750D03*
X396875Y311150D03*
X320675Y336550D03*
X346075Y323850D03*
X346075Y298450D03*
X320675Y311150D03*
X320675Y285750D03*
X346075Y273050D03*
D15*
X1011238Y352425D02*
X1011238Y368300D01*
X996950Y382588D01*
X347663Y382588D02*
X347663Y325438D01*
D16*
X346075Y323850D01*
D15*
X347663Y382588D02*
X996950Y382588D01*
D17*
X1012825Y350838D02*
X1046163Y350838D01*
X1012825Y350838D02*
X1011238Y352425D01*
X1011238Y257175D02*
X1042988Y257175D01*
X1046163Y260350D02*
X1046163Y350838D01*
X1046163Y260350D02*
X1042988Y257175D01*
D18*
X935038Y352425D02*
X901700Y352425D01*
X901700Y231775D01*
X387350Y231775D01*
X346075Y273050D01*
X901700Y231775D02*
X981075Y231775D01*
X985838Y236538D01*
X985838Y257175D01*
D19*
X396875Y285750D02*
X396675Y285950D01*
D18*
X320675Y311150D02*
X309563Y311150D01*
X304800Y306388D01*
X304800Y266700D01*
X309563Y261938D01*
D20*
X309563Y261938D03*
X1254125Y304800D03*
D18*
X1216025Y342900D01*
D20*
X1216025Y342900D03*
M02*
