M48
;GenerationSoftware,Autodesk,EAGLE,9.5.1*%
;CreationDate,2020-04-11T04:11:45Z*%
FMAT,2
ICI,OFF
METRIC,TZ,000.000
T6C0.350
T5C0.800
T4C0.813
T3C0.900
T2C1.016
T1C3.200
%
G90
M71
T1
X25717Y25400
X25717Y35560
T2
X34608Y27305
X34608Y32385
X32067Y33655
X39688Y31115
X39688Y28575
X47307Y28575
X47307Y31115
X101124Y25717
X98584Y25717
X96044Y25717
X93504Y25717
X101124Y35243
X98584Y35243
X96044Y35243
X93504Y35243
X34608Y29845
X32067Y31115
X32067Y28575
T3
X34608Y32385
X34608Y29845
X34608Y27305
X32067Y33655
X32067Y31115
X32067Y28575
T4
X47307Y28575
X39688Y31115
X47307Y31115
X39688Y28575
T5
X39688Y28575
X47307Y28575
X47307Y31115
X39688Y31115
X47307Y31115
X47307Y28575
X39688Y28575
X39688Y31115
T6
X121602Y34290
X125412Y30480
X30956Y26194
M30